<svg width="40" height="40" viewBox="0 0 40 40" fill="none" xmlns="http://www.w3.org/2000/svg">
<path d="M34.8092 13.555V18.3325C34.7912 18.374 34.7648 18.4134 34.7573 18.4564C34.6438 19.1236 34.3395 19.7018 33.8878 20.1983C33.7292 20.3727 33.6796 20.5442 33.6796 20.7676C33.6849 23.6844 33.6841 26.6004 33.6826 29.5172C33.6826 31.0216 32.5868 32.103 31.0566 32.1038C23.9588 32.1052 16.8618 32.1052 9.76405 32.1038C8.22259 32.1038 7.13206 31.0194 7.13131 29.4965C7.13056 26.5611 7.13356 23.6265 7.12379 20.6911C7.12379 20.5442 7.05314 20.369 6.95619 20.2555C6.40304 19.6061 6.0235 18.8839 6.01222 18.0237C5.99418 16.6262 5.99869 15.2279 6.00921 13.8296C6.01898 12.5939 7.08472 11.4821 8.33758 11.4494C9.7896 11.4116 11.2439 11.4323 12.6967 11.4279C12.8049 11.4279 12.9131 11.4279 13.0378 11.4279C13.0378 10.7926 13.0348 10.2003 13.0378 9.60879C13.0469 8.20458 14.1915 7.02153 15.6157 7.01337C18.8129 6.99481 22.01 6.99629 25.2072 7.01337C26.4383 7.02004 27.5235 7.927 27.7084 9.12712C27.8076 9.77059 27.758 10.4363 27.7738 11.0924C27.7768 11.1986 27.7738 11.304 27.7738 11.4286C27.9309 11.4286 28.0421 11.4286 28.1541 11.4286C29.5791 11.4323 31.004 11.4301 32.429 11.4427C33.0144 11.4479 33.5165 11.6847 33.9562 12.0602C34.4229 12.4581 34.6604 12.9813 34.8077 13.5557L34.8092 13.555ZM23.3313 22.0352C23.8176 21.9855 24.264 21.9417 24.7104 21.8935C26.3045 21.7213 27.8753 21.4311 29.3979 20.9286C30.4494 20.582 31.4647 20.156 32.3065 19.4123C32.8506 18.9314 33.1437 18.351 33.1287 17.6066C33.1046 16.431 33.1234 15.2554 33.1219 14.0797C33.1219 13.4296 32.795 13.1052 32.1419 13.1052C24.3136 13.1052 16.4853 13.1052 8.65773 13.1052C8.02265 13.1052 7.69348 13.434 7.69273 14.0664C7.69123 15.196 7.72954 16.3271 7.68069 17.4545C7.6386 18.4312 8.07302 19.1155 8.82233 19.6699C9.5273 20.1909 10.3187 20.5434 11.1409 20.8322C12.7177 21.3858 14.3523 21.6879 16.008 21.8868C16.4883 21.9447 16.9708 21.9796 17.4826 22.0286C17.4826 21.7532 17.4796 21.5142 17.4826 21.2752C17.4894 20.8062 17.8073 20.4432 18.277 20.4388C19.6922 20.424 21.1082 20.424 22.5234 20.4381C23.0104 20.4425 23.3238 20.8017 23.3298 21.2916C23.3328 21.5216 23.3298 21.7517 23.3298 22.036L23.3313 22.0352ZM23.2704 23.7927C23.2802 23.7631 23.2742 23.7809 23.2689 23.7979C22.8563 25.1316 21.8597 25.9191 20.561 25.9377C19.0316 25.9592 18.0523 25.2808 17.5638 23.8774C17.5375 23.8024 17.421 23.72 17.3368 23.7096C16.4462 23.5946 15.5511 23.507 14.6612 23.386C12.8364 23.1381 11.0673 22.6876 9.38676 21.9261C9.20413 21.8438 9.023 21.7577 8.81782 21.6619V21.9514C8.81782 24.4422 8.81782 26.9322 8.81782 29.423C8.81782 30.105 9.14099 30.4279 9.83093 30.4279C16.8814 30.4279 23.9318 30.4279 30.9822 30.4279C31.6729 30.4279 31.9976 30.1058 31.9976 29.4252C31.9976 26.9344 31.9976 24.4444 31.9976 21.9536C31.9976 21.8668 31.9976 21.7799 31.9976 21.656C30.6282 22.3692 29.2123 22.8175 27.7505 23.0921C26.2819 23.3675 24.7968 23.5582 23.2712 23.7927H23.2704ZM26.0903 11.4145C26.0903 10.869 26.0903 10.351 26.0903 9.83368C26.0903 9.04325 25.725 8.68329 24.9216 8.68255C22.6158 8.68255 20.31 8.68255 18.0049 8.68255C17.2549 8.68255 16.5056 8.67735 15.7555 8.68477C15.2039 8.69071 14.7882 8.99129 14.7499 9.49821C14.7018 10.1291 14.7386 10.7666 14.7386 11.4145H26.091H26.0903ZM19.1684 22.1191C19.1684 22.3974 19.1857 22.6646 19.1654 22.9288C19.0977 23.815 19.6922 24.4266 20.7662 24.2291C21.1796 24.1534 21.4952 23.9056 21.5719 23.51C21.6598 23.0572 21.641 22.5845 21.6688 22.1191H19.1691H19.1684Z" fill="#B2B2B2"/>
</svg>
