<svg width="40" height="40" viewBox="0 0 40 40" fill="none" xmlns="http://www.w3.org/2000/svg">
<path d="M17.6263 5C17.9495 5.05344 18.2719 5.1091 18.5951 5.16105C21.4796 5.62566 23.8575 6.98238 25.7312 9.17629C27.1539 10.8418 28.0122 12.7707 28.3263 14.9334C28.6548 17.1927 28.3331 19.3621 27.3455 21.4157C26.9758 22.1846 26.4542 22.883 25.995 23.6089C25.8958 23.7662 25.765 23.9043 25.632 24.0712C26.1761 24.6071 26.7112 25.1385 27.2553 25.6603C27.3012 25.7041 27.4192 25.713 27.4868 25.6892C28.6841 25.2714 29.6987 25.5541 30.5795 26.4321C31.8542 27.7028 33.1326 28.9697 34.4275 30.2203C35.0348 30.8066 35.5955 31.4085 35.7841 32.2591V33.0888C35.5857 33.5022 35.4527 33.9653 35.1768 34.3209C34.2487 35.5173 32.5403 35.6783 31.3619 34.7253C31.2461 34.6318 31.1334 34.5324 31.0274 34.4277C29.5882 33.0116 28.152 31.5918 26.7112 30.1765C25.8394 29.3207 25.5741 28.3299 25.9882 27.1736C26.013 27.1053 26.0123 26.9866 25.9694 26.9435C25.4396 26.4069 24.8992 25.8792 24.3566 25.3441C23.9785 25.618 23.626 25.8911 23.2555 26.1375C21.0925 27.5766 18.6935 28.226 16.0984 28.0939C13.8407 27.9789 11.7739 27.2641 9.92951 25.9586C7.81987 24.4661 6.35507 22.4978 5.56292 20.0664C5.32017 19.3212 5.22471 18.5301 5.06238 17.7597C5.03983 17.6543 5.02104 17.5489 5 17.4435C5 16.8512 5 16.2582 5 15.666C5.04134 15.4248 5.08793 15.1836 5.12251 14.9416C5.42614 12.7804 6.28893 10.8536 7.70639 9.18891C9.58154 6.98758 11.9632 5.62492 14.8553 5.16031C15.1777 5.10836 15.5001 5.05344 15.8225 5C16.4238 5 17.025 5 17.6263 5ZM16.7289 26.3327C22.2567 26.2681 26.6398 21.9709 26.6308 16.5447C26.6218 11.1075 22.2356 6.7998 16.7357 6.79238C11.2312 6.78496 6.8218 11.1037 6.81879 16.5529C6.81579 21.9887 11.2154 26.2755 16.7297 26.3327H16.7289ZM29.7889 30.7524C29.9422 30.883 30.1256 31.0211 30.2879 31.1792C30.9929 31.8657 31.6896 32.5604 32.393 33.2484C32.6583 33.5082 32.9687 33.6336 33.3468 33.5104C33.6932 33.3976 33.8947 33.1571 33.96 32.812C34.0254 32.4691 33.8684 32.2019 33.6294 31.9681C32.8139 31.1673 32.0015 30.3643 31.1868 29.5627C31.1469 29.5234 31.0988 29.4922 31.0801 29.4766C30.6562 29.8959 30.2481 30.2989 29.7881 30.7532L29.7889 30.7524ZM28.4383 29.3638C28.8802 28.9289 29.2928 28.5229 29.7205 28.1036C29.5409 27.9314 29.3402 27.7258 29.1252 27.5358C28.7404 27.1959 28.2331 27.1996 27.8836 27.5343C27.5244 27.8787 27.5109 28.3871 27.8634 28.7797C28.055 28.9927 28.2647 29.1894 28.4383 29.3645V29.3638Z" fill="#B2B2B2"/>
<path d="M29.7888 30.7524C30.2488 30.2982 30.6561 29.8952 31.0808 29.4758C31.0996 29.4907 31.1477 29.5226 31.1875 29.5619C32.0022 30.3635 32.8154 31.1665 33.6301 31.9674C33.8683 32.2019 34.0254 32.4691 33.9608 32.8112C33.8954 33.1563 33.694 33.3968 33.3475 33.5096C32.9687 33.6328 32.659 33.5074 32.3937 33.2476C31.6903 32.5596 30.9936 31.8657 30.2886 31.1784C30.1263 31.0203 29.9429 30.8823 29.7896 30.7517L29.7888 30.7524Z" fill="white"/>
<path d="M14.0706 15.4536C12.3796 13.4631 13.2018 11.2083 14.4621 10.2249C15.8961 9.10571 17.9411 9.19699 19.2556 10.4661C20.5423 11.7086 20.7948 13.8357 19.3759 15.4284C19.6675 15.6451 19.9711 15.8455 20.2462 16.0793C21.4119 17.0694 22.0379 18.3333 22.1228 19.8429C22.1612 20.5317 22.1409 21.2249 22.1326 21.9151C22.1266 22.4027 21.7456 22.7731 21.248 22.7738C18.2335 22.7775 15.219 22.7775 12.2037 22.7738C11.755 22.7738 11.3379 22.4554 11.3326 22.0331C11.3213 20.9807 11.2101 19.9194 11.4671 18.8781C11.8039 17.5162 12.5689 16.4452 13.7512 15.6652C13.8579 15.5947 13.9638 15.5241 14.0706 15.4529V15.4536ZM13.1364 20.9814H20.3131C20.4544 19.3835 20.0763 18.0068 18.6371 17.1176C17.3932 16.3495 16.0885 16.3428 14.8379 17.1013C13.3799 17.986 12.9928 19.3702 13.1364 20.9814ZM14.9236 13.0074C14.9304 13.9678 15.7623 14.782 16.7311 14.776C17.7051 14.7693 18.5326 13.9477 18.5258 12.9948C18.5191 12.0366 17.6826 11.218 16.7176 11.2254C15.7451 11.2328 14.9161 12.0559 14.9228 13.0074H14.9236Z" fill="#B2B2B2"/>
</svg>
