<svg width="40" height="40" viewBox="0 0 40 40" fill="none" xmlns="http://www.w3.org/2000/svg">
<path d="M15.5681 5C16.1727 5 16.7779 5 17.3826 5C17.4565 5.01875 17.5286 5.04805 17.6036 5.05508C19.5131 5.23789 21.2736 5.85662 22.8477 6.94703C25.9036 9.06398 27.5826 11.9954 27.8952 15.7037C27.9122 15.9082 27.9902 15.9715 28.1714 16.033C31.6643 17.2236 33.8693 19.6101 34.7648 23.1971C34.868 23.6096 34.9226 24.0338 35 24.4527V26.1519C34.983 26.1965 34.9548 26.2392 34.9507 26.2849C34.8223 27.6425 34.4036 28.9058 33.7468 30.0976C33.691 30.1983 33.6957 30.3595 33.7274 30.4778C33.9602 31.3514 34.2083 32.221 34.4499 33.0922C34.617 33.6969 34.7813 34.3027 34.9566 34.9455C34.8598 34.9262 34.8047 34.9191 34.7519 34.9045C33.348 34.516 31.9429 34.1293 30.5407 33.7338C30.343 33.6782 30.187 33.7051 29.9935 33.7871C29.2182 34.1164 28.4377 34.4404 27.6395 34.7053C27.1663 34.8623 26.656 34.9057 26.1623 35H24.4651C24.1988 34.9561 23.9302 34.9215 23.6663 34.8658C19.8562 34.0643 17.3005 31.836 16.0472 28.1347C15.9927 27.9736 15.9346 27.9044 15.7534 27.8921C14.0392 27.7738 12.4212 27.3156 10.9205 26.4713C10.7375 26.3681 10.581 26.3424 10.3769 26.3998C8.73013 26.8656 7.08047 27.3203 5.4308 27.7773C5.32524 27.8066 5.21557 27.823 5.08889 27.8494C5.10121 27.7726 5.10414 27.7339 5.11411 27.6976C5.5862 25.9902 6.05653 24.2822 6.53624 22.5772C6.59606 22.3651 6.56967 22.2016 6.46352 22.0059C4.98568 19.2749 4.58221 16.3851 5.45894 13.4069C6.72801 9.09445 9.60687 6.3904 13.9659 5.28652C14.4908 5.15293 15.0338 5.09316 15.5681 5ZM7.60533 25.3305C7.68215 25.3105 7.72614 25.3 7.77012 25.2883C8.71723 25.0287 9.66727 24.7779 10.6097 24.502C10.849 24.4322 11.0231 24.4651 11.2302 24.5963C13.427 25.9908 15.8156 26.4654 18.3643 25.9574C23.6089 24.9115 27.0026 19.8146 25.9763 14.5746C24.9518 9.34288 19.8052 5.89764 14.5817 6.94645C10.1587 7.83471 6.90335 11.6995 6.79603 16.2123C6.74853 18.2056 7.26813 20.0501 8.35598 21.7247C8.485 21.9239 8.5026 22.095 8.43751 22.3206C8.15249 23.309 7.888 24.3027 7.60592 25.3305H7.60533ZM27.9017 17.8037C26.8138 23.4754 23.4658 26.8252 17.8294 27.8915C17.8482 27.9519 17.864 28.0081 17.884 28.0626C18.9806 31.072 21.9047 33.1707 25.119 33.2364C26.7804 33.2703 28.3145 32.8297 29.7015 31.9057C29.8768 31.7891 30.0316 31.7563 30.2422 31.8184C30.9547 32.0305 31.6748 32.2169 32.4273 32.4225C32.222 31.6714 32.0379 30.9571 31.8267 30.2517C31.7611 30.0313 31.7939 29.8714 31.9153 29.6833C33.9086 26.5961 33.643 22.8016 31.2321 20.0354C30.3237 18.9931 29.2041 18.2536 27.9011 17.8037H27.9017Z" fill="#B2B2B2"/>
<path d="M13.0007 13.5667C12.9622 11.7723 14.4567 10.1146 16.1848 10.0078C18.0238 9.89376 19.5428 11.0429 19.9195 12.8886C20.1718 14.1236 19.8249 15.2148 18.9646 16.1138C18.5167 16.5818 18.0185 16.9997 17.5595 17.4575C17.4632 17.5536 17.3966 17.7214 17.3878 17.861C17.3645 18.2347 17.3797 18.6114 17.3797 19H15.6089C15.6089 18.2944 15.6025 17.6008 15.6171 16.9077C15.6188 16.8224 15.7251 16.7281 15.8005 16.657C16.4131 16.0756 17.0322 15.5014 17.6454 14.9205C18.1897 14.4048 18.3625 13.7649 18.1476 13.0486C17.9345 12.3394 17.431 11.9371 16.7168 11.8123C15.825 11.6565 14.8824 12.3872 14.7703 13.322C14.7609 13.399 14.7545 13.4766 14.7458 13.5661H13.0013L13.0007 13.5667Z" fill="#B2B2B2"/>
<path d="M18 21V23H16V21H18Z" fill="#B2B2B2"/>
</svg>
