<svg width="40" height="40" viewBox="0 0 40 40" fill="none" xmlns="http://www.w3.org/2000/svg">
<path d="M20.4102 27.2159C20.6063 28.7826 20.8063 30.3405 20.9904 31.9013C21.0197 32.1529 21.0227 32.426 20.9558 32.6657C20.8288 33.117 20.3561 33.3203 19.9074 33.1682C18.9612 32.8468 18.0172 32.5188 17.068 32.2085C16.732 32.0987 16.5111 31.8968 16.3622 31.5844C15.8294 30.4637 15.283 29.3489 14.7539 28.2267C14.6712 28.0523 14.5788 27.9974 14.3909 28.0308C13.6265 28.1658 12.8321 28.203 12.1016 28.4367C10.4828 28.9555 9.32159 28.2594 8.32877 27.1498C6.99399 25.658 6.3003 23.8693 6.05379 21.904C5.94631 21.0483 5.9914 20.2044 6.26648 19.3813C6.55658 18.5152 7.11049 17.9341 7.99884 17.5897C11.1141 16.3821 13.961 14.7018 16.6088 12.6883C18.0608 11.5839 19.4076 10.366 20.6251 9.01147C20.8168 8.79846 20.9588 8.54315 21.1407 8.3205C22.1335 7.10628 23.6532 6.69956 25.2232 7.22503C26.4648 7.64065 27.4553 8.42143 28.3339 9.35065C29.9588 11.0681 31.0486 13.1009 31.8806 15.2844C32.6599 17.3307 33.0816 19.4399 33.0553 21.6294C33.0395 22.9609 32.7839 24.2419 32.0932 25.4049C31.4544 26.4796 30.5518 27.1839 29.2471 27.2693C28.9878 27.2864 28.724 27.2626 28.4639 27.2403C27.6816 27.1743 26.8999 27.0348 26.1191 27.0407C24.2552 27.0555 22.3913 27.1364 20.5274 27.1921C20.4913 27.1928 20.456 27.2062 20.4102 27.2166V27.2159ZM24.6295 25.3604C21.3053 21.6153 19.7278 17.318 19.7428 12.3936C19.6481 12.4708 19.5774 12.525 19.5105 12.5836C16.2984 15.3935 12.7089 17.6097 8.73687 19.2084C8.24008 19.408 7.95825 19.6819 7.87106 20.1792C7.83649 20.3788 7.80493 20.5814 7.79516 20.7841C7.72075 22.402 8.1762 23.8797 9.08484 25.2097C9.42079 25.701 9.85896 26.1315 10.2889 26.5516C10.5647 26.821 10.9284 26.8871 11.3328 26.8114C13.105 26.4781 14.8719 26.0996 16.6576 25.8628C18.4929 25.6194 20.3463 25.5021 22.1951 25.3708C23.0023 25.3136 23.8178 25.3611 24.6295 25.3611V25.3604ZM25.4682 23.3839C26.0537 24.0423 26.682 24.6471 27.4598 25.0783C27.6868 25.2038 27.9303 25.3099 28.1783 25.3871C29.0644 25.6632 29.7792 25.4279 30.3135 24.6709C30.4932 24.4156 30.651 24.1328 30.7555 23.8404C31.2244 22.5223 31.274 21.1603 31.132 19.7858C30.9802 18.323 30.5728 16.9247 30.0279 15.5605C29.2899 13.7125 28.3429 11.9899 26.954 10.533C26.307 9.8546 25.593 9.25714 24.6873 8.93577C23.7584 8.60624 23.0249 8.8378 22.4492 9.63046C22.0644 10.1604 21.8697 10.7675 21.7562 11.3998C21.6705 11.8778 21.6157 12.361 21.548 12.8397C22.7746 13.0274 23.3473 13.2961 24.1034 14.1452C25.4757 15.686 26.3085 17.4783 26.5377 19.5268C26.6963 20.9429 26.5399 22.2833 25.469 23.3839H25.4682ZM21.657 14.6528C21.9802 17.3574 22.9159 19.768 24.3875 22.0599C24.4829 21.8179 24.5776 21.6361 24.6272 21.4431C24.8429 20.597 24.758 19.7532 24.5701 18.916C24.265 17.5585 23.7171 16.3153 22.737 15.2919C22.4619 15.0039 22.135 14.7723 21.657 14.6521V14.6528ZM19.0461 30.9194C18.8928 29.7118 18.7462 28.5585 18.5967 27.3799C17.9082 27.4689 17.2431 27.555 16.5817 27.6404C16.5794 27.6782 16.5719 27.6998 16.5787 27.7146C16.9981 28.6327 17.4174 29.5508 17.8428 30.4659C17.8691 30.5223 17.9405 30.5742 18.0029 30.595C18.3381 30.7056 18.6763 30.8058 19.0461 30.9201V30.9194Z" fill="#B2B2B2"/>
</svg>
