<svg width="40" height="40" viewBox="0 0 40 40" fill="none" xmlns="http://www.w3.org/2000/svg">
<path d="M17.6549 34.451C17.1754 34.379 16.6944 34.3174 16.2179 34.2328C14.0699 33.8505 12.1625 32.951 10.5 31.5624C8.3836 29.7945 6.98192 27.5805 6.33558 24.9094C4.95571 19.2035 7.93567 13.2326 13.356 10.8338C14.6742 10.2505 16.0473 9.87417 17.4896 9.78362C18.6139 9.71311 19.361 10.4234 19.3662 11.5441C19.3745 13.3127 19.3685 15.0806 19.3685 16.8492C19.3685 18.6639 19.3715 20.4785 19.3647 22.2932C19.3647 22.4921 19.4158 22.6383 19.5586 22.7845C21.7261 25.0155 23.8891 27.251 26.0514 29.4872C26.7037 30.1619 26.7842 31.0354 26.2498 31.7279C26.1386 31.8726 25.9958 32.0017 25.8455 32.1086C23.9898 33.429 21.926 34.206 19.6428 34.399C19.5609 34.4057 19.4805 34.4339 19.3993 34.4517H17.6549V34.451ZM17.6639 11.4535C13.4431 11.7482 9.32155 14.6086 8.0484 19.3756C6.80305 24.0373 8.86836 28.8935 13.1628 31.3627C17.1235 33.6405 21.9148 32.9822 24.8737 30.7044C24.7918 30.6168 24.7114 30.5292 24.6294 30.4446C22.4409 28.1817 20.2553 25.9165 18.0592 23.661C17.7789 23.3731 17.6587 23.0651 17.6594 22.6687C17.6677 19.0483 17.6639 15.428 17.6639 11.8076V11.4535Z" fill="#B2B2B2"/>
<path d="M34.8147 17.8356C34.7478 17.9855 34.6921 18.1413 34.611 18.2838C34.2916 18.8457 33.7985 19.1589 33.1484 19.1611C29.559 19.17 25.9687 19.1663 22.3793 19.1641C21.8584 19.1641 21.4879 18.8071 21.4872 18.295C21.4842 14.7496 21.4804 11.2034 21.4887 7.65795C21.4909 6.62779 22.3695 5.88486 23.4555 6.01475C28.397 6.60479 31.8948 9.14455 33.9113 13.6437C34.375 14.679 34.641 15.7753 34.7628 16.9034C34.7688 16.9561 34.7966 17.0058 34.8139 17.057V17.8348L34.8147 17.8356ZM33.1093 17.4786C32.684 12.0094 28.0461 7.97115 23.2075 7.69877V17.4786H33.1093Z" fill="#B2B2B2"/>
<path d="M34.8146 22.9478C34.7206 23.4451 34.6417 23.9453 34.5305 24.4381C34.0675 26.4836 33.1145 28.2856 31.7114 29.8524C31.0485 30.5923 29.9339 30.599 29.2154 29.8754C28.1324 28.7851 27.0614 27.6837 25.9844 26.5875C24.6008 25.1788 23.2179 23.7694 21.8328 22.363C21.6306 22.1574 21.472 21.9362 21.4871 21.6334C21.5104 21.1725 21.8666 20.8393 22.3611 20.837C23.7673 20.8318 25.1727 20.8348 26.5789 20.8348C28.6224 20.8348 30.6659 20.8637 32.7087 20.8229C33.7601 20.8014 34.4801 21.1606 34.8153 22.1707V22.9486L34.8146 22.9478ZM24.3513 22.5151C26.4076 24.6096 28.4255 26.6647 30.4525 28.7302C32.03 26.9363 32.9146 24.8782 33.1183 22.5151H24.3505H24.3513Z" fill="#B2B2B2"/>
</svg>
