<svg width="40" height="40" viewBox="0 0 40 40" fill="none" xmlns="http://www.w3.org/2000/svg">
<path d="M31.9994 11.7125C31.7863 12.3159 31.3407 12.5245 30.7248 12.5063C29.9991 12.4847 29.2722 12.5063 28.5459 12.497C28.3851 12.4946 28.314 12.5479 28.2571 12.6926C27.7439 14.0031 26.7775 14.7559 25.3907 14.9697C24.1771 15.1566 22.7217 14.4595 22.0858 13.3903C21.959 13.1771 21.8392 12.9557 21.7547 12.7237C21.6901 12.5462 21.6044 12.4958 21.4188 12.4964C17.4821 12.5022 13.5455 12.5011 9.6088 12.5011C9.42913 12.5011 9.24947 12.5034 9.06981 12.5005C8.43513 12.4893 7.99361 12.0652 8.00007 11.4759C8.00653 10.9029 8.45274 10.4975 9.08273 10.4975C13.1679 10.4969 17.2532 10.4952 21.3384 10.5028C21.5738 10.5028 21.6877 10.446 21.777 10.2152C22.4328 8.50923 24.2952 7.60764 26.0372 8.16418C27.0922 8.50103 27.8349 9.20402 28.2354 10.2398C28.3134 10.4413 28.4027 10.5081 28.6182 10.5028C29.3051 10.487 29.9938 10.5227 30.6796 10.4893C31.3007 10.4589 31.7569 10.6487 32 11.2445V11.7119L31.9994 11.7125ZM25.0285 10.0107C24.2223 9.98786 23.5325 10.6358 23.5108 11.436C23.4884 12.2667 24.1243 12.9562 24.9339 12.9791C25.79 13.0031 26.4652 12.3675 26.4863 11.518C26.5069 10.7026 25.8604 10.0341 25.0285 10.0107Z" fill="#B2B2B2"/>
<path d="M31.9994 27.7481C31.9742 27.7927 31.9454 27.8354 31.9237 27.8817C31.7376 28.2801 31.4265 28.4927 30.9839 28.4945C30.1797 28.498 29.375 28.5021 28.5708 28.491C28.3918 28.4886 28.3137 28.5484 28.2509 28.7095C27.7701 29.9497 26.8615 30.6902 25.5613 30.9468C24.267 31.2022 22.7461 30.515 22.0775 29.382C21.9519 29.1688 21.8309 28.9467 21.7505 28.7136C21.6865 28.5273 21.5897 28.4916 21.4101 28.4921C17.3023 28.4968 13.1945 28.4945 9.08734 28.498C8.64768 28.498 8.31251 28.334 8.10941 27.9432C7.81357 27.3744 8.14522 26.672 8.7733 26.5331C8.91653 26.5015 9.06738 26.4939 9.21472 26.4939C13.2597 26.4921 17.3052 26.4898 21.3502 26.4985C21.5926 26.4985 21.6977 26.4271 21.7834 26.2045C22.432 24.5214 24.318 23.6075 26.0303 24.1622C27.0816 24.5026 27.8312 25.1986 28.2321 26.2349C28.3108 26.4388 28.4035 26.5015 28.6172 26.4968C29.3198 26.4821 30.023 26.5079 30.7256 26.4862C31.3414 26.4669 31.7869 26.6761 32 27.2795V27.747L31.9994 27.7481ZM24.9672 28.9819C25.7849 29.0077 26.4529 28.372 26.4858 27.5372C26.5175 26.737 25.8677 26.0387 25.0682 26.0141C24.2341 25.9883 23.5391 26.6186 23.5127 27.4247C23.4845 28.2812 24.1143 28.9555 24.9667 28.9825L24.9672 28.9819Z" fill="#B2B2B2"/>
<path d="M32 19.7332C31.8978 19.8949 31.8157 20.0747 31.6894 20.2147C31.464 20.4649 31.1516 20.5035 30.8305 20.5029C28.9324 20.5012 27.0337 20.5018 25.1356 20.5018C22.9557 20.5018 20.7763 20.5041 18.5964 20.4971C18.4032 20.4965 18.3169 20.5551 18.2424 20.7361C17.6852 22.091 16.6672 22.8525 15.207 22.9878C13.7927 23.119 12.3062 22.1748 11.7995 20.8398C11.7038 20.5873 11.5881 20.4842 11.3028 20.4936C10.5695 20.5182 9.83444 20.507 9.09998 20.5C8.42539 20.4936 7.98624 20.0736 8.00033 19.4638C8.0109 18.9811 8.38371 18.5423 8.86689 18.5212C9.60782 18.489 10.3517 18.4744 11.0914 18.5066C11.5059 18.5248 11.6803 18.4029 11.8682 18.011C12.9919 15.6679 16.0384 15.303 17.6647 17.2829C17.9024 17.5723 18.0745 17.9226 18.2388 18.2635C18.3222 18.4369 18.4027 18.5007 18.5958 18.5002C22.658 18.4943 26.7208 18.4961 30.7829 18.4955C31.0747 18.4955 31.3783 18.4931 31.5978 18.7105C31.7581 18.8686 31.8673 19.0783 31.9994 19.2646V19.7321L32 19.7332ZM13.5115 19.5036C13.515 20.3219 14.1831 20.9921 14.9986 20.9944C15.8188 20.9968 16.4951 20.3108 16.4893 19.4837C16.4834 18.6718 15.7947 17.9929 14.9904 18.0052C14.169 18.0175 13.5085 18.6876 13.5121 19.5042L13.5115 19.5036Z" fill="#B2B2B2"/>
</svg>
