<svg xmlns="http://www.w3.org/2000/svg" xmlns:xlink="http://www.w3.org/1999/xlink" width="20" height="20" viewBox="0 0 20 20">
  <defs>
    <clipPath id="clip-path">
      <path id="_Icon_小olor" data-name=" Icon 小olor" d="M5.513,16.667a1.85,1.85,0,0,1-1.13-.384L2.656,14.971a1.968,1.968,0,0,1-.408-2.68,1.7,1.7,0,0,0,.193-1.547L2.4,10.6a1.532,1.532,0,0,0-.931-1.009l-.137-.047A1.954,1.954,0,0,1,.093,7.1l.68-2.162A1.855,1.855,0,0,1,1.71,3.823a1.79,1.79,0,0,1,.814-.2,1.816,1.816,0,0,1,.589.1,1.56,1.56,0,0,0,.505.084,1.623,1.623,0,0,0,.975-.331L4.7,3.4a1.593,1.593,0,0,0,.611-1.258v-.2A1.928,1.928,0,0,1,7.215,0L9.34,0a1.871,1.871,0,0,1,1.332.559,1.951,1.951,0,0,1,.568,1.4v.232a1.485,1.485,0,0,0,.578,1.191l.089.068a1.469,1.469,0,0,0,.876.293,1.418,1.418,0,0,0,.452-.074l.283-.095a1.877,1.877,0,0,1,.593-.1,1.848,1.848,0,0,1,.85.207,1.918,1.918,0,0,1,.961,1.148l.656,2.1a1.961,1.961,0,0,1-1.221,2.441l-.167.056A1.6,1.6,0,0,0,14.181,10.5a1.628,1.628,0,0,0,.216,1.377l.217.312a1.986,1.986,0,0,1-.423,2.691l-1.717,1.3a1.855,1.855,0,0,1-1.127.381,1.917,1.917,0,0,1-.3-.024,1.885,1.885,0,0,1-1.258-.8l-.1-.143a1.452,1.452,0,0,0-1.175-.649l-.073,0a1.474,1.474,0,0,0-1.189.639l-.193.273a1.886,1.886,0,0,1-1.259.787A1.91,1.91,0,0,1,5.513,16.667ZM2.525,5.295a.136.136,0,0,0-.063.016.2.2,0,0,0-.1.124L1.683,7.6a.3.3,0,0,0,.184.374L2,8.018A3.2,3.2,0,0,1,3.985,10.1l.033.1a3.372,3.372,0,0,1-.384,3.019.306.306,0,0,0,.03.423L5.39,14.956A.21.21,0,0,0,5.519,15h.028a.225.225,0,0,0,.152-.1l.193-.273A3.162,3.162,0,0,1,8.367,13.28h.071a3.148,3.148,0,0,1,2.625,1.366l.1.143a.226.226,0,0,0,.152.1.168.168,0,0,0,.033,0,.2.2,0,0,0,.123-.045l1.717-1.3a.31.31,0,0,0,.057-.412l-.216-.313a3.305,3.305,0,0,1-.444-2.8A3.262,3.262,0,0,1,14.66,7.85l.168-.057a.291.291,0,0,0,.159-.364l-.656-2.1a.262.262,0,0,0-.129-.16.2.2,0,0,0-.092-.023.2.2,0,0,0-.064.011l-.283.094a3.1,3.1,0,0,1-.98.159,3.149,3.149,0,0,1-1.88-.629l-.09-.068a3.158,3.158,0,0,1-1.24-2.529V1.948a.294.294,0,0,0-.084-.211.211.211,0,0,0-.152-.067l-2.122,0a.261.261,0,0,0-.237.278v.2A3.274,3.274,0,0,1,5.71,4.724L5.6,4.806a3.3,3.3,0,0,1-1.983.671A3.234,3.234,0,0,1,2.573,5.3a.149.149,0,0,0-.048-.008Zm5.81,5.955a2.917,2.917,0,1,1,2.917-2.917A2.92,2.92,0,0,1,8.335,11.25Zm0-4.167a1.25,1.25,0,1,0,1.25,1.25A1.252,1.252,0,0,0,8.335,7.083Z" transform="translate(0 0)" fill="#18203a"/>
    </clipPath>
  </defs>
  <g id="_2_copy_7" data-name="2 copy 7" opacity="0.6">
    <rect id="_2_background" data-name="2 background" width="20" height="20" fill="none"/>
    <g id="_01_Icons_Filled_arrow-circle-down-fill_Copy" data-name="01) Icons/Filled/arrow-circle-down-fill Copy">
      <g id="Group_71" data-name="Group 71" transform="translate(1.665 1.667)">
        <path id="_Icon_小olor-2" data-name=" Icon 小olor" d="M5.513,16.667a1.85,1.85,0,0,1-1.13-.384L2.656,14.971a1.968,1.968,0,0,1-.408-2.68,1.7,1.7,0,0,0,.193-1.547L2.4,10.6a1.532,1.532,0,0,0-.931-1.009l-.137-.047A1.954,1.954,0,0,1,.093,7.1l.68-2.162A1.855,1.855,0,0,1,1.71,3.823a1.79,1.79,0,0,1,.814-.2,1.816,1.816,0,0,1,.589.1,1.56,1.56,0,0,0,.505.084,1.623,1.623,0,0,0,.975-.331L4.7,3.4a1.593,1.593,0,0,0,.611-1.258v-.2A1.928,1.928,0,0,1,7.215,0L9.34,0a1.871,1.871,0,0,1,1.332.559,1.951,1.951,0,0,1,.568,1.4v.232a1.485,1.485,0,0,0,.578,1.191l.089.068a1.469,1.469,0,0,0,.876.293,1.418,1.418,0,0,0,.452-.074l.283-.095a1.877,1.877,0,0,1,.593-.1,1.848,1.848,0,0,1,.85.207,1.918,1.918,0,0,1,.961,1.148l.656,2.1a1.961,1.961,0,0,1-1.221,2.441l-.167.056A1.6,1.6,0,0,0,14.181,10.5a1.628,1.628,0,0,0,.216,1.377l.217.312a1.986,1.986,0,0,1-.423,2.691l-1.717,1.3a1.855,1.855,0,0,1-1.127.381,1.917,1.917,0,0,1-.3-.024,1.885,1.885,0,0,1-1.258-.8l-.1-.143a1.452,1.452,0,0,0-1.175-.649l-.073,0a1.474,1.474,0,0,0-1.189.639l-.193.273a1.886,1.886,0,0,1-1.259.787A1.91,1.91,0,0,1,5.513,16.667ZM2.525,5.295a.136.136,0,0,0-.063.016.2.2,0,0,0-.1.124L1.683,7.6a.3.3,0,0,0,.184.374L2,8.018A3.2,3.2,0,0,1,3.985,10.1l.033.1a3.372,3.372,0,0,1-.384,3.019.306.306,0,0,0,.03.423L5.39,14.956A.21.21,0,0,0,5.519,15h.028a.225.225,0,0,0,.152-.1l.193-.273A3.162,3.162,0,0,1,8.367,13.28h.071a3.148,3.148,0,0,1,2.625,1.366l.1.143a.226.226,0,0,0,.152.1.168.168,0,0,0,.033,0,.2.2,0,0,0,.123-.045l1.717-1.3a.31.31,0,0,0,.057-.412l-.216-.313a3.305,3.305,0,0,1-.444-2.8A3.262,3.262,0,0,1,14.66,7.85l.168-.057a.291.291,0,0,0,.159-.364l-.656-2.1a.262.262,0,0,0-.129-.16.2.2,0,0,0-.092-.023.2.2,0,0,0-.064.011l-.283.094a3.1,3.1,0,0,1-.98.159,3.149,3.149,0,0,1-1.88-.629l-.09-.068a3.158,3.158,0,0,1-1.24-2.529V1.948a.294.294,0,0,0-.084-.211.211.211,0,0,0-.152-.067l-2.122,0a.261.261,0,0,0-.237.278v.2A3.274,3.274,0,0,1,5.71,4.724L5.6,4.806a3.3,3.3,0,0,1-1.983.671A3.234,3.234,0,0,1,2.573,5.3a.149.149,0,0,0-.048-.008Zm5.81,5.955a2.917,2.917,0,1,1,2.917-2.917A2.92,2.92,0,0,1,8.335,11.25Zm0-4.167a1.25,1.25,0,1,0,1.25,1.25A1.252,1.252,0,0,0,8.335,7.083Z" transform="translate(0 0)" fill="#fff"/>
      </g>
    </g>
  </g>
</svg>
