<svg width="50" height="50" viewBox="0 0 50 50" fill="none" xmlns="http://www.w3.org/2000/svg">
  <circle cx="25" cy="25" r="25" fill="#6F358C"/>
  <path d="M35.0693 38.2012C34.6791 38.195 34.2999 38.0743 33.981 37.8547C33.5973 37.5905 33.2972 37.2264 33.115 36.8039L30.5022 30.7032C31.2065 30.2807 31.8559 29.7768 32.4365 29.2023C34.5285 27.1542 35.5886 24.4438 35.5886 21.1458C35.5886 17.8477 34.5301 15.1406 32.4365 13.0892C30.3429 11.0378 27.6023 10 24.281 10C20.9598 10 18.2224 11.0378 16.1338 13.0908C14.0452 15.1438 13 17.8509 13 21.1458C13 24.4406 14.0551 27.1542 16.1338 29.2023C16.8197 29.881 17.6018 30.4601 18.4564 30.9218L15.9397 36.7699C15.7411 37.2046 15.4265 37.5792 15.0289 37.8547C14.7195 38.0707 14.3508 38.1914 13.9705 38.2012H13.01V39.9935H20.3227V38.2012H19.3622C19.0851 38.2012 19.0154 38.1154 18.9823 38.0749C18.8989 37.9906 18.8414 37.8851 18.8164 37.7705C18.8161 37.6249 18.8391 37.4802 18.8844 37.3415L21.056 31.9418H21.0162L21.0626 31.9272L21.124 31.9418C23.1702 32.406 25.2975 32.4126 27.3468 31.9613L29.4056 37.2799C29.4596 37.4332 29.4882 37.5939 29.4902 37.7559C29.4711 37.8782 29.413 37.9915 29.3243 38.0798C29.2944 38.117 29.2248 38.2077 28.9444 38.2077H27.9789V40H36V38.2012H35.0693ZM24.2976 30.0783C23.4995 30.0847 22.7051 29.9722 21.9419 29.7447L24.2644 23.9662L26.5074 29.7868C25.7873 29.9848 25.0423 30.0829 24.2943 30.0783M24.4287 18.5471C24.4302 18.5348 24.4302 18.5223 24.4287 18.5099H24.4934L24.51 18.5471H24.4287ZM25.1254 18.131L25.0458 17.9465H23.6257V18.6249C23.6257 18.7382 23.5494 19.2725 22.5872 21.3255L19.5297 28.4236C19.2637 28.1916 19.0148 27.9417 18.7848 27.6755C17.378 26.0467 16.6647 23.8513 16.6647 21.1506C16.6647 18.45 17.378 16.2578 18.7848 14.6257C20.1634 13.0309 22.0115 12.2214 24.281 12.2214C25.696 12.1826 27.0902 12.5607 28.2818 13.3063C29.4734 14.052 30.4073 15.1307 30.9617 16.4019C31.6037 17.7619 31.9289 19.3599 31.9289 21.1506C31.9289 23.8513 31.2172 26.0467 29.8087 27.6755C29.676 27.8374 29.5366 27.9799 29.394 28.1192L25.1254 18.131Z" fill="white"/>
</svg>
