<svg width="87" height="102" viewBox="0 0 87 102" fill="none" xmlns="http://www.w3.org/2000/svg">
<path d="M45.0318 0C45.0016 0.0101737 44.994 0.0279781 45.0092 0.0559559H41.9627C41.9778 0.0279781 41.9677 0.0101737 41.9375 0H45.0318Z" fill="white"/>
<path d="M41.9623 0.0561484H45.0088C45.7294 0.0485181 46.4451 0.132451 47.1607 0.208754C49.3403 0.445294 51.4771 0.898026 53.5686 1.56441C57.5046 2.81832 61.0852 4.74624 64.3005 7.35581C68.0576 10.4028 71.0108 14.1061 73.1678 18.4579C74.4529 21.0497 75.3777 23.7686 75.9572 26.6045C76.5569 29.5447 76.7787 32.518 76.5972 35.5167C76.1563 42.7604 73.6919 49.2182 69.1285 54.829C65.4017 59.4123 60.7652 62.7468 55.2745 64.8654C53.2864 65.6336 51.2428 66.1906 49.1488 66.5543C46.8381 66.9561 44.5048 67.0935 42.1614 67.0045C39.4324 66.8977 36.7538 66.4678 34.1332 65.687C29.6126 64.339 25.5582 62.1211 21.9776 59.0283C17.8148 55.4344 14.7154 51.0622 12.6744 45.9321C11.9436 44.0957 11.3943 42.2009 11.0012 40.2602C10.5099 37.8414 10.2705 35.3972 10.3385 32.9326C10.588 23.8195 13.8864 16.0137 20.2767 9.56606C23.429 6.38422 27.1155 3.99593 31.2631 2.34015C33.3924 1.49065 35.5871 0.870048 37.8499 0.491076C39.2132 0.262166 40.5814 0.091757 41.9648 0.0586924M75.8262 33.4845C75.8992 15.6321 61.5489 0.92346 43.7564 0.798831C25.7372 0.671659 11.3464 15.2608 11.1222 33.1412C10.8904 51.487 25.649 66.2008 43.3532 66.2338C61.3574 66.2669 75.8665 51.6447 75.8287 33.4845" fill="white"/>
<path d="M67.6749 50.7107C68.0353 50.4843 68.4031 50.3444 68.8265 50.5454C69.3052 50.7743 69.5446 51.2219 69.4312 51.7103C69.3254 52.1732 68.8013 52.5572 68.3074 52.5369C67.8236 52.5165 67.4381 52.1401 67.3725 51.6187C67.3524 51.4559 67.3473 51.2906 67.3322 51.0719C67.0702 51.4051 66.8383 51.6976 66.6065 51.9901C66.3797 52.2775 66.1504 52.5674 65.9035 52.8803C66.1933 52.865 66.4377 52.7811 66.6947 52.8294C67.2239 52.9235 67.6346 53.3813 67.6069 53.8646C67.5766 54.3911 67.108 54.8184 66.546 54.8362C65.9967 54.854 65.5759 54.4826 65.518 53.9205C65.5028 53.7679 65.518 53.6102 65.518 53.4017C64.9258 53.9103 64.4218 54.4343 63.9128 55.0269C64.3714 54.9506 64.7771 54.8819 65.1223 55.205C65.3189 55.3881 65.4877 55.5865 65.5129 55.8662C65.5608 56.4029 65.1123 56.9498 64.5907 56.993C64.19 57.0261 63.8398 56.9294 63.623 56.553C63.4265 56.2147 63.4794 55.8408 63.5122 55.4288C62.8545 55.8357 62.3959 56.4055 61.7937 56.8353C62.028 56.9243 62.2447 56.8811 62.4513 56.9421C62.92 57.082 63.2652 57.4991 63.2476 57.9442C63.23 58.4021 62.8041 58.8548 62.3203 58.9285C61.7055 59.0227 61.2947 58.6793 61.1914 57.9849C61.1637 57.8043 61.1536 57.6238 61.1309 57.4076C60.627 57.7586 60.1356 58.0994 59.6216 58.458C59.8383 58.547 60.0323 58.6182 60.2188 58.7098C60.5841 58.8904 60.8235 59.1702 60.7958 59.6026C60.7706 60.0324 60.6018 60.3936 60.1835 60.564C59.7854 60.7242 59.3973 60.6861 59.0496 60.4139C58.8429 60.2511 58.7699 60.0146 58.7472 59.7603C58.7421 59.6941 58.7447 59.628 58.7396 59.5619C58.7119 59.1778 58.5784 59.1015 58.2583 59.2999C57.966 59.483 57.6712 59.6585 57.3688 59.8238C57.3184 59.8518 57.2202 59.8467 57.2353 59.9357C57.2479 60.0019 57.3159 60.0426 57.3789 60.0578C57.5679 60.1011 57.7241 60.1977 57.8627 60.3325C58.2206 60.6784 58.3113 61.0803 58.1223 61.4974C57.9484 61.8815 57.4596 62.1485 57.0262 62.0951C56.4113 62.0188 56.0913 61.6068 56.1568 60.9811C56.1644 60.8997 56.1619 60.8158 56.1518 60.7369C56.1291 60.5513 56.0182 60.4953 55.857 60.5691C55.4639 60.7471 55.0733 60.9353 54.6701 61.1261C54.8767 61.3143 55.0934 61.4618 55.2547 61.6729C55.5974 62.1155 55.547 62.6954 55.1312 63.0438C54.6953 63.4101 54.015 63.3745 53.6672 62.965C53.39 62.6394 53.4631 62.2528 53.5009 61.8764C53.5085 61.795 53.5387 61.7161 53.5639 61.6093C52.9844 61.6348 52.498 61.9374 51.9613 62.057C51.9386 62.0849 51.9185 62.1129 51.8958 62.1409C52.0394 62.2579 52.1982 62.3596 52.3292 62.4919C52.6064 62.7742 52.7399 63.1176 52.6039 63.5067C52.4602 63.9137 52.1453 64.1375 51.7295 64.2113C51.1172 64.3181 50.5099 63.7204 50.6031 63.1049C50.6283 62.9421 50.656 62.7793 50.7064 62.6216C50.7568 62.469 50.719 62.4207 50.5678 62.4537C50.1697 62.5428 49.764 62.5962 49.376 62.7335C49.2475 62.7793 49.2298 62.82 49.3029 62.937C49.4289 63.1379 49.5549 63.344 49.6481 63.5627C49.8976 64.1426 49.5624 64.7327 48.9426 64.8319C48.1438 64.959 47.5995 64.4046 47.7431 63.6085C47.7608 63.5042 47.7885 63.3999 47.8187 63.2982C47.8968 63.0235 47.8792 62.9904 47.5844 63.0184C47.2669 63.0464 46.9519 63.0972 46.6369 63.1456C46.4807 63.1685 46.4353 63.26 46.5034 63.4126C46.6168 63.667 46.7402 63.9162 46.7654 64.2036C46.8158 64.7403 46.2917 65.3583 45.7575 65.3685C45.7323 65.3685 45.7096 65.366 45.6844 65.3609C45.2334 65.282 44.5001 64.3842 44.8126 63.8374C44.8453 63.7814 44.8605 63.7153 44.8857 63.6543C45.0444 63.2829 45.0368 63.2575 44.6362 63.2727C44.301 63.2854 43.9709 63.3465 43.6358 63.377C43.5098 63.3897 43.4745 63.4228 43.5451 63.5398C43.6005 63.6314 43.6434 63.728 43.6862 63.8272C43.9256 64.3766 43.8021 64.8395 43.3183 65.1981C42.8648 65.5339 42.6707 65.5084 42.2499 65.1294C41.7233 64.6564 41.557 64.4503 42.0156 63.583C42.0609 63.4966 42.1063 63.4126 42.1642 63.3058C41.62 63.2295 41.0958 63.2117 40.5566 63.1888C40.6397 63.4304 40.7254 63.6415 40.7859 63.8628C40.9094 64.3181 40.7632 64.7021 40.3928 64.9387C40.0249 65.1727 39.4831 65.1218 39.1354 64.8191C38.7776 64.5063 38.6944 64.1451 38.8784 63.7077C38.959 63.5169 39.0699 63.344 39.1934 63.1786C39.2513 63.0998 39.2841 63.0235 39.1581 63.0006C38.7322 62.9243 38.3064 62.8505 37.8805 62.7946C37.7571 62.7793 37.81 62.9039 37.8201 62.9599C37.8579 63.1786 37.8856 63.3999 37.8881 63.6237C37.8906 64.018 37.7319 64.3079 37.3715 64.4732C36.9986 64.6436 36.6458 64.6411 36.3132 64.3766C35.8118 63.9773 35.7362 63.5423 36.0738 62.993C36.1343 62.8938 36.1998 62.7997 36.2679 62.7081C36.4291 62.4894 36.4291 62.4792 36.1595 62.3953C35.8395 62.2961 35.5195 62.202 35.1944 62.1155C35.1138 62.0951 35.018 62.0087 34.9449 62.0926C34.8694 62.1791 34.9349 62.2808 34.9727 62.3698C35.1616 62.8175 35.0432 63.2753 34.6652 63.5601C34.0101 64.051 33.1584 63.7178 32.9971 62.9065C32.9392 62.6165 33.0299 62.3749 33.234 62.1638C33.6951 61.6907 33.6624 61.5763 33.0425 61.3753C32.7552 61.2838 32.4755 61.1693 32.1782 61.0625C32.1479 61.2176 32.2109 61.355 32.2361 61.4949C32.3369 62.0621 32.095 62.4894 31.5608 62.6776C31.0644 62.8531 30.5731 62.6471 30.3261 62.1562C30.0993 61.706 30.2354 61.1744 30.6612 60.8666C30.9309 60.6708 30.9359 60.5996 30.6915 60.3783C30.442 60.1519 30.1472 60.0248 29.8196 59.9612C29.6382 59.9256 29.5903 59.9815 29.608 60.1672C29.6584 60.709 29.4366 61.121 29.0007 61.327C28.532 61.5508 28.028 61.4008 27.7332 60.9582C27.4334 60.5055 27.4913 59.9968 27.8768 59.6382C28.0583 59.4703 28.2876 59.3736 28.5244 59.216C28.0835 58.9286 27.6753 58.6335 27.2393 58.3893C27.0806 58.3003 27.0579 58.4987 27.0856 58.6132C27.1436 58.8624 27.0907 59.0888 26.9697 59.3024C26.7152 59.7628 26.1205 59.9663 25.6544 59.7577C25.2184 59.5619 24.9236 58.8929 25.0723 58.4377C25.1529 58.196 25.3268 58.046 25.5485 57.9341C26.0777 57.6645 26.0802 57.4991 25.5813 57.1558C25.2915 56.9574 25.0143 56.7387 24.717 56.5199C24.717 56.67 24.717 56.8124 24.717 56.9523C24.7094 57.5169 24.3793 57.9264 23.8552 58.0282C23.4268 58.1121 22.9657 57.8323 22.7641 57.3669C22.4844 56.7234 22.9582 56.0011 23.7015 55.9375C23.7872 55.9298 23.8804 55.9629 23.9409 55.9248C23.4898 55.444 23.0388 54.9608 22.5373 54.4267C22.5373 54.6632 22.5399 54.8209 22.5373 54.9811C22.5247 55.5203 22.1065 55.9349 21.5597 55.9476C21.0078 55.9629 20.5517 55.5458 20.5265 55.0066C20.5013 54.4877 20.6676 54.2308 21.1741 54.0324C21.3984 53.946 21.6327 53.8798 21.8973 53.7959C21.4941 53.333 21.1036 52.8853 20.713 52.4377C20.582 52.542 20.587 52.6666 20.5744 52.7912C20.5139 53.3304 20.1234 53.7221 19.6395 53.7323C19.0474 53.7476 18.6316 53.4017 18.5434 52.8218C18.4653 52.3054 18.7551 51.8629 19.2843 51.6976C19.4178 51.6569 19.5539 51.6263 19.6849 51.5857C19.8588 51.5297 19.9318 51.428 19.8084 51.255C19.5262 50.8608 19.2465 50.4665 18.9491 50.0494C18.8534 50.2046 18.8357 50.3572 18.803 50.5021C18.7072 50.9472 18.42 51.2118 17.9916 51.2906C17.6161 51.3593 17.2734 51.2499 17.029 50.932C16.7619 50.581 16.7317 50.1918 16.9055 49.79C17.029 49.5051 17.2684 49.3805 17.5531 49.3194C17.8328 49.2584 18.1176 49.2609 18.4452 49.2533C18.105 48.6531 17.7774 48.0783 17.4297 47.4678C17.3238 47.7807 17.2482 48.0604 17.092 48.3046C16.8425 48.6963 16.4394 48.8515 16.011 48.7243C15.6078 48.6047 15.313 48.1927 15.2979 47.7298C15.2828 47.2745 15.5045 46.9006 15.8901 46.776C16.1849 46.6794 16.4873 46.7124 16.7871 46.7735C16.8829 46.7913 16.9736 46.8218 17.1222 46.8599C16.8047 46.163 16.5074 45.5043 16.1924 44.815C16.1017 45.0287 16.0312 45.2245 15.9379 45.4051C15.6481 45.9748 15.1366 46.1681 14.615 45.9087C14.1111 45.6594 13.912 45.0566 14.1489 44.5123C14.2849 44.197 14.5369 44.0571 14.8594 44.0266C15.1114 44.0011 15.3659 44.0138 15.6179 44.052C15.8901 44.0927 15.9228 44.0571 15.8371 43.7798C15.7187 43.4034 15.5826 43.0321 15.4642 42.6556C14.9703 41.0838 14.5974 39.4814 14.3429 37.8511C14.0531 35.9944 13.9347 34.1275 14.0052 32.2504C14.0859 30.0911 14.4109 27.9698 14.9829 25.8868C16.0286 22.0869 17.7648 18.6278 20.073 15.4612C23.5755 10.6516 28.1389 7.29934 33.7531 5.40448C35.522 4.80677 37.3287 4.37693 39.1707 4.08698C41.121 3.78177 43.0865 3.64442 45.062 3.72836C50.9912 3.97761 56.2778 6.0149 60.9999 9.60115C63.7465 11.6868 66.1328 14.1234 68.0554 17.0076C69.5144 19.195 70.6382 21.5451 71.4446 24.053C72.0115 25.8206 72.4046 27.6265 72.6591 29.4679C72.9162 31.3297 73.0119 33.1991 72.9212 35.0762C72.7171 39.3619 71.6084 43.406 69.658 47.216C69.4816 47.5594 69.3027 47.9002 69.1868 48.2715C69.1793 48.2868 69.1717 48.3021 69.1641 48.3199C69.1818 48.3173 69.1994 48.3122 69.2196 48.3097C69.5597 48.0833 69.9075 47.8977 70.3409 48.0274C70.8373 48.1774 71.1044 48.5386 71.0666 49.0269C71.0263 49.5458 70.6206 49.9757 70.1166 50.0342C69.658 50.0876 69.2019 49.7874 69.0533 49.3322C68.9777 49.1007 68.9852 48.8616 68.9449 48.5946C68.5115 49.2915 68.0781 49.9884 67.6447 50.6827C67.6396 50.7031 67.627 50.7336 67.6346 50.7387C67.6598 50.7565 67.6724 50.7387 67.68 50.7132M16.1194 33.5247C16.1168 48.7675 28.1439 61.0498 43.1948 61.1948C58.7396 61.3423 70.865 48.6505 70.8801 33.5374C70.8953 18.4294 58.538 5.69952 43.2301 5.85976C28.2699 6.01745 16.1168 18.2794 16.1194 33.5247Z" fill="white"/>
<path d="M59.735 5.89809C60.307 5.90572 60.7984 6.39406 60.7883 6.94853C60.7782 7.50809 60.2591 7.99134 59.6796 7.97862C59.1328 7.96845 58.6943 7.51063 58.6943 6.95362C58.6943 6.37626 59.1756 5.89046 59.735 5.89555" fill="white"/>
<path d="M43.8051 2.22274C43.8076 2.68819 43.3313 3.30625 42.8878 3.42579C42.7795 3.45376 42.6762 3.44868 42.5754 3.41561C42.1596 3.28081 41.7186 2.63223 41.7464 2.19731C41.7716 1.75984 42.1546 1.37069 42.6636 1.26641C43.2331 1.14687 43.8025 1.62758 43.8076 2.22528" fill="white"/>
<path d="M29.6228 6.17796C29.6228 6.73752 29.1465 7.24112 28.6123 7.24112C28.0555 7.24112 27.5439 6.72989 27.5439 6.17287C27.5439 5.62603 28.0454 5.1377 28.6098 5.1377C29.1793 5.1377 29.6228 5.59297 29.6203 6.17796" fill="white"/>
<path d="M14.078 41.0894C14.6399 41.0894 15.0809 41.5548 15.0809 42.1474C15.0809 42.7426 14.6349 43.2004 14.0503 43.2081C13.4758 43.2131 13.0625 42.7731 13.0625 42.1525C13.0625 41.5345 13.4909 41.0868 14.078 41.0894Z" fill="white"/>
<path d="M19.5841 14.9096C18.9869 14.9096 18.5309 14.4619 18.5283 13.8795C18.5258 13.2869 18.9819 12.8062 19.5489 12.8062C20.1133 12.8062 20.5719 13.2843 20.5744 13.8795C20.5744 14.467 20.1486 14.9121 19.5841 14.9121" fill="white"/>
<path d="M26.0454 8.78505C25.4709 8.76979 25.0249 8.284 25.0425 7.69392C25.0601 7.14708 25.5742 6.66637 26.1159 6.68926C26.6627 6.70961 27.1239 7.21321 27.1088 7.77531C27.0962 8.32215 26.5922 8.80031 26.0429 8.78251" fill="white"/>
<path d="M62.1516 9.66228C61.5872 9.66482 61.1513 9.24261 61.1437 8.68051C61.1336 8.11078 61.6124 7.57412 62.1365 7.56649C62.6833 7.55886 63.215 8.08281 63.2175 8.62964C63.2175 9.18666 62.7312 9.65974 62.1516 9.66228Z" fill="white"/>
<path d="M71.0664 17.5953C71.0639 18.1141 70.575 18.5847 70.0358 18.5847C69.4537 18.5847 68.975 18.1243 68.9825 17.5724C68.9901 17.0179 69.4814 16.4889 69.993 16.4863C70.5398 16.4838 71.0714 17.0332 71.0689 17.5953" fill="white"/>
<path d="M65.5078 12.7175C65.5078 12.1656 65.974 11.6747 66.5006 11.6671C67.0424 11.6594 67.6194 12.219 67.6119 12.7455C67.6043 13.2771 67.1029 13.7247 66.5183 13.7222C65.9412 13.7222 65.5053 13.2872 65.5078 12.7175Z" fill="white"/>
<path d="M18.8182 16.2962C18.8132 16.8939 18.3722 17.3415 17.8002 17.3339C17.2206 17.3263 16.7973 16.8812 16.7998 16.2809C16.8023 15.701 17.2584 15.2203 17.8052 15.2178C18.3671 15.2178 18.8232 15.701 18.8182 16.2962Z" fill="white"/>
<path d="M68.3456 16.0644C67.7711 16.0593 67.3553 15.6346 67.3654 15.0598C67.3755 14.4799 67.8391 13.9915 68.3784 13.9966C68.9302 14.0017 69.4543 14.5257 69.4518 15.075C69.4518 15.6193 68.9453 16.0695 68.3481 16.0644" fill="white"/>
<path d="M56.1339 5.46343C56.1415 4.85554 56.5421 4.45877 57.1418 4.46894C57.7239 4.47911 58.2304 4.94202 58.2304 5.45834C58.2279 6.00263 57.6508 6.52912 57.0738 6.51386C56.5245 6.50115 56.1263 6.05859 56.1339 5.46343Z" fill="white"/>
<path d="M72.5284 44.6122C71.9942 44.6122 71.4852 44.0807 71.4903 43.5364C71.4953 43.0073 72.0094 42.4961 72.5385 42.4961C73.0677 42.4961 73.554 42.9895 73.5565 43.5287C73.5565 44.0908 73.0626 44.6148 72.5284 44.6122Z" fill="white"/>
<path d="M31.2531 5.89807C30.6937 5.89807 30.225 5.4199 30.2275 4.85271C30.2301 4.32368 30.7466 3.78701 31.2582 3.77938C31.7949 3.77175 32.2686 4.27281 32.2661 4.84254C32.2661 5.42499 31.8125 5.89552 31.2531 5.89552" fill="white"/>
<path d="M75.2266 34.7585C75.2241 35.3613 74.8083 35.8064 74.2539 35.8039C73.6643 35.8013 73.1981 35.341 73.2032 34.7662C73.2082 34.199 73.7172 33.7005 74.2842 33.7081C74.8259 33.7157 75.2291 34.1634 75.2266 34.7585Z" fill="white"/>
<path d="M13.8063 33.2782C13.8063 33.8733 13.3729 34.321 12.7984 34.3159C12.239 34.3108 11.7451 33.8174 11.7451 33.2604C11.7451 32.7135 12.2062 32.2659 12.7782 32.2608C13.3679 32.2557 13.8038 32.6881 13.8063 33.2756" fill="white"/>
<path d="M36.8753 4.02109C36.3059 4.01601 35.8397 3.54293 35.8498 2.98083C35.8598 2.41619 36.3437 1.96854 36.9383 1.97617C37.4877 1.9838 37.9689 2.4696 37.9513 3.00626C37.9337 3.53784 37.4171 4.02618 36.8753 4.02109Z" fill="white"/>
<path d="M54.4253 3.25809C55.0049 3.27335 55.4937 3.74643 55.4761 4.27547C55.4585 4.80959 54.8839 5.35388 54.3497 5.34371C53.8559 5.33354 53.3998 4.79433 53.4124 4.23732C53.425 3.66759 53.8634 3.24538 54.4253 3.25809Z" fill="white"/>
<path d="M51.606 2.36035C52.1982 2.36035 52.6467 2.76476 52.6492 3.30651C52.6543 3.86861 52.1402 4.38238 51.5607 4.3951C51.0063 4.40782 50.5628 3.93728 50.5653 3.33449C50.5653 2.7673 50.9987 2.36035 51.606 2.36035Z" fill="white"/>
<path d="M13.0653 24.3787C13.0653 23.8065 13.5113 23.3563 14.0732 23.3614C14.6402 23.3639 15.0912 23.8472 15.0837 24.4423C15.0761 25.0248 14.6326 25.475 14.0808 25.4648C13.5239 25.4546 13.0653 24.9637 13.0678 24.3787" fill="white"/>
<path d="M72.5561 24.0049C71.969 24.0049 71.4877 23.542 71.4902 22.9825C71.4902 22.4026 71.9539 21.9549 72.5511 21.96C73.1155 21.9651 73.5515 22.4229 73.5565 23.0155C73.5615 23.5725 73.1231 24.0075 72.5561 24.0049Z" fill="white"/>
<path d="M44.7218 2.32734C44.7218 1.76016 45.1829 1.34303 45.7902 1.35575C46.3647 1.36593 46.8007 1.77796 46.8032 2.30954C46.8032 2.87418 46.2866 3.38796 45.7146 3.3905C45.1628 3.39304 44.7193 2.91996 44.7218 2.32734Z" fill="white"/>
<path d="M74.3647 25.8747C74.3647 26.4623 73.9514 26.8921 73.392 26.8845C72.8125 26.8794 72.3388 26.419 72.3438 25.8696C72.3488 25.3024 72.8553 24.7861 73.4046 24.7861C73.9565 24.7861 74.3672 25.2516 74.3647 25.8747Z" fill="white"/>
<path d="M35.0662 3.79199C35.0662 4.32356 34.5496 4.84751 34.028 4.84751C33.5014 4.84751 32.9974 4.32356 33.005 3.78435C33.0125 3.2426 33.5241 2.739 34.0557 2.74917C34.5874 2.75935 35.0687 3.25532 35.0662 3.79199Z" fill="white"/>
<path d="M74.3951 40.6492C74.39 41.2596 73.9138 41.7479 73.3342 41.7378C72.7925 41.7276 72.3339 41.2469 72.3389 40.6924C72.3439 40.1278 72.8278 39.6776 73.4199 39.6827C74.007 39.6903 74.4001 40.0769 74.3951 40.6492Z" fill="white"/>
<path d="M39.8538 1.48047C40.4107 1.48047 40.8491 1.92048 40.8491 2.48258C40.8491 3.06249 40.3855 3.52285 39.7959 3.52031C39.2541 3.52031 38.7577 3.01416 38.7627 2.47241C38.7678 1.95355 39.2843 1.48301 39.8538 1.48047Z" fill="white"/>
<path d="M14.3584 39.2297C14.3559 39.8173 13.9074 40.2954 13.358 40.2954C12.8138 40.2954 12.33 39.802 12.335 39.245C12.3375 38.6753 12.8087 38.1971 13.3606 38.2022C13.9275 38.2073 14.3609 38.6549 14.3584 39.2272" fill="white"/>
<path d="M20.5264 11.631C20.5264 11.0409 20.9648 10.578 21.5242 10.5703C22.0559 10.5653 22.5447 11.0841 22.5422 11.6539C22.5397 12.2185 22.1063 12.6585 21.5519 12.656C20.9724 12.656 20.5264 12.2058 20.5264 11.6284" fill="white"/>
<path d="M64.4143 11.5573C63.8246 11.5573 63.4542 11.1885 63.4542 10.6111C63.4542 10.0007 63.8801 9.53271 64.4344 9.53271C64.9863 9.53271 65.5079 10.0363 65.5079 10.5755C65.5079 11.1376 65.0392 11.5624 64.4118 11.5598" fill="white"/>
<path d="M22.6709 9.59872C22.6709 9.05443 23.1849 8.52539 23.7166 8.52539C24.2408 8.52539 24.7296 9.03408 24.7397 9.58855C24.7472 10.1379 24.2987 10.5907 23.7443 10.5907C23.1597 10.5907 22.6734 10.1405 22.6734 9.59872" fill="white"/>
<path d="M49.7057 2.65517C49.7082 3.28594 49.2571 3.77174 48.6725 3.76665C48.1257 3.76411 47.6848 3.29866 47.6797 2.7213C47.6747 2.12613 48.0955 1.71664 48.7129 1.72173C49.3403 1.72427 49.7031 2.06509 49.7057 2.65517Z" fill="white"/>
<path d="M14.3477 27.3448C14.3477 27.9196 13.932 28.3495 13.3675 28.3495C12.8081 28.3495 12.3344 27.8764 12.3369 27.3143C12.3369 26.7675 12.8308 26.2715 13.3701 26.2715C13.9219 26.2715 14.3452 26.7369 14.3477 27.3448Z" fill="white"/>
<path d="M73.2135 31.7905C73.2135 31.2208 73.6847 30.7528 74.2642 30.7452C74.7934 30.7401 75.2243 31.2055 75.2268 31.7829C75.2293 32.3806 74.8135 32.8206 74.2466 32.8181C73.6746 32.8155 73.2135 32.3552 73.2109 31.7905" fill="white"/>
<path d="M71.4392 45.3473C72.0188 45.3447 72.4371 45.7466 72.4346 46.3036C72.4346 46.853 71.9432 47.3744 71.4216 47.382C70.8975 47.3922 70.3633 46.8555 70.3633 46.3189C70.3633 45.7593 70.8168 45.3473 71.4392 45.3447" fill="white"/>
<path d="M73.9691 29.7965C73.3694 29.7812 72.9007 29.3234 72.9133 28.7638C72.9259 28.2119 73.4375 27.7439 74.0069 27.7617C74.5336 27.777 74.9871 28.273 74.967 28.8096C74.9443 29.3972 74.526 29.8117 73.9666 29.7965" fill="white"/>
<path d="M74.9525 37.7526C74.9373 38.3172 74.4687 38.8132 73.9571 38.8056C73.4305 38.7954 72.8988 38.246 72.9164 37.7272C72.9341 37.1829 73.4481 36.72 74.0226 36.7327C74.5694 36.7454 74.9676 37.1829 74.9525 37.7526Z" fill="white"/>
<path d="M16.0661 21.5965C16.0636 22.1892 15.6327 22.6139 15.038 22.6088C14.466 22.6037 14.0527 22.1739 14.0527 21.5813C14.0527 20.9887 14.4836 20.5614 15.0758 20.5665C15.6402 20.5715 16.0686 21.0166 16.0661 21.5965Z" fill="white"/>
<path d="M70.3633 20.1973C70.3684 19.6505 70.8396 19.1851 71.3889 19.1851C71.9332 19.1851 72.4472 19.7014 72.4397 20.2431C72.4346 20.7747 71.9634 21.2224 71.4116 21.2198C70.8597 21.2173 70.3583 20.7289 70.3633 20.1973Z" fill="white"/>
<path d="M11.9267 30.2466C11.9468 29.6743 12.4029 29.247 12.9699 29.2699C13.5318 29.2903 13.9753 29.7659 13.9526 30.3204C13.9274 30.8952 13.4587 31.3301 12.8817 31.3098C12.3198 31.2894 11.904 30.8291 11.9267 30.2466Z" fill="white"/>
<path d="M15.3057 18.8696C15.3082 18.2719 15.7265 17.8242 16.2834 17.8242C16.8629 17.8242 17.324 18.2897 17.3291 18.8747C17.3341 19.4444 16.8932 19.8793 16.3111 19.8768C15.724 19.8768 15.3031 19.4546 15.3082 18.8696" fill="white"/>
<path d="M11.9336 36.2896C11.9311 35.7351 12.3922 35.2366 12.9163 35.2315C13.4657 35.2264 13.9545 35.7122 13.9545 36.2616C13.9545 36.7906 13.4657 37.2968 12.9441 37.3095C12.4023 37.3222 11.9361 36.8517 11.9336 36.287" fill="white"/>
<path d="M69.2159 48.3056C69.1979 48.3083 69.1798 48.3135 69.1592 48.3161C69.1669 48.3004 69.1746 48.2848 69.1824 48.2666C69.1953 48.277 69.2056 48.29 69.2159 48.3031" fill="white"/>
<path d="M67.6765 50.7119C67.6687 50.7353 67.6559 50.7562 67.6301 50.7379C67.6223 50.7327 67.6378 50.6989 67.6404 50.6807C67.6533 50.6911 67.6636 50.7015 67.6739 50.7119" fill="white"/>
<path d="M44.21 11.4227C44.6283 10.9853 45.0668 10.5758 45.7144 10.5376C46.0822 10.5173 46.4275 10.6063 46.7475 10.7843C46.8936 10.8657 46.9894 10.9954 46.9113 11.1735C46.8357 11.3464 46.682 11.2701 46.5686 11.2447C46.0067 11.1201 45.5052 11.2777 45.0214 11.5499C44.9282 11.6033 44.8425 11.6745 44.8047 11.7788C44.7467 11.934 44.777 12.0586 44.9584 12.0967C45.0542 12.1171 45.155 12.1171 45.2507 12.1349C45.475 12.1781 45.6791 12.229 45.8026 12.4757C46.0016 12.8725 46.3796 13.0276 46.7903 13.076C47.2615 13.1319 47.7252 13.2082 48.1863 13.3252C48.6651 13.4473 49.1413 13.4397 49.5672 13.1167C49.7486 12.9793 49.9426 13.0938 50.1291 13.1319C50.2551 13.1573 50.3811 13.2336 50.4844 13.0861C50.5801 12.9437 50.5247 12.8191 50.4415 12.6995C50.1014 12.201 49.6251 11.9034 49.0556 11.7457C48.9448 11.7152 48.8188 11.6974 48.8213 11.5423C48.8213 11.3922 48.9372 11.3668 49.0531 11.3337C49.7713 11.1353 50.4642 11.4253 50.9002 12.112C51.006 12.2773 51.1068 12.4452 51.2302 12.6054C51.258 12.3002 51.1899 12.0179 51.0513 11.7534C50.9455 11.5499 50.817 11.3591 50.6381 11.2065C50.5297 11.115 50.4214 11.0107 50.5499 10.853C50.6759 10.7004 50.8321 10.6699 50.9783 10.797C51.1496 10.9471 51.2983 11.1251 51.4596 11.2905C51.4797 11.3134 51.5049 11.3312 51.5326 11.3541C51.5956 11.2803 51.5528 11.2294 51.5225 11.1735C51.4545 11.0438 51.3814 10.9115 51.3285 10.7741C51.2277 10.5173 51.2932 10.385 51.5553 10.3112C51.6964 10.2705 51.8426 10.2426 51.9862 10.2171C52.5859 10.1027 52.8782 9.73134 52.848 9.12091C52.8429 9.04715 52.8329 8.97339 52.8278 8.89963C52.8203 8.80044 52.8555 8.71905 52.9538 8.68344C53.042 8.65038 53.1176 8.68344 53.168 8.75975C53.3595 9.05224 53.6594 9.12091 53.9743 9.16415C54.2817 9.20485 54.3246 9.31676 54.1356 9.56347C54.0222 9.71353 53.8962 9.85596 53.7904 10.0111C53.6367 10.2324 53.619 10.4715 53.745 10.7131C53.8509 10.9166 53.9769 11.1099 54.0827 11.3134C54.244 11.616 54.1608 11.817 53.8433 11.9289C53.682 11.9848 53.5208 12.0459 53.362 12.1044C53.3267 12.1171 53.2965 12.14 53.2209 12.1832C53.5056 12.2264 53.7324 12.1527 53.9617 12.1451C54.0852 12.14 54.2087 12.1451 54.317 12.2163C54.4405 12.2951 54.4506 12.4223 54.4203 12.5469C54.3851 12.6919 54.2591 12.697 54.1432 12.6894C53.619 12.6639 53.163 12.8343 52.7749 13.1853C52.7522 13.2057 52.7321 13.2336 52.6968 13.2769C52.9009 13.2743 53.0571 13.1828 53.2234 13.137C54.0222 12.9157 54.7605 13.2031 55.1914 13.9153C55.1964 13.9229 55.199 13.9305 55.204 13.9382C55.2746 14.0501 55.3124 14.1645 55.204 14.2739C55.0881 14.3909 54.9949 14.2943 54.9016 14.2332C54.4178 13.9178 53.8987 13.7576 53.3192 13.8695C53.2159 13.8899 53.1126 13.9204 53.0143 13.9534C52.9362 13.9789 52.853 14.0094 52.848 14.1111C52.8429 14.2052 52.9084 14.2765 52.9815 14.3019C53.4754 14.4825 53.6594 14.8818 53.7551 15.36C53.8055 15.6016 53.9794 15.7644 54.191 15.8661C54.6597 16.0899 55.078 16.3875 55.4787 16.7156C55.8491 17.0208 56.2598 17.1302 56.7386 16.9547C56.978 16.8657 57.1342 17.1048 57.3282 17.1963C57.4366 17.2472 57.5096 17.4125 57.6659 17.3057C57.812 17.2065 57.7742 17.0513 57.749 16.9216C57.6457 16.3722 57.361 15.9322 56.9175 15.594C56.8646 15.5533 56.8091 15.5177 56.7587 15.477C56.6857 15.4185 56.6277 15.3574 56.668 15.2455C56.7109 15.1311 56.7915 15.1082 56.8998 15.1082C57.5046 15.1031 58.1245 15.5914 58.3361 16.2374C58.3991 16.4358 58.4395 16.6368 58.442 16.8453C58.442 16.9776 58.4521 17.1098 58.5151 17.2446C58.6209 17.12 58.631 16.97 58.636 16.8301C58.6536 16.4104 58.6814 15.9882 58.4747 15.5965C58.4042 15.4668 58.4445 15.3574 58.5654 15.2786C58.6965 15.1921 58.8326 15.1819 58.9384 15.3142C59.0341 15.4337 59.1123 15.5685 59.2156 15.7211C59.2735 15.421 59.3617 15.1743 59.6817 15.1336C59.8228 15.1158 59.9564 15.1692 60.0899 15.1997C60.7401 15.3549 61.1331 15.1412 61.3675 14.5028C61.3801 14.4723 61.3826 14.4392 61.3952 14.4087C61.4305 14.3222 61.4834 14.2459 61.5892 14.2434C61.6799 14.2434 61.7429 14.2993 61.7707 14.3833C61.8841 14.719 62.1083 14.9377 62.4384 15.0547C62.5291 15.0878 62.5871 15.1514 62.577 15.2608C62.5669 15.3676 62.5014 15.421 62.4132 15.4541C62.3679 15.4719 62.3175 15.477 62.2721 15.4922C61.7329 15.6677 61.4859 16.067 61.5615 16.6317C61.5867 16.8199 61.6195 17.0056 61.6396 17.1963C61.6648 17.4278 61.5489 17.5397 61.3272 17.5346C61.0903 17.5295 60.8534 17.5066 60.6065 17.5295C60.8207 17.6109 61.0324 17.6923 61.2465 17.7686C61.3473 17.8067 61.4431 17.85 61.5212 17.9263C61.6296 18.0331 61.6371 18.1603 61.5716 18.29C61.501 18.4273 61.3851 18.3917 61.2717 18.3485C61.0349 18.2595 60.7879 18.1984 60.5385 18.1603C60.1706 18.1043 59.8002 18.1806 59.4499 18.3867C59.8581 18.4121 60.2588 18.3994 60.6367 18.5393C61.3599 18.8089 61.7581 19.4956 61.6094 20.2612C61.428 20.1518 61.2995 19.9941 61.1583 19.8542C60.8157 19.5185 60.4654 19.198 59.9715 19.1064C59.8833 19.0912 59.7951 19.081 59.7044 19.081C59.6087 19.081 59.5255 19.1268 59.4852 19.2158C59.4398 19.3125 59.4953 19.3888 59.5608 19.4574C59.8153 19.722 59.9186 20.017 59.8556 20.396C59.7901 20.7953 59.9488 21.1565 60.158 21.4896C60.3344 21.7694 60.5536 22.0161 60.7552 22.273C60.929 22.4918 61.1054 22.7105 61.2113 22.975C61.2995 23.1937 61.4632 23.3031 61.6825 23.3082C62.0882 23.3184 62.325 23.5473 62.4863 23.8932C62.5392 24.0076 62.5921 24.1272 62.7484 24.1018C62.9121 24.0763 62.9373 23.9313 62.9625 23.8067C63.0785 23.2166 62.9953 22.6571 62.698 22.1357C62.6425 22.0365 62.5694 21.9449 62.5846 21.8203C63.0785 21.7669 63.5068 22.0975 63.653 22.6393C63.7991 23.181 63.7034 23.6999 63.5219 24.2137C63.4993 24.2798 63.4413 24.3408 63.4715 24.4477C63.842 24.1857 64.0007 23.8118 64.104 23.4023C64.1519 23.2141 64.1418 23.0259 64.1368 22.8351C64.1317 22.6851 64.1721 22.5681 64.3409 22.5579C64.5072 22.5477 64.6483 22.5859 64.7012 22.7792C64.7365 22.9038 64.7063 23.0233 64.6962 23.148C64.6886 23.2599 64.6962 23.3718 64.6962 23.5117C64.8348 23.4379 64.86 23.3336 64.8826 23.2217C64.9759 22.7664 65.2279 22.6698 65.5957 22.9394C65.7016 23.0182 65.8074 23.0945 65.9208 23.1581C66.4147 23.4405 66.7876 23.3769 67.1656 22.9521C67.1832 22.9343 67.1984 22.914 67.216 22.8987C67.3118 22.8097 67.3621 22.6138 67.5335 22.6901C67.6922 22.7614 67.6645 22.9318 67.6419 23.0844C67.6167 23.2726 67.7326 23.4125 67.8283 23.5524C67.8888 23.6414 67.9669 23.7202 68.0123 23.8143C68.1156 24.028 68.0148 24.1908 67.783 24.2111C67.7502 24.2137 67.7174 24.2111 67.6847 24.2111C67.0346 24.1959 66.7297 24.4426 66.6112 25.081C66.6087 25.0962 66.6062 25.114 66.6037 25.1293C66.5104 25.7601 66.4273 25.8135 65.8225 25.638C65.7772 25.6253 65.7318 25.6024 65.6764 25.6482C65.7419 25.8033 65.8906 25.8872 65.9863 26.0195C66.1022 26.1797 66.1375 26.3298 65.9712 26.4748C65.7898 26.6325 65.6739 26.5078 65.563 26.3781C65.18 25.9432 64.6911 25.7652 64.1141 25.7855C64.2678 25.8618 64.4215 25.9356 64.5752 26.017C65.3362 26.4214 65.7142 27.2632 65.4773 28.0034C65.4345 28.1331 65.3866 28.2399 65.2329 28.2297C65.0918 28.2196 65.0918 28.1026 65.0666 27.9958C64.923 27.3548 64.5979 26.841 64.0083 26.5231C63.9075 26.4671 63.7966 26.4036 63.6908 26.4951C63.5925 26.5791 63.6328 26.6986 63.6706 26.7952C63.8067 27.1386 63.7638 27.4718 63.5799 27.7694C63.338 28.1611 63.3103 28.5553 63.4589 28.975C63.6076 29.3972 63.6706 29.8372 63.7437 30.2772C63.8193 30.7325 64.0133 31.1064 64.4593 31.2946C64.5853 31.348 64.6155 31.4548 64.6307 31.5718C64.6508 31.7193 64.6685 31.8669 64.6785 32.0144C64.6836 32.111 64.6962 32.1975 64.7995 32.2357C64.9204 32.2814 65.0011 32.2102 65.0742 32.1263C65.374 31.7829 65.5025 31.3734 65.5151 30.9232C65.5202 30.7172 65.5101 30.5112 65.5025 30.3052C65.4975 30.1958 65.4849 30.0788 65.6134 30.0356C65.7369 29.9949 65.8301 30.0508 65.9107 30.1526C66.3794 30.7477 66.3719 31.5616 65.8906 32.2179C65.7646 32.3883 65.626 32.551 65.4798 32.7342C65.6134 32.7596 65.6915 32.696 65.7646 32.6401C66.13 32.3705 66.4601 32.0678 66.6112 31.6151C66.6642 31.4599 66.7473 31.3251 66.9539 31.3989C67.153 31.4701 67.2185 31.6049 67.148 31.8058C67.1076 31.9228 67.0698 32.0398 67.0295 32.1543C66.9917 32.1695 66.9791 32.2102 67.0043 32.2306C67.0371 32.2585 67.0497 32.2077 67.0673 32.1899C67.5259 31.8491 67.725 31.8897 68.0249 32.3857C68.0627 32.4493 68.1005 32.5129 68.1408 32.5765C68.4205 33.0038 68.8085 33.1131 69.2621 32.8893C69.3276 32.8563 69.3881 32.813 69.4511 32.7774C69.5569 32.7164 69.6678 32.6858 69.7686 32.7774C69.8694 32.869 69.8593 32.9911 69.7913 33.0928C69.6451 33.3115 69.6804 33.5277 69.7635 33.7541C69.7913 33.8304 69.819 33.9092 69.8291 33.9906C69.8568 34.217 69.7257 34.3365 69.504 34.2882C69.4334 34.273 69.3679 34.2373 69.2999 34.2068C68.7984 33.9652 68.4205 34.0644 68.0929 34.5222C67.9971 34.6545 67.9165 34.802 67.8157 34.9292C67.6293 35.1581 67.5033 35.1682 67.279 34.9851C67.1908 34.9139 67.1102 34.8325 67.0069 34.7384C66.9539 34.9241 67.0749 35.0462 67.1076 35.186C67.1328 35.2929 67.1606 35.3946 67.1127 35.4963C67.0598 35.6133 66.9464 35.6668 66.833 35.6668C66.6894 35.6668 66.6364 35.5447 66.5936 35.4226C66.4223 34.9215 66.1022 34.5578 65.6184 34.3467C65.6109 34.3187 65.5932 34.3035 65.568 34.3187C65.563 34.3238 65.5731 34.3569 65.5781 34.3772C65.8528 34.7486 66.13 35.1148 66.2308 35.5828C66.3315 36.0483 66.2232 36.4628 65.9485 36.8444C65.8603 36.9664 65.7469 37.0224 65.6084 36.969C65.4723 36.9156 65.4975 36.7859 65.505 36.6714C65.5328 36.1144 65.5353 35.5625 65.1926 35.0792C65.1397 35.0055 65.0918 34.9266 65.0112 34.8808C64.8499 34.7867 64.6962 34.8605 64.671 35.0462C64.6584 35.1352 64.6508 35.2267 64.6458 35.3158C64.6307 35.5803 64.5425 35.771 64.2728 35.8906C63.9175 36.0483 63.7916 36.3967 63.7512 36.7604C63.6807 37.3683 63.5119 37.9533 63.3657 38.5434C63.2901 38.8435 63.3052 39.108 63.5169 39.3522C63.7487 39.6167 63.7916 39.9168 63.6656 40.25C63.6227 40.3645 63.5345 40.4993 63.6706 40.6137C63.8016 40.7231 63.9175 40.6239 64.0309 40.5705C64.5576 40.3263 64.7869 39.8456 64.9759 39.3344C65.0338 39.1742 65.0389 38.9045 65.1951 38.902C65.3564 38.8995 65.4168 39.1538 65.4723 39.3242C65.6184 39.7591 65.4899 40.1356 65.2228 40.4764C64.9003 40.8884 64.4593 41.1377 63.9906 41.3488C63.9402 41.3717 63.8898 41.3895 63.8243 41.4149C64.2728 41.5497 65.1195 41.2292 65.5252 40.774C65.6361 40.6519 65.7369 40.4942 65.9284 40.6443C66.0896 40.7714 66.0997 40.9876 65.9485 41.1707C65.8755 41.2598 65.7873 41.3335 65.7016 41.4098C65.6235 41.4785 65.5403 41.5395 65.4471 41.6159C65.6184 41.6845 65.7041 41.5777 65.8049 41.5167C66.1703 41.2928 66.3819 41.3742 66.5004 41.7837C66.5482 41.949 66.6062 42.1118 66.6415 42.2822C66.7297 42.6994 67.0169 42.852 67.3999 42.885C67.5385 42.8977 67.6771 42.9079 67.8157 42.9308C68.0828 42.9766 68.1332 43.1063 67.9619 43.3072C67.8334 43.4573 67.7729 43.6328 67.73 43.8185C67.7074 43.9151 67.6922 44.0118 67.6645 44.1084C67.6242 44.2534 67.5411 44.3679 67.3924 44.3984C67.2513 44.4289 67.1706 44.3144 67.09 44.2229C66.702 43.7701 66.2559 43.7142 65.7621 44.0576C65.7545 44.0626 65.7469 44.0652 65.7419 44.0703C65.2833 44.3933 65.0565 44.612 64.7617 43.8261C64.7541 43.8083 64.7264 43.7981 64.6987 43.7752C64.6055 43.9253 64.6559 44.0881 64.6433 44.2356C64.6256 44.4467 64.5601 44.5917 64.3232 44.579C64.0813 44.5662 64.0939 44.3831 64.1091 44.2152C64.1544 43.6277 63.8672 43.1801 63.5018 42.7579C63.5623 43.0325 63.6253 43.3072 63.6807 43.5845C63.8218 44.2839 63.5345 44.9503 62.9424 45.3038C62.8315 45.37 62.7181 45.4666 62.5921 45.3394C62.4687 45.2174 62.572 45.1105 62.6274 45.0062C62.8693 44.5561 63.0482 44.0932 62.9701 43.5692C62.9499 43.4395 62.9121 43.3123 62.8794 43.1851C62.8542 43.0885 62.7937 43.0249 62.6954 43.0122C62.5921 42.9969 62.5266 43.0554 62.4787 43.1394C62.4208 43.2462 62.3653 43.3581 62.2998 43.4624C62.1612 43.6862 61.9647 43.8286 61.7001 43.8337C61.4053 43.8414 61.2087 43.9914 61.0626 44.228C60.6972 44.8155 60.3192 45.3929 59.9186 45.955C59.8153 46.1025 59.7976 46.2576 59.8304 46.4255C59.9236 46.8935 59.8178 47.3081 59.5129 47.6718C59.465 47.7277 59.402 47.7862 59.4348 47.8676C59.4701 47.9541 59.5633 47.9668 59.6439 47.9668C60.0244 47.9719 60.3646 47.8422 60.672 47.6209C60.8862 47.4658 61.0828 47.2928 61.2365 47.0766C61.3196 46.9596 61.4078 46.835 61.5741 46.9087C61.7379 46.9825 61.7102 47.1453 61.68 47.2801C61.5313 47.9414 61.1357 48.3687 60.4855 48.5594C60.1529 48.6561 59.8102 48.6637 59.4701 48.6942C60.032 48.9333 60.6015 48.9308 61.1709 48.7197C61.3171 48.6637 61.4532 48.595 61.5489 48.7782C61.6447 48.9613 61.564 49.0986 61.4053 49.1927C61.2516 49.2818 61.0903 49.3555 60.9064 49.4496C61.0727 49.4725 61.2113 49.4954 61.3524 49.5081C61.5766 49.5285 61.6724 49.6531 61.6447 49.8718C61.622 50.0524 61.5918 50.2305 61.564 50.4085C61.4784 50.963 61.7026 51.3369 62.2293 51.5149C62.3049 51.5403 62.388 51.5632 62.4561 51.6039C62.6324 51.7057 62.635 51.9524 62.446 52.0032C62.1108 52.0923 61.9521 52.3237 61.8236 52.6137C61.7757 52.723 61.6951 52.8019 61.5565 52.7917C61.428 52.7815 61.3725 52.7027 61.3322 52.5959C61.3146 52.5501 61.2944 52.5043 61.2818 52.4585C61.118 51.9447 60.7149 51.7082 60.1857 51.815C60.1605 51.8201 60.1378 51.8303 60.1151 51.8354C59.4801 52.0032 59.3365 51.9066 59.2382 51.1995C59.1677 51.3343 59.1223 51.4335 59.0669 51.5251C59.0215 51.6014 58.9711 51.6802 58.9132 51.7464C58.82 51.8506 58.699 51.8633 58.5781 51.8023C58.4571 51.7413 58.4697 51.637 58.4949 51.5251C58.5705 51.1868 58.6536 50.8536 58.6536 50.5026C58.6536 50.2203 58.6032 49.9507 58.4395 49.6938C58.4395 49.8566 58.4395 50.0219 58.4395 50.1847C58.4319 50.9833 58.0388 51.5734 57.3081 51.8761C57.2627 51.8939 57.2173 51.9117 57.1695 51.9219C56.9855 51.9651 56.794 51.9905 56.7033 51.7769C56.6176 51.5785 56.8016 51.5047 56.9225 51.4183C57.4063 51.0673 57.6785 50.5891 57.7566 49.9939C57.7717 49.882 57.7919 49.7548 57.6558 49.6913C57.5348 49.6353 57.4517 49.7142 57.3761 49.7879C57.1241 50.0372 56.8192 50.1338 56.4765 50.0728C56.0658 50.0016 55.7206 50.116 55.4182 50.3958C55.0175 50.7646 54.5211 50.9935 54.0726 51.2885C53.8307 51.4462 53.6442 51.6192 53.609 51.9142C53.5636 52.3008 53.357 52.5653 53.0193 52.7383C52.9236 52.7866 52.8177 52.8349 52.8303 52.9672C52.8429 53.1071 52.9588 53.1427 53.0722 53.1783C53.6619 53.3563 54.2011 53.1936 54.7252 52.9367C54.8437 52.8782 54.9571 52.7764 55.0755 52.9087C55.1964 53.0461 55.1309 53.1859 55.0453 53.3157C54.6043 53.977 53.7299 54.2008 52.8933 53.8701C52.7346 53.8065 52.5784 53.7353 52.4221 53.6692C52.4095 53.6463 52.3868 53.6285 52.3717 53.6514C52.3516 53.6768 52.3818 53.6845 52.402 53.6895C52.8077 54.1855 53.3469 54.3915 53.9693 54.417C54.0827 54.422 54.2036 54.3915 54.2893 54.4933C54.4153 54.6408 54.3195 54.8748 54.118 54.9333C53.9038 54.9943 53.682 54.918 53.425 54.9816C53.6064 55.0833 53.7526 55.1647 53.8962 55.2436C54.065 55.3377 54.0928 55.4827 54.0146 55.6429C53.9365 55.8057 53.8383 55.9583 53.7475 56.1134C53.4452 56.6272 53.5157 57.0901 53.9592 57.4818C54.0499 57.5632 54.1734 57.6242 54.1331 57.7794C54.0902 57.932 53.9491 57.9116 53.8357 57.9473C53.6568 58.0057 53.488 58.0922 53.3116 58.1533C52.9034 58.2957 52.6464 58.1685 52.6665 57.7438C52.6917 57.1435 52.3591 56.968 51.8804 56.8383C51.3058 56.6832 51.0791 56.6908 51.389 55.9405C51.4016 55.91 51.4066 55.8794 51.3714 55.8565C51.3814 55.8794 51.394 55.882 51.4066 55.8642C51.4117 55.8591 51.4066 55.8489 51.4092 55.8413C51.3966 55.8489 51.384 55.8566 51.3739 55.8616C51.2454 55.9761 51.1194 56.0905 50.9883 56.1999C50.9329 56.2482 50.8724 56.294 50.8094 56.3245C50.6658 56.3958 50.5373 56.3576 50.439 56.233C50.3281 56.0956 50.4289 56.0041 50.5197 55.9176C51.0261 55.4369 51.2328 54.8265 51.2806 54.1474C51.2832 54.099 51.2806 54.0507 51.2655 53.9998C51.1194 54.3 50.9984 54.6128 50.8145 54.89C50.5398 55.3021 50.2248 55.6582 49.7184 55.7828C49.3832 55.8667 49.0859 55.7752 48.8112 55.5971C48.6273 55.4776 48.7835 55.4038 48.8818 55.3631C49.0531 55.2919 49.2396 55.2563 49.4135 55.1825C49.8469 54.9969 50.1568 54.6815 50.4012 54.2898C50.4718 54.1753 50.4995 54.0533 50.4163 53.9439C50.3256 53.8243 50.2072 53.8981 50.1014 53.9363C49.8166 54.0405 49.552 54.0685 49.2698 53.8778C48.8389 53.5878 48.3501 53.6285 47.8713 53.748C47.3497 53.8803 46.8483 54.0914 46.304 54.1194C46.1679 54.127 46.0621 54.2338 45.9991 54.3483C45.7799 54.7502 45.4347 54.9231 44.9962 54.9511C44.903 54.9562 44.7871 54.9307 44.7493 55.0605C44.7115 55.1927 44.7871 55.2766 44.8803 55.353C45.3868 55.7828 45.9865 55.8464 46.6114 55.7853C46.7475 55.7726 46.8836 55.7268 46.9466 55.8871C47.0095 56.0473 46.9113 56.144 46.7777 56.2228C45.989 56.6908 45.1197 56.5585 44.462 55.8642C44.3335 55.7268 44.2075 55.5869 44.0815 55.4471C44.0664 55.4242 44.0513 55.4038 44.0336 55.3809C44.0286 55.386 44.021 55.3936 44.021 55.3987C44.016 55.4293 44.021 55.4572 44.0588 55.4649C44.2755 56.1389 44.7241 56.5992 45.349 56.8968C45.4951 56.9655 45.6866 56.996 45.6035 57.23C45.5254 57.4538 45.3591 57.4487 45.1625 57.3953C45.0264 57.3597 44.903 57.2529 44.7467 57.2961C44.7467 57.286 44.7442 57.2732 44.7417 57.2631C44.7316 57.2682 44.7241 57.2707 44.714 57.2758C44.7266 57.2809 44.7392 57.2885 44.7518 57.2936C44.7593 57.3165 44.7619 57.3419 44.7745 57.3597C45.1398 57.8201 45.102 58.0312 44.5855 58.3262C44.2403 58.5246 43.953 58.751 44.011 59.2063C44.0336 59.3945 44.0991 59.5725 44.1949 59.7378C44.2655 59.8574 44.3184 59.9769 44.2025 60.0965C44.0941 60.2084 43.9732 60.1651 43.8699 60.0939C43.6506 59.9413 43.4289 60.0151 43.2122 60.0837C43.0761 60.127 42.94 60.1804 42.8266 60.0558C42.7132 59.9337 42.7662 59.7989 42.8191 59.6641C43.0786 59.0206 42.9829 58.7001 42.4184 58.3008C41.8212 57.8811 41.8162 57.8277 42.3252 57.3063C42.3554 57.2758 42.4134 57.2554 42.3932 57.1919C42.4184 57.2198 42.4336 57.1919 42.4512 57.1791C42.4512 57.1791 42.4436 57.1613 42.4386 57.1613C42.4134 57.1562 42.3907 57.1613 42.3932 57.1969C42.242 57.1969 42.1211 57.2885 41.9825 57.3292C41.8893 57.3572 41.796 57.3877 41.7003 57.3979C41.5667 57.4131 41.4584 57.3673 41.4181 57.2224C41.3777 57.0749 41.4533 56.9935 41.5818 56.9375C42.1992 56.6806 42.6301 56.2355 42.8997 55.6226C42.935 55.5412 42.9602 55.4547 42.9879 55.3708C43.0257 55.3479 43.0358 55.3173 43.0081 55.2792C42.9904 55.3021 42.9728 55.3224 42.9552 55.3453C42.7536 55.5717 42.5671 55.8133 42.3504 56.0244C41.7759 56.5814 40.8839 56.6755 40.332 56.2559C40.2791 56.2177 40.2237 56.177 40.1859 56.1236C40.1279 56.0448 39.9717 55.999 40.0448 55.8744C40.1027 55.7752 40.2388 55.7446 40.3547 55.7726C40.6646 55.8464 40.972 55.8006 41.2795 55.7574C41.5894 55.7141 41.8414 55.5462 42.0908 55.3708C42.1942 55.297 42.2269 55.1876 42.1942 55.063C42.1614 54.9409 42.0531 54.9256 41.9573 54.9256C41.607 54.9256 41.3576 54.7807 41.1283 54.4984C40.7705 54.0558 40.2337 53.9541 39.7021 53.8778C39.2334 53.8116 38.7596 53.7735 38.3136 53.5929C38.1498 53.5268 37.9835 53.5802 37.8575 53.6997C37.535 54.0075 37.1772 54.0609 36.774 53.8905C36.6833 53.8523 36.5876 53.8193 36.5044 53.9134C36.4213 54.0075 36.4666 54.1016 36.5069 54.1906C36.764 54.7502 37.21 55.0859 37.7845 55.2614C37.9231 55.3046 38.1549 55.3123 38.1574 55.4369C38.1599 55.5946 37.9407 55.6582 37.7946 55.7192C37.4216 55.8693 37.0714 55.7853 36.7488 55.5717C36.2978 55.2741 36.0332 54.8341 35.8316 54.3483C35.8014 54.2745 35.7888 54.1906 35.7006 54.1092C35.6678 54.4297 35.7081 54.7171 35.814 54.9969C35.94 55.3224 36.1113 55.62 36.3734 55.8565C36.4691 55.943 36.5598 56.0371 36.4691 56.1719C36.3734 56.3118 36.2398 56.3474 36.0811 56.2737C35.9601 56.2177 35.8669 56.1262 35.7787 56.027C35.693 55.9329 35.6048 55.8387 35.4965 55.7217C35.441 55.8947 35.5368 55.9863 35.5897 56.088C35.7888 56.4695 35.6905 56.6959 35.2747 56.7951C35.0681 56.8434 34.864 56.8968 34.6574 56.9477C34.3903 57.0138 34.2668 57.2046 34.234 57.4615C34.2088 57.6649 34.2013 57.8735 34.1837 58.077C34.1761 58.1762 34.171 58.2855 34.0602 58.3237C33.9569 58.3618 33.8687 58.3186 33.8006 58.2347C33.5865 57.9727 33.2967 57.8837 32.9741 57.871C32.8809 57.8659 32.7625 57.8811 32.7146 57.7743C32.6592 57.6598 32.7423 57.5708 32.8078 57.4869C32.9464 57.3139 33.09 57.1461 33.2236 56.968C33.3773 56.7646 33.3949 56.5458 33.2614 56.322C33.143 56.1262 33.0145 55.9329 32.9011 55.7319C32.7121 55.3962 32.7851 55.2207 33.153 55.1062C33.3445 55.0469 33.4848 54.9706 33.5739 54.8773C33.3748 54.8875 33.1833 54.9002 32.9893 54.9028C32.9162 54.9028 32.8431 54.8951 32.7725 54.8773C32.634 54.8443 32.5684 54.7502 32.571 54.6077C32.5735 54.4399 32.6894 54.4144 32.8204 54.3992C33.2034 54.3559 33.5789 54.2898 33.9241 54.1041C34.0929 54.0151 34.2391 53.9007 34.413 53.6997C34.2114 53.7633 34.0753 53.8091 33.9367 53.8472C33.468 53.982 33.0019 53.9871 32.5407 53.8142C32.193 53.6819 31.9612 53.4225 31.7974 53.0969C31.752 53.0054 31.7293 52.9062 31.815 52.8222C31.9108 52.7281 32.0065 52.7637 32.1048 52.8222C32.6138 53.1452 33.1707 53.2114 33.7553 53.1325C33.8384 53.1224 33.9191 53.1046 33.9871 53.0613C34.1358 52.9672 34.1484 52.8044 33.9921 52.7332C33.5487 52.5374 33.3471 52.1864 33.2664 51.7235C33.2186 51.4437 33.0019 51.2682 32.7625 51.1512C32.3391 50.9426 31.9662 50.673 31.5958 50.3831C31.2002 50.0728 30.7617 49.8947 30.2477 50.0779C30.0259 50.1567 29.8798 50.0092 29.7185 49.8947C29.6102 49.8184 29.5018 49.6429 29.3733 49.7167C29.2498 49.7879 29.265 49.9787 29.2725 50.1287C29.2977 50.5891 29.5623 50.9223 29.8571 51.2377C29.9529 51.3394 30.0663 51.4233 30.1696 51.5149C30.2502 51.5861 30.3409 51.6573 30.2855 51.7845C30.2275 51.9117 30.1116 51.9193 29.9932 51.9066C29.3431 51.8354 28.8996 51.4895 28.693 50.8689C28.5821 50.5357 28.514 50.1872 28.4259 49.8413C28.2293 50.2381 28.2847 50.9681 28.4637 51.3674C28.5317 51.5225 28.6501 51.6904 28.4183 51.8099C28.2369 51.904 28.0832 51.8303 27.9723 51.5938C27.8791 51.3928 27.806 51.1843 27.7203 50.9681C27.622 51.0495 27.6623 51.1461 27.6825 51.2351C27.7934 51.7718 27.6094 51.9676 27.0727 51.8837C26.8963 51.8557 26.7199 51.8227 26.541 51.8023C26.2714 51.7743 26.0623 51.8761 25.9212 52.1126C25.8052 52.311 25.6994 52.517 25.5734 52.7078C25.46 52.8807 25.3492 52.8782 25.271 52.6925C25.1249 52.3542 24.9031 52.1152 24.5504 52.0007C24.4546 51.9702 24.4017 51.9041 24.4017 51.7998C24.4017 51.6853 24.4546 51.6217 24.5579 51.5759C24.7368 51.4946 24.9157 51.4132 25.0821 51.3114C25.3869 51.1283 25.4852 50.8841 25.4197 50.5357C25.3869 50.3653 25.3567 50.1949 25.3214 50.027C25.2509 49.6938 25.3441 49.5539 25.6843 49.498C25.7851 49.4802 25.8884 49.4649 25.9917 49.4471C25.9715 49.3301 25.8859 49.3276 25.8078 49.3047C25.6868 49.2691 25.586 49.2029 25.4978 49.1114C25.3869 48.9994 25.3895 48.8748 25.4676 48.7527C25.5457 48.6332 25.6515 48.6535 25.7725 48.6993C26.3596 48.9206 26.9518 48.9282 27.549 48.7273C27.6145 48.7044 27.6901 48.6993 27.7354 48.6306C27.4482 48.6306 27.1659 48.6485 26.8837 48.6281C26.0371 48.5671 25.5306 47.9541 25.2962 47.3411C25.2761 47.2877 25.266 47.2292 25.2635 47.1707C25.2635 47.0385 25.3038 46.9291 25.4373 46.8731C25.586 46.8121 25.6515 46.9189 25.7095 47.013C26.0421 47.5573 26.5587 47.8117 27.1508 47.9465C27.2793 47.977 27.4204 48.005 27.5036 47.8651C27.5893 47.7252 27.4734 47.6311 27.3952 47.5446C27.113 47.2292 27.0551 46.8502 27.1281 46.456C27.1861 46.1508 27.1029 45.899 26.9165 45.6777C26.5083 45.1919 26.221 44.6247 25.8607 44.1033C25.7296 43.9126 25.5734 43.7829 25.3492 43.7651C24.9435 43.7345 24.6915 43.5107 24.5252 43.1546C24.4723 43.0376 24.442 42.885 24.2707 42.8977C24.0918 42.9105 24.0842 43.0732 24.0363 43.203C23.8423 43.7244 23.9884 44.2076 24.1875 44.6858C24.2631 44.8664 24.3463 45.0419 24.4294 45.2275C23.9406 45.2708 23.5147 44.9579 23.3862 44.4696C23.2552 43.9762 23.3283 43.4878 23.4164 42.9995C23.4416 42.8621 23.4971 42.7299 23.482 42.5595C23.104 42.9079 22.9352 43.3428 22.8444 43.8159C22.8192 43.9533 22.8142 44.0932 22.8067 44.233C22.8016 44.3653 22.789 44.4899 22.6227 44.5027C22.4514 44.5154 22.3405 44.4314 22.3077 44.2585C22.2599 44.0016 22.3052 43.7473 22.3228 43.4929C22.3254 43.4548 22.343 43.4141 22.2926 43.3683C22.1717 43.4548 22.1868 43.5997 22.1515 43.7142C21.9675 44.3068 21.8164 44.3653 21.3048 44.0296C21.2015 43.9634 21.1007 43.8897 20.9924 43.8363C20.6144 43.6481 20.2642 43.6938 19.9517 43.9787C19.8736 44.0499 19.803 44.1313 19.7299 44.2076C19.667 44.2763 19.5989 44.3297 19.4956 44.3068C19.3797 44.2814 19.3419 44.1847 19.3192 44.0906C19.1932 43.5946 19.3721 43.0427 19.8081 42.7909C20.2339 42.5442 20.4229 42.2034 20.433 41.7278C20.4405 41.4632 20.5716 41.2903 20.8462 41.2674C21.0302 41.2521 21.0428 41.1606 20.9747 41.0181C20.9571 40.9825 20.9369 40.9444 20.9294 40.9037C20.9042 40.7613 20.9017 40.6239 21.0529 40.5374C21.204 40.451 21.3048 40.5425 21.3955 40.6366C21.645 40.8961 21.9298 41.0944 22.2699 41.2114C22.4715 41.2827 22.6857 41.2903 22.9125 41.2928C22.7588 41.2064 22.6025 41.1199 22.4488 41.0334C21.8894 40.718 21.5165 40.2678 21.4359 39.604C21.4132 39.4234 21.4081 39.2428 21.4661 39.0648C21.5165 38.9096 21.6198 38.8232 21.7735 38.8333C21.9323 38.8435 21.9323 38.9859 21.9625 39.108C22.1162 39.7363 22.4337 40.2424 23.0435 40.512C23.1292 40.5502 23.23 40.6036 23.3207 40.5273C23.4215 40.4459 23.3585 40.3416 23.3257 40.2551C23.1897 39.8787 23.2199 39.5124 23.4467 39.1945C23.681 38.8664 23.7239 38.5281 23.5702 38.1695C23.3787 37.7218 23.3661 37.2411 23.2854 36.7706C23.2123 36.3509 23.0284 35.9999 22.6328 35.8117C22.4262 35.7125 22.338 35.5701 22.3203 35.3565C22.3102 35.242 22.2901 35.1275 22.2699 35.0131C22.2573 34.9317 22.2472 34.8452 22.1389 34.83C22.0507 34.8172 21.9827 34.8478 21.9247 34.919C21.5493 35.3895 21.3754 35.9236 21.4485 36.529C21.4485 36.5442 21.4585 36.5595 21.4585 36.5773C21.4611 36.7274 21.5694 36.9334 21.4207 37.0097C21.3099 37.0682 21.1662 36.9003 21.0629 36.796C20.6648 36.3967 20.6925 35.9236 20.8487 35.4378C20.9445 35.1377 21.1007 34.8681 21.2771 34.6087C21.32 34.5451 21.3981 34.4942 21.3855 34.3849C21.1612 34.4128 20.9949 34.54 20.8462 34.6926C20.627 34.919 20.4531 35.1784 20.3549 35.4836C20.3095 35.6261 20.2465 35.7303 20.0802 35.6922C19.9164 35.654 19.8383 35.5472 19.8333 35.3717C19.8282 35.1937 19.9441 35.0462 19.9416 34.8681C19.9189 34.8681 19.9013 34.863 19.8912 34.8681C19.4528 35.2013 19.2613 35.1632 18.9715 34.685C18.9085 34.5807 18.848 34.4688 18.7724 34.3747C18.4902 34.0237 18.1299 33.9703 17.6183 34.1941C17.5427 34.2272 17.4722 34.273 17.3941 34.2882C17.2202 34.3213 17.0841 34.1788 17.1622 34.0237C17.3311 33.6829 17.3185 33.3599 17.1497 33.0292C17.1119 32.9555 17.1169 32.869 17.1824 32.7978C17.2555 32.7189 17.3462 32.724 17.4319 32.7596C17.6284 32.841 17.825 32.9122 18.0341 32.9605C18.3314 33.0292 18.5683 32.9326 18.7472 32.6986C18.8631 32.551 18.9564 32.3857 19.0647 32.228C19.3016 31.8872 19.5132 31.8643 19.803 32.1543C19.8711 32.2229 19.9265 32.3043 20.0222 32.4213C20.0424 32.1772 19.9315 32.0449 19.8837 31.8948C19.8307 31.7371 19.7677 31.5769 19.9643 31.4599C20.181 31.3302 20.3246 31.404 20.4279 31.7041C20.5892 32.1772 20.9243 32.4824 21.3552 32.6986C21.3678 32.7037 21.3855 32.6986 21.4283 32.6986C21.2922 32.5104 21.1511 32.345 21.0428 32.1619C20.6749 31.5413 20.6421 30.9029 20.9899 30.2594C21.0201 30.2035 21.0604 30.1475 21.1058 30.1017C21.1965 30.0051 21.3149 30 21.4233 30.0534C21.5316 30.1068 21.519 30.2136 21.4913 30.3154C21.383 30.7121 21.4258 31.0987 21.5593 31.4803C21.6576 31.7626 21.8491 31.9737 22.0709 32.1619C22.1994 32.2713 22.2296 32.2357 22.2523 32.078C22.3178 31.638 22.5144 31.2539 22.8722 30.9919C23.1922 30.7554 23.3484 30.4425 23.356 30.0661C23.3661 29.5396 23.5198 29.0436 23.6054 28.5324C23.6609 28.1967 23.6558 27.8508 23.4492 27.5812C23.2375 27.3065 23.2627 27.0394 23.3358 26.7469C23.3635 26.635 23.424 26.518 23.293 26.4366C23.1745 26.3629 23.0612 26.401 22.9478 26.4697C22.4211 26.8003 22.1011 27.2785 21.9524 27.8813C21.9222 28.0008 21.9197 28.1433 21.7483 28.1433C21.5795 28.1433 21.5694 28.0008 21.5417 27.8813C21.393 27.2683 21.5467 26.7418 21.9928 26.2993C22.2044 26.0907 22.4488 25.9254 22.7336 25.7448C22.2246 25.6634 21.8794 25.9 21.5518 26.1848C21.5014 26.2281 21.4611 26.2789 21.4157 26.3273C21.3048 26.4443 21.1839 26.4875 21.0529 26.368C20.9243 26.251 20.8613 26.1085 20.9823 25.9559C21.0932 25.816 21.2267 25.6939 21.3981 25.5108C21.2292 25.5566 21.1209 25.5897 21.01 25.6151C20.7076 25.6863 20.5791 25.6126 20.4985 25.315C20.4582 25.1649 20.4405 25.0072 20.4053 24.8546C20.2818 24.3052 20.0122 24.0865 19.4603 24.0865C19.3772 24.0865 19.2965 24.0916 19.2159 24.0967C19.1176 24.1043 19.037 24.0763 18.9891 23.9848C18.9337 23.883 18.9589 23.7889 19.032 23.7126C19.2613 23.4684 19.3923 23.1963 19.3847 22.8478C19.3797 22.6316 19.5687 22.5655 19.7476 22.7029C19.9038 22.8224 20.0474 22.9572 20.2037 23.0793C20.4506 23.27 20.7152 23.2777 20.9823 23.12C21.1864 23.0004 21.3804 22.8606 21.5896 22.7461C21.8315 22.6138 21.9675 22.6596 22.0835 22.9089C22.1717 23.0971 22.2372 23.298 22.3304 23.5396C22.3707 23.3184 22.3304 23.1581 22.3128 22.9954C22.2951 22.8046 22.3354 22.6316 22.474 22.4968C22.537 22.4333 22.6227 22.3875 22.7185 22.418C22.8344 22.4561 22.8344 22.5579 22.8444 22.6596C22.8747 22.9623 22.9074 23.265 22.9956 23.56C23.0864 23.8627 23.2678 24.0967 23.555 24.3459C23.4719 24.0585 23.3988 23.8398 23.3409 23.616C23.1468 22.8402 23.4114 22.1535 24.064 21.7287C24.1699 21.6601 24.2782 21.5888 24.3967 21.6957C24.5277 21.8152 24.4219 21.9169 24.3614 22.0212C24.0262 22.5986 23.9456 23.209 24.117 23.855C24.1447 23.9619 24.1951 24.0458 24.3009 24.0636C24.4168 24.0814 24.4773 23.9822 24.5126 23.8906C24.6738 23.4583 24.9838 23.237 25.4298 23.1836C25.6893 23.1505 25.8985 23.003 26.0043 22.7664C26.2361 22.2603 26.5662 21.8228 26.8862 21.3752C27.1508 21.0038 27.2617 20.5918 27.1004 20.1391C27.0223 19.9178 27.1937 19.7906 27.2919 19.6355C27.3776 19.5007 27.6044 19.4117 27.4784 19.2031C27.3625 19.0123 27.1659 19.1014 27.0047 19.1293C26.4377 19.2285 26.0421 19.5897 25.7044 20.0323C25.6263 20.1365 25.5709 20.2841 25.4046 20.2128C25.2358 20.1416 25.266 19.989 25.2887 19.8491C25.4147 18.9996 26.1454 18.4223 27.1055 18.407C27.2844 18.4045 27.4658 18.407 27.622 18.407C27.3499 18.173 26.7099 18.0713 26.2109 18.2035C26.0698 18.2417 25.9337 18.2951 25.7926 18.3409C25.6717 18.379 25.5432 18.4579 25.4525 18.2875C25.3618 18.117 25.4222 17.9797 25.5659 17.8831C25.77 17.7432 26.0169 17.6923 26.2412 17.5982C26.284 17.5804 26.342 17.5931 26.3596 17.499C26.1479 17.499 25.9388 17.5041 25.7322 17.499C25.4802 17.4888 25.3895 17.3998 25.3945 17.148C25.3995 16.9522 25.4298 16.7538 25.4525 16.5579C25.5054 16.1052 25.3013 15.7974 24.9132 15.5965C24.7822 15.5278 24.6436 15.4719 24.5227 15.393C24.3765 15.2964 24.3664 15.1539 24.5277 15.0878C24.8653 14.9479 25.0443 14.6783 25.1954 14.3706C25.2458 14.2688 25.3366 14.2129 25.4575 14.2307C25.5684 14.2485 25.6263 14.3222 25.6591 14.4214C25.6767 14.4748 25.6918 14.5308 25.7095 14.5868C25.8632 15.0929 26.2966 15.3574 26.8182 15.2506C26.9719 15.2175 27.1256 15.2124 27.2793 15.2023C27.5137 15.1845 27.6573 15.276 27.6699 15.5278C27.6775 15.6753 27.6951 15.8203 27.7153 16.0162C27.8211 15.7923 27.9093 15.6041 28 15.4159C28.0529 15.3065 28.121 15.2226 28.252 15.2099C28.4561 15.1895 28.567 15.3015 28.5266 15.5024C28.4838 15.7211 28.4385 15.9373 28.3755 16.151C28.2772 16.4969 28.2948 16.8301 28.4586 17.2294C28.5014 16.9165 28.5166 16.6622 28.5896 16.418C28.7862 15.7466 29.1944 15.2989 29.8773 15.126C29.9327 15.1132 29.9907 15.1056 30.0461 15.1005C30.1494 15.0929 30.2452 15.1132 30.293 15.2201C30.3434 15.3371 30.2956 15.4261 30.1998 15.4973C29.968 15.6703 29.7639 15.8712 29.5951 16.1052C29.3935 16.385 29.27 16.6927 29.2675 17.0437C29.2675 17.1556 29.2725 17.2599 29.3909 17.3159C29.5043 17.3667 29.5799 17.3031 29.648 17.2294C29.9176 16.942 30.2275 16.858 30.603 17.0081C30.8272 17.0971 31.0389 16.9979 31.2279 16.8758C31.8327 16.4816 32.4299 16.0798 33.0321 15.683C33.1833 15.5838 33.2816 15.4592 33.3093 15.2709C33.3823 14.8004 33.6293 14.4494 34.0627 14.2408C34.1307 14.2078 34.2114 14.1722 34.2088 14.0908C34.2088 13.9992 34.1257 13.9534 34.0451 13.928C33.4378 13.722 32.8557 13.7932 32.2963 14.1035C32.261 14.1239 32.2257 14.1442 32.1905 14.1671C32.0897 14.2307 31.9813 14.2968 31.8805 14.1925C31.7747 14.0857 31.8301 13.9662 31.8931 13.8542C32.2862 13.1573 33.085 12.8648 33.909 13.1192C34.0803 13.1726 34.2492 13.2362 34.418 13.2972C34.4432 13.3379 34.4785 13.3456 34.5238 13.3405C34.5289 13.3634 34.5415 13.3761 34.5667 13.3634C34.5591 13.3506 34.549 13.3354 34.5415 13.3227C34.5415 13.282 34.5112 13.2693 34.481 13.254C34.0501 12.8165 33.5058 12.6385 32.9137 12.5952C32.7776 12.5851 32.6289 12.5902 32.6289 12.407C32.6289 12.2315 32.7247 12.1044 32.9111 12.0993C33.1808 12.0891 33.4479 12.0993 33.7175 12.0993C33.6419 11.967 33.4756 11.9594 33.342 11.8983C32.9137 11.7 32.8784 11.5957 33.1077 11.1862C33.1556 11.0997 33.2085 11.0158 33.2589 10.9318C33.5789 10.385 33.5033 9.96533 33.0119 9.56347C32.9615 9.52277 32.9086 9.48208 32.8633 9.4363C32.7977 9.37017 32.7877 9.28878 32.8255 9.20739C32.8607 9.13109 32.9313 9.10057 33.0094 9.11328C33.3949 9.17178 33.6948 9.02681 33.9367 8.73177C33.9896 8.66564 34.0551 8.61731 34.1484 8.65801C34.2441 8.6987 34.2844 8.76738 34.2844 8.86911C34.2844 9.04207 34.2819 9.21756 34.2945 9.38797C34.3298 9.83053 34.4961 10.0187 34.927 10.1154C35.0933 10.1535 35.2647 10.179 35.431 10.2197C35.7233 10.2909 35.8089 10.4282 35.7384 10.7258C35.7031 10.8759 35.6451 11.0209 35.6326 11.1989C35.751 11.0895 35.8694 10.9751 35.9904 10.8683C36.076 10.792 36.1567 10.7106 36.2801 10.6978C36.4036 10.6851 36.512 10.7182 36.575 10.8301C36.638 10.9446 36.575 11.031 36.4943 11.1099C36.013 11.5906 35.7661 12.1705 35.7585 12.903C35.9047 12.6309 36.0206 12.3892 36.1617 12.1654C36.3809 11.8119 36.648 11.5067 37.0512 11.349C37.4393 11.1964 37.7996 11.2676 38.1624 11.438C38.2834 11.4939 38.2582 11.5474 38.1977 11.6186C38.1297 11.6949 38.0339 11.7228 37.9382 11.7432C37.3889 11.8577 36.9857 12.1908 36.6556 12.6309C36.5598 12.758 36.5195 12.9005 36.6128 13.0429C36.7085 13.1879 36.8395 13.1268 36.9655 13.0912C37.2251 13.0149 37.4594 13.0175 37.7064 13.1802C38.1851 13.4931 38.7093 13.4041 39.2208 13.2642C39.6769 13.1395 40.1304 12.9997 40.6092 12.992C40.7604 12.992 40.8612 12.8801 40.9343 12.758C41.1837 12.3333 41.539 12.1018 42.0379 12.112C42.1312 12.112 42.2219 12.0942 42.2622 11.9925C42.3025 11.8882 42.232 11.8144 42.1664 11.7559C41.67 11.321 41.0955 11.1455 40.4429 11.232C40.3068 11.2498 40.1178 11.3261 40.0523 11.2192C39.9717 11.0946 40.1481 10.9802 40.2312 10.881C40.579 10.4715 41.0174 10.5045 41.4685 10.6419C41.9069 10.7741 42.3025 11.0081 42.7284 11.2371C42.7132 11.0463 42.6049 10.9293 42.5117 10.8174C42.2496 10.5045 41.9397 10.2502 41.5466 10.1256C41.4256 10.0874 41.3248 10.034 41.3525 9.88903C41.3828 9.74405 41.4559 9.62706 41.6297 9.62451C41.7482 9.62197 41.8515 9.66521 41.9573 9.71353C42.0531 9.75677 42.1513 9.78729 42.3151 9.84579C42.2194 9.71353 42.1614 9.63469 42.106 9.55075C41.9044 9.2608 41.9245 9.12854 42.2042 8.90726C42.295 8.83605 42.3907 8.77246 42.4839 8.70633C42.9703 8.3528 43.0837 7.92804 42.8367 7.36849C42.804 7.29473 42.7536 7.22097 42.7435 7.14212C42.7233 6.99714 42.804 6.85726 42.94 6.90812C43.1945 7.00223 43.4415 6.93356 43.6884 6.94119C44.1294 6.95645 44.2755 7.14975 44.1546 7.57959C44.1395 7.63555 44.1168 7.68896 44.0966 7.74237C43.953 8.1366 43.9858 8.2714 44.3033 8.55627C44.457 8.69362 44.6208 8.8157 44.7694 8.95813C44.9886 9.16924 44.9962 9.29895 44.8173 9.53804C44.7392 9.64232 44.6485 9.73897 44.5653 9.8407C44.5452 9.86105 44.5275 9.88394 44.5099 9.90429C44.5502 9.93227 44.5779 9.91701 44.6006 9.87886C44.7493 9.81527 44.9005 9.75168 45.0491 9.68555C45.1398 9.64486 45.2331 9.61943 45.3339 9.62197C45.4901 9.62451 45.5732 9.71862 45.611 9.85597C45.6463 9.99331 45.543 10.0467 45.4447 10.0925C45.039 10.2807 44.6636 10.5147 44.4116 10.8962C44.3083 11.0539 44.1445 11.2065 44.2151 11.4354C44.2075 11.4227 44.2025 11.4125 44.1949 11.4024L44.1747 11.4227C44.1873 11.4253 44.2025 11.4278 44.2176 11.4304M43.5221 13.2464C32.1325 13.2464 23.429 22.4994 23.4139 33.5659C23.3988 44.8028 32.5306 53.7455 43.3936 53.8065C54.5438 53.8701 63.7235 44.6985 63.5749 33.2505C63.4337 22.4104 54.816 13.2667 43.5221 13.2464ZM21.4485 34.3849L21.4359 34.3747V34.3874H21.4485V34.3849Z" fill="white"/>
<path d="M38.0622 8.70844C38.0194 8.43375 37.8733 8.2023 37.7498 7.96321C37.6918 7.84622 37.5507 7.73685 37.6616 7.58424C37.7624 7.44435 37.906 7.49522 38.0446 7.51557C38.3117 7.55372 38.5662 7.52574 38.793 7.36042C38.8862 7.29175 38.9895 7.22308 39.1029 7.31464C39.1987 7.39349 39.2012 7.49777 39.1559 7.60714C39.1533 7.61477 39.1508 7.62239 39.1483 7.63003C38.9719 8.49225 39.0752 8.68809 39.8866 9.02892C39.9244 9.04418 39.9622 9.05944 40 9.0747C40.3855 9.25274 40.441 9.45367 40.1688 9.77923C39.7581 10.2701 39.4935 10.8246 39.3852 11.4554C39.3675 11.5596 39.3373 11.669 39.2088 11.697C39.0752 11.725 38.982 11.6563 38.924 11.5495C38.5965 10.9594 38.1126 10.5499 37.5129 10.2599C37.2232 10.12 37.1904 9.91149 37.392 9.65714C37.5356 9.47656 37.7019 9.31887 37.8556 9.14846C37.9665 9.02383 38.0471 8.8814 38.0597 8.70844" fill="white"/>
<path d="M39.0852 59.5112C39.0852 59.7096 38.9038 59.8215 38.7602 59.6994C38.5208 59.4934 38.2587 59.4985 37.9765 59.5264C37.8278 59.5417 37.6741 59.5366 37.5935 59.3738C37.5128 59.2111 37.6136 59.0915 37.7069 58.9745C38.0496 58.5472 38.0521 58.1911 37.7069 57.7613C37.5935 57.6214 37.4574 57.5019 37.339 57.3645C37.1223 57.1153 37.1424 56.9703 37.4221 56.7897C37.5305 56.7185 37.6489 56.66 37.7623 56.5964C38.2108 56.337 38.5863 56.0038 38.8383 55.5434C38.9114 55.4086 38.9869 55.2764 39.1709 55.3171C39.3397 55.3552 39.3296 55.5002 39.3448 55.6324C39.4128 56.2149 39.6648 56.7134 40.0301 57.161C40.388 57.6011 40.3199 57.8376 39.7882 58.0436C39.0373 58.3361 38.9063 58.5701 39.055 59.384C39.0651 59.4323 39.0802 59.4807 39.0877 59.5112" fill="white"/>
<path d="M55.4512 54.3814C55.4613 54.3331 55.4688 54.2491 55.4965 54.1728C55.7132 53.5802 55.688 52.9774 55.5948 52.3695C55.5772 52.2526 55.5242 52.1203 55.6603 52.0313C55.7939 51.9448 55.8947 52.0414 55.9904 52.1101C56.512 52.4789 57.0815 52.6875 57.7266 52.6875C58.0289 52.6875 58.2053 52.9622 58.1071 53.2547C58.0617 53.3869 57.9987 53.5116 57.9458 53.6413C57.7115 54.2441 57.85 54.6434 58.4069 54.974C58.5153 55.0376 58.6639 55.0732 58.6337 55.2513C58.6035 55.4293 58.4523 55.4166 58.3288 55.4369C58.0491 55.4802 57.8526 55.6353 57.7165 55.8769C57.6585 55.9787 57.6081 56.088 57.462 56.0626C57.3032 56.0372 57.2982 55.9024 57.268 55.7854C57.2377 55.6582 57.2024 55.531 57.1672 55.4039C57.0639 55.0503 56.8346 54.8469 56.4667 54.8138C56.255 54.7934 56.0433 54.7909 55.8317 54.7756C55.5847 54.7578 55.4512 54.6281 55.4512 54.3814Z" fill="white"/>
<path d="M55.6304 14.8284C55.6656 14.6428 55.716 14.4444 55.7412 14.2409C55.7992 13.7475 55.6808 13.2769 55.5371 12.8115C55.4389 12.4961 55.5321 12.346 55.8597 12.3104C56.1116 12.2824 56.3636 12.2824 56.6156 12.2494C56.8626 12.2163 57.0238 12.0993 57.107 11.8679C57.1775 11.6669 57.2405 11.4635 57.3035 11.26C57.3388 11.143 57.3867 11.0362 57.5177 11.0184C57.6387 11.0031 57.7067 11.0896 57.7596 11.1888C57.9058 11.4558 58.1174 11.6262 58.4299 11.6669C58.5357 11.6797 58.6667 11.6924 58.6945 11.8424C58.7197 11.9823 58.6113 12.023 58.5282 12.0866C58.4374 12.1553 58.3442 12.2239 58.2585 12.3002C57.8831 12.636 57.8201 12.898 57.9839 13.3787C58.0393 13.5414 58.125 13.6941 58.1426 13.8696C58.1729 14.157 58.0872 14.2867 57.8024 14.3375C57.427 14.4062 57.0465 14.4495 56.6937 14.6199C56.4417 14.7394 56.2049 14.8844 55.9756 15.0395C55.8899 15.098 55.8017 15.1336 55.7034 15.0726C55.6178 15.0192 55.6379 14.9327 55.6329 14.8335" fill="white"/>
<path d="M47.8391 59.4707C47.8567 59.3563 47.8693 59.2418 47.892 59.1273C47.9827 58.6492 47.8239 58.3313 47.383 58.1329C47.2041 58.0515 47.0176 57.9904 46.8437 57.9014C46.6195 57.7844 46.5867 57.6598 46.7127 57.4385C46.7807 57.3164 46.8589 57.1994 46.9445 57.0901C47.2897 56.6475 47.514 56.1515 47.582 55.5894C47.5997 55.4572 47.6375 55.3427 47.7836 55.3173C47.9247 55.2918 47.9877 55.3987 48.0457 55.5004C48.3556 56.0625 48.8117 56.4517 49.3862 56.7187C49.7793 56.9018 49.8197 57.1511 49.5299 57.4741C49.3938 57.6267 49.2477 57.7717 49.1116 57.9268C48.9251 58.1405 48.8848 58.3796 49.0183 58.6365C49.1166 58.8272 49.2275 59.0103 49.3232 59.2011C49.4266 59.4097 49.3333 59.5775 49.1166 59.5241C48.7638 59.4402 48.464 59.5317 48.1566 59.6869C47.9323 59.8014 47.834 59.7174 47.8441 59.4707" fill="white"/>
<path d="M46.6871 9.46181C46.6871 9.3092 46.7803 9.21764 46.9013 9.1566C47.0903 9.0574 47.2792 8.96075 47.4733 8.87936C47.821 8.73439 47.9898 8.49276 47.9319 8.10616C47.9092 7.95101 47.8916 7.79586 47.8815 7.63816C47.8638 7.32024 47.9722 7.24648 48.2569 7.37619C48.3754 7.4296 48.4938 7.4881 48.6173 7.52625C48.7911 7.57967 48.9726 7.57204 49.1515 7.53388C49.2296 7.51608 49.3228 7.49319 49.3732 7.58475C49.4236 7.67632 49.4236 7.76788 49.3606 7.86453C49.2649 8.00696 49.1716 8.15448 49.091 8.30455C48.9247 8.62248 48.9549 8.92514 49.1918 9.19729C49.3052 9.32701 49.4287 9.44909 49.5471 9.57372C49.8772 9.92726 49.8646 10.0799 49.4438 10.3062C48.9978 10.5453 48.5921 10.8276 48.3023 11.2549C48.2343 11.3567 48.1713 11.4635 48.1007 11.5652C48.0377 11.6593 47.9571 11.7229 47.8336 11.7051C47.7001 11.6873 47.6648 11.5805 47.6471 11.4737C47.5363 10.7971 47.2742 10.1969 46.7854 9.70852C46.7198 9.64239 46.6896 9.55592 46.6846 9.46181" fill="white"/>
<path d="M64.9609 29.1858C65.6766 28.7178 66.178 28.1354 66.5434 27.4257C66.6492 27.2223 66.8306 27.1892 67.0423 27.3342C67.2313 27.4639 67.4052 27.614 67.5765 27.7666C67.8436 27.998 68.1233 28.0311 68.4333 27.8607C68.5895 27.7742 68.7508 27.6903 68.9145 27.6216C69.1186 27.5351 69.2018 27.5962 69.2043 27.8251C69.2043 27.8505 69.2094 27.8759 69.2018 27.8988C69.0935 28.1913 69.2018 28.4329 69.3429 28.6873C69.5193 29.0103 69.4412 29.112 69.0708 29.1019C68.9725 29.0993 68.8742 29.0942 68.7785 29.0764C68.3047 28.9925 68.0099 29.1426 67.8209 29.5877C67.7605 29.7301 67.7151 29.8827 67.6521 30.0226C67.4883 30.3863 67.322 30.4423 67.0146 30.193C66.6417 29.8929 66.2612 29.6207 65.8 29.4758C65.538 29.3944 65.2784 29.2977 64.966 29.1883" fill="white"/>
<path d="M30.815 54.7272C30.0842 54.6916 29.7667 54.9612 29.6483 55.7116C29.6281 55.8362 29.613 55.9684 29.4618 55.9939C29.3157 56.0193 29.2376 55.9125 29.1847 55.798C29.099 55.6073 28.9377 55.5233 28.7538 55.4623C28.653 55.4292 28.5471 55.4038 28.4539 55.358C28.2851 55.2741 28.2624 55.1062 28.401 54.9791C28.4589 54.9231 28.5345 54.8824 28.6026 54.8442C29.0385 54.5924 29.1947 54.1779 29.0259 53.6946C28.9755 53.5471 28.8974 53.4097 28.8394 53.2673C28.6983 52.9214 28.8092 52.7256 29.1821 52.6874C29.6659 52.6391 30.1321 52.545 30.5605 52.3008C30.6814 52.2321 30.7973 52.1533 30.9107 52.0744C31.0191 51.9981 31.1325 51.9574 31.2534 52.0287C31.3819 52.105 31.3744 52.2296 31.3416 52.3568C31.2005 52.9392 31.2333 53.514 31.4046 54.0838C31.4147 54.1143 31.4248 54.1473 31.4323 54.1779C31.523 54.6204 31.4323 54.7298 30.9838 54.7298H30.8125" fill="white"/>
<path d="M22.5117 20.729C22.5016 20.5815 22.5016 20.4314 22.4814 20.2865C22.3983 19.7345 21.975 19.6099 21.5239 19.5311C21.4004 19.5082 21.2644 19.5133 21.2341 19.3607C21.2039 19.2106 21.3274 19.1419 21.4357 19.0834C21.6045 18.9893 21.6902 18.8342 21.7557 18.6638C21.7935 18.5646 21.8212 18.4577 21.8716 18.3662C21.9926 18.1424 22.1891 18.1347 22.3328 18.3433C22.3504 18.3713 22.3731 18.3967 22.3832 18.4272C22.5344 18.9766 23.0786 19.0097 23.5624 18.8876C23.7036 18.852 23.8371 18.7808 23.9757 18.7375C24.3058 18.6383 24.4469 18.7299 24.5099 19.0682C24.5553 19.3123 24.5931 19.554 24.6485 19.7956C24.7367 20.1669 24.9055 20.5052 25.1247 20.8155C25.1978 20.9198 25.3162 21.0241 25.218 21.1665C25.1323 21.2937 24.9987 21.253 24.8803 21.2225C24.2756 21.0749 23.6859 21.1309 23.0938 21.314C22.6049 21.4641 22.5016 21.3776 22.5016 20.8537V20.729C22.5016 20.729 22.5066 20.729 22.5092 20.729" fill="white"/>
<path d="M65.0068 37.8921C65.3117 37.7929 65.5965 37.7166 65.8686 37.6098C66.2743 37.4521 66.6422 37.2257 66.9673 36.9281C67.2495 36.6687 67.441 36.6992 67.6275 37.0349C67.7358 37.2282 67.8164 37.4368 67.9198 37.6327C68.1087 37.9964 68.2902 38.0854 68.6959 38.0421C68.8748 38.0218 69.0537 38.0142 69.2326 38.0065C69.4165 37.9989 69.4871 38.093 69.3838 38.2507C69.1746 38.5686 69.0889 38.8967 69.1872 39.2783C69.2376 39.4817 69.0764 39.5784 68.8798 39.4817C68.711 39.3978 68.5497 39.3011 68.3884 39.2045C68.0785 39.0163 67.8013 39.0621 67.5468 39.3113C67.383 39.4716 67.2218 39.6369 67.0403 39.7768C66.7833 39.9726 66.6825 39.9421 66.5263 39.6547C66.3398 39.3139 66.113 39.0036 65.8611 38.7085C65.6091 38.416 65.3218 38.1617 65.0068 37.887" fill="white"/>
<path d="M17.7821 38.9834C17.8022 38.7214 17.7644 38.4747 17.6032 38.2559C17.5427 38.1771 17.4948 38.0881 17.5729 37.9863C17.646 37.8871 17.7468 37.8948 17.84 37.9227C17.9887 37.966 18.1349 38.0067 18.2911 38.0219C18.664 38.0575 18.921 37.8897 19.0949 37.5743C19.1655 37.4446 19.2209 37.3072 19.2814 37.1724C19.5208 36.6307 19.6694 36.59 20.1255 36.9766C20.4556 37.2589 20.8159 37.4751 21.2342 37.5845C21.3753 37.6226 21.5215 37.6455 21.6626 37.6811C21.771 37.7065 21.902 37.7116 21.9247 37.8592C21.9473 38.0016 21.8466 38.0626 21.7432 38.1186C21.267 38.3907 20.9167 38.7824 20.6547 39.2631C20.5992 39.3649 20.5539 39.4717 20.4984 39.5709C20.3473 39.8354 20.1583 39.8863 19.9139 39.7031C19.745 39.576 19.5938 39.4234 19.4401 39.2733C19.1806 39.019 18.8984 38.9605 18.5733 39.141C18.4246 39.225 18.2659 39.2937 18.1097 39.3649C17.8274 39.4946 17.767 39.4488 17.777 39.1334C17.777 39.0851 17.7821 39.0342 17.7846 38.9859" fill="white"/>
<path d="M64.4743 46.4C64.4441 47.0943 64.7188 47.4148 65.4067 47.4987C65.4722 47.5064 65.5377 47.514 65.6007 47.5318C65.6889 47.5572 65.7343 47.6234 65.7469 47.7124C65.7595 47.7963 65.7217 47.8675 65.6486 47.893C65.3361 48.0074 65.2454 48.2796 65.1723 48.5644C65.1345 48.7043 65.0917 48.8417 64.9229 48.862C64.754 48.8824 64.681 48.7526 64.6079 48.6305C64.2652 48.0608 63.8469 47.9311 63.2522 48.2134C62.6601 48.4958 62.587 48.4601 62.4686 47.8167C62.3577 47.2215 62.2166 46.639 61.8084 46.166C61.7328 46.0795 61.6975 45.9777 61.7706 45.8735C61.8562 45.7463 61.9873 45.7565 62.1032 45.7997C62.5492 45.9625 63.0002 45.9523 63.4538 45.848C63.6201 45.8099 63.7814 45.7488 63.9477 45.7081C64.303 45.6166 64.4592 45.7361 64.4794 46.1024C64.4844 46.2016 64.4794 46.3008 64.4794 46.4" fill="white"/>
<path d="M62.8139 18.7324C63.018 18.7374 63.149 18.8112 63.2825 18.8697C63.9906 19.1775 64.2703 19.0935 64.6987 18.4399C64.7289 18.3915 64.7541 18.3381 64.7894 18.2923C64.9103 18.1372 65.0842 18.155 65.1145 18.3407C65.1749 18.7273 65.3614 19.0045 65.6865 19.2131C65.8528 19.3199 65.7898 19.5157 65.5882 19.5742C65.4546 19.6124 65.316 19.6302 65.185 19.6734C64.7138 19.8235 64.555 20.0295 64.5248 20.5306C64.5122 20.7188 64.5122 20.9095 64.4895 21.0978C64.4593 21.3597 64.3383 21.4411 64.0864 21.3903C63.7915 21.3318 63.4942 21.2758 63.2019 21.2046C62.8567 21.1206 62.5216 21.1588 62.1864 21.258C62.0579 21.2961 61.9294 21.3343 61.8311 21.2046C61.7329 21.0723 61.8286 20.9706 61.8966 20.8714C62.2595 20.3449 62.451 19.7574 62.5014 19.119C62.5241 18.8265 62.6349 18.7222 62.8164 18.7298" fill="white"/>
<path d="M18.8436 27.9576C19.1157 28.0033 19.3501 27.8685 19.5592 27.6625C19.6827 27.5404 19.7935 27.4082 19.9246 27.2963C20.1438 27.108 20.2874 27.1258 20.4512 27.3675C20.6024 27.5913 20.7334 27.8304 20.8771 28.0593C21.1013 28.4154 21.4339 28.657 21.7691 28.8935C21.8447 28.9469 21.9782 28.9902 21.9228 29.1377C21.8774 29.2547 21.7792 29.2776 21.6683 29.2954C21.0812 29.387 20.5646 29.6311 20.1161 30.0279C19.7179 30.3814 19.5164 30.3357 19.2745 29.855C19.2039 29.7151 19.1308 29.5777 19.0653 29.4353C18.9015 29.0919 18.6344 28.9571 18.264 29.008C18.0927 29.0309 17.9238 29.0487 17.7525 29.0589C17.5559 29.069 17.5081 28.9749 17.5786 28.7943C17.7827 28.2602 18.2363 27.9474 18.8436 27.9576Z" fill="white"/>
<path d="M28.9982 11.5574C29.3812 11.5879 29.734 11.6871 30.0061 11.9872C30.2404 12.2467 30.5378 12.323 30.8729 12.2645C31.0367 12.2365 31.198 12.211 31.3492 12.3026C31.5079 12.4018 31.6087 12.5442 31.5306 12.735C31.266 13.381 31.2433 14.0449 31.3492 14.724C31.3643 14.813 31.392 14.9122 31.3063 14.9758C31.2055 15.047 31.0972 15.0063 31.009 14.9452C30.4647 14.5688 29.8599 14.3755 29.2048 14.3145C28.8974 14.2865 28.7865 14.0525 28.8999 13.7269C28.9402 13.6099 28.9982 13.5006 29.0385 13.3861C29.2451 12.8138 29.099 12.3993 28.59 12.0737C28.4866 12.0076 28.3103 11.9847 28.3455 11.8117C28.3758 11.6591 28.5421 11.654 28.6605 11.6108C28.7663 11.5726 28.8797 11.5447 28.9982 11.5548" fill="white"/>
<path d="M21.7588 48.1648C21.7638 47.7859 21.8823 47.4552 22.1821 47.206C22.4467 46.9847 22.5122 46.6871 22.4946 46.3615C22.4921 46.303 22.4795 46.2471 22.4719 46.1886C22.419 45.746 22.5903 45.5756 23.0187 45.6748C23.432 45.7715 23.8427 45.8732 24.2736 45.8579C24.4878 45.8503 24.6944 45.8071 24.9035 45.7689C25.0043 45.7511 25.1001 45.7511 25.1631 45.8529C25.2261 45.9546 25.1908 46.0462 25.1278 46.1275C24.6994 46.6642 24.5155 47.2823 24.5155 47.9639C24.5155 48.1725 24.397 48.2742 24.1904 48.2895C23.9838 48.3047 23.8099 48.203 23.6285 48.1369C23.0288 47.9156 22.7642 47.9893 22.3736 48.4955C22.3635 48.5082 22.356 48.5235 22.3459 48.5362C22.2451 48.6456 22.1846 48.8643 22.0083 48.8109C21.8092 48.7524 21.7865 48.5286 21.7638 48.3378C21.7563 48.2818 21.7638 48.2233 21.7638 48.1648" fill="white"/>
<path d="M42.9482 55.3454C42.9659 55.3225 42.9835 55.3022 43.0012 55.2793C43.0289 55.3174 43.0188 55.348 42.981 55.3709C42.9709 55.3607 42.9608 55.3531 42.9482 55.3429" fill="white"/>
<path d="M44.5984 9.87116C44.5757 9.90931 44.548 9.92457 44.5077 9.89659C44.5253 9.87625 44.5455 9.85336 44.5631 9.83301C44.5757 9.84572 44.5858 9.85844 44.5984 9.87116Z" fill="white"/>
<path d="M44.0463 55.4672C44.0085 55.4596 44.0034 55.4316 44.0085 55.4011C44.0085 55.396 44.016 55.3884 44.0211 55.3833C44.0362 55.4062 44.0513 55.4265 44.0689 55.4494C44.0614 55.4545 44.0538 55.4621 44.0463 55.4672Z" fill="white"/>
<path d="M34.4762 13.2539C34.5064 13.2692 34.5367 13.2819 34.5367 13.3226C34.5316 13.3277 34.5241 13.3353 34.519 13.3404C34.4762 13.3455 34.4384 13.3378 34.4132 13.2971C34.4334 13.2819 34.4535 13.2666 34.4737 13.2539" fill="white"/>
<path d="M42.3806 57.2003C42.3754 57.1638 42.3987 57.1612 42.427 57.1638C42.4322 57.1638 42.4399 57.182 42.4399 57.182C42.4219 57.1951 42.4064 57.2237 42.3806 57.1951H42.3832" fill="white"/>
<path d="M67.0576 32.1948C67.0374 32.2126 67.0273 32.2635 66.9946 32.2355C66.9694 32.2151 66.982 32.1744 67.0198 32.1592C67.0324 32.1719 67.045 32.1821 67.0576 32.1948Z" fill="white"/>
<path d="M65.5711 34.376C65.5685 34.3551 65.5556 34.3213 65.5608 34.3187C65.5866 34.3031 65.6046 34.3187 65.6123 34.3473C65.5995 34.3577 65.584 34.3681 65.5711 34.3786" fill="white"/>
<path d="M21.4416 34.3798H21.4258L21.4284 34.3691L21.4416 34.3798Z" fill="white"/>
<path d="M44.7408 57.2969C44.7408 57.2969 44.715 57.2864 44.7021 57.2786C44.7125 57.2734 44.7228 57.2708 44.7305 57.2656C44.7305 57.276 44.7331 57.2891 44.7357 57.2995L44.7408 57.2969Z" fill="white"/>
<path d="M44.2118 11.4232C44.1963 11.4206 44.1834 11.418 44.168 11.4154L44.1912 11.3945C44.1912 11.3945 44.2066 11.418 44.2118 11.4284V11.4232Z" fill="white"/>
<path d="M52.3931 53.6855C52.3725 53.6803 52.3415 53.6724 52.3621 53.6464C52.3776 53.6256 52.4008 53.6438 52.4137 53.6646C52.406 53.6724 52.4008 53.6776 52.3931 53.6855Z" fill="white"/>
<path d="M51.3639 55.8568C51.3639 55.8568 51.3897 55.8411 51.4 55.8359C51.4 55.8437 51.4 55.8542 51.3974 55.8594C51.382 55.8776 51.3691 55.875 51.3613 55.8516L51.3639 55.8568Z" fill="white"/>
<path d="M34.5376 13.3223C34.5453 13.3353 34.5556 13.3509 34.5634 13.3639C34.5376 13.3769 34.5273 13.3639 34.5195 13.3405C34.5247 13.3353 34.5324 13.3275 34.5376 13.3223Z" fill="white"/>
<path d="M62.6526 33.5707C62.6198 44.1845 54.118 52.9136 43.4944 52.9186C32.7373 52.9237 24.1925 44.0421 24.3538 33.207C24.51 22.7281 32.8733 14.1363 43.5347 14.1592C54.0852 14.1821 62.6173 22.7357 62.6501 33.5707M25.1476 33.5071C25.0392 43.1697 32.6289 51.9928 43.2726 52.0844C54.1734 52.176 61.8261 43.4291 61.8614 33.5478C61.8966 23.3054 53.6367 14.9808 43.5095 14.968C33.0245 14.9553 25.0316 23.692 25.1501 33.5097" fill="white"/>
<path d="M43.4848 51.7666C33.5744 51.7666 25.3069 43.5768 25.4832 33.2377C25.6546 23.2878 33.5694 15.2683 43.6537 15.3014C53.5112 15.3319 61.6326 23.4633 61.5192 33.9855C61.4134 43.7548 53.287 51.759 43.4823 51.7666M61.0304 33.492C61.0077 23.8982 53.2895 15.9449 43.8301 15.805C33.7231 15.6524 26.0704 23.7685 25.9318 33.3216C25.7881 43.2461 33.8818 51.1867 43.2807 51.2579C52.9695 51.3317 60.9749 43.5183 61.0304 33.4895" fill="white"/>
<path d="M47.4536 41.7426C46.8085 41.7426 46.1609 41.7375 45.5159 41.7451C45.3672 41.7451 45.3042 41.707 45.3244 41.5518C45.3344 41.4781 45.3244 41.4043 45.3244 41.328C45.3294 41.1474 45.2714 40.9236 45.3571 40.799C45.4428 40.6743 45.6771 40.7735 45.846 40.7532C46.0828 40.7252 46.1786 40.5701 46.0904 40.3005C45.9694 39.9342 45.8258 39.5756 45.6922 39.2119C45.4806 38.6421 45.2614 38.075 45.0573 37.5027C45.0094 37.3679 44.9489 37.3475 44.8254 37.373C43.8276 37.5866 42.8297 37.5739 41.8344 37.3577C41.721 37.3323 41.6605 37.3323 41.6127 37.4594C41.2599 38.3878 40.892 39.3136 40.5392 40.242C40.4006 40.6082 40.5039 40.7506 40.8895 40.7532C41.1482 40.7549 41.2775 40.8846 41.2775 41.1423C41.2775 41.5408 41.0785 41.74 40.6803 41.74C39.6648 41.74 38.6519 41.735 37.6364 41.7451C37.4272 41.7451 37.3516 41.6841 37.3894 41.4832C37.3894 41.4755 37.3894 41.4654 37.3894 41.4577C37.392 41.2441 37.3214 40.9846 37.4146 40.8244C37.523 40.6387 37.8027 40.7812 38.0043 40.7456C38.4578 40.6616 38.7577 40.3818 38.9316 39.98C39.37 38.9601 39.7858 37.9325 40.2167 36.9101C40.2721 36.7803 40.2242 36.7396 40.131 36.6811C38.3948 35.5875 37.5431 33.9749 37.4121 31.9402C37.3264 30.6379 37.4902 29.3815 38.1277 28.2319C38.9719 26.7058 40.257 25.7622 41.9629 25.4239C43.4824 25.1238 44.9691 25.2331 46.3474 25.9758C48.1037 26.922 49.0613 28.4404 49.3082 30.4268C49.4669 31.7113 49.3535 32.9601 48.8345 34.1555C48.4061 35.1398 47.7383 35.9257 46.8564 36.526C46.7203 36.6176 46.6876 36.6888 46.7506 36.8388C47.1815 37.8613 47.6073 38.8863 48.0306 39.9113C48.2675 40.4836 48.6707 40.799 49.3006 40.7481C49.535 40.7303 49.6282 40.7939 49.5955 41.0406C49.5627 41.267 49.6937 41.5722 49.5425 41.7019C49.4115 41.8138 49.1217 41.7375 48.9 41.7375C48.4162 41.7375 47.9349 41.7375 47.4511 41.7375M46.0828 35.2009C46.4583 34.8346 46.7355 34.4277 46.9219 33.9673C47.5972 32.3166 47.6199 30.6354 46.9824 28.9822C46.4205 27.5273 45.3319 26.6702 43.7696 26.5201C41.9629 26.3446 40.4964 27.245 39.7908 28.9364C39.3171 30.0682 39.2465 31.2509 39.4129 32.4565C39.554 33.4942 39.9294 34.4251 40.6602 35.1907C40.8491 35.3891 40.8491 35.3865 40.9525 35.1373C41.5119 33.7969 42.0763 32.4565 42.6357 31.1136C42.7844 30.7575 42.9633 30.409 43.0162 30.0224C43.0666 29.6435 43.0515 29.6409 43.437 29.6409C43.4874 29.6409 43.5353 29.6485 43.5832 29.6409C43.7444 29.6104 43.8099 29.6969 43.8654 29.8368C44.3164 30.9406 44.7725 32.0419 45.2286 33.1407C45.5108 33.8198 45.793 34.4989 46.0853 35.2009M43.369 32.9626C42.9608 34.0055 42.5777 34.9898 42.1897 35.9715C42.1343 36.114 42.2225 36.1445 42.3207 36.1674C43.0162 36.3251 43.7117 36.3327 44.4071 36.1775C44.5256 36.1521 44.5457 36.1165 44.5004 35.997C44.1274 35.0076 43.7595 34.0156 43.369 32.9652" fill="white"/>
<path d="M84.845 76.2373H84.5225V86.9782C84.5225 88.0923 85.4195 88.9977 86.5232 88.9977H86.6341V78.0457C86.6341 77.0487 85.8302 76.2373 84.845 76.2373Z" fill="white"/>
<path d="M80.3797 78.0454V85.6503C80.3797 85.8181 80.3469 85.9809 80.2839 86.1361C80.1907 86.3548 80.0319 86.5506 79.8354 86.6854C79.6288 86.8253 79.3969 86.8965 79.145 86.8965C78.9761 86.8965 78.8149 86.8635 78.6637 86.7999C78.4444 86.7058 78.2529 86.5455 78.1194 86.3472C77.9808 86.1386 77.9077 85.9046 77.9077 85.6503V83.8317H73.3267V81.9038C73.3267 81.7359 73.3594 81.5731 73.425 81.4205C73.5157 81.2018 73.6744 81.0059 73.8735 80.8711C74.0826 80.7313 74.3145 80.66 74.5639 80.66C74.7756 80.66 74.9772 80.7134 75.1662 80.8177C75.3602 80.9246 75.5139 81.0721 75.6147 81.2476C75.6525 81.3112 75.6777 81.4027 75.6903 81.5146C75.7256 81.8097 75.8591 82.0818 76.0683 82.2802C76.2824 82.4837 76.5596 82.5956 76.8519 82.5956H77.9102V81.9063C77.9102 81.451 77.822 81.0085 77.6482 80.5914C77.3962 79.9886 76.9779 79.4748 76.4361 79.106C75.8843 78.727 75.2367 78.5286 74.5639 78.5286C74.1129 78.5286 73.6769 78.6177 73.2612 78.7957C72.664 79.05 72.155 79.4722 71.7896 80.0191C71.4141 80.5761 71.2151 81.2298 71.2176 81.9089V83.8368H68.733V78.5312H68.413C67.4253 78.5312 66.624 79.3425 66.624 80.337V85.6579C66.624 85.8283 66.5912 85.9911 66.5282 86.1437C66.4324 86.3675 66.2787 86.5583 66.0797 86.6931C65.873 86.833 65.6412 86.9042 65.3892 86.9042C65.2204 86.9042 65.0591 86.8711 64.908 86.8075C64.6887 86.7134 64.4972 86.5532 64.3637 86.3548C64.2251 86.1488 64.1545 85.9122 64.1545 85.6579V83.8393H60.9266V78.5337H60.6066C59.6188 78.5337 58.8175 79.3425 58.8175 80.3396V83.8393H54.428C54.5187 83.4883 54.5641 83.1323 54.5641 82.7736C54.5641 82.2014 54.4532 81.6469 54.234 81.1229C53.9165 80.365 53.3898 79.719 52.712 79.2586C52.0165 78.7855 51.2077 78.5337 50.3686 78.5337H50.3635C49.7966 78.5337 49.2447 78.6456 48.7282 78.8669C47.9798 79.1874 47.3398 79.7164 46.8811 80.4031C46.483 80.9958 46.2436 81.6825 46.1806 82.3997H46.163V86.5608C46.163 86.7516 46.1025 86.9271 45.9816 87.0822L45.7548 87.2755C45.6364 87.3315 45.0895 87.3823 44.8804 87.3823H44.7695V87.4942C44.7695 88.3438 45.4549 89.0356 46.2991 89.0356C47.3901 89.0356 48.2771 88.1403 48.2771 87.0364V86.4489C48.9121 86.8177 49.6303 87.0135 50.3635 87.0135C50.933 87.0135 51.4849 86.9016 52.0039 86.6803C52.4096 86.5074 52.7876 86.2683 53.1278 85.9682H62.0681C62.0983 86.3217 62.1815 86.66 62.3125 86.9728C62.567 87.5756 62.9853 88.0894 63.5246 88.4582C64.0789 88.8346 64.7265 89.0356 65.3968 89.0356C65.8478 89.0356 66.2863 88.9465 66.6995 88.771C67.2967 88.5142 67.8057 88.092 68.1711 87.5477C68.4836 87.0797 68.6751 86.5354 68.728 85.9682H75.8263C75.8566 86.3243 75.9397 86.6625 76.0708 86.9728C76.3253 87.5756 76.7436 88.0894 77.2828 88.4582C77.8372 88.8346 78.4848 89.0356 79.155 89.0356C79.6061 89.0356 80.0445 88.9465 80.4578 88.771C81.055 88.5142 81.564 88.092 81.9294 87.5477C82.3048 86.9881 82.5014 86.3344 82.5014 85.6579V76.2446H82.1788C81.1911 76.2446 80.3897 77.056 80.3897 78.053M52.46 82.7736C52.46 83.0585 52.4046 83.3332 52.2962 83.5952C52.14 83.9716 51.8754 84.2946 51.5378 84.5235C51.1926 84.7575 50.7869 84.8821 50.3711 84.8847C50.0889 84.8847 49.8142 84.8287 49.5572 84.7194C49.1843 84.5617 48.8642 84.2946 48.6349 83.9538C48.4031 83.6053 48.2796 83.1958 48.2796 82.7736C48.2796 82.4888 48.3351 82.2115 48.4434 81.9521C48.6022 81.5731 48.8642 81.2527 49.2019 81.0212C49.5471 80.7872 49.9528 80.6626 50.3711 80.66C50.6533 80.66 50.9255 80.716 51.185 80.8254C51.5579 80.9831 51.8754 81.2476 52.1047 81.5909C52.3391 81.9394 52.4625 82.3463 52.4625 82.7711" fill="white"/>
<path d="M4.9066 83.8242V81.97C4.9066 81.8073 4.87637 81.6521 4.81337 81.5046C4.72518 81.2935 4.57398 81.1078 4.38248 80.9756C4.18089 80.8407 3.95915 80.7721 3.71977 80.7721C3.51566 80.7721 3.32163 80.8229 3.14273 80.9221C3.09737 80.9476 3.04697 80.9781 3.00162 81.0112C2.95626 81.0442 2.83279 81.1867 2.79751 81.268C2.67908 81.5427 2.4523 81.7666 1.66107 81.7869H0.643063C0.643063 81.7869 0.564949 80.8179 1.03364 80.154C1.27302 79.8157 1.57288 79.5156 1.91809 79.2791C2.44977 78.9154 3.07217 78.7246 3.71725 78.7246C4.15065 78.7246 4.57147 78.8111 4.9696 78.9815C5.54412 79.2257 6.03296 79.6326 6.38322 80.1566C6.74355 80.6932 6.93506 81.3215 6.93254 81.9726V85.8742H0.501953V83.8267H4.90408L4.9066 83.8242Z" fill="white"/>
<path d="M63.9378 77.6127C64.5652 77.6127 65.0767 77.0964 65.0767 76.4631C65.0767 75.8298 64.5652 75.3135 63.9378 75.3135C63.3103 75.3135 62.7988 75.8298 62.7988 76.4631C62.7988 77.0964 63.3103 77.6127 63.9378 77.6127Z" fill="white"/>
<path d="M62.5872 79.7954C63.2146 79.7954 63.7262 79.279 63.7262 78.6457C63.7262 78.0124 63.2146 77.4961 62.5872 77.4961C61.9598 77.4961 61.4482 78.0124 61.4482 78.6457C61.4482 79.279 61.9598 79.7954 62.5872 79.7954Z" fill="white"/>
<path d="M64.1494 78.6482C64.1494 79.2815 64.6609 79.7978 65.2884 79.7978C65.9158 79.7978 66.4273 79.2815 66.4273 78.6482C66.4273 78.0149 65.9158 77.4985 65.2884 77.4985C64.6609 77.4985 64.1494 78.0149 64.1494 78.6482Z" fill="white"/>
<path d="M56.512 86.7285C55.8846 86.7285 55.373 87.2448 55.373 87.8781C55.373 88.5115 55.8846 89.0278 56.512 89.0278C57.1394 89.0278 57.651 88.5115 57.651 87.8781C57.651 87.2448 57.1394 86.7285 56.512 86.7285Z" fill="white"/>
<path d="M36.9007 75.375C36.2732 75.375 35.7617 75.8913 35.7617 76.5246C35.7617 77.1579 36.2732 77.6743 36.9007 77.6743C37.5281 77.6743 38.0396 77.1579 38.0396 76.5246C38.0396 75.8913 37.5281 75.375 36.9007 75.375Z" fill="white"/>
<path d="M59.2112 86.7285C58.5838 86.7285 58.0723 87.2448 58.0723 87.8781C58.0723 88.5115 58.5838 89.0278 59.2112 89.0278C59.8387 89.0278 60.3502 88.5115 60.3502 87.8781C60.3502 87.2448 59.8387 86.7285 59.2112 86.7285Z" fill="white"/>
<path d="M40.9626 80.1566C40.6123 79.6326 40.1235 79.2257 39.549 78.9815C39.1508 78.8111 38.73 78.7246 38.2966 78.7246C37.8632 78.7246 37.4424 78.8111 37.0443 78.9815C36.4697 79.2257 35.9809 79.6326 35.6306 80.1566C35.2703 80.6932 35.0788 81.3215 35.0813 81.9726V83.8445L15.6585 83.9056V78.7704H12.7406C10.8759 78.7704 9.35645 80.3015 9.35645 82.1862V82.405C9.35645 84.254 10.823 85.7572 12.6423 85.8106C12.7935 85.8488 12.9497 85.8767 13.1135 85.8767H13.6905V86.2125C13.6905 86.6957 13.3025 87.0849 12.8262 87.0849H10.891C10.7449 87.0849 10.629 87.2044 10.629 87.3494V88.1887C10.629 88.6771 11.0195 89.0713 11.5033 89.0713H12.8288C14.3936 89.0713 15.661 87.792 15.661 86.2125V85.8767L40.6476 85.8818V85.8767H41.5119V81.9751C41.5119 81.324 41.3229 80.6958 40.9626 80.1591M13.6905 83.8318H12.7406C11.9594 83.8318 11.3244 83.1909 11.3244 82.4024V82.1837C11.3244 81.3952 11.9594 80.7543 12.7406 80.7543H13.6905V83.8293V83.8318ZM39.4834 83.8242H38.9039L37.1098 83.8267V81.9726C37.1098 81.8098 37.14 81.6546 37.203 81.5071C37.2912 81.296 37.4424 81.1078 37.6339 80.9781C37.7095 80.9272 37.7901 80.8967 37.8733 80.8636C37.9086 80.8509 37.9413 80.8331 37.9766 80.8229C38.0799 80.7924 38.1857 80.7746 38.2991 80.7746C38.4125 80.7746 38.5184 80.7924 38.6217 80.8229C38.6569 80.8331 38.6897 80.8509 38.725 80.8636C38.8056 80.8967 38.8888 80.9272 38.9644 80.9781C39.1559 81.1104 39.3071 81.296 39.3953 81.5071C39.4582 81.6546 39.4885 81.8098 39.4885 81.9726V83.8242H39.4834Z" fill="white"/>
<path d="M56.0308 99.4356C56.0308 100.138 56.0258 100.84 56.0333 101.542C56.0333 101.697 56.0081 101.773 55.8343 101.755C55.6176 101.732 55.3958 101.773 55.1766 101.717C54.6298 101.58 54.3577 101.275 54.3451 100.705C54.3274 99.7637 54.3375 98.8201 54.3299 97.8791C54.3274 97.551 54.2896 97.2229 54.151 96.9202C53.9369 96.4573 53.5034 96.2258 52.9566 96.2843C52.4754 96.3352 52.1301 96.6582 52.0167 97.1542C51.9588 97.3983 51.9512 97.6451 51.9512 97.8943C51.9512 99.0948 51.9462 100.295 51.9563 101.493C51.9563 101.707 51.9008 101.778 51.6917 101.755C51.5254 101.737 51.354 101.763 51.1928 101.732C50.6258 101.626 50.2806 101.221 50.273 100.631C50.2604 99.6976 50.268 98.7642 50.268 97.8307C50.268 97.5433 50.2201 97.2661 50.1118 96.999C49.9077 96.4929 49.4944 96.2385 48.9451 96.2741C48.4613 96.3047 48.0757 96.6429 47.9472 97.1542C47.8868 97.3882 47.8767 97.6273 47.8767 97.8689C47.8767 99.0694 47.8691 100.27 47.8842 101.468C47.8868 101.715 47.8112 101.776 47.5894 101.753C47.3979 101.732 47.2064 101.76 47.0149 101.697C46.5311 101.537 46.2111 101.142 46.206 100.631C46.1985 99.5832 46.1531 98.5302 46.2186 97.4848C46.327 95.7731 47.3122 94.8575 48.9703 94.7557C49.8547 94.7023 50.5956 94.9923 51.165 95.6841C51.2658 95.8062 51.3036 95.7553 51.3717 95.6637C52.4728 94.1707 55.0506 94.6158 55.7461 96.2258C55.9426 96.6811 56.0308 97.1542 56.0283 97.6501C56.0258 98.2453 56.0283 98.8405 56.0283 99.4356" fill="white"/>
<path d="M14.3199 97.4897C14.3149 96.6173 14.4711 95.7754 14.8743 94.9997C15.4841 93.8246 16.4542 93.1582 17.7544 92.9649C19.6418 92.6826 21.3225 93.5881 22.0104 95.3786C22.6479 97.0344 22.5219 98.6851 21.5669 100.196C20.7102 101.552 19.3898 102.02 17.8527 101.882C15.8998 101.709 14.6298 100.13 14.3804 98.3926C14.3375 98.0925 14.3199 97.7924 14.3174 97.4922M20.5766 97.5049C20.5766 97.0878 20.5439 96.6732 20.4506 96.2637C20.2037 95.1675 19.4377 94.4986 18.3642 94.4554C17.384 94.4172 16.5676 95.0327 16.2677 96.0628C15.9779 97.0548 16.0283 98.0492 16.3534 99.0208C16.6003 99.761 17.1245 100.204 17.893 100.351C19.163 100.595 20.1634 99.9365 20.4607 98.6648C20.5514 98.2807 20.5741 97.8941 20.5766 97.5024" fill="white"/>
<path d="M6.91153 101.753C6.6923 101.753 6.47308 101.766 6.25889 101.689C5.86076 101.544 5.61634 101.275 5.55586 100.842C5.50546 100.481 5.44247 100.125 5.38451 99.7639C5.35932 99.6062 5.2938 99.5324 5.10733 99.5324C4.112 99.5426 3.11667 99.5426 2.12386 99.5324C1.9374 99.5324 1.88448 99.6113 1.85424 99.7741C1.74085 100.364 1.60982 100.952 1.50399 101.544C1.47375 101.72 1.40572 101.763 1.24697 101.753C1.08066 101.74 0.911829 101.753 0.74552 101.75C0.274314 101.745 0.0198122 101.486 0.00217345 101.005C-0.0179851 100.491 0.105485 99.9979 0.231476 99.5121C0.680005 97.7673 1.25452 96.0683 2.05079 94.4506C2.25741 94.0284 2.4968 93.6266 2.76894 93.2425C2.85713 93.1179 2.96044 93.0568 3.12171 93.067C3.44425 93.0874 3.77435 93.039 4.09184 93.1281C4.6462 93.2857 4.9637 93.6901 5.19805 94.1912C6.00691 95.9385 6.58647 97.7673 7.04256 99.6367C7.18619 100.222 7.29706 100.814 7.39029 101.409C7.44321 101.75 7.44825 101.748 7.12067 101.748H6.90901M3.61812 94.677C3.0436 95.7503 2.63791 96.8364 2.33805 97.9682C2.28765 98.1615 2.40608 98.1412 2.522 98.1412C3.25022 98.1412 3.98097 98.1335 4.7092 98.1463C4.92842 98.1488 4.9259 98.0699 4.87803 97.897C4.56809 96.7957 4.16744 95.7325 3.6156 94.6795" fill="white"/>
<path d="M85.0465 95.7298C85.0465 94.7404 85.0516 93.7993 85.0415 92.8583C85.0415 92.6726 85.0843 92.6014 85.2733 92.6243C85.4119 92.6421 85.5555 92.6243 85.6966 92.6319C86.3543 92.6751 86.7323 93.0668 86.7348 93.7307C86.7398 95.4195 86.7524 97.1083 86.7298 98.7972C86.7172 99.6848 86.5131 100.529 85.8176 101.155C85.0516 101.842 84.1167 101.974 83.1491 101.88C81.4583 101.715 80.3748 100.148 80.337 98.6268C80.3118 97.6882 80.4478 96.7904 80.9568 95.9765C81.6725 94.8345 83.2751 94.5013 84.1343 94.9286C84.4569 95.0888 84.6585 95.2516 85.0516 95.7247M85.0415 98.5047C85.0314 98.0698 84.9835 97.6399 84.8374 97.2253C84.6081 96.5793 84.0814 96.1927 83.4237 96.1902C82.8391 96.1902 82.3856 96.5437 82.1487 97.1948C82.0252 97.5407 81.9648 97.8993 81.9925 98.2656C82.0429 98.96 82.1941 99.6162 82.7459 100.105C83.5271 100.791 84.6635 100.468 84.923 99.4788C85.0062 99.1609 85.0516 98.8353 85.0415 98.5047Z" fill="white"/>
<path d="M30.1449 95.6283C30.4624 95.2392 30.7799 94.9518 31.2033 94.822C32.448 94.4405 33.9045 95.2977 34.2472 96.6075C34.3354 96.9458 34.3757 97.2866 34.3757 97.6351C34.3757 98.9246 34.3707 100.212 34.3808 101.501C34.3808 101.72 34.3152 101.776 34.1162 101.758C33.9247 101.74 33.7256 101.771 33.5366 101.735C32.9873 101.631 32.6899 101.239 32.6849 100.624C32.6773 99.7182 32.6849 98.8101 32.6824 97.9047C32.6824 97.719 32.6799 97.5359 32.6345 97.3502C32.4606 96.6304 32.0247 96.2642 31.3368 96.2794C30.7522 96.2947 30.3138 96.7169 30.1777 97.3909C30.1399 97.5766 30.1374 97.7623 30.1374 97.9479C30.1374 99.1383 30.1323 100.329 30.1399 101.519C30.1399 101.699 30.1071 101.776 29.9131 101.758C29.6536 101.733 29.389 101.783 29.1269 101.702C28.7086 101.57 28.4919 101.28 28.434 100.855C28.4163 100.723 28.4138 100.591 28.4138 100.456C28.4138 97.9327 28.4138 95.407 28.4062 92.8839C28.4062 92.6728 28.4592 92.6042 28.6683 92.6245C28.8951 92.6449 29.1244 92.622 29.3512 92.6754C29.8274 92.7873 30.1348 93.1459 30.1399 93.6393C30.1474 94.2777 30.1399 94.9187 30.1399 95.6308" fill="white"/>
<path d="M76.0833 94.7535C77.8749 94.7484 79.1046 95.7455 79.4372 97.2817C79.6463 98.2558 79.5682 99.202 79.1474 100.11C78.5074 101.494 77.1794 102.02 75.8187 101.885C74.0271 101.707 73.0545 100.204 72.9915 98.645C72.9587 97.8692 73.0797 97.1215 73.445 96.4322C74.0548 95.2775 75.0552 94.779 76.0858 94.751M77.7917 98.383C77.7968 98.0702 77.7539 97.7293 77.6557 97.3936C77.4515 96.6891 76.9677 96.305 76.2597 96.2847C75.5743 96.2643 75.093 96.6001 74.8713 97.3122C74.6445 98.0447 74.6772 98.7874 74.9594 99.4996C75.2039 100.11 75.6952 100.375 76.3353 100.375C76.9451 100.375 77.3634 100.079 77.6103 99.4843C77.7514 99.1435 77.7917 98.7849 77.7892 98.383" fill="white"/>
<path d="M65.6416 98.4109C65.6844 97.274 65.9641 96.2311 66.8738 95.4707C68.358 94.2345 71.2709 94.4406 72.0419 97.073C72.3292 98.0472 72.2637 99.0238 71.8731 99.9649C71.2583 101.453 69.9051 102.025 68.4814 101.89C66.7982 101.728 65.8633 100.379 65.6945 99.0772C65.6668 98.856 65.6441 98.6372 65.6416 98.4134M70.4545 98.4643C70.4444 98.0675 70.4116 97.7063 70.3033 97.3579C70.0941 96.6813 69.5977 96.3049 68.8972 96.2947C68.2194 96.2846 67.7557 96.6228 67.5365 97.3172C67.3097 98.0344 67.345 98.7542 67.5995 99.4562C67.8061 100.026 68.2295 100.331 68.8342 100.377C69.4087 100.42 69.8724 100.235 70.1697 99.7157C70.3965 99.3214 70.4469 98.8814 70.4545 98.4668" fill="white"/>
<path d="M35.8221 97.0043C35.6558 96.1039 35.9733 95.4197 36.7646 95.0738C37.6818 94.672 38.6267 94.6643 39.5616 95.0153C40.3301 95.3053 40.766 95.903 40.9752 96.6838C41.0432 96.9407 41.0861 97.2027 41.0961 97.4698C41.1264 98.215 41.1541 98.9627 41.0886 99.7054C40.9853 100.878 40.0983 101.758 38.9316 101.842C38.2563 101.89 37.581 101.895 36.9258 101.644C35.7415 101.191 35.167 99.9598 35.6584 98.8737C35.9582 98.2073 36.5403 97.9123 37.198 97.7368C37.8481 97.5613 38.5184 97.5257 39.1861 97.5486C39.4204 97.5562 39.4583 97.4748 39.4431 97.2637C39.4079 96.7194 39.1382 96.371 38.6191 96.2743C37.8355 96.1294 37.0821 96.2235 36.3639 96.5872C36.1598 96.6889 36.0061 96.8593 35.8196 96.9992M39.4406 99.273H39.4532C39.4532 99.1484 39.4532 99.0238 39.4532 98.8992C39.4532 98.8178 39.4331 98.7644 39.3348 98.7644C38.7905 98.7644 38.2412 98.7415 37.7171 98.9246C37.4122 99.0314 37.2358 99.2476 37.2206 99.5757C37.2055 99.9064 37.3416 100.166 37.6389 100.313C38.0094 100.499 38.3999 100.514 38.7955 100.415C39.1735 100.321 39.4003 100.062 39.4406 99.6698C39.4532 99.5376 39.4406 99.4028 39.4406 99.2705" fill="white"/>
<path d="M60.0049 97.5075V94.5215C60.0049 94.4579 60.0049 94.3969 60.0049 94.3359C60.025 93.4711 60.3425 93.1048 61.1993 93.0845C62.5096 93.0565 63.8224 93.0769 65.1352 93.0718C65.2587 93.0718 65.3116 93.1099 65.3041 93.2371C65.2915 93.4482 65.3318 93.6669 65.2713 93.873C65.1478 94.2926 64.79 94.5266 64.2659 94.5292C63.4822 94.5342 62.6986 94.5368 61.9149 94.5266C61.7335 94.5266 61.6755 94.5699 61.6806 94.7606C61.6932 95.3202 61.6957 95.8797 61.6806 96.4393C61.6755 96.6478 61.741 96.6835 61.9325 96.6835C62.8044 96.6733 63.6763 96.6835 64.5481 96.6733C64.7472 96.6707 64.8127 96.7241 64.7951 96.9251C64.7774 97.126 64.8026 97.3346 64.722 97.5279C64.5708 97.8865 64.2911 98.0544 63.9156 98.0569C63.2655 98.062 62.6129 98.0645 61.9603 98.0544C61.7839 98.0544 61.741 98.1052 61.7436 98.2782C61.7511 99.3541 61.7436 100.43 61.7536 101.506C61.7536 101.704 61.7058 101.775 61.5067 101.755C61.3505 101.737 61.1892 101.755 61.0304 101.755C60.3703 101.755 60.02 101.409 60.015 100.735C60.0099 99.6593 60.015 98.5834 60.015 97.5075" fill="white"/>
<path d="M23.5402 97.0906C23.573 96.4115 23.4772 95.5747 23.5856 94.743C23.6637 94.1428 24.0341 93.7358 24.528 93.4382C24.717 93.3238 24.9413 93.3772 25.1504 93.3772C25.2638 93.3772 25.2285 93.4764 25.2285 93.5374C25.231 93.9113 25.2436 94.2852 25.226 94.6565C25.2134 94.8778 25.2966 94.9185 25.4931 94.916C26.1079 94.9033 26.7253 94.916 27.3401 94.9083C27.5115 94.9058 27.572 94.9389 27.5871 95.1347C27.6677 96.2055 27.131 96.4649 26.3347 96.4166C26.0273 96.3988 25.7174 96.4166 25.4099 96.4115C25.2814 96.409 25.2235 96.4369 25.226 96.5845C25.2336 97.4721 25.2159 98.3623 25.2361 99.25C25.2537 99.9774 25.6216 100.313 26.3347 100.313C26.7077 100.313 27.073 100.283 27.4157 100.12C27.5568 100.054 27.5846 100.12 27.582 100.244C27.577 100.412 27.5896 100.583 27.577 100.751C27.5493 101.163 27.3653 101.47 26.9874 101.659C26.307 101.997 24.7195 101.888 24.0694 101.046C23.6687 100.527 23.5579 99.9265 23.5453 99.2983C23.5302 98.6141 23.5428 97.9299 23.5428 97.0932" fill="white"/>
<path d="M8.215 96.3227C8.215 95.168 8.22004 94.0107 8.20996 92.856C8.20996 92.6678 8.25784 92.6042 8.44431 92.622C8.64589 92.6424 8.84748 92.6169 9.04906 92.6602C9.58578 92.7746 9.89572 93.1231 9.90328 93.6826C9.91588 94.5448 9.91084 95.4071 9.91084 96.2693C9.91084 97.335 9.91084 98.4032 9.91084 99.4689C9.91084 100.105 10.1679 100.374 10.7978 100.41C10.8331 100.41 10.8684 100.41 10.9037 100.415C11.1027 100.448 11.3547 100.308 11.4908 100.491C11.6369 100.687 11.4227 101.399 11.2186 101.577C11.0826 101.7 10.9163 101.766 10.7424 101.789C10.2384 101.855 9.7395 101.824 9.26829 101.613C8.67865 101.349 8.37123 100.868 8.2654 100.242C8.22256 99.9878 8.20996 99.7309 8.21248 99.474C8.21752 98.4261 8.21248 97.3757 8.21248 96.3278" fill="white"/>
<path d="M44.1393 97.9782C44.1393 98.5302 44.1318 99.0796 44.1393 99.6315C44.1494 100.12 44.356 100.341 44.8323 100.405C44.8575 100.407 44.8902 100.4 44.9104 100.41C45.0868 100.496 45.4043 100.232 45.4572 100.555C45.5605 101.193 45.3413 101.628 44.9305 101.753C43.6958 102.129 42.4863 101.305 42.4536 100.003C42.4107 98.4132 42.4359 96.821 42.4284 95.2313C42.4284 95.1118 42.4536 95.0406 42.5871 95.0584C42.6047 95.0609 42.6224 95.0584 42.64 95.0584C43.7664 95.0355 44.1292 95.3941 44.1292 96.5361V97.9757H44.1393" fill="white"/>
<path d="M44.2555 93.4407C44.253 93.9901 43.8045 94.4403 43.2652 94.4377C42.7235 94.4352 42.2875 93.985 42.29 93.4305C42.29 92.8608 42.7109 92.4437 43.2753 92.4488C43.8372 92.4513 44.258 92.8786 44.2555 93.4433" fill="white"/>
</svg>
