<svg width="87px" height="93px" viewBox="0 0 87 93" fill="none" xmlns="http://www.w3.org/2000/svg" transform="rotate(0) scale(1, 1)">
<rect width="87" height="93" fill="#394d37"/>
<g clip-path="url(#clip0_3723_6823)">
<path d="M20.1911 76.3929C20.5105 77.0896 20.7737 77.8101 20.9783 78.5479H19.3829C19.5882 77.8076 19.8587 77.0865 20.1911 76.3929ZM19.2961 74.4537L19.2813 74.4704C18.1302 75.727 16.6914 79.9594 16.6914 80.9751C16.6914 81.5384 17.03 81.8483 17.6415 81.8483H18.6232V81.8065C18.7269 81.1908 18.8348 80.5918 18.9681 80.0515H21.3549C21.4419 80.3646 21.5125 80.682 21.5665 81.0023C21.6088 81.3185 21.8352 81.84 22.8699 81.84H23.9046V81.7834C23.6824 80.2211 22.6075 76.5688 21.7527 75.1867C21.4586 74.7155 20.9063 74.4453 20.2165 74.4453L19.2961 74.4537Z" fill="#ffffff"/>
<path d="M24.4453 74.1328V80.0092C24.4453 81.2301 25.2176 81.9316 26.5612 81.9316C27.1833 81.9316 27.6192 81.7222 27.7863 81.362C27.8309 81.2557 27.8546 81.142 27.8562 81.0269V80.3861H27.361C26.7876 80.3861 26.5845 80.2353 26.5845 79.8123V75.3035C26.5845 74.5056 26.1338 74.1328 25.1668 74.1328H24.4453Z" fill="#ffffff"/>
<path d="M32.8622 78.0428C32.8622 76.69 33.3467 75.8837 34.1571 75.8837C34.9675 75.8837 35.5515 76.2837 35.5515 78.2439C35.5515 79.6449 35.105 80.4156 34.2947 80.4156C33.3446 80.4156 32.8622 79.6177 32.8622 78.0428ZM30.6045 78.2648C30.6045 80.3926 32.1153 81.9967 34.119 81.9967C36.4635 81.9967 37.8071 80.5559 37.8071 78.0428C37.8071 75.8774 36.3471 74.3047 34.3349 74.3047C32.0687 74.3047 30.6045 75.8586 30.6045 78.2648Z" fill="#ffffff"/>
<path d="M40.6102 74.5156C40.222 74.5171 39.844 74.6387 39.529 74.8633C39.0444 75.1983 38.8096 75.5774 38.8096 76.0235V79.7763C38.8096 81.2129 39.5946 81.9417 41.1371 81.9417C42.0617 81.9417 42.6584 81.548 42.6584 80.9407V80.1511H42.5315C42.2623 80.2936 41.9578 80.3575 41.6534 80.3354C41.3487 80.3354 40.9826 80.2265 40.9826 79.7176V77.4978H41.6682C42.2543 77.4978 42.7261 77.1104 42.7261 76.635V75.9313H40.9911V74.5156H40.6102Z" fill="#ffffff"/>
<path d="M43.3496 74.1328V80.6898C43.3496 81.4521 43.8024 81.8395 44.6932 81.8395H45.5692V78.5181C45.5692 77.6804 45.7977 77.3726 46.4156 77.3726C46.8895 77.3726 47.2027 77.582 47.2027 78.5704V80.7086C47.2027 81.473 47.6259 81.8458 48.4976 81.8458H49.4223V78.3191C49.4223 76.7778 48.5061 75.7831 47.0948 75.7831C46.46 75.7831 45.8591 75.9925 45.5311 76.3338V75.2721C45.5311 74.5496 45.0021 74.1328 44.0754 74.1328H43.3496Z" fill="#ffffff"/>
<path d="M52.4029 79.9786C52.4029 79.7043 52.515 79.3922 53.3825 79.3922H53.6618V79.8111C53.6618 80.4393 53.3275 80.5147 53.0778 80.5147C52.606 80.5147 52.4029 80.3514 52.4029 79.9723M50.4985 77.2499V77.943H50.634L50.6488 77.9284C50.945 77.6415 51.4274 77.3106 52.5404 77.3106C53.3466 77.3106 53.6343 77.4823 53.6343 77.9682V78.1085H53.4227C51.3534 78.1085 50.3018 78.7619 50.3018 80.0519C50.3018 81.2079 51.3724 81.9828 52.9657 81.9828C54.9377 81.9828 55.7418 81.2645 55.7418 79.5011V78.2216C55.7418 76.6886 54.7092 75.7734 52.9784 75.7734C51.2476 75.7734 50.4922 76.5399 50.4922 77.2499" fill="#ffffff"/>
<path d="M56.6074 74.5212C56.6074 75.0657 57.1491 75.5097 57.8135 75.5097C58.4779 75.5097 58.9899 75.0657 58.9899 74.5212C58.9899 73.9768 58.461 73.5391 57.8135 73.5391C57.166 73.5391 56.6074 73.9788 56.6074 74.5212Z" fill="#ffffff"/>
<path d="M56.7402 76.0469V80.074C56.7402 81.295 57.4512 81.9421 58.7969 81.9421C59.5883 81.9421 60.0263 81.6279 60.0263 81.0562V80.428H59.6475C59.0847 80.428 58.8964 80.2835 58.8964 79.8542V77.2196C58.8964 76.4301 58.4287 76.0469 57.466 76.0469H56.7402Z" fill="#ffffff"/>
<path d="M65.3723 76.6016C65.1099 76.2142 64.4815 75.7891 63.5018 75.7891C61.6737 75.7891 60.584 76.7943 60.584 78.4822V80.7251C60.584 81.4204 61.1362 81.8518 62.027 81.8518H62.8142V78.5011C62.8142 77.6173 62.9602 77.3744 63.487 77.3744C64.1218 77.3744 64.2509 77.7639 64.2509 78.4361V80.7209C64.2509 81.4895 64.7143 81.8476 65.7087 81.8476H66.3922V78.4738C66.3922 77.5629 66.644 77.3786 67.0523 77.3786C67.5792 77.3786 67.8141 77.544 67.8141 78.5157V80.7251C67.8141 81.4832 68.2965 81.8518 69.2952 81.8518H70.0675V78.3649C70.0675 76.6309 69.1471 75.7891 67.2512 75.7891C66.8998 75.7899 66.5523 75.8626 66.2304 76.0024C65.9086 76.1422 65.6193 76.3462 65.3808 76.6016" fill="#ffffff"/>
<path d="M24.2333 15.0391C23.8461 15.0391 22.9744 15.0391 21.6202 15.0579C20.266 15.0768 19.2927 15.0705 18.6896 15.0579C18.0866 15.0453 17.6571 15.0391 17.4624 15.0391H16.7324L16.7451 15.772C16.7917 18.8442 16.8171 24.1279 16.8171 31.9205L16.743 49.5119L17.4857 49.4951C19.5593 49.4469 21.7387 49.4469 23.9731 49.4951L24.7137 49.5098V47.1454L21.1928 47.1831C21.1272 41.6272 21.0933 36.4838 21.0933 31.8954C21.0933 27.8933 21.1272 22.9908 21.1949 17.3176L24.9697 17.3532V15.0495L24.2333 15.0391Z" fill="#ffffff"/>
<path d="M69.8375 15.0375C69.645 15.0375 69.2345 15.0375 68.6103 15.0564C67.9861 15.0752 67.0255 15.0689 65.6819 15.0564C64.3382 15.0438 63.4538 15.0375 63.0666 15.0375H62.3408V17.3412L66.1156 17.3056C66.1812 23.0123 66.2151 27.9148 66.2151 31.8834C66.2151 36.4906 66.1812 41.6256 66.1156 47.1711L62.5947 47.1334V49.4894L63.3353 49.4747C65.5824 49.4266 67.7639 49.4266 69.8206 49.4747L70.5675 49.4915L70.4913 31.9127C70.4913 24.0782 70.5167 18.7945 70.5654 15.76V15.0312L69.8375 15.0375Z" fill="#ffffff"/>
<path d="M67.6416 55.25V66.9106C67.6416 67.5454 67.8964 68.1542 68.35 68.6031C68.8035 69.052 69.4187 69.3042 70.0601 69.3042V57.3798C70.0604 57.1002 70.005 56.8233 69.8971 56.5649C69.7891 56.3065 69.6308 56.0717 69.4312 55.8739C69.2315 55.6761 68.9945 55.5192 68.7335 55.4122C68.4725 55.3051 68.1928 55.25 67.9103 55.25H67.6416Z" fill="#ffffff"/>
<path d="M22.6497 64.1923C22.1386 63.9791 21.7026 63.6213 21.3962 63.1638C21.0898 62.7063 20.9267 62.1695 20.9273 61.6206C20.9279 60.8804 21.2252 60.1707 21.754 59.6473C22.2829 59.1238 23 58.8296 23.7478 58.829C24.2082 58.8302 24.6612 58.9433 25.0671 59.1583C25.4729 59.3734 25.8192 59.6839 26.0753 60.0625C26.3398 60.446 26.5033 60.8888 26.551 61.3507C26.5986 61.8126 26.529 62.279 26.3483 62.7075C26.1341 63.2066 25.7784 63.6335 25.3242 63.9368C24.9352 64.1956 24.4872 64.3545 24.0206 64.3991C23.5541 64.4437 23.0836 64.3727 22.6518 64.1923M64.4813 55.25C64.199 55.2503 63.9195 55.3056 63.6588 55.4128C63.3981 55.5199 63.1613 55.6769 62.9618 55.8747C62.7624 56.0724 62.6043 56.3072 62.4965 56.5654C62.3887 56.8237 62.3334 57.1004 62.3337 57.3798V65.2415C62.3345 65.5213 62.2655 65.797 62.1325 66.0441C61.9996 66.2911 61.8071 66.5017 61.5719 66.6572C61.2883 66.8486 60.9525 66.9501 60.6092 66.9483C60.3266 66.9497 60.048 66.8818 59.7984 66.7506C59.5488 66.6194 59.3359 66.429 59.1788 66.1964C58.986 65.9146 58.8835 65.5818 58.8847 65.2415V63.1012H53.0088V60.5358C53.0083 60.3077 53.0544 60.0819 53.1443 59.8719C53.2786 59.5663 53.499 59.3053 53.779 59.1201C54.0433 58.9453 54.3511 58.8458 54.6687 58.8325C54.9863 58.8192 55.3014 58.8926 55.5797 59.0447C55.8416 59.1816 56.0611 59.3865 56.2144 59.6374C56.2772 59.7581 56.3159 59.8896 56.3287 60.0248C56.359 60.359 56.5133 60.6702 56.7618 60.8984C57.0104 61.1265 57.3355 61.2555 57.6744 61.2604H58.889V60.5358C58.9014 59.9896 58.8035 59.4465 58.601 58.9384C58.3984 58.4302 58.0953 57.9672 57.7095 57.5766C57.3236 57.186 56.8628 56.8756 56.3541 56.6637C55.8454 56.4518 55.299 56.3427 54.7471 56.3427C54.1951 56.3427 53.6487 56.4518 53.14 56.6637C52.6313 56.8756 52.1705 57.186 51.7846 57.5766C51.3988 57.9672 51.0957 58.4302 50.8931 58.9384C50.6906 59.4465 50.5927 59.9896 50.6052 60.5358V63.1012H47.1329V56.4353H46.8727C46.3025 56.4353 45.7557 56.6595 45.3526 57.0585C44.9494 57.4575 44.7229 57.9987 44.7229 58.563V65.2415C44.7236 65.5211 44.6547 65.7965 44.5222 66.0435C44.3897 66.2904 44.1977 66.5012 43.9633 66.6572C43.6796 66.8486 43.3439 66.9501 43.0005 66.9483C42.7176 66.9501 42.4385 66.8823 42.1885 66.7511C41.9385 66.6199 41.7253 66.4293 41.5681 66.1964C41.3762 65.9142 41.2738 65.5817 41.274 65.2415V63.1012H37.1395V56.4353H36.8707C36.3006 56.4353 35.7538 56.6595 35.3506 57.0585C34.9475 57.4575 34.721 57.9987 34.721 58.563V63.1012H28.7668C28.9757 62.4021 29.0332 61.6673 28.9357 60.9447C28.8381 60.2221 28.5876 59.528 28.2006 58.9077C27.8135 58.2874 27.2986 57.7549 26.6895 57.345C26.0804 56.9351 25.3908 56.657 24.6657 56.5288C23.9406 56.4006 23.1963 56.4253 22.4815 56.6011C21.7667 56.777 21.0974 57.1002 20.5173 57.5495C19.9373 57.9988 19.4595 58.5641 19.1152 59.2086C18.771 59.8531 18.5679 60.5623 18.5194 61.2897H18.5046V66.3744C18.5051 66.6489 18.4086 66.9149 18.2316 67.1263L17.9206 67.388C17.7407 67.4886 16.9409 67.5472 16.7188 67.5472C16.7193 68.0234 16.9108 68.4799 17.2512 68.8164C17.5916 69.1529 18.0531 69.3419 18.5342 69.3419C18.8483 69.3422 19.1593 69.2812 19.4495 69.1624C19.7397 69.0435 20.0034 68.8692 20.2255 68.6494C20.4476 68.4296 20.6237 68.1686 20.7438 67.8814C20.8638 67.5942 20.9255 67.2863 20.9252 66.9755V65.9891C21.886 66.5995 23.0226 66.8813 24.1607 66.7913C25.2988 66.7012 26.3757 66.2444 27.2264 65.4907H38.8639C38.9225 66.5362 39.3834 67.5198 40.152 68.2395C40.9205 68.9592 41.9383 69.3602 42.9963 69.3602C44.0543 69.3602 45.0721 68.9592 45.8407 68.2395C46.6092 67.5198 47.0701 66.5362 47.1287 65.4907H56.4789C56.5032 65.954 56.6085 66.4096 56.79 66.8373C57.1617 67.7093 57.8269 68.4272 58.6725 68.8692C59.5182 69.3112 60.4923 69.45 61.4296 69.2621C62.3668 69.0742 63.2096 68.5712 63.8148 67.8383C64.42 67.1055 64.7505 66.188 64.7501 65.2415V55.25H64.4813Z" fill="#ffffff"/>
<path d="M39.6201 53.576C39.6201 53.8337 39.6973 54.0855 39.8419 54.2997C39.9865 54.5139 40.1921 54.6809 40.4326 54.7795C40.6731 54.8781 40.9377 54.9039 41.193 54.8536C41.4483 54.8033 41.6828 54.6793 41.8668 54.4971C42.0509 54.3149 42.1762 54.0828 42.227 53.8302C42.2778 53.5775 42.2517 53.3156 42.1521 53.0776C42.0525 52.8395 41.8838 52.6361 41.6674 52.493C41.451 52.3498 41.1965 52.2734 40.9362 52.2734C40.5872 52.2734 40.2524 52.4107 40.0056 52.655C39.7588 52.8992 39.6201 53.2306 39.6201 53.576Z" fill="#ffffff"/>
<path d="M37.8916 56.3182C37.8916 56.5758 37.9688 56.8277 38.1134 57.0419C38.258 57.2561 38.4636 57.4231 38.7041 57.5217C38.9445 57.6203 39.2092 57.646 39.4645 57.5958C39.7198 57.5455 39.9543 57.4215 40.1383 57.2393C40.3224 57.0571 40.4477 56.825 40.4985 56.5723C40.5493 56.3197 40.5232 56.0578 40.4236 55.8197C40.324 55.5817 40.1553 55.3783 39.9389 55.2352C39.7225 55.092 39.468 55.0156 39.2077 55.0156C38.8588 55.0162 38.5244 55.1536 38.2777 55.3978C38.031 55.6419 37.8922 55.9729 37.8916 56.3182Z" fill="#ffffff"/>
<path d="M41.3486 56.3182C41.3486 56.5758 41.4258 56.8277 41.5704 57.0419C41.7151 57.2561 41.9206 57.4231 42.1611 57.5217C42.4016 57.6203 42.6662 57.646 42.9215 57.5958C43.1768 57.5455 43.4113 57.4215 43.5954 57.2393C43.7794 57.0571 43.9048 56.825 43.9555 56.5723C44.0063 56.3197 43.9803 56.0578 43.8807 55.8197C43.781 55.5817 43.6123 55.3783 43.3959 55.2352C43.1795 55.092 42.925 55.0156 42.6647 55.0156C42.3159 55.0162 41.9814 55.1536 41.7347 55.3978C41.488 55.6419 41.3492 55.9729 41.3486 56.3182Z" fill="#ffffff"/>
<path d="M30.3096 68.0427C30.3092 68.3003 30.3859 68.5523 30.5302 68.7667C30.6745 68.9812 30.8797 69.1485 31.1201 69.2474C31.3604 69.3464 31.625 69.3726 31.8804 69.3228C32.1357 69.2729 32.3704 69.1492 32.5548 68.9673C32.7392 68.7855 32.8649 68.5536 32.9161 68.301C32.9673 68.0484 32.9416 67.7864 32.8424 67.5482C32.7432 67.3101 32.5748 67.1064 32.3586 66.9629C32.1424 66.8194 31.8881 66.7426 31.6278 66.7422C31.2789 66.7422 30.9443 66.8791 30.6972 67.1228C30.4501 67.3666 30.3107 67.6974 30.3096 68.0427Z" fill="#ffffff"/>
<path d="M33.7695 68.0427C33.7691 68.3005 33.846 68.5526 33.9905 68.7672C34.1349 68.9817 34.3404 69.149 34.581 69.2478C34.8216 69.3467 35.0864 69.3726 35.3419 69.3225C35.5974 69.2723 35.8321 69.1482 36.0163 68.9659C36.2004 68.7836 36.3258 68.5513 36.3765 68.2984C36.4273 68.0455 36.401 67.7834 36.3011 67.5453C36.2013 67.3072 36.0323 67.1038 35.8155 66.9608C35.5987 66.8179 35.344 66.7418 35.0835 66.7422C34.735 66.7422 34.4008 66.8792 34.1544 67.1231C33.908 67.367 33.7695 67.6978 33.7695 68.0427Z" fill="#ffffff"/>
<path d="M57.0592 47.4769C56.5615 47.4689 56.0778 47.3128 55.6711 47.0288C55.1817 46.687 54.799 46.2161 54.5666 45.6696L51.234 37.7787C52.1323 37.2321 52.9607 36.5803 53.7012 35.8373C56.3694 33.1882 57.7214 29.6824 57.7214 25.4165C57.7214 21.1506 56.3715 17.6491 53.7012 14.9958C51.0309 12.3424 47.5354 11 43.2994 11C39.0633 11 35.572 12.3424 32.9081 14.9978C30.2442 17.6533 28.9111 21.1548 28.9111 25.4165C28.9111 29.6783 30.2569 33.1882 32.9081 35.8373C33.7829 36.7152 34.7805 37.4642 35.8704 38.0614L32.6605 45.6257C32.4072 46.1878 32.006 46.6724 31.4989 47.0288C31.1042 47.3082 30.634 47.4642 30.1489 47.4769H28.9238V49.7952H38.2508V47.4769H37.0257C36.6723 47.4769 36.5834 47.366 36.5411 47.3136C36.4348 47.2045 36.3615 47.0681 36.3295 46.9199C36.3293 46.7316 36.3585 46.5444 36.4163 46.3649L39.186 39.3807H39.1352L39.1945 39.3619L39.2728 39.3807C41.8826 39.9811 44.5959 39.9897 47.2096 39.4059L49.8354 46.2853C49.9044 46.4836 49.9408 46.6914 49.9433 46.901C49.919 47.0592 49.8449 47.2057 49.7317 47.3199C49.6937 47.368 49.6048 47.4853 49.2472 47.4853H48.0157V49.8036H58.2462V47.4769H57.0592ZM43.3205 36.9703C42.3026 36.9787 41.2894 36.8332 40.3159 36.5389L43.2782 29.0647L46.1389 36.5933C45.2206 36.8494 44.2704 36.9763 43.3163 36.9703M43.4877 22.0553C43.4897 22.0393 43.4897 22.0232 43.4877 22.0072H43.5702L43.5914 22.0553H43.4877ZM44.3764 21.5171L44.2748 21.2784H42.4636V22.1559C42.4636 22.3025 42.3662 22.9935 41.139 25.649L37.2394 34.83C36.9001 34.53 36.5826 34.2067 36.2893 33.8625C34.495 31.7557 33.5852 28.916 33.5852 25.4228C33.5852 21.9297 34.495 19.0941 36.2893 16.9832C38.0477 14.9204 40.4048 13.8733 43.2994 13.8733C45.1041 13.8231 46.8823 14.3121 48.4021 15.2766C49.922 16.2411 51.1131 17.6363 51.8202 19.2805C52.639 21.0396 53.0537 23.1066 53.0537 25.4228C53.0537 28.916 52.146 31.7557 50.3496 33.8625C50.1803 34.0719 50.0026 34.2562 49.8206 34.4363L44.3764 21.5171Z" fill="#ffffff"/>
</g>
<defs>
<clipPath id="clip0_3723_6823">
<rect width="53.8839" height="71" fill="#ffffff" transform="translate(16.6914 11)"/>
</clipPath>
</defs>
</svg>