<svg id="Group_197" data-name="Group 197" xmlns="http://www.w3.org/2000/svg" xmlns:xlink="http://www.w3.org/1999/xlink" width="13.333" height="14.167" viewBox="0 0 13.333 14.167">
  <defs>
    <clipPath id="clip-path">
      <path id="_Icon_小olor" data-name=" Icon 小olor" d="M11.667,13.333V7.5a.833.833,0,1,1,1.667,0v5.833a.833.833,0,1,1-1.667,0Zm-5.833,0V.833A.833.833,0,0,1,7.5.833v12.5a.833.833,0,1,1-1.667,0ZM0,13.333V4.167a.833.833,0,1,1,1.667,0v9.167a.833.833,0,1,1-1.667,0Z" fill="#18203a"/>
    </clipPath>
  </defs>
  <path id="_Icon_小olor-2" data-name=" Icon 小olor" d="M11.667,13.333V7.5a.833.833,0,1,1,1.667,0v5.833a.833.833,0,1,1-1.667,0Zm-5.833,0V.833A.833.833,0,0,1,7.5.833v12.5a.833.833,0,1,1-1.667,0ZM0,13.333V4.167a.833.833,0,1,1,1.667,0v9.167a.833.833,0,1,1-1.667,0Z" fill="#fff"/>
</svg>
