<svg xmlns="http://www.w3.org/2000/svg" xmlns:xlink="http://www.w3.org/1999/xlink" width="20" height="16" viewBox="0 0 20 16">
  <defs>
    <clipPath id="clip-path">
      <path id="_Icon_小olor" data-name=" Icon 小olor" d="M17,16H3a3,3,0,0,1-3-3V3A3,3,0,0,1,3,0H17a3,3,0,0,1,3,3V13A3,3,0,0,1,17,16ZM3,2,9.5,6.468a1,1,0,0,0,.99,0L17,2Z" transform="translate(2.006 4)" fill="#18203a"/>
    </clipPath>
  </defs>
  <g id="Group_329" data-name="Group 329" transform="translate(-2.006 -4)">
    <path id="_Icon_小olor-2" data-name=" Icon 小olor" d="M17,16H3a3,3,0,0,1-3-3V3A3,3,0,0,1,3,0H17a3,3,0,0,1,3,3V13A3,3,0,0,1,17,16ZM3,2,9.5,6.468a1,1,0,0,0,.99,0L17,2Z" transform="translate(2.006 4)" fill="#18203a"/>
  </g>
</svg>
