<svg id="Group_79" data-name="Group 79" xmlns="http://www.w3.org/2000/svg" xmlns:xlink="http://www.w3.org/1999/xlink" width="12" height="12" viewBox="0 0 12 12">
  <defs>
    <clipPath id="clip-path">
      <path id="_Icon_小olor" data-name=" Icon 小olor" d="M10,12H2a2,2,0,0,1-2-2V2A2,2,0,0,1,2,0h8a2,2,0,0,1,2,2v8A2,2,0,0,1,10,12ZM1.333,5.333V10A.667.667,0,0,0,2,10.667h8A.667.667,0,0,0,10.667,10V5.333Zm.667-4A.667.667,0,0,0,1.333,2V4h9.334V2A.667.667,0,0,0,10,1.333Zm4,2a.667.667,0,1,1,.667-.667A.668.668,0,0,1,6,3.334Zm-2.666,0A.667.667,0,1,1,4,2.666.668.668,0,0,1,3.334,3.334Z" fill="#18203a"/>
    </clipPath>
  </defs>
  <path id="_Icon_小olor-2" data-name=" Icon 小olor" d="M10,12H2a2,2,0,0,1-2-2V2A2,2,0,0,1,2,0h8a2,2,0,0,1,2,2v8A2,2,0,0,1,10,12ZM1.333,5.333V10A.667.667,0,0,0,2,10.667h8A.667.667,0,0,0,10.667,10V5.333Zm.667-4A.667.667,0,0,0,1.333,2V4h9.334V2A.667.667,0,0,0,10,1.333Zm4,2a.667.667,0,1,1,.667-.667A.668.668,0,0,1,6,3.334Zm-2.666,0A.667.667,0,1,1,4,2.666.668.668,0,0,1,3.334,3.334Z" fill="#c5cee0"/>
</svg>
