<svg id="Group_216" data-name="Group 216" xmlns="http://www.w3.org/2000/svg" xmlns:xlink="http://www.w3.org/1999/xlink" width="16.668" height="16.666" viewBox="0 0 16.668 16.666">
  <defs>
    <clipPath id="clip-path">
      <path id="_Icon_小olor" data-name=" Icon 小olor" d="M.834,16.666a.833.833,0,0,1-.818-1L.731,12.1a.917.917,0,0,0-.074-.533A8.324,8.324,0,0,1,7,.1,8.787,8.787,0,0,1,8.335,0a8.338,8.338,0,0,1,8.228,9.668,8.4,8.4,0,0,1-6.657,6.85,8.523,8.523,0,0,1-1.565.146A8.279,8.279,0,0,1,5.1,16.009a1.031,1.031,0,0,0-.4-.086.753.753,0,0,0-.14.013L1,16.65A.814.814,0,0,1,.834,16.666Zm3.874-2.41a2.676,2.676,0,0,1,1.045.218A6.6,6.6,0,0,0,8.34,15,6.813,6.813,0,0,0,9.6,14.88,6.665,6.665,0,0,0,13.047,3.619,6.621,6.621,0,0,0,8.334,1.667a7.04,7.04,0,0,0-1.079.084,6.657,6.657,0,0,0-5.062,9.163,2.571,2.571,0,0,1,.172,1.509L1.9,14.77,4.239,14.3A2.4,2.4,0,0,1,4.708,14.256Zm6.959-5.09a.833.833,0,1,1,.833-.833A.834.834,0,0,1,11.667,9.166Zm-3.334,0a.833.833,0,1,1,.833-.833A.834.834,0,0,1,8.333,9.166ZM5,9.166a.833.833,0,1,1,.833-.833A.834.834,0,0,1,5,9.166Z" transform="translate(0 0)" fill="#18203a"/>
    </clipPath>
  </defs>
  <path id="_Icon_小olor-2" data-name=" Icon 小olor" d="M.834,16.666a.833.833,0,0,1-.818-1L.731,12.1a.917.917,0,0,0-.074-.533A8.324,8.324,0,0,1,7,.1,8.787,8.787,0,0,1,8.335,0a8.338,8.338,0,0,1,8.228,9.668,8.4,8.4,0,0,1-6.657,6.85,8.523,8.523,0,0,1-1.565.146A8.279,8.279,0,0,1,5.1,16.009a1.031,1.031,0,0,0-.4-.086.753.753,0,0,0-.14.013L1,16.65A.814.814,0,0,1,.834,16.666Zm3.874-2.41a2.676,2.676,0,0,1,1.045.218A6.6,6.6,0,0,0,8.34,15,6.813,6.813,0,0,0,9.6,14.88,6.665,6.665,0,0,0,13.047,3.619,6.621,6.621,0,0,0,8.334,1.667a7.04,7.04,0,0,0-1.079.084,6.657,6.657,0,0,0-5.062,9.163,2.571,2.571,0,0,1,.172,1.509L1.9,14.77,4.239,14.3A2.4,2.4,0,0,1,4.708,14.256Zm6.959-5.09a.833.833,0,1,1,.833-.833A.834.834,0,0,1,11.667,9.166Zm-3.334,0a.833.833,0,1,1,.833-.833A.834.834,0,0,1,8.333,9.166ZM5,9.166a.833.833,0,1,1,.833-.833A.834.834,0,0,1,5,9.166Z" transform="translate(0 0)" fill="#fff"/>
</svg>
