<svg id="Group_218" data-name="Group 218" xmlns="http://www.w3.org/2000/svg" xmlns:xlink="http://www.w3.org/1999/xlink" width="15" height="16.667" viewBox="0 0 15 16.667">
  <defs>
    <clipPath id="clip-path">
      <path id="_Icon_小olor" data-name=" Icon 小olor" d="M12.5,16.667H2.5a2.5,2.5,0,0,1-2.5-2.5v-10a2.5,2.5,0,0,1,2.5-2.5h.833V.833A.834.834,0,0,1,5,.833v.833h5V.833a.834.834,0,0,1,1.667,0v.833H12.5a2.5,2.5,0,0,1,2.5,2.5v10A2.5,2.5,0,0,1,12.5,16.667ZM1.666,9.166v5A.834.834,0,0,0,2.5,15h10a.834.834,0,0,0,.833-.833v-5ZM2.5,3.333a.835.835,0,0,0-.833.834V7.5H13.333V4.167a.835.835,0,0,0-.833-.834h-.833v.834a.834.834,0,0,1-1.667,0V3.333H5v.834a.834.834,0,0,1-1.667,0V3.333ZM10.833,12.5H7.5a.834.834,0,0,1,0-1.667h3.333a.834.834,0,1,1,0,1.667Zm-6.666,0A.834.834,0,1,1,5,11.667.835.835,0,0,1,4.167,12.5Z" transform="translate(0 0)" fill="#18203a"/>
    </clipPath>
  </defs>
  <path id="_Icon_小olor-2" data-name=" Icon 小olor" d="M12.5,16.667H2.5a2.5,2.5,0,0,1-2.5-2.5v-10a2.5,2.5,0,0,1,2.5-2.5h.833V.833A.834.834,0,0,1,5,.833v.833h5V.833a.834.834,0,0,1,1.667,0v.833H12.5a2.5,2.5,0,0,1,2.5,2.5v10A2.5,2.5,0,0,1,12.5,16.667ZM1.666,9.166v5A.834.834,0,0,0,2.5,15h10a.834.834,0,0,0,.833-.833v-5ZM2.5,3.333a.835.835,0,0,0-.833.834V7.5H13.333V4.167a.835.835,0,0,0-.833-.834h-.833v.834a.834.834,0,0,1-1.667,0V3.333H5v.834a.834.834,0,0,1-1.667,0V3.333ZM10.833,12.5H7.5a.834.834,0,0,1,0-1.667h3.333a.834.834,0,1,1,0,1.667Zm-6.666,0A.834.834,0,1,1,5,11.667.835.835,0,0,1,4.167,12.5Z" transform="translate(0 0)" fill="#fff"/>
</svg>
