<svg width="44" height="44" viewBox="0 0 44 44" fill="none" xmlns="http://www.w3.org/2000/svg">
<path d="M41.8058 12.7079C41.385 12.4833 40.9285 12.3331 40.4566 12.2638C38.1937 11.9294 36.0882 13.4929 35.7539 15.7557C35.5978 16.8125 35.856 17.8888 36.4747 18.7596L32.0646 22.7637C30.5287 21.0648 27.9064 20.9325 26.2074 22.4683C25.8353 22.8047 25.5272 23.2059 25.2983 23.6523L20.2131 19.5478C20.3288 17.2615 18.5693 15.3143 16.2831 15.1985C13.9968 15.0828 12.0496 16.8423 11.9339 19.1286C11.9206 19.3905 11.9323 19.6533 11.9686 19.9131L7.17531 24.8179C5.61701 23.1429 2.99583 23.0482 1.32084 24.6066C-0.354155 26.1649 -0.448773 28.7861 1.10963 30.4611C2.66794 32.1361 5.28911 32.2307 6.9641 30.6723C8.09327 29.6218 8.54533 28.031 8.13731 26.5436L12.7557 21.818C14.1262 23.6507 16.7228 24.0255 18.5555 22.655C18.9777 22.3393 19.3358 21.9459 19.6105 21.496L24.8471 25.7225C24.9341 27.7089 26.4189 29.3537 28.3859 29.643C28.5883 29.6728 28.7927 29.6878 28.9973 29.6879C31.2887 29.681 33.1407 27.8179 33.1338 25.5265C33.1327 25.1722 33.0862 24.8195 32.9956 24.4769L37.9029 20.0213C39.9225 21.0991 42.4333 20.3356 43.5111 18.316C44.5888 16.2965 43.8253 13.7856 41.8058 12.7079ZM6.36713 27.964C6.18737 29.1948 5.0438 30.0469 3.81301 29.8671C2.58222 29.6873 1.73009 28.5438 1.90995 27.313C2.08972 26.0822 3.23328 25.23 4.46407 25.4099C4.4652 25.4101 4.46634 25.4103 4.46748 25.4104C5.69628 25.5925 6.54604 26.7347 6.36713 27.964ZM18.301 19.662C18.1197 20.8915 16.9762 21.7415 15.7466 21.5603C14.5171 21.3791 13.6671 20.2356 13.8483 19.006C14.0107 17.9037 14.9551 17.0863 16.0693 17.0836C16.1802 17.0837 16.291 17.0918 16.4008 17.108C17.63 17.2898 18.4801 18.4323 18.301 19.662ZM31.2152 25.8692C31.034 27.0987 29.8904 27.9487 28.6609 27.7675C27.4313 27.5863 26.5814 26.4427 26.7626 25.2132C26.925 24.1109 27.8696 23.2934 28.9838 23.2908C29.0947 23.2908 29.2055 23.2989 29.3153 23.3151C30.545 23.4959 31.3955 24.6392 31.2148 25.8691V25.8692H31.2152ZM42.0806 16.6915C41.9004 17.9219 40.7567 18.7733 39.5263 18.5931C38.2959 18.4128 37.4445 17.2692 37.6248 16.0387C37.805 14.8083 38.9487 13.957 40.1791 14.1372C40.1797 14.1373 40.1803 14.1374 40.181 14.1375C41.4107 14.3183 42.2611 15.4618 42.0805 16.6915H42.0806Z" fill="#E6000D"/>
</svg>
