<svg width="20" height="16" viewBox="0 0 20 16" fill="none" xmlns="http://www.w3.org/2000/svg">
<path d="M16.9723 3.41216C16.9027 3.139 16.7047 2.93275 16.4782 2.8695C16.0777 2.75675 14.1252 2.50008 10.0002 2.50008C5.87516 2.50008 3.9245 2.75675 3.52025 2.8695C3.29658 2.93183 3.09858 3.13808 3.028 3.41216C2.92808 3.80083 2.66683 5.42975 2.66683 8.00008C2.66683 10.5704 2.92808 12.1984 3.028 12.5889C3.09766 12.8612 3.29566 13.0674 3.52116 13.1297C3.9245 13.2434 5.87516 13.5001 10.0002 13.5001C14.1252 13.5001 16.0767 13.2434 16.4801 13.1307C16.7037 13.0683 16.9017 12.8621 16.9723 12.588C17.0722 12.1993 17.3335 10.5667 17.3335 8.00008C17.3335 5.43341 17.0722 3.80175 16.9723 3.41216ZM18.7479 2.95658C19.1668 4.59008 19.1668 8.00008 19.1668 8.00008C19.1668 8.00008 19.1668 11.4101 18.7479 13.0436C18.5151 13.9465 17.834 14.6569 16.9714 14.8971C15.4048 15.3334 10.0002 15.3334 10.0002 15.3334C10.0002 15.3334 4.59825 15.3334 3.02891 14.8971C2.16266 14.6532 1.4825 13.9437 1.25241 13.0436C0.833496 11.4101 0.833496 8.00008 0.833496 8.00008C0.833496 8.00008 0.833496 4.59008 1.25241 2.95658C1.48525 2.05366 2.16633 1.34325 3.02891 1.10308C4.59825 0.666748 10.0002 0.666748 10.0002 0.666748C10.0002 0.666748 15.4048 0.666748 16.9714 1.10308C17.8377 1.34691 18.5178 2.05641 18.7479 2.95658V2.95658ZM8.16683 11.2084V4.79175L13.6668 8.00008L8.16683 11.2084Z" fill="#E6000D"/>
</svg>
