<svg width="169" height="40" viewBox="0 0 169 40" fill="none" xmlns="http://www.w3.org/2000/svg">
<g clip-path="url(#clip0_112_1520)">
<path d="M51.8984 27.4519H63.7098V23.9397H56.0965V10.7104H51.8984V27.4519Z" fill="#0858EE"/>
<path d="M70.7076 25.1104C69.0236 25.1104 68.1461 23.6587 68.1461 21.4811C68.1461 19.3035 69.0236 17.8284 70.7076 17.8284C72.3915 17.8284 73.2928 19.3035 73.2928 21.4811C73.2928 23.6587 72.3915 25.1104 70.7076 25.1104ZM70.7313 27.8265C74.6447 27.8265 77.2062 25.087 77.2062 21.4811C77.2062 17.8753 74.6447 15.1357 70.7313 15.1357C66.8416 15.1357 64.2327 17.8753 64.2327 21.4811C64.2327 25.087 66.8416 27.8265 70.7313 27.8265Z" fill="#0858EE"/>
<path d="M83.9801 31.5962C85.7826 31.5962 87.3717 31.1982 88.439 30.2616C89.4114 29.3952 90.0518 28.084 90.0518 26.2811V15.4635H86.3519V16.7513H86.3044C85.5929 15.7445 84.5019 15.1123 82.8891 15.1123C79.877 15.1123 77.7898 17.5943 77.7898 21.1065C77.7898 24.7825 80.3276 26.7962 83.0551 26.7962C84.5256 26.7962 85.4506 26.2108 86.1621 25.4147H86.257V26.6089C86.257 28.0606 85.5692 28.9035 83.9327 28.9035C82.6519 28.9035 82.0115 28.365 81.7981 27.7328H78.0507C78.4302 30.2382 80.6359 31.5962 83.9801 31.5962ZM83.9564 23.963C82.5096 23.963 81.5609 22.7923 81.5609 20.9894C81.5609 19.163 82.5096 17.9923 83.9564 17.9923C85.5692 17.9923 86.423 19.3504 86.423 20.966C86.423 22.6518 85.6403 23.963 83.9564 23.963Z" fill="#0858EE"/>
<path d="M97.6595 25.1104C95.9755 25.1104 95.098 23.6587 95.098 21.4811C95.098 19.3035 95.9755 17.8284 97.6595 17.8284C99.3434 17.8284 100.245 19.3035 100.245 21.4811C100.245 23.6587 99.3434 25.1104 97.6595 25.1104ZM97.6832 27.8265C101.597 27.8265 104.158 25.087 104.158 21.4811C104.158 17.8753 101.597 15.1357 97.6832 15.1357C93.7935 15.1357 91.1846 17.8753 91.1846 21.4811C91.1846 25.087 93.7935 27.8265 97.6832 27.8265Z" fill="#0858EE"/>
<path d="M105.287 27.4519H109.153V15.4636H105.287V27.4519ZM105.287 13.8012H109.153V10.7104H105.287V13.8012Z" fill="#0858EE"/>
<path d="M110.831 31.4089H114.697V26.2108H114.744C115.503 27.2177 116.618 27.8265 118.183 27.8265C121.361 27.8265 123.472 25.3445 123.472 21.4577C123.472 17.8518 121.504 15.1123 118.278 15.1123C116.618 15.1123 115.432 15.8382 114.602 16.9152H114.531V15.4635H110.831V31.4089ZM117.187 24.8762C115.527 24.8762 114.578 23.5416 114.578 21.5982C114.578 19.6547 115.432 18.1796 117.116 18.1796C118.776 18.1796 119.559 19.5377 119.559 21.5982C119.559 23.6352 118.658 24.8762 117.187 24.8762Z" fill="#0858EE"/>
<path d="M129.766 27.8264C132.944 27.8264 135.292 26.4684 135.292 23.846C135.292 20.7786 132.778 20.2401 130.644 19.8889C129.102 19.6079 127.727 19.4908 127.727 18.6479C127.727 17.8986 128.462 17.5474 129.411 17.5474C130.478 17.5474 131.213 17.8752 131.355 18.9523H134.913C134.723 16.5874 132.873 15.1123 129.434 15.1123C126.564 15.1123 124.193 16.4235 124.193 18.9523C124.193 21.7621 126.446 22.324 128.557 22.6752C130.169 22.9562 131.64 23.0733 131.64 24.1504C131.64 24.923 130.905 25.3445 129.743 25.3445C128.462 25.3445 127.655 24.7591 127.513 23.565H123.861C123.979 26.2108 126.209 27.8264 129.766 27.8264Z" fill="#0858EE"/>
<path d="M140.544 27.8029C142.228 27.8029 143.295 27.1473 144.173 25.9765H144.244V27.4517H147.944V15.4634H144.078V22.16C144.078 23.5883 143.272 24.5717 141.943 24.5717C140.71 24.5717 140.117 23.8458 140.117 22.5346V15.4634H136.275V23.3307C136.275 26 137.745 27.8029 140.544 27.8029Z" fill="#0858EE"/>
<path d="M149.625 27.4518H153.491V20.7318C153.491 19.3035 154.203 18.2967 155.412 18.2967C156.574 18.2967 157.12 19.046 157.12 20.3338V27.4518H160.986V20.7318C160.986 19.3035 161.674 18.2967 162.907 18.2967C164.069 18.2967 164.615 19.046 164.615 20.3338V27.4518H168.481V19.6547C168.481 16.9621 167.105 15.1123 164.354 15.1123C162.788 15.1123 161.484 15.7679 160.535 17.2196H160.488C159.871 15.9318 158.661 15.1123 157.072 15.1123C155.317 15.1123 154.155 15.9318 153.396 17.1728H153.325V15.4635H149.625V27.4518Z" fill="#0858EE"/>
<path fill-rule="evenodd" clip-rule="evenodd" d="M21.0892 39.1591C32.0049 39.1591 40.8539 30.4232 40.8539 19.6469C40.8539 8.87068 32.0049 0.134766 21.0892 0.134766C10.1734 0.134766 1.32446 8.87068 1.32446 19.6469C1.32446 30.4232 10.1734 39.1591 21.0892 39.1591ZM27.2551 9.22437C27.5552 8.17189 26.5206 7.54953 25.5758 8.21408L12.3859 17.4904C11.3612 18.2111 11.5224 19.6469 12.628 19.6469H16.1013V19.6204H22.8705L17.3548 21.5417L14.9233 30.0696C14.6232 31.1221 15.6576 31.7444 16.6026 31.0798L29.7925 21.8035C30.8172 21.0828 30.6559 19.6469 29.5504 19.6469H24.2833L27.2551 9.22437Z" fill="#0858EE"/>
</g>
<defs>
<clipPath id="clip0_112_1520">
<rect width="168" height="40" fill="white" transform="translate(0.648438)"/>
</clipPath>
</defs>
</svg>
