<svg width="30" height="30" viewBox="0 0 30 30" fill="none" xmlns="http://www.w3.org/2000/svg">
<path d="M15.0003 0.666664C7.09633 0.666664 0.666992 7.09733 0.666992 15C0.666992 22.9027 7.09633 29.3333 15.0003 29.3333C22.9043 29.3333 29.3337 22.9027 29.3337 15C29.3337 7.09733 22.9043 0.666664 15.0003 0.666664ZM15.0003 27.3333C8.19899 27.3333 2.66699 21.8013 2.66699 15C2.66699 8.19866 8.19899 2.66666 15.0003 2.66666C21.8017 2.66666 27.3337 8.19866 27.3337 15C27.3337 21.8013 21.8017 27.3333 15.0003 27.3333ZM19.707 11.7067L16.4137 15L19.707 18.2933C20.0977 18.684 20.0977 19.3173 19.707 19.708C19.5123 19.9027 19.2563 20.0013 19.0003 20.0013C18.7443 20.0013 18.4883 19.904 18.2937 19.708L15.0003 16.4146L11.707 19.708C11.5123 19.9027 11.2563 20.0013 11.0003 20.0013C10.7443 20.0013 10.4883 19.904 10.2937 19.708C9.90299 19.3173 9.90299 18.684 10.2937 18.2933L13.587 15L10.2937 11.7067C9.90299 11.316 9.90299 10.6827 10.2937 10.292C10.6843 9.90132 11.3177 9.90132 11.7083 10.292L15.0017 13.5854L18.295 10.292C18.6857 9.90132 19.319 9.90132 19.7097 10.292C20.0977 10.6827 20.0977 11.3174 19.707 11.7067Z" fill="#A7A7A7"/>
</svg>
