<svg width="60" height="60" viewBox="0 0 60 60" fill="none" xmlns="http://www.w3.org/2000/svg">
<path d="M42.4883 21.3366C42.4883 20.9908 42.2785 20.6793 41.9573 20.5478L29.8606 15.6001C29.652 15.5148 29.4182 15.5148 29.2097 15.6001L17.113 20.5478C16.7918 20.6792 16.582 20.9908 16.582 21.3366V36.9912C16.582 37.337 16.7918 37.6485 17.113 37.7799L29.2097 42.7277C29.416 42.8121 29.6479 42.8139 29.8595 42.7276C29.8699 42.7242 29.4119 42.9112 41.9573 37.7799C42.2785 37.6486 42.4883 37.337 42.4883 36.9912V21.3366ZM29.5351 25.4342L25.078 23.6111L34.7104 19.4275L39.4656 21.3725L29.5351 25.4342ZM18.2949 22.6805L22.1404 24.2533V28.6908C22.1404 29.1618 22.5239 29.5436 22.9969 29.5436C23.4698 29.5436 23.8533 29.1618 23.8533 28.6908V24.9539L28.6787 26.9276V40.6667L18.2949 36.4196V22.6805ZM29.5351 17.3107L32.5041 18.525L22.8717 22.7087L19.6046 21.3724L29.5351 17.3107ZM30.3916 26.9276L40.7754 22.6805V36.4196L30.3916 40.6667V26.9276Z" fill="#E6000D"/>
<path fill-rule="evenodd" clip-rule="evenodd" d="M7.83744 39.9868H7.60854C5.90893 39.9868 4.27895 39.3116 3.07715 38.1098C1.87534 36.908 1.2002 35.278 1.2002 33.5784V28.5992C1.2002 26.8996 1.87534 25.2696 3.07715 24.0678C4.27895 22.866 5.90893 22.1908 7.60854 22.1908H9.84746V22.1357C9.84746 11.337 18.6016 2.58301 29.4002 2.58301C40.1989 2.58301 48.9529 11.337 48.9529 22.1357V22.1908H51.1919C52.8915 22.1908 54.5214 22.866 55.7232 24.0678C56.925 25.2696 57.6002 26.8996 57.6002 28.5992V33.5784C57.6002 35.278 56.925 36.908 55.7232 38.1098C54.5214 39.3116 52.8915 39.9868 51.1919 39.9868H48.0874C47.7911 39.9868 47.5069 39.869 47.2974 39.6595C47.0879 39.45 46.9701 39.1658 46.9701 38.8695V22.1357C46.9701 12.4322 39.1039 4.56582 29.4002 4.56582C19.6966 4.56582 11.8303 12.4322 11.8303 22.1357V38.8695C11.8303 39.1658 11.7126 39.45 11.5031 39.6595C11.2935 39.869 11.0094 39.9868 10.7131 39.9868H9.82036C9.87114 46.259 14.9708 51.3271 21.2541 51.3271H23.1724C23.3612 50.4556 23.797 49.6486 24.4374 49.0081C25.3154 48.1302 26.5062 47.6369 27.7479 47.6369H31.0525C33.6381 47.6369 35.7342 49.733 35.7342 52.3185C35.7342 54.9041 33.6381 57.0002 31.0525 57.0002H27.7479C25.5025 57.0002 23.6264 55.4196 23.1714 53.31H21.2541C13.8752 53.31 7.88756 47.3533 7.83744 39.9868ZM33.7514 52.3185C33.7514 50.828 32.5431 49.6197 31.0525 49.6197H27.7479C27.0321 49.6197 26.3457 49.904 25.8395 50.4102C25.3333 50.9164 25.049 51.6028 25.049 52.3185C25.049 53.8091 26.2573 55.0174 27.7479 55.0174H31.0525C32.5431 55.0174 33.7514 53.8091 33.7514 52.3185ZM9.84746 24.1736H7.60854C6.43482 24.1736 5.30913 24.6399 4.47922 25.4698C3.6493 26.2998 3.18301 27.4254 3.18301 28.5992V33.5784C3.18301 34.7522 3.6493 35.8778 4.47922 36.7078C5.30913 37.5377 6.43482 38.004 7.60854 38.004H9.84746V24.1736ZM48.9529 24.1736V38.004H51.1919C52.3656 38.004 53.4913 37.5377 54.3212 36.7078C55.1512 35.8778 55.6174 34.7522 55.6174 33.5784V28.5992C55.6174 27.4254 55.1512 26.2998 54.3212 25.4698C53.4913 24.6399 52.3656 24.1736 51.1919 24.1736H48.9529Z" fill="#E6000D"/>
</svg>
