<svg width="27" height="27" viewBox="0 0 27 27" fill="none" xmlns="http://www.w3.org/2000/svg">
<path d="M13.4998 0.510742C6.33684 0.510742 0.510254 6.33853 0.510254 13.5003C0.510254 20.6621 6.33684 26.4899 13.4998 26.4899C20.6628 26.4899 26.4894 20.6621 26.4894 13.5003C26.4894 6.33853 20.6628 0.510742 13.4998 0.510742ZM13.4998 24.6774C7.33613 24.6774 2.32275 19.664 2.32275 13.5003C2.32275 7.33662 7.33613 2.32324 13.4998 2.32324C19.6635 2.32324 24.6769 7.33662 24.6769 13.5003C24.6769 19.664 19.6635 24.6774 13.4998 24.6774ZM18.6353 13.5003C18.6353 14.0006 18.2293 14.4066 17.729 14.4066H14.4061V17.7295C14.4061 18.2297 14.0001 18.6357 13.4998 18.6357C12.9996 18.6357 12.5936 18.2297 12.5936 17.7295V14.4066H9.27067C8.77042 14.4066 8.36442 14.0006 8.36442 13.5003C8.36442 13.0001 8.77042 12.5941 9.27067 12.5941H12.5936V9.27116C12.5936 8.77091 12.9996 8.36491 13.4998 8.36491C14.0001 8.36491 14.4061 8.77091 14.4061 9.27116V12.5941H17.729C18.2293 12.5941 18.6353 13.0001 18.6353 13.5003Z" fill="#5D5D5D"/>
</svg>
