<svg width="22" height="22" viewBox="0 0 22 22" fill="none" xmlns="http://www.w3.org/2000/svg">
<path d="M11 0.25C5.072 0.25 0.25 5.073 0.25 11C0.25 16.927 5.072 21.75 11 21.75C16.928 21.75 21.75 16.927 21.75 11C21.75 5.073 16.928 0.25 11 0.25ZM11 20.25C5.899 20.25 1.75 16.101 1.75 11C1.75 5.899 5.899 1.75 11 1.75C16.101 1.75 20.25 5.899 20.25 11C20.25 16.101 16.101 20.25 11 20.25ZM15.25 11C15.25 11.414 14.914 11.75 14.5 11.75H7.5C7.086 11.75 6.75 11.414 6.75 11C6.75 10.586 7.086 10.25 7.5 10.25H14.5C14.914 10.25 15.25 10.586 15.25 11Z" fill="#A3A5A6"/>
</svg>
