<svg width="52" height="52" viewBox="0 0 52 52" fill="none" xmlns="http://www.w3.org/2000/svg">
<path d="M26.0059 0.400391C40.1207 0.40054 51.6024 11.8822 51.6025 25.9971C51.6025 40.1121 40.1208 51.5946 26.0059 51.5947C22.3347 51.5947 18.6334 50.7792 15.3115 49.2344H15.3125C14.5391 48.8633 13.606 48.8519 12.6846 49.1445L12.6787 49.1465L6.04297 51.375C5.58932 51.5246 5.1296 51.5977 4.67969 51.5977C3.5674 51.5976 2.48588 51.1595 1.66504 50.3389L1.66406 50.3379C0.507179 49.1832 0.110057 47.5087 0.62207 45.9678L2.86426 39.3008L2.86621 39.2949C3.13381 38.4566 3.13691 37.5881 2.84082 36.8584L2.77832 36.7139C1.22509 33.3729 0.411133 29.6715 0.411133 25.9971C0.411309 11.8847 11.8936 0.400391 26.0059 0.400391ZM26.0029 3.59961C13.6541 3.59964 3.60857 13.6457 3.6084 25.9971C3.6084 29.2097 4.32206 32.4435 5.67188 35.3496L5.67383 35.3525C6.36093 36.7989 6.45807 38.5551 5.90918 40.2881L3.6582 46.9844C3.47565 47.5277 3.76599 47.9182 3.9248 48.0771C4.08445 48.2368 4.47774 48.526 5.02051 48.3438L11.6768 46.1094C13.4422 45.5472 15.2025 45.6395 16.668 46.3398L16.6719 46.3418C19.5569 47.6837 22.7906 48.3975 26.0029 48.3975C38.3545 48.3975 48.4004 38.3516 48.4004 26C48.4004 13.6485 38.3546 3.59961 26.0029 3.59961ZM15.3203 23.7334H15.3467C16.6002 23.7334 17.6133 24.7487 17.6133 26C17.6133 27.2513 16.6002 28.2666 15.3467 28.2666C14.0931 28.2666 13.0674 27.2485 13.0674 26C13.0674 24.7465 14.0719 23.7336 15.3203 23.7334ZM25.9873 23.7334H26.0137C27.267 23.7335 28.2803 24.7487 28.2803 26C28.2803 27.2513 27.267 28.2665 26.0137 28.2666C24.76 28.2666 23.7334 27.2486 23.7334 26C23.7334 24.7464 24.7388 23.7334 25.9873 23.7334ZM36.6543 23.7334H36.6797C37.9332 23.7334 38.9463 24.7487 38.9463 26C38.9463 27.2513 37.9332 28.2666 36.6797 28.2666C35.4262 28.2664 34.4004 27.2484 34.4004 26C34.4004 24.7464 35.4058 23.7334 36.6543 23.7334Z" fill="#E6000D" stroke="white" stroke-width="0.8"/>
</svg>
