<svg width="21" height="19" viewBox="0 0 21 19" fill="none" xmlns="http://www.w3.org/2000/svg">
<path d="M18.0792 0.910994L4.80124 0.315805C3.02023 0.233758 1.49137 1.33236 0.993727 3.04196C0.499397 4.74295 1.19929 6.47866 2.73491 7.3597L6.79077 9.68628L6.5029 14.3532C6.39315 16.1207 7.45775 17.6599 9.15109 18.1823C10.1633 18.4945 11.1946 18.383 12.0574 17.9181C12.6437 17.6022 13.1531 17.1222 13.5221 16.5019L20.3284 5.08563C20.8324 4.24161 20.8544 3.22218 20.3896 2.35944C19.9248 1.49669 19.0613 0.954365 18.0792 0.910994ZM19.041 4.3174L12.2346 15.7337C11.5544 16.8726 10.3871 16.9938 9.59393 16.7487C8.80889 16.506 7.91955 15.7573 7.99981 14.4452L8.29054 9.72902L13.0418 7.16912C13.4062 6.97275 13.5427 6.51758 13.3463 6.15312C13.1499 5.78865 12.6948 5.65222 12.3303 5.84859L7.57906 8.40849L3.48048 6.05719C2.34058 5.40254 2.20357 4.24845 2.43358 3.45888C2.58259 2.94695 2.94182 2.38878 3.53166 2.07099C3.86003 1.89407 4.25926 1.79141 4.73418 1.81269L18.0122 2.40791C18.4615 2.42818 18.8561 2.67563 19.0686 3.07003C19.2811 3.46443 19.2712 3.93095 19.041 4.3174Z" fill="#E6000D"/>
</svg>
