<svg width="187" height="40" viewBox="0 0 187 40" fill="none" xmlns="http://www.w3.org/2000/svg">
<path d="M30.4336 17.828C29.9301 18.3364 29.5446 18.95 29.3044 19.6249C29.0642 20.3 28.9753 21.0199 29.044 21.7333L29.02 21.7093C29.0907 22.5492 28.9778 23.3943 28.6894 24.1859C28.4009 24.9773 27.9439 25.6961 27.3502 26.2921C26.7563 26.888 26.0401 27.3468 25.2513 27.6361C24.4626 27.9256 23.6205 28.0389 22.7837 27.968L22.8076 27.992C21.8067 27.8985 20.8014 28.1171 19.9286 28.618C19.056 29.1189 18.3585 29.8777 17.9314 30.7911C17.5043 31.7044 17.3681 32.7276 17.5416 33.7215C17.7152 34.7152 18.1899 35.6311 18.9011 36.3441C19.6123 37.0572 20.5253 37.5328 21.5156 37.706C22.5061 37.8793 23.5255 37.7417 24.4351 37.3123C25.3448 36.8827 26.1002 36.1821 26.5986 35.3059C27.0969 34.4296 27.3139 33.4205 27.2198 32.416L27.2451 32.44C27.1744 31.6003 27.2872 30.7551 27.5756 29.9635C27.8641 29.172 28.3212 28.4532 28.915 27.8572C29.5088 27.2613 30.2251 26.8025 31.0137 26.5132C31.8025 26.2237 32.6445 26.1104 33.4814 26.1813L33.4561 26.1573C34.2738 26.2311 35.0968 26.0965 35.8489 25.7661C36.6009 25.4357 37.2577 24.9201 37.7583 24.2672C38.2589 23.6143 38.5874 22.8449 38.7128 22.0308C38.8383 21.2165 38.757 20.3837 38.4764 19.6093C38.1958 18.8351 37.725 18.1444 37.1076 17.6013C36.4902 17.0583 35.7462 16.6804 34.9445 16.5028C34.1429 16.3252 33.3095 16.3535 32.5216 16.5851C31.7338 16.8168 31.017 17.2443 30.4376 17.828H30.4336Z" fill="#E81212"/>
<path d="M20.6328 24.8478L20.6075 24.8238C21.3187 24.8957 22.0369 24.8081 22.7104 24.5673C23.3837 24.3265 23.9954 23.9386 24.501 23.4316C25.0066 22.9245 25.3937 22.3109 25.634 21.6353C25.8745 20.9597 25.9623 20.239 25.8912 19.5252L25.9165 19.5492C25.8458 18.7093 25.9587 17.8642 26.247 17.0726C26.5355 16.2812 26.9926 15.5624 27.5864 14.9664C28.1802 14.3705 28.8965 13.9117 29.6851 13.6224C30.4739 13.3328 31.3159 13.2196 32.1528 13.2905L32.1276 13.2665C33.1286 13.3609 34.1342 13.143 35.0074 12.6426C35.8806 12.1423 36.5787 11.3838 37.0065 10.4706C37.4343 9.55749 37.571 8.53411 37.398 7.5401C37.225 6.54609 36.7507 5.62985 36.0397 4.91633C35.3288 4.20282 34.4158 3.72677 33.4253 3.55314C32.4349 3.3795 31.4152 3.51671 30.5052 3.94607C29.5953 4.37542 28.8396 5.07602 28.341 5.9523C27.8424 6.82857 27.6253 7.83786 27.7194 8.8425L27.6954 8.81716C27.7663 9.65702 27.6536 10.5023 27.3653 11.2939C27.077 12.0855 26.6198 12.8044 26.0261 13.4005C25.4322 13.9964 24.7159 14.4552 23.9271 14.7445C23.1382 15.0338 22.296 15.1469 21.4591 15.0758L21.483 15.1012C20.7719 15.0293 20.0535 15.1169 19.3802 15.3577C18.7069 15.5984 18.0952 15.9864 17.5895 16.4934C17.0839 17.0005 16.6969 17.6141 16.4564 18.2897C16.2161 18.9653 16.1282 19.686 16.1993 20.3998L16.1754 20.3758C16.2458 21.2156 16.1328 22.0606 15.8443 22.8521C15.5558 23.6434 15.0987 24.3622 14.505 24.9581C13.9112 25.554 13.195 26.0126 12.4065 26.3022C11.6179 26.5917 10.7758 26.7052 9.93909 26.6345L9.96301 26.6585C8.96195 26.5641 7.95626 26.782 7.08311 27.2824C6.20998 27.7828 5.51188 28.5412 5.08407 29.4544C4.65624 30.3676 4.5195 31.3909 4.69252 32.3849C4.86554 33.3789 5.3399 34.2952 6.05085 35.0086C6.76183 35.7222 7.67479 36.1982 8.66526 36.3718C9.65572 36.5454 10.6754 36.4082 11.5853 35.9789C12.4952 35.5496 13.251 34.849 13.7496 33.9728C14.2482 33.0964 14.4653 32.0872 14.3712 31.0825L14.3964 31.1065C14.3258 30.2666 14.4387 29.4216 14.7271 28.63C15.0154 27.8385 15.4726 27.1197 16.0663 26.5237C16.6602 25.9278 17.3764 25.469 18.1651 25.1797C18.9538 24.8902 19.7959 24.7769 20.6328 24.8478Z" fill="#E81212"/>
<path d="M11.7287 22.1721C12.2322 21.6638 12.6178 21.0502 12.8578 20.3751C13.0978 19.7001 13.1863 18.9801 13.117 18.2667L13.1423 18.2907C13.0716 17.4507 13.1845 16.6053 13.4731 15.8135C13.7616 15.0218 14.219 14.3029 14.8131 13.7069C15.4072 13.1109 16.1237 12.6523 16.9128 12.363C17.7018 12.0737 18.5443 11.9608 19.3813 12.0321L19.356 12.0081C20.3567 12.1022 21.362 11.8842 22.2348 11.3839C23.1075 10.8836 23.8051 10.1253 24.2328 9.21239C24.6603 8.29951 24.7969 7.27651 24.6239 6.28287C24.451 5.28923 23.9767 4.37334 23.266 3.66008C22.5554 2.94683 21.6426 2.47094 20.6526 2.29731C19.6625 2.12367 18.6431 2.26076 17.7336 2.68986C16.8239 3.11895 16.0683 3.81918 15.5699 4.69504C15.0712 5.57091 14.854 6.57979 14.9478 7.58408L14.9239 7.56008C14.9946 8.39988 14.8817 9.24504 14.5932 10.0366C14.3048 10.8281 13.8478 11.5469 13.254 12.1428C12.6602 12.7388 11.9439 13.1975 11.1552 13.4869C10.3665 13.7763 9.52439 13.8897 8.68759 13.8187L8.7115 13.8427C7.89386 13.7691 7.07093 13.9039 6.31899 14.2345C5.56704 14.565 4.9104 15.0807 4.40991 15.7338C3.90942 16.3867 3.58129 17.1561 3.4559 17.9702C3.33052 18.7845 3.41195 19.6173 3.69264 20.3914C3.97333 21.1657 4.44421 21.8562 5.06164 22.3991C5.67907 22.9422 6.42307 23.3199 7.2247 23.4975C8.02632 23.675 8.85964 23.6466 9.64744 23.415C10.4352 23.1833 11.152 22.7558 11.7313 22.1721H11.7287Z" fill="#E81212"/>
<path d="M52.8838 8.87354H56.8296V28.1442H52.8838V8.87354Z" fill="#E81212"/>
<path d="M59.0644 21.5455C59.059 20.1607 59.4631 18.8052 60.2257 17.6511C60.9883 16.4969 62.0751 15.5959 63.3484 15.0621C64.6217 14.5283 66.0241 14.3857 67.3782 14.6525C68.7323 14.9193 69.977 15.5833 70.9547 16.5607C71.9324 17.5379 72.5991 18.7844 72.8704 20.1423C73.1417 21.5001 73.0052 22.9083 72.4785 24.1883C71.9517 25.4681 71.0582 26.5625 69.9113 27.3324C68.7642 28.1024 67.4154 28.5135 66.0354 28.5135C65.1195 28.524 64.2106 28.3511 63.3619 28.0049C62.5132 27.6588 61.7419 27.1464 61.0929 26.4977C60.4437 25.8489 59.9301 25.0768 59.5819 24.2265C59.2335 23.3763 59.0576 22.4648 59.0644 21.5455ZM69.0606 21.5455C69.0441 20.9485 68.8526 20.3697 68.5103 19.8813C68.1678 19.3931 67.6895 19.0168 67.1352 18.7999C66.5808 18.5828 65.9751 18.5345 65.3936 18.6612C64.8121 18.7879 64.2806 19.0836 63.8657 19.5117C63.4509 19.9397 63.1709 20.4811 63.061 21.068C62.951 21.6548 63.0157 22.2612 63.2473 22.8113C63.4788 23.3615 63.8668 23.8308 64.3626 24.1608C64.8586 24.4908 65.4405 24.6668 66.0354 24.6668C66.4429 24.6777 66.8482 24.6037 67.2259 24.4496C67.6035 24.2955 67.9452 24.0645 68.2294 23.7713C68.5136 23.478 68.7343 23.1288 68.8772 22.7457C69.0203 22.3627 69.0828 21.954 69.0606 21.5455Z" fill="#E81212"/>
<path d="M88.7328 14.9452V27.4786C88.7328 31.9132 85.2865 33.7879 81.7883 33.7879C80.5567 33.8804 79.3234 33.6307 78.2238 33.0663C77.1242 32.5018 76.2008 31.6443 75.5547 30.5879L78.9213 28.6346C79.1928 29.1852 79.6255 29.6395 80.1614 29.9367C80.6973 30.2338 81.3108 30.3596 81.9199 30.2972C82.3091 30.3514 82.7056 30.317 83.0798 30.1966C83.454 30.0762 83.7965 29.8728 84.0818 29.6018C84.3672 29.3306 84.5882 28.9986 84.7285 28.63C84.8686 28.2616 84.9244 27.8663 84.8919 27.4732V26.2666C84.4298 26.8339 83.8418 27.2847 83.1747 27.5827C82.5076 27.8807 81.7804 28.0176 81.051 27.9826C79.3156 27.9276 77.6696 27.1972 76.4614 25.9458C75.2532 24.6944 74.5776 23.0203 74.5776 21.2779C74.5776 19.5355 75.2532 17.8614 76.4614 16.61C77.6696 15.3586 79.3156 14.6282 81.051 14.5732C81.7804 14.5382 82.5076 14.6751 83.1747 14.9731C83.8418 15.2711 84.4298 15.7219 84.8919 16.2892V14.9426L88.7328 14.9452ZM84.8932 21.2799C84.9198 20.6418 84.7553 20.0102 84.4212 19.4666C84.087 18.9228 83.5984 18.492 83.0182 18.2295C82.438 17.9668 81.7928 17.8846 81.1656 17.9931C80.5384 18.1016 79.958 18.396 79.4988 18.8386C79.0398 19.281 78.7232 19.8511 78.5897 20.4756C78.4563 21.1002 78.5121 21.7506 78.7502 22.343C78.9881 22.9354 79.3973 23.4428 79.925 23.7999C80.4527 24.157 81.0749 24.3474 81.7113 24.3466C82.1259 24.3756 82.5419 24.3172 82.9326 24.1751C83.3234 24.033 83.6801 23.8102 83.9798 23.5214C84.2795 23.2324 84.5158 22.8838 84.6731 22.4976C84.8304 22.1116 84.9054 21.6968 84.8932 21.2799Z" fill="#E81212"/>
<path d="M90.9675 21.5455C90.962 20.1607 91.366 18.8052 92.1288 17.6511C92.8914 16.4969 93.9781 15.5959 95.2514 15.0621C96.5247 14.5283 97.9272 14.3857 99.2813 14.6525C100.635 14.9193 101.88 15.5833 102.858 16.5607C103.835 17.5379 104.502 18.7844 104.773 20.1423C105.045 21.5001 104.908 22.9083 104.382 24.1883C103.855 25.4681 102.961 26.5625 101.814 27.3324C100.667 28.1024 99.3185 28.5135 97.9385 28.5135C97.0226 28.524 96.1136 28.3511 95.265 28.0049C94.4163 27.6588 93.6449 27.1464 92.9959 26.4977C92.3468 25.8489 91.8332 25.0768 91.4849 24.2265C91.1366 23.3763 90.9607 22.4648 90.9675 21.5455ZM100.964 21.5455C100.947 20.9485 100.756 20.3697 100.413 19.8813C100.071 19.3931 99.5926 19.0168 99.0383 18.7999C98.4839 18.5828 97.878 18.5345 97.2967 18.6612C96.7151 18.7879 96.1837 19.0836 95.7688 19.5117C95.354 19.9397 95.0739 20.4811 94.9639 21.068C94.8539 21.6548 94.9188 22.2612 95.1503 22.8113C95.3819 23.3615 95.7699 23.8308 96.2657 24.1608C96.7616 24.4908 97.3434 24.6668 97.9385 24.6668C98.346 24.6777 98.7513 24.6037 99.1289 24.4496C99.5066 24.2955 99.8483 24.0645 100.132 23.7713C100.417 23.478 100.637 23.1288 100.78 22.7457C100.923 22.3627 100.986 21.954 100.964 21.5455Z" fill="#E81212"/>
<path d="M106.75 11.4082C106.75 10.9383 106.888 10.4789 107.148 10.0882C107.409 9.69747 107.778 9.39292 108.211 9.2131C108.644 9.03326 109.12 8.9862 109.579 9.07788C110.038 9.16956 110.46 9.39586 110.791 9.72815C111.122 10.0604 111.348 10.4838 111.439 10.9447C111.53 11.4056 111.483 11.8833 111.304 12.3175C111.125 12.7516 110.822 13.1227 110.432 13.3838C110.043 13.6449 109.585 13.7842 109.117 13.7842C108.491 13.778 107.892 13.5257 107.45 13.0814C107.007 12.6372 106.756 12.0364 106.75 11.4082ZM107.148 14.9456H111.095V28.1456H107.143L107.148 14.9456Z" fill="#E81212"/>
<path d="M128.133 21.5455C128.178 22.4179 128.052 23.2907 127.76 24.1138C127.468 24.9369 127.017 25.6939 126.433 26.3415C125.849 26.989 125.143 27.5143 124.356 27.8871C123.568 28.2598 122.716 28.4727 121.846 28.5135C121.115 28.5535 120.384 28.4298 119.706 28.1513C119.028 27.8726 118.421 27.4462 117.928 26.9029V33.4242H113.982V14.9455H117.928V16.1855C118.421 15.6426 119.029 15.2165 119.706 14.9382C120.384 14.6598 121.115 14.5362 121.846 14.5762C122.716 14.6169 123.569 14.8297 124.356 15.2025C125.144 15.5753 125.85 16.1006 126.434 16.7483C127.018 17.3961 127.469 18.1534 127.761 18.9767C128.052 19.7999 128.179 20.673 128.133 21.5455ZM124.187 21.5455C124.172 20.9278 123.975 20.3283 123.622 19.8221C123.268 19.3159 122.774 18.9255 122.201 18.6999C121.628 18.4742 121.001 18.4231 120.399 18.5533C119.797 18.6833 119.247 18.9886 118.817 19.431C118.387 19.8735 118.097 20.4333 117.982 21.0406C117.868 21.6478 117.934 22.2753 118.174 22.8447C118.413 23.4142 118.814 23.9001 119.327 24.2418C119.84 24.5834 120.442 24.7657 121.058 24.7655C121.481 24.7845 121.903 24.7134 122.296 24.5571C122.69 24.401 123.046 24.163 123.341 23.859C123.637 23.5549 123.865 23.1917 124.011 22.793C124.156 22.3943 124.216 21.9691 124.187 21.5455Z" fill="#E81212"/>
<path d="M140.309 24.1841C140.309 27.2201 137.68 28.5135 134.84 28.5135C133.692 28.6177 132.539 28.3743 131.531 27.8141C130.523 27.2541 129.705 26.4035 129.184 25.3721L132.602 23.4188C132.741 23.8955 133.038 24.3103 133.444 24.5936C133.85 24.8771 134.341 25.0121 134.834 24.9761C135.78 24.9761 136.254 24.6855 136.254 24.1588C136.254 22.7055 129.783 23.4721 129.783 18.9055C129.783 16.0268 132.204 14.5761 134.939 14.5761C135.968 14.5435 136.985 14.7883 137.887 15.2849C138.789 15.7817 139.543 16.5121 140.067 17.4001L136.701 19.2215C136.553 18.8757 136.308 18.5812 135.994 18.3747C135.681 18.1681 135.314 18.0588 134.939 18.0601C134.255 18.0601 133.834 18.3268 133.834 18.7988C133.839 20.3041 140.309 19.3001 140.309 24.1841Z" fill="#E81212"/>
<path d="M154.723 14.9453V28.1453H150.777V26.904C150.321 27.4517 149.744 27.8833 149.09 28.1633C148.436 28.4433 147.727 28.5637 147.017 28.5146C144.36 28.5146 142.102 26.6146 142.102 23.048V14.9453H146.047V22.468C146.014 22.7824 146.05 23.1002 146.152 23.3993C146.253 23.6985 146.419 23.9718 146.637 24.2002C146.855 24.4286 147.12 24.6066 147.413 24.722C147.705 24.8373 148.02 24.8872 148.335 24.868C149.782 24.868 150.781 24.024 150.781 22.1493V14.9493L154.723 14.9453Z" fill="#E81212"/>
<path d="M177.349 20.04V28.144H173.403V20.3826C173.403 19.0626 172.772 18.2186 171.509 18.2186C170.194 18.2186 169.457 19.1426 169.457 20.7V28.144H165.512V20.3826C165.512 19.0626 164.881 18.2186 163.618 18.2186C162.302 18.2186 161.566 19.1426 161.566 20.7V28.144H157.621V14.944H161.566V16.1573C161.976 15.619 162.512 15.1921 163.128 14.9157C163.744 14.6392 164.419 14.522 165.091 14.5746C165.766 14.5414 166.438 14.6845 167.043 14.9897C167.646 15.2948 168.16 15.7518 168.536 16.316C168.973 15.7257 169.553 15.2564 170.219 14.9518C170.886 14.6473 171.62 14.5176 172.35 14.5746C175.37 14.576 177.349 16.74 177.349 20.04Z" fill="#E81212"/>
<path d="M180.686 14.8641C182.303 14.8641 183.614 13.5484 183.614 11.9255C183.614 10.3025 182.303 8.98682 180.686 8.98682C179.069 8.98682 177.758 10.3025 177.758 11.9255C177.758 13.5484 179.069 14.8641 180.686 14.8641Z" fill="#E81212"/>
</svg>
