<svg width="20" height="20" viewBox="0 0 20 20" fill="none" xmlns="http://www.w3.org/2000/svg">
<path d="M14.5518 19.7524C14.0928 19.7524 13.6309 19.6904 13.1749 19.5654C7.00986 17.8734 2.12885 12.9954 0.435851 6.83441C0.0508506 5.43341 0.261798 3.97341 1.0318 2.72541C1.8048 1.47141 3.07586 0.586403 4.51886 0.298403C5.47886 0.106403 6.42785 0.53441 6.91485 1.35541L8.47784 3.99539C9.23684 5.27739 8.85971 6.9284 7.61871 7.7544L6.48785 8.50641C7.54485 10.6764 9.3227 12.4594 11.4837 13.5154L12.2459 12.3784C13.0769 11.1394 14.7278 10.7684 16.0088 11.5314L18.6519 13.1074C19.4699 13.5954 19.8928 14.5504 19.7068 15.4824C19.4188 16.9254 18.5338 18.1964 17.2808 18.9694C16.4388 19.4874 15.5018 19.7524 14.5518 19.7524ZM4.97784 1.7504C4.92884 1.7504 4.87887 1.75541 4.83087 1.76541C3.77687 1.97641 2.86387 2.61139 2.30987 3.51239C1.76087 4.40239 1.60985 5.4414 1.88385 6.4364C3.43685 12.0894 7.91584 16.5664 13.5718 18.1184C14.5678 18.3914 15.6037 18.2394 16.4927 17.6914C17.3927 17.1364 18.0289 16.2224 18.2359 15.1864C18.2979 14.8754 18.1569 14.5564 17.8829 14.3934L15.2408 12.8174C14.6458 12.4634 13.8778 12.6364 13.4918 13.2114L12.3768 14.8764C12.1768 15.1744 11.7909 15.2884 11.4649 15.1504C8.5019 13.9114 6.09089 11.4954 4.85089 8.5214C4.71289 8.1894 4.82875 7.8074 5.12775 7.6084L6.78888 6.50339C7.36488 6.12039 7.53983 5.35339 7.18683 4.75839L5.62384 2.11939C5.48684 1.88739 5.23884 1.7504 4.97784 1.7504Z" fill="#E6000D"/>
</svg>
