<svg width="42" height="42" viewBox="0 0 42 42" fill="none" xmlns="http://www.w3.org/2000/svg">
<path d="M18.3452 26.3844V32.846C18.3452 33.7377 17.6214 34.4614 16.7297 34.4614C15.838 34.4614 15.1142 33.7377 15.1142 32.846V26.3844C15.1142 25.4927 15.838 24.769 16.7297 24.769C17.6214 24.769 18.3452 25.4927 18.3452 26.3844ZM25.3455 24.769C24.4538 24.769 23.73 25.4927 23.73 26.3844V32.846C23.73 33.7377 24.4538 34.4614 25.3455 34.4614C26.2372 34.4614 26.961 33.7377 26.961 32.846V26.3844C26.961 25.4927 26.2372 24.769 25.3455 24.769ZM38.7196 19.8107L37.2291 34.7264C36.7401 39.62 34.1121 42 29.1925 42H12.8872C7.96755 42 5.33766 39.6221 4.85087 34.7264L3.3645 19.856C1.38071 18.8975 0 16.8836 0 14.5381C0 11.2706 2.65583 8.61489 5.92337 8.61489H10.5694L15.3104 0.779082C15.7713 0.0166094 16.76 -0.228946 17.529 0.234138C18.2915 0.695068 18.5369 1.69019 18.0738 2.45266L14.3454 8.61706H27.5944L23.922 2.44402C23.4653 1.67724 23.7173 0.686455 24.4841 0.229833C25.2509 -0.228943 26.2417 0.0273716 26.6983 0.791998L31.3551 8.6192H36.0766C39.3442 8.6192 42 11.2749 42 14.5424C42 16.8492 40.656 18.835 38.7196 19.8107ZM3.22883 14.5381C3.22883 16.0221 4.4372 17.2304 5.92127 17.2304H36.0766C37.5607 17.2304 38.7691 16.0221 38.7691 14.5381C38.7691 13.054 37.5607 11.8457 36.0766 11.8457H5.92127C4.4372 11.8457 3.22883 13.054 3.22883 14.5381ZM35.4088 20.4612H6.66879L8.06234 34.4054C8.34666 37.2356 9.1975 38.7692 12.8851 38.7692H29.1904C32.8586 38.7692 33.7353 37.1689 34.0131 34.4054L35.4088 20.4612Z" fill="#E6000D"/>
</svg>
