<svg width="44" height="44" viewBox="0 0 44 44" fill="none" xmlns="http://www.w3.org/2000/svg">
<path d="M43.9629 16.9653C42.7398 8.22077 35.7785 1.25876 27.0344 0.0379094C25.9197 -0.120057 24.7846 0.220723 23.9249 0.965419C23.0584 1.71914 22.5619 2.80464 22.5619 3.94877V17.5069C22.5619 19.6733 24.3243 21.4379 26.4928 21.4379H40.0523C41.1942 21.4379 42.2818 20.9413 43.0332 20.077C43.7801 19.2172 44.1186 18.0846 43.9629 16.9653ZM40.4789 17.852C40.4157 17.9265 40.2735 18.0507 40.0523 18.0507H26.4951C26.1927 18.0507 25.949 17.8071 25.949 17.5047V3.94656C25.949 3.72315 26.0731 3.58112 26.1476 3.51793C26.2085 3.46377 26.3281 3.3824 26.4951 3.3824C26.5176 3.3824 26.5425 3.38455 26.565 3.38681C26.5673 3.38681 26.5672 3.38681 26.5672 3.38681C33.8197 4.40005 39.5943 10.1771 40.6097 17.4322C40.6391 17.6353 40.5421 17.7821 40.4789 17.852ZM35.6386 23.4824H22.2099C21.278 23.4824 20.5175 22.7242 20.5175 21.7899V8.36071C20.5175 7.19853 20.0008 6.1084 19.1004 5.37047C18.2181 4.6506 17.0786 4.35949 15.9683 4.5829C10.8189 5.61645 6.19523 8.74186 3.28204 13.1536C0.33725 17.615 -0.671499 23.013 0.440976 28.35C2.00927 35.8759 8.12002 41.987 15.6478 43.5576C17.0649 43.8532 18.4865 44 19.8924 44C23.7849 44 27.5647 42.8805 30.8434 40.7164C35.2549 37.803 38.3802 33.1815 39.4137 28.0318C39.6371 26.926 39.3529 25.782 38.6285 24.8997C37.8906 23.9993 36.8007 23.4824 35.6386 23.4824ZM28.9795 37.8934C25.2765 40.3396 20.7837 41.1768 16.3406 40.2448C10.1103 38.945 5.05333 33.888 3.75582 27.6596C2.82838 23.2118 3.66329 18.7232 6.10712 15.0177C8.52613 11.3529 12.3623 8.76013 16.634 7.9026C16.6611 7.89808 16.6836 7.89571 16.7061 7.89571C16.8145 7.89571 16.898 7.94308 16.9521 7.99047C17.0063 8.03335 17.1303 8.15761 17.1303 8.36071V21.7899C17.1303 24.5904 19.4095 26.8674 22.2076 26.8674H35.6364C35.8394 26.8674 35.9634 26.9914 36.0063 27.0456C36.0605 27.1133 36.1214 27.224 36.0921 27.3685C35.2369 31.6381 32.6442 35.4742 28.9795 37.8934Z" fill="#E6000D"/>
</svg>
