<?xml version="1.0" encoding="utf-8"?>
<!-- Generator: Adobe Illustrator 24.0.1, SVG Export Plug-In . SVG Version: 6.00 Build 0)  -->
<svg version="1.1" id="Artwork" xmlns="http://www.w3.org/2000/svg" xmlns:xlink="http://www.w3.org/1999/xlink" x="0px" y="0px"
	 viewBox="0 0 750.5 251.7" style="enable-background:new 0 0 750.5 251.7;" xml:space="preserve">
<style type="text/css">
	.st0{fill:#FFFFFF;}
	.st1{fill:#4285F4;}
	.st2{fill:#34A853;}
	.st3{fill:#FBBC04;}
	.st4{fill:#EA4335;}
</style>
<g>
	<g>
		<g>
			<path class="st0" d="M587,103.9v57.6h-8.4v-57.6h-18.4v-8.1h45.1v8.1H587z"/>
			<path class="st0" d="M642.7,161.6h-8.8l-23.1-65.7h9.4l18,53.3h0.4l18.7-53.3h9.4L642.7,161.6z"/>
		</g>
		<g>
			<path class="st0" d="M277.1,163c-20.5,0-37.7-16.7-37.7-37.2c0-20.5,17.2-37.2,37.7-37.2c11.3,0,19.4,4.4,25.5,10.2l-7.2,7.2
				c-4.4-4.1-10.2-7.3-18.3-7.3c-15,0-26.7,12.1-26.7,27c0,15,11.7,27,26.7,27c9.7,0,15.2-3.9,18.8-7.4c2.9-2.9,4.8-7.1,5.5-12.8
				h-24.3v-10.2h34.2c0.4,1.8,0.5,4,0.5,6.3c0,7.6-2.1,17-8.8,23.8C296.5,159.4,288.2,163,277.1,163z"/>
			<path class="st0" d="M364.7,139.1c0,13.8-10.6,23.9-23.6,23.9s-23.6-10.2-23.6-23.9c0-13.9,10.6-23.9,23.6-23.9
				S364.7,125.2,364.7,139.1z M354.4,139.1c0-8.6-6.1-14.5-13.3-14.5c-7.1,0-13.3,5.9-13.3,14.5c0,8.5,6.1,14.5,13.3,14.5
				C348.2,153.6,354.4,147.6,354.4,139.1z"/>
			<path class="st0" d="M417.6,139.1c0,13.8-10.6,23.9-23.6,23.9c-13,0-23.6-10.2-23.6-23.9c0-13.9,10.6-23.9,23.6-23.9
				C407,115.1,417.6,125.2,417.6,139.1z M407.3,139.1c0-8.6-6.1-14.5-13.3-14.5c-7.1,0-13.3,5.9-13.3,14.5c0,8.5,6.1,14.5,13.3,14.5
				C401.1,153.6,407.3,147.6,407.3,139.1z"/>
			<path class="st0" d="M469.2,116.6v43c0,17.7-10.4,24.9-22.8,24.9c-11.6,0-18.6-7.8-21.2-14.1l9.2-3.8c1.6,3.9,5.6,8.5,12.1,8.5
				c7.9,0,12.8-4.9,12.8-14.1v-3.4h-0.4c-2.4,2.9-6.9,5.4-12.6,5.4c-12,0-22.9-10.4-22.9-23.8c0-13.5,11-24,22.9-24
				c5.7,0,10.2,2.5,12.6,5.3h0.4v-3.9H469.2z M459.9,139.2c0-8.4-5.6-14.6-12.8-14.6c-7.3,0-13.3,6.2-13.3,14.6
				c0,8.3,6.1,14.4,13.3,14.4C454.3,153.6,459.9,147.5,459.9,139.2z"/>
			<path class="st0" d="M487.6,91.2v70.4h-10.5V91.2H487.6z"/>
			<path class="st0" d="M529,147l8.2,5.4c-2.6,3.9-9,10.6-19.9,10.6c-13.6,0-23.4-10.5-23.4-23.9c0-14.2,9.9-23.9,22.2-23.9
				c12.4,0,18.5,9.9,20.5,15.2l1.1,2.7l-32,13.2c2.4,4.8,6.3,7.3,11.6,7.3S526.2,151,529,147z M503.8,138.4l21.4-8.9
				c-1.2-3-4.7-5.1-8.9-5.1C511,124.4,503.6,129.1,503.8,138.4z"/>
		</g>
	</g>
	<path class="st1" d="M184,83.9h-68c-5.9,0-10.7,4.8-10.7,10.7v10.7h82.9c5.9,0,10.7,4.8,10.7,10.7V98.8
		C198.9,90.5,192.2,83.9,184,83.9z"/>
	<path class="st2" d="M98.8,83.9c-8.2,0-14.9,6.7-14.9,14.9v36.9c0,5.9,4.8,10.7,10.7,10.7h10.7V94.6c0,0,0,0,0,0
		c0-5.9,4.8-10.7,10.7-10.7H98.8z"/>
	<path class="st3" d="M98.8,167.8h68c5.9,0,10.7-4.8,10.7-10.7v-10.7H94.6c-5.9,0-10.7-4.8-10.7-10.7v17.3
		C83.9,161.1,90.5,167.8,98.8,167.8z"/>
	<path class="st4" d="M184,167.8c8.2,0,14.9-6.7,14.9-14.9V116c0-5.9-4.8-10.7-10.7-10.7h-10.7v51.8c0,0,0,0,0,0
		c0,5.9-4.8,10.7-10.7,10.7H184z"/>
</g>
</svg>
