<?xml version="1.0" encoding="utf-8"?>
<!-- Generator: Adobe Illustrator 23.0.4, SVG Export Plug-In . SVG Version: 6.00 Build 0)  -->
<svg version="1.1" xmlns="http://www.w3.org/2000/svg" xmlns:xlink="http://www.w3.org/1999/xlink" x="0px" y="0px"
	 viewBox="0 0 452.6554 148.77472" style="enable-background:new 0 0 452.6554 148.77472;" xml:space="preserve">
<style type="text/css">
	.st0{fill:none;}
</style>
<g id="Layer_1">
	<g>
		<rect class="st0" width="452.6554" height="148.77472"/>
		<g>
			<g>
				<path d="M64.54324,71.08173c-7.35702,0-12.3173,5.78634-12.3173,13.22476c0,7.4371,4.96029,13.22609,12.31731,13.22609
					c7.35703-0.00001,12.31731-5.78901,12.31731-13.2261C76.86055,76.86805,71.90026,71.08172,64.54324,71.08173 M62.88981,62.81592
					c5.95181,0,10.91209,3.05864,13.2261,6.36549l-0.00001-5.53945l9.09186,0l0.00002,41.32637h-6.17587
					c-1.61045,0-2.91599-1.30553-2.91599-2.91599v-2.61946c-2.314,3.30686-7.27428,6.36284-13.22609,6.36284
					c-11.32178,0.00001-19.91854-9.66968-19.91855-21.48922C42.97127,72.48695,51.56803,62.81592,62.88981,62.81592"/>
				<path d="M95.53188,63.64235l9.09452,0v5.62085c2.47681-4.1329,7.19022-6.4469,12.56286-6.44691
					c9.58694,0,15.78563,6.77785,15.78564,17.27358l0.00002,24.87883h-6.17587c-1.61046,0-2.91599-1.30553-2.91599-2.91599
					l-0.00001-20.47356c0-6.53098-3.30686-10.49706-8.59544-10.49706c-6.03321,0-10.6612,4.71074-10.6612,13.55305l0.00002,20.33356
					l-6.17854,0.00001c-1.61046,0-2.91599-1.30553-2.91599-2.91599L95.53188,63.64235z"/>
				<path d="M161.74242,71.08167c-7.35435,0.00001-12.31465,5.78634-12.31465,13.22477
					c0.00002,7.43709,4.9603,13.22609,12.31465,13.22608c7.35437,0,12.31464-5.789,12.31464-13.2261
					C174.05705,76.868,169.09677,71.08167,161.74242,71.08167 M160.08897,62.81587c5.95181,0,10.91077,3.05864,13.22476,6.36549
					l-0.00002-26.2013l9.09053,0l0.00003,61.98822h-6.17455c-1.61044,0-2.91599-1.30553-2.91599-2.91599v-2.61946
					c-2.314,3.30685-7.27295,6.36283-13.22475,6.36284c-11.32445,0-19.91989-9.66968-19.91989-21.48923
					S148.76453,62.81587,160.08897,62.81587"/>
				<path d="M192.73105,63.6423l9.09186,0v7.35703c1.56935-4.71207,6.19868-7.77072,10.91209-7.77072
					c1.15433,0,2.314,0.08407,3.5524,0.33229v9.34007c-1.57069-0.49776-2.89183-0.74598-4.54526-0.74597
					c-5.20717,0-9.91924,4.38112-9.91924,12.64693l0.00002,20.16676h-6.17586c-1.61046,0.00001-2.91599-1.30553-2.91599-2.91599
					L192.73105,63.6423z"/>
				<path d="M240.80394,97.36635c7.27293-0.00001,12.3987-5.70493,12.3987-13.05929c0-7.35569-5.12578-13.05928-12.39871-13.05928
					c-7.3557,0.00001-12.48012,5.70361-12.48012,13.0593C228.32381,91.66142,233.44823,97.36635,240.80394,97.36635
					 M240.80394,105.79496c-12.23325,0.00001-21.65472-9.50553-21.65472-21.48788
					c-0.00002-11.98502,9.42145-21.49191,21.65469-21.49191c12.23323-0.00001,21.65471,9.50687,21.65471,21.49189
					C262.45862,96.28941,253.03716,105.79495,240.80394,105.79496"/>
				<path d="M269.82938,63.642l9.0892-0.00001v41.32638h-6.17319c-1.61047,0-2.91599-1.30553-2.91599-2.91599L269.82938,63.642z
					 M274.37198,54.63421c-3.30688,0-6.11462-2.72635-6.11462-6.11728c0-3.30685,2.80774-6.03321,6.11462-6.03321
					c3.38824,0,6.03586,2.72636,6.03586,6.03321C280.40784,51.90786,277.76022,54.63421,274.37198,54.63421"/>
				<path d="M307.96448,71.0816c-7.35434,0-12.31464,5.78634-12.31464,13.22476c0,7.4371,4.9603,13.22609,12.31467,13.22609
					c7.35703-0.00001,12.31729-5.78901,12.31729-13.2261C320.2818,76.86793,315.3215,71.0816,307.96448,71.0816 M306.31107,62.8158
					c5.95178,0,10.91205,3.05864,13.22607,6.36549v-26.2013l9.09186,0l0.00003,61.98822h-6.17587
					c-1.61047,0.00001-2.91599-1.30553-2.91599-2.91599v-2.61946c-2.31403,3.30686-7.27429,6.36284-13.2261,6.36284
					c-11.32178,0.00001-19.91855-9.66968-19.91855-21.48922C286.39249,72.48683,294.98926,62.8158,306.31107,62.8158"/>
			</g>
			<g>
				<path d="M344.43408,68.89925h-8.89319V63.4147h8.89319V51.86038h5.81845V63.4147h12.13452v5.48456h-12.13452v24.02129
					c0,5.07023,2.24396,7.06358,6.89844,7.06358c1.66229,0,3.90625-0.33176,5.23608-0.91409v5.23682
					c-1.91147,0.74751-3.90625,1.08068-6.15018,1.08068c-7.065,0-11.8028-4.07355-11.8028-11.96865V68.89925z"/>
				<path d="M409.68356,63.4147l-19.4487,41.55708h-4.57187l-19.4487-41.55708h6.48337l15.20999,32.99564l15.20996-32.99564
					H409.68356z"/>
			</g>
		</g>
	</g>
</g>
<g id="Layer_2">
</g>
</svg>
