<svg width="50" height="47" viewBox="0 0 50 47" fill="none" xmlns="http://www.w3.org/2000/svg">
<path d="M37.1351 46.3755C36.4126 46.3755 35.6875 46.2029 35.015 45.8504L25.2952 40.763C25.1102 40.6655 24.89 40.6655 24.705 40.763L14.9924 45.8456C13.4449 46.6556 11.6052 46.5205 10.1902 45.4905C8.78269 44.463 8.08764 42.7605 8.38264 41.043L10.2351 30.2904C10.2701 30.0879 10.2024 29.883 10.0574 29.7405L1.95503 21.8755C0.752526 20.708 0.325161 18.9904 0.842661 17.3929C1.36016 15.7954 2.71495 14.653 4.37995 14.4105L15.5851 12.7904C15.7901 12.7604 15.9651 12.633 16.0551 12.4505L20.9125 2.65555C21.6875 1.09305 23.2526 0.123047 24.9976 0.123047C26.7426 0.123047 28.3077 1.09305 29.0827 2.65555L33.9374 12.448C34.0299 12.633 34.2052 12.7604 34.4102 12.7904L45.615 14.4105C47.28 14.6505 48.6351 15.7929 49.1526 17.3929C49.6701 18.9904 49.2424 20.708 48.0399 21.8755L39.9399 29.7379C39.79 29.8829 39.7252 30.0879 39.7602 30.2904L41.6126 41.048C41.9076 42.763 41.2175 44.4655 39.8075 45.4905C39.0125 46.078 38.0751 46.3755 37.1351 46.3755ZM25.0001 36.9405C25.6976 36.9405 26.3975 37.1055 27.0325 37.438L36.7527 42.5255C37.1402 42.7305 37.4551 42.573 37.605 42.463C37.7551 42.3555 37.9925 42.108 37.92 41.688L36.0676 30.9279C35.8226 29.5029 36.2975 28.0529 37.335 27.0479L45.4325 19.188C45.675 18.953 45.635 18.6879 45.59 18.5529C45.545 18.4154 45.42 18.1755 45.0825 18.1255L33.8776 16.5055C32.4501 16.3005 31.2177 15.4055 30.5802 14.1155L25.7276 4.32547C25.5351 3.93547 25.19 3.87793 25.0025 3.87793C24.815 3.87793 24.4702 3.93547 24.2777 4.32547L19.4227 14.118C18.7877 15.4055 17.5552 16.3005 16.1277 16.5055L4.92256 18.1255C4.58506 18.1755 4.45755 18.4129 4.41505 18.5529C4.37005 18.6904 4.33252 18.953 4.57252 19.188L12.6725 27.0505C13.7075 28.053 14.1824 29.5029 13.9374 30.9279L12.085 41.6805C12.0125 42.103 12.2527 42.3505 12.4027 42.4605C12.5577 42.5705 12.8625 42.7254 13.26 42.5229L22.9725 37.4406C23.6025 37.1081 24.3026 36.9405 25.0001 36.9405Z" fill="#E6000D"/>
</svg>
