<svg width="84" height="84" viewBox="0 0 84 84" fill="none" xmlns="http://www.w3.org/2000/svg">
<path d="M32.2979 71.9258H51.7061C52.6941 71.9258 53.4951 72.7268 53.4951 73.7148C53.4951 74.7016 52.6912 75.5037 51.7021 75.5039H32.2979C31.3098 75.5039 30.5088 74.7029 30.5088 73.7148C30.5088 72.7268 31.3098 71.9258 32.2979 71.9258Z" fill="#E6000D" stroke="#EAEAEA"/>
<path d="M6.19727 13.5H76.8027C77.7401 13.5 78.5 14.2598 78.5 15.1973V61.1113C78.4998 62.0485 77.7399 62.8086 76.8027 62.8086H63.3389L64.6387 63.7178C67.271 65.5595 69.9171 68.0008 71.5762 71.0674C72.0221 71.8918 71.7149 72.9213 70.8906 73.3672C70.0662 73.8132 69.0368 73.5068 68.5908 72.6826C66.9899 69.7238 64.2032 67.4284 61.6445 65.8008C59.0778 64.1681 56.6904 63.1758 55.8311 62.8418L55.7441 62.8086H27.2559L27.1689 62.8418C26.3096 63.1758 23.9222 64.1681 21.3555 65.8008C18.7968 67.4283 16.0101 69.7238 14.4092 72.6826C13.991 73.4554 13.0594 73.7734 12.2656 73.4424L12.1094 73.3672L11.9609 73.2773C11.2495 72.7939 11.0058 71.8403 11.4238 71.0674C13.0829 68.0006 15.729 65.5593 18.3613 63.7178L19.6611 62.8086H6.19727C5.26008 62.8086 4.50024 62.0485 4.5 61.1113V15.1973C4.5 14.2599 5.25993 13.5 6.19727 13.5ZM7.89453 59.4131H75.1055V16.8945H7.89453V59.4131Z" fill="#E6000D" stroke="#EAEAEA"/>
<path d="M31.8721 23.9863C31.8721 22.6702 33.3119 21.8535 34.4414 22.5293L50.3018 32.0225C51.4004 32.6799 51.4014 34.2764 50.3018 34.9346L34.4414 44.4268C33.3182 45.0988 31.8721 44.2933 31.8721 42.9707V23.9863ZM35.2666 39.9775L36.0234 39.5244L45.4082 33.9072L46.125 33.4785L45.4082 33.0498L36.0234 27.4326L35.2666 26.9795V39.9775Z" fill="#E6000D" stroke="#EAEAEA"/>
<path d="M58.9395 46.5754C59.8768 46.5754 60.6367 47.3354 60.6367 48.2727V49.1594H68.0137C68.951 49.1594 69.7109 49.9194 69.7109 50.8567C69.7109 51.794 68.951 52.554 68.0137 52.554H60.6367V53.4407C60.6367 54.378 59.8768 55.1379 58.9395 55.1379C58.0022 55.1379 57.2422 54.378 57.2422 53.4407V52.554H14.9863C14.049 52.554 13.2891 51.794 13.2891 50.8567C13.2891 49.9194 14.049 49.1594 14.9863 49.1594H57.2422V48.2727C57.2422 47.3354 58.0022 46.5755 58.9395 46.5754Z" fill="#E6000D" stroke="#EAEAEA"/>
</svg>
