<svg width="84" height="84" viewBox="0 0 84 84" fill="none" xmlns="http://www.w3.org/2000/svg">
<path d="M12.2559 8.49707H71.7441C77.4026 8.49707 82.0088 13.1033 82.0088 18.7617V55.7051C82.0087 61.3634 77.4025 65.9697 71.7441 65.9697H12.2559C6.59747 65.9697 1.99132 61.3634 1.99121 55.7051V18.7617C1.99121 13.1033 6.5974 8.49707 12.2559 8.49707ZM12.2559 12.0752C8.56932 12.0752 5.56934 15.0752 5.56934 18.7617V55.7051C5.56945 59.3915 8.56939 62.3916 12.2559 62.3916H71.7441C75.4306 62.3916 78.4315 59.3915 78.4316 55.7051V18.7617C78.4316 15.0752 75.4307 12.0752 71.7441 12.0752H12.2559Z" fill="#E6000D" stroke="#EAEAEA"/>
<path d="M32.2983 71.9258H51.7065C52.6946 71.9258 53.4956 72.7268 53.4956 73.7148C53.4956 74.7016 52.6917 75.5037 51.7026 75.5039H32.2983C31.3103 75.5039 30.5093 74.7029 30.5093 73.7148C30.5093 72.7268 31.3103 71.9258 32.2983 71.9258Z" fill="#E6000D" stroke="#EAEAEA"/>
</svg>
