<svg width="44" height="44" viewBox="0 0 44 44" fill="none" xmlns="http://www.w3.org/2000/svg">
<path d="M13.814 31.7209C12.9667 31.7209 12.2791 31.0333 12.2791 30.186V19.9535C12.2791 19.1062 12.9667 18.4186 13.814 18.4186C14.6612 18.4186 15.3488 19.1062 15.3488 19.9535V30.186C15.3488 31.0333 14.6612 31.7209 13.814 31.7209ZM23.5349 30.186V13.814C23.5349 12.9667 22.8473 12.2791 22 12.2791C21.1527 12.2791 20.4651 12.9667 20.4651 13.814V30.186C20.4651 31.0333 21.1527 31.7209 22 31.7209C22.8473 31.7209 23.5349 31.0333 23.5349 30.186ZM31.7209 30.186V24.0465C31.7209 23.1993 31.0333 22.5116 30.186 22.5116C29.3388 22.5116 28.6512 23.1993 28.6512 24.0465V30.186C28.6512 31.0333 29.3388 31.7209 30.186 31.7209C31.0333 31.7209 31.7209 31.0333 31.7209 30.186ZM44 22C44 9.86828 34.1317 0 22 0C9.86828 0 0 9.86828 0 22C0 34.1317 9.86828 44 22 44C34.1317 44 44 34.1317 44 22ZM40.9302 22C40.9302 32.4393 32.4393 40.9302 22 40.9302C11.5607 40.9302 3.06977 32.4393 3.06977 22C3.06977 11.5607 11.5607 3.06977 22 3.06977C32.4393 3.06977 40.9302 11.5607 40.9302 22Z" fill="#E6000D"/>
</svg>
