<svg width="61" height="61" viewBox="0 0 61 61" fill="none" xmlns="http://www.w3.org/2000/svg">
<path d="M18.5264 50.3916L4.52441 56.3486C4.08646 56.535 3.73346 56.8561 3.50684 57.252L3.20703 57.7754H22.4492L21.9268 57.1924C20.0791 55.1277 19.317 52.5627 19.0088 50.6572L18.9375 50.2168L18.5264 50.3916ZM38.7803 46.0322C36.3921 47.5433 33.5386 48.3584 30.5 48.3584C27.4614 48.3584 24.6079 47.5433 22.2197 46.0322L21.6826 45.6924V48.0977C21.6826 48.1173 21.6825 48.134 21.6816 48.1494L21.6807 48.1611V48.1797C21.6805 48.1902 21.6798 48.2051 21.6797 48.2236C21.6794 48.2605 21.6797 48.3128 21.6807 48.3789C21.6825 48.5119 21.6879 48.7018 21.7031 48.9355C21.7335 49.4025 21.8017 50.0493 21.9531 50.7812C22.2547 52.2391 22.8936 54.0693 24.2549 55.4775C25.7435 57.017 27.8615 57.7754 30.5 57.7754C33.148 57.7754 35.2711 57.0116 36.7607 55.4609C38.1063 54.0597 38.7415 52.2346 39.043 50.7803C39.3452 49.3221 39.3206 48.1976 39.3193 48.1582L39.3184 48.1494C39.3175 48.134 39.3174 48.1173 39.3174 48.0977V45.6924L38.7803 46.0322ZM41.9912 50.6572C41.683 52.5627 40.9209 55.1277 39.0732 57.1924L38.5508 57.7754H57.7939L57.4932 57.252C57.2662 56.8565 56.9138 56.535 56.4756 56.3486L42.4736 50.3916L42.0625 50.2168L41.9912 50.6572ZM12.3848 20.9346C11.2064 20.9347 10.2482 21.893 10.248 23.0713V30.7578C10.2482 31.9362 11.2064 32.8944 12.3848 32.8945H15.7139V20.9346H12.3848ZM45.2861 32.8945H48.6152C49.7936 32.8944 50.7518 31.9362 50.752 30.7578V23.0713C50.7518 21.893 49.7936 20.9347 48.6152 20.9346H45.2861V32.8945ZM30.5 3.22461C25.0662 3.22461 20.964 4.62044 18.3789 7.44727L18.1338 7.72559C16.1175 10.0925 15.0348 13.4577 14.8682 17.6963L14.8545 18.0605H16.0039L16.0723 17.7979C17.033 14.0972 18.4616 11.8542 20.3555 10.8262C22.8724 9.46055 25.5113 10.4648 27.7881 11.3496V11.3506C28.2733 11.539 28.7797 11.7348 29.2402 11.8838C29.6923 12.03 30.1406 12.1445 30.5 12.1445C30.8588 12.1444 31.301 12.0303 31.7451 11.8838C32.1976 11.7345 32.6931 11.5372 33.168 11.3486C35.3657 10.4752 37.9133 9.48229 40.4082 10.7832C42.3659 11.8042 43.8264 14.0045 44.8965 17.8047L44.9688 18.0605H46.1455L46.1318 17.6963C45.9699 13.5902 44.9495 10.3035 43.0527 7.9502L42.8662 7.72559L42.6211 7.44727C40.036 4.62044 35.9338 3.22461 30.5 3.22461ZM18.8086 43.0049L18.7324 42.9092C17.1637 40.9402 16.1713 38.5943 15.8389 36.0732L15.7988 35.7686H12.3848C9.62209 35.7684 7.37414 33.5205 7.37402 30.7578V23.0713C7.37416 20.546 9.25359 18.4512 11.6875 18.1104L11.9795 18.0693L11.9893 17.7744C12.1804 12.0226 13.8815 7.68198 16.9648 4.77637C20.0499 1.86928 24.5704 0.349609 30.5 0.349609C36.4296 0.349609 40.9501 1.86928 44.0352 4.77637C47.1185 7.68198 48.8196 12.0226 49.0107 17.7744L49.0205 18.0693L49.3125 18.1104C51.7464 18.4512 53.6258 20.546 53.626 23.0713V30.7578C53.6259 33.5205 51.3779 35.7684 48.6152 35.7686H45.2012L45.1611 36.0732C44.8287 38.5939 43.8364 40.9397 42.2676 42.9092L42.1914 43.0049V47.1475L42.4043 47.2383L57.6006 53.7031C59.4526 54.491 60.649 56.3008 60.6494 58.3135L60.6504 59.2129C60.6503 59.5936 60.4986 59.9588 60.2295 60.2285C59.96 60.498 59.5943 60.6504 59.2129 60.6504H1.78711C1.40625 60.6504 1.04099 60.498 0.771484 60.2285H0.770508C0.501193 59.9594 0.349736 59.5942 0.349609 59.2129V58.3135C0.35064 56.3006 1.54721 54.491 3.39941 53.7031L18.5957 47.2383L18.8086 47.1475V43.0049ZM42.4121 19.666L42.4023 19.625C41.3847 15.4231 40.0992 13.864 39.0791 13.332C38.3707 12.9626 37.5658 12.9829 36.7578 13.1592C35.9509 13.3352 35.0841 13.6799 34.2295 14.0195C32.889 14.5517 31.7018 15.0186 30.5 15.0186C29.3084 15.0186 28.1051 14.556 26.748 14.0293C25.8939 13.6976 24.9909 13.3455 24.1445 13.165C23.3535 12.9964 22.5547 12.9645 21.8633 13.2842L21.7266 13.3525C21.0185 13.7366 20.4148 14.4995 19.9043 15.54C19.3904 16.5878 18.9515 17.9574 18.5957 19.6113L18.5879 19.6475V34.1729C18.5879 40.6324 23.7332 45.4844 30.5 45.4844C35.7252 45.4844 39.9872 42.5929 41.6562 38.2861L42.0557 37.2549L41.1357 37.8682L40.4512 38.3242C38.8398 39.3991 36.9646 39.9678 35.0273 39.9678H32.0049C31.2115 39.9678 30.5674 39.324 30.5674 38.5303C30.5674 37.7365 31.2115 37.0928 32.0049 37.0928H35.0273C36.3948 37.0928 37.7193 36.6918 38.8564 35.9336L42.2568 33.667L42.4121 33.5625V19.666Z" fill="#E6000D" stroke="white" stroke-width="0.7"/>
</svg>
