<svg width="44" height="44" viewBox="0 0 44 44" fill="none" xmlns="http://www.w3.org/2000/svg">
<path d="M19.0766 20.5385C23.8997 20.5385 27.8459 16.5923 27.8459 11.7692C27.8459 6.94615 23.8997 3 19.0766 3C14.2535 3 10.3074 6.94615 10.3074 11.7692C10.3074 16.5923 14.2535 20.5385 19.0766 20.5385ZM19.0766 5.92308C22.292 5.92308 24.9228 8.55385 24.9228 11.7692C24.9228 14.9846 22.292 17.6154 19.0766 17.6154C15.8612 17.6154 13.2305 14.9846 13.2305 11.7692C13.2305 8.55385 15.8612 5.92308 19.0766 5.92308Z" fill="#E6000D"/>
<path d="M19.0766 22.731C9.86894 22.731 2.26894 30.331 2.26894 39.5386C2.26894 40.4156 2.85355 41.0002 3.73047 41.0002C4.6074 41.0002 5.19201 40.4156 5.19201 39.5386C5.19201 31.9386 11.4766 25.654 19.0766 25.654C26.6766 25.654 32.9612 31.9386 32.9612 39.5386C32.9612 40.4156 33.6225 40.5005 34.4994 40.5005C35.3763 40.5005 35.8843 40.4156 35.8843 39.5386C35.8843 30.331 28.2843 22.731 19.0766 22.731Z" fill="#E6000D"/>
<circle cx="32.7312" cy="32.001" r="7.75" fill="white" stroke="#E6000D" stroke-width="2.5"/>
<path d="M36.2397 29.2342L32.0224 33.0782L30.2228 31.4378C29.8815 31.1268 29.3283 31.1268 28.9871 31.4378C28.6459 31.7489 28.6459 32.2532 28.9871 32.5642L31.4046 34.7678C31.5751 34.9232 31.7988 35.001 32.0224 35.001C32.246 35.001 32.4696 34.9232 32.6402 34.7678L37.4752 30.3606C37.8165 30.0496 37.8165 29.5453 37.4753 29.2343C37.1342 28.9233 36.5809 28.9232 36.2397 29.2342Z" fill="#E6000D"/>
</svg>
