<svg width="44" height="44" viewBox="0 0 44 44" fill="none" xmlns="http://www.w3.org/2000/svg">
<path d="M32.2536 36.528C33.5157 35.2586 34.7443 34.0203 36.0315 32.7245C35.5104 32.1006 34.9642 31.4001 34.3666 30.7463C33.9316 30.2705 33.9662 29.857 34.234 29.2952C34.7467 28.223 35.1913 27.1137 35.5941 25.9949C35.7805 25.4761 36.0339 25.1845 36.5944 25.151C37.3689 25.1044 38.1434 25.041 38.9142 24.9466C39.0768 24.9263 39.3469 24.7422 39.3493 24.631C39.378 22.9635 39.3684 21.2949 39.3684 19.5784C38.4481 19.4923 37.5816 19.3836 36.7127 19.3405C36.1116 19.3106 35.8044 19.0644 35.5953 18.4835C35.1805 17.3264 34.6941 16.1921 34.179 15.0756C33.9579 14.5963 33.9447 14.2269 34.2949 13.8241C34.8949 13.1368 35.4722 12.4304 36.0291 11.767C34.7586 10.5023 33.5228 9.27114 32.2297 7.98139C31.6058 8.50375 30.8947 9.07033 30.2158 9.67397C29.7975 10.0469 29.421 10.0493 28.9166 9.81741C27.8004 9.30103 26.6626 8.82648 25.5092 8.40095C24.9654 8.20133 24.6941 7.92043 24.6642 7.33472C24.62 6.46214 24.5184 5.59195 24.4371 4.67992C24.2638 4.65959 24.1133 4.62613 23.9627 4.62613C22.5093 4.62254 21.0548 4.63688 19.6015 4.61417C19.1927 4.6082 19.0445 4.73131 19.0254 5.1449C18.9884 5.93978 18.8904 6.73109 18.8306 7.52478C18.7983 7.9539 18.5832 8.18699 18.1792 8.34597C16.9243 8.83963 15.6801 9.3596 14.4431 9.8951C14.0153 10.0804 13.6818 9.99431 13.3495 9.70863C12.6563 9.11336 11.9548 8.52765 11.2759 7.9551C10.0174 9.22692 8.79117 10.4665 7.49919 11.7706C7.93423 12.2869 8.42425 12.8774 8.92503 13.4595C9.69591 14.3572 9.6983 14.3668 9.1533 15.3876C8.98478 15.7032 8.84256 16.0331 8.67165 16.3474C8.4362 16.7778 8.05255 16.9391 7.61512 16.7347C7.18725 16.5339 7.03546 16.1538 7.21474 15.684C7.22191 15.6649 7.2231 15.6422 7.23505 15.6279C7.89957 14.8127 7.57568 14.1815 6.90638 13.5564C6.50241 13.1786 6.17852 12.7137 5.82595 12.2822C5.41481 11.7777 5.41003 11.4263 5.85822 10.9733C7.3976 9.41578 8.94415 7.86545 10.4991 6.32229C10.9508 5.87404 11.3058 5.87046 11.8126 6.28643C12.4591 6.81715 13.101 7.35385 13.7224 7.91206C13.9806 8.14396 14.185 8.17982 14.5136 8.02681C15.2869 7.66583 16.0984 7.38493 16.8729 7.02633C17.0582 6.94027 17.2578 6.69164 17.284 6.49441C17.3952 5.66725 17.4442 4.83053 17.5147 3.99739C17.5757 3.28258 17.8063 3.0244 18.5234 3.01722C20.6939 2.9969 22.8643 2.99571 25.0359 3.00766C25.673 3.01125 25.918 3.26346 25.9849 3.91371C26.0733 4.76478 26.1152 5.62183 26.2263 6.46931C26.2526 6.66893 26.4343 6.93071 26.6136 7.01318C27.4071 7.37776 28.2187 7.70886 29.0409 8.00171C29.2501 8.07582 29.5919 8.04713 29.7616 7.91924C30.4273 7.41481 31.0429 6.84584 31.6882 6.31272C32.2344 5.86209 32.5571 5.86089 33.0412 6.33902C34.5841 7.86545 36.1211 9.39904 37.6474 10.941C38.1386 11.4371 38.1386 11.7431 37.6892 12.2941C37.1478 12.9575 36.5705 13.5922 36.0518 14.2712C35.9335 14.4266 35.9036 14.7433 35.9741 14.9346C36.2693 15.7354 36.6398 16.51 36.9362 17.3109C37.0569 17.6384 37.2016 17.7794 37.5637 17.7974C38.4183 17.8392 39.268 17.948 40.1226 18.0066C40.6867 18.0448 40.9747 18.3628 40.9795 18.8839C40.9998 21.1347 41.0058 23.3855 40.9819 25.6351C40.9759 26.2041 40.5696 26.4467 40.0174 26.4862C39.164 26.5459 38.3095 26.6117 37.4609 26.7216C37.2816 26.7443 37.0558 26.9356 36.9781 27.1065C36.6159 27.9014 36.3207 28.7274 35.9526 29.5211C35.8104 29.8295 35.8498 30.0171 36.0614 30.255C36.6159 30.8802 37.1514 31.5232 37.6868 32.1663C38.1458 32.7174 38.1326 33.0521 37.6235 33.5625C36.1343 35.0566 34.6415 36.5484 33.1452 38.0365C32.5583 38.6199 32.238 38.6258 31.6094 38.0963C31.0154 37.5967 30.413 37.1042 29.8357 36.5866C29.5477 36.3284 29.2955 36.2388 28.9501 36.4826C28.7421 36.6285 28.4936 36.7265 28.2509 36.8125C27.7992 36.9715 27.4585 36.7803 27.2625 36.3822C27.0689 35.989 27.1944 35.61 27.5565 35.3925C28.0836 35.0757 28.6262 34.7542 29.2059 34.5665C29.4796 34.4781 29.917 34.6108 30.168 34.796C30.8994 35.3375 31.5747 35.9555 32.2524 36.5269L32.2536 36.528Z" fill="#E6000D" stroke="#E6000D" stroke-width="0.6"/>
<path d="M33.1684 22.1705C33.0548 26.0696 31.531 29.1475 28.4702 31.4294C28.2288 31.6099 27.8379 31.7259 27.5559 31.6709C27.3407 31.629 27.0431 31.2692 27.0419 31.0505C27.0408 30.7684 27.2296 30.3943 27.4579 30.2186C28.6602 29.2946 29.6558 28.2056 30.3801 26.8693C32.7812 22.4394 31.3493 16.8118 27.1184 14.0638C22.8612 11.2978 17.1734 12.229 14.0767 16.1974C13.9417 16.3696 13.8198 16.5536 13.6716 16.7138C13.3608 17.0521 12.9903 17.1394 12.6079 16.8549C12.2123 16.5608 12.1071 16.1377 12.4178 15.7576C13.0202 15.0212 13.6082 14.2431 14.3313 13.6395C17.7495 10.7874 21.6386 10.0427 25.7858 11.6158C29.9319 13.1888 32.3437 16.3146 33.0345 20.7205C33.1146 21.2297 33.129 21.7497 33.166 22.1717L33.1684 22.1705Z" fill="#E6000D" stroke="#E6000D" stroke-width="0.6"/>
<path d="M22.9997 22.1085C21.5571 23.562 20.1182 25.0191 18.672 26.4678C15.2956 29.8506 11.9169 33.2309 8.53815 36.6113C8.46763 36.6818 8.39712 36.7524 8.32182 36.8169C7.87961 37.1958 7.41827 37.2161 7.10753 36.8372C6.77408 36.432 6.84101 36.028 7.20195 35.6646C8.14374 34.7191 9.08673 33.7748 10.0309 32.8317C13.8901 28.9744 17.7505 25.1171 21.6097 21.2586C21.7018 21.1666 21.7806 21.059 21.9671 20.839C21.587 20.839 21.3384 20.839 21.091 20.839C19.5971 20.839 18.1019 20.8689 16.6103 20.8151C16.2996 20.8044 15.9064 20.5462 15.7295 20.282C15.6171 20.1147 15.7713 19.6844 15.9267 19.4525C16.0283 19.3007 16.345 19.2337 16.5661 19.2325C18.9959 19.217 21.4269 19.2158 23.8567 19.223C24.4877 19.2242 24.7745 19.5051 24.7769 20.1338C24.7853 22.5639 24.7841 24.9952 24.7769 27.4253C24.7757 28.0002 24.4662 28.36 24.0037 28.3767C23.5328 28.3947 23.1718 28.0002 23.1682 27.4097C23.1599 25.9359 23.1682 24.4609 23.1706 22.987C23.1706 22.7133 23.1706 22.4408 23.1706 22.167C23.1144 22.1467 23.0571 22.1264 23.0009 22.1073L22.9997 22.1085Z" fill="#E6000D" stroke="#E6000D" stroke-width="0.6"/>
<path d="M9.0095 21.031C7.91472 21.031 7.00878 21.031 6.10165 21.031C5.92237 21.031 5.74309 21.0358 5.56382 21.0262C5.0248 20.9975 4.7033 20.7011 4.7021 20.2385C4.70091 19.7699 5.01763 19.4567 5.55665 19.4508C6.75062 19.4376 7.94579 19.446 9.13977 19.446C9.73736 19.446 10.3337 19.4424 10.9313 19.446C11.462 19.4496 11.7596 19.7257 11.7632 20.2504C11.7751 22.0625 11.7751 23.8746 11.7632 25.6856C11.7596 26.2031 11.4094 26.5342 10.9445 26.5032C10.4425 26.4697 10.1939 26.1685 10.1879 25.6796C10.1772 24.764 10.182 23.8484 10.1772 22.9315C10.1772 22.7451 10.1581 22.5574 10.1473 22.3709C10.0923 22.3422 10.0373 22.3148 9.98237 22.2861C9.02862 23.265 8.07846 24.2488 7.11993 25.223C6.29646 26.0597 5.46223 26.8869 4.63159 27.7176C4.08659 28.2627 3.62047 28.3559 3.2428 27.9973C2.84959 27.6232 2.93683 27.1415 3.5153 26.5629C5.1467 24.9289 6.7805 23.2973 8.41191 21.6645C8.57206 21.5043 8.72385 21.3346 9.01069 21.0298L9.0095 21.031Z" fill="#E6000D" stroke="#E6000D" stroke-width="0.6"/>
<path d="M22.8396 35.1259C22.701 35.255 22.5576 35.3793 22.4237 35.5131C20.7612 37.1722 19.0999 38.8325 17.4386 40.4917C17.3681 40.5622 17.3 40.6339 17.2259 40.7008C16.81 41.0726 16.3104 41.106 16.0128 40.7522C15.677 40.353 15.7236 39.9418 16.0833 39.5784C16.9654 38.6867 17.8546 37.8046 18.7414 36.9164C19.5852 36.0714 20.429 35.2263 21.2704 34.3788C21.4054 34.2425 21.5309 34.0979 21.7819 33.8242C21.3971 33.8242 21.17 33.8242 20.9429 33.8242C20.0668 33.8242 19.1908 33.8433 18.3159 33.817C17.7745 33.8002 17.4709 33.4715 17.502 32.9934C17.5343 32.4902 17.839 32.2415 18.3255 32.2404C20.1373 32.2332 21.948 32.2308 23.7599 32.2427C24.2906 32.2463 24.5547 32.5619 24.5559 33.0842C24.5607 34.8557 24.5655 36.6284 24.5559 38.3998C24.5523 38.9879 24.2356 39.3107 23.7456 39.2927C23.2603 39.2748 22.9854 38.9485 22.9818 38.3568C22.9759 37.3049 22.9807 36.253 22.9807 35.2012L22.8432 35.1247L22.8396 35.1259Z" fill="#E6000D" stroke="#E6000D" stroke-width="0.6"/>
</svg>
