<svg width="96" height="138" viewBox="0 0 96 138" fill="none" xmlns="http://www.w3.org/2000/svg">
<path d="M37.9568 109.668H17.8706" stroke="#E6000D" stroke-width="5" stroke-miterlimit="10" stroke-linecap="round" stroke-linejoin="round"/>
<path d="M93.1927 94.4167V18.1653C93.1927 9.74208 86.4488 2.91504 78.1281 2.91504H17.8696C9.54892 2.91504 2.80499 9.74208 2.80499 18.1653V119.834C2.80499 128.257 9.54892 135.084 17.8696 135.084H78.1281C86.4488 135.084 93.1927 128.257 93.1927 119.834V109.667H63.0635" stroke="#E6000D" stroke-width="5" stroke-miterlimit="10" stroke-linecap="round" stroke-linejoin="round"/>
<path d="M50.5114 119.832C57.4447 119.832 63.0652 114.142 63.0652 107.124C63.0652 100.105 57.4447 94.415 50.5114 94.415C43.5781 94.415 37.9575 100.105 37.9575 107.124C37.9575 114.142 43.5781 119.832 50.5114 119.832Z" stroke="#E6000D" stroke-width="5" stroke-miterlimit="10" stroke-linecap="round" stroke-linejoin="round"/>
<path d="M22.8937 53.7497L42.9799 69L73.1091 33.416" stroke="#E6000D" stroke-width="5" stroke-miterlimit="10" stroke-linecap="round" stroke-linejoin="round"/>
</svg>
