<svg width="150" height="150" viewBox="0 0 150 150" fill="none" xmlns="http://www.w3.org/2000/svg">
<path d="M12.4749 56.8877L9.00122 42.9928" stroke="#E6000D" stroke-width="5" stroke-miterlimit="22.926" stroke-linecap="round" stroke-linejoin="round"/>
<path d="M12.4738 56.8877L26.3686 49.9403" stroke="#E6000D" stroke-width="5" stroke-miterlimit="22.926" stroke-linecap="round" stroke-linejoin="round"/>
<path d="M13.4628 53.1293C22.583 27.0131 47.3766 9.49978 75.2284 9.49978C105.028 9.49978 131.057 29.5005 138.517 58.1318" stroke="#E6000D" stroke-width="5" stroke-miterlimit="22.926" stroke-linecap="round" stroke-linejoin="round"/>
<path d="M137.175 94.2204L140.648 108.115" stroke="#E6000D" stroke-width="5" stroke-miterlimit="22.926" stroke-linecap="round" stroke-linejoin="round"/>
<path d="M137.167 94.2176L123.272 101.165" stroke="#E6000D" stroke-width="5" stroke-miterlimit="22.926" stroke-linecap="round" stroke-linejoin="round"/>
<path d="M135.043 97.8714C126.176 123.988 102.071 141.501 74.993 141.501C46.0209 141.501 20.7157 121.5 13.4628 92.8689" stroke="#E6000D" stroke-width="5" stroke-miterlimit="22.926" stroke-linecap="round" stroke-linejoin="round"/>
<path d="M75.9888 103.288C79.8154 103.288 82.9363 100.167 82.9363 96.3408C82.9363 92.5143 79.8154 89.3932 75.9888 89.3932C72.1623 89.3932 69.0414 92.5143 69.0414 96.3408C69.0414 100.167 72.1623 103.288 75.9888 103.288Z" stroke="#E6000D" stroke-width="5" stroke-miterlimit="22.926" stroke-linecap="round" stroke-linejoin="round"/>
<path d="M58.6217 75.498C63.5482 71.0056 69.722 68.5506 76.0923 68.5506C82.3726 68.5506 88.4642 70.9364 93.3589 75.3133" stroke="#E6000D" stroke-width="5" stroke-miterlimit="22.926" stroke-linecap="round" stroke-linejoin="round"/>
<path d="M44.7216 58.1318C53.5894 51.3932 64.7018 47.7107 76.1686 47.7107C87.4733 47.7107 98.4386 51.2898 107.248 57.8554" stroke="#E6000D" stroke-width="5" stroke-miterlimit="22.926" stroke-linecap="round" stroke-linejoin="round"/>
</svg>
