<svg width="40" height="41" viewBox="0 0 40 41" fill="none" xmlns="http://www.w3.org/2000/svg">
<path d="M11.922 8.88126V3.08594H34.3788V8.88126" stroke="#E6000D" stroke-width="2.6" stroke-miterlimit="10" stroke-linecap="round" stroke-linejoin="round"/>
<path d="M8.30281 18.9933V11.0541C8.30281 9.85382 9.27577 8.88086 10.4761 8.88086H35.8306C37.0309 8.88086 38.0039 9.85382 38.0039 11.0541V21.9203C38.0039 23.1206 37.0309 24.0936 35.8306 24.0936H32.933" stroke="#E6000D" stroke-width="2.6" stroke-miterlimit="10" stroke-linecap="round" stroke-linejoin="round"/>
<path d="M21.4473 21.9199H32.9305V31.3373H22.7564" stroke="#E6000D" stroke-width="2.6" stroke-miterlimit="10" stroke-linecap="round" stroke-linejoin="round"/>
<path d="M13.228 38.0021C18.8292 38.0021 23.3698 33.4615 23.3698 27.8603C23.3698 22.2592 18.8292 17.7185 13.228 17.7185C7.62685 17.7185 3.0862 22.2592 3.0862 27.8603C3.0862 33.4615 7.62685 38.0021 13.228 38.0021Z" stroke="#E6000D" stroke-width="2.6" stroke-miterlimit="10" stroke-linecap="round" stroke-linejoin="round"/>
<path d="M16.2374 32.8542C16.0975 32.7505 15.848 32.5788 15.6152 32.3861C15.422 32.2259 15.303 31.9966 14.9596 32.1421C14.6349 32.2793 14.6391 32.495 14.6391 32.7642C14.637 33.7286 14.4439 33.916 13.473 33.9171C13.1942 33.9171 12.9165 33.9223 12.6378 33.9139C12.0302 33.8961 11.7661 33.6207 11.7515 32.9998C11.7484 32.8605 11.7922 32.7013 11.739 32.5861C11.6638 32.4228 11.5438 32.2312 11.3945 32.1652C11.2723 32.1118 11.0312 32.1736 10.9205 32.272C10.029 33.0689 9.8943 33.0731 9.04661 32.228C8.98502 32.1662 8.92238 32.1055 8.86079 32.0448C8.06008 31.251 8.06634 31.0793 8.81486 30.2405C8.93074 30.1107 8.99755 29.8237 8.93282 29.6782C8.86601 29.5284 8.61442 29.385 8.43695 29.3766C7.35437 29.32 7.23118 29.2049 7.23118 28.0959C7.23118 28.009 7.2364 27.921 7.23118 27.8341C7.14766 26.677 7.50261 26.3796 8.50063 26.4561C8.64574 26.4676 8.87958 26.2958 8.94013 26.1534C9.00068 26.0121 8.93178 25.7796 8.84931 25.6236C8.76266 25.4613 8.57997 25.3534 8.462 25.2036C8.20206 24.8738 8.19057 24.5146 8.46618 24.2005C8.77623 23.8476 9.11343 23.5167 9.46315 23.2036C9.81079 22.8915 10.1887 22.9009 10.5457 23.2078C10.6647 23.3093 10.7535 23.458 10.8861 23.5292C11.0437 23.6141 11.2734 23.724 11.3986 23.6664C11.5552 23.5942 11.7254 23.3659 11.7358 23.1952C11.81 22.0224 11.9029 21.9187 13.0617 21.9187C13.1139 21.9187 13.1661 21.9187 13.2183 21.9187C14.5159 21.9187 14.5514 21.9627 14.6558 23.236C14.6683 23.3921 14.8364 23.5931 14.9836 23.6633C15.1068 23.7219 15.326 23.657 15.468 23.5816C15.6152 23.5031 15.7143 23.3387 15.8448 23.2245C16.2175 22.8999 16.5986 22.8947 16.965 23.2277C17.2615 23.4968 17.5423 23.7837 17.819 24.0727C18.2397 24.5136 18.2313 24.8979 17.8075 25.3471C17.7835 25.3722 17.7553 25.3942 17.7344 25.4215C17.5726 25.6382 17.2458 25.7471 17.416 26.1555C17.5799 26.5482 17.868 26.4477 18.1478 26.4749C18.3691 26.4969 18.6155 26.4938 18.8013 26.5943C19.3609 26.899 19.3598 28.964 18.7919 29.2415C18.5435 29.3619 18.2115 29.2949 17.9338 29.3724C17.75 29.4237 17.5266 29.5473 17.4494 29.7033C17.3868 29.83 17.4828 30.0698 17.5674 30.2279C17.6457 30.3756 17.8273 30.4656 17.9171 30.6112C18.0142 30.7672 18.105 30.9547 18.1154 31.1327C18.1426 31.6165 16.8815 32.8574 16.2405 32.8532L16.2374 32.8542ZM16.4107 32.4102C16.6226 32.2154 16.8042 32.0584 16.9754 31.8898C17.7208 31.1557 17.7448 31.1285 16.989 30.4028C16.5025 29.9358 17.0026 29.6195 17.0621 29.2363C17.1101 28.9274 17.3262 28.8719 17.5997 28.875C18.7919 28.8897 18.676 28.9818 18.6802 27.7681C18.6802 27.6812 18.6729 27.5933 18.6802 27.5064C18.7199 27.099 18.5424 26.9524 18.1342 26.9556C16.9097 26.9671 17.3158 27.0707 16.8314 26.0299C16.7729 25.9032 16.8314 25.6518 16.9264 25.5346C17.6634 24.6361 17.6707 24.6424 16.8324 23.8078C16.8074 23.7837 16.7813 23.7596 16.7593 23.7324C16.5203 23.4256 16.2718 23.414 16.0432 23.7324C15.6235 24.3167 15.1193 24.4822 14.5169 24.034C14.353 23.9125 14.1599 23.6926 14.1568 23.5146C14.1328 22.2946 14.258 22.4308 12.9938 22.4224C12.9761 22.4224 12.9594 22.4224 12.9416 22.4224C12.2641 22.4245 12.2599 22.436 12.2463 23.1366C12.2411 23.391 12.2735 23.7031 12.1451 23.8884C11.8371 24.3324 10.9633 24.3345 10.576 23.9502C9.99348 23.3722 9.9893 23.368 9.40991 23.9502C8.56118 24.8026 8.55178 24.6445 9.40469 25.4455C9.87134 25.8843 9.41304 26.1995 9.3431 26.5681C9.28255 26.8823 9.08315 26.9723 8.77623 26.9681C7.5997 26.9503 7.74167 26.8707 7.73123 28.0488C7.73123 28.0833 7.73123 28.1189 7.73123 28.1535C7.73332 28.875 7.73332 28.8656 8.45887 28.8813C8.71046 28.8865 9.03096 28.8624 9.19799 29.0007C9.65942 29.3829 9.63749 30.1431 9.21887 30.5651C9.15727 30.6269 9.10194 30.696 9.03513 30.7505C8.71986 31.006 8.70315 31.2562 9.032 31.5159C9.127 31.5913 9.2053 31.6877 9.29299 31.7725C10.0864 32.5464 9.94859 32.5704 10.67 31.7735C11.1377 31.2562 11.478 31.7149 11.8768 31.7934C12.2411 31.8657 12.2589 32.1243 12.2536 32.4259C12.238 33.4762 12.1816 33.4218 13.2423 33.4176C13.2767 33.4176 13.3122 33.4176 13.3467 33.4176C14.1401 33.4176 14.1317 33.4176 14.1463 32.6018C14.1505 32.3704 14.1432 32.0615 14.2789 31.9243C14.7654 31.4311 15.4095 31.4856 15.9231 31.9893C16.0672 32.1306 16.229 32.2552 16.4107 32.4113V32.4102Z" fill="#E6000D" stroke="#E6000D"/>
<path d="M13.1963 29.9186C12.0843 29.9062 11.1983 28.9927 11.2198 27.8812C11.2407 26.7827 12.1423 25.9071 13.24 25.9188C14.3494 25.9305 15.2374 26.8453 15.2191 27.9568C15.2009 29.0494 14.2921 29.931 13.197 29.9186H13.1963ZM14.9071 27.9288C14.9117 26.9938 14.1494 26.2309 13.2113 26.2322C12.2934 26.2329 11.5384 26.9847 11.5266 27.9099C11.5149 28.8214 12.2778 29.5987 13.1918 29.6071C14.1305 29.6163 14.9019 28.8611 14.9064 27.9288H14.9071Z" fill="#E6000D" stroke="#E6000D"/>
</svg>
