<svg width="138" height="138" viewBox="0 0 138 138" fill="none" xmlns="http://www.w3.org/2000/svg">
<g clip-path="url(#clip0_1_835)">
<mask id="path-1-inside-1_1_835" fill="white">
<path d="M87.2929 -1.01367C90.7236 -1.01362 94.0933 0.377579 96.5175 2.81055L126.439 32.7334C128.872 35.1752 130.265 38.5273 130.265 41.958V77.7666C134.843 77.8335 139.017 81.7041 139.017 86.5049V95.2559C139.017 99.6317 136.846 103.702 133.214 106.144L89.9706 135.287C86.3561 137.729 82.1288 139.016 77.7529 139.016C75.4425 139.016 73.1849 138.656 71.0058 137.956L25.2421 123.148V125.888C25.2421 127.542 24.306 129.056 22.8271 129.8L5.32318 138.552C4.7018 138.858 4.02738 139.016 3.36224 139.016C2.55719 139.016 1.76053 138.797 1.06049 138.359C-0.225925 137.563 -1.0137 136.154 -1.01373 134.64V55.873C-1.01373 54.359 -0.22589 52.9498 1.06927 52.1533C2.34704 51.3569 3.96665 51.287 5.32318 51.9609L22.8271 60.7129C24.3059 61.4569 25.2421 62.971 25.2421 64.625V69.666L33.9941 71.1016V12.1143C33.9941 4.87649 39.8842 -1.01367 47.122 -1.01367H87.2929ZM25.2421 113.95L73.7099 129.634C77.4467 130.841 81.77 130.264 85.0781 128.041L128.321 98.8975C129.538 98.0748 130.265 96.7174 130.265 95.2559V86.5049C130.107 86.5486 129.958 86.592 129.792 86.627L80.081 102.109C78.1119 103.291 75.836 104.008 73.3769 104.008H55.874C53.4585 104.008 51.498 102.047 51.498 99.6318C51.4982 97.2165 53.4586 95.2559 55.874 95.2559H73.3769C75.7836 95.2559 77.7529 93.2954 77.7529 90.8799C77.7526 88.7271 76.2125 86.9067 74.0947 86.5654L25.2421 78.5312V113.95ZM7.73822 127.56L16.4902 123.184V67.3291L7.73822 62.9531V127.56ZM47.122 7.73828C44.7153 7.73828 42.746 9.69875 42.746 12.1143V72.5361L75.5126 77.9277C81.8838 78.9779 86.5046 84.4212 86.5048 90.8799C86.5048 90.8973 86.4961 90.9153 86.496 90.9414L121.513 80.0381V42.7451H99.6328C92.395 42.7451 86.5048 36.8549 86.5048 29.6172V7.73828H47.122ZM95.2568 29.6172C95.2568 32.0327 97.226 33.9931 99.6328 33.9932H115.325L95.2568 13.9258V29.6172Z"/>
</mask>
<path d="M87.2929 -1.01367C90.7236 -1.01362 94.0933 0.377579 96.5175 2.81055L126.439 32.7334C128.872 35.1752 130.265 38.5273 130.265 41.958V77.7666C134.843 77.8335 139.017 81.7041 139.017 86.5049V95.2559C139.017 99.6317 136.846 103.702 133.214 106.144L89.9706 135.287C86.3561 137.729 82.1288 139.016 77.7529 139.016C75.4425 139.016 73.1849 138.656 71.0058 137.956L25.2421 123.148V125.888C25.2421 127.542 24.306 129.056 22.8271 129.8L5.32318 138.552C4.7018 138.858 4.02738 139.016 3.36224 139.016C2.55719 139.016 1.76053 138.797 1.06049 138.359C-0.225925 137.563 -1.0137 136.154 -1.01373 134.64V55.873C-1.01373 54.359 -0.22589 52.9498 1.06927 52.1533C2.34704 51.3569 3.96665 51.287 5.32318 51.9609L22.8271 60.7129C24.3059 61.4569 25.2421 62.971 25.2421 64.625V69.666L33.9941 71.1016V12.1143C33.9941 4.87649 39.8842 -1.01367 47.122 -1.01367H87.2929ZM25.2421 113.95L73.7099 129.634C77.4467 130.841 81.77 130.264 85.0781 128.041L128.321 98.8975C129.538 98.0748 130.265 96.7174 130.265 95.2559V86.5049C130.107 86.5486 129.958 86.592 129.792 86.627L80.081 102.109C78.1119 103.291 75.836 104.008 73.3769 104.008H55.874C53.4585 104.008 51.498 102.047 51.498 99.6318C51.4982 97.2165 53.4586 95.2559 55.874 95.2559H73.3769C75.7836 95.2559 77.7529 93.2954 77.7529 90.8799C77.7526 88.7271 76.2125 86.9067 74.0947 86.5654L25.2421 78.5312V113.95ZM7.73822 127.56L16.4902 123.184V67.3291L7.73822 62.9531V127.56ZM47.122 7.73828C44.7153 7.73828 42.746 9.69875 42.746 12.1143V72.5361L75.5126 77.9277C81.8838 78.9779 86.5046 84.4212 86.5048 90.8799C86.5048 90.8973 86.4961 90.9153 86.496 90.9414L121.513 80.0381V42.7451H99.6328C92.395 42.7451 86.5048 36.8549 86.5048 29.6172V7.73828H47.122ZM95.2568 29.6172C95.2568 32.0327 97.226 33.9931 99.6328 33.9932H115.325L95.2568 13.9258V29.6172Z" fill="#E6000D"/>
<path d="M87.2929 -1.01367L87.2929 -2.6372H87.2929V-1.01367ZM96.5175 2.81055L95.3674 3.95649L95.3695 3.95854L96.5175 2.81055ZM126.439 32.7334L127.589 31.5875L127.587 31.5854L126.439 32.7334ZM130.265 77.7666H128.641V79.3666L130.241 79.39L130.265 77.7666ZM133.214 106.144L132.308 104.796L132.306 104.797L133.214 106.144ZM89.9706 135.287L89.0633 133.941L89.0618 133.942L89.9706 135.287ZM77.7529 139.016L77.7528 140.639H77.7529V139.016ZM71.0058 137.956L70.506 139.501L70.5092 139.502L71.0058 137.956ZM25.2421 123.148L25.7419 121.604L23.6186 120.917V123.148H25.2421ZM22.8271 129.8L23.5532 131.252L23.5567 131.25L22.8271 129.8ZM5.32318 138.552L6.04104 140.008L6.04925 140.004L5.32318 138.552ZM3.36224 139.016L3.36212 140.639H3.36224V139.016ZM1.06049 138.359L1.92096 136.983L1.91509 136.979L1.06049 138.359ZM-1.01373 134.64H-2.63726V134.64L-1.01373 134.64ZM1.06927 52.1533L1.91972 53.5363L1.92805 53.5311L1.06927 52.1533ZM5.32318 51.9609L6.04925 50.5088L6.04549 50.5069L5.32318 51.9609ZM22.8271 60.7129L23.5567 59.2625L23.5532 59.2608L22.8271 60.7129ZM25.2421 69.666H23.6186V71.0449L24.9793 71.2681L25.2421 69.666ZM33.9941 71.1016L33.7313 72.7037L35.6176 73.0131V71.1016H33.9941ZM25.2421 113.95H23.6186V115.131L24.7423 115.495L25.2421 113.95ZM73.7099 129.634L73.2101 131.178L73.2106 131.179L73.7099 129.634ZM85.0781 128.041L85.9835 129.389L85.9854 129.387L85.0781 128.041ZM128.321 98.8975L129.229 100.244L129.231 100.242L128.321 98.8975ZM130.265 86.5049H131.888V84.3689L129.83 84.9406L130.265 86.5049ZM129.792 86.627L129.457 85.0383L129.382 85.0541L129.309 85.0769L129.792 86.627ZM80.081 102.109L79.5982 100.559L79.4125 100.617L79.2457 100.717L80.081 102.109ZM51.498 99.6318L49.8745 99.6317V99.6318H51.498ZM77.7529 90.8799H79.3764V90.8797L77.7529 90.8799ZM74.0947 86.5654L73.8312 88.1674L73.8364 88.1683L74.0947 86.5654ZM25.2421 78.5312L25.5056 76.9292L23.6186 76.6189V78.5312H25.2421ZM7.73822 127.56H6.11469V130.186L8.46428 129.012L7.73822 127.56ZM16.4902 123.184L17.2162 124.636L18.1137 124.187V123.184H16.4902ZM16.4902 67.3291H18.1137V66.3257L17.2162 65.877L16.4902 67.3291ZM7.73822 62.9531L8.46428 61.501L6.11469 60.3262V62.9531H7.73822ZM42.746 72.5361H41.1225V73.9144L42.4824 74.1381L42.746 72.5361ZM75.5126 77.9277L75.7767 76.3258L75.7762 76.3257L75.5126 77.9277ZM86.5048 90.8799H88.1283V90.8798L86.5048 90.8799ZM86.496 90.9414L84.8725 90.9387L84.8688 93.1485L86.9787 92.4915L86.496 90.9414ZM121.513 80.0381L121.995 81.5882L123.136 81.233V80.0381H121.513ZM121.513 42.7451H123.136V41.1216H121.513V42.7451ZM99.6328 42.7451L99.6327 44.3686H99.6328V42.7451ZM86.5048 7.73828H88.1283V6.11475H86.5048V7.73828ZM99.6328 33.9932L99.6327 35.6167H99.6328V33.9932ZM115.325 33.9932V35.6167H119.245L116.473 32.8451L115.325 33.9932ZM95.2568 13.9258L96.4048 12.7777L93.6332 10.0064V13.9258H95.2568ZM87.2929 -1.01367L87.2929 0.609858C90.2943 0.609901 93.2495 1.8309 95.3674 3.95649L96.5175 2.81055L97.6676 1.66461C94.9371 -1.07575 91.1528 -2.63715 87.2929 -2.6372L87.2929 -1.01367ZM96.5175 2.81055L95.3695 3.95854L125.291 33.8814L126.439 32.7334L127.587 31.5854L97.6655 1.66256L96.5175 2.81055ZM126.439 32.7334L125.289 33.8793C127.422 36.0192 128.641 38.9602 128.641 41.958H130.265H131.888C131.888 38.0944 130.323 34.3311 127.589 31.5875L126.439 32.7334ZM130.265 41.958H128.641V77.7666H130.265H131.888V41.958H130.265ZM130.265 77.7666L130.241 79.39C133.992 79.4448 137.393 82.6508 137.393 86.5049H139.017H140.64C140.64 80.7574 135.693 76.2222 130.288 76.1432L130.265 77.7666ZM139.017 86.5049H137.393V95.2559H139.017H140.64V86.5049H139.017ZM139.017 95.2559H137.393C137.393 99.0904 135.492 102.656 132.308 104.796L133.214 106.144L134.12 107.491C138.2 104.748 140.64 100.173 140.64 95.2559H139.017ZM133.214 106.144L132.306 104.797L89.0633 133.941L89.9706 135.287L90.878 136.633L134.121 107.49L133.214 106.144ZM89.9706 135.287L89.0618 133.942C85.7177 136.201 81.8072 137.392 77.7529 137.392V139.016V140.639C82.4503 140.639 86.9946 139.257 90.8795 136.632L89.9706 135.287ZM77.7529 139.016L77.7529 137.392C75.613 137.392 73.5228 137.059 71.5024 136.41L71.0058 137.956L70.5092 139.502C72.8469 140.253 75.2721 140.639 77.7528 140.639L77.7529 139.016ZM71.0058 137.956L71.5056 136.411L25.7419 121.604L25.2421 123.148L24.7423 124.693L70.506 139.501L71.0058 137.956ZM25.2421 123.148H23.6186V125.888H25.2421H26.8657V123.148H25.2421ZM25.2421 125.888H23.6186C23.6186 126.926 23.0303 127.88 22.0975 128.349L22.8271 129.8L23.5567 131.25C25.5816 130.232 26.8657 128.157 26.8657 125.888H25.2421ZM22.8271 129.8L22.101 128.348L4.59712 137.1L5.32318 138.552L6.04925 140.004L23.5532 131.252L22.8271 129.8ZM5.32318 138.552L4.60533 137.096C4.20209 137.294 3.77275 137.392 3.36224 137.392V139.016V140.639C4.28202 140.639 5.20152 140.422 6.04103 140.008L5.32318 138.552ZM3.36224 139.016L3.36237 137.392C2.85219 137.392 2.35518 137.254 1.92095 136.983L1.06049 138.359L0.200017 139.736C1.16589 140.34 2.2622 140.639 3.36212 140.639L3.36224 139.016ZM1.06049 138.359L1.91509 136.979C1.10518 136.478 0.60982 135.59 0.609797 134.64L-1.01373 134.64L-2.63726 134.64C-2.63721 136.718 -1.55703 138.648 0.205885 139.74L1.06049 138.359ZM-1.01373 134.64H0.609797V55.873H-1.01373H-2.63726V134.64H-1.01373ZM-1.01373 55.873H0.609797C0.609797 54.9244 1.1038 54.038 1.91971 53.5363L1.06927 52.1533L0.218843 50.7703C-1.55558 51.8615 -2.63726 53.7937 -2.63726 55.873H-1.01373ZM1.06927 52.1533L1.92805 53.5311C2.72029 53.0373 3.74102 52.9878 4.60087 53.4149L5.32318 51.9609L6.04549 50.5069C4.19228 49.5863 1.97379 49.6765 0.210503 50.7755L1.06927 52.1533ZM5.32318 51.9609L4.59712 53.4131L22.101 62.165L22.8271 60.7129L23.5532 59.2608L6.04925 50.5088L5.32318 51.9609ZM22.8271 60.7129L22.0975 62.1632C23.0303 62.6325 23.6186 63.5869 23.6186 64.625H25.2421H26.8657C26.8657 62.3552 25.5816 60.2812 23.5567 59.2626L22.8271 60.7129ZM25.2421 64.625H23.6186V69.666H25.2421H26.8657V64.625H25.2421ZM25.2421 69.666L24.9793 71.2681L33.7313 72.7037L33.9941 71.1016L34.2569 69.4994L25.5049 68.0639L25.2421 69.666ZM33.9941 71.1016H35.6176V12.1143H33.9941H32.3706V71.1016H33.9941ZM33.9941 12.1143H35.6176C35.6176 5.77314 40.7809 0.609858 47.122 0.609858V-1.01367V-2.6372C38.9876 -2.6372 32.3706 3.97984 32.3706 12.1143H33.9941ZM47.122 -1.01367V0.609858H87.2929V-1.01367V-2.6372H47.122V-1.01367ZM25.2421 113.95L24.7423 115.495L73.2101 131.178L73.7099 129.634L74.2097 128.089L25.742 112.406L25.2421 113.95ZM73.7099 129.634L73.2106 131.179C77.4165 132.538 82.2581 131.892 85.9835 129.389L85.0781 128.041L84.1726 126.693C81.2819 128.636 77.477 129.145 74.2092 128.089L73.7099 129.634ZM85.0781 128.041L85.9854 129.387L129.229 100.244L128.321 98.8975L127.414 97.5511L84.1707 126.695L85.0781 128.041ZM128.321 98.8975L129.231 100.242C130.889 99.1211 131.888 97.2626 131.888 95.2559H130.265H128.641C128.641 96.1723 128.187 97.0284 127.412 97.5526L128.321 98.8975ZM130.265 95.2559H131.888V86.5049H130.265H128.641V95.2559H130.265ZM130.265 86.5049L129.83 84.9406C129.648 84.9911 129.56 85.0166 129.457 85.0383L129.792 86.627L130.127 88.2156C130.356 88.1673 130.566 88.1061 130.699 88.0692L130.265 86.5049ZM129.792 86.627L129.309 85.0769L79.5982 100.559L80.081 102.109L80.5638 103.659L130.275 88.177L129.792 86.627ZM80.081 102.109L79.2457 100.717C77.5029 101.763 75.5128 102.384 73.3769 102.384V104.008V105.631C76.1592 105.631 78.7209 104.819 80.9163 103.502L80.081 102.109ZM73.3769 104.008V102.384H55.874V104.008V105.631H73.3769V104.008ZM55.874 104.008V102.384C54.3551 102.384 53.1215 101.151 53.1215 99.6318H51.498H49.8745C49.8745 102.944 52.5618 105.631 55.874 105.631V104.008ZM51.498 99.6318L53.1215 99.632C53.1216 98.113 54.3553 96.8794 55.874 96.8794V95.2559V93.6323C52.5618 93.6323 49.8747 96.3199 49.8745 99.6317L51.498 99.6318ZM55.874 95.2559V96.8794H73.3769V95.2559V93.6323H55.874V95.2559ZM73.3769 95.2559V96.8794C76.6782 96.8794 79.3764 94.1942 79.3764 90.8799H77.7529H76.1293C76.1293 92.3966 74.8891 93.6323 73.3769 93.6323V95.2559ZM77.7529 90.8799L79.3764 90.8797C79.3761 87.9375 77.2648 85.4318 74.353 84.9626L74.0947 86.5654L73.8364 88.1683C75.1601 88.3816 76.1292 89.5168 76.1293 90.8801L77.7529 90.8799ZM74.0947 86.5654L74.3581 84.9634L25.5056 76.9292L25.2421 78.5312L24.9787 80.1333L73.8312 88.1674L74.0947 86.5654ZM25.2421 78.5312H23.6186V113.95H25.2421H26.8657V78.5312H25.2421ZM7.73822 127.56L8.46428 129.012L17.2162 124.636L16.4902 123.184L15.7641 121.731L7.01216 126.107L7.73822 127.56ZM16.4902 123.184H18.1137V67.3291H16.4902H14.8666V123.184H16.4902ZM16.4902 67.3291L17.2162 65.877L8.46428 61.501L7.73822 62.9531L7.01216 64.4053L15.7641 68.7812L16.4902 67.3291ZM7.73822 62.9531H6.11469V127.56H7.73822H9.36175V62.9531H7.73822ZM47.122 7.73828V6.11475C43.8207 6.11475 41.1225 8.79999 41.1225 12.1143H42.746H44.3696C44.3696 10.5975 45.6098 9.36181 47.122 9.36181V7.73828ZM42.746 12.1143H41.1225V72.5361H42.746H44.3696V12.1143H42.746ZM42.746 72.5361L42.4824 74.1381L75.249 79.5297L75.5126 77.9277L75.7762 76.3257L43.0096 70.9341L42.746 72.5361ZM75.5126 77.9277L75.2486 79.5296C80.8357 80.4506 84.8811 85.2161 84.8813 90.8799L86.5048 90.8799L88.1283 90.8798C88.1281 83.6264 82.9319 77.5053 75.7767 76.3258L75.5126 77.9277ZM86.5048 90.8799H84.8813C84.8813 90.8144 84.8854 90.7576 84.8903 90.7119C84.8952 90.6666 84.9013 90.6297 84.9058 90.6047C84.9102 90.5802 84.9142 90.5616 84.9155 90.5554C84.9163 90.5521 84.9168 90.5497 84.9166 90.5505C84.9166 90.5507 84.9166 90.5508 84.9165 90.5512C84.9164 90.5515 84.9163 90.552 84.9162 90.5526C84.9159 90.5537 84.9155 90.5554 84.9151 90.5575C84.9076 90.5915 84.8728 90.7432 84.8725 90.9387L86.496 90.9414L88.1196 90.9441C88.1193 91.1135 88.0889 91.2432 88.0858 91.2573C88.0856 91.2582 88.0853 91.2597 88.0859 91.2569C88.0863 91.2553 88.0873 91.2505 88.0886 91.2448C88.0909 91.2339 88.0959 91.2107 88.1011 91.1817C88.1065 91.1521 88.1132 91.1107 88.1186 91.061C88.124 91.0109 88.1283 90.9497 88.1283 90.8799H86.5048ZM86.496 90.9414L86.9787 92.4915L121.995 81.5882L121.513 80.0381L121.03 78.488L86.0134 89.3913L86.496 90.9414ZM121.513 80.0381H123.136V42.7451H121.513H119.889V80.0381H121.513ZM121.513 42.7451V41.1216H99.6328V42.7451V44.3686H121.513V42.7451ZM99.6328 42.7451L99.6328 41.1216C93.2917 41.1216 88.1283 35.9583 88.1283 29.6172H86.5048H84.8813C84.8813 37.7516 91.4984 44.3686 99.6327 44.3686L99.6328 42.7451ZM86.5048 29.6172H88.1283V7.73828H86.5048H84.8813V29.6172H86.5048ZM86.5048 7.73828V6.11475H47.122V7.73828V9.36181H86.5048V7.73828ZM95.2568 29.6172H93.6332C93.6332 32.9315 96.3315 35.6166 99.6327 35.6167L99.6328 33.9932L99.6328 32.3696C98.1205 32.3696 96.8803 31.1339 96.8803 29.6172H95.2568ZM99.6328 33.9932V35.6167H115.325V33.9932V32.3696H99.6328V33.9932ZM115.325 33.9932L116.473 32.8451L96.4048 12.7777L95.2568 13.9258L94.1088 15.0738L114.177 35.1412L115.325 33.9932ZM95.2568 13.9258H93.6332V29.6172H95.2568H96.8803V13.9258H95.2568Z" fill="#EAEAEA" mask="url(#path-1-inside-1_1_835)"/>
</g>
<defs>
<clipPath id="clip0_1_835">
<rect width="138" height="138" fill="white"/>
</clipPath>
</defs>
</svg>
