<svg width="138" height="138" viewBox="0 0 138 138" fill="none" xmlns="http://www.w3.org/2000/svg">
<g clip-path="url(#clip0_1_1179)">
<g clip-path="url(#clip1_1_1179)">
<path d="M11.6652 -0.652832H35.922C37.8842 -0.65269 39.4738 0.936717 39.4738 2.896C39.4736 4.85516 37.8841 6.44468 35.922 6.44482H11.6652C8.75632 6.44496 6.3968 8.80124 6.39661 11.7095V35.9487C6.39645 37.908 4.80706 39.4976 2.84485 39.4976C0.882658 39.4975 -0.706748 37.9079 -0.706909 35.9487V11.7095C-0.706717 4.88252 4.83167 -0.652696 11.6652 -0.652832Z" fill="#E6000D" stroke="#EAEAEA" stroke-width="1.71642"/>
<path d="M102.075 -0.652832H126.331C133.165 -0.652599 138.703 4.88257 138.703 11.7095V35.9487C138.703 37.9079 137.114 39.4974 135.152 39.4976C133.189 39.4976 131.599 37.908 131.599 35.9487V11.7095C131.599 8.80131 129.24 6.44506 126.331 6.44482H102.075C100.112 6.44478 98.5229 4.85523 98.5228 2.896C98.5228 0.936652 100.112 -0.652787 102.075 -0.652832Z" fill="#E6000D" stroke="#EAEAEA" stroke-width="1.71642"/>
<path d="M2.84485 98.5054C4.80716 98.5054 6.39661 100.095 6.39661 102.054V126.292C6.39661 129.201 8.75622 131.558 11.6652 131.558H35.922C37.8842 131.558 39.4738 133.148 39.4738 135.107C39.4736 137.066 37.8841 138.656 35.922 138.656H11.6652C4.83155 138.656 -0.706909 133.12 -0.706909 126.292V102.054C-0.706909 100.095 0.882554 98.5054 2.84485 98.5054Z" fill="#E6000D" stroke="#EAEAEA" stroke-width="1.71642"/>
<path d="M135.152 98.5054C137.114 98.5055 138.703 100.095 138.703 102.054V126.292C138.703 133.12 133.165 138.656 126.331 138.656H102.075C100.112 138.656 98.523 137.066 98.5228 135.107C98.5228 133.148 100.112 131.558 102.075 131.558H126.331C129.24 131.558 131.599 129.201 131.599 126.292V102.054C131.599 100.095 133.189 98.5054 135.152 98.5054Z" fill="#E6000D" stroke="#EAEAEA" stroke-width="1.71642"/>
<path fill-rule="evenodd" clip-rule="evenodd" d="M68.999 55.7778C61.6917 55.7778 55.7683 61.6969 55.7683 68.9989C55.7683 76.3009 61.6917 82.2199 68.999 82.2199C76.3064 82.2199 82.2298 76.3009 82.2298 68.9989C82.2298 61.6969 76.3064 55.7778 68.999 55.7778ZM64.5888 68.9989C64.5888 66.5649 66.5633 64.5919 68.999 64.5919C71.4348 64.5919 73.4093 66.5649 73.4093 68.9989C73.4093 71.4329 71.4348 73.4059 68.999 73.4059C66.5633 73.4059 64.5888 71.4329 64.5888 68.9989Z" fill="#E6000D"/>
<path d="M68.9988 55.7778C76.306 55.7778 82.23 61.6967 82.2302 68.9985C82.2302 76.3005 76.3061 82.2202 68.9988 82.2202C61.6916 82.2201 55.7683 76.3004 55.7683 68.9985C55.7685 61.6968 61.6917 55.778 68.9988 55.7778ZM68.9988 57.4946C62.6385 57.4948 57.4853 62.6459 57.4851 68.9985C57.4851 75.3513 62.6383 80.5033 68.9988 80.5034C75.3593 80.5034 80.5134 75.3514 80.5134 68.9985C80.5132 62.6458 75.3592 57.4946 68.9988 57.4946ZM68.9988 62.8755C72.3812 62.8755 75.1255 65.6156 75.1257 68.9985C75.1257 72.3817 72.3813 75.1226 68.9988 75.1226C65.6164 75.1224 62.8728 72.3816 62.8728 68.9985C62.873 65.6157 65.6165 62.8756 68.9988 62.8755ZM68.9988 64.5923C66.5632 64.5924 64.5888 66.5648 64.5886 68.9985C64.5886 71.4324 66.5631 73.4056 68.9988 73.4058C71.4346 73.4058 73.4089 71.4325 73.4089 68.9985C73.4087 66.5647 71.4344 64.5923 68.9988 64.5923Z" fill="#EAEAEA"/>
<path d="M60.178 30.1941H77.8187C79.781 30.1941 81.3704 31.7836 81.3704 33.7429V39.1511L82.8353 37.6873L85.1976 35.3279C86.5847 33.9417 88.8339 33.9417 90.221 35.3279L102.695 47.7927C104.082 49.1784 104.082 51.4246 102.695 52.8103L100.333 55.1707L98.8665 56.6365H104.28C106.242 56.6365 107.832 58.2259 107.832 60.1853V77.8132C107.832 79.7725 106.242 81.3621 104.28 81.3621H98.8665L100.333 82.8269L102.696 85.1873C103.361 85.8525 103.735 86.7551 103.735 87.696C103.735 88.637 103.361 89.5396 102.696 90.2048L90.221 102.67C88.8339 104.056 86.5847 104.056 85.1976 102.67L82.8353 100.31L81.3704 98.8464V104.255C81.3704 106.214 79.781 107.803 77.8187 107.803H60.178C58.2156 107.803 56.6253 106.214 56.6253 104.255V98.8464L55.1605 100.31L52.7991 102.671C51.4116 104.057 49.1622 104.057 47.7747 102.671L35.3011 90.2048C33.9146 88.8192 33.9144 86.5734 35.3011 85.1873L37.6634 82.8269L39.1292 81.3621H33.7161C31.754 81.362 30.1645 79.7725 30.1644 77.8132V60.1853C30.1644 59.2443 30.5384 58.3409 31.2044 57.6755C31.8706 57.0101 32.7741 56.6365 33.7161 56.6365H39.1292L37.6634 55.1707L35.3011 52.8103H35.3001C33.914 51.424 33.9144 49.1777 35.3011 47.7917L47.7757 35.3269C48.4416 34.6616 49.3449 34.2878 50.2874 34.2878C51.2293 34.2879 52.1327 34.6614 52.7991 35.3269L55.1605 37.6873L56.6253 39.1511V33.7429C56.6253 31.7836 58.2157 30.1941 60.178 30.1941ZM63.7298 47.7205C63.7296 49.0655 62.9692 50.2867 61.7806 50.8865L61.5374 50.9978C60.2097 51.5474 58.6811 51.2443 57.6653 50.2292L50.8939 43.4617L50.2874 42.8552L49.681 43.4617L43.4437 49.6941L42.8353 50.3015L43.4437 50.9089L50.2151 57.6755C51.2308 58.6904 51.5349 60.2166 50.9857 61.5427C50.436 62.8687 49.1403 63.7332 47.7034 63.7332H37.2679V74.2644H47.7034C49.0505 74.2644 50.2732 75.0243 50.8734 76.2117L50.9847 76.4548C51.5 77.6979 51.2659 79.117 50.3978 80.1257L50.2151 80.322L43.4437 87.0886L42.8353 87.696L43.4437 88.3035L49.681 94.5359L50.2874 95.1423L50.8939 94.5359L57.6653 87.7683C58.6811 86.7533 60.2096 86.4495 61.5374 86.9988C62.8649 87.5483 63.7298 88.8433 63.7298 90.2781V100.706H74.2669V90.2781C74.2669 88.8433 75.1318 87.5483 76.4593 86.9988C77.787 86.4498 79.3147 86.7535 80.3304 87.7683L87.1028 94.5359L87.7093 95.1414L88.3157 94.5359L94.553 88.3035L95.1605 87.696L94.553 87.0886L87.7806 80.322C86.8284 79.3705 86.5024 77.9698 86.9183 76.7058L87.011 76.4548C87.5603 75.1291 88.8555 74.2645 90.2923 74.2644H100.728V63.7332H90.2923C88.8556 63.7331 87.5607 62.8686 87.011 61.5427C86.4617 60.2166 86.7649 58.6904 87.7806 57.6755L94.553 50.9089L95.1605 50.3015L94.553 49.6941L88.3157 43.4626L87.7093 42.8562L87.1028 43.4626L80.3304 50.2292C79.3781 51.1807 77.9758 51.5072 76.7103 51.0916L76.4593 50.9978L76.2151 50.8865C75.0268 50.2866 74.2671 49.0653 74.2669 47.7205V37.2917H63.7298V47.7205Z" fill="#E6000D" stroke="#EAEAEA" stroke-width="1.71642"/>
</g>
</g>
<defs>
<clipPath id="clip0_1_1179">
<rect width="138" height="138" fill="white"/>
</clipPath>
<clipPath id="clip1_1_1179">
<rect width="138" height="138" fill="white"/>
</clipPath>
</defs>
</svg>
