<svg width="138" height="138" viewBox="0 0 138 138" fill="none" xmlns="http://www.w3.org/2000/svg">
<path d="M37.1422 25.7553V4.06641H121.187V25.7553" stroke="#E6000D" stroke-width="5" stroke-miterlimit="10" stroke-linecap="round" stroke-linejoin="round"/>
<path d="M23.5872 63.6019V33.8894C23.5872 29.3974 27.2285 25.7561 31.7205 25.7561H126.609C131.101 25.7561 134.743 29.3974 134.743 33.8894V74.5561C134.743 79.0482 131.101 82.6894 126.609 82.6894H115.765" stroke="#E6000D" stroke-width="5" stroke-miterlimit="10" stroke-linecap="round" stroke-linejoin="round"/>
<path d="M41.8749 114.432C44.3828 114.432 46.4283 112.386 46.4283 109.879C46.4283 107.371 44.3828 105.325 41.8749 105.325C39.367 105.325 37.3215 107.371 37.3215 109.879C37.3215 112.386 39.367 114.432 41.8749 114.432Z" stroke="#E6000D" stroke-width="5" stroke-miterlimit="22.926" stroke-linecap="round" stroke-linejoin="round"/>
<path d="M30.4923 96.2207C33.7212 93.2764 37.7674 91.6673 41.9426 91.6673C46.0587 91.6673 50.0511 93.231 53.2591 96.0996" stroke="#E6000D" stroke-width="5" stroke-miterlimit="22.926" stroke-linecap="round" stroke-linejoin="round"/>
<path d="M21.382 84.8337C27.1939 80.4172 34.477 78.0037 41.9925 78.0037C49.4016 78.0037 56.5882 80.3494 62.3622 84.6526" stroke="#E6000D" stroke-width="5" stroke-miterlimit="22.926" stroke-linecap="round" stroke-linejoin="round"/>
<path d="M72.7883 74.5562H115.764V109.801H77.6873" stroke="#E6000D" stroke-width="5" stroke-miterlimit="10" stroke-linecap="round" stroke-linejoin="round"/>
<path d="M42.0219 134.743C62.9842 134.743 79.9774 117.75 79.9774 96.7876C79.9774 75.8253 62.9842 58.832 42.0219 58.832C21.0596 58.832 4.06631 75.8253 4.06631 96.7876C4.06631 117.75 21.0596 134.743 42.0219 134.743Z" stroke="#E6000D" stroke-width="5" stroke-miterlimit="10" stroke-linecap="round" stroke-linejoin="round"/>
</svg>
