<svg width="40" height="40" viewBox="0 0 40 40" fill="none" xmlns="http://www.w3.org/2000/svg">
<path d="M38.8952 15.6328L34.8822 14.9349C34.6686 14.2904 34.4108 13.6615 34.1094 13.056L36.4505 9.72656C36.8236 9.19661 36.7611 8.47525 36.3027 8.01692L31.9831 3.69792C31.5247 3.24089 30.804 3.17708 30.2734 3.54948L26.9447 5.89063C26.3385 5.58984 25.7103 5.33073 25.0651 5.11849L24.3672 1.10417C24.2559 0.466147 23.7018 0 23.0534 0H16.9466C16.2982 0 15.7441 0.466147 15.6328 1.10417L14.9349 5.11849C14.2897 5.33073 13.6615 5.58985 13.056 5.89063L9.72721 3.54948C9.19661 3.17708 8.47527 3.24088 8.01757 3.69792L3.69727 8.01693C3.23893 8.47527 3.17643 9.19661 3.54948 9.72656L5.89063 13.056C5.5892 13.6615 5.33139 14.2904 5.11784 14.9349L1.10481 15.6328C0.466147 15.7435 0 16.2982 0 16.9466V23.0534C0 23.7018 0.466147 24.2565 1.10481 24.3672L5.11784 25.0651C5.33139 25.7096 5.5892 26.3385 5.89063 26.944L3.54948 30.2734C3.17643 30.8034 3.23893 31.5247 3.69727 31.9831L8.01757 36.3021C8.47525 36.7604 9.19661 36.8242 9.72721 36.4505L13.056 34.1094C13.6615 34.4102 14.2897 34.6693 14.9349 34.8815L15.6328 38.8958C15.7441 39.5339 16.2982 40 16.9466 40H23.0534C23.7018 40 24.2559 39.5339 24.3672 38.8958L25.0651 34.8815C25.7103 34.6693 26.3385 34.4101 26.9447 34.1094L30.2734 36.4505C30.804 36.8242 31.5247 36.7604 31.9831 36.3021L36.3027 31.9831C36.7611 31.5247 36.8236 30.8034 36.4505 30.2734L34.1094 26.944C34.4108 26.3385 34.6686 25.7096 34.8822 25.0651L38.8952 24.3672C39.5339 24.2565 40 23.7018 40 23.0534V16.9466C40 16.2982 39.5339 15.7435 38.8952 15.6328ZM37.3333 21.9323L33.6113 22.5794C33.0983 22.6693 32.6843 23.0482 32.5508 23.5521C32.2884 24.543 31.8984 25.4935 31.3906 26.3763C31.1328 26.8255 31.1582 27.3828 31.4564 27.8073L33.6244 30.8906L30.8906 33.6237L27.8073 31.4557C27.3835 31.1588 26.8249 31.1328 26.3757 31.3906C25.4935 31.8984 24.5436 32.289 23.5521 32.5508C23.0488 32.6836 22.6686 33.0976 22.5794 33.6107L21.9323 37.3333H18.0677L17.4206 33.6107C17.3314 33.0977 16.9512 32.6836 16.4479 32.5508C15.4564 32.2891 14.5065 31.8984 13.625 31.3906C13.1758 31.1315 12.6165 31.1589 12.1934 31.4557L9.11003 33.6237L6.37565 30.8906L8.54363 27.8073C8.8418 27.3828 8.8672 26.8255 8.60939 26.3763C8.10157 25.4935 7.7116 24.543 7.44923 23.5521C7.31576 23.0482 6.90171 22.6693 6.38868 22.5795L2.66667 21.9323V18.0677L6.38867 17.4206C6.90169 17.3307 7.31575 16.9518 7.44921 16.4479C7.71159 15.457 8.10156 14.5065 8.60937 13.6237C8.86719 13.1745 8.8418 12.6172 8.54361 12.1927L6.37564 9.10939L9.11001 6.37632L12.1933 8.54429C12.6165 8.83987 13.1758 8.86591 13.625 8.6094C14.5065 8.10159 15.4564 7.71096 16.4479 7.44924C16.9512 7.31643 17.3314 6.90236 17.4206 6.38935L18.0677 2.66667H21.9323L22.5794 6.38932C22.6686 6.90235 23.0488 7.3164 23.5521 7.44921C24.5436 7.71093 25.4935 8.10156 26.3757 8.60937C26.8242 8.86588 27.3822 8.83984 27.8073 8.54427L30.8906 6.37629L33.6243 9.10936L31.4564 12.1927C31.1582 12.6172 31.1328 13.1745 31.3906 13.6237C31.8984 14.5065 32.2884 15.457 32.5508 16.4479C32.6842 16.9518 33.0983 17.3307 33.6113 17.4205L37.3333 18.0677V21.9323Z" fill="#E6000D"/>
<path d="M21.3333 16.2458V13.7606C21.3333 13.0236 20.7363 12.4272 20 12.4272C19.2637 12.4272 18.6667 13.0236 18.6667 13.7606V16.2458C17.118 16.798 16 18.2642 16 20.0002C16 21.7361 17.118 23.2022 18.6667 23.7544V24.4129C18.6667 25.1499 19.2637 25.7462 20 25.7462C20.7363 25.7462 21.3333 25.1499 21.3333 24.4129V23.7545C22.882 23.2023 24 21.7361 24 20.0002C24 18.2642 22.882 16.798 21.3333 16.2458ZM20 21.3335C19.265 21.3335 18.6667 20.7358 18.6667 20.0002C18.6667 19.2645 19.265 18.6668 20 18.6668C20.735 18.6668 21.3333 19.2645 21.3333 20.0002C21.3333 20.7358 20.735 21.3335 20 21.3335Z" fill="#E6000D"/>
</svg>
