<svg width="150" height="150" viewBox="0 0 150 150" fill="none" xmlns="http://www.w3.org/2000/svg">
<path d="M43.0817 32.3862V10.6973H127.126V32.3862" stroke="#E6000D" stroke-width="5" stroke-miterlimit="10" stroke-linecap="round" stroke-linejoin="round"/>
<path d="M29.5266 70.2327V40.5203C29.5266 36.0283 33.1679 32.387 37.6599 32.387H132.549C137.041 32.387 140.682 36.0283 140.682 40.5203V81.187C140.682 85.679 137.041 89.3203 132.549 89.3203H121.704" stroke="#E6000D" stroke-width="5" stroke-miterlimit="10" stroke-linecap="round" stroke-linejoin="round"/>
<path d="M58.4529 120.247C57.9597 119.881 57.08 119.276 56.2592 118.597C55.5783 118.032 55.1587 117.223 53.9477 117.736C52.8031 118.22 52.8178 118.981 52.8178 119.929C52.8104 123.33 52.1295 123.991 48.7065 123.994C47.7237 123.994 46.7447 124.013 45.7619 123.983C43.6198 123.92 42.6885 122.949 42.637 120.76C42.626 120.269 42.7806 119.708 42.5928 119.302C42.3278 118.726 41.9046 118.05 41.3782 117.818C40.9476 117.629 40.0973 117.847 39.7072 118.194C36.5639 121.004 36.0891 121.019 33.1004 118.039C32.8832 117.821 32.6624 117.607 32.4452 117.393C29.6221 114.594 29.6442 113.989 32.2833 111.032C32.6918 110.574 32.9274 109.562 32.6992 109.049C32.4636 108.521 31.5766 108.015 30.9509 107.986C27.134 107.786 26.6997 107.38 26.6997 103.47C26.6997 103.164 26.7181 102.854 26.6997 102.547C26.4052 98.4678 27.6566 97.4193 31.1754 97.6888C31.687 97.7294 32.5115 97.124 32.7249 96.6218C32.9384 96.1234 32.6955 95.3038 32.4047 94.7537C32.0992 94.1814 31.4551 93.8012 31.0392 93.2732C30.1227 92.1102 30.0822 90.8439 31.0539 89.7363C32.1471 88.4921 33.3359 87.3254 34.569 86.2215C35.7946 85.1213 37.127 85.1545 38.3858 86.2363C38.8054 86.5944 39.1183 87.1186 39.5857 87.3697C40.1415 87.6687 40.9513 88.0564 41.3929 87.8533C41.945 87.5986 42.545 86.7937 42.5818 86.192C42.8431 82.0569 43.1707 81.6914 47.2563 81.6914C47.4403 81.6914 47.6243 81.6914 47.8084 81.6914C52.3835 81.6914 52.5086 81.8465 52.8767 86.3359C52.9208 86.886 53.5134 87.5949 54.0324 87.8423C54.4667 88.049 55.2397 87.8201 55.7402 87.5543C56.2592 87.2774 56.6089 86.6978 57.069 86.2953C58.383 85.1508 59.7264 85.1323 61.0183 86.3064C62.0636 87.2552 63.0537 88.2669 64.0291 89.2858C65.5124 90.8402 65.483 92.1951 63.9886 93.779C63.904 93.8676 63.8046 93.9451 63.731 94.0411C63.1605 94.8054 62.0084 95.1893 62.6084 96.6292C63.1863 98.0137 64.2021 97.6593 65.1885 97.7553C65.9688 97.8328 66.8375 97.8217 67.4927 98.1762C69.4655 99.2505 69.4618 106.531 67.4595 107.51C66.5835 107.934 65.4131 107.698 64.434 107.971C63.7862 108.152 62.9985 108.588 62.7262 109.138C62.5053 109.584 62.844 110.43 63.1421 110.987C63.4181 111.508 64.0586 111.825 64.3751 112.339C64.7174 112.889 65.0376 113.55 65.0744 114.177C65.1701 115.883 60.7239 120.258 58.4639 120.243L58.4529 120.247ZM59.0639 118.682C59.8111 117.995 60.4515 117.441 61.0551 116.847C63.6831 114.259 63.7678 114.163 61.103 111.604C59.3878 109.957 61.1508 108.842 61.3606 107.491C61.5299 106.402 62.2919 106.206 63.2562 106.217C67.4595 106.269 67.051 106.594 67.0657 102.315C67.0657 102.008 67.0399 101.698 67.0657 101.392C67.2056 99.9557 66.5798 99.4388 65.1407 99.4499C60.8233 99.4905 62.255 99.856 60.5472 96.1862C60.3411 95.7395 60.5472 94.8534 60.8821 94.4399C63.4807 91.2721 63.5065 91.2943 60.5509 88.3518C60.4626 88.2669 60.3705 88.1819 60.2932 88.0859C59.4504 87.0042 58.5744 86.9636 57.7683 88.0859C56.2887 90.1461 54.5109 90.7294 52.3871 89.1492C51.8093 88.721 51.1283 87.9456 51.1173 87.318C51.0326 83.0168 51.4743 83.4968 47.017 83.4673C46.9545 83.4673 46.8956 83.4673 46.833 83.4673C44.4442 83.4746 44.4295 83.5153 44.3817 85.9852C44.3633 86.8824 44.4774 87.9826 44.0246 88.6361C42.9388 90.2015 39.8581 90.2088 38.4926 88.8539C36.4387 86.8159 36.424 86.8011 34.3812 88.8539C31.3889 91.8592 31.3557 91.3017 34.3628 94.1261C36.0081 95.673 34.3923 96.7843 34.1457 98.0839C33.9322 99.1915 33.2292 99.509 32.1471 99.4942C27.9989 99.4314 28.4995 99.1509 28.4627 103.304C28.4627 103.426 28.4627 103.552 28.4627 103.674C28.4701 106.217 28.4701 106.184 31.0281 106.239C31.9152 106.258 33.0452 106.173 33.6341 106.66C35.2609 108.008 35.1836 110.688 33.7077 112.176C33.4905 112.394 33.2954 112.638 33.0599 112.83C31.9483 113.731 31.8894 114.613 33.0488 115.529C33.3838 115.794 33.6598 116.134 33.969 116.433C36.7663 119.161 36.2805 119.246 38.8238 116.437C40.4728 114.613 41.6727 116.23 43.0787 116.507C44.3633 116.762 44.4258 117.674 44.4074 118.737C44.3522 122.44 44.1535 122.248 47.893 122.233C48.0145 122.233 48.1396 122.233 48.2611 122.233C51.0584 122.233 51.029 122.233 51.0805 119.357C51.0952 118.541 51.0695 117.452 51.5479 116.968C53.2631 115.23 55.5341 115.421 57.345 117.197C57.8529 117.696 58.4235 118.135 59.0639 118.685V118.682Z" fill="#E6000D" stroke="#E6000D" stroke-width="2"/>
<path d="M47.7312 109.897C43.8104 109.853 40.6866 106.632 40.7624 102.714C40.8359 98.8406 44.0148 95.7533 47.8851 95.7946C51.7966 95.8359 54.9273 99.0611 54.863 102.98C54.7987 106.832 51.5945 109.94 47.7335 109.897H47.7312ZM53.7628 102.881C53.7788 99.5848 51.0915 96.8949 47.784 96.8995C44.5477 96.9018 41.8856 99.5527 41.8443 102.815C41.8029 106.028 44.4926 108.769 47.7151 108.799C51.0249 108.831 53.7444 106.168 53.7605 102.881H53.7628Z" fill="#E6000D" stroke="#E6000D" stroke-width="2"/>
<path d="M78.7277 81.187H121.703V116.431H83.6267" stroke="#E6000D" stroke-width="5" stroke-miterlimit="10" stroke-linecap="round" stroke-linejoin="round"/>
<path d="M47.9613 141.374C68.9236 141.374 85.9169 124.381 85.9169 103.418C85.9169 82.4562 68.9236 65.4629 47.9613 65.4629C26.9991 65.4629 10.0058 82.4562 10.0058 103.418C10.0058 124.381 26.9991 141.374 47.9613 141.374Z" stroke="#E6000D" stroke-width="5" stroke-miterlimit="10" stroke-linecap="round" stroke-linejoin="round"/>
</svg>
