<svg width="44" height="44" viewBox="0 0 44 44" fill="none" xmlns="http://www.w3.org/2000/svg">
<path fill-rule="evenodd" clip-rule="evenodd" d="M9.16932 26.5614C9.04732 25.8821 9.25946 25.1589 9.79035 24.6511C9.94203 24.5049 10.0981 24.3554 10.2432 24.2092C10.2476 24.2037 10.2531 24.1993 10.2575 24.1938C10.4839 23.9773 10.5389 23.6365 10.3916 23.3596L10.3894 23.3552C10.0498 22.7034 9.76836 22.023 9.55182 21.3206C9.45949 21.0183 9.17813 20.8139 8.86267 20.8205C8.64613 20.8249 8.4186 20.8293 8.19767 20.8282C7.09741 20.8458 6.16642 20.0159 6.0598 18.919V18.9124C5.97956 18.0056 5.97957 17.0933 6.05212 16.1853C6.05212 16.181 6.05212 16.1766 6.05322 16.1733C6.15984 15.0686 7.10073 14.2333 8.20978 14.2585C8.41971 14.2629 8.63623 14.2673 8.84177 14.2651C8.84837 14.2651 8.85607 14.2651 8.86267 14.2662C9.17593 14.2728 9.4551 14.0706 9.54743 13.7705L9.54853 13.765C9.76947 13.0648 10.0519 12.3845 10.396 11.7349C10.5444 11.4557 10.4894 11.1116 10.2619 10.894C10.1058 10.7445 9.94204 10.5862 9.78596 10.4291C8.99566 9.66405 8.92422 8.4176 9.62548 7.56685L9.62877 7.56246C10.2135 6.86449 10.8587 6.21931 11.5523 5.62796C11.5556 5.62577 11.5578 5.62355 11.5611 5.62025C12.4184 4.91569 13.6737 4.99044 14.4398 5.79172C14.586 5.94341 14.7354 6.09947 14.8816 6.24456C14.8871 6.24896 14.8915 6.25446 14.897 6.25885C15.1136 6.48528 15.4543 6.54025 15.7313 6.39296L15.7357 6.39078C16.3875 6.05114 17.0679 5.76973 17.7702 5.5532C18.0725 5.46087 18.2769 5.1795 18.2703 4.86404C18.2659 4.64751 18.2616 4.41997 18.2627 4.19904C18.2451 3.09878 19.0749 2.16779 20.1719 2.06117H20.1785C21.0853 1.98093 21.9976 1.98094 22.9055 2.05349C22.9099 2.05349 22.9143 2.0535 22.9176 2.0546C24.0222 2.16121 24.8576 3.1021 24.8323 4.21115C24.8279 4.42109 24.8235 4.6376 24.8257 4.84314C24.8257 4.84974 24.8257 4.85745 24.8246 4.86404C24.818 5.1773 25.0203 5.45647 25.3203 5.5488L25.3258 5.54991C26.026 5.77084 26.7064 6.05332 27.356 6.39735C27.6352 6.54574 27.9792 6.49077 28.1968 6.26325C28.3463 6.10717 28.5046 5.94341 28.6618 5.78733C29.4268 4.99704 30.6733 4.92559 31.524 5.62686L31.5284 5.63014C32.2264 6.2149 32.8715 6.8601 33.4629 7.55367C33.4651 7.55697 33.4673 7.55916 33.4706 7.56246C34.1752 8.4198 34.1004 9.67506 33.2991 10.4412C33.1474 10.5874 32.9914 10.7368 32.8463 10.883C32.8419 10.8885 32.8364 10.8929 32.832 10.8984C32.6056 11.1149 32.5506 11.4557 32.6979 11.7327L32.7001 11.7371C33.0397 12.3889 33.3211 13.0693 33.5377 13.7716C33.63 14.0739 33.9114 14.2783 34.2268 14.2717C34.4433 14.2673 34.6709 14.2629 34.8918 14.264C35.9921 14.2465 36.9231 15.0763 37.0297 16.1733V16.1798C37.1099 17.0867 37.1099 17.999 37.0374 18.9069C37.0374 18.9113 37.0374 18.9157 37.0363 18.919C36.9296 20.0236 35.9888 20.859 34.8797 20.8337C34.6698 20.8293 34.4533 20.8249 34.2477 20.8271C34.2411 20.8271 34.2334 20.8271 34.2268 20.826C33.9136 20.8194 33.6344 21.0216 33.5421 21.3217L33.5409 21.3272C33.32 22.0274 33.0375 22.7077 32.6935 23.3573C32.5451 23.6365 32.6001 23.9806 32.8276 24.1982C32.9837 24.3477 33.1474 24.506 33.3035 24.6632C34.0938 25.4282 34.1653 26.6746 33.464 27.5254L33.4607 27.5298C33.1606 27.8881 32.8441 28.2332 32.5132 28.563C31.7933 28.3497 31.0151 28.3552 30.1797 28.5861C30.1566 28.5696 30.1336 28.5542 30.1105 28.5377C30.2907 28.5564 30.4765 28.5058 30.6271 28.3838C31.2569 27.8463 31.8427 27.2594 32.3747 26.6252C32.6067 26.3427 32.5814 25.9283 32.3176 25.6755C32.3121 25.6711 32.3077 25.6667 32.3033 25.6612C32.1549 25.5117 31.9988 25.3611 31.8493 25.2193C31.1657 24.562 31.0008 23.5321 31.4448 22.6957C31.7493 22.1219 31.9977 21.5218 32.1912 20.9074C32.4671 20.0071 33.3046 19.3982 34.2455 19.4136C34.462 19.4114 34.6907 19.4169 34.9105 19.4213C35.2787 19.4301 35.592 19.1531 35.6293 18.7871C35.6953 17.9616 35.6953 17.1328 35.6228 16.3085C35.5865 15.9446 35.2765 15.6687 34.9105 15.6775C34.9039 15.6775 34.8973 15.6775 34.8907 15.6775C34.6797 15.6753 34.4631 15.6809 34.2565 15.6852C33.309 15.7039 32.4638 15.0917 32.1868 14.1871C31.9955 13.5661 31.7471 12.9659 31.4503 12.3955C31.0085 11.5634 31.1701 10.5401 31.8461 9.88498C31.9977 9.7311 32.1626 9.57393 32.322 9.42114C32.588 9.16614 32.6143 8.74956 32.3824 8.46378C31.8449 7.83396 31.258 7.24811 30.6238 6.71612C30.3413 6.4842 29.9269 6.50948 29.6741 6.77328C29.6697 6.77877 29.6653 6.78317 29.6598 6.78757C29.5103 6.93595 29.3597 7.09203 29.2179 7.24151C28.5606 7.92519 27.5307 8.09008 26.6943 7.64602C26.1205 7.34155 25.5204 7.09312 24.906 6.89967C24.0058 6.62378 23.3968 5.78624 23.4122 4.84536C23.41 4.62882 23.4155 4.40019 23.4199 4.18036C23.4287 3.81214 23.1517 3.49889 22.7857 3.46152C21.9602 3.39557 21.1314 3.39555 20.3071 3.46809C19.9433 3.50436 19.6674 3.81434 19.6762 4.18036V4.20015C19.674 4.41118 19.6795 4.62771 19.6839 4.83436C19.7026 5.78183 19.0903 6.62708 18.1857 6.90406C17.5647 7.09532 16.9645 7.34374 16.3941 7.64051C15.562 8.08238 14.5387 7.92078 13.8836 7.2448C13.7297 7.09312 13.5726 6.92826 13.4198 6.76888C13.1648 6.50289 12.7482 6.47652 12.4624 6.70844C11.8326 7.24593 11.2467 7.83285 10.7147 8.46706C10.4828 8.74955 10.5081 9.16394 10.7719 9.41675C10.7774 9.42115 10.7818 9.42554 10.7862 9.43104C10.9346 9.58052 11.0907 9.73112 11.2401 9.87291C11.9238 10.5302 12.0887 11.5601 11.6446 12.3966C11.3402 12.9703 11.0917 13.5704 10.8983 14.1849C10.6224 15.0851 9.78486 15.694 8.84398 15.6786C8.62745 15.6808 8.39881 15.6754 8.17898 15.671C7.81076 15.6622 7.49751 15.9391 7.46014 16.3052C7.39419 17.1306 7.39417 17.9594 7.46672 18.7838C7.50299 19.1476 7.81296 19.4235 8.17898 19.4147H8.19877C8.40981 19.4169 8.62634 19.4114 8.83298 19.407C9.78046 19.3883 10.6257 20.0005 10.9027 20.9051C11.0939 21.5262 11.3424 22.1263 11.6391 22.6968C12.081 23.5288 11.9194 24.5521 11.2434 25.2072C11.0917 25.3611 10.9269 25.5183 10.7675 25.6711C10.6334 25.7997 10.5608 25.9679 10.551 26.1404C10.0387 26.2262 9.57601 26.3701 9.16932 26.5614ZM17.4614 24.9775C14.8421 23.5343 13.0659 20.7458 13.0659 17.5461C13.0659 12.867 16.8656 9.06722 21.5447 9.06722C26.2239 9.06722 30.0236 12.867 30.0236 17.5461C30.0236 20.6776 28.3232 23.4145 25.7952 24.883V23.1892C27.5044 21.8988 28.6101 19.851 28.6101 17.5461C28.6101 13.6463 25.4445 10.4807 21.5447 10.4807C17.6449 10.4807 14.4793 13.6463 14.4793 17.5461C14.4793 19.9247 15.6577 22.0307 17.4614 23.3112V24.9775ZM16.4501 37.0913L16.4468 37.0869C14.3716 34.4006 12.0623 31.7176 8.39004 29.3115C8.09217 29.117 7.98663 28.7322 8.14161 28.4124C8.54171 27.588 9.51008 26.9967 10.8159 26.8153C12.9438 26.5175 16.0017 27.2813 18.1681 29.3807V18.1792C18.1681 16.2689 19.7169 14.7202 21.6272 14.7202H21.6294C23.5397 14.7202 25.0884 16.2689 25.0884 18.1792C25.0884 18.1792 25.0884 28.6597 25.0895 28.6586C27.0812 28.153 28.7761 28.3223 30.0434 29.3687C31.4833 28.8762 32.7276 29.1378 33.7805 30.1337C35.2073 29.8171 36.2515 30.1974 37.0692 30.9624C37.0714 30.9646 37.0736 30.9668 37.0769 30.969C37.6276 31.501 37.8859 32.2671 37.7694 33.0124C37.5715 34.7271 36.7648 39.0665 35.4689 41.0186C35.4535 41.0428 35.4359 41.0659 35.4161 41.0879C35.0171 41.5528 34.4346 41.8199 33.8256 41.8199C31.413 41.8353 23.0572 41.8353 20.3983 41.8353C19.6388 41.8353 18.9375 41.4297 18.5594 40.7702L16.4501 37.0913ZM17.6515 36.3461L19.7861 40.0678C19.9114 40.2877 20.1455 40.4229 20.3983 40.4229C23.055 40.4229 31.4053 40.4229 33.8168 40.4075H33.8212C34.0081 40.4075 34.1872 40.3305 34.3213 40.192C35.4974 38.3718 36.1855 34.4105 36.3658 32.8475C36.3669 32.8354 36.368 32.8244 36.3702 32.8134C36.4196 32.5112 36.3185 32.2045 36.0998 31.9912C35.5381 31.4669 34.7962 31.2867 33.7663 31.5977C33.5025 31.6769 33.2167 31.5967 33.0342 31.3911C32.2571 30.5184 31.302 30.3425 30.172 30.8338C29.9027 30.9514 29.5895 30.8899 29.3839 30.68C28.2551 29.5236 26.5888 29.6017 24.6103 30.2766C24.3949 30.3491 24.1563 30.315 23.9706 30.182C23.7859 30.049 23.676 29.8347 23.676 29.6072V18.1792C23.676 17.0493 22.7593 16.1326 21.6294 16.1326H21.6272C20.4973 16.1326 19.5806 17.0493 19.5806 18.1792V31.3801C19.5806 31.6956 19.3706 31.9737 19.0672 32.0594C18.7628 32.1462 18.4385 32.0187 18.2726 31.7494C16.7953 29.3467 14.1068 28.2431 11.9854 28.1684C11.3182 28.1453 10.7093 28.2233 10.2223 28.408C10.0849 28.4596 9.95634 28.5201 9.84422 28.5882C13.3011 30.9866 15.5587 33.6224 17.5977 36.2659C17.6174 36.2911 17.635 36.3186 17.6515 36.3461Z" fill="#E6000D" stroke="#E6000D" stroke-width="0.8"/>
</svg>
