<svg width="144" height="138" viewBox="0 0 144 138" fill="none" xmlns="http://www.w3.org/2000/svg">
<g clip-path="url(#clip0_1_126)">
<path d="M2.5914 96.4238C3.54417 96.4238 4.46167 96.7377 5.12656 97.3184C5.7717 97.8818 6.23587 98.7439 6.23593 99.9873V120.675C6.23593 126.713 11.3816 131.758 17.3932 131.758H41.0934C42.3343 131.758 43.2027 132.222 43.773 132.871C44.3602 133.539 44.6797 134.46 44.6842 135.413C44.6886 136.366 44.378 137.282 43.7965 137.946C43.232 138.591 42.3605 139.059 41.0934 139.059H17.3932C7.34951 139.058 -1.05313 130.722 -1.05313 120.675V99.9873C-1.05307 98.7439 -0.588893 97.8818 0.0562439 97.3184C0.721122 96.7377 1.63863 96.4238 2.5914 96.4238ZM141.408 96.4238C142.361 96.4238 143.278 96.7377 143.943 97.3184C144.588 97.8818 145.052 98.7439 145.052 99.9873V120.675C145.052 130.815 136.818 139.059 126.693 139.059H102.993C101.752 139.059 100.892 138.595 100.329 137.949C99.7486 137.283 99.4352 136.363 99.4352 135.408C99.4352 134.453 99.7486 133.534 100.329 132.868C100.892 132.222 101.752 131.758 102.993 131.758H126.693C132.808 131.758 137.763 126.783 137.763 120.588V99.9873C137.763 98.7439 138.228 97.8818 138.873 97.3184C139.537 96.7377 140.455 96.4239 141.408 96.4238ZM13.9205 77.1162C14.7049 76.8168 15.6658 76.8136 16.7437 77.3975L16.7555 77.4043L71.5357 106.089L71.9996 106.331L72.4635 106.089L127.33 77.4043L127.337 77.4014C128.437 76.8151 129.415 76.8209 130.212 77.127C131.034 77.4426 131.737 78.1075 132.177 78.9482C132.617 79.789 132.761 80.743 132.549 81.5947C132.344 82.4204 131.788 83.2277 130.668 83.7979L130.657 83.8037L73.7223 113.609C73.1593 113.891 72.6173 114.025 71.9996 114.025C71.4596 114.025 70.8316 113.887 70.2769 113.609L13.4361 83.8066C12.3336 83.2191 11.7858 82.4018 11.5875 81.5674C11.3835 80.7082 11.5335 79.7541 11.9732 78.918C12.4133 78.0813 13.1109 77.4253 13.9205 77.1162ZM70.2828 24.3857C71.386 23.8358 72.6121 23.8361 73.7154 24.3857L130.657 54.1963C133.241 55.5608 133.24 59.3197 130.654 60.6826L73.7164 90.3164C73.1554 90.5963 72.6152 90.7295 71.9996 90.7295C71.4614 90.7295 70.8361 90.5922 70.2828 90.3164L13.4312 60.5957H13.4322C10.9424 59.2836 10.8269 55.781 13.2115 54.2412L13.4498 54.0986L70.2828 24.3857ZM71.5348 31.9111L24.6549 56.5098L22.9644 57.3975L24.6568 58.2812L71.5367 82.7939L71.9996 83.0361L72.4625 82.7939L119.429 58.2822L121.125 57.3975L119.43 56.5098L72.4635 31.9102L71.9996 31.667L71.5348 31.9111ZM71.9996 45.4443C78.5562 45.4443 83.8482 50.8102 83.8482 57.3955C83.8482 63.8807 78.5694 69.1729 71.9996 69.1729C65.5211 69.1728 60.2379 63.8851 60.2379 57.3955C60.2379 50.8058 65.5343 45.4444 71.9996 45.4443ZM71.9996 52.7451C70.5671 52.7452 69.4214 53.3107 68.6451 54.2021C67.8862 55.0738 67.5229 56.205 67.5162 57.3027C67.5096 58.4006 67.8597 59.5372 68.6197 60.4141C69.3975 61.3111 70.5513 61.872 71.9996 61.8721C73.4792 61.8721 74.6599 61.32 75.4576 60.4229C76.2388 59.5441 76.5941 58.4012 76.5807 57.2959C76.5671 56.191 76.1849 55.0588 75.4059 54.1904C74.6108 53.3043 73.4467 52.7451 71.9996 52.7451ZM17.3062 -1.05957H41.0934C42.3341 -1.05957 43.1956 -0.595258 43.7584 0.0507812C44.3384 0.716677 44.6519 1.63608 44.6519 2.59082C44.6519 3.54557 44.3384 4.46497 43.7584 5.13086C43.1956 5.7769 42.3341 6.24121 41.0934 6.24121H17.3932C11.2024 6.24131 6.23593 11.2045 6.23593 17.3242V38.0117C6.23593 40.0558 4.61165 41.6179 2.63535 41.6182C0.572166 41.6182 -1.05313 39.9692 -1.05313 38.0117V17.3242C-1.05313 7.18395 7.18163 -1.05942 17.3062 -1.05957ZM102.993 -1.05957H126.606C136.731 -1.05957 144.965 7.18385 144.965 17.3242V38.0283L144.966 38.0449C145.033 40.0448 143.448 41.618 141.365 41.6182C139.401 41.6182 137.763 39.9814 137.763 38.0117V17.3242C137.763 11.2045 132.797 6.24121 126.606 6.24121H102.993C101.752 6.24121 100.892 5.77683 100.329 5.13086C99.7486 4.46495 99.4352 3.5457 99.4352 2.59082C99.4352 1.63593 99.7486 0.716701 100.329 0.0507812C100.892 -0.595204 101.752 -1.05957 102.993 -1.05957Z" fill="#E6000D" stroke="#EAEAEA" stroke-width="2"/>
</g>
<defs>
<clipPath id="clip0_1_126">
<rect width="144" height="138" fill="white"/>
</clipPath>
</defs>
</svg>
