<svg width="150" height="150" viewBox="0 0 150 150" fill="none" xmlns="http://www.w3.org/2000/svg">
<g clip-path="url(#clip0_1_956)">
<g clip-path="url(#clip1_1_956)">
<path d="M17.6652 5.34692H41.922C43.8842 5.34707 45.4738 6.93647 45.4738 8.89575C45.4736 10.8549 43.8841 12.4444 41.922 12.4446H17.6652C14.7563 12.4447 12.3968 14.801 12.3966 17.7092V41.9485C12.3964 43.9077 10.8071 45.4973 8.84485 45.4973C6.88266 45.4973 5.29325 43.9077 5.29309 41.9485V17.7092C5.29328 10.8823 10.8317 5.34706 17.6652 5.34692Z" fill="#E6000D" stroke="#EAEAEA" stroke-width="1.71642"/>
<path d="M108.075 5.34692H132.331C139.165 5.34716 144.703 10.8823 144.703 17.7092V41.9485C144.703 43.9077 143.114 45.4972 141.152 45.4973C139.189 45.4973 137.599 43.9077 137.599 41.9485V17.7092C137.599 14.8011 135.24 12.4448 132.331 12.4446H108.075C106.112 12.4445 104.523 10.855 104.523 8.89575C104.523 6.93641 106.112 5.34697 108.075 5.34692Z" fill="#E6000D" stroke="#EAEAEA" stroke-width="1.71642"/>
<path d="M8.84485 104.505C10.8072 104.505 12.3966 106.095 12.3966 108.054V132.292C12.3966 135.201 14.7562 137.558 17.6652 137.558H41.922C43.8842 137.558 45.4738 139.147 45.4738 141.107C45.4736 143.066 43.8841 144.655 41.922 144.656H17.6652C10.8315 144.656 5.29309 139.12 5.29309 132.292V108.054C5.29309 106.095 6.88255 104.505 8.84485 104.505Z" fill="#E6000D" stroke="#EAEAEA" stroke-width="1.71642"/>
<path d="M141.152 104.505C143.114 104.505 144.703 106.095 144.703 108.054V132.292C144.703 139.12 139.165 144.655 132.331 144.656H108.075C106.112 144.656 104.523 143.066 104.523 141.107C104.523 139.147 106.112 137.558 108.075 137.558H132.331C135.24 137.558 137.599 135.201 137.599 132.292V108.054C137.599 106.095 139.189 104.505 141.152 104.505Z" fill="#E6000D" stroke="#EAEAEA" stroke-width="1.71642"/>
<path fill-rule="evenodd" clip-rule="evenodd" d="M74.999 61.7777C67.6916 61.7777 61.7682 67.6968 61.7682 74.9988C61.7682 82.3008 67.6916 88.2198 74.999 88.2198C82.3063 88.2198 88.2297 82.3008 88.2297 74.9988C88.2297 67.6968 82.3063 61.7777 74.999 61.7777ZM70.5887 74.9988C70.5887 72.5648 72.5632 70.5917 74.999 70.5917C77.4347 70.5917 79.4092 72.5648 79.4092 74.9988C79.4092 77.4328 77.4347 79.4058 74.999 79.4058C72.5632 79.4058 70.5887 77.4328 70.5887 74.9988Z" fill="#E6000D"/>
<path d="M74.9987 61.7777C82.3059 61.7777 88.23 67.6966 88.2302 74.9984C88.2302 82.3004 82.306 88.2201 74.9987 88.2201C67.6915 88.22 61.7682 82.3003 61.7682 74.9984C61.7684 67.6967 67.6916 61.7778 74.9987 61.7777ZM74.9987 63.4945C68.6384 63.4946 63.4852 68.6458 63.485 74.9984C63.485 81.3512 68.6383 86.5032 74.9987 86.5033C81.3593 86.5033 86.5134 81.3513 86.5134 74.9984C86.5132 68.6457 81.3592 63.4945 74.9987 63.4945ZM74.9987 68.8754C78.3811 68.8754 81.1255 71.6154 81.1257 74.9984C81.1257 78.3815 78.3813 81.1224 74.9987 81.1224C71.6163 81.1223 68.8727 78.3815 68.8727 74.9984C68.8729 71.6155 71.6164 68.8755 74.9987 68.8754ZM74.9987 70.5922C72.5632 70.5923 70.5888 72.5647 70.5886 74.9984C70.5886 77.4323 72.5631 79.4055 74.9987 79.4056C77.4345 79.4056 79.4089 77.4324 79.4089 74.9984C79.4087 72.5646 77.4344 70.5922 74.9987 70.5922Z" fill="#EAEAEA"/>
<path d="M66.178 36.1938H83.8186C85.781 36.1939 87.3704 37.7833 87.3704 39.7427V45.1509L88.8352 43.687L91.1975 41.3276C92.5846 39.9415 94.8339 39.9414 96.2209 41.3276L108.695 53.7925C110.082 55.1782 110.082 57.4243 108.695 58.8101L106.333 61.1704L104.866 62.6362H110.28C112.242 62.6362 113.832 64.2256 113.832 66.1851V83.813C113.832 85.7723 112.242 87.3618 110.28 87.3618H104.866L106.333 88.8267L108.696 91.187C109.361 91.8523 109.735 92.7549 109.735 93.6958C109.735 94.6367 109.361 95.5393 108.696 96.2046L96.2209 108.669C94.8339 110.056 92.5846 110.056 91.1975 108.669L88.8352 106.31L87.3704 104.846V110.254C87.3704 112.214 85.781 113.803 83.8186 113.803H66.178C64.2156 113.803 62.6252 112.214 62.6252 110.254V104.846L61.1604 106.31L58.7991 108.67C57.4115 110.056 55.1622 110.056 53.7747 108.67L41.301 96.2046C39.9145 94.819 39.9144 92.5732 41.301 91.187L43.6633 88.8267L45.1292 87.3618H39.7161C37.7539 87.3618 36.1645 85.7722 36.1643 83.813V66.1851C36.1643 65.2441 36.5384 64.3407 37.2043 63.6753C37.8705 63.0099 38.774 62.6363 39.7161 62.6362H45.1292L43.6633 61.1704L41.301 58.8101H41.3C39.9139 57.4238 39.9143 55.1774 41.301 53.7915L53.7756 41.3267C54.4415 40.6613 55.3449 40.2876 56.2874 40.2876C57.2292 40.2876 58.1327 40.6612 58.7991 41.3267L61.1604 43.687L62.6252 45.1509V39.7427C62.6252 37.7833 64.2156 36.1938 66.178 36.1938ZM69.7297 53.7202C69.7296 55.0652 68.9691 56.2864 67.7805 56.8862L67.5374 56.9976C66.2096 57.5472 64.6811 57.244 63.6653 56.229L56.8938 49.4614L56.2874 48.855L55.6809 49.4614L49.4436 55.6938L48.8352 56.3013L49.4436 56.9087L56.2151 63.6753C57.2307 64.6902 57.5348 66.2164 56.9856 67.5425C56.4359 68.8685 55.1402 69.7329 53.7034 69.7329H43.2678V80.2642H53.7034C55.0504 80.2642 56.2732 81.024 56.8733 82.2114L56.9846 82.4546C57.4999 83.6977 57.2658 85.1167 56.3977 86.1255L56.2151 86.3218L49.4436 93.0884L48.8352 93.6958L49.4436 94.3032L55.6809 100.536L56.2874 101.142L56.8938 100.536L63.6653 93.7681C64.681 92.7531 66.2095 92.4493 67.5374 92.9985C68.8648 93.5481 69.7297 94.8431 69.7297 96.2778V106.706H80.2668V96.2778C80.2668 94.843 81.1317 93.548 82.4592 92.9985C83.7869 92.4495 85.3147 92.7533 86.3303 93.7681L93.1028 100.536L93.7092 101.141L94.3157 100.536L100.553 94.3032L101.16 93.6958L100.553 93.0884L93.7805 86.3218C92.8284 85.3703 92.5023 83.9696 92.9182 82.7056L93.011 82.4546C93.5602 81.1289 94.8555 80.2643 96.2922 80.2642H106.728V69.7329H96.2922C94.8555 69.7328 93.5607 68.8683 93.011 67.5425C92.4616 66.2164 92.7649 64.6902 93.7805 63.6753L100.553 56.9087L101.16 56.3013L100.553 55.6938L94.3157 49.4624L93.7092 48.856L93.1028 49.4624L86.3303 56.229C85.3781 57.1805 83.9757 57.507 82.7102 57.0913L82.4592 56.9976L82.2151 56.8862C81.0267 56.2864 80.267 55.0651 80.2668 53.7202V43.2915H69.7297V53.7202Z" fill="#E6000D" stroke="#EAEAEA" stroke-width="1.71642"/>
</g>
</g>
<defs>
<clipPath id="clip0_1_956">
<rect width="138" height="138" fill="white" transform="translate(6 6)"/>
</clipPath>
<clipPath id="clip1_1_956">
<rect width="138" height="138" fill="white" transform="translate(6 6)"/>
</clipPath>
</defs>
</svg>
