<svg width="40" height="38" viewBox="0 0 40 38" fill="none" xmlns="http://www.w3.org/2000/svg">
<path d="M16.8077 17.5385C21.6308 17.5385 25.5769 13.5923 25.5769 8.76923C25.5769 3.94615 21.6308 0 16.8077 0C11.9846 0 8.03846 3.94615 8.03846 8.76923C8.03846 13.5923 11.9846 17.5385 16.8077 17.5385ZM16.8077 2.92308C20.0231 2.92308 22.6538 5.55385 22.6538 8.76923C22.6538 11.9846 20.0231 14.6154 16.8077 14.6154C13.5923 14.6154 10.9615 11.9846 10.9615 8.76923C10.9615 5.55385 13.5923 2.92308 16.8077 2.92308Z" fill="#E6000D"/>
<path d="M16.8077 19.731C7.6 19.731 0 27.331 0 36.5386C0 37.4156 0.584615 38.0002 1.46154 38.0002C2.33846 38.0002 2.92308 37.4156 2.92308 36.5386C2.92308 28.9386 9.20769 22.654 16.8077 22.654C24.4077 22.654 30.6923 28.9386 30.6923 36.5386C30.6923 37.4156 31.3535 37.5005 32.2305 37.5005C33.1074 37.5005 33.6154 37.4156 33.6154 36.5386C33.6154 27.331 26.0154 19.731 16.8077 19.731Z" fill="#E6000D"/>
<circle cx="30.4623" cy="29.001" r="7.75" fill="white" stroke="#E6000D" stroke-width="2.5"/>
<path d="M33.9707 26.2342L29.7535 30.0782L27.9538 28.4378C27.6126 28.1268 27.0593 28.1268 26.7182 28.4378C26.377 28.7489 26.377 29.2532 26.7182 29.5642L29.1357 31.7678C29.3062 31.9232 29.5299 32.001 29.7535 32.001C29.977 32.001 30.2007 31.9232 30.3713 31.7678L35.2063 27.3606C35.5476 27.0496 35.5476 26.5453 35.2064 26.2343C34.8653 25.9233 34.312 25.9232 33.9707 26.2342Z" fill="#E6000D"/>
</svg>
