<svg width="139" height="124" viewBox="0 0 139 124" fill="none" xmlns="http://www.w3.org/2000/svg">
<g clip-path="url(#clip0_47_220)">
<path d="M69.2085 124C46.7202 123.261 28.0935 114.17 13.9843 95.9815C13.569 95.4786 13.2029 94.9363 12.8914 94.3624C12.5692 93.7217 12.4782 92.9882 12.6339 92.2874C12.7896 91.5866 13.1823 90.962 13.7449 90.5206C14.3075 90.0792 15.005 89.8484 15.718 89.8677C16.431 89.8869 17.1151 90.1551 17.6534 90.6262C18.2963 91.2719 18.8814 91.9733 19.4021 92.7222C30.7842 107.117 45.492 115.658 63.7335 117.198C86.7163 119.137 105.369 110.491 119.796 92.4655C120.202 91.9415 120.571 91.4175 121.013 90.9354C122.252 89.6097 123.876 89.4367 125.213 90.4481C125.864 90.9049 126.308 91.603 126.447 92.389C126.587 93.175 126.411 93.9847 125.958 94.6401C125.206 95.7889 124.382 96.8881 123.491 97.9308C109.428 114.851 91.3794 123.366 69.2085 124Z" fill="#E6000D"/>
<path d="M67.6628 102.233C53.6681 101.709 40.7715 95.4626 31.1173 82.8184C30.3719 81.7937 30.0441 80.5207 30.2013 79.2604C30.7218 76.8029 33.7664 76.4728 35.6087 78.5059C37.7478 80.8744 39.7307 83.4263 42.1039 85.5327C59.9655 101.4 87.7936 98.6957 102.428 79.7687C102.746 79.3548 103.053 78.9303 103.391 78.5321C104.75 76.9601 106.431 76.7138 107.862 77.8299C109.293 78.946 109.449 80.7486 108.278 82.3783C105.132 86.7285 101.278 90.5126 96.8805 93.571C88.975 99.1202 79.0397 102.264 67.6628 102.233Z" fill="#E6000D"/>
<path d="M69.3231 80.5966C60.7878 80.2718 53.6473 76.8395 48.2972 69.8546C46.918 68.052 47.1262 66.1394 48.6875 65.0337C50.2488 63.9281 51.9194 64.3578 53.3715 66.239C56.286 69.9699 59.9811 72.527 64.5766 73.575C72.7372 75.4509 79.5914 73.0982 85.0925 66.7892C87.1743 64.3945 88.8449 63.8128 90.4635 65.1438C92.082 66.4748 91.9936 68.3612 89.943 70.7925C84.6137 77.1801 77.7282 80.3346 69.3231 80.5966Z" fill="#E6000D"/>
<path d="M102.225 0.0213493C109.694 0.0213493 116.845 -0.0100908 123.99 0.0213493C132.5 0.0632695 139.016 6.50327 139 14.7982C138.984 23.0932 132.494 29.4703 124.095 29.4703C87.6635 29.4948 51.2325 29.4948 14.8014 29.4703C12.8584 29.5124 10.9266 29.1641 9.11876 28.4458C7.31097 27.7275 5.66351 26.6537 4.27265 25.287C2.88179 23.9203 1.77543 22.2882 1.01824 20.486C0.261048 18.6839 -0.131801 16.7479 -0.137335 14.7912C-0.142869 12.8344 0.239019 10.8962 0.986007 9.08974C1.73299 7.2833 2.8301 5.64488 4.21321 4.27024C5.59631 2.89559 7.23768 1.8123 9.04137 1.08367C10.8451 0.355033 12.7749 -0.00432341 14.7181 0.0265945C21.2861 -0.0310458 27.8593 0.0265945 34.4325 0.0265945H36.7953M124.126 23.2032C127.769 23.2032 130.517 21.5421 132.021 18.1518C133.457 14.9135 132.9 11.8638 130.631 9.18617C128.877 7.09016 126.535 6.30939 123.866 6.31463C110.4 6.31463 96.936 6.31463 83.4739 6.31463C60.7097 6.31463 37.9438 6.31463 15.1761 6.31463C8.93081 6.31463 4.81931 11.7328 6.67209 17.4025C7.84309 20.9919 10.9866 23.1928 15.0564 23.198C29.8821 23.198 44.7113 23.198 59.5439 23.198H69.5C87.7051 23.1945 105.914 23.1927 124.126 23.1927V23.2032Z" fill="#E6000D"/>
<path d="M94.5021 55.8585H44.4927C41.5695 55.8557 38.7666 54.6867 36.6976 52.6076C34.6287 50.5284 33.4624 47.7085 33.4541 44.7653V23.3965H105.53V44.7653C105.522 47.7067 104.357 50.525 102.29 52.6039C100.224 54.6827 97.4235 55.8529 94.5021 55.8585ZM39.179 29.1605V44.7653C39.1804 46.1838 39.7406 47.5438 40.7368 48.5469C41.7331 49.5499 43.0838 50.114 44.4927 50.1154H94.5021C95.9092 50.1112 97.2573 49.5459 98.2512 48.5432C99.2452 47.5404 99.8041 46.182 99.8054 44.7653V29.1605H39.179Z" fill="#E6000D"/>
</g>
<defs>
<clipPath id="clip0_47_220">
<rect width="139" height="124" fill="white"/>
</clipPath>
</defs>
</svg>
