<svg width="41" height="40" viewBox="0 0 41 40" fill="none" xmlns="http://www.w3.org/2000/svg">
<path fill-rule="evenodd" clip-rule="evenodd" d="M20.0104 25.3469C17.7597 25.3469 15.734 26.7724 14.9838 28.898C14.7337 29.5983 15.0963 30.361 15.7966 30.5986C16.4968 30.8486 17.247 30.486 17.4971 29.7858C17.8722 28.723 18.885 28.0103 20.0104 28.0103C21.1357 28.0103 22.1486 28.723 22.5237 29.7858C22.7737 30.486 23.549 30.8486 24.2242 30.5986C24.9244 30.3485 25.287 29.5857 25.037 28.898C24.2867 26.7724 22.2611 25.3469 20.0104 25.3469Z" fill="#E6000D"/>
<path fill-rule="evenodd" clip-rule="evenodd" d="M40.0125 20.669C40.0125 15.3798 35.8862 11.0284 30.6721 10.6908C30.6721 7.82745 29.5718 5.13911 27.5461 3.12598C25.533 1.11285 22.8572 0 20.0063 0C17.1554 0 14.4795 1.11285 12.4664 3.12598C10.4408 5.15161 9.34044 7.83995 9.34044 10.6908C4.13882 11.0284 2.28882e-05 15.3798 2.28882e-05 20.669C2.28882e-05 25.9581 4.17633 30.3345 9.42797 30.6346C10.0782 35.8987 14.5671 40 20.0063 40C25.4455 40 29.9469 35.8987 30.5846 30.6346C33.0353 30.497 35.3236 29.4842 37.0741 27.7337C38.9622 25.8456 40 23.3323 40 20.6565L40.0125 20.669ZM20.0063 37.3492C15.5924 37.3492 12.0038 33.7605 12.0038 29.3467C12.0038 24.9328 15.5924 21.3442 20.0063 21.3442C24.4202 21.3442 28.0088 24.9328 28.0088 29.3467C28.0088 33.7605 24.4202 37.3492 20.0063 37.3492ZM30.5721 27.9587C29.8844 22.7321 25.4205 18.6808 20.0063 18.6808C14.5921 18.6808 10.1032 22.7446 9.42797 27.9837C5.65179 27.6962 2.66336 24.5327 2.66336 20.669C2.66336 16.8053 5.95188 13.3417 9.99064 13.3417H10.6659C11.4036 13.3417 12.0038 12.7415 12.0038 12.0038V10.6658C12.0038 8.52766 12.8415 6.51454 14.342 5.00156C15.8425 3.48859 17.8681 2.66333 20.0063 2.66333C22.1444 2.66333 24.1576 3.50109 25.6705 5.00156C27.1835 6.50203 28.0088 8.52766 28.0088 10.6658V12.0038C28.0088 12.7415 28.609 13.3417 29.3467 13.3417H30.0219C34.0607 13.3417 37.3492 16.6302 37.3492 20.6815C37.3492 22.6446 36.5865 24.4826 35.1985 25.8706C33.9481 27.121 32.3226 27.8337 30.5721 27.9587Z" fill="#E6000D"/>
<path fill-rule="evenodd" clip-rule="evenodd" d="M20.0066 30.6706C19.2688 30.6706 18.6687 31.2708 18.6687 32.0085C18.6687 32.7462 19.2688 33.3464 20.0066 33.3464C20.7443 33.3464 21.3445 32.7462 21.3445 32.0085C21.3445 31.2708 20.7443 30.6706 20.0066 30.6706Z" fill="#E6000D"/>
</svg>
