<svg width="39" height="39" viewBox="0 0 39 39" fill="none" xmlns="http://www.w3.org/2000/svg">
<path fill-rule="evenodd" clip-rule="evenodd" d="M19.5 0.5C15.7422 0.5 12.0687 1.61433 8.94417 3.70208C5.81964 5.78982 3.38436 8.75722 1.9463 12.229C0.508232 15.7008 0.131969 19.5211 0.865088 23.2067C1.59821 26.8924 3.40778 30.2778 6.06498 32.935C8.72218 35.5922 12.1077 37.4018 15.7933 38.1349C19.4789 38.868 23.2992 38.4918 26.771 37.0537C30.2428 35.6156 33.2102 33.1804 35.2979 30.0558C37.3857 26.9313 38.5 23.2578 38.5 19.5C38.4976 14.4616 36.495 9.63032 32.9323 6.06765C29.3697 2.50499 24.5384 0.502431 19.5 0.5ZM19.5 37.1896C16.0013 37.1896 12.5812 36.1522 9.67216 34.2084C6.76311 32.2646 4.49579 29.5019 3.1569 26.2695C1.81801 23.0372 1.4677 19.4804 2.15025 16.0489C2.83281 12.6175 4.51759 9.46547 6.99153 6.99152C9.46548 4.51758 12.6175 2.83281 16.0489 2.15025C19.4804 1.46769 23.0372 1.818 26.2695 3.15689C29.5019 4.49578 32.2646 6.7631 34.2084 9.67215C36.1522 12.5812 37.1897 16.0013 37.1897 19.5C37.1876 24.1909 35.3232 28.6892 32.0062 32.0062C28.6892 35.3232 24.191 37.1876 19.5 37.1896Z" fill="#E6000D" stroke="#E6000D"/>
<path fill-rule="evenodd" clip-rule="evenodd" d="M23.529 14.939C23.3882 14.8984 23.2379 14.9061 23.102 14.961C22.9661 15.0159 22.8526 15.1147 22.7795 15.2417C21.8819 16.801 20.2453 17.0054 18.8484 17.2806C17.7601 17.3744 16.7341 17.8286 15.9329 18.5713C15.3996 19.2203 15.1027 20.0313 15.0908 20.8713C15.0789 21.7112 15.3527 22.5303 15.8674 23.1942C15.5404 23.7981 15.2563 24.4243 15.017 25.068C14.9595 25.232 14.9695 25.4122 15.0448 25.5688C15.1201 25.7255 15.2546 25.8458 15.4186 25.9033C15.5826 25.9608 15.7628 25.9508 15.9195 25.8755C16.0761 25.8002 16.1964 25.6657 16.254 25.5017C16.4301 25.0255 16.6349 24.5603 16.8672 24.1088C17.6236 24.5992 18.5325 24.7978 19.4245 24.6676C20.3165 24.5374 21.1308 24.0873 21.7155 23.4012C23.1477 21.6873 23.9116 18.1101 24.0125 15.5942C24.0176 15.4465 23.9727 15.3013 23.8849 15.1824C23.7971 15.0634 23.6717 14.9777 23.529 14.939ZM20.6986 22.5613C20.3114 23.0101 19.7721 23.3 19.1842 23.3755C18.5963 23.451 18.0012 23.3066 17.5132 22.9701C17.6115 22.8194 17.7137 22.6687 17.8211 22.5194C18.3728 21.6276 19.2186 20.9565 20.2125 20.622C20.3818 20.5822 20.5283 20.4768 20.6198 20.329C20.7113 20.1812 20.7404 20.0031 20.7006 19.8338C20.6608 19.6646 20.5554 19.5181 20.4076 19.4265C20.2598 19.335 20.0817 19.3059 19.9124 19.3457C18.6158 19.7552 17.5033 20.6054 16.7676 21.7489C16.7231 21.8118 16.6772 21.8799 16.6366 21.9389C16.4405 21.5324 16.3652 21.0782 16.4195 20.6301C16.4739 20.1821 16.6556 19.7591 16.9432 19.4112C17.2411 19.1055 17.6234 18.8957 18.0413 18.8085C18.6086 18.6434 19.2573 18.5464 19.9164 18.4023C20.8381 18.2383 21.7198 17.8989 22.5135 17.4025C22.3463 19.2461 21.7226 21.0191 20.6986 22.5613Z" fill="#E6000D" stroke="#E6000D" stroke-width="0.5"/>
<path fill-rule="evenodd" clip-rule="evenodd" d="M24.2782 8.93877C23.9097 8.57054 23.4101 8.36364 22.8892 8.36353H12.9489C12.4276 8.36353 11.9277 8.57061 11.5591 8.93921C11.1905 9.30782 10.9834 9.80775 10.9834 10.329V28.6739C10.9834 29.1952 11.1905 29.6951 11.5591 30.0637C11.9277 30.4323 12.4276 30.6394 12.9489 30.6394H26.0524C26.5736 30.6394 27.0736 30.4323 27.4422 30.0637C27.8108 29.6951 28.0179 29.1952 28.0179 28.6739V13.4922C28.018 13.2341 27.9673 12.9784 27.8686 12.7399C27.7699 12.5013 27.6251 12.2845 27.4426 12.1019L24.2782 8.93877ZM23.5444 10.0578L26.3236 12.837H24.1995C24.0258 12.837 23.8591 12.768 23.7363 12.6451C23.6134 12.5223 23.5444 12.3556 23.5444 12.1819V10.0578ZM26.7075 28.6739C26.7075 28.8476 26.6385 29.0143 26.5156 29.1371C26.3928 29.26 26.2261 29.329 26.0524 29.329H12.9489C12.7752 29.329 12.6085 29.26 12.4856 29.1371C12.3628 29.0143 12.2937 28.8476 12.2937 28.6739V10.329C12.2937 10.1553 12.3628 9.98863 12.4856 9.86576C12.6085 9.7429 12.7752 9.67387 12.9489 9.67387H22.234V12.1819C22.234 12.7032 22.4411 13.2031 22.8097 13.5717C23.1783 13.9403 23.6782 14.1474 24.1995 14.1474H26.7075V28.6739Z" fill="#E6000D" stroke="#E6000D" stroke-width="0.5"/>
</svg>
