<svg width="40" height="40" viewBox="0 0 40 40" fill="none" xmlns="http://www.w3.org/2000/svg">
<path fill-rule="evenodd" clip-rule="evenodd" d="M13.9533 18.1392V21.8601C13.9533 22.9708 14.3942 24.035 15.1793 24.8201C15.9644 25.6053 17.0286 26.0462 18.1393 26.0462H21.8603C22.971 26.0462 24.0352 25.6053 24.8203 24.8201C25.6054 24.035 26.0463 22.9708 26.0463 21.8601V18.1392C26.0463 17.0285 25.6054 15.9643 24.8203 15.1792C24.0352 14.3941 22.971 13.9531 21.8603 13.9531H18.1393C17.0286 13.9531 15.9644 14.3941 15.1793 15.1792C14.3942 15.9643 13.9533 17.0285 13.9533 18.1392ZM16.744 18.1392C16.744 17.769 16.891 17.4136 17.1533 17.1531C17.4137 16.8908 17.7691 16.7438 18.1393 16.7438H21.8603C22.2305 16.7438 22.5859 16.8908 22.8463 17.1531C23.1086 17.4136 23.2556 17.769 23.2556 18.1392V21.8601C23.2556 22.2304 23.1086 22.5857 22.8463 22.8462C22.5859 23.1085 22.2305 23.2555 21.8603 23.2555H18.1393C17.7691 23.2555 17.4137 23.1085 17.1533 22.8462C16.891 22.5857 16.744 22.2304 16.744 21.8601V18.1392Z" fill="#E6000D"/>
<path fill-rule="evenodd" clip-rule="evenodd" d="M0 4.18606V7.907C0 9.01771 0.440932 10.0819 1.22605 10.867C2.01117 11.6521 3.07536 12.0931 4.18606 12.0931H7.907C9.01771 12.0931 10.0819 11.6521 10.867 10.867C11.6521 10.0819 12.0931 9.01771 12.0931 7.907V4.18606C12.0931 3.07536 11.6521 2.01117 10.867 1.22605C10.0819 0.440932 9.01771 0 7.907 0H4.18606C3.07536 0 2.01117 0.440932 1.22605 1.22605C0.440932 2.01117 0 3.07536 0 4.18606ZM2.79071 4.18606C2.79071 3.81583 2.93768 3.46048 3.20001 3.20001C3.46048 2.93768 3.81583 2.79071 4.18606 2.79071H7.907C8.27724 2.79071 8.63259 2.93768 8.89305 3.20001C9.15538 3.46048 9.30236 3.81583 9.30236 4.18606V7.907C9.30236 8.27724 9.15538 8.63259 8.89305 8.89305C8.63259 9.15538 8.27724 9.30236 7.907 9.30236H4.18606C3.81583 9.30236 3.46048 9.15538 3.20001 8.89305C2.93768 8.63259 2.79071 8.27724 2.79071 7.907V4.18606Z" fill="#E6000D"/>
<path fill-rule="evenodd" clip-rule="evenodd" d="M27.9065 32.0928V35.8137C27.9065 36.9244 28.3475 37.9886 29.1326 38.7738C29.9177 39.5589 30.9819 39.9998 32.0926 39.9998H35.8135C36.9242 39.9998 37.9884 39.5589 38.7735 38.7738C39.5587 37.9886 39.9996 36.9244 39.9996 35.8137V32.0928C39.9996 30.9821 39.5587 29.9179 38.7735 29.1328C37.9884 28.3477 36.9242 27.9067 35.8135 27.9067H32.0926C30.9819 27.9067 29.9177 28.3477 29.1326 29.1328C28.3475 29.9179 27.9065 30.9821 27.9065 32.0928ZM30.6972 32.0928C30.6972 31.7226 30.8442 31.3672 31.1065 31.1067C31.367 30.8444 31.7224 30.6974 32.0926 30.6974H35.8135C36.1838 30.6974 36.5391 30.8444 36.7996 31.1067C37.0619 31.3672 37.2089 31.7226 37.2089 32.0928V35.8137C37.2089 36.184 37.0619 36.5393 36.7996 36.7998C36.5391 37.0621 36.1838 37.2091 35.8135 37.2091H32.0926C31.7224 37.2091 31.367 37.0621 31.1065 36.7998C30.8442 36.5393 30.6972 36.184 30.6972 35.8137V32.0928Z" fill="#E6000D"/>
<path fill-rule="evenodd" clip-rule="evenodd" d="M10.6962 7.44305H34.8824C35.5 7.44305 36.0898 7.68863 36.527 8.12398C36.9624 8.56119 37.2079 9.15096 37.2079 9.76864V16.2803C37.2079 16.898 36.9624 17.4877 36.527 17.9249C36.0898 18.3603 35.5 18.6059 34.8824 18.6059H29.3009C28.5307 18.6059 27.9056 19.231 27.9056 20.0012C27.9056 20.7715 28.5307 21.3966 29.3009 21.3966H34.8824C36.2386 21.3966 37.541 20.857 38.501 19.8989C39.4591 18.9389 39.9987 17.6366 39.9987 16.2803C39.9987 14.2654 39.9987 11.7835 39.9987 9.76864C39.9987 8.41236 39.4591 7.11003 38.501 6.15002C37.541 5.19188 36.2386 4.65234 34.8824 4.65234C27.2842 4.65234 10.6962 4.65234 10.6962 4.65234C9.92599 4.65234 9.30088 5.27746 9.30088 6.0477C9.30088 6.81793 9.92599 7.44305 10.6962 7.44305Z" fill="#E6000D"/>
<path fill-rule="evenodd" clip-rule="evenodd" d="M21.8605 32.559H5.1163C4.49862 32.559 3.90885 32.3134 3.47164 31.8781C3.03629 31.4409 2.79071 30.8511 2.79071 30.2334C2.79071 28.2185 2.79071 25.7367 2.79071 23.7218C2.79071 23.1041 3.03629 22.5143 3.47164 22.0771C3.90885 21.6418 4.49862 21.3962 5.1163 21.3962H15.3489C16.1191 21.3962 16.7442 20.7711 16.7442 20.0008C16.7442 19.2306 16.1191 18.6055 15.3489 18.6055H5.1163C3.76001 18.6055 2.45768 19.145 1.49768 20.1031C0.539537 21.0632 0 22.3655 0 23.7218V30.2334C0 31.5897 0.539537 32.892 1.49768 33.852C2.45768 34.8102 3.76001 35.3497 5.1163 35.3497H21.8605C22.6308 35.3497 23.2559 34.7246 23.2559 33.9544C23.2559 33.1841 22.6308 32.559 21.8605 32.559Z" fill="#E6000D"/>
<path fill-rule="evenodd" clip-rule="evenodd" d="M34.0084 22.7335L31.2754 19.9986L34.0084 17.2637C34.5535 16.7205 34.5535 15.8349 34.0084 15.2917C33.4652 14.7465 32.5796 14.7465 32.0363 15.2917L28.3154 19.0126C27.7703 19.5577 27.7703 20.4396 28.3154 20.9847L32.0363 24.7056C32.5796 25.2508 33.4652 25.2508 34.0084 24.7056C34.5535 24.1624 34.5535 23.2768 34.0084 22.7335Z" fill="#E6000D"/>
<path fill-rule="evenodd" clip-rule="evenodd" d="M20.9866 38.6593L24.7075 34.9383C25.2527 34.3932 25.2527 33.5113 24.7075 32.9662L20.9866 29.2453C20.4433 28.7001 19.5578 28.7001 19.0145 29.2453C18.4694 29.7885 18.4694 30.6741 19.0145 31.2174L21.7475 33.9523L19.0145 36.6872C18.4694 37.2304 18.4694 38.116 19.0145 38.6593C19.5578 39.2044 20.4433 39.2044 20.9866 38.6593Z" fill="#E6000D"/>
</svg>
