<svg width="44" height="44" viewBox="0 0 44 44" fill="none" xmlns="http://www.w3.org/2000/svg">
<path d="M13.268 10.1273V4.14746H36.4399V10.1273" stroke="#E6000D" stroke-width="3" stroke-miterlimit="10" stroke-linecap="round" stroke-linejoin="round"/>
<path d="M9.53005 20.5594V12.3674C9.53005 11.1289 10.534 10.125 11.7725 10.125H37.9343C39.1728 10.125 40.1767 11.1289 40.1767 12.3674V23.5796C40.1767 24.8181 39.1728 25.8221 37.9343 25.8221H34.9443" stroke="#E6000D" stroke-width="3" stroke-miterlimit="10" stroke-linecap="round" stroke-linejoin="round"/>
<path d="M18.538 25.4196L13.1353 31.3289L10.8299 28.8071C10.3927 28.3291 9.68393 28.3291 9.24693 28.8071C8.80978 29.2854 8.80978 30.0606 9.24693 30.5387L12.3438 33.9263C12.5623 34.1653 12.8489 34.2848 13.1353 34.2848C13.4217 34.2848 13.7083 34.1653 13.9268 33.9263L20.1207 27.1512C20.558 26.673 20.558 25.8978 20.1209 25.4197C19.6839 24.9416 18.9751 24.9414 18.538 25.4196Z" fill="#E6000D"/>
<path d="M23.0938 23.5806H34.9425V33.2978H24.4444" stroke="#E6000D" stroke-width="3" stroke-miterlimit="10" stroke-linecap="round" stroke-linejoin="round"/>
<path d="M14.6121 40.175C20.3916 40.175 25.0768 35.4898 25.0768 29.7103C25.0768 23.9308 20.3916 19.2456 14.6121 19.2456C8.83264 19.2456 4.14744 23.9308 4.14744 29.7103C4.14744 35.4898 8.83264 40.175 14.6121 40.175Z" stroke="#E6000D" stroke-width="3" stroke-miterlimit="10" stroke-linecap="round" stroke-linejoin="round"/>
</svg>
