<svg width="40" height="40" viewBox="0 0 40 40" fill="none" xmlns="http://www.w3.org/2000/svg">
<path d="M30.2536 34.528C31.5157 33.2586 32.7443 32.0203 34.0315 30.7245C33.5104 30.1006 32.9642 29.4001 32.3666 28.7463C31.9316 28.2705 31.9662 27.857 32.234 27.2952C32.7467 26.223 33.1913 25.1137 33.5941 23.9949C33.7805 23.4761 34.0339 23.1845 34.5944 23.151C35.3689 23.1044 36.1434 23.041 36.9142 22.9466C37.0768 22.9263 37.3469 22.7422 37.3493 22.631C37.378 20.9635 37.3684 19.2949 37.3684 17.5784C36.4481 17.4923 35.5816 17.3836 34.7127 17.3405C34.1116 17.3106 33.8044 17.0644 33.5953 16.4835C33.1805 15.3264 32.6941 14.1921 32.179 13.0756C31.9579 12.5963 31.9447 12.2269 32.2949 11.8241C32.8949 11.1368 33.4722 10.4304 34.0291 9.76697C32.7586 8.50233 31.5228 7.27114 30.2297 5.98139C29.6058 6.50375 28.8947 7.07033 28.2158 7.67397C27.7975 8.04691 27.421 8.0493 26.9166 7.81741C25.8004 7.30103 24.6626 6.82648 23.5092 6.40095C22.9654 6.20133 22.6941 5.92043 22.6642 5.33472C22.62 4.46214 22.5184 3.59195 22.4371 2.67992C22.2638 2.65959 22.1133 2.62613 21.9627 2.62613C20.5093 2.62254 19.0548 2.63688 17.6015 2.61417C17.1927 2.6082 17.0445 2.73131 17.0254 3.1449C16.9884 3.93978 16.8904 4.73109 16.8306 5.52478C16.7983 5.9539 16.5832 6.18699 16.1792 6.34597C14.9243 6.83963 13.6801 7.3596 12.4431 7.8951C12.0153 8.08038 11.6818 7.99431 11.3495 7.70863C10.6563 7.11336 9.95478 6.52765 9.27593 5.9551C8.01741 7.22692 6.79117 8.46646 5.49919 9.77056C5.93423 10.2869 6.42425 10.8774 6.92503 11.4595C7.69591 12.3572 7.6983 12.3668 7.1533 13.3876C6.98478 13.7032 6.84256 14.0331 6.67165 14.3474C6.4362 14.7778 6.05255 14.9391 5.61512 14.7347C5.18725 14.5339 5.03546 14.1538 5.21474 13.684C5.22191 13.6649 5.2231 13.6422 5.23505 13.6279C5.89957 12.8127 5.57568 12.1815 4.90638 11.5564C4.50241 11.1786 4.17852 10.7137 3.82595 10.2822C3.41481 9.77773 3.41003 9.42631 3.85822 8.97328C5.3976 7.41578 6.94415 5.86545 8.49907 4.32229C8.95084 3.87404 9.30581 3.87046 9.81256 4.28643C10.4591 4.81715 11.101 5.35385 11.7224 5.91206C11.9806 6.14396 12.185 6.17982 12.5136 6.02681C13.2869 5.66583 14.0984 5.38493 14.8729 5.02633C15.0582 4.94027 15.2578 4.69164 15.284 4.49441C15.3952 3.66725 15.4442 2.83053 15.5147 1.99739C15.5757 1.28258 15.8063 1.0244 16.5234 1.01722C18.6939 0.996903 20.8643 0.995708 23.0359 1.00766C23.673 1.01125 23.918 1.26346 23.9849 1.91371C24.0733 2.76478 24.1152 3.62183 24.2263 4.46931C24.2526 4.66893 24.4343 4.93071 24.6136 5.01318C25.4071 5.37776 26.2187 5.70886 27.0409 6.00171C27.2501 6.07582 27.5919 6.04713 27.7616 5.91924C28.4273 5.41481 29.0429 4.84584 29.6882 4.31272C30.2344 3.86209 30.5571 3.86089 31.0412 4.33902C32.5841 5.86545 34.1211 7.39904 35.6474 8.94101C36.1386 9.43707 36.1386 9.74307 35.6892 10.2941C35.1478 10.9575 34.5705 11.5922 34.0518 12.2712C33.9335 12.4266 33.9036 12.7433 33.9741 12.9346C34.2693 13.7354 34.6398 14.51 34.9362 15.3109C35.0569 15.6384 35.2016 15.7794 35.5637 15.7974C36.4183 15.8392 37.268 15.948 38.1226 16.0066C38.6867 16.0448 38.9747 16.3628 38.9795 16.8839C38.9998 19.1347 39.0058 21.3855 38.9819 23.6351C38.9759 24.2041 38.5696 24.4467 38.0174 24.4862C37.164 24.5459 36.3095 24.6117 35.4609 24.7216C35.2816 24.7443 35.0558 24.9356 34.9781 25.1065C34.6159 25.9014 34.3207 26.7274 33.9526 27.5211C33.8104 27.8295 33.8498 28.0171 34.0614 28.255C34.6159 28.8802 35.1514 29.5232 35.6868 30.1663C36.1458 30.7174 36.1326 31.0521 35.6235 31.5625C34.1343 33.0566 32.6415 34.5484 31.1452 36.0365C30.5583 36.6199 30.238 36.6258 29.6094 36.0963C29.0154 35.5967 28.413 35.1042 27.8357 34.5866C27.5477 34.3284 27.2955 34.2388 26.9501 34.4826C26.7421 34.6285 26.4936 34.7265 26.2509 34.8125C25.7992 34.9715 25.4585 34.7803 25.2625 34.3822C25.0689 33.989 25.1944 33.61 25.5565 33.3925C26.0836 33.0757 26.6262 32.7542 27.2059 32.5665C27.4796 32.4781 27.917 32.6108 28.168 32.796C28.8994 33.3375 29.5747 33.9555 30.2524 34.5269L30.2536 34.528Z" fill="#E6000D" stroke="#E6000D" stroke-width="0.6"/>
<path d="M31.1684 20.1705C31.0548 24.0696 29.531 27.1475 26.4702 29.4294C26.2288 29.6099 25.8379 29.7259 25.5559 29.6709C25.3407 29.629 25.0431 29.2692 25.0419 29.0505C25.0408 28.7684 25.2296 28.3943 25.4579 28.2186C26.6602 27.2946 27.6558 26.2056 28.3801 24.8693C30.7812 20.4394 29.3493 14.8118 25.1184 12.0638C20.8612 9.29782 15.1734 10.229 12.0767 14.1974C11.9417 14.3696 11.8198 14.5536 11.6716 14.7138C11.3608 15.0521 10.9903 15.1394 10.6079 14.8549C10.2123 14.5608 10.1071 14.1377 10.4178 13.7576C11.0202 13.0212 11.6082 12.2431 12.3313 11.6395C15.7495 8.78742 19.6386 8.04273 23.7858 9.61578C27.9319 11.1888 30.3437 14.3146 31.0345 18.7205C31.1146 19.2297 31.129 19.7497 31.166 20.1717L31.1684 20.1705Z" fill="#E6000D" stroke="#E6000D" stroke-width="0.6"/>
<path d="M20.9997 20.1085C19.5571 21.562 18.1182 23.0191 16.672 24.4678C13.2956 27.8506 9.9169 31.2309 6.53815 34.6113C6.46763 34.6818 6.39712 34.7524 6.32182 34.8169C5.87961 35.1958 5.41827 35.2161 5.10753 34.8372C4.77408 34.432 4.84101 34.028 5.20195 33.6646C6.14374 32.7191 7.08673 31.7748 8.03092 30.8317C11.8901 26.9744 15.7505 23.1171 19.6097 19.2586C19.7018 19.1666 19.7806 19.059 19.9671 18.839C19.587 18.839 19.3384 18.839 19.091 18.839C17.5971 18.839 16.1019 18.8689 14.6103 18.8151C14.2996 18.8044 13.9064 18.5462 13.7295 18.282C13.6171 18.1147 13.7713 17.6844 13.9267 17.4525C14.0283 17.3007 14.345 17.2337 14.5661 17.2325C16.9959 17.217 19.4269 17.2158 21.8567 17.223C22.4877 17.2242 22.7745 17.5051 22.7769 18.1338C22.7853 20.5639 22.7841 22.9952 22.7769 25.4253C22.7757 26.0002 22.4662 26.36 22.0037 26.3767C21.5328 26.3947 21.1718 26.0002 21.1682 25.4097C21.1599 23.9359 21.1682 22.4609 21.1706 20.987C21.1706 20.7133 21.1706 20.4408 21.1706 20.167C21.1144 20.1467 21.0571 20.1264 21.0009 20.1073L20.9997 20.1085Z" fill="#E6000D" stroke="#E6000D" stroke-width="0.6"/>
<path d="M7.0095 19.031C5.91472 19.031 5.00878 19.031 4.10165 19.031C3.92237 19.031 3.74309 19.0358 3.56382 19.0262C3.0248 18.9975 2.7033 18.7011 2.7021 18.2385C2.70091 17.7699 3.01763 17.4567 3.55665 17.4508C4.75062 17.4376 5.94579 17.446 7.13977 17.446C7.73736 17.446 8.33374 17.4424 8.93133 17.446C9.46199 17.4496 9.75958 17.7257 9.76317 18.2504C9.77512 20.0625 9.77512 21.8746 9.76317 23.6856C9.75958 24.2031 9.4094 24.5342 8.94448 24.5032C8.44251 24.4697 8.19391 24.1685 8.18793 23.6796C8.17718 22.764 8.18196 21.8484 8.17718 20.9315C8.17718 20.7451 8.15806 20.5574 8.1473 20.3709C8.09232 20.3422 8.03734 20.3148 7.98237 20.2861C7.02862 21.265 6.07846 22.2488 5.11993 23.223C4.29646 24.0597 3.46223 24.8869 2.63159 25.7176C2.08659 26.2627 1.62047 26.3559 1.2428 25.9973C0.849587 25.6232 0.936834 25.1415 1.5153 24.5629C3.1467 22.9289 4.7805 21.2973 6.41191 19.6645C6.57206 19.5043 6.72385 19.3346 7.01069 19.0298L7.0095 19.031Z" fill="#E6000D" stroke="#E6000D" stroke-width="0.6"/>
<path d="M20.8396 33.1259C20.701 33.255 20.5576 33.3793 20.4237 33.5131C18.7612 35.1722 17.0999 36.8325 15.4386 38.4917C15.3681 38.5622 15.3 38.6339 15.2259 38.7008C14.81 39.0726 14.3104 39.106 14.0128 38.7522C13.677 38.353 13.7236 37.9418 14.0833 37.5784C14.9654 36.6867 15.8546 35.8046 16.7414 34.9164C17.5852 34.0714 18.429 33.2263 19.2704 32.3788C19.4054 32.2425 19.5309 32.0979 19.7819 31.8242C19.3971 31.8242 19.17 31.8242 18.9429 31.8242C18.0668 31.8242 17.1908 31.8433 16.3159 31.817C15.7745 31.8002 15.4709 31.4715 15.502 30.9934C15.5343 30.4902 15.839 30.2415 16.3255 30.2404C18.1373 30.2332 19.948 30.2308 21.7599 30.2427C22.2906 30.2463 22.5547 30.5619 22.5559 31.0842C22.5607 32.8557 22.5655 34.6284 22.5559 36.3998C22.5523 36.9879 22.2356 37.3107 21.7456 37.2927C21.2603 37.2748 20.9854 36.9485 20.9818 36.3568C20.9759 35.3049 20.9807 34.253 20.9807 33.2012L20.8432 33.1247L20.8396 33.1259Z" fill="#E6000D" stroke="#E6000D" stroke-width="0.6"/>
</svg>
