<svg width="138" height="138" viewBox="0 0 138 138" fill="none" xmlns="http://www.w3.org/2000/svg">
<path d="M37.1422 25.7553V4.06641H121.187V25.7553" stroke="#E6000D" stroke-width="5" stroke-miterlimit="10" stroke-linecap="round" stroke-linejoin="round"/>
<path d="M23.5872 63.6019V33.8894C23.5872 29.3974 27.2285 25.7561 31.7205 25.7561H126.609C131.101 25.7561 134.743 29.3974 134.743 33.8894V74.5561C134.743 79.0482 131.101 82.6894 126.609 82.6894H115.765" stroke="#E6000D" stroke-width="5" stroke-miterlimit="10" stroke-linecap="round" stroke-linejoin="round"/>
<path d="M52.5134 113.616C52.0202 113.251 51.1406 112.645 50.3198 111.966C49.6388 111.401 49.2192 110.592 48.0083 111.106C46.8636 111.589 46.8783 112.35 46.8783 113.299C46.871 116.699 46.19 117.36 42.767 117.363C41.7843 117.363 40.8052 117.382 39.8225 117.352C37.6803 117.29 36.7491 116.319 36.6976 114.129C36.6865 113.638 36.8411 113.077 36.6534 112.671C36.3884 112.095 35.9651 111.419 35.4388 111.187C35.0081 110.998 34.1579 111.216 33.7677 111.563C30.6244 114.373 30.1496 114.388 27.1609 111.408C26.9438 111.19 26.7229 110.976 26.5058 110.762C23.6827 107.964 23.7048 107.358 26.3438 104.401C26.7524 103.943 26.9879 102.931 26.7597 102.418C26.5242 101.89 25.6371 101.384 25.0114 101.355C21.1945 101.156 20.7602 100.749 20.7602 96.8396C20.7602 96.5332 20.7786 96.2231 20.7602 95.9166C20.4658 91.837 21.7172 90.7885 25.2359 91.058C25.7475 91.0986 26.572 90.4931 26.7855 89.991C26.999 89.4926 26.756 88.6729 26.4653 88.1228C26.1598 87.5506 25.5157 87.1703 25.0997 86.6423C24.1832 85.4794 24.1428 84.213 25.1145 83.1054C26.2076 81.8612 27.3965 80.6945 28.6295 79.5906C29.8552 78.4904 31.1876 78.5236 32.4464 79.6054C32.866 79.9635 33.1788 80.4878 33.6463 80.7388C34.2021 81.0379 35.0118 81.4255 35.4535 81.2225C36.0056 80.9677 36.6055 80.1629 36.6424 79.5611C36.9037 75.4261 37.2313 75.0605 41.3168 75.0605C41.5009 75.0605 41.6849 75.0605 41.8689 75.0605C46.444 75.0605 46.5691 75.2156 46.9372 79.7051C46.9814 80.2552 47.574 80.9641 48.0929 81.2114C48.5273 81.4182 49.3002 81.1893 49.8008 80.9234C50.3198 80.6465 50.6694 80.0669 51.1295 79.6645C52.4435 78.5199 53.787 78.5015 55.0789 79.6755C56.1242 80.6244 57.1143 81.636 58.0897 82.655C59.573 84.2093 59.5435 85.5643 58.0492 87.1481C57.9645 87.2368 57.8652 87.3143 57.7915 87.4103C57.221 88.1745 56.069 88.5585 56.6689 89.9984C57.2468 91.3829 58.2627 91.0284 59.2491 91.1244C60.0294 91.202 60.898 91.1909 61.5532 91.5453C63.526 92.6197 63.5224 99.9003 61.5201 100.879C60.6441 101.303 59.4736 101.067 58.4945 101.34C57.8467 101.521 57.0591 101.957 56.7867 102.507C56.5659 102.954 56.9045 103.799 57.2026 104.357C57.4787 104.877 58.1191 105.195 58.4357 105.708C58.778 106.258 59.0982 106.919 59.135 107.546C59.2307 109.252 54.7844 113.627 52.5245 113.612L52.5134 113.616ZM53.1244 112.051C53.8716 111.364 54.5121 110.81 55.1157 110.216C57.7437 107.628 57.8283 107.532 55.1635 104.973C53.4483 103.326 55.2114 102.211 55.4212 100.86C55.5905 99.7711 56.3524 99.5754 57.3167 99.5865C61.5201 99.6382 61.1115 99.9631 61.1262 95.684C61.1262 95.3776 61.1005 95.0675 61.1262 94.761C61.2661 93.3249 60.6404 92.808 59.2012 92.819C54.8838 92.8597 56.3156 93.2252 54.6078 89.5553C54.4016 89.1086 54.6078 88.2225 54.9427 87.809C57.5413 84.6413 57.567 84.6634 54.6114 81.7209C54.5231 81.636 54.4311 81.5511 54.3538 81.4551C53.5109 80.3733 52.6349 80.3327 51.8288 81.4551C50.3492 83.5152 48.5714 84.0986 46.4477 82.5184C45.8698 82.0901 45.1889 81.3148 45.1778 80.6871C45.0932 76.386 45.5349 76.8659 41.0776 76.8364C41.015 76.8364 40.9561 76.8364 40.8935 76.8364C38.5048 76.8438 38.4901 76.8844 38.4422 79.3543C38.4238 80.2515 38.5379 81.3517 38.0852 82.0052C36.9994 83.5706 33.9186 83.578 32.5531 82.223C30.4993 80.185 30.4846 80.1703 28.4418 82.223C25.4494 85.2283 25.4163 84.6708 28.4234 87.4952C30.0687 89.0421 28.4528 90.1534 28.2062 91.453C27.9927 92.5606 27.2897 92.8781 26.2076 92.8634C22.0595 92.8006 22.5601 92.52 22.5233 96.6735C22.5233 96.7953 22.5233 96.9209 22.5233 97.0427C22.5306 99.5865 22.5306 99.5533 25.0887 99.6086C25.9757 99.6271 27.1057 99.5422 27.6946 100.03C29.3215 101.377 29.2442 104.057 27.7682 105.545C27.5511 105.763 27.356 106.007 27.1204 106.199C26.0089 107.1 25.95 107.982 27.1094 108.898C27.4443 109.164 27.7204 109.503 28.0296 109.802C30.8269 112.531 30.341 112.616 32.8844 109.806C34.5333 107.982 35.7332 109.599 37.1392 109.876C38.4238 110.131 38.4864 111.043 38.468 112.106C38.4128 115.809 38.214 115.617 41.9536 115.602C42.075 115.602 42.2002 115.602 42.3216 115.602C45.119 115.602 45.0895 115.602 45.141 112.726C45.1558 111.91 45.13 110.821 45.6085 110.338C47.3237 108.599 49.5947 108.791 51.4056 110.566C51.9135 111.065 52.484 111.504 53.1244 112.054V112.051Z" fill="#E6000D" stroke="#E6000D" stroke-width="2"/>
<path d="M41.7917 103.266C37.8709 103.222 34.7472 100.002 34.823 96.0827C34.8965 92.2097 38.0754 89.1224 41.9456 89.1637C45.8572 89.2051 48.9878 92.4302 48.9235 96.3491C48.8592 100.201 45.6551 103.309 41.794 103.266H41.7917ZM47.8233 96.2503C47.8394 92.954 45.152 90.2641 41.8445 90.2687C38.6082 90.271 35.9461 92.9218 35.9048 96.1837C35.8635 99.3974 38.5531 102.138 41.7756 102.168C45.0854 102.2 47.8049 99.5375 47.821 96.2503H47.8233Z" fill="#E6000D" stroke="#E6000D" stroke-width="2"/>
<path d="M72.7883 74.5562H115.764V109.801H77.6872" stroke="#E6000D" stroke-width="5" stroke-miterlimit="10" stroke-linecap="round" stroke-linejoin="round"/>
<path d="M42.0219 134.743C62.9842 134.743 79.9774 117.75 79.9774 96.7876C79.9774 75.8253 62.9842 58.832 42.0219 58.832C21.0596 58.832 4.06631 75.8253 4.06631 96.7876C4.06631 117.75 21.0596 134.743 42.0219 134.743Z" stroke="#E6000D" stroke-width="5" stroke-miterlimit="10" stroke-linecap="round" stroke-linejoin="round"/>
</svg>
