<svg width="144" height="138" viewBox="0 0 144 138" fill="none" xmlns="http://www.w3.org/2000/svg">
<g clip-path="url(#clip0_1_1018)">
<path d="M2.5914 96.4236C3.54417 96.4236 4.46167 96.7374 5.12656 97.3181C5.7717 97.8816 6.23587 98.7436 6.23593 99.9871V120.675C6.23593 126.713 11.3816 131.757 17.3932 131.758H41.0934C42.3343 131.758 43.2027 132.222 43.773 132.871C44.3602 133.539 44.6797 134.46 44.6842 135.413C44.6886 136.366 44.378 137.282 43.7965 137.946C43.232 138.591 42.3605 139.058 41.0934 139.058H17.3932C7.34951 139.058 -1.05313 130.722 -1.05313 120.675V99.9871C-1.05307 98.7436 -0.588893 97.8816 0.0562439 97.3181C0.721122 96.7374 1.63863 96.4236 2.5914 96.4236ZM141.408 96.4236C142.361 96.4236 143.278 96.7375 143.943 97.3181C144.588 97.8816 145.052 98.7436 145.052 99.9871V120.675C145.052 130.815 136.818 139.058 126.693 139.058H102.993C101.752 139.058 100.892 138.595 100.329 137.949C99.7486 137.283 99.4352 136.363 99.4352 135.408C99.4352 134.453 99.7486 133.534 100.329 132.868C100.892 132.222 101.752 131.758 102.993 131.758H126.693C132.808 131.758 137.763 126.783 137.763 120.588V99.9871C137.763 98.7437 138.228 97.8816 138.873 97.3181C139.537 96.7375 140.455 96.4236 141.408 96.4236ZM13.9205 77.116C14.7049 76.8166 15.6658 76.8134 16.7437 77.3972L16.7555 77.4041L71.5357 106.089L71.9996 106.331L72.4635 106.089L127.33 77.4041L127.337 77.4011C128.437 76.8149 129.415 76.8206 130.212 77.1267C131.034 77.4424 131.737 78.1072 132.177 78.948C132.617 79.7888 132.761 80.7428 132.549 81.5945C132.344 82.4202 131.788 83.2275 130.668 83.7976L130.657 83.8035L73.7223 113.609C73.1593 113.891 72.6173 114.025 71.9996 114.025C71.4596 114.025 70.8316 113.887 70.2769 113.609L13.4361 83.8064C12.3336 83.2188 11.7858 82.4015 11.5875 81.5671C11.3835 80.708 11.5335 79.7539 11.9732 78.9177C12.4133 78.081 13.1109 77.425 13.9205 77.116ZM70.2828 24.3855C71.386 23.8355 72.6121 23.8359 73.7154 24.3855L130.657 54.196C133.241 55.5606 133.24 59.3194 130.654 60.6824L73.7164 90.3162C73.1554 90.5961 72.6152 90.7292 71.9996 90.7292C71.4614 90.7292 70.8361 90.592 70.2828 90.3162L13.4312 60.5955H13.4322C10.9424 59.2834 10.8269 55.7808 13.2115 54.241L13.4498 54.0984L70.2828 24.3855ZM71.5348 31.9109L24.6549 56.5095L22.9644 57.3972L24.6568 58.281L71.5367 82.7937L71.9996 83.0359L72.4625 82.7937L119.429 58.282L121.125 57.3972L119.43 56.5095L72.4635 31.9099L71.9996 31.6667L71.5348 31.9109ZM71.9996 45.4441C78.5562 45.4441 83.8482 50.8099 83.8482 57.3953C83.8482 63.8805 78.5694 69.1726 71.9996 69.1726C65.5211 69.1725 60.2379 63.8848 60.2379 57.3953C60.2379 50.8055 65.5343 45.4442 71.9996 45.4441ZM71.9996 52.7449C70.5671 52.7449 69.4214 53.3105 68.6451 54.2019C67.8862 55.0736 67.5229 56.2047 67.5162 57.3025C67.5096 58.4004 67.8597 59.537 68.6197 60.4138C69.3975 61.3108 70.5513 61.8718 71.9996 61.8718C73.4792 61.8718 74.6599 61.3197 75.4576 60.4226C76.2388 59.5438 76.5941 58.4009 76.5807 57.2957C76.5671 56.1907 76.1849 55.0585 75.4059 54.1902C74.6108 53.3041 73.4467 52.7449 71.9996 52.7449ZM17.3062 -1.05981H41.0934C42.3341 -1.05981 43.1956 -0.595502 43.7584 0.0505371C44.3384 0.716432 44.6519 1.63583 44.6519 2.59058C44.6519 3.54532 44.3384 4.46472 43.7584 5.13062C43.1956 5.77665 42.3341 6.24097 41.0934 6.24097H17.3932C11.2024 6.24106 6.23593 11.2043 6.23593 17.324V38.0115C6.23593 40.0556 4.61165 41.6177 2.63535 41.6179C0.572166 41.6179 -1.05313 39.969 -1.05313 38.0115V17.324C-1.05313 7.1837 7.18163 -1.05966 17.3062 -1.05981ZM102.993 -1.05981H126.606C136.731 -1.05981 144.965 7.18361 144.965 17.324V38.0281L144.966 38.0447C145.033 40.0445 143.448 41.6178 141.365 41.6179C139.401 41.6179 137.763 39.9811 137.763 38.0115V17.324C137.763 11.2042 132.797 6.24097 126.606 6.24097H102.993C101.752 6.24097 100.892 5.77658 100.329 5.13062C99.7486 4.4647 99.4352 3.54545 99.4352 2.59058C99.4352 1.63569 99.7486 0.716456 100.329 0.0505371C100.892 -0.595448 101.752 -1.05981 102.993 -1.05981Z" fill="#E6000D" stroke="#EAEAEA" stroke-width="2"/>
</g>
<defs>
<clipPath id="clip0_1_1018">
<rect width="144" height="138" fill="white"/>
</clipPath>
</defs>
</svg>
