<svg width="150" height="150" viewBox="0 0 150 150" fill="none" xmlns="http://www.w3.org/2000/svg">
<g clip-path="url(#clip0_1_839)">
<path d="M70.3603 17.2373C70.3603 18.7135 69.3363 19.9753 67.9228 20.2979L67.6347 20.3496C58.2049 21.601 49.1854 25.3403 41.5556 31.1621C40.8122 31.7123 40.1739 31.8754 39.6132 31.8438C39.0357 31.811 38.4502 31.5662 37.8369 31.1445C37.2221 30.7218 36.6231 30.1523 36.0195 29.5273C35.4401 28.9275 34.8161 28.2318 34.247 27.6807L33.7138 27.165L33.1923 27.6914L27.7001 33.2314L27.1689 33.7666L27.707 34.2949L30.8828 37.4111C31.9335 38.4523 32.1079 40.0755 31.3359 41.3076L31.1689 41.5488C25.5252 48.9401 21.8354 57.6371 20.4755 66.75L20.3525 67.6221C20.2172 68.5354 19.8829 69.1024 19.4658 69.4775C19.0362 69.8638 18.4523 70.1066 17.7236 70.2451C16.9927 70.384 16.1685 70.4089 15.3017 70.3984C14.4695 70.3884 13.54 70.3425 12.748 70.3604L12.0146 70.377V79.6396H17.2392C18.8155 79.6396 20.146 80.8065 20.3515 82.3662V82.3672C21.599 91.7966 25.3401 100.813 31.1611 108.44V108.441C31.712 109.189 31.8755 109.829 31.8437 110.391C31.811 110.969 31.566 111.554 31.1445 112.166C30.7218 112.78 30.1517 113.378 29.5263 113.981C28.9261 114.56 28.2307 115.183 27.6787 115.753L27.1621 116.286L27.6894 116.808L33.2314 122.297L33.7665 122.826L34.2939 122.29L37.4111 119.12C38.5253 117.994 40.299 117.876 41.5458 118.831H41.5468C49.1754 124.654 58.1939 128.395 67.623 129.648V129.649C68.5362 129.785 69.1034 130.12 69.4785 130.537C69.8646 130.967 70.1067 131.551 70.2451 132.279C70.3838 133.01 70.4079 133.833 70.3974 134.699C70.3873 135.531 70.3424 136.46 70.3603 137.252L70.3769 137.985H79.6396V132.763C79.6396 131.286 80.6635 130.025 82.0771 129.702L82.3652 129.65C91.7946 128.399 100.813 124.659 108.442 118.838L108.443 118.839C109.188 118.289 109.827 118.125 110.388 118.157C110.965 118.19 111.55 118.435 112.163 118.856C112.778 119.279 113.377 119.849 113.98 120.474C114.56 121.073 115.183 121.769 115.753 122.32L116.286 122.836L116.808 122.31L122.3 116.769L122.831 116.233L122.293 115.706L119.117 112.589C117.997 111.478 117.872 109.705 118.831 108.451C124.654 100.824 128.397 91.8076 129.646 82.3779L129.647 82.3789C129.783 81.4651 130.117 80.8977 130.534 80.5225C130.964 80.1362 131.548 79.8933 132.276 79.7549C133.007 79.6161 133.831 79.592 134.697 79.6025C135.53 79.6126 136.459 79.6576 137.252 79.6396L137.985 79.623V70.3604H132.761C131.184 70.3604 129.854 69.1937 129.648 67.6338V67.6328C128.4 58.1992 124.657 49.1783 118.831 41.5488C118.286 40.8059 118.125 40.1683 118.156 39.6094C118.189 39.0315 118.433 38.4471 118.854 37.835C119.277 37.2209 119.847 36.6228 120.473 36.0195C121.073 35.4405 121.769 34.8175 122.321 34.2471L122.838 33.7139L122.31 33.1924L116.769 27.7031L116.233 27.1738L115.706 27.7109L112.589 30.8799C111.474 32.0052 109.7 32.1254 108.455 31.1699L108.453 31.1689L107.733 30.6289C100.258 25.1127 91.5068 21.563 82.3701 20.3496C81.4609 20.2128 80.8955 19.8791 80.5214 19.4629C80.1354 19.0334 79.8932 18.4498 79.7548 17.7217C79.6161 16.9913 79.591 16.1681 79.6015 15.3018C79.6116 14.4698 79.6575 13.5405 79.6396 12.748L79.623 12.0146H70.3603V17.2373ZM64.081 135.452L63.4706 135.336C55.2763 133.777 47.4368 130.528 40.4902 125.807L39.914 125.415L39.4814 125.96C36.8678 129.252 31.7239 129.687 28.7871 126.735L28.7236 126.672C28.6832 126.631 28.6232 126.572 28.5478 126.497C28.3968 126.346 28.1816 126.13 27.9228 125.871C27.405 125.354 26.7137 124.665 26.0234 123.975C25.5056 123.457 24.9879 122.94 24.5429 122.495H24.5624L23.2587 121.211C20.196 118.194 20.7004 113.191 24.041 110.513L24.581 110.079L24.1914 109.506C19.4703 102.561 16.2211 94.7255 14.664 86.5293L14.5478 85.9189H12.7646C8.89018 85.9189 5.7353 82.7657 5.7353 78.8896V71.1104C5.73536 67.2343 8.89022 64.0811 12.7646 64.0811H14.5478L14.664 63.4707C16.2211 55.2746 19.4702 47.4389 24.1914 40.4941L24.5429 39.9775L24.0986 39.5391L23.2744 38.7256C20.5271 35.9707 20.5296 31.5213 23.2578 28.7891L23.2587 28.79L28.789 23.2627C31.3431 20.7086 35.7792 20.6194 38.4599 23.0254L38.7138 23.2656L39.5341 24.0996L39.9726 24.5459L40.4902 24.1943C47.4368 19.4732 55.2762 16.2231 63.4706 14.6641L64.081 14.5479V12.7646C64.0812 8.88866 67.2359 5.73536 71.1103 5.73535H76.4531L76.4228 5.75586L78.8955 5.73535C83.1942 5.7008 86.3678 9.5849 85.9228 13.8496L85.8515 14.5352L86.5292 14.6641C94.7238 16.2231 102.563 19.473 109.51 24.1943L110.086 24.5859L110.519 24.04C113.13 20.7488 118.272 20.3126 121.214 23.2656L121.23 23.2822C121.241 23.2927 121.256 23.3089 121.276 23.3291C121.317 23.3695 121.377 23.4285 121.452 23.5039C121.603 23.6548 121.819 23.8702 122.078 24.1289C122.596 24.6463 123.286 25.3365 123.977 26.0264C124.494 26.5438 125.012 27.0612 125.457 27.5059H125.437L126.741 28.79C129.804 31.8074 129.299 36.8088 125.959 39.4873L125.419 39.9209L125.809 40.4941C130.53 47.4389 133.779 55.2746 135.336 63.4707L135.452 64.0811H137.235C141.11 64.0811 144.265 67.2343 144.265 71.1104V78.8896C144.265 82.7658 141.11 85.9189 137.235 85.9189H135.452L135.336 86.5293C133.779 94.7255 130.53 102.561 125.809 109.506L125.457 110.023L125.902 110.462L126.722 111.27V111.271C129.387 113.939 129.469 118.201 126.989 120.95L126.741 121.211L121.211 126.737C118.653 129.292 114.22 129.381 111.54 126.975L111.286 126.734L110.466 125.9L110.027 125.455L109.51 125.807C102.563 130.528 94.7238 133.777 86.5292 135.336L85.8515 135.465L85.9228 136.151C86.3692 140.426 83.1952 144.287 78.8935 144.265H71.1103C67.2358 144.265 64.081 141.111 64.081 137.235V135.452Z" fill="#E6000D" stroke="#EAEAEA" stroke-width="1.5"/>
<path d="M75.078 29.072C76.2683 28.9517 78.7375 29.1439 81.7626 29.6541C84.7625 30.16 88.2294 30.9653 91.3857 32.0291C94.5617 33.0995 97.3425 34.4059 99.037 35.8787C99.8802 36.6116 100.401 37.34 100.609 38.0476C100.808 38.7238 100.744 39.457 100.268 40.2878C99.3551 41.7548 97.4304 42.2129 95.9511 41.3064C89.6272 37.4135 82.3847 35.3552 75.0019 35.3552C53.1413 35.3554 35.3555 53.1404 35.3554 75.0027V75.033C37.5272 127.587 112.477 127.585 114.648 75.0339L114.649 75.0183V75.0027C114.649 67.6229 112.59 60.3764 108.696 54.0486C107.79 52.5737 108.248 50.6427 109.719 49.7322C110.545 49.2526 111.275 49.1872 111.948 49.3845C112.653 49.5912 113.382 50.1117 114.115 50.9568C115.589 52.6547 116.899 55.4436 117.974 58.6267C119.041 61.7899 119.85 65.2632 120.357 68.2634C120.869 71.2904 121.059 73.7514 120.934 74.9226L120.929 74.9626V75.0027C120.929 100.317 100.342 120.914 75.0292 120.928C14.0794 118.408 14.0793 31.5946 75.0331 29.0759L75.0556 29.075L75.078 29.072Z" fill="#E6000D" stroke="#EAEAEA" stroke-width="1.5"/>
<path d="M73.8321 52.6482C74.9649 52.1651 76.3785 52.449 77.2422 53.3269L77.2471 53.3308L88.9122 64.9968L88.9219 65.0066L88.9317 65.0154C89.8972 65.9131 90.0406 67.2477 89.5538 68.406C89.0653 69.568 88.0061 70.4031 86.7198 70.3572L86.6602 70.3542L86.6016 70.3621C86.256 70.404 85.7899 70.2752 85.1788 69.8943C84.5792 69.5205 83.9333 68.9628 83.2608 68.3044C82.5902 67.648 81.9253 66.9249 81.2715 66.2273C80.6287 65.5413 79.9886 64.8716 79.4014 64.3679L78.1631 63.3064V94.4353C78.1416 95.5112 77.7358 96.2631 77.1778 96.7527C76.6043 97.2557 75.825 97.5207 75.0225 97.5183C74.22 97.5159 73.4402 97.2455 72.8663 96.74C72.3053 96.2459 71.9002 95.4926 71.8838 94.4236V63.1267L65.5772 69.4333C64.8202 70.183 64.009 70.4279 63.2676 70.3777C62.5074 70.3261 61.7627 69.9589 61.1885 69.3845C60.6143 68.81 60.2461 68.0644 60.1944 67.3035C60.1447 66.5717 60.3827 65.7729 61.1075 65.0251C61.1394 64.9993 61.1662 64.9752 61.1837 64.9597C61.2304 64.9181 61.2859 64.8672 61.3467 64.8093C61.4689 64.6929 61.6291 64.5359 61.8194 64.3464C62.2008 63.9668 62.7162 63.445 63.3184 62.8328C64.525 61.6061 66.0849 60.0118 67.6426 58.4412C69.2012 56.8697 70.7497 55.3294 71.9317 54.2136C72.5247 53.6538 73.0143 53.2117 73.3614 52.9275C73.4497 52.8552 73.5228 52.7977 73.5821 52.7537L73.8321 52.6482Z" fill="#E6000D" stroke="#EAEAEA" stroke-width="1.5"/>
</g>
<defs>
<clipPath id="clip0_1_839">
<rect width="138" height="138" fill="white" transform="translate(6 6)"/>
</clipPath>
</defs>
</svg>
