<svg width="150" height="150" viewBox="0 0 150 150" fill="none" xmlns="http://www.w3.org/2000/svg">
<g clip-path="url(#clip0_1_829)">
<g clip-path="url(#clip1_1_829)">
<path d="M53.1254 5.26855H96.8734C99.1123 5.26855 100.983 7.13907 100.983 9.37793V27.1426H118.747C133.09 27.1426 144.731 38.7834 144.731 53.126V89.583C144.731 103.925 133.09 115.566 118.747 115.566H100.983V133.331C100.983 139.58 95.8315 144.731 89.5824 144.731H60.4164C54.1675 144.731 49.016 139.58 49.016 133.331V115.566H31.2514C16.9089 115.566 5.26807 103.925 5.26797 89.583V53.126C5.26797 38.7834 16.9088 27.1426 31.2514 27.1426H49.016V9.37793C49.016 7.13907 50.8865 5.26855 53.1254 5.26855ZM57.2348 136.513H92.7641V86.4014H57.2348V136.513ZM31.2514 35.3613C21.4595 35.3613 13.4867 43.3341 13.4867 53.126V89.583C13.4868 99.3748 21.4595 107.348 31.2514 107.348H49.016V82.291C49.0163 80.0524 50.8867 78.1816 53.1254 78.1816H96.8734C99.1122 78.1816 100.983 80.0524 100.983 82.291V107.348H118.747C128.539 107.348 136.512 99.3748 136.512 89.583V53.126C136.512 43.3341 128.539 35.3613 118.747 35.3613H31.2514ZM57.2348 27.1426H92.7641V13.4873H57.2348V27.1426Z" fill="#E6000D" stroke="#EAEAEA" stroke-width="2.71818"/>
<path d="M110.41 55.4701C113.141 55.4702 115.355 57.685 115.355 60.4164C115.355 63.1477 113.141 65.3616 110.41 65.3617C107.679 65.3617 105.464 63.1478 105.464 60.4164C105.464 57.6849 107.678 55.4701 110.41 55.4701Z" fill="#E6000D" stroke="#EAEAEA" stroke-width="1.04545"/>
</g>
</g>
<defs>
<clipPath id="clip0_1_829">
<rect width="138" height="138" fill="white" transform="translate(6 6)"/>
</clipPath>
<clipPath id="clip1_1_829">
<rect width="142.182" height="142.182" fill="white" transform="translate(2.86273 3.90918)"/>
</clipPath>
</defs>
</svg>
