<svg width="40" height="40" viewBox="0 0 40 40" fill="none" xmlns="http://www.w3.org/2000/svg">
<g clip-path="url(#clip0_1_695)">
<path d="M36.935 22.565C36.875 22.5725 36.8125 22.5875 36.7525 22.6075L24.9975 26.2675C24.9975 26.26 25 26.255 25 26.25C25 24.405 23.68 22.85 21.86 22.55L12.5 21.01V3.75C12.5 3.06 13.0625 2.5 13.75 2.5H25V8.75C25 10.8175 26.6825 12.5 28.75 12.5H35V23.2955C35 23.9855 35.56 24.5455 36.25 24.5455C36.94 24.5455 37.5 23.9855 37.5 23.2955V12.275C37.5 11.295 37.1025 10.3375 36.4075 9.64L27.86 1.0925C27.1675 0.3975 26.205 0 25.225 0H13.75C11.6825 0 10 1.6825 10 3.75V20.6L7.5 20.19V18.75C7.5 18.2775 7.2325 17.845 6.81 17.6325L1.81 15.1325C1.4225 14.94 0.96 14.96 0.595 15.1875C0.225 15.415 0 15.8175 0 16.25V38.75C0 39.1825 0.225 39.585 0.5925 39.8125C0.7925 39.9375 1.02 40 1.25 40C1.44 40 1.6325 39.955 1.81 39.8675L6.81 37.3675C7.2325 37.155 7.5 36.7225 7.5 36.25V35.4675L20.5725 39.6975C21.195 39.8975 21.84 40 22.5 40C23.75 40 24.9575 39.6325 25.99 38.935L38.3425 30.61C39.38 29.9125 40 28.75 40 27.5V25C40 23.4325 38.4425 22.2125 36.935 22.565ZM33.2325 10H28.75C28.0625 10 27.5 9.44 27.5 8.75V4.2675L33.2325 10ZM5 35.4775L2.5 36.7275V18.2725L5 19.5225V35.4775ZM37.5 27.5C37.5 27.9175 37.2925 28.305 36.945 28.54L24.5925 36.865C23.6475 37.5 22.4125 37.665 21.345 37.32L7.5 32.84V22.7225L21.455 25.0175C22.06 25.115 22.5 25.635 22.5 26.25C22.5 26.94 21.9375 27.5 21.25 27.5H16.25C15.56 27.5 15 28.06 15 28.75C15 29.44 15.56 30 16.25 30H21.25C21.9525 30 22.6025 29.795 23.165 29.4575L37.365 25.035C37.4125 25.025 37.455 25.0125 37.5 25V27.5Z" fill="#E6000D"/>
</g>
<defs>
<clipPath id="clip0_1_695">
<rect width="40" height="40" fill="white"/>
</clipPath>
</defs>
</svg>
