<svg width="150" height="150" viewBox="0 0 150 150" fill="none" xmlns="http://www.w3.org/2000/svg">
<path d="M137.531 28H12.4688C10.7537 28.0019 9.10944 28.6777 7.89672 29.8792C6.684 31.0808 6.00187 32.7099 6 34.4091L6 115.591C6.00187 117.29 6.684 118.919 7.89672 120.121C9.10944 121.322 10.7537 121.998 12.4688 122H137.531C139.246 121.998 140.891 121.322 142.103 120.121C143.316 118.919 143.998 117.29 144 115.591V34.4091C143.998 32.7099 143.316 31.0808 142.103 29.8792C140.891 28.6777 139.246 28.0019 137.531 28ZM139.688 115.591C139.687 116.157 139.459 116.7 139.055 117.101C138.651 117.501 138.103 117.727 137.531 117.727H12.4688C11.8971 117.727 11.3491 117.501 10.9449 117.101C10.5407 116.7 10.3132 116.157 10.3125 115.591V34.4091C10.3132 33.8427 10.5407 33.2998 10.9449 32.8993C11.3491 32.4988 11.8971 32.2735 12.4688 32.2727H137.531C138.103 32.2735 138.651 32.4988 139.055 32.8993C139.459 33.2998 139.687 33.8427 139.688 34.4091V115.591Z" fill="#E6000D"/>
<path d="M115.968 51.5H34.0308C32.8874 51.5011 31.7912 51.9517 30.9827 52.7527C30.1742 53.5537 29.7195 54.6399 29.7183 55.7727V94.2273C29.7195 95.3601 30.1742 96.4463 30.9827 97.2473C31.7912 98.0483 32.8874 98.4989 34.0308 98.5H115.968C117.112 98.4989 118.208 98.0483 119.016 97.2473C119.825 96.4463 120.28 95.3601 120.281 94.2273V55.7727C120.28 54.6399 119.825 53.5537 119.016 52.7527C118.208 51.9517 117.112 51.5011 115.968 51.5ZM115.968 94.2273L34.0308 94.2304V55.7727H115.968V94.2273Z" fill="#E6000D"/>
<path d="M21.9852 40.8176H23.2486C23.8205 40.8176 24.3689 40.5926 24.7733 40.1919C25.1777 39.7913 25.4048 39.2479 25.4048 38.6813C25.4048 38.1147 25.1777 37.5713 24.7733 37.1706C24.3689 36.77 23.8205 36.5449 23.2486 36.5449H16.7798C16.4777 36.5482 16.1796 36.6131 15.9039 36.7357C15.6283 36.8582 15.3811 37.0357 15.1778 37.2571C14.8304 37.6529 14.6343 38.1569 14.6236 38.6813V45.0904C14.6236 45.657 14.8508 46.2004 15.2551 46.601C15.6595 47.0017 16.208 47.2267 16.7798 47.2267C17.3517 47.2267 17.9002 47.0017 18.3045 46.601C18.7089 46.2004 18.9361 45.657 18.9361 45.0904V43.8386C18.9361 43.8386 23.8761 48.733 23.8803 48.7372C24.289 49.1296 24.8357 49.3491 25.4049 49.3491C25.974 49.3491 26.5207 49.1296 26.9294 48.7372C27.1297 48.5389 27.2885 48.3034 27.3969 48.0443C27.5053 47.7851 27.5611 47.5073 27.5611 47.2268C27.5611 46.9462 27.5053 46.6684 27.3969 46.4092C27.2885 46.1501 27.1297 45.9146 26.9294 45.7163L21.9852 40.8176Z" fill="#E6000D"/>
<path d="M23.8803 101.264L18.9361 106.163V104.911C18.9361 104.344 18.7089 103.801 18.3045 103.4C17.9002 103 17.3517 102.775 16.7798 102.775C16.208 102.775 15.6595 103 15.2551 103.4C14.8508 103.801 14.6236 104.344 14.6236 104.911V111.32C14.6263 111.886 14.8543 112.428 15.2581 112.828C15.6619 113.228 16.2088 113.454 16.7798 113.456H23.2486C23.8205 113.456 24.3689 113.231 24.7733 112.831C25.1777 112.43 25.4048 111.887 25.4048 111.32C25.4048 110.754 25.1777 110.21 24.7733 109.809C24.3689 109.409 23.8205 109.184 23.2486 109.184H21.9852L26.9294 104.285C27.3319 103.884 27.5576 103.341 27.5568 102.776C27.556 102.21 27.3289 101.668 26.9253 101.268C26.5217 100.868 25.9745 100.643 25.4037 100.643C24.8328 100.642 24.285 100.865 23.8803 101.264Z" fill="#E6000D"/>
<path d="M133.215 102.774C132.644 102.774 132.095 102.999 131.691 103.4C131.286 103.8 131.059 104.344 131.059 104.91V106.162L126.115 101.263C125.71 100.864 125.162 100.64 124.591 100.641C124.02 100.641 123.473 100.866 123.069 101.266C122.665 101.666 122.438 102.209 122.437 102.775C122.437 103.341 122.663 103.883 123.066 104.284L128.01 109.183H126.747C126.175 109.183 125.626 109.408 125.222 109.809C124.818 110.209 124.59 110.753 124.59 111.319C124.59 111.886 124.818 112.429 125.222 112.83C125.626 113.231 126.175 113.456 126.747 113.456H133.215C133.783 113.441 134.322 113.211 134.723 112.813C135.125 112.416 135.357 111.881 135.372 111.319V104.91C135.372 104.344 135.144 103.8 134.74 103.4C134.336 102.999 133.787 102.774 133.215 102.774Z" fill="#E6000D"/>
<path d="M40.5019 86.75C40.93 86.7501 41.3484 86.6233 41.7032 86.3859L66.1483 70.0972L84.5775 82.3771C84.8124 82.5337 85.0762 82.6429 85.3537 82.6985C85.6312 82.7541 85.917 82.755 86.1949 82.7011C86.4727 82.6473 86.7372 82.5397 86.9731 82.3846C87.209 82.2295 87.4117 82.0299 87.5698 81.7971C87.7278 81.5644 87.838 81.3031 87.8941 81.0281C87.9502 80.7532 87.9511 80.47 87.8968 80.1947C87.8424 79.9194 87.7339 79.6574 87.5773 79.4237C87.4208 79.19 87.2193 78.9891 86.9844 78.8325L80.7798 74.6981L90.6588 67.9775L108.279 79.9654C108.513 80.1247 108.776 80.2369 109.053 80.2955C109.33 80.3541 109.616 80.358 109.895 80.3069C110.173 80.2559 110.439 80.1509 110.677 79.9979C110.915 79.845 111.12 79.6471 111.28 79.4156C111.44 79.1841 111.553 78.9236 111.612 78.6489C111.671 78.3741 111.674 78.0907 111.622 77.8146C111.57 77.5386 111.463 77.2754 111.309 77.0402C111.154 76.8049 110.954 76.6023 110.72 76.4437L91.8791 63.6255C91.52 63.3809 91.0946 63.25 90.6588 63.25C90.2231 63.25 89.7976 63.3809 89.4386 63.6255L76.9316 72.1339L67.3518 65.7504C66.9962 65.5128 66.5772 65.3858 66.1483 65.3858C65.7195 65.3858 65.3004 65.5128 64.9449 65.7504L39.2963 82.8413C38.9129 83.0969 38.6226 83.4678 38.4681 83.8994C38.3135 84.3309 38.303 84.8001 38.4381 85.238C38.5731 85.6759 38.8466 86.0592 39.2182 86.3314C39.5897 86.6036 40.0397 86.7504 40.5019 86.75Z" fill="#E6000D"/>
<path d="M133.217 36.5449H126.748C126.176 36.5449 125.628 36.77 125.223 37.1706C124.819 37.5713 124.592 38.1147 124.592 38.6813C124.592 39.2479 124.819 39.7913 125.223 40.1919C125.628 40.5926 126.176 40.8176 126.748 40.8176H128.011L123.067 45.7163C122.867 45.9146 122.708 46.1501 122.6 46.4092C122.491 46.6684 122.435 46.9462 122.435 47.2267C122.435 47.5073 122.491 47.7851 122.6 48.0443C122.708 48.3034 122.867 48.5389 123.067 48.7372C123.476 49.1296 124.023 49.3491 124.592 49.3491C125.161 49.3491 125.707 49.1296 126.116 48.7372C126.12 48.733 131.06 43.8386 131.06 43.8386V45.0904C131.06 45.657 131.288 46.2004 131.692 46.601C132.096 47.0017 132.645 47.2267 133.217 47.2267C133.788 47.2267 134.337 47.0017 134.741 46.601C135.146 46.2004 135.373 45.657 135.373 45.0904V38.6813C135.362 38.1569 135.166 37.6529 134.819 37.2571C134.615 37.0357 134.368 36.8582 134.093 36.7357C133.817 36.6131 133.519 36.5482 133.217 36.5449Z" fill="#E6000D"/>
</svg>
