<svg width="40" height="38" viewBox="0 0 40 38" fill="none" xmlns="http://www.w3.org/2000/svg">
<path d="M19.6667 14.4302C18.3704 14.4302 17.1031 14.8146 16.0252 15.5348C14.9473 16.255 14.1072 17.2787 13.6111 18.4764C13.115 19.6741 12.9852 20.992 13.2381 22.2634C13.4911 23.5349 14.1153 24.7028 15.032 25.6195C15.9486 26.5361 17.1166 27.1604 18.388 27.4133C19.6595 27.6662 20.9774 27.5364 22.175 27.0403C23.3727 26.5442 24.3964 25.7041 25.1166 24.6262C25.8368 23.5483 26.2213 22.2811 26.2213 20.9847C26.218 19.2473 25.5264 17.5821 24.2979 16.3535C23.0694 15.125 21.4041 14.4334 19.6667 14.4302ZM19.6667 24.9199C18.8884 24.9199 18.1276 24.6891 17.4805 24.2567C16.8333 23.8243 16.3289 23.2097 16.0311 22.4906C15.7333 21.7716 15.6553 20.9803 15.8072 20.217C15.959 19.4536 16.3338 18.7525 16.8841 18.2021C17.4345 17.6518 18.1357 17.277 18.899 17.1251C19.6624 16.9733 20.4536 17.0512 21.1727 17.3491C21.8917 17.6469 22.5063 18.1513 22.9387 18.7984C23.3711 19.4456 23.6019 20.2064 23.6019 20.9847C23.6019 22.0284 23.1873 23.0293 22.4493 23.7673C21.7113 24.5053 20.7104 24.9199 19.6667 24.9199Z" fill="#E6000D"/>
<path d="M26.9353 33.6398C24.6895 34.8037 22.197 35.411 19.6675 35.4106C15.9845 35.4044 12.4219 34.0979 9.6082 31.7214C10.252 30.748 10.5523 29.5875 10.4615 28.4241C10.3708 27.2606 9.89413 26.1607 9.1072 25.299C8.32027 24.4372 7.26812 23.8628 6.11766 23.667C4.9672 23.4712 3.78429 23.6652 2.75659 24.2181C1.72889 24.7711 0.915233 25.6513 0.444699 26.7193C-0.0258347 27.7872 -0.126306 28.9817 0.159222 30.1132C0.44475 31.2448 1.09993 32.2486 2.02083 32.9654C2.94173 33.6822 4.07561 34.0711 5.24262 34.0702C6.07472 34.064 6.89307 33.8573 7.62832 33.4676C10.4037 35.897 13.848 37.4317 17.5103 37.8705C21.1725 38.3094 24.8819 37.632 28.1527 35.9271C28.4464 35.7562 28.6625 35.4783 28.7559 35.1516C28.8493 34.825 28.8127 34.4748 28.6538 34.1745C28.4949 33.8742 28.226 33.647 27.9034 33.5404C27.5808 33.4339 27.2295 33.4563 26.923 33.6029L26.9353 33.6398ZM2.61097 28.8561C2.61097 28.338 2.76459 27.8316 3.05241 27.4008C3.34023 26.9701 3.74932 26.6344 4.22794 26.4361C4.70656 26.2379 5.23323 26.186 5.74133 26.2871C6.24944 26.3881 6.71616 26.6376 7.08248 27.0039C7.44881 27.3702 7.69827 27.837 7.79934 28.3451C7.90041 28.8532 7.84854 29.3798 7.65029 29.8585C7.45203 30.3371 7.11631 30.7462 6.68556 31.034C6.25481 31.3218 5.74838 31.4754 5.23032 31.4754C4.53662 31.4722 3.87226 31.1952 3.38173 30.7047C2.89121 30.2141 2.6142 29.5498 2.61097 28.8561Z" fill="#E6000D"/>
<path d="M3.27515 21.6356C3.44795 21.6356 3.61905 21.6015 3.77869 21.5354C3.93834 21.4693 4.08339 21.3724 4.20558 21.2502C4.32776 21.128 4.42469 20.9829 4.49081 20.8233C4.55694 20.6637 4.59097 20.4926 4.59097 20.3198C4.58401 17.2947 5.57585 14.3519 7.41253 11.9482C9.24922 9.5445 11.828 7.81433 14.7486 7.02624C15.1834 8.22379 16.0396 9.22188 17.157 9.83373C18.2745 10.4456 19.5767 10.6292 20.8198 10.3503C22.0629 10.0714 23.1617 9.34911 23.9107 8.31852C24.6597 7.28792 25.0075 6.01971 24.8889 4.75123C24.7704 3.48275 24.1936 2.30094 23.2667 1.42698C22.3397 0.553019 21.126 0.0468093 19.8527 0.00308814C18.5795 -0.040633 17.3339 0.381131 16.3492 1.18945C15.3644 1.99776 14.708 3.13723 14.5027 4.39459C10.9155 5.25435 7.72421 7.30151 5.44714 10.2036C3.17008 13.1058 1.94094 16.6925 1.95932 20.3812C1.97515 20.7195 2.12073 21.0386 2.3658 21.2722C2.61087 21.5058 2.93657 21.636 3.27515 21.6356ZM19.6676 2.62376C20.1846 2.62378 20.6901 2.7768 21.1203 3.06355C21.5505 3.3503 21.8862 3.75794 22.0851 4.23513C22.2841 4.71232 22.3374 5.23772 22.2383 5.74514C22.1392 6.25257 21.8922 6.71932 21.5283 7.0866C21.1644 7.45388 20.7 7.70527 20.1935 7.8091C19.6871 7.91293 19.1612 7.86455 18.6822 7.67007C18.2031 7.47558 17.7924 7.14368 17.5016 6.71618C17.2109 6.28868 17.0531 5.78469 17.0483 5.26771C17.0466 4.92211 17.1131 4.57958 17.2439 4.25968C17.3746 3.93977 17.5671 3.64875 17.8104 3.40324C18.0536 3.15773 18.3428 2.96252 18.6615 2.82878C18.9801 2.69504 19.322 2.62537 19.6676 2.62376Z" fill="#E6000D"/>
<path d="M37.5841 24.9693C38.4078 21.2857 38.0737 17.4375 36.6276 13.9509C35.1814 10.4644 32.6938 7.50946 29.5047 5.49019C29.3598 5.37815 29.1931 5.2976 29.0153 5.2537C28.8374 5.20979 28.6524 5.20349 28.472 5.23521C28.2916 5.26692 28.1198 5.33595 27.9676 5.43788C27.8155 5.5398 27.6862 5.67238 27.5882 5.82712C27.4902 5.98186 27.4256 6.15536 27.3985 6.33651C27.3714 6.51766 27.3824 6.70247 27.4309 6.87912C27.4793 7.05576 27.5641 7.22035 27.6798 7.36234C27.7955 7.50434 27.9396 7.62061 28.1028 7.70372C30.7668 9.34962 32.8697 11.7641 34.1341 14.6289C35.3986 17.4937 35.7654 20.6744 35.1861 23.7519C33.9204 23.492 32.6033 23.7013 31.4805 24.3406C30.3576 24.98 29.5056 26.0059 29.0831 27.227C28.6607 28.4481 28.6967 29.7812 29.1844 30.9777C29.6721 32.1743 30.5783 33.1526 31.734 33.7305C32.8897 34.3084 34.2161 34.4463 35.466 34.1185C36.7158 33.7907 37.8039 33.0197 38.5273 31.9491C39.2507 30.8784 39.5602 29.5813 39.3979 28.2994C39.2357 27.0175 38.6129 25.8383 37.6456 24.9816L37.5841 24.9693ZM34.0916 31.4746C33.5741 31.4722 33.0689 31.3165 32.6398 31.0272C32.2106 30.7379 31.8768 30.328 31.6805 29.8492C31.4841 29.3704 31.434 28.8441 31.5364 28.3368C31.6389 27.8295 31.8893 27.3639 32.2561 26.9988C32.6229 26.6337 33.0897 26.3855 33.5974 26.2854C34.1052 26.1853 34.6312 26.2379 35.1091 26.4365C35.587 26.6351 35.9954 26.9709 36.2827 27.4013C36.57 27.8318 36.7233 28.3378 36.7233 28.8553C36.72 29.5511 36.4413 30.2173 35.9482 30.7082C35.455 31.1991 34.7875 31.4747 34.0916 31.4746Z" fill="#E6000D"/>
</svg>
