<svg width="100" height="138" viewBox="0 0 100 138" fill="none" xmlns="http://www.w3.org/2000/svg">
<path d="M28.125 0.5H84.375C92.7122 0.5 99.4999 7.30971 99.5 15.6816V122.318C99.4999 130.69 92.7122 137.5 84.375 137.5H15.625C7.2878 137.5 0.500103 130.69 0.5 122.318V28.2275C0.5 27.5267 0.776978 26.8566 1.26953 26.3623L26.2695 1.27148C26.7619 0.777321 27.4298 0.5 28.125 0.5ZM29.0645 5.91992L5.89551 29.1729L5.75 29.3193V122.318C5.7501 127.781 10.1775 132.228 15.625 132.228H84.375C89.8225 132.228 94.2499 127.781 94.25 122.318V15.6816C94.2499 10.2188 89.8225 5.77246 84.375 5.77246H29.2109L29.0645 5.91992ZM35.6445 54.5898C36.6698 53.5608 38.3302 53.5608 39.3555 54.5898L48.7275 63.9961L48.7285 63.9971C48.9093 64.1782 49.0632 64.3873 49.1855 64.6182L49.2969 64.8564C49.5621 65.5005 49.5622 66.2269 49.2969 66.8711C49.1625 67.1971 48.9697 67.489 48.7285 67.7305H48.7275L39.3555 77.1377C38.8425 77.6525 38.1717 77.9092 37.5 77.9092C36.8283 77.9092 36.1575 77.6525 35.6445 77.1377C34.6183 76.1077 34.6184 74.4382 35.6445 73.4082L39.6855 69.3525L40.5352 68.5H31.25C29.2496 68.5 27.625 70.1316 27.625 72.1367V94.0908C27.625 96.0959 29.2496 97.7275 31.25 97.7275H37.5C38.948 97.7275 40.1248 98.9045 40.125 100.363C40.125 101.822 38.9481 103 37.5 103H31.25C26.3582 103 22.375 99.0049 22.375 94.0908V72.1367C22.375 67.2227 26.3582 63.2275 31.25 63.2275H40.5352L39.6855 62.374L35.6445 58.3193C34.6182 57.2893 34.6183 55.6199 35.6445 54.5898ZM59.375 50.6816H68.75C73.6418 50.6816 77.625 54.6768 77.625 59.5908V84.6816C77.625 89.5957 73.6418 93.5908 68.75 93.5908H59.4648L60.3145 94.4434L64.3555 98.499C65.3817 99.5291 65.3817 101.199 64.3555 102.229C63.8425 102.743 63.1717 103 62.5 103C61.8283 103 61.1575 102.743 60.6445 102.229L51.2725 92.8223L51.2715 92.8213C51.0304 92.5799 50.8375 92.2879 50.7031 91.9619C50.4378 91.3177 50.4379 90.5914 50.7031 89.9473C50.8377 89.6211 51.0304 89.3293 51.2715 89.0879L51.2725 89.0869L60.6445 79.6807C61.6698 78.6516 63.3302 78.6516 64.3555 79.6807C65.3818 80.7107 65.3817 82.3801 64.3555 83.4102L60.3145 87.4648L59.4648 88.3184H68.75C70.7504 88.3184 72.375 86.6867 72.375 84.6816V59.5908C72.375 57.5858 70.7504 55.9541 68.75 55.9541H59.375C57.927 55.9541 56.7501 54.7773 56.75 53.3184C56.75 51.8594 57.9269 50.6816 59.375 50.6816Z" fill="#E6000D" stroke="#EAEAEA"/>
</svg>
