<svg width="138" height="138" viewBox="0 0 138 138" fill="none" xmlns="http://www.w3.org/2000/svg">
<path d="M37.1422 25.7553V4.06641H121.187V25.7553" stroke="#E6000D" stroke-width="5" stroke-miterlimit="10" stroke-linecap="round" stroke-linejoin="round"/>
<path d="M23.5872 63.6016V33.8892C23.5872 29.3972 27.2285 25.7559 31.7205 25.7559H126.609C131.101 25.7559 134.743 29.3972 134.743 33.8892V74.5559C134.743 79.0479 131.101 82.6892 126.609 82.6892H115.765" stroke="#E6000D" stroke-width="5" stroke-miterlimit="10" stroke-linecap="round" stroke-linejoin="round"/>
<path d="M72.7883 74.5557H115.764V109.8H77.6872" stroke="#E6000D" stroke-width="5" stroke-miterlimit="10" stroke-linecap="round" stroke-linejoin="round"/>
<path d="M42.0219 134.743C62.9842 134.743 79.9774 117.75 79.9774 96.7876C79.9774 75.8253 62.9842 58.832 42.0219 58.832C21.0596 58.832 4.06631 75.8253 4.06631 96.7876C4.06631 117.75 21.0596 134.743 42.0219 134.743Z" stroke="#E6000D" stroke-width="5" stroke-miterlimit="10" stroke-linecap="round" stroke-linejoin="round"/>
<path d="M58.8574 93.3252C60.4662 93.3254 61.7704 94.6295 61.7705 96.2383C61.7705 97.8449 60.461 99.1514 58.8496 99.1514H25.6768C24.0679 99.1513 22.7637 97.8472 22.7637 96.2383C22.7638 94.6294 24.0679 93.3253 25.6768 93.3252H58.8574ZM59.2236 100.133C59.1006 100.144 58.9757 100.151 58.8496 100.151C58.9758 100.151 59.1005 100.144 59.2236 100.133ZM25.2764 100.132V100.131V100.132ZM59.3428 100.119C59.3077 100.124 59.2726 100.128 59.2373 100.132C59.2726 100.128 59.3077 100.124 59.3428 100.119ZM23.8115 99.6797V99.6787V99.6797ZM22.4316 98.4268V98.4258C22.4668 98.4779 22.5034 98.5289 22.541 98.5791C22.6162 98.6796 22.696 98.7764 22.7803 98.8691C22.6541 98.7303 22.537 98.5828 22.4316 98.4268ZM59.5742 92.3916C59.6372 92.4033 59.6998 92.416 59.7617 92.4307C59.6998 92.416 59.6372 92.4033 59.5742 92.3916ZM59.9141 100.003C59.8758 100.014 59.8375 100.025 59.7988 100.034C59.8375 100.025 59.8758 100.014 59.9141 100.003ZM60.2686 99.8848C60.2319 99.899 60.1954 99.9136 60.1582 99.9268C60.1954 99.9136 60.2319 99.899 60.2686 99.8848ZM62.625 95.1826C62.6343 95.216 62.6439 95.2494 62.6523 95.2832C62.6439 95.2494 62.6343 95.216 62.625 95.1826ZM62.5039 94.8193C62.5179 94.8553 62.532 94.8913 62.5449 94.9277C62.532 94.8913 62.5179 94.8553 62.5039 94.8193ZM59.4502 92.3691C59.4918 92.3755 59.533 92.384 59.5742 92.3916C59.533 92.384 59.4918 92.3755 59.4502 92.3691Z" fill="#E6000D"/>
</svg>
