<svg width="138" height="138" viewBox="0 0 138 138" fill="none" xmlns="http://www.w3.org/2000/svg">
<g clip-path="url(#clip0_1_830)">
<g clip-path="url(#clip1_1_830)">
<path d="M47.1254 -0.731445H90.8734C93.1123 -0.731445 94.9828 1.13907 94.9828 3.37793V21.1426H112.747C127.09 21.1426 138.731 32.7834 138.731 47.126V83.583C138.731 97.9255 127.09 109.566 112.747 109.566H94.9828V127.331C94.9828 133.58 89.8315 138.731 83.5824 138.731H54.4164C48.1675 138.731 43.016 133.58 43.016 127.331V109.566H25.2514C10.9089 109.566 -0.731934 97.9255 -0.732025 83.583V47.126C-0.732025 32.7834 10.9088 21.1426 25.2514 21.1426H43.016V3.37793C43.016 1.13907 44.8865 -0.731445 47.1254 -0.731445ZM51.2348 130.513H86.7641V80.4014H51.2348V130.513ZM25.2514 29.3613C15.4595 29.3613 7.48672 37.3341 7.48672 47.126V83.583C7.48682 93.3748 15.4595 101.348 25.2514 101.348H43.016V76.291C43.0163 74.0524 44.8867 72.1816 47.1254 72.1816H90.8734C93.1122 72.1816 94.9826 74.0524 94.9828 76.291V101.348H112.747C122.539 101.348 130.512 93.3748 130.512 83.583V47.126C130.512 37.3341 122.539 29.3613 112.747 29.3613H25.2514ZM51.2348 21.1426H86.7641V7.4873H51.2348V21.1426Z" fill="#E6000D" stroke="#EAEAEA" stroke-width="2.71818"/>
<path d="M104.41 49.4701C107.141 49.4702 109.355 51.685 109.355 54.4164C109.355 57.1477 107.141 59.3616 104.41 59.3617C101.679 59.3617 99.4638 57.1478 99.4637 54.4164C99.4637 51.6849 101.678 49.4701 104.41 49.4701Z" fill="#E6000D" stroke="#EAEAEA" stroke-width="1.04545"/>
</g>
</g>
<defs>
<clipPath id="clip0_1_830">
<rect width="138" height="138" fill="white"/>
</clipPath>
<clipPath id="clip1_1_830">
<rect width="142.182" height="142.182" fill="white" transform="translate(-3.13727 -2.09082)"/>
</clipPath>
</defs>
</svg>
