<svg width="138" height="69" viewBox="0 0 138 69" fill="none" xmlns="http://www.w3.org/2000/svg">
<g clip-path="url(#clip0_1_1203)">
<mask id="path-1-inside-1_1_1203" fill="white">
<path d="M125.187 0C133.401 0 140.06 6.65881 140.06 14.873V54.5342C140.06 62.7487 133.401 69.4072 125.187 69.4072H12.8135C4.59944 69.4072 -2.05957 62.7487 -2.05957 54.5342V14.873C-2.05957 6.65874 4.59944 0 12.8135 0H125.187ZM12.8135 9.91504C10.0754 9.91504 7.85547 12.1349 7.85547 14.873V54.5342C7.85547 57.2721 10.0754 59.4922 12.8135 59.4922H125.187C127.924 59.4922 130.145 57.2721 130.145 54.5342V14.873C130.145 12.1348 127.924 9.91504 125.187 9.91504H116.924V31.3984C116.924 34.1364 114.704 36.3564 111.966 36.3564H26.0332C23.2953 36.3563 21.0762 34.1363 21.0762 31.3984V9.91504H12.8135ZM30.9912 26.4404H37.6016V24.7881C37.6017 22.0502 39.8216 19.8311 42.5596 19.8311C45.2974 19.8312 47.5165 22.0503 47.5166 24.7881V26.4404H54.1279V24.7881C54.1281 22.0503 56.3472 19.8312 59.085 19.8311C61.8228 19.8311 64.0428 22.0502 64.043 24.7881V26.4404H73.958V24.7881C73.9581 22.0502 76.1781 19.8311 78.916 19.8311C81.6538 19.8312 83.8729 22.0503 83.873 24.7881V26.4404H90.4824V24.7881C90.4825 22.0503 92.7017 19.8312 95.4395 19.8311C98.1773 19.8311 100.397 22.0502 100.397 24.7881V26.4404H107.009V9.91504H30.9912V26.4404Z"/>
</mask>
<path d="M125.187 0C133.401 0 140.06 6.65881 140.06 14.873V54.5342C140.06 62.7487 133.401 69.4072 125.187 69.4072H12.8135C4.59944 69.4072 -2.05957 62.7487 -2.05957 54.5342V14.873C-2.05957 6.65874 4.59944 0 12.8135 0H125.187ZM12.8135 9.91504C10.0754 9.91504 7.85547 12.1349 7.85547 14.873V54.5342C7.85547 57.2721 10.0754 59.4922 12.8135 59.4922H125.187C127.924 59.4922 130.145 57.2721 130.145 54.5342V14.873C130.145 12.1348 127.924 9.91504 125.187 9.91504H116.924V31.3984C116.924 34.1364 114.704 36.3564 111.966 36.3564H26.0332C23.2953 36.3563 21.0762 34.1363 21.0762 31.3984V9.91504H12.8135ZM30.9912 26.4404H37.6016V24.7881C37.6017 22.0502 39.8216 19.8311 42.5596 19.8311C45.2974 19.8312 47.5165 22.0503 47.5166 24.7881V26.4404H54.1279V24.7881C54.1281 22.0503 56.3472 19.8312 59.085 19.8311C61.8228 19.8311 64.0428 22.0502 64.043 24.7881V26.4404H73.958V24.7881C73.9581 22.0502 76.1781 19.8311 78.916 19.8311C81.6538 19.8312 83.8729 22.0503 83.873 24.7881V26.4404H90.4824V24.7881C90.4825 22.0503 92.7017 19.8312 95.4395 19.8311C98.1773 19.8311 100.397 22.0502 100.397 24.7881V26.4404H107.009V9.91504H30.9912V26.4404Z" fill="#E6000D"/>
<path d="M116.924 9.91504V7.91504H114.924V9.91504H116.924ZM26.0332 36.3564L26.0331 38.3564H26.0332V36.3564ZM21.0762 9.91504H23.0762V7.91504H21.0762V9.91504ZM30.9912 26.4404H28.9912V28.4404H30.9912V26.4404ZM37.6016 26.4404V28.4404H39.6016V26.4404H37.6016ZM37.6016 24.7881L35.6016 24.788V24.7881H37.6016ZM42.5596 19.8311L42.5597 17.8311H42.5596V19.8311ZM47.5166 24.7881H49.5166V24.788L47.5166 24.7881ZM47.5166 26.4404H45.5166V28.4404H47.5166V26.4404ZM54.1279 26.4404V28.4404H56.1279V26.4404H54.1279ZM54.1279 24.7881L52.1279 24.788V24.7881H54.1279ZM59.085 19.8311V17.8311H59.0849L59.085 19.8311ZM64.043 24.7881H66.043V24.788L64.043 24.7881ZM64.043 26.4404H62.043V28.4404H64.043V26.4404ZM73.958 26.4404V28.4404H75.958V26.4404H73.958ZM73.958 24.7881L71.958 24.788V24.7881H73.958ZM78.916 19.8311L78.9161 17.8311H78.916V19.8311ZM83.873 24.7881H85.873V24.788L83.873 24.7881ZM83.873 26.4404H81.873V28.4404H83.873V26.4404ZM90.4824 26.4404V28.4404H92.4824V26.4404H90.4824ZM90.4824 24.7881L88.4824 24.788V24.7881H90.4824ZM95.4395 19.8311V17.8311H95.4394L95.4395 19.8311ZM100.397 24.7881H102.397V24.788L100.397 24.7881ZM100.397 26.4404H98.3975V28.4404H100.397V26.4404ZM107.009 26.4404V28.4404H109.009V26.4404H107.009ZM107.009 9.91504H109.009V7.91504H107.009V9.91504ZM30.9912 9.91504V7.91504H28.9912V9.91504H30.9912ZM125.187 0V2C132.296 2 138.06 7.76336 138.06 14.873H140.06H142.06C142.06 5.55426 134.506 -2 125.187 -2V0ZM140.06 14.873H138.06V54.5342H140.06H142.06V14.873H140.06ZM140.06 54.5342H138.06C138.06 61.6441 132.296 67.4072 125.187 67.4072V69.4072V71.4072C134.506 71.4072 142.06 63.8532 142.06 54.5342H140.06ZM125.187 69.4072V67.4072H12.8135V69.4072V71.4072H125.187V69.4072ZM12.8135 69.4072V67.4072C5.70397 67.4072 -0.0595703 61.6441 -0.0595703 54.5342H-2.05957H-4.05957C-4.05957 63.8533 3.49491 71.4072 12.8135 71.4072V69.4072ZM-2.05957 54.5342H-0.0595703V14.873H-2.05957H-4.05957V54.5342H-2.05957ZM-2.05957 14.873H-0.0595703C-0.0595703 7.76334 5.70398 2 12.8135 2V0V-2C3.49489 -2 -4.05957 5.55415 -4.05957 14.873H-2.05957ZM12.8135 0V2H125.187V0V-2H12.8135V0ZM12.8135 9.91504V7.91504C8.97085 7.91504 5.85547 11.0303 5.85547 14.873H7.85547H9.85547C9.85547 13.2395 11.1799 11.915 12.8135 11.915V9.91504ZM7.85547 14.873H5.85547V54.5342H7.85547H9.85547V14.873H7.85547ZM7.85547 54.5342H5.85547C5.85547 58.3767 8.97079 61.4922 12.8135 61.4922V59.4922V57.4922C11.18 57.4922 9.85547 56.1676 9.85547 54.5342H7.85547ZM12.8135 59.4922V61.4922H125.187V59.4922V57.4922H12.8135V59.4922ZM125.187 59.4922V61.4922C129.029 61.4922 132.145 58.3767 132.145 54.5342H130.145H128.145C128.145 56.1676 126.82 57.4922 125.187 57.4922V59.4922ZM130.145 54.5342H132.145V14.873H130.145H128.145V54.5342H130.145ZM130.145 14.873H132.145C132.145 11.0302 129.029 7.91504 125.187 7.91504V9.91504V11.915C126.82 11.915 128.145 13.2395 128.145 14.873H130.145ZM125.187 9.91504V7.91504H116.924V9.91504V11.915H125.187V9.91504ZM116.924 9.91504H114.924V31.3984H116.924H118.924V9.91504H116.924ZM116.924 31.3984H114.924C114.924 33.0318 113.599 34.3564 111.966 34.3564V36.3564V38.3564C115.808 38.3564 118.924 35.241 118.924 31.3984H116.924ZM111.966 36.3564V34.3564H26.0332V36.3564V38.3564H111.966V36.3564ZM26.0332 36.3564L26.0333 34.3564C24.4003 34.3564 23.0762 33.0322 23.0762 31.3984H21.0762H19.0762C19.0762 35.2404 22.1902 38.3563 26.0331 38.3564L26.0332 36.3564ZM21.0762 31.3984H23.0762V9.91504H21.0762H19.0762V31.3984H21.0762ZM21.0762 9.91504V7.91504H12.8135V9.91504V11.915H21.0762V9.91504ZM30.9912 26.4404V28.4404H37.6016V26.4404V24.4404H30.9912V26.4404ZM37.6016 26.4404H39.6016V24.7881H37.6016H35.6016V26.4404H37.6016ZM37.6016 24.7881L39.6016 24.7882C39.6016 23.1552 40.9258 21.8311 42.5596 21.8311V19.8311V17.8311C38.7175 17.8311 35.6017 20.9452 35.6016 24.788L37.6016 24.7881ZM42.5596 19.8311L42.5595 21.8311C44.1928 21.8312 45.5165 23.1549 45.5166 24.7882L47.5166 24.7881L49.5166 24.788C49.5164 20.9457 46.402 17.8313 42.5597 17.8311L42.5596 19.8311ZM47.5166 24.7881H45.5166V26.4404H47.5166H49.5166V24.7881H47.5166ZM47.5166 26.4404V28.4404H54.1279V26.4404V24.4404H47.5166V26.4404ZM54.1279 26.4404H56.1279V24.7881H54.1279H52.1279V26.4404H54.1279ZM54.1279 24.7881L56.1279 24.7882C56.128 23.1549 57.4518 21.8311 59.085 21.8311L59.085 19.8311L59.0849 17.8311C55.2426 17.8312 52.1281 20.9457 52.1279 24.788L54.1279 24.7881ZM59.085 19.8311V21.8311C60.7187 21.8311 62.0429 23.1553 62.043 24.7882L64.043 24.7881L66.043 24.788C66.0428 20.9452 62.927 17.8311 59.085 17.8311V19.8311ZM64.043 24.7881H62.043V26.4404H64.043H66.043V24.7881H64.043ZM64.043 26.4404V28.4404H73.958V26.4404V24.4404H64.043V26.4404ZM73.958 26.4404H75.958V24.7881H73.958H71.958V26.4404H73.958ZM73.958 24.7881L75.958 24.7882C75.9581 23.1553 77.2823 21.8311 78.916 21.8311V19.8311V17.8311C75.074 17.8311 71.9582 20.9452 71.958 24.788L73.958 24.7881ZM78.916 19.8311L78.9159 21.8311C80.5492 21.8311 81.873 23.1549 81.873 24.7882L83.873 24.7881L85.873 24.788C85.8729 20.9457 82.7584 17.8312 78.9161 17.8311L78.916 19.8311ZM83.873 24.7881H81.873V26.4404H83.873H85.873V24.7881H83.873ZM83.873 26.4404V28.4404H90.4824V26.4404V24.4404H83.873V26.4404ZM90.4824 26.4404H92.4824V24.7881H90.4824H88.4824V26.4404H90.4824ZM90.4824 24.7881L92.4824 24.7882C92.4825 23.1549 93.8063 21.8311 95.4395 21.8311L95.4395 19.8311L95.4394 17.8311C91.5971 17.8312 88.4826 20.9457 88.4824 24.788L90.4824 24.7881ZM95.4395 19.8311V21.8311C97.0732 21.8311 98.3974 23.1553 98.3975 24.7882L100.397 24.7881L102.397 24.788C102.397 20.9452 99.2815 17.8311 95.4395 17.8311V19.8311ZM100.397 24.7881H98.3975V26.4404H100.397H102.397V24.7881H100.397ZM100.397 26.4404V28.4404H107.009V26.4404V24.4404H100.397V26.4404ZM107.009 26.4404H109.009V9.91504H107.009H105.009V26.4404H107.009ZM107.009 9.91504V7.91504H30.9912V9.91504V11.915H107.009V9.91504ZM30.9912 9.91504H28.9912V26.4404H30.9912H32.9912V9.91504H30.9912Z" fill="#EAEAEA" mask="url(#path-1-inside-1_1_1203)"/>
</g>
<defs>
<clipPath id="clip0_1_1203">
<rect width="138" height="69" fill="white"/>
</clipPath>
</defs>
</svg>
