<svg width="138" height="138" viewBox="0 0 138 138" fill="none" xmlns="http://www.w3.org/2000/svg">
<path d="M37.1423 25.7553V4.06641H121.187V25.7553" stroke="#E6000D" stroke-width="5" stroke-miterlimit="10" stroke-linecap="round" stroke-linejoin="round"/>
<path d="M23.5872 63.6019V33.8894C23.5872 29.3974 27.2285 25.7561 31.7205 25.7561H126.609C131.101 25.7561 134.743 29.3974 134.743 33.8894V74.5561C134.743 79.0482 131.101 82.6894 126.609 82.6894H115.765" stroke="#E6000D" stroke-width="5" stroke-miterlimit="10" stroke-linecap="round" stroke-linejoin="round"/>
<path d="M47.9617 92.6233L55.824 100.486L63.6862 92.6236" stroke="#E6000D" stroke-width="5" stroke-miterlimit="10" stroke-linecap="round" stroke-linejoin="round"/>
<path d="M55.8243 100.485C56.8497 96.6585 56.4151 92.4411 54.2779 88.7394C50.0036 81.3358 40.5367 78.7993 33.1332 83.0737C25.7296 87.348 23.1931 96.8149 27.4675 104.218C29.6046 107.92 33.0399 110.405 36.8664 111.431" stroke="#E6000D" stroke-width="5" stroke-miterlimit="10" stroke-linecap="round" stroke-linejoin="round"/>
<path d="M72.7883 74.5562H115.764V109.801H77.6872" stroke="#E6000D" stroke-width="5" stroke-miterlimit="10" stroke-linecap="round" stroke-linejoin="round"/>
<path d="M42.0219 134.743C62.9842 134.743 79.9775 117.75 79.9775 96.7876C79.9775 75.8253 62.9842 58.832 42.0219 58.832C21.0596 58.832 4.06635 75.8253 4.06635 96.7876C4.06635 117.75 21.0596 134.743 42.0219 134.743Z" stroke="#E6000D" stroke-width="5" stroke-miterlimit="10" stroke-linecap="round" stroke-linejoin="round"/>
</svg>
