<svg width="138" height="138" viewBox="0 0 138 138" fill="none" xmlns="http://www.w3.org/2000/svg">
<g clip-path="url(#clip0_1_1030)">
<path d="M6.47494 50.3877L3.00122 36.4928" stroke="#E6000D" stroke-width="5" stroke-miterlimit="22.926" stroke-linecap="round" stroke-linejoin="round"/>
<path d="M6.47375 50.3877L20.3686 43.4403" stroke="#E6000D" stroke-width="5" stroke-miterlimit="22.926" stroke-linecap="round" stroke-linejoin="round"/>
<path d="M7.46271 46.6293C16.5829 20.5131 41.3766 2.99978 69.2284 2.99978C99.0282 2.99978 125.056 23.0005 132.517 51.6318" stroke="#E6000D" stroke-width="5" stroke-miterlimit="22.926" stroke-linecap="round" stroke-linejoin="round"/>
<path d="M131.175 87.7204L134.648 101.615" stroke="#E6000D" stroke-width="5" stroke-miterlimit="22.926" stroke-linecap="round" stroke-linejoin="round"/>
<path d="M131.167 87.7176L117.272 94.665" stroke="#E6000D" stroke-width="5" stroke-miterlimit="22.926" stroke-linecap="round" stroke-linejoin="round"/>
<path d="M129.043 91.3714C120.176 117.488 96.0714 135.001 68.993 135.001C40.0209 135.001 14.7156 115 7.46275 86.3689" stroke="#E6000D" stroke-width="5" stroke-miterlimit="22.926" stroke-linecap="round" stroke-linejoin="round"/>
<path d="M69.9888 96.7881C73.8153 96.7881 76.9362 93.667 76.9362 89.8408C76.9362 86.0143 73.8153 82.8932 69.9888 82.8932C66.1623 82.8932 63.0414 86.0143 63.0414 89.8408C63.0414 93.667 66.1623 96.7881 69.9888 96.7881Z" stroke="#E6000D" stroke-width="5" stroke-miterlimit="22.926" stroke-linecap="round" stroke-linejoin="round"/>
<path d="M52.6217 68.998C57.5483 64.5056 63.722 62.0506 70.0923 62.0506C76.3726 62.0506 82.4642 64.4364 87.3589 68.8133" stroke="#E6000D" stroke-width="5" stroke-miterlimit="22.926" stroke-linecap="round" stroke-linejoin="round"/>
<path d="M38.7215 51.6318C47.5893 44.8932 58.7017 41.2107 70.1686 41.2107C81.4733 41.2107 92.4385 44.7898 101.248 51.3554" stroke="#E6000D" stroke-width="5" stroke-miterlimit="22.926" stroke-linecap="round" stroke-linejoin="round"/>
</g>
<defs>
<clipPath id="clip0_1_1030">
<rect width="138" height="138" fill="white"/>
</clipPath>
</defs>
</svg>
