<svg width="44" height="44" viewBox="0 0 44 44" fill="none" xmlns="http://www.w3.org/2000/svg">
<path fill-rule="evenodd" clip-rule="evenodd" d="M15.9533 20.1392V23.8601C15.9533 24.9708 16.3942 26.035 17.1793 26.8201C17.9644 27.6053 19.0286 28.0462 20.1393 28.0462H23.8603C24.971 28.0462 26.0352 27.6053 26.8203 26.8201C27.6054 26.035 28.0463 24.9708 28.0463 23.8601V20.1392C28.0463 19.0285 27.6054 17.9643 26.8203 17.1792C26.0352 16.3941 24.971 15.9531 23.8603 15.9531H20.1393C19.0286 15.9531 17.9644 16.3941 17.1793 17.1792C16.3942 17.9643 15.9533 19.0285 15.9533 20.1392ZM18.744 20.1392C18.744 19.769 18.891 19.4136 19.1533 19.1531C19.4137 18.8908 19.7691 18.7438 20.1393 18.7438H23.8603C24.2305 18.7438 24.5859 18.8908 24.8463 19.1531C25.1086 19.4136 25.2556 19.769 25.2556 20.1392V23.8601C25.2556 24.2304 25.1086 24.5857 24.8463 24.8462C24.5859 25.1085 24.2305 25.2555 23.8603 25.2555H20.1393C19.7691 25.2555 19.4137 25.1085 19.1533 24.8462C18.891 24.5857 18.744 24.2304 18.744 23.8601V20.1392Z" fill="#E6000D"/>
<path fill-rule="evenodd" clip-rule="evenodd" d="M2 6.18606V9.907C2 11.0177 2.44093 12.0819 3.22605 12.867C4.01117 13.6521 5.07536 14.0931 6.18606 14.0931H9.907C11.0177 14.0931 12.0819 13.6521 12.867 12.867C13.6521 12.0819 14.0931 11.0177 14.0931 9.907V6.18606C14.0931 5.07536 13.6521 4.01117 12.867 3.22605C12.0819 2.44093 11.0177 2 9.907 2H6.18606C5.07536 2 4.01117 2.44093 3.22605 3.22605C2.44093 4.01117 2 5.07536 2 6.18606ZM4.79071 6.18606C4.79071 5.81583 4.93768 5.46048 5.20001 5.20001C5.46048 4.93768 5.81583 4.79071 6.18606 4.79071H9.907C10.2772 4.79071 10.6326 4.93768 10.8931 5.20001C11.1554 5.46048 11.3024 5.81583 11.3024 6.18606V9.907C11.3024 10.2772 11.1554 10.6326 10.8931 10.8931C10.6326 11.1554 10.2772 11.3024 9.907 11.3024H6.18606C5.81583 11.3024 5.46048 11.1554 5.20001 10.8931C4.93768 10.6326 4.79071 10.2772 4.79071 9.907V6.18606Z" fill="#E6000D"/>
<path fill-rule="evenodd" clip-rule="evenodd" d="M29.9065 34.0928V37.8137C29.9065 38.9244 30.3475 39.9886 31.1326 40.7738C31.9177 41.5589 32.9819 41.9998 34.0926 41.9998H37.8135C38.9242 41.9998 39.9884 41.5589 40.7735 40.7738C41.5587 39.9886 41.9996 38.9244 41.9996 37.8137V34.0928C41.9996 32.9821 41.5587 31.9179 40.7735 31.1328C39.9884 30.3477 38.9242 29.9067 37.8135 29.9067H34.0926C32.9819 29.9067 31.9177 30.3477 31.1326 31.1328C30.3475 31.9179 29.9065 32.9821 29.9065 34.0928ZM32.6972 34.0928C32.6972 33.7226 32.8442 33.3672 33.1065 33.1067C33.367 32.8444 33.7224 32.6974 34.0926 32.6974H37.8135C38.1838 32.6974 38.5391 32.8444 38.7996 33.1067C39.0619 33.3672 39.2089 33.7226 39.2089 34.0928V37.8137C39.2089 38.184 39.0619 38.5393 38.7996 38.7998C38.5391 39.0621 38.1838 39.2091 37.8135 39.2091H34.0926C33.7224 39.2091 33.367 39.0621 33.1065 38.7998C32.8442 38.5393 32.6972 38.184 32.6972 37.8137V34.0928Z" fill="#E6000D"/>
<path fill-rule="evenodd" clip-rule="evenodd" d="M12.6962 9.44305H36.8824C37.5 9.44305 38.0898 9.68863 38.527 10.124C38.9624 10.5612 39.2079 11.151 39.2079 11.7686V18.2803C39.2079 18.898 38.9624 19.4877 38.527 19.9249C38.0898 20.3603 37.5 20.6059 36.8824 20.6059H31.3009C30.5307 20.6059 29.9056 21.231 29.9056 22.0012C29.9056 22.7715 30.5307 23.3966 31.3009 23.3966H36.8824C38.2386 23.3966 39.541 22.857 40.501 21.8989C41.4591 20.9389 41.9987 19.6366 41.9987 18.2803C41.9987 16.2654 41.9987 13.7835 41.9987 11.7686C41.9987 10.4124 41.4591 9.11003 40.501 8.15002C39.541 7.19188 38.2386 6.65234 36.8824 6.65234C29.2842 6.65234 12.6962 6.65234 12.6962 6.65234C11.926 6.65234 11.3009 7.27746 11.3009 8.0477C11.3009 8.81793 11.926 9.44305 12.6962 9.44305Z" fill="#E6000D"/>
<path fill-rule="evenodd" clip-rule="evenodd" d="M23.8605 34.559H7.1163C6.49862 34.559 5.90885 34.3134 5.47164 33.8781C5.03629 33.4409 4.79071 32.8511 4.79071 32.2334C4.79071 30.2185 4.79071 27.7367 4.79071 25.7218C4.79071 25.1041 5.03629 24.5143 5.47164 24.0771C5.90885 23.6418 6.49862 23.3962 7.1163 23.3962H17.3489C18.1191 23.3962 18.7442 22.7711 18.7442 22.0008C18.7442 21.2306 18.1191 20.6055 17.3489 20.6055H7.1163C5.76001 20.6055 4.45768 21.145 3.49768 22.1031C2.53954 23.0632 2 24.3655 2 25.7218V32.2334C2 33.5897 2.53954 34.892 3.49768 35.852C4.45768 36.8102 5.76001 37.3497 7.1163 37.3497H23.8605C24.6308 37.3497 25.2559 36.7246 25.2559 35.9544C25.2559 35.1841 24.6308 34.559 23.8605 34.559Z" fill="#E6000D"/>
<path fill-rule="evenodd" clip-rule="evenodd" d="M36.0084 24.7335L33.2754 21.9986L36.0084 19.2637C36.5535 18.7205 36.5535 17.8349 36.0084 17.2917C35.4652 16.7465 34.5796 16.7465 34.0363 17.2917L30.3154 21.0126C29.7703 21.5577 29.7703 22.4396 30.3154 22.9847L34.0363 26.7056C34.5796 27.2508 35.4652 27.2508 36.0084 26.7056C36.5535 26.1624 36.5535 25.2768 36.0084 24.7335Z" fill="#E6000D"/>
<path fill-rule="evenodd" clip-rule="evenodd" d="M22.9866 40.6593L26.7075 36.9383C27.2527 36.3932 27.2527 35.5113 26.7075 34.9662L22.9866 31.2453C22.4433 30.7001 21.5578 30.7001 21.0145 31.2453C20.4694 31.7885 20.4694 32.6741 21.0145 33.2174L23.7475 35.9523L21.0145 38.6872C20.4694 39.2304 20.4694 40.116 21.0145 40.6593C21.5578 41.2044 22.4433 41.2044 22.9866 40.6593Z" fill="#E6000D"/>
</svg>
