<svg width="150" height="150" viewBox="0 0 150 150" fill="none" xmlns="http://www.w3.org/2000/svg">
<path fill-rule="evenodd" clip-rule="evenodd" d="M40.4332 6C39.5992 6 38.88 6.58872 38.7095 7.41008C37.076 15.2847 30.7604 25.1794 18.5842 26.4136C17.6847 26.5044 17 27.2669 17 28.1776V83.1036C17 96.2256 26.1903 108.726 37.3761 118.91C53.7568 133.825 74.2315 143.822 74.2315 143.822C74.7168 144.059 75.2832 144.059 75.7685 143.822C75.7685 143.822 96.2432 133.825 112.624 118.91C123.81 108.726 133 96.2256 133 83.1036V28.1776C133 27.2669 132.315 26.5044 131.416 26.4136C119.24 25.1794 112.924 15.2847 111.291 7.41008C111.12 6.58872 110.401 6 109.567 6H40.4332ZM41.8243 9.54649H108.176C110.398 17.9779 117.188 27.7669 129.478 29.7352V83.1036C129.478 95.3155 120.672 106.802 110.262 116.28C96.1037 129.172 78.815 138.303 75 140.245C71.185 138.303 53.8963 129.172 39.7379 116.28C29.3276 106.802 20.522 95.3155 20.522 83.1036V29.7352C32.8123 27.7669 39.602 17.9779 41.8243 9.54649Z" fill="#E6000D" stroke="#E6000D"/>
<path d="M93.1152 59.3057C94.5484 57.8975 96.8808 57.8984 98.3135 59.3066H98.3145C99.6909 60.6588 99.7337 62.8174 98.4424 64.2207L98.3135 64.3545L71.1143 91.082C70.4003 91.7837 69.4614 92.1377 68.5146 92.1377C67.5679 92.1377 66.629 91.7837 65.915 91.082L52.3154 77.7178C50.8948 76.3213 50.8941 74.0661 52.3154 72.6689C53.748 71.2615 56.0813 71.2621 57.5146 72.6699L67.6387 82.6182L68.5146 83.4795L69.3906 82.6182L93.1152 59.3057Z" fill="#E6000D" stroke="#EAEAEA" stroke-width="2.5"/>
</svg>
