<svg width="40" height="40" viewBox="0 0 40 40" fill="none" xmlns="http://www.w3.org/2000/svg">
<path d="M28.8213 25.6123H31.3415C32.3685 25.6123 33.3851 25.4054 34.3307 25.0039C35.2762 24.6024 36.1315 24.0144 36.8457 23.275C37.5598 22.5357 38.1182 21.6599 38.4875 20.7C38.8569 19.74 39.0298 18.7154 38.9958 17.6872C38.9618 16.659 38.7217 15.6481 38.2898 14.7147C37.8579 13.7813 37.243 12.9445 36.4816 12.254C35.7202 11.5635 34.828 11.0335 33.858 10.6955C32.888 10.3574 31.86 10.2183 30.8352 10.2864C29.7552 -1.51121 13.2899 -2.31526 11.0251 9.29609C9.89458 9.04512 8.72398 9.03558 7.58957 9.2681C6.45516 9.50062 5.38239 9.96998 4.44117 10.6456C3.49996 11.3212 2.71142 12.1879 2.12696 13.1892C1.54249 14.1905 1.17521 15.3039 1.04906 16.4569C0.922907 17.6099 1.04071 18.7766 1.39479 19.881C1.74887 20.9853 2.33127 22.0025 3.10406 22.8663C3.87684 23.7301 4.82266 24.4211 5.87986 24.8942C6.93707 25.3673 8.08193 25.612 9.23985 25.6123H11.1785V29.8673L9.00063 31.7759C8.40157 31.2969 7.68024 30.9961 6.91883 30.9078C6.15741 30.8195 5.38655 30.9472 4.69407 31.2764C4.0016 31.6056 3.41537 32.123 3.00218 32.7697C2.589 33.4164 2.36549 34.1664 2.35712 34.9342C2.53076 40.3229 10.3269 40.3251 10.4999 34.934C10.4995 34.1803 10.2891 33.4418 9.89232 32.8014L12.304 30.6877C12.3767 30.6238 12.435 30.5451 12.4749 30.4569C12.5149 30.3686 12.5356 30.2728 12.5356 30.1759V25.6123H19.3213V30.9171C18.3736 31.0781 17.5133 31.5697 16.8924 32.3048C16.2715 33.0399 15.9301 33.9712 15.9285 34.9341C16.1176 40.3278 23.8799 40.3343 24.0713 34.934C24.0697 33.9711 23.7283 33.0398 23.1074 32.3047C22.4865 31.5697 21.6262 31.0781 20.6785 30.9171V25.6123H27.4642V30.1759C27.4642 30.2729 27.4849 30.3687 27.5249 30.457C27.5649 30.5452 27.6233 30.6239 27.6961 30.6877L30.1076 32.8012C29.5756 33.6724 29.3897 34.712 29.5868 35.7141C29.7839 36.7161 30.3495 37.6073 31.1716 38.2113C31.9938 38.8153 33.0124 39.0879 34.0256 38.9751C35.0389 38.8622 35.9729 38.3723 36.6426 37.6022C37.3122 36.8321 37.6687 35.8382 37.6413 34.8173C37.6139 33.7964 37.2047 32.823 36.4947 32.0901C35.7848 31.3572 34.8258 30.9181 33.808 30.86C32.7901 30.8018 31.7876 31.1288 30.999 31.7761L28.8213 29.8673V25.6123ZM6.42848 37.653C5.71281 37.6466 5.02863 37.3573 4.52483 36.8481C4.02103 36.3389 3.73838 35.651 3.73839 34.934C3.7384 34.2171 4.02106 33.5292 4.52488 33.02C5.02869 32.5108 5.71287 32.2215 6.42854 32.2151C7.14421 32.2216 7.82839 32.5108 8.33219 33.0201C8.83599 33.5293 9.11864 34.2172 9.11863 34.9341C9.11862 35.651 8.83595 36.3389 8.33214 36.8481C7.82833 37.3573 7.14415 37.6466 6.42848 37.653ZM22.7142 34.9341C22.7078 35.651 22.419 36.3363 21.9107 36.841C21.4023 37.3457 20.7156 37.6288 19.9999 37.6288C19.2842 37.6288 18.5975 37.3456 18.0891 36.8409C17.5808 36.3363 17.292 35.6509 17.2856 34.934C17.292 34.2171 17.5808 33.5318 18.0892 33.0271C18.5975 32.5224 19.2842 32.2393 19.9999 32.2393C20.7156 32.2393 21.4024 32.5225 21.9107 33.0272C22.419 33.5318 22.7078 34.2172 22.7142 34.9341ZM2.35705 17.3579C2.35986 16.3124 2.59937 15.2812 3.05754 14.3418C3.51571 13.4025 4.18061 12.5794 5.0022 11.9347C5.8238 11.2899 6.78068 10.8402 7.80084 10.6195C8.82099 10.3987 9.87785 10.4126 10.8919 10.6601C10.8604 11.7287 10.9999 12.7954 11.305 13.8198C11.3302 13.9057 11.3721 13.9858 11.4282 14.0554C11.4844 14.1251 11.5537 14.1829 11.6322 14.2256C11.7108 14.2684 11.797 14.2951 11.8859 14.3044C11.9747 14.3136 12.0646 14.3052 12.1502 14.2796C12.2358 14.254 12.3156 14.2117 12.3848 14.1551C12.4541 14.0985 12.5115 14.0288 12.5538 13.9499C12.5961 13.871 12.6224 13.7846 12.6312 13.6955C12.64 13.6064 12.6312 13.5165 12.6052 13.4308C12.2497 12.242 12.1539 10.9905 12.3243 9.76136C12.4948 8.53219 12.9274 7.3542 13.5929 6.30747C14.2583 5.26074 15.141 4.36982 16.1808 3.69528C17.2207 3.02074 18.3933 2.57839 19.619 2.39833C20.8448 2.21826 22.0948 2.30469 23.2842 2.65173C24.4736 2.99878 25.5745 3.59831 26.512 4.40956C27.4494 5.22081 28.2015 6.22475 28.7171 7.35314C29.2327 8.48152 29.4997 9.70788 29.4999 10.9488C29.4864 11.0564 29.4982 11.1656 29.5343 11.2678C29.5704 11.3699 29.6298 11.4622 29.7078 11.5374C29.7858 11.6125 29.8803 11.6683 29.9836 11.7004C30.087 11.7324 30.1964 11.7399 30.3031 11.7222C31.1623 11.5778 32.0421 11.6136 32.8869 11.8273C33.7316 12.041 34.5229 12.428 35.2107 12.9637C35.8985 13.4994 36.4678 14.1722 36.8827 14.9397C37.2976 15.7071 37.5491 16.5524 37.6211 17.4221C37.6932 18.2919 37.5844 19.1672 37.3014 19.9926C37.0185 20.8181 36.5677 21.5757 35.9775 22.2177C35.3873 22.8597 34.6706 23.372 33.8726 23.7223C33.0746 24.0726 32.2127 24.2533 31.3415 24.2528H9.23985C7.41503 24.2506 5.66557 23.5235 4.37525 22.2309C3.08494 20.9383 2.35913 19.1858 2.35705 17.3579ZM36.2856 34.9341C36.2792 35.651 35.9904 36.3363 35.4821 36.841C34.9738 37.3457 34.287 37.6288 33.5713 37.6288C32.8556 37.6288 32.1689 37.3456 31.6606 36.8409C31.1522 36.3363 30.8635 35.6509 30.8571 34.934C30.8635 34.2171 31.1523 33.5318 31.6606 33.0271C32.1689 32.5224 32.8557 32.2393 33.5714 32.2393C34.2871 32.2393 34.9738 32.5225 35.4821 33.0272C35.9905 33.5318 36.2792 34.2172 36.2856 34.9341Z" fill="#E6000D" stroke="#E6000D"/>
</svg>
