<svg width="40" height="40" viewBox="0 0 40 40" fill="none" xmlns="http://www.w3.org/2000/svg">
<g clip-path="url(#clip0_1_302)">
<mask id="mask0_1_302" style="mask-type:luminance" maskUnits="userSpaceOnUse" x="0" y="0" width="40" height="40">
<path d="M0 0H40V40H0V0Z" fill="white"/>
</mask>
<g mask="url(#mask0_1_302)">
<path d="M31.1328 20C31.1328 26.1485 26.1485 31.1328 20 31.1328C13.8515 31.1328 8.86719 26.1485 8.86719 20C8.86719 13.8515 13.8515 8.86718 20 8.86718C26.1485 8.86718 31.1328 13.8515 31.1328 20Z" stroke="#E6000D" stroke-width="2.6" stroke-miterlimit="10" stroke-linecap="round" stroke-linejoin="round"/>
<path d="M25.5664 16.6602L18.8867 23.3398L14.4336 18.8867" stroke="#E6000D" stroke-width="2.6" stroke-miterlimit="10" stroke-linecap="round" stroke-linejoin="round"/>
<path d="M18.5561 2.64487C19.3883 1.93608 20.6117 1.93608 21.4439 2.64487L24.3371 5.19837L29.2333 4.81948C30.3231 4.73517 31.3129 5.45427 31.5694 6.51679L32.5511 10.5822L36.829 13.1429C37.7602 13.7153 38.1382 14.8789 37.7213 15.8892L36.0312 19.9844L37.7213 24.0795C38.1382 25.09 37.7602 26.2536 36.829 26.8259L32.5511 29.3866L31.5694 33.452C31.3129 34.5145 30.3231 35.2337 29.2333 35.1493L24.385 34.7741L21.4439 37.3551C20.6117 38.0639 19.3883 38.0639 18.5561 37.3551L15.615 34.7741L10.7667 35.1493C9.67691 35.2337 8.68706 34.5145 8.43056 33.452L7.44501 29.3705L3.17431 26.8259C2.24301 26.2536 1.86494 25.09 2.28198 24.0795L3.97194 19.9844L2.28198 15.8892C1.86494 14.8789 2.24301 13.7153 3.17431 13.1429L7.07896 10.8232L8.43056 6.51679C8.68706 5.45427 9.67691 4.73517 10.7667 4.81948L15.663 5.19837L18.5561 2.64487Z" stroke="#E6000D" stroke-width="2.6" stroke-miterlimit="10" stroke-linecap="round" stroke-linejoin="round"/>
</g>
</g>
<defs>
<clipPath id="clip0_1_302">
<rect width="40" height="40" fill="white"/>
</clipPath>
</defs>
</svg>
