<svg width="44" height="44" viewBox="0 0 44 44" fill="none" xmlns="http://www.w3.org/2000/svg">
<rect width="44" height="44" fill="white"/>
<path d="M24.4781 6.75488C16.6079 5.62972 9.27942 9.82664 6.09524 17.2305C4.88743 20.0359 4.42079 22.9989 4.80325 26.043C5.68968 33.1209 9.39454 38.157 15.9351 40.6885C22.0569 43.0579 27.8114 41.9521 32.9712 37.8652C32.8728 38.448 32.7801 38.9852 32.6968 39.5215V39.5225C32.6407 39.8924 32.7078 40.2374 32.895 40.5107C33.083 40.7851 33.3773 40.9648 33.7329 41.0293C34.3846 41.1464 34.9587 40.7122 35.1333 40.0625L35.1636 39.9297C35.4697 38.2137 35.7729 36.4946 36.065 34.7754C36.1572 34.2353 36.0843 33.7635 35.7788 33.4473C35.4745 33.1324 35.0051 33.0396 34.4644 33.1025L29.399 33.6914L29.2642 33.7129C28.9567 33.7753 28.6975 33.9187 28.5142 34.1357C28.3041 34.3845 28.2127 34.7082 28.2407 35.0586C28.2689 35.4165 28.4149 35.7264 28.6734 35.9365C28.9308 36.1456 29.2732 36.2344 29.6558 36.2041C30.1513 36.1646 30.6485 36.1087 31.1724 36.0488C28.8133 37.933 26.1442 39.0128 23.1324 39.2578C15.5459 39.8757 8.56829 34.4105 7.37259 26.5176C6.1513 18.453 11.34 11.045 18.9702 9.43359C26.9724 7.73996 34.722 12.8803 36.481 21.0205C36.9418 23.1566 36.9347 25.3015 36.4693 27.4434L36.4029 27.7637C36.3931 27.8226 36.3848 27.8835 36.3804 27.9453L36.3794 28.1318C36.4234 28.7775 36.9355 29.2733 37.5503 29.3125H37.5513C38.1314 29.3465 38.647 28.9745 38.8316 28.4141L38.8638 28.2998C39.2988 26.4605 39.4158 24.5954 39.2632 22.7236C39.0007 19.5083 37.9616 16.5529 36.0904 13.9414C33.2069 9.92041 29.341 7.44918 24.4781 6.75488Z" fill="#E6000D" stroke="#E6000D" stroke-width="0.5"/>
<path d="M23.2466 13.8549C23.2294 12.8375 22.189 12.2471 21.3374 12.7836L21.2534 12.8412C20.9077 13.0984 20.7853 13.4601 20.7603 13.8324L20.7544 14.0043C20.7615 15.6114 20.7574 17.2182 20.7574 18.8295C20.7573 19.6673 20.7528 20.5074 20.7622 21.349C20.7632 21.447 20.7512 21.4943 20.7368 21.5228C20.7244 21.5475 20.6974 21.5823 20.6177 21.6293L20.4116 21.7601C19.4146 22.4412 18.9536 23.5583 19.1597 24.7582C19.3587 25.915 20.3171 26.8881 21.4732 27.1117C22.6164 27.3324 23.7586 26.8276 24.4185 25.8158L24.5435 25.6068C24.589 25.5237 24.6267 25.5013 24.6529 25.4906C24.692 25.4747 24.7485 25.4681 24.8618 25.4681C26.2323 25.4705 27.6048 25.4796 28.979 25.4652H28.98C29.9111 25.4533 30.511 24.4665 30.0786 23.6449L29.9741 23.474C29.8604 23.3146 29.7195 23.1896 29.5542 23.101C29.3365 22.9842 29.0904 22.9373 28.8325 22.9398H28.8316C27.5636 22.9494 26.2792 22.9348 25.0034 22.9564H25.0025C24.846 22.9595 24.7469 22.9374 24.6704 22.8969C24.5932 22.8559 24.5133 22.7827 24.4185 22.642C24.1567 22.2489 23.7833 21.9284 23.4302 21.6664C23.3422 21.6003 23.3022 21.5542 23.2808 21.515C23.261 21.4789 23.2457 21.428 23.2466 21.3324V21.3314L23.2515 17.5961V17.5931C23.2515 16.3522 23.2678 15.1031 23.2466 13.8549Z" fill="#E6000D" stroke="#E6000D" stroke-width="0.5"/>
<path d="M18.2809 2.23288L18.2818 2.23386C17.9231 2.23386 17.6049 2.35379 17.3766 2.57468C17.1479 2.79611 17.0248 3.10342 17.0299 3.44479C17.035 3.78777 17.1593 4.09105 17.3912 4.3071C17.6219 4.52198 17.9387 4.63034 18.2945 4.63034L18.2936 4.63132H25.7154C26.0802 4.63132 26.4055 4.51955 26.6412 4.30222C26.8789 4.08301 27.0061 3.77469 27.0035 3.42624C27.0009 3.08596 26.8781 2.782 26.6471 2.56393C26.4171 2.34689 26.0998 2.23402 25.7398 2.23386V2.23288C23.2543 2.22616 20.7664 2.22616 18.2809 2.23288Z" fill="#E6000D" stroke="#E6000D" stroke-width="0.5"/>
</svg>
