<svg width="150" height="150" viewBox="0 0 150 150" fill="none" xmlns="http://www.w3.org/2000/svg">
<path d="M126.165 22L126.613 22.0059C136.001 22.2445 143.568 29.9596 143.568 39.4033V102.561C143.568 112.154 135.758 119.964 126.165 119.964H24.4639C14.8704 119.964 7.06055 112.154 7.06055 102.561V39.4033C7.06056 29.8099 14.8704 22 24.4639 22H126.165ZM23.3643 120.93C23.4179 120.933 23.4716 120.938 23.5254 120.94L23.9893 120.958C23.78 120.953 23.5717 120.942 23.3643 120.93ZM24.4639 27.8262C18.0812 27.8262 12.8867 33.0206 12.8867 39.4033V102.561C12.8867 108.943 18.0812 114.138 24.4639 114.138H126.165C132.548 114.138 137.742 108.943 137.742 102.561V39.4033C137.742 33.0206 132.548 27.8262 126.165 27.8262H24.4639ZM127.237 113.083C127.095 113.097 126.951 113.108 126.807 113.116C126.951 113.108 127.095 113.097 127.237 113.083ZM23.3096 113.073C23.1625 113.057 23.0163 113.04 22.8711 113.018C23.0163 113.04 23.1625 113.057 23.3096 113.073ZM127.755 113.018C127.615 113.039 127.474 113.056 127.332 113.071C127.474 113.056 127.615 113.039 127.755 113.018ZM22.2988 112.913C22.1443 112.881 21.9909 112.846 21.8389 112.807C21.9909 112.846 22.1443 112.881 22.2988 112.913ZM128.271 112.926C128.153 112.95 128.034 112.969 127.915 112.989C128.034 112.969 128.153 112.95 128.271 112.926ZM128.776 112.81C128.661 112.839 128.544 112.865 128.427 112.891C128.544 112.865 128.661 112.839 128.776 112.81ZM21.7324 112.777C21.6027 112.743 21.4734 112.707 21.3457 112.668C21.4734 112.707 21.6027 112.743 21.7324 112.777ZM129.271 112.671C129.159 112.705 129.045 112.736 128.932 112.767C129.045 112.736 129.159 112.705 129.271 112.671ZM21.1895 112.616C21.0813 112.581 20.9738 112.545 20.8672 112.506C20.9738 112.545 21.0813 112.581 21.1895 112.616ZM129.75 112.51C129.651 112.545 129.552 112.579 129.452 112.611C129.552 112.579 129.651 112.545 129.75 112.51ZM20.7031 112.443C20.5963 112.403 20.4899 112.362 20.3848 112.317C20.4899 112.362 20.5963 112.403 20.7031 112.443ZM130.225 112.325C130.133 112.363 130.041 112.398 129.948 112.434C130.041 112.398 130.133 112.363 130.225 112.325ZM20.2373 112.253C20.1341 112.208 20.0311 112.163 19.9297 112.114C20.0311 112.163 20.1341 112.208 20.2373 112.253ZM130.691 112.117C130.598 112.162 130.503 112.203 130.408 112.245C130.503 112.203 130.598 112.162 130.691 112.117ZM131.145 111.887C131.055 111.935 130.965 111.981 130.874 112.026C130.965 111.981 131.055 111.935 131.145 111.887ZM19.7471 112.022C19.6581 111.978 19.569 111.934 19.4814 111.887C19.569 111.934 19.6581 111.978 19.7471 112.022ZM131.596 111.631C131.5 111.689 131.403 111.744 131.305 111.799C131.403 111.744 131.5 111.689 131.596 111.631ZM19.2959 111.783C19.2103 111.735 19.1251 111.686 19.041 111.636C19.1251 111.686 19.2103 111.735 19.2959 111.783ZM132.013 111.366C131.919 111.429 131.824 111.489 131.729 111.549C131.824 111.489 131.919 111.429 132.013 111.366ZM18.8848 111.54C18.7908 111.481 18.6975 111.422 18.6055 111.36C18.6975 111.422 18.7908 111.481 18.8848 111.54ZM18.458 111.259C18.372 111.199 18.2863 111.139 18.2021 111.077C18.2863 111.139 18.372 111.199 18.458 111.259ZM132.418 111.082C132.338 111.141 132.258 111.198 132.177 111.254C132.258 111.198 132.338 111.141 132.418 111.082ZM132.825 110.769C132.742 110.837 132.656 110.902 132.57 110.968C132.656 110.902 132.742 110.837 132.825 110.769ZM18.0439 110.957C17.9661 110.897 17.8887 110.837 17.8125 110.775C17.8887 110.837 17.9661 110.897 18.0439 110.957ZM133.201 110.446C133.123 110.516 133.043 110.586 132.963 110.653C133.043 110.586 133.123 110.516 133.201 110.446ZM17.6455 110.636C17.572 110.574 17.4985 110.511 17.4268 110.447C17.4985 110.511 17.572 110.574 17.6455 110.636ZM17.2754 110.309C17.2008 110.239 17.1273 110.169 17.0547 110.098C17.1273 110.169 17.2008 110.239 17.2754 110.309ZM133.559 110.111C133.49 110.178 133.421 110.244 133.352 110.309C133.421 110.244 133.49 110.178 133.559 110.111ZM133.913 109.748C133.845 109.821 133.777 109.893 133.707 109.964C133.777 109.893 133.845 109.821 133.913 109.748ZM16.9121 109.954C16.8454 109.886 16.7797 109.817 16.7148 109.747C16.7797 109.817 16.8454 109.886 16.9121 109.954ZM16.5771 109.597C16.5095 109.521 16.4424 109.445 16.377 109.367C16.4424 109.445 16.5095 109.521 16.5771 109.597ZM134.24 109.378C134.178 109.451 134.116 109.525 134.052 109.597C134.116 109.525 134.178 109.451 134.24 109.378ZM134.547 108.999C134.493 109.069 134.438 109.139 134.382 109.208C134.438 109.139 134.493 109.069 134.547 108.999ZM16.2393 109.2C16.1866 109.135 16.1351 109.069 16.084 109.003C16.1351 109.069 16.1866 109.135 16.2393 109.2ZM134.869 108.559C134.811 108.643 134.751 108.726 134.69 108.809C134.751 108.726 134.811 108.643 134.869 108.559ZM15.9277 108.795C15.8706 108.717 15.8148 108.638 15.7598 108.559C15.8148 108.638 15.8706 108.717 15.9277 108.795ZM135.146 108.136C135.087 108.231 135.027 108.325 134.965 108.418C135.027 108.325 135.087 108.231 135.146 108.136ZM15.6572 108.408C15.5948 108.315 15.5341 108.22 15.4746 108.124C15.5341 108.22 15.5948 108.315 15.6572 108.408ZM15.3926 107.991C15.3349 107.895 15.2793 107.798 15.2246 107.7C15.2793 107.798 15.3349 107.895 15.3926 107.991ZM135.388 107.728C135.34 107.813 135.291 107.898 135.24 107.982C135.291 107.898 135.34 107.813 135.388 107.728ZM6.74023 107.521C6.70198 107.385 6.66504 107.248 6.62988 107.11C6.66504 107.248 6.70198 107.385 6.74023 107.521ZM135.621 107.289C135.579 107.374 135.536 107.459 135.491 107.542C135.536 107.459 135.579 107.374 135.621 107.289ZM15.1367 107.54C15.0924 107.457 15.0499 107.374 15.0078 107.29C15.0499 107.374 15.0924 107.457 15.1367 107.54ZM135.848 106.809C135.807 106.901 135.766 106.993 135.723 107.084C135.766 106.993 135.807 106.901 135.848 106.809ZM14.8955 107.062C14.861 106.99 14.8287 106.916 14.7959 106.842C14.8287 106.916 14.861 106.99 14.8955 107.062ZM6.51953 106.653C6.48849 106.517 6.45963 106.38 6.43164 106.243C6.45963 106.38 6.48849 106.517 6.51953 106.653ZM136.048 106.32C136.007 106.426 135.967 106.532 135.923 106.637C135.967 106.532 136.007 106.426 136.048 106.32ZM14.6973 106.617C14.6596 106.527 14.625 106.435 14.5898 106.344C14.625 106.435 14.6596 106.527 14.6973 106.617ZM136.228 105.813C136.19 105.929 136.151 106.043 136.11 106.156C136.151 106.043 136.19 105.929 136.228 105.813ZM14.5137 106.146C14.4826 106.06 14.4546 105.973 14.4258 105.886C14.4546 105.973 14.4826 106.06 14.5137 106.146ZM136.382 105.291C136.347 105.421 136.312 105.55 136.272 105.678C136.312 105.55 136.347 105.421 136.382 105.291ZM14.3477 105.647C14.3142 105.538 14.2839 105.427 14.2539 105.316C14.2839 105.427 14.3142 105.538 14.3477 105.647ZM136.512 104.751C136.481 104.897 136.448 105.041 136.411 105.185C136.448 105.041 136.481 104.897 136.512 104.751ZM14.2129 105.17C14.1795 105.039 14.1505 104.906 14.1221 104.773C14.1505 104.906 14.1795 105.039 14.2129 105.17ZM14.0986 104.671C14.0725 104.542 14.0507 104.412 14.0293 104.282C14.0507 104.412 14.0725 104.542 14.0986 104.671ZM14.0068 104.153C13.991 104.049 13.9786 103.944 13.9658 103.839C13.9786 103.944 13.991 104.049 14.0068 104.153ZM136.669 103.78C136.655 103.905 136.641 104.029 136.622 104.152C136.641 104.029 136.655 103.905 136.669 103.78ZM13.9004 103.104C13.9073 103.239 13.9188 103.373 13.9307 103.507C13.9182 103.368 13.9064 103.228 13.8994 103.087L13.9004 103.104ZM13.9004 38.8594V38.8604V38.8594ZM6.73047 34.4766C6.75903 34.3739 6.78905 34.2718 6.81934 34.1699C6.78905 34.2718 6.75903 34.3739 6.73047 34.4766ZM134.929 23.2246H134.93H134.929ZM133.73 22.6289H133.731H133.73ZM23.0625 120.91C23.1629 120.918 23.2635 120.924 23.3643 120.93C23.2635 120.924 23.1629 120.918 23.0625 120.91ZM22.1289 120.815C21.9871 120.797 21.8458 120.778 21.7051 120.757C21.8458 120.778 21.9871 120.797 22.1289 120.815ZM22.7344 112.993C22.6008 112.971 22.4678 112.949 22.3359 112.922C22.4678 112.949 22.6008 112.971 22.7344 112.993ZM6.80078 107.729C6.78048 107.66 6.75974 107.591 6.74023 107.521C6.75974 107.591 6.78048 107.66 6.80078 107.729ZM6.59375 106.962C6.56846 106.859 6.54308 106.757 6.51953 106.653C6.54308 106.757 6.56846 106.859 6.59375 106.962ZM136.598 104.289C136.576 104.423 136.553 104.556 136.526 104.688C136.553 104.556 136.576 104.423 136.598 104.289ZM6.62988 34.8525C6.66203 34.7267 6.69574 34.6014 6.73047 34.4766C6.69574 34.6014 6.66203 34.7267 6.62988 34.8525Z" fill="#E6000D"/>
<path d="M107.099 59.307C107.059 59.2671 107.004 59.2553 106.962 59.2178C98.4701 50.7721 86.9771 46.0254 74.9928 46.0141C74.9693 46.0141 74.9505 46 74.9293 46C74.9081 46 74.8917 46 74.8705 46C62.8757 46.0058 51.3721 50.7596 42.88 59.2201C42.8423 59.2506 42.7977 59.2624 42.7624 59.2952C42.7272 59.3281 42.7201 59.3727 42.6919 59.4056C38.4846 63.6118 35.1481 68.6046 32.8729 74.0987C30.5977 79.5929 29.4283 85.4808 29.4316 91.4263C29.4316 92.049 29.6793 92.6462 30.1201 93.0864C30.561 93.5267 31.1589 93.7741 31.7823 93.7741H66.9675C67.8122 95.07 68.9671 96.1351 70.3278 96.873C71.6884 97.6109 73.2118 97.9982 74.76 98C76.3099 97.9932 77.8341 97.6038 79.1969 96.8665C80.5598 96.1292 81.719 95.0669 82.5714 93.7741H118.081C118.704 93.7741 119.302 93.5267 119.743 93.0864C120.184 92.6462 120.432 92.049 120.432 91.4263C120.438 79.4274 115.672 67.9172 107.183 59.4267C107.138 59.3985 107.138 59.3469 107.099 59.307ZM95.5801 67.4959C90.4568 63.069 84.041 60.4097 77.2847 59.9127V50.8199C86.4516 51.3433 95.1707 54.9522 102.021 61.0584L95.5801 67.4959ZM54.2902 67.4959L47.847 61.0607C54.6942 54.9494 63.415 51.339 72.5833 50.8199V59.9127C65.8263 60.4061 59.4091 63.0639 54.2855 67.4912L54.2902 67.4959ZM44.5043 64.3616L50.9569 70.8109C46.5292 75.9317 43.8702 82.3403 43.3736 89.088H34.2059C34.7352 79.9182 38.3643 71.1992 44.4996 64.3569L44.5043 64.3616ZM73.0911 93.004C71.9349 92.5564 71.0037 91.669 70.5017 90.5366C69.9998 89.4041 69.9681 88.1191 70.4136 86.9633C73.1153 82.9517 76.234 79.2365 79.7177 75.8796C80.0362 80.7034 79.8416 85.5472 79.137 90.3299C78.6871 91.4835 77.7973 92.4117 76.6629 92.9108C75.5286 93.4099 74.2423 93.4392 73.0864 92.9923L73.0911 93.004ZM84.1205 89.1021C84.5562 82.8124 84.5876 76.5012 84.2145 70.2075C84.1902 69.7562 84.036 69.3214 83.7703 68.9555C83.5046 68.5895 83.1388 68.308 82.7169 68.1446C82.2949 67.9812 81.8347 67.943 81.3915 68.0345C80.9483 68.126 80.5409 68.3433 80.2184 68.6603C78.1145 70.7545 67.5411 81.3874 66.039 85.2706C65.5684 86.4907 65.3625 87.7966 65.4348 89.1021H48.0656C48.655 82.3923 51.7371 76.1458 56.7055 71.5912C61.6738 67.0366 68.1689 64.5037 74.9128 64.4908H74.9481C81.6904 64.5054 88.1835 67.0372 93.1523 71.5888C98.1211 76.1404 101.206 82.3829 101.802 89.0903L84.1205 89.1021ZM106.49 89.1021C106 82.3494 103.342 75.9346 98.9111 70.8109L105.375 64.3546C111.514 71.1955 115.146 79.9149 115.676 89.0856L106.49 89.1021Z" fill="#E6000D"/>
<path d="M91.4258 130.956C93.0345 130.956 94.3388 132.26 94.3389 133.869C94.3389 135.476 93.0293 136.782 91.418 136.782H58.2451C56.6362 136.782 55.332 135.478 55.332 133.869C55.3321 132.26 56.6363 130.956 58.2451 130.956H91.4258ZM91.792 137.764C91.6689 137.775 91.5441 137.782 91.418 137.782C91.5441 137.782 91.6688 137.775 91.792 137.764ZM57.8447 137.763V137.762V137.763ZM91.9111 137.75C91.8761 137.754 91.841 137.759 91.8057 137.763C91.841 137.759 91.8761 137.754 91.9111 137.75ZM56.3799 137.311V137.31V137.311ZM55 136.058V136.057C55.0352 136.109 55.0718 136.16 55.1094 136.21C55.1845 136.31 55.2644 136.407 55.3486 136.5C55.2224 136.361 55.1054 136.214 55 136.058ZM92.1426 130.022C92.2056 130.034 92.2682 130.047 92.3301 130.062C92.2682 130.047 92.2056 130.034 92.1426 130.022ZM92.4824 137.634C92.4442 137.645 92.4059 137.655 92.3672 137.665C92.4059 137.655 92.4442 137.645 92.4824 137.634ZM92.8369 137.516C92.8003 137.53 92.7637 137.544 92.7266 137.558C92.7637 137.544 92.8003 137.53 92.8369 137.516ZM95.1934 132.813C95.2027 132.847 95.2122 132.88 95.2207 132.914C95.2122 132.88 95.2027 132.847 95.1934 132.813ZM95.0723 132.45C95.0863 132.486 95.1003 132.522 95.1133 132.559C95.1003 132.522 95.0863 132.486 95.0723 132.45ZM92.0186 130C92.0602 130.006 92.1014 130.015 92.1426 130.022C92.1014 130.015 92.0602 130.006 92.0186 130Z" fill="#E6000D"/>
</svg>
