<svg width="40" height="40" viewBox="0 0 40 40" fill="none" xmlns="http://www.w3.org/2000/svg">
<path d="M11.268 8.12729V2.14746H34.4399V8.12729" stroke="#E6000D" stroke-width="3" stroke-miterlimit="10" stroke-linecap="round" stroke-linejoin="round"/>
<path d="M7.53005 18.5594V10.3674C7.53005 9.12894 8.53399 8.125 9.77249 8.125H35.9343C37.1728 8.125 38.1767 9.12894 38.1767 10.3674V21.5796C38.1767 22.8181 37.1728 23.8221 35.9343 23.8221H32.9443" stroke="#E6000D" stroke-width="3" stroke-miterlimit="10" stroke-linecap="round" stroke-linejoin="round"/>
<path d="M16.538 23.4196L11.1353 29.3289L8.82986 26.8071C8.39271 26.3291 7.68393 26.3291 7.24693 26.8071C6.80978 27.2854 6.80978 28.0606 7.24693 28.5387L10.3438 31.9263C10.5623 32.1653 10.8489 32.2848 11.1353 32.2848C11.4217 32.2848 11.7083 32.1653 11.9268 31.9263L18.1207 25.1512C18.558 24.673 18.558 23.8978 18.1209 23.4197C17.6839 22.9416 16.9751 22.9414 16.538 23.4196Z" fill="#E6000D"/>
<path d="M21.0938 21.5806H32.9425V31.2978H22.4444" stroke="#E6000D" stroke-width="3" stroke-miterlimit="10" stroke-linecap="round" stroke-linejoin="round"/>
<path d="M12.6121 38.175C18.3916 38.175 23.0768 33.4898 23.0768 27.7103C23.0768 21.9308 18.3916 17.2456 12.6121 17.2456C6.83264 17.2456 2.14744 21.9308 2.14744 27.7103C2.14744 33.4898 6.83264 38.175 12.6121 38.175Z" stroke="#E6000D" stroke-width="3" stroke-miterlimit="10" stroke-linecap="round" stroke-linejoin="round"/>
</svg>
