<svg width="33" height="41" viewBox="0 0 33 41" fill="none" xmlns="http://www.w3.org/2000/svg">
<path fill-rule="evenodd" clip-rule="evenodd" d="M3.57069 24.9613C3.44868 24.282 3.66083 23.5588 4.19172 23.051C4.3434 22.9048 4.49947 22.7553 4.64456 22.6091C4.64895 22.6036 4.65445 22.5992 4.65885 22.5937C4.88527 22.3772 4.94024 22.0364 4.79295 21.7595L4.79077 21.7551C4.45113 21.1033 4.16972 20.4229 3.95319 19.7205C3.86086 19.4182 3.57949 19.2138 3.26404 19.2204C3.0475 19.2248 2.81996 19.2292 2.59903 19.2281C1.49878 19.2457 0.567783 18.4158 0.461164 17.3189V17.3123C0.380926 16.4055 0.380938 15.4932 0.453483 14.5853C0.453483 14.5809 0.453491 14.5765 0.45459 14.5732C0.561208 13.4685 1.50209 12.6332 2.61114 12.6584C2.82108 12.6628 3.0376 12.6672 3.24314 12.665C3.24973 12.665 3.25744 12.665 3.26404 12.6661C3.5773 12.6727 3.85647 12.4705 3.9488 12.1704L3.9499 12.1649C4.17083 11.4647 4.45331 10.7844 4.79735 10.1348C4.94573 9.8556 4.89077 9.51155 4.66324 9.29391C4.50716 9.14443 4.3434 8.98614 4.18732 8.82897C3.39703 8.06395 3.32559 6.8175 4.02685 5.96675L4.03014 5.96236C4.61489 5.2644 5.2601 4.61921 5.95366 4.02787C5.95696 4.02567 5.95915 4.02345 5.96245 4.02015C6.81979 3.31559 8.07505 3.39034 8.84117 4.19163C8.98735 4.34331 9.13681 4.49938 9.283 4.64447C9.2885 4.64886 9.2929 4.65436 9.2984 4.65875C9.51493 4.88518 9.85567 4.94015 10.1327 4.79286L10.1371 4.79068C10.7889 4.45104 11.4692 4.16963 12.1716 3.9531C12.4739 3.86077 12.6783 3.5794 12.6717 3.26394C12.6673 3.04741 12.6629 2.81987 12.664 2.59894C12.6464 1.49869 13.4763 0.567691 14.5733 0.461073H14.5798C15.4866 0.380834 16.399 0.380847 17.3069 0.453391C17.3113 0.453391 17.3156 0.453399 17.3189 0.454498C18.4236 0.561116 19.259 1.502 19.2337 2.61105C19.2293 2.82099 19.2249 3.0375 19.2271 3.24305C19.2271 3.24964 19.2271 3.25735 19.226 3.26394C19.2194 3.5772 19.4216 3.85637 19.7217 3.9487L19.7272 3.94981C20.4274 4.17074 21.1077 4.45322 21.7573 4.79726C22.0365 4.94564 22.3806 4.89067 22.5982 4.66315C22.7477 4.50707 22.906 4.34331 23.0632 4.18723C23.8282 3.39694 25.0746 3.3255 25.9254 4.02676L25.9298 4.03005C26.6277 4.6148 27.2729 5.26 27.8643 5.95357C27.8665 5.95687 27.8687 5.95906 27.872 5.96236C28.5765 6.8197 28.5018 8.07496 27.7005 8.84107C27.5488 8.98726 27.3927 9.13672 27.2477 9.28291C27.2433 9.28841 27.2378 9.29281 27.2334 9.29831C27.0069 9.51484 26.952 9.85558 27.0993 10.1326L27.1014 10.137C27.4411 10.7888 27.7225 11.4692 27.939 12.1715C28.0314 12.4738 28.3127 12.6782 28.6282 12.6716C28.8447 12.6672 29.0723 12.6628 29.2932 12.6639C30.3934 12.6464 31.3244 13.4762 31.431 14.5732V14.5797C31.5113 15.4866 31.5113 16.3989 31.4387 17.3068C31.4387 17.3112 31.4387 17.3156 31.4376 17.3189C31.331 18.4235 30.3901 19.2589 29.2811 19.2336C29.0711 19.2292 28.8546 19.2248 28.6491 19.227C28.6425 19.227 28.6348 19.227 28.6282 19.2259C28.3149 19.2193 28.0357 19.4215 27.9434 19.7216L27.9423 19.7271C27.7214 20.4273 27.4389 21.1076 27.0949 21.7572C26.9465 22.0364 27.0014 22.3805 27.229 22.5981C27.3851 22.7476 27.5488 22.9059 27.7049 23.0631C28.4952 23.8281 28.5666 25.0745 27.8654 25.9253L27.8621 25.9297C27.562 26.288 27.2454 26.6331 26.9146 26.9629C26.1947 26.7496 25.4164 26.7551 24.5811 26.986C24.558 26.9695 24.5349 26.9541 24.5118 26.9376C24.6921 26.9563 24.8779 26.9057 25.0284 26.7837C25.6583 26.2462 26.2441 25.6593 26.7761 25.0251C27.008 24.7426 26.9827 24.3282 26.7189 24.0754C26.7134 24.071 26.709 24.0666 26.7047 24.0611C26.5563 23.9116 26.4002 23.761 26.2507 23.6192C25.567 22.9619 25.4021 21.932 25.8462 21.0956C26.1507 20.5218 26.3991 19.9217 26.5926 19.3073C26.8684 18.407 27.706 17.7981 28.6469 17.8135C28.8634 17.8113 29.092 17.8168 29.3119 17.8212C29.6801 17.83 29.9933 17.553 30.0307 17.187C30.0967 16.3615 30.0967 15.5327 30.0241 14.7084C29.9879 14.3445 29.6779 14.0686 29.3119 14.0774C29.3053 14.0774 29.2987 14.0774 29.2921 14.0774C29.081 14.0752 28.8645 14.0808 28.6579 14.0851C27.7104 14.1038 26.8651 13.4916 26.5882 12.587C26.3969 11.966 26.1485 11.3658 25.8517 10.7954C25.4098 9.9633 25.5714 8.93999 26.2474 8.28489C26.3991 8.13101 26.564 7.97383 26.7233 7.82105C26.9893 7.56604 27.0157 7.14946 26.7838 6.86368C26.2463 6.23386 25.6594 5.64801 25.0252 5.11602C24.7427 4.8841 24.3283 4.90938 24.0755 5.17318C24.0711 5.17868 24.0667 5.18307 24.0612 5.18747C23.9117 5.33586 23.7611 5.49193 23.6193 5.64142C22.962 6.32509 21.9321 6.48998 21.0957 6.04592C20.5219 5.74145 19.9218 5.49302 19.3073 5.29957C18.4071 5.02368 17.7982 4.18614 17.8136 3.24526C17.8114 3.02873 17.8169 2.80009 17.8213 2.58026C17.8301 2.21204 17.5531 1.89879 17.1871 1.86142C16.3616 1.79547 15.5328 1.79545 14.7084 1.86799C14.3446 1.90427 14.0687 2.21424 14.0775 2.58026V2.60005C14.0753 2.81109 14.0808 3.02762 14.0852 3.23426C14.1039 4.18173 13.4917 5.02698 12.5871 5.30397C11.9661 5.49522 11.3659 5.74364 10.7955 6.04042C9.96339 6.48228 8.94008 6.32068 8.28498 5.6447C8.1311 5.49302 7.97392 5.32816 7.82114 5.16879C7.56613 4.90279 7.14955 4.87642 6.86377 5.10834C6.23395 5.64583 5.64811 6.23275 5.11611 6.86696C4.88419 7.14945 4.90947 7.56385 5.17327 7.81665C5.17877 7.82105 5.18316 7.82545 5.18756 7.83094C5.33595 7.98043 5.49202 8.13102 5.64151 8.27281C6.32518 8.93011 6.49007 9.96001 6.04601 10.7965C5.74154 11.3702 5.49312 11.9703 5.29966 12.5848C5.02378 13.485 4.18623 14.0939 3.24535 14.0785C3.02882 14.0807 2.80018 14.0753 2.58035 14.0709C2.21213 14.0621 1.89888 14.339 1.86151 14.7051C1.79556 15.5305 1.79554 16.3593 1.86808 17.1837C1.90436 17.5475 2.21433 17.8234 2.58035 17.8146H2.60014C2.81118 17.8168 3.02771 17.8113 3.23435 17.8069C4.18182 17.7882 5.02707 18.4004 5.30406 19.305C5.49531 19.9261 5.74374 20.5262 6.04051 21.0967C6.48237 21.9287 6.32078 22.952 5.64479 23.6071C5.49311 23.761 5.32826 23.9182 5.16888 24.071C5.03478 24.1996 4.96221 24.3678 4.95232 24.5403C4.44011 24.6261 3.97738 24.77 3.57069 24.9613ZM11.8627 23.3774C9.24345 21.9342 7.46722 19.1457 7.46722 15.946C7.46722 11.2669 11.267 7.46713 15.9461 7.46713C20.6252 7.46713 24.425 11.2669 24.425 15.946C24.425 19.0775 22.7246 21.8144 20.1966 23.2829V21.5891C21.9057 20.2987 23.0115 18.2509 23.0115 15.946C23.0115 12.0462 19.8459 8.88062 15.9461 8.88062C12.0463 8.88062 8.88071 12.0462 8.88071 15.946C8.88071 18.3246 10.059 20.4306 11.8627 21.7111V23.3774ZM10.8515 35.4912L10.8482 35.4869C8.773 32.8005 6.46369 30.1175 2.79141 27.7114C2.49353 27.5169 2.388 27.1321 2.54298 26.8123C2.94308 25.9879 3.91145 25.3966 5.21725 25.2152C7.34522 24.9174 10.4031 25.6812 12.5695 27.7806V16.5791C12.5695 14.6688 14.1182 13.1201 16.0286 13.1201H16.0307C17.9411 13.1201 19.4898 14.6688 19.4898 16.5791C19.4898 16.5791 19.4898 27.0596 19.4909 27.0585C21.4826 26.5529 23.1775 26.7222 24.4448 27.7686C25.8847 27.2761 27.1289 27.5377 28.1819 28.5336C29.6086 28.217 30.6528 28.5973 31.4706 29.3623C31.4728 29.3645 31.475 29.3667 31.4783 29.3689C32.029 29.9009 32.2873 30.667 32.1708 31.4123C31.9729 33.127 31.1661 37.4664 29.8702 39.4185C29.8548 39.4427 29.8373 39.4658 29.8175 39.4878C29.4185 39.9527 28.8359 40.2198 28.227 40.2198C25.8143 40.2352 17.4585 40.2352 14.7997 40.2352C14.0402 40.2352 13.3389 39.8296 12.9608 39.1701L10.8515 35.4912ZM12.0529 34.746L14.1874 38.4677C14.3128 38.6876 14.5469 38.8228 14.7997 38.8228C17.4563 38.8228 25.8067 38.8228 28.2182 38.8074H28.2226C28.4095 38.8074 28.5886 38.7304 28.7227 38.5919C29.8988 36.7717 30.5869 32.8104 30.7672 31.2474C30.7683 31.2353 30.7694 31.2243 30.7715 31.2133C30.821 30.9111 30.7199 30.6044 30.5012 30.3911C29.9395 29.8668 29.1975 29.6866 28.1676 29.9976C27.9038 30.0768 27.6181 29.9966 27.4356 29.791C26.6585 28.9183 25.7033 28.7424 24.5734 29.2337C24.3041 29.3513 23.9908 29.2898 23.7853 29.0799C22.6565 27.9235 20.9901 28.0016 19.0117 28.6765C18.7962 28.749 18.5577 28.7149 18.3719 28.5819C18.1873 28.4489 18.0774 28.2346 18.0774 28.0071V16.5791C18.0774 15.4492 17.1607 14.5325 16.0307 14.5325H16.0286C14.8986 14.5325 13.9819 15.4492 13.9819 16.5791V29.78C13.9819 30.0955 13.772 30.3736 13.4686 30.4593C13.1641 30.5461 12.8399 30.4186 12.6739 30.1493C11.1967 27.7466 8.50812 26.643 6.38675 26.5683C5.71956 26.5452 5.11062 26.6232 4.62369 26.8079C4.4863 26.8595 4.3577 26.92 4.24559 26.9881C7.70244 29.3865 9.96009 32.0223 11.999 34.6658C12.0188 34.6911 12.0364 34.7185 12.0529 34.746Z" fill="#E6000D" stroke="#E6000D" stroke-width="0.8"/>
</svg>
