<svg width="37" height="41" viewBox="0 0 37 41" fill="none" xmlns="http://www.w3.org/2000/svg">
<path d="M35.7808 21.5858H1.01922C0.67753 21.5858 0.4 21.8655 0.4 22.2115V23.9568C0.4 24.9591 1.00763 25.8044 1.94767 26.1106L5.39863 27.2442C5.48907 27.484 5.58493 27.7176 5.68466 27.9426L4.03726 31.2081C3.58734 32.0987 3.74891 33.1314 4.4493 33.8392L6.89373 36.3094C7.59413 37.0141 8.61534 37.1774 9.49663 36.725L12.7296 35.0603C12.9576 35.1626 13.188 35.2595 13.4199 35.3493L14.5386 38.8367C14.8447 39.7866 15.6819 40.3999 16.6722 40.3999H20.1278C21.1165 40.3999 21.953 39.7866 22.2591 38.8359L23.3808 35.3478C23.6104 35.2587 23.84 35.1618 24.0689 35.0587L27.3018 36.7243C28.1823 37.1766 29.2036 37.0133 29.9047 36.3079L32.3484 33.8384C33.0495 33.1299 33.2119 32.0971 32.7627 31.2073L31.1153 27.9402C31.2166 27.7098 31.3125 27.477 31.4014 27.2426L34.8485 26.1098C35.7908 25.8036 36.4 24.9575 36.4 23.9552V22.21C36.4 21.8655 36.1225 21.5858 35.7808 21.5858ZM25.3692 22.8373C25.0545 26.4434 22.0489 29.2816 18.3985 29.2816C14.7496 29.2816 11.7447 26.4434 11.4301 22.8373H25.3692ZM35.1616 23.956C35.1616 24.4044 34.8894 24.7825 34.4673 24.92L30.7335 26.1466C30.551 26.2067 30.4064 26.3481 30.3423 26.5309C30.2039 26.9207 30.0446 27.3106 29.8676 27.6887C29.7857 27.8637 29.7888 28.0676 29.8761 28.2394L31.6604 31.776C31.8613 32.1737 31.7879 32.6361 31.474 32.9541L29.0319 35.422C28.7127 35.7431 28.2651 35.8149 27.8654 35.6095L24.3657 33.8072C24.1949 33.7197 23.9939 33.7166 23.8207 33.7986C23.4419 33.9791 23.0569 34.1408 22.6774 34.2783C22.4972 34.3439 22.3565 34.49 22.297 34.6736L21.0833 38.4492C20.9442 38.8804 20.5785 39.1492 20.1293 39.1492H16.6738C16.2231 39.1492 15.8566 38.8812 15.7175 38.45L14.5053 34.6743C14.4458 34.49 14.3059 34.3439 14.125 34.2783C13.7392 34.1384 13.3534 33.9775 12.9793 33.7986C12.8958 33.7588 12.8053 33.7384 12.7149 33.7384C12.6183 33.7384 12.5216 33.7611 12.4335 33.8064L8.93462 35.6087C8.53417 35.8149 8.08657 35.743 7.76884 35.4228L5.32441 32.9541C5.01132 32.6377 4.93865 32.1752 5.14042 31.776L6.92388 28.2394C7.01124 28.066 7.01433 27.8613 6.93084 27.6856C6.76154 27.327 6.60229 26.9379 6.45772 26.5309C6.39279 26.3489 6.24822 26.2067 6.06655 26.1473L2.32879 24.92C1.90902 24.7833 1.63767 24.4052 1.63767 23.9568V22.8373H10.1878C10.5055 27.1348 14.0662 30.5323 18.3985 30.5323C22.7315 30.5323 26.2937 27.134 26.6115 22.8373H35.1616V23.956ZM1.79461 19.2164H7.13029C7.8531 19.2164 8.45686 18.6453 8.50402 17.9172C8.84958 12.6768 13.1957 8.57146 18.3985 8.57146C23.6027 8.57146 27.9489 12.6768 28.2929 17.9164C28.3408 18.6453 28.9446 19.2164 29.6689 19.2164H35.0046C35.3888 19.2164 35.7328 19.0679 35.9996 18.7867C36.2655 18.5062 36.3969 18.1531 36.3814 17.7609C36.1735 13.0783 34.2107 8.70895 30.8548 5.45752C27.4881 2.19593 23.0647 0.399902 18.3992 0.399902C13.7346 0.399902 9.31187 2.19593 5.94518 5.4583C2.58931 8.70973 0.626508 13.0791 0.418554 17.7578C0.399227 18.1445 0.529102 18.4992 0.798128 18.7875C1.06406 19.0679 1.40885 19.2164 1.79461 19.2164ZM25.8376 10.1909C23.9436 8.47693 21.5502 7.47775 19.0177 7.33791V1.66392C23.1822 1.81547 26.9624 3.49275 29.8166 6.16999L25.8376 10.1909ZM17.78 7.33791C15.249 7.47853 12.8564 8.47693 10.9624 10.1909L6.98341 6.16999C9.83755 3.49197 13.6171 1.81547 17.78 1.66392V7.33791ZM35.1059 17.9211C35.0734 17.9555 35.051 17.9648 35.0054 17.9648H29.6697C29.5947 17.9648 29.5344 17.9086 29.529 17.8336C29.3636 15.311 28.3717 12.9455 26.7135 11.0753L30.6932 7.05355C33.3031 9.89172 34.9606 13.6447 35.1453 17.8141C35.1469 17.8625 35.1376 17.8875 35.1059 17.9211ZM6.10752 7.05433L10.0873 11.076C8.42826 12.9463 7.43642 15.311 7.26944 17.8344C7.2648 17.9078 7.20373 17.9648 7.13106 17.9648H1.79461C1.74822 17.9648 1.72348 17.9539 1.69488 17.9242C1.65855 17.8852 1.65314 17.8586 1.65468 17.8172C1.84022 13.647 3.49766 9.89328 6.10752 7.05433ZM21.6252 10.8182C21.3291 10.6456 20.9503 10.7479 20.7795 11.0471L19.1885 13.8314C18.9381 13.7548 18.6729 13.7127 18.3985 13.7127C16.8972 13.7127 15.6757 14.947 15.6757 16.4641C15.6757 17.9812 16.8972 19.2156 18.3985 19.2156C19.8997 19.2156 21.1212 17.9812 21.1212 16.4641C21.1212 15.6735 20.7895 14.9611 20.2592 14.4587L21.851 11.6729C22.0226 11.3737 21.9213 10.9917 21.6252 10.8182ZM18.3992 17.9648C17.5806 17.9648 16.9149 17.2914 16.9149 16.4641C16.9149 15.6368 17.5813 14.9642 18.3992 14.9642C19.2179 14.9642 19.8843 15.6376 19.8843 16.4641C19.8835 17.2922 19.2179 17.9648 18.3992 17.9648Z" fill="#E6000D" stroke="#E6000D" stroke-width="0.8"/>
</svg>
