<svg width="44" height="44" viewBox="0 0 44 44" fill="none" xmlns="http://www.w3.org/2000/svg">
<path d="M34.382 2.91699H9.41385C7.44998 2.91699 5.56655 3.72441 4.17789 5.16162C2.78922 6.59883 2.00908 8.54811 2.00908 10.5806V33.2549C2.00908 35.2874 2.78922 37.2367 4.17789 38.6739C5.56655 40.1111 7.44998 40.9185 9.41385 40.9185H34.382C36.3459 40.9185 38.2293 40.1111 39.618 38.6739C41.0066 37.2367 41.7868 35.2874 41.7868 33.2549V10.5806C41.7868 8.54811 41.0066 6.59883 39.618 5.16162C38.2293 3.72441 36.3459 2.91699 34.382 2.91699ZM5.0689 33.2549V28.2513H14.7685C14.9017 28.2492 15.0339 28.2748 15.1574 28.3265C15.2808 28.3783 15.393 28.4552 15.4871 28.5527C15.5813 28.6501 15.6556 28.7662 15.7056 28.8939C15.7556 29.0217 15.7803 29.1586 15.7783 29.2964V37.7517H9.41385C8.26274 37.7475 7.15993 37.2724 6.34596 36.43C5.532 35.5876 5.07293 34.4462 5.0689 33.2549ZM38.727 33.2549C38.7229 34.4462 38.2639 35.5876 37.4499 36.43C36.6359 37.2724 35.5331 37.7475 34.382 37.7517H18.8381V29.2964C18.8381 28.1793 18.4094 27.108 17.6462 26.3182C16.883 25.5283 15.8479 25.0845 14.7685 25.0845H5.0689V10.5806C5.07293 9.38928 5.532 8.24791 6.34596 7.40549C7.15993 6.56307 8.26274 6.08796 9.41385 6.08379H34.382C35.5331 6.08796 36.6359 6.56307 37.4499 7.40549C38.2639 8.24791 38.7229 9.38928 38.727 10.5806V33.2549Z" fill="#E6000D"/>
<path d="M29.9903 11.2962L23.427 18.1048V15.5872C23.427 15.1673 23.2658 14.7645 22.9789 14.4676C22.692 14.1707 22.3028 14.0038 21.8971 14.0038C21.4913 14.0038 21.1022 14.1707 20.8152 14.4676C20.5283 14.7645 20.3671 15.1673 20.3671 15.5872V21.9208C20.3671 22.3408 20.5283 22.7435 20.8152 23.0405C21.1022 23.3374 21.4913 23.5042 21.8971 23.5042H28.0167C28.4225 23.5042 28.8116 23.3374 29.0985 23.0405C29.3854 22.7435 29.5466 22.3408 29.5466 21.9208C29.5466 21.5009 29.3854 21.0981 29.0985 20.8012C28.8116 20.5042 28.4225 20.3374 28.0167 20.3374H25.5841L32.1628 13.5447C32.3054 13.397 32.4186 13.2218 32.4958 13.0289C32.573 12.836 32.6127 12.6292 32.6127 12.4204C32.6127 12.2117 32.573 12.0049 32.4958 11.812C32.4186 11.6191 32.3054 11.4439 32.1628 11.2962C32.0201 11.1486 31.8508 11.0315 31.6644 10.9516C31.478 10.8717 31.2783 10.8306 31.0765 10.8306C30.8748 10.8306 30.675 10.8717 30.4887 10.9516C30.3023 11.0315 30.1329 11.1486 29.9903 11.2962Z" fill="#E6000D"/>
</svg>
