<svg width="44" height="44" viewBox="0 0 44 44" fill="none" xmlns="http://www.w3.org/2000/svg">
<path d="M4.22222 25.3334H4.55426C5.00456 27.7037 5.94424 29.9693 7.30925 31.9772C6.26581 32.8139 6.09362 34.3915 7.06948 35.3529C7.06945 35.3529 8.64713 36.9295 8.64713 36.9295C9.58285 37.87 11.2011 37.7238 12.0217 36.6902C14.0302 38.0553 16.2969 38.9949 18.6667 39.4458V39.7778C18.6667 41.0034 19.6638 42 20.8889 42H23.1111C24.4808 42.0072 25.4727 40.7802 25.3333 39.4458C27.7031 38.9949 29.9698 38.0553 31.9783 36.6902L32.2137 36.9295C33.0536 37.7704 34.5141 37.7672 35.3518 36.9306L36.9316 35.3518C37.7953 34.487 37.7954 33.0797 36.9262 32.2095L36.6908 31.9773C38.0558 29.9693 38.9954 27.7037 39.4457 25.3334H39.7778C41.0028 25.3334 42 24.3367 42 23.1112V20.8889C42 19.6633 41.0028 18.6667 39.7778 18.6667H39.4457C38.9954 16.2964 38.0558 14.0308 36.6908 12.0228C37.7342 11.1862 37.9064 9.6086 36.9305 8.64718C36.9306 8.64718 35.3529 7.07058 35.3529 7.07058C34.4157 6.13 32.7984 6.27634 31.9783 7.30988C29.9698 5.94483 27.7031 5.00515 25.3333 4.55431C25.4722 3.22369 24.4812 1.98906 23.1111 2.00007C23.1111 2.00005 20.8889 2.00005 20.8889 2.00005C19.6639 2.00005 18.6667 2.99668 18.6667 4.22227V4.55431C16.2969 5.00515 14.0302 5.94482 12.0217 7.30984L11.7863 7.07058C10.9464 6.22965 9.48482 6.2329 8.64823 7.06949L7.06837 8.64827C6.20466 9.51307 6.20466 10.9204 7.07379 11.7906L7.30925 12.0228C5.94422 14.0308 5.00456 16.2964 4.55426 18.6667H4.22222C2.99718 18.6667 2 19.6633 2 20.8889V23.1111C2 24.3367 2.99718 25.3334 4.22222 25.3334ZM4.22222 20.8889C5.11244 20.8689 6.42277 21.1328 6.60176 19.9237C6.95334 17.2664 8.00802 14.7246 9.64973 12.5746C9.98936 12.1302 9.94487 11.5025 9.54773 11.1097L8.64061 10.2194L10.2096 8.63686C10.8502 9.25713 11.5897 10.3783 12.574 9.64973C14.7246 8.00806 17.2669 6.95392 19.9242 6.60127C20.4765 6.52803 20.8889 6.05711 20.8889 5.49993V4.22226H23.1111C23.1312 5.11275 22.8672 6.4211 24.0758 6.60126C26.733 6.95393 29.2754 8.00807 31.426 9.64978C31.8676 9.98887 32.4958 9.94546 32.8897 9.54778L33.7806 8.64175L35.3637 10.2097C34.7422 10.8512 33.6219 11.5865 34.3503 12.5746C35.9919 14.7246 37.0466 17.2664 37.3982 19.9237C37.4709 20.476 37.9418 20.8889 38.4995 20.8889H39.7777V23.1111C38.8871 23.1313 37.5775 22.8671 37.3982 24.0763C37.0466 26.7336 35.9919 29.2754 34.3502 31.4255C34.0106 31.8698 34.0551 32.4975 34.4522 32.8903L35.3593 33.7806L33.7903 35.3632C33.1496 34.7427 32.4109 33.6224 31.426 34.3503C29.2754 35.992 26.7331 37.0461 24.0757 37.3988C23.5234 37.472 23.1111 37.943 23.1111 38.5001V39.7778H20.8889C20.8687 38.8878 21.1329 37.5788 19.9242 37.3988C17.2669 37.0461 14.7246 35.992 12.574 34.3503C12.1321 34.012 11.5043 34.054 11.1102 34.4523L10.2194 35.3583L8.63628 33.7904C9.25736 33.1493 10.3781 32.4133 9.64969 31.4255C8.00802 29.2754 6.95333 26.7337 6.60178 24.0763C6.52908 23.524 6.05816 23.1112 5.50044 23.1112H4.22222V20.8889Z" fill="#E6000D"/>
<path d="M22.0005 35.3334C29.3529 35.3334 35.3338 29.352 35.3338 22.0001C35.4914 20.5343 34.0708 13.2762 31.8063 14.5982C31.2843 14.92 31.1215 15.6041 31.4427 16.1266C32.5343 17.9007 33.1116 19.9319 33.1116 22.0001C32.5026 36.7379 11.4984 36.7384 10.8893 22C10.8894 15.8732 15.8742 10.889 22.0005 10.889C24.0697 10.889 26.0998 11.4657 27.8729 12.5572C28.3969 12.8784 29.0795 12.7151 29.4017 12.1937C30.712 9.92033 23.4843 8.51667 22.0005 8.66671C4.3145 9.39741 4.31479 34.6031 22.0005 35.3334Z" fill="#E6000D"/>
<path d="M19.4598 20.5618L20.8965 19.1252L20.8965 27.5514C20.9187 29.0044 23.0936 29.0179 23.1187 27.5513L23.1187 19.1252C23.7489 19.6657 24.6597 20.9704 25.3409 20.8873C26.29 20.9213 26.836 19.6504 26.1264 18.9906L22.7941 15.6582C22.486 15.3451 21.9882 15.2447 21.583 15.4175C21.4666 15.284 18.0347 18.8961 17.8886 18.9906C16.867 20.0233 18.427 21.5846 19.4598 20.5618Z" fill="#E6000D"/>
</svg>
