<svg width="41" height="39" viewBox="0 0 41 39" fill="none" xmlns="http://www.w3.org/2000/svg">
<path d="M2.24515 9.98202C1.77853 10.4384 1.03372 10.4266 0.581578 9.95556C0.129433 9.48456 0.141169 8.73275 0.607791 8.27636C11.5497 -2.42545 28.9503 -2.42545 39.8922 8.27636C40.3588 8.73275 40.3706 9.48456 39.9184 9.95556C39.4663 10.4266 38.7215 10.4384 38.2549 9.98202C28.2255 0.172693 12.2745 0.172693 2.24515 9.98202ZM7.77165 15.5609C7.31221 16.0247 6.56731 16.0247 6.10786 15.5609C5.64842 15.0972 5.64842 14.3453 6.10786 13.8815C13.9184 5.99784 26.5817 5.99784 34.3921 13.8815C34.8516 14.3453 34.8516 15.0972 34.3921 15.5609C33.9327 16.0247 33.1878 16.0247 32.7284 15.5609C25.8368 8.60471 14.6633 8.60471 7.77165 15.5609ZM13.5949 20.845C13.1354 21.3087 12.3905 21.3087 11.9311 20.845C11.4717 20.3812 11.4717 19.6294 11.9311 19.1656C16.5255 14.5281 23.9745 14.5281 28.5689 19.1656C29.0283 19.6294 29.0283 20.3812 28.5689 20.845C28.1095 21.3087 27.3646 21.3087 26.9051 20.845C23.2296 17.135 17.2704 17.135 13.5949 20.845ZM20.25 38.25C16.0266 38.25 12.6029 34.7942 12.6029 30.5313C12.6029 26.2683 16.0266 22.8125 20.25 22.8125C24.4734 22.8125 27.8971 26.2683 27.8971 30.5313C27.8971 34.7942 24.4734 38.25 20.25 38.25ZM20.25 35.875C23.1739 35.875 25.5441 33.4825 25.5441 30.5313C25.5441 27.58 23.1739 25.1875 20.25 25.1875C17.3261 25.1875 14.9559 27.58 14.9559 30.5313C14.9559 33.4825 17.3261 35.875 20.25 35.875ZM21.1828 28.5041C21.6423 28.0403 22.3872 28.0403 22.8466 28.5041C23.306 28.9678 23.306 29.7197 22.8466 30.1834L20.4937 32.5584C20.0342 33.0222 19.2893 33.0222 18.8299 32.5584L17.6534 31.3709C17.194 30.9072 17.194 30.1553 17.6534 29.6916C18.1128 29.2278 18.8577 29.2278 19.3172 29.6916L19.6618 30.0394L21.1828 28.5041Z" fill="#E6000D" stroke="#E6000D" stroke-width="0.5"/>
</svg>
