<svg width="33" height="42" viewBox="0 0 33 42" fill="none" xmlns="http://www.w3.org/2000/svg">
<path d="M10.5456 31.5617C5.13721 25.9364 1.69633 19.3633 1.00003 11.468C7.27603 9.19888 10.5434 6.96651 16.1243 1C21.6849 6.33739 26.1294 9.28006 31.2486 11.468C30.6698 18.0318 28.1941 23.6813 24.2678 28.6325" stroke="#E6000D" stroke-width="2" stroke-miterlimit="10" stroke-linecap="round" stroke-linejoin="round"/>
<path d="M12.5269 18.5335L14.9215 20.9281L19.8086 16.041" stroke="#E6000D" stroke-width="2" stroke-miterlimit="10" stroke-linecap="round" stroke-linejoin="round"/>
<path d="M20.5264 23.2047C20.5307 23.1987 20.535 23.1926 20.539 23.1865C21.943 21.9573 22.8294 20.1515 22.8294 18.1389C22.8294 14.4346 19.8265 11.4316 16.1222 11.4316C12.4179 11.4316 9.41491 14.4346 9.41491 18.1389C9.41491 21.8432 12.4179 24.8462 16.1222 24.8462C16.3146 24.8462 16.5055 24.838 16.6938 24.822C16.6938 24.822 17.1521 24.7948 17.7646 24.6686" stroke="#E6000D" stroke-width="2" stroke-miterlimit="10" stroke-linecap="round" stroke-linejoin="round"/>
<path d="M26.1376 41H30.5338V29.554H26.1376V41Z" stroke="#E6000D" stroke-width="2" stroke-miterlimit="10" stroke-linecap="round" stroke-linejoin="round"/>
<path d="M21.6836 40.9998H13.2624C12.58 40.9998 12.0269 40.4023 12.0269 39.6652C12.0269 38.9281 12.58 38.3306 13.2624 38.3306H18.3395" stroke="#E6000D" stroke-width="2" stroke-miterlimit="10" stroke-linecap="round" stroke-linejoin="round"/>
<path d="M17.3065 38.3265H12.2294C11.5471 38.3265 10.9939 37.7289 10.9939 36.9918C10.9939 36.2548 11.5471 35.6572 12.2294 35.6572H17.3065" stroke="#E6000D" stroke-width="2" stroke-miterlimit="10" stroke-linecap="round" stroke-linejoin="round"/>
<path d="M16.8551 35.6438H11.778C11.0957 35.6438 10.5425 35.0463 10.5425 34.3092C10.5425 33.5721 11.0957 32.9746 11.778 32.9746H16.8551" stroke="#E6000D" stroke-width="2" stroke-miterlimit="10" stroke-linecap="round" stroke-linejoin="round"/>
<path d="M21.6835 41.0001H26.1361V29.5541C21.8667 28.032 20.6847 24.1368 20.6287 23.4658C20.5661 22.7145 18.3355 21.7408 17.8484 24.1558C17.0946 27.8935 19.8948 30.305 19.8948 30.305H11.778C11.0957 30.305 10.5425 30.9025 10.5425 31.6396C10.5425 32.3767 11.0957 32.9742 11.778 32.9742H16.8551" stroke="#E6000D" stroke-width="2" stroke-miterlimit="10" stroke-linecap="round" stroke-linejoin="round"/>
</svg>
