<svg width="150" height="150" viewBox="0 0 150 150" fill="none" xmlns="http://www.w3.org/2000/svg">
<g clip-path="url(#clip0_1_834)">
<mask id="path-1-inside-1_1_834" fill="white">
<path d="M93.2929 4.98633C96.7236 4.98638 100.093 6.37758 102.518 8.81055L132.439 38.7334C134.872 41.1752 136.265 44.5273 136.265 47.958V83.7666C140.843 83.8335 145.017 87.7041 145.017 92.5049V101.256C145.017 105.632 142.846 109.702 139.214 112.144L95.9706 141.287C92.3561 143.729 88.1288 145.016 83.7529 145.016C81.4425 145.016 79.1849 144.656 77.0058 143.956L31.2421 129.148V131.888C31.2421 133.542 30.306 135.056 28.8271 135.8L11.3232 144.552C10.7018 144.858 10.0274 145.016 9.36224 145.016C8.55719 145.016 7.76053 144.797 7.06049 144.359C5.77407 143.563 4.9863 142.154 4.98627 140.64V61.873C4.98627 60.359 5.77411 58.9498 7.06927 58.1533C8.34704 57.3569 9.96665 57.287 11.3232 57.9609L28.8271 66.7129C30.3059 67.4569 31.2421 68.971 31.2421 70.625V75.666L39.9941 77.1016V18.1143C39.9941 10.8765 45.8842 4.98633 53.122 4.98633H93.2929ZM31.2421 119.95L79.7099 135.634C83.4467 136.841 87.77 136.264 91.0781 134.041L134.321 104.897C135.538 104.075 136.265 102.717 136.265 101.256V92.5049C136.107 92.5486 135.958 92.592 135.792 92.627L86.081 108.109C84.1119 109.291 81.836 110.008 79.3769 110.008H61.874C59.4585 110.008 57.498 108.047 57.498 105.632C57.4982 103.216 59.4586 101.256 61.874 101.256H79.3769C81.7836 101.256 83.7529 99.2954 83.7529 96.8799C83.7526 94.7271 82.2125 92.9067 80.0947 92.5654L31.2421 84.5312V119.95ZM13.7382 133.56L22.4902 129.184V73.3291L13.7382 68.9531V133.56ZM53.122 13.7383C50.7153 13.7383 48.746 15.6988 48.746 18.1143V78.5361L81.5126 83.9277C87.8838 84.9779 92.5046 90.4212 92.5048 96.8799C92.5048 96.8973 92.4961 96.9153 92.496 96.9414L127.513 86.0381V48.7451H105.633C98.395 48.7451 92.5048 42.8549 92.5048 35.6172V13.7383H53.122ZM101.257 35.6172C101.257 38.0327 103.226 39.9931 105.633 39.9932H121.325L101.257 19.9258V35.6172Z"/>
</mask>
<path d="M93.2929 4.98633C96.7236 4.98638 100.093 6.37758 102.518 8.81055L132.439 38.7334C134.872 41.1752 136.265 44.5273 136.265 47.958V83.7666C140.843 83.8335 145.017 87.7041 145.017 92.5049V101.256C145.017 105.632 142.846 109.702 139.214 112.144L95.9706 141.287C92.3561 143.729 88.1288 145.016 83.7529 145.016C81.4425 145.016 79.1849 144.656 77.0058 143.956L31.2421 129.148V131.888C31.2421 133.542 30.306 135.056 28.8271 135.8L11.3232 144.552C10.7018 144.858 10.0274 145.016 9.36224 145.016C8.55719 145.016 7.76053 144.797 7.06049 144.359C5.77407 143.563 4.9863 142.154 4.98627 140.64V61.873C4.98627 60.359 5.77411 58.9498 7.06927 58.1533C8.34704 57.3569 9.96665 57.287 11.3232 57.9609L28.8271 66.7129C30.3059 67.4569 31.2421 68.971 31.2421 70.625V75.666L39.9941 77.1016V18.1143C39.9941 10.8765 45.8842 4.98633 53.122 4.98633H93.2929ZM31.2421 119.95L79.7099 135.634C83.4467 136.841 87.77 136.264 91.0781 134.041L134.321 104.897C135.538 104.075 136.265 102.717 136.265 101.256V92.5049C136.107 92.5486 135.958 92.592 135.792 92.627L86.081 108.109C84.1119 109.291 81.836 110.008 79.3769 110.008H61.874C59.4585 110.008 57.498 108.047 57.498 105.632C57.4982 103.216 59.4586 101.256 61.874 101.256H79.3769C81.7836 101.256 83.7529 99.2954 83.7529 96.8799C83.7526 94.7271 82.2125 92.9067 80.0947 92.5654L31.2421 84.5312V119.95ZM13.7382 133.56L22.4902 129.184V73.3291L13.7382 68.9531V133.56ZM53.122 13.7383C50.7153 13.7383 48.746 15.6988 48.746 18.1143V78.5361L81.5126 83.9277C87.8838 84.9779 92.5046 90.4212 92.5048 96.8799C92.5048 96.8973 92.4961 96.9153 92.496 96.9414L127.513 86.0381V48.7451H105.633C98.395 48.7451 92.5048 42.8549 92.5048 35.6172V13.7383H53.122ZM101.257 35.6172C101.257 38.0327 103.226 39.9931 105.633 39.9932H121.325L101.257 19.9258V35.6172Z" fill="#E6000D"/>
<path d="M93.2929 4.98633L93.2929 3.3628H93.2929V4.98633ZM102.518 8.81055L101.367 9.95649L101.369 9.95854L102.518 8.81055ZM132.439 38.7334L133.589 37.5875L133.587 37.5854L132.439 38.7334ZM136.265 83.7666H134.641V85.3666L136.241 85.39L136.265 83.7666ZM139.214 112.144L138.308 110.796L138.306 110.797L139.214 112.144ZM95.9706 141.287L95.0633 139.941L95.0618 139.942L95.9706 141.287ZM83.7529 145.016L83.7528 146.639H83.7529V145.016ZM77.0058 143.956L76.506 145.501L76.5092 145.502L77.0058 143.956ZM31.2421 129.148L31.7419 127.604L29.6186 126.917V129.148H31.2421ZM28.8271 135.8L29.5532 137.252L29.5567 137.25L28.8271 135.8ZM11.3232 144.552L12.041 146.008L12.0492 146.004L11.3232 144.552ZM9.36224 145.016L9.36212 146.639H9.36224V145.016ZM7.06049 144.359L7.92096 142.983L7.91509 142.979L7.06049 144.359ZM4.98627 140.64H3.36274V140.64L4.98627 140.64ZM7.06927 58.1533L7.91972 59.5363L7.92805 59.5311L7.06927 58.1533ZM11.3232 57.9609L12.0492 56.5088L12.0455 56.5069L11.3232 57.9609ZM28.8271 66.7129L29.5567 65.2625L29.5532 65.2608L28.8271 66.7129ZM31.2421 75.666H29.6186V77.0449L30.9793 77.2681L31.2421 75.666ZM39.9941 77.1016L39.7313 78.7037L41.6176 79.0131V77.1016H39.9941ZM31.2421 119.95H29.6186V121.131L30.7423 121.495L31.2421 119.95ZM79.7099 135.634L79.2101 137.178L79.2106 137.179L79.7099 135.634ZM91.0781 134.041L91.9835 135.389L91.9854 135.387L91.0781 134.041ZM134.321 104.897L135.229 106.244L135.231 106.242L134.321 104.897ZM136.265 92.5049H137.888V90.3689L135.83 90.9406L136.265 92.5049ZM135.792 92.627L135.457 91.0383L135.382 91.0541L135.309 91.0769L135.792 92.627ZM86.081 108.109L85.5982 106.559L85.4125 106.617L85.2457 106.717L86.081 108.109ZM57.498 105.632L55.8745 105.632V105.632H57.498ZM83.7529 96.8799H85.3764V96.8797L83.7529 96.8799ZM80.0947 92.5654L79.8312 94.1674L79.8364 94.1683L80.0947 92.5654ZM31.2421 84.5312L31.5056 82.9292L29.6186 82.6189V84.5312H31.2421ZM13.7382 133.56H12.1147V136.186L14.4643 135.012L13.7382 133.56ZM22.4902 129.184L23.2162 130.636L24.1137 130.187V129.184H22.4902ZM22.4902 73.3291H24.1137V72.3257L23.2162 71.877L22.4902 73.3291ZM13.7382 68.9531L14.4643 67.501L12.1147 66.3262V68.9531H13.7382ZM48.746 78.5361H47.1225V79.9144L48.4824 80.1381L48.746 78.5361ZM81.5126 83.9277L81.7767 82.3258L81.7762 82.3257L81.5126 83.9277ZM92.5048 96.8799H94.1283V96.8798L92.5048 96.8799ZM92.496 96.9414L90.8725 96.9387L90.8688 99.1485L92.9787 98.4915L92.496 96.9414ZM127.513 86.0381L127.995 87.5882L129.136 87.233V86.0381H127.513ZM127.513 48.7451H129.136V47.1216H127.513V48.7451ZM105.633 48.7451L105.633 50.3686H105.633V48.7451ZM92.5048 13.7383H94.1283V12.1148H92.5048V13.7383ZM105.633 39.9932L105.633 41.6167H105.633V39.9932ZM121.325 39.9932V41.6167H125.245L122.473 38.8451L121.325 39.9932ZM101.257 19.9258L102.405 18.7777L99.6332 16.0064V19.9258H101.257ZM93.2929 4.98633L93.2929 6.60986C96.2943 6.6099 99.2495 7.8309 101.367 9.95649L102.518 8.81055L103.668 7.66461C100.937 4.92425 97.1528 3.36285 93.2929 3.3628L93.2929 4.98633ZM102.518 8.81055L101.369 9.95854L131.291 39.8814L132.439 38.7334L133.587 37.5854L103.666 7.66256L102.518 8.81055ZM132.439 38.7334L131.289 39.8793C133.422 42.0192 134.641 44.9602 134.641 47.958H136.265H137.888C137.888 44.0944 136.323 40.3311 133.589 37.5875L132.439 38.7334ZM136.265 47.958H134.641V83.7666H136.265H137.888V47.958H136.265ZM136.265 83.7666L136.241 85.39C139.992 85.4448 143.393 88.6508 143.393 92.5049H145.017H146.64C146.64 86.7574 141.693 82.2222 136.288 82.1432L136.265 83.7666ZM145.017 92.5049H143.393V101.256H145.017H146.64V92.5049H145.017ZM145.017 101.256H143.393C143.393 105.09 141.492 108.656 138.308 110.796L139.214 112.144L140.12 113.491C144.2 110.748 146.64 106.173 146.64 101.256H145.017ZM139.214 112.144L138.306 110.797L95.0633 139.941L95.9706 141.287L96.878 142.633L140.121 113.49L139.214 112.144ZM95.9706 141.287L95.0618 139.942C91.7177 142.201 87.8072 143.392 83.7529 143.392V145.016V146.639C88.4503 146.639 92.9946 145.257 96.8795 142.632L95.9706 141.287ZM83.7529 145.016L83.7529 143.392C81.613 143.392 79.5228 143.059 77.5024 142.41L77.0058 143.956L76.5092 145.502C78.8469 146.253 81.2721 146.639 83.7528 146.639L83.7529 145.016ZM77.0058 143.956L77.5056 142.411L31.7419 127.604L31.2421 129.148L30.7423 130.693L76.506 145.501L77.0058 143.956ZM31.2421 129.148H29.6186V131.888H31.2421H32.8657V129.148H31.2421ZM31.2421 131.888H29.6186C29.6186 132.926 29.0303 133.88 28.0975 134.349L28.8271 135.8L29.5567 137.25C31.5816 136.232 32.8657 134.157 32.8657 131.888H31.2421ZM28.8271 135.8L28.101 134.348L10.5971 143.1L11.3232 144.552L12.0492 146.004L29.5532 137.252L28.8271 135.8ZM11.3232 144.552L10.6053 143.096C10.2021 143.294 9.77275 143.392 9.36224 143.392V145.016V146.639C10.282 146.639 11.2015 146.422 12.041 146.008L11.3232 144.552ZM9.36224 145.016L9.36237 143.392C8.85219 143.392 8.35518 143.254 7.92095 142.983L7.06049 144.359L6.20002 145.736C7.16589 146.34 8.2622 146.639 9.36212 146.639L9.36224 145.016ZM7.06049 144.359L7.91509 142.979C7.10518 142.478 6.60982 141.59 6.6098 140.64L4.98627 140.64L3.36274 140.64C3.36279 142.718 4.44297 144.648 6.20588 145.74L7.06049 144.359ZM4.98627 140.64H6.6098V61.873H4.98627H3.36274V140.64H4.98627ZM4.98627 61.873H6.6098C6.6098 60.9244 7.1038 60.038 7.91971 59.5363L7.06927 58.1533L6.21884 56.7703C4.44442 57.8615 3.36274 59.7937 3.36274 61.873H4.98627ZM7.06927 58.1533L7.92805 59.5311C8.72029 59.0373 9.74102 58.9878 10.6009 59.4149L11.3232 57.9609L12.0455 56.5069C10.1923 55.5863 7.97379 55.6765 6.2105 56.7755L7.06927 58.1533ZM11.3232 57.9609L10.5971 59.4131L28.101 68.165L28.8271 66.7129L29.5532 65.2608L12.0492 56.5088L11.3232 57.9609ZM28.8271 66.7129L28.0975 68.1632C29.0303 68.6325 29.6186 69.5869 29.6186 70.625H31.2421H32.8657C32.8657 68.3552 31.5816 66.2812 29.5567 65.2626L28.8271 66.7129ZM31.2421 70.625H29.6186V75.666H31.2421H32.8657V70.625H31.2421ZM31.2421 75.666L30.9793 77.2681L39.7313 78.7037L39.9941 77.1016L40.2569 75.4994L31.5049 74.0639L31.2421 75.666ZM39.9941 77.1016H41.6176V18.1143H39.9941H38.3706V77.1016H39.9941ZM39.9941 18.1143H41.6176C41.6176 11.7731 46.7809 6.60986 53.122 6.60986V4.98633V3.3628C44.9876 3.3628 38.3706 9.97984 38.3706 18.1143H39.9941ZM53.122 4.98633V6.60986H93.2929V4.98633V3.3628H53.122V4.98633ZM31.2421 119.95L30.7423 121.495L79.2101 137.178L79.7099 135.634L80.2097 134.089L31.742 118.406L31.2421 119.95ZM79.7099 135.634L79.2106 137.179C83.4165 138.538 88.2581 137.892 91.9835 135.389L91.0781 134.041L90.1726 132.693C87.2819 134.636 83.477 135.145 80.2092 134.089L79.7099 135.634ZM91.0781 134.041L91.9854 135.387L135.229 106.244L134.321 104.897L133.414 103.551L90.1707 132.695L91.0781 134.041ZM134.321 104.897L135.231 106.242C136.889 105.121 137.888 103.263 137.888 101.256H136.265H134.641C134.641 102.172 134.187 103.028 133.412 103.553L134.321 104.897ZM136.265 101.256H137.888V92.5049H136.265H134.641V101.256H136.265ZM136.265 92.5049L135.83 90.9406C135.648 90.9911 135.56 91.0166 135.457 91.0383L135.792 92.627L136.127 94.2156C136.356 94.1673 136.566 94.1061 136.699 94.0692L136.265 92.5049ZM135.792 92.627L135.309 91.0769L85.5982 106.559L86.081 108.109L86.5638 109.659L136.275 94.177L135.792 92.627ZM86.081 108.109L85.2457 106.717C83.5029 107.763 81.5128 108.384 79.3769 108.384V110.008V111.631C82.1592 111.631 84.7209 110.819 86.9163 109.502L86.081 108.109ZM79.3769 110.008V108.384H61.874V110.008V111.631H79.3769V110.008ZM61.874 110.008V108.384C60.3551 108.384 59.1215 107.151 59.1215 105.632H57.498H55.8745C55.8745 108.944 58.5618 111.631 61.874 111.631V110.008ZM57.498 105.632L59.1215 105.632C59.1216 104.113 60.3553 102.879 61.874 102.879V101.256V99.6323C58.5618 99.6323 55.8747 102.32 55.8745 105.632L57.498 105.632ZM61.874 101.256V102.879H79.3769V101.256V99.6323H61.874V101.256ZM79.3769 101.256V102.879C82.6782 102.879 85.3764 100.194 85.3764 96.8799H83.7529H82.1293C82.1293 98.3966 80.8891 99.6323 79.3769 99.6323V101.256ZM83.7529 96.8799L85.3764 96.8797C85.3761 93.9375 83.2648 91.4318 80.353 90.9626L80.0947 92.5654L79.8364 94.1683C81.1601 94.3816 82.1292 95.5168 82.1293 96.8801L83.7529 96.8799ZM80.0947 92.5654L80.3581 90.9634L31.5056 82.9292L31.2421 84.5312L30.9787 86.1333L79.8312 94.1674L80.0947 92.5654ZM31.2421 84.5312H29.6186V119.95H31.2421H32.8657V84.5312H31.2421ZM13.7382 133.56L14.4643 135.012L23.2162 130.636L22.4902 129.184L21.7641 127.731L13.0122 132.107L13.7382 133.56ZM22.4902 129.184H24.1137V73.3291H22.4902H20.8666V129.184H22.4902ZM22.4902 73.3291L23.2162 71.877L14.4643 67.501L13.7382 68.9531L13.0122 70.4053L21.7641 74.7812L22.4902 73.3291ZM13.7382 68.9531H12.1147V133.56H13.7382H15.3617V68.9531H13.7382ZM53.122 13.7383V12.1148C49.8207 12.1148 47.1225 14.8 47.1225 18.1143H48.746H50.3696C50.3696 16.5975 51.6098 15.3618 53.122 15.3618V13.7383ZM48.746 18.1143H47.1225V78.5361H48.746H50.3696V18.1143H48.746ZM48.746 78.5361L48.4824 80.1381L81.249 85.5297L81.5126 83.9277L81.7762 82.3257L49.0096 76.9341L48.746 78.5361ZM81.5126 83.9277L81.2486 85.5296C86.8357 86.4506 90.8811 91.2161 90.8813 96.8799L92.5048 96.8799L94.1283 96.8798C94.1281 89.6264 88.9319 83.5053 81.7767 82.3258L81.5126 83.9277ZM92.5048 96.8799H90.8813C90.8813 96.8144 90.8854 96.7576 90.8903 96.7119C90.8952 96.6666 90.9013 96.6297 90.9058 96.6047C90.9102 96.5802 90.9142 96.5616 90.9155 96.5554C90.9163 96.5521 90.9168 96.5497 90.9166 96.5505C90.9166 96.5507 90.9166 96.5508 90.9165 96.5512C90.9164 96.5515 90.9163 96.552 90.9162 96.5526C90.9159 96.5537 90.9155 96.5554 90.9151 96.5575C90.9076 96.5915 90.8728 96.7432 90.8725 96.9387L92.496 96.9414L94.1196 96.9441C94.1193 97.1135 94.0889 97.2432 94.0858 97.2573C94.0856 97.2582 94.0853 97.2597 94.0859 97.2569C94.0863 97.2553 94.0873 97.2505 94.0886 97.2448C94.0909 97.2339 94.0959 97.2107 94.1011 97.1817C94.1065 97.1521 94.1132 97.1107 94.1186 97.061C94.124 97.0109 94.1283 96.9497 94.1283 96.8799H92.5048ZM92.496 96.9414L92.9787 98.4915L127.995 87.5882L127.513 86.0381L127.03 84.488L92.0134 95.3913L92.496 96.9414ZM127.513 86.0381H129.136V48.7451H127.513H125.889V86.0381H127.513ZM127.513 48.7451V47.1216H105.633V48.7451V50.3686H127.513V48.7451ZM105.633 48.7451L105.633 47.1216C99.2917 47.1216 94.1283 41.9583 94.1283 35.6172H92.5048H90.8813C90.8813 43.7516 97.4984 50.3686 105.633 50.3686L105.633 48.7451ZM92.5048 35.6172H94.1283V13.7383H92.5048H90.8813V35.6172H92.5048ZM92.5048 13.7383V12.1148H53.122V13.7383V15.3618H92.5048V13.7383ZM101.257 35.6172H99.6332C99.6332 38.9315 102.332 41.6166 105.633 41.6167L105.633 39.9932L105.633 38.3696C104.121 38.3696 102.88 37.1339 102.88 35.6172H101.257ZM105.633 39.9932V41.6167H121.325V39.9932V38.3696H105.633V39.9932ZM121.325 39.9932L122.473 38.8451L102.405 18.7777L101.257 19.9258L100.109 21.0738L120.177 41.1412L121.325 39.9932ZM101.257 19.9258H99.6332V35.6172H101.257H102.88V19.9258H101.257Z" fill="#EAEAEA" mask="url(#path-1-inside-1_1_834)"/>
</g>
<defs>
<clipPath id="clip0_1_834">
<rect width="138" height="138" fill="white" transform="translate(6 6)"/>
</clipPath>
</defs>
</svg>
