<svg width="150" height="150" viewBox="0 0 150 150" fill="none" xmlns="http://www.w3.org/2000/svg">
<g clip-path="url(#clip0_1_1025)">
<path d="M5.5914 102.424C6.54417 102.424 7.46167 102.737 8.12656 103.318C8.7717 103.882 9.23587 104.744 9.23593 105.987V126.675C9.23593 132.713 14.3816 137.757 20.3932 137.758H44.0934C45.3343 137.758 46.2027 138.222 46.773 138.871C47.3602 139.539 47.6797 140.46 47.6842 141.413C47.6886 142.366 47.378 143.282 46.7965 143.946C46.232 144.591 45.3605 145.058 44.0934 145.058H20.3932C10.3495 145.058 1.94687 136.722 1.94687 126.675V105.987C1.94693 104.744 2.41111 103.882 3.05624 103.318C3.72112 102.737 4.63863 102.424 5.5914 102.424ZM144.408 102.424C145.361 102.424 146.278 102.737 146.943 103.318C147.588 103.882 148.052 104.744 148.052 105.987V126.675C148.052 136.815 139.818 145.058 129.693 145.058H105.993C104.752 145.058 103.892 144.595 103.329 143.949C102.749 143.283 102.435 142.363 102.435 141.408C102.435 140.453 102.749 139.534 103.329 138.868C103.892 138.222 104.752 137.758 105.993 137.758H129.693C135.808 137.758 140.763 132.783 140.763 126.588V105.987C140.763 104.744 141.228 103.882 141.873 103.318C142.537 102.737 143.455 102.424 144.408 102.424ZM16.9205 83.116C17.7049 82.8166 18.6658 82.8134 19.7437 83.3972L19.7555 83.4041L74.5357 112.089L74.9996 112.331L75.4635 112.089L130.33 83.4041L130.337 83.4011C131.437 82.8149 132.415 82.8206 133.212 83.1267C134.034 83.4424 134.737 84.1072 135.177 84.948C135.617 85.7888 135.761 86.7428 135.549 87.5945C135.344 88.4202 134.788 89.2275 133.668 89.7976L133.657 89.8035L76.7223 119.609C76.1593 119.891 75.6173 120.025 74.9996 120.025C74.4596 120.025 73.8316 119.887 73.2769 119.609L16.4361 89.8064C15.3336 89.2188 14.7858 88.4015 14.5875 87.5671C14.3835 86.708 14.5335 85.7539 14.9732 84.9177C15.4133 84.081 16.1109 83.425 16.9205 83.116ZM73.2828 30.3855C74.386 29.8355 75.6121 29.8359 76.7154 30.3855L133.657 60.196C136.241 61.5606 136.24 65.3194 133.654 66.6824L76.7164 96.3162C76.1554 96.5961 75.6152 96.7292 74.9996 96.7292C74.4614 96.7292 73.8361 96.592 73.2828 96.3162L16.4312 66.5955H16.4322C13.9424 65.2834 13.8269 61.7808 16.2115 60.241L16.4498 60.0984L73.2828 30.3855ZM74.5348 37.9109L27.6549 62.5095L25.9644 63.3972L27.6568 64.281L74.5367 88.7937L74.9996 89.0359L75.4625 88.7937L122.429 64.282L124.125 63.3972L122.43 62.5095L75.4635 37.9099L74.9996 37.6667L74.5348 37.9109ZM74.9996 51.4441C81.5562 51.4441 86.8482 56.8099 86.8482 63.3953C86.8482 69.8805 81.5694 75.1726 74.9996 75.1726C68.5211 75.1725 63.2379 69.8848 63.2379 63.3953C63.2379 56.8055 68.5343 51.4442 74.9996 51.4441ZM74.9996 58.7449C73.5671 58.7449 72.4214 59.3105 71.6451 60.2019C70.8862 61.0736 70.5229 62.2047 70.5162 63.3025C70.5096 64.4004 70.8597 65.537 71.6197 66.4138C72.3975 67.3108 73.5513 67.8718 74.9996 67.8718C76.4792 67.8718 77.6599 67.3197 78.4576 66.4226C79.2388 65.5438 79.5941 64.4009 79.5807 63.2957C79.5671 62.1907 79.1849 61.0585 78.4059 60.1902C77.6108 59.3041 76.4467 58.7449 74.9996 58.7449ZM20.3062 4.94019H44.0934C45.3341 4.94019 46.1956 5.4045 46.7584 6.05054C47.3384 6.71643 47.6519 7.63583 47.6519 8.59058C47.6519 9.54532 47.3384 10.4647 46.7584 11.1306C46.1956 11.7767 45.3341 12.241 44.0934 12.241H20.3932C14.2024 12.2411 9.23593 17.2043 9.23593 23.324V44.0115C9.23593 46.0556 7.61165 47.6177 5.63535 47.6179C3.57217 47.6179 1.94687 45.969 1.94687 44.0115V23.324C1.94687 13.1837 10.1816 4.94034 20.3062 4.94019ZM105.993 4.94019H129.606C139.731 4.94019 147.965 13.1836 147.965 23.324V44.0281L147.966 44.0447C148.033 46.0445 146.448 47.6178 144.365 47.6179C142.401 47.6179 140.763 45.9811 140.763 44.0115V23.324C140.763 17.2042 135.797 12.241 129.606 12.241H105.993C104.752 12.241 103.892 11.7766 103.329 11.1306C102.749 10.4647 102.435 9.54545 102.435 8.59058C102.435 7.63569 102.749 6.71646 103.329 6.05054C103.892 5.40455 104.752 4.94019 105.993 4.94019Z" fill="#E6000D" stroke="#EAEAEA" stroke-width="2"/>
</g>
<defs>
<clipPath id="clip0_1_1025">
<rect width="144" height="138" fill="white" transform="translate(3 6)"/>
</clipPath>
</defs>
</svg>
