<svg width="138" height="137" viewBox="0 0 138 137" fill="none" xmlns="http://www.w3.org/2000/svg">
<path d="M4.92871 94.2139C6.96017 94.2139 8.60727 95.8611 8.60742 97.8926V126.214C8.60742 127.457 9.61478 128.464 10.8574 128.464H39.4639C41.4758 128.464 43.1074 130.096 43.1074 132.107C43.1073 134.119 41.4757 135.75 39.4639 135.75H5C2.92893 135.75 1.25 134.071 1.25 132V97.8926C1.25015 95.8611 2.89719 94.2139 4.92871 94.2139ZM133.071 94.2139C135.103 94.2139 136.75 95.8611 136.75 97.8926V132C136.75 134.071 135.071 135.75 133 135.75H98.5361C96.5243 135.75 94.8927 134.119 94.8926 132.107C94.8926 130.096 96.5242 128.464 98.5361 128.464H126.143C127.938 128.464 129.393 127.009 129.393 125.214V97.8926C129.393 95.8611 131.04 94.2139 133.071 94.2139ZM103.5 89.3213C105.532 89.3213 107.179 90.9684 107.179 93V113.429C107.179 114.947 105.947 116.179 104.429 116.179H33.5713C32.0526 116.179 30.8214 114.947 30.8213 113.429V93C30.8213 90.9684 32.4684 89.3213 34.5 89.3213C36.5316 89.3213 38.1787 90.9684 38.1787 93V105.643C38.1787 107.438 39.6338 108.893 41.4287 108.893H96.5713C98.3662 108.893 99.8213 107.437 99.8213 105.643V93C99.8213 90.9684 101.468 89.3213 103.5 89.3213ZM14.75 74.6426H123.25C125.262 74.6426 126.893 76.2742 126.893 78.2861C126.892 80.2978 125.262 81.9287 123.25 81.9287H14.75C12.7382 81.9287 11.1076 80.2978 11.1074 78.2861C11.1074 76.2742 12.7381 74.6426 14.75 74.6426ZM33.5713 20.8213H84.1807C84.9065 20.8214 85.6031 21.1087 86.1182 21.6201L106.366 41.7236C106.886 42.2399 107.179 42.9422 107.179 43.6748V63.5713C107.179 65.6029 105.532 67.25 103.5 67.25C101.468 67.25 99.8213 65.6029 99.8213 63.5713V52.5713H77.9287C76.4099 52.5713 75.1787 51.3401 75.1787 49.8213V31.3574C75.1787 29.5625 73.7236 28.1075 71.9287 28.1074H41.4287C39.6338 28.1074 38.1787 29.5625 38.1787 31.3574V67.25H30.8213V23.5713C30.8214 22.0526 32.0526 20.8214 33.5713 20.8213ZM82.5361 45.2861H99.5645L97.4111 43.1484L84.666 30.4961L82.5361 28.3809V45.2861ZM4 1.25H39.4639C41.4757 1.25 43.1073 2.88081 43.1074 4.89258C43.1074 6.90447 41.4758 8.53613 39.4639 8.53613H11.8574C10.0625 8.53613 8.60742 9.99121 8.60742 11.7861V39.1074C8.60727 41.1389 6.96017 42.7861 4.92871 42.7861C2.89719 42.7861 1.25015 41.1389 1.25 39.1074V4C1.25 2.48122 2.48122 1.25 4 1.25ZM98.5361 1.25H134C135.519 1.25 136.75 2.48122 136.75 4V39.1074C136.75 41.1389 135.103 42.7861 133.071 42.7861C131.04 42.7861 129.393 41.1389 129.393 39.1074V11.7861C129.393 9.99121 127.938 8.53613 126.143 8.53613H98.5361C96.5242 8.53613 94.8926 6.90447 94.8926 4.89258C94.8927 2.88081 96.5243 1.25 98.5361 1.25Z" fill="#E6000D" stroke="#EAEAEA" stroke-width="2.5"/>
</svg>
