<svg width="44" height="44" viewBox="0 0 44 44" fill="none" xmlns="http://www.w3.org/2000/svg">
<path d="M13.922 10.8813V5.08594H36.3788V10.8813" stroke="#E6000D" stroke-width="2.6" stroke-miterlimit="10" stroke-linecap="round" stroke-linejoin="round"/>
<path d="M10.3028 20.9933V13.0541C10.3028 11.8538 11.2758 10.8809 12.4761 10.8809H37.8306C39.0309 10.8809 40.0039 11.8538 40.0039 13.0541V23.9203C40.0039 25.1206 39.0309 26.0936 37.8306 26.0936H34.933" stroke="#E6000D" stroke-width="2.6" stroke-miterlimit="10" stroke-linecap="round" stroke-linejoin="round"/>
<path d="M23.4473 23.9199H34.9305V33.3373H24.7564" stroke="#E6000D" stroke-width="2.6" stroke-miterlimit="10" stroke-linecap="round" stroke-linejoin="round"/>
<path d="M15.228 40.0021C20.8292 40.0021 25.3698 35.4615 25.3698 29.8603C25.3698 24.2592 20.8292 19.7185 15.228 19.7185C9.62685 19.7185 5.0862 24.2592 5.0862 29.8603C5.0862 35.4615 9.62685 40.0021 15.228 40.0021Z" stroke="#E6000D" stroke-width="2.6" stroke-miterlimit="10" stroke-linecap="round" stroke-linejoin="round"/>
<path d="M18.2374 34.8542C18.0975 34.7505 17.848 34.5788 17.6152 34.3861C17.422 34.2259 17.303 33.9966 16.9596 34.1421C16.6349 34.2793 16.6391 34.495 16.6391 34.7642C16.637 35.7286 16.4439 35.916 15.473 35.9171C15.1942 35.9171 14.9165 35.9223 14.6378 35.9139C14.0302 35.8961 13.7661 35.6207 13.7515 34.9998C13.7484 34.8605 13.7922 34.7013 13.739 34.5861C13.6638 34.4228 13.5438 34.2312 13.3945 34.1652C13.2723 34.1118 13.0312 34.1736 12.9205 34.272C12.029 35.0689 11.8943 35.0731 11.0466 34.228C10.985 34.1662 10.9224 34.1055 10.8608 34.0448C10.0601 33.251 10.0663 33.0793 10.8149 32.2405C10.9307 32.1107 10.9975 31.8237 10.9328 31.6782C10.866 31.5284 10.6144 31.385 10.4369 31.3766C9.35437 31.32 9.23118 31.2049 9.23118 30.0959C9.23118 30.009 9.2364 29.921 9.23118 29.8341C9.14766 28.677 9.50261 28.3796 10.5006 28.4561C10.6457 28.4676 10.8796 28.2958 10.9401 28.1534C11.0007 28.0121 10.9318 27.7796 10.8493 27.6236C10.7627 27.4613 10.58 27.3534 10.462 27.2036C10.2021 26.8738 10.1906 26.5146 10.4662 26.2005C10.7762 25.8476 11.1134 25.5167 11.4632 25.2036C11.8108 24.8915 12.1887 24.9009 12.5457 25.2078C12.6647 25.3093 12.7535 25.458 12.8861 25.5292C13.0437 25.6141 13.2734 25.724 13.3986 25.6664C13.5552 25.5942 13.7254 25.3659 13.7358 25.1952C13.81 24.0224 13.9029 23.9187 15.0617 23.9187C15.1139 23.9187 15.1661 23.9187 15.2183 23.9187C16.5159 23.9187 16.5514 23.9627 16.6558 25.236C16.6683 25.3921 16.8364 25.5931 16.9836 25.6633C17.1068 25.7219 17.326 25.657 17.468 25.5816C17.6152 25.5031 17.7143 25.3387 17.8448 25.2245C18.2175 24.8999 18.5986 24.8947 18.965 25.2277C19.2615 25.4968 19.5423 25.7837 19.819 26.0727C20.2397 26.5136 20.2313 26.8979 19.8075 27.3471C19.7835 27.3722 19.7553 27.3942 19.7344 27.4215C19.5726 27.6382 19.2458 27.7471 19.416 28.1555C19.5799 28.5482 19.868 28.4477 20.1478 28.4749C20.3691 28.4969 20.6155 28.4938 20.8013 28.5943C21.3609 28.899 21.3598 30.964 20.7919 31.2415C20.5435 31.3619 20.2115 31.2949 19.9338 31.3724C19.75 31.4237 19.5266 31.5473 19.4494 31.7033C19.3868 31.83 19.4828 32.0698 19.5674 32.2279C19.6457 32.3756 19.8273 32.4656 19.9171 32.6112C20.0142 32.7672 20.105 32.9547 20.1154 33.1327C20.1426 33.6165 18.8815 34.8574 18.2405 34.8532L18.2374 34.8542ZM18.4107 34.4102C18.6226 34.2154 18.8042 34.0584 18.9754 33.8898C19.7208 33.1557 19.7448 33.1285 18.989 32.4028C18.5025 31.9358 19.0026 31.6195 19.0621 31.2363C19.1101 30.9274 19.3262 30.8719 19.5997 30.875C20.7919 30.8897 20.676 30.9818 20.6802 29.7681C20.6802 29.6812 20.6729 29.5933 20.6802 29.5064C20.7199 29.099 20.5424 28.9524 20.1342 28.9556C18.9097 28.9671 19.3158 29.0707 18.8314 28.0299C18.7729 27.9032 18.8314 27.6518 18.9264 27.5346C19.6634 26.6361 19.6707 26.6424 18.8324 25.8078C18.8074 25.7837 18.7813 25.7596 18.7593 25.7324C18.5203 25.4256 18.2718 25.414 18.0432 25.7324C17.6235 26.3167 17.1193 26.4822 16.5169 26.034C16.353 25.9125 16.1599 25.6926 16.1568 25.5146C16.1328 24.2946 16.258 24.4308 14.9938 24.4224C14.9761 24.4224 14.9594 24.4224 14.9416 24.4224C14.2641 24.4245 14.2599 24.436 14.2463 25.1366C14.2411 25.391 14.2735 25.7031 14.1451 25.8884C13.8371 26.3324 12.9633 26.3345 12.576 25.9502C11.9935 25.3722 11.9893 25.368 11.4099 25.9502C10.5612 26.8026 10.5518 26.6445 11.4047 27.4455C11.8713 27.8843 11.413 28.1995 11.3431 28.5681C11.2825 28.8823 11.0832 28.9723 10.7762 28.9681C9.5997 28.9503 9.74167 28.8707 9.73123 30.0488C9.73123 30.0833 9.73123 30.1189 9.73123 30.1535C9.73332 30.875 9.73332 30.8656 10.4589 30.8813C10.7105 30.8865 11.031 30.8624 11.198 31.0007C11.6594 31.3829 11.6375 32.1431 11.2189 32.5651C11.1573 32.6269 11.1019 32.696 11.0351 32.7505C10.7199 33.006 10.7032 33.2562 11.032 33.5159C11.127 33.5913 11.2053 33.6877 11.293 33.7725C12.0864 34.5464 11.9486 34.5704 12.67 33.7735C13.1377 33.2562 13.478 33.7149 13.8768 33.7934C14.2411 33.8657 14.2589 34.1243 14.2536 34.4259C14.238 35.4762 14.1816 35.4218 15.2423 35.4176C15.2767 35.4176 15.3122 35.4176 15.3467 35.4176C16.1401 35.4176 16.1317 35.4176 16.1463 34.6018C16.1505 34.3704 16.1432 34.0615 16.2789 33.9243C16.7654 33.4311 17.4095 33.4856 17.9231 33.9893C18.0672 34.1306 18.229 34.2552 18.4107 34.4113V34.4102Z" fill="#E6000D" stroke="#E6000D"/>
<path d="M15.1963 31.9186C14.0843 31.9062 13.1983 30.9927 13.2198 29.8812C13.2407 28.7827 14.1423 27.9071 15.24 27.9188C16.3494 27.9305 17.2374 28.8453 17.2191 29.9568C17.2009 31.0494 16.2921 31.931 15.197 31.9186H15.1963ZM16.9071 29.9288C16.9117 28.9938 16.1494 28.2309 15.2113 28.2322C14.2934 28.2329 13.5384 28.9847 13.5266 29.9099C13.5149 30.8214 14.2778 31.5987 15.1918 31.6071C16.1305 31.6163 16.9019 30.8611 16.9064 29.9288H16.9071Z" fill="#E6000D" stroke="#E6000D"/>
</svg>
