<svg width="150" height="150" viewBox="0 0 150 150" fill="none" xmlns="http://www.w3.org/2000/svg">
<path d="M75.2085 141C52.7202 140.261 34.0935 131.17 19.9843 112.982C19.569 112.479 19.2029 111.936 18.8914 111.362C18.5692 110.722 18.4782 109.988 18.6339 109.287C18.7896 108.587 19.1823 107.962 19.7449 107.521C20.3075 107.079 21.005 106.848 21.718 106.868C22.431 106.887 23.1151 107.155 23.6534 107.626C24.2963 108.272 24.8814 108.973 25.4021 109.722C36.7842 124.117 51.492 132.658 69.7335 134.198C92.7163 136.137 111.369 127.491 125.796 109.465C126.202 108.941 126.571 108.417 127.013 107.935C128.252 106.61 129.876 106.437 131.213 107.448C131.864 107.905 132.308 108.603 132.447 109.389C132.587 110.175 132.411 110.985 131.958 111.64C131.206 112.789 130.382 113.888 129.491 114.931C115.428 131.851 97.3794 140.366 75.2085 141Z" fill="#E6000D"/>
<path d="M73.6628 119.233C59.6681 118.709 46.7715 112.463 37.1173 99.8184C36.3719 98.7937 36.0441 97.5207 36.2013 96.2604C36.7218 93.8029 39.7664 93.4728 41.6087 95.5059C43.7478 97.8744 45.7307 100.426 48.1039 102.533C65.9655 118.4 93.7936 115.696 108.428 96.7687C108.746 96.3548 109.053 95.9303 109.391 95.5321C110.75 93.9601 112.431 93.7138 113.862 94.8299C115.293 95.946 115.449 97.7486 114.278 99.3783C111.132 103.728 107.278 107.513 102.881 110.571C94.975 116.12 85.0397 119.264 73.6628 119.233Z" fill="#E6000D"/>
<path d="M75.3231 97.5966C66.7878 97.2718 59.6473 93.8395 54.2972 86.8546C52.918 85.052 53.1262 83.1394 54.6875 82.0337C56.2488 80.9281 57.9194 81.3578 59.3715 83.239C62.286 86.9699 65.9811 89.527 70.5766 90.575C78.7372 92.4509 85.5914 90.0982 91.0925 83.7892C93.1743 81.3945 94.8449 80.8128 96.4635 82.1438C98.082 83.4748 97.9936 85.3612 95.943 87.7925C90.6137 94.1801 83.7282 97.3346 75.3231 97.5966Z" fill="#E6000D"/>
<path d="M108.225 9.02135C115.694 9.02135 122.845 8.98991 129.99 9.02135C138.5 9.06327 145.016 15.5033 145 23.7982C144.984 32.0932 138.494 38.4703 130.095 38.4703C93.6635 38.4948 57.2325 38.4948 20.8014 38.4703C18.8584 38.5124 16.9266 38.1641 15.1188 37.4458C13.311 36.7275 11.6635 35.6537 10.2726 34.287C8.88179 32.9203 7.77543 31.2882 7.01824 29.486C6.26105 27.6839 5.8682 25.7479 5.86267 23.7912C5.85713 21.8344 6.23902 19.8962 6.98601 18.0897C7.73299 16.2833 8.8301 14.6449 10.2132 13.2702C11.5963 11.8956 13.2377 10.8123 15.0414 10.0837C16.8451 9.35503 18.7749 8.99568 20.7181 9.02659C27.2861 8.96895 33.8593 9.02659 40.4325 9.02659H42.7953M130.126 32.2032C133.769 32.2032 136.517 30.5421 138.021 27.1518C139.457 23.9135 138.9 20.8638 136.631 18.1862C134.877 16.0902 132.535 15.3094 129.866 15.3146C116.4 15.3146 102.936 15.3146 89.4739 15.3146C66.7097 15.3146 43.9438 15.3146 21.1761 15.3146C14.9308 15.3146 10.8193 20.7328 12.6721 26.4025C13.8431 29.9919 16.9866 32.1928 21.0564 32.198C35.8821 32.198 50.7113 32.198 65.5439 32.198H75.5C93.7051 32.1945 111.914 32.1927 130.126 32.1927V32.2032Z" fill="#E6000D"/>
<path d="M100.502 64.8585H50.4927C47.5695 64.8557 44.7666 63.6867 42.6976 61.6076C40.6287 59.5284 39.4624 56.7085 39.4541 53.7653V32.3965H111.53V53.7653C111.522 56.7067 110.357 59.525 108.29 61.6039C106.224 63.6827 103.423 64.8529 100.502 64.8585ZM45.179 38.1605V53.7653C45.1804 55.1838 45.7406 56.5438 46.7368 57.5469C47.7331 58.5499 49.0838 59.114 50.4927 59.1154H100.502C101.909 59.1112 103.257 58.5459 104.251 57.5432C105.245 56.5404 105.804 55.182 105.805 53.7653V38.1605H45.179Z" fill="#E6000D"/>
</svg>
