<svg width="44" height="44" viewBox="0 0 44 44" fill="none" xmlns="http://www.w3.org/2000/svg">
<path d="M19.0766 20.5385C23.8997 20.5385 27.8459 16.5923 27.8459 11.7692C27.8459 6.94615 23.8997 3 19.0766 3C14.2535 3 10.3074 6.94615 10.3074 11.7692C10.3074 16.5923 14.2535 20.5385 19.0766 20.5385ZM19.0766 5.92308C22.292 5.92308 24.9228 8.55385 24.9228 11.7692C24.9228 14.9846 22.292 17.6154 19.0766 17.6154C15.8612 17.6154 13.2305 14.9846 13.2305 11.7692C13.2305 8.55385 15.8612 5.92308 19.0766 5.92308Z" fill="#E6000D"/>
<path d="M19.0766 22.7307C9.86894 22.7307 2.26894 30.3307 2.26894 39.5384C2.26894 40.4153 2.85355 40.9999 3.73047 40.9999C4.6074 40.9999 5.19201 40.4153 5.19201 39.5384C5.19201 31.9384 11.4766 25.6538 19.0766 25.6538C26.6766 25.6538 32.9612 31.9384 32.9612 39.5384C32.9612 40.4153 33.6225 40.5002 34.4994 40.5002C35.3763 40.5002 35.8843 40.4153 35.8843 39.5384C35.8843 30.3307 28.2843 22.7307 19.0766 22.7307Z" fill="#E6000D"/>
<circle cx="32.7312" cy="32.0007" r="7.75" fill="white" stroke="#E6000D" stroke-width="2.5"/>
<path d="M36.2397 29.234L32.0224 33.0779L30.2228 31.4375C29.8815 31.1266 29.3283 31.1266 28.9871 31.4375C28.6459 31.7487 28.6459 32.2529 28.9871 32.564L31.4046 34.7675C31.5751 34.923 31.7988 35.0007 32.0224 35.0007C32.246 35.0007 32.4696 34.923 32.6402 34.7675L37.4752 30.3604C37.8165 30.0493 37.8165 29.545 37.4753 29.2341C37.1342 28.923 36.5809 28.9229 36.2397 29.234Z" fill="#E6000D"/>
</svg>
