<svg width="44" height="44" viewBox="0 0 44 44" fill="none" xmlns="http://www.w3.org/2000/svg">
<mask id="mask0_1_740" style="mask-type:luminance" maskUnits="userSpaceOnUse" x="2" y="2" width="40" height="40">
<path d="M40.1816 40.2158V3.78418H3.75V40.2158H40.1816Z" fill="white" stroke="white" stroke-width="3.5"/>
</mask>
<g mask="url(#mask0_1_740)">
<path d="M4.91091 17.2637L3.96353 13.4742" stroke="#E6000D" stroke-width="3.5" stroke-miterlimit="22.926" stroke-linecap="round" stroke-linejoin="round"/>
<path d="M4.91251 17.2637L8.70202 15.3689" stroke="#E6000D" stroke-width="3.5" stroke-miterlimit="22.926" stroke-linecap="round" stroke-linejoin="round"/>
<path d="M4.91251 15.8993C7.39984 8.77673 14.1617 4.00038 21.7577 4.00038C29.8849 4.00038 36.9835 9.45513 39.0181 17.2637" stroke="#E6000D" stroke-width="3" stroke-miterlimit="22.926" stroke-linecap="round" stroke-linejoin="round"/>
<path d="M39.0174 26.7388L39.9647 30.5283" stroke="#E6000D" stroke-width="3.5" stroke-miterlimit="22.926" stroke-linecap="round" stroke-linejoin="round"/>
<path d="M39.0166 26.7381L35.2271 28.6328" stroke="#E6000D" stroke-width="3.5" stroke-miterlimit="22.926" stroke-linecap="round" stroke-linejoin="round"/>
<path d="M38.0707 28.102C35.6524 35.2246 29.0785 40.001 21.6935 40.001C13.792 40.001 6.89057 34.5462 4.91251 26.7377" stroke="#E6000D" stroke-width="3" stroke-miterlimit="22.926" stroke-linecap="round" stroke-linejoin="round"/>
<path d="M21.9655 29.5801C23.0091 29.5801 23.8603 28.7289 23.8603 27.6854C23.8603 26.6418 23.0091 25.7906 21.9655 25.7906C20.9219 25.7906 20.0708 26.6418 20.0708 27.6854C20.0708 28.7289 20.9219 29.5801 21.9655 29.5801Z" stroke="#E6000D" stroke-width="2" stroke-miterlimit="22.926" stroke-linecap="round" stroke-linejoin="round"/>
<path d="M17.2278 22.001C18.5714 20.7758 20.2551 20.1062 21.9925 20.1062C23.7053 20.1062 25.3666 20.7569 26.7015 21.9506" stroke="#E6000D" stroke-width="3" stroke-miterlimit="22.926" stroke-linecap="round" stroke-linejoin="round"/>
<path d="M13.4377 17.2637C15.8562 15.4259 18.8869 14.4215 22.0142 14.4215C25.0973 14.4215 28.0878 15.3977 30.4905 17.1883" stroke="#E6000D" stroke-width="3" stroke-miterlimit="22.926" stroke-linecap="round" stroke-linejoin="round"/>
</g>
</svg>
