<svg width="44" height="44" viewBox="0 0 44 44" fill="none" xmlns="http://www.w3.org/2000/svg">
<path d="M22 31.1406C27.0482 31.1406 31.1406 27.0482 31.1406 22C31.1406 16.9518 27.0482 12.8594 22 12.8594C16.9518 12.8594 12.8594 16.9518 12.8594 22C12.8594 27.0482 16.9518 31.1406 22 31.1406Z" stroke="#E6000D" stroke-width="2.3" stroke-miterlimit="10" stroke-linecap="round" stroke-linejoin="round"/>
<path d="M22 25.0469C23.6827 25.0469 25.0469 23.6827 25.0469 22C25.0469 20.3173 23.6827 18.9531 22 18.9531C20.3173 18.9531 18.9531 20.3173 18.9531 22C18.9531 23.6827 20.3173 25.0469 22 25.0469Z" stroke="#E6000D" stroke-width="2.3" stroke-miterlimit="10" stroke-linecap="round" stroke-linejoin="round"/>
<path d="M30.6179 13.3818L28.4634 15.5363" stroke="#E6000D" stroke-width="2.3" stroke-miterlimit="10" stroke-linecap="round" stroke-linejoin="round"/>
<path d="M15.5366 28.4634L13.3821 30.6178" stroke="#E6000D" stroke-width="2.3" stroke-miterlimit="10" stroke-linecap="round" stroke-linejoin="round"/>
<path d="M22 9.8125V12.8594" stroke="#E6000D" stroke-width="2.3" stroke-miterlimit="10" stroke-linecap="round" stroke-linejoin="round"/>
<path d="M27.7891 4.75879C34.8894 7.26842 39.9766 14.04 39.9766 21.9998C39.9766 29.9596 34.8894 36.7312 27.7891 39.2409H35.4062" stroke="#E6000D" stroke-width="2.3" stroke-miterlimit="10" stroke-linecap="round" stroke-linejoin="round"/>
<path d="M16.2109 39.2409C9.11058 36.7312 4.02344 29.9596 4.02344 21.9998C4.02344 14.0401 9.11058 7.26842 16.2109 4.75879H8.59375" stroke="#E6000D" stroke-width="2.3" stroke-miterlimit="10" stroke-linecap="round" stroke-linejoin="round"/>
<path d="M22 31.1406V34.1875" stroke="#E6000D" stroke-width="2.3" stroke-miterlimit="10" stroke-linecap="round" stroke-linejoin="round"/>
<path d="M13.3821 13.3818L15.5366 15.5363" stroke="#E6000D" stroke-width="2.3" stroke-miterlimit="10" stroke-linecap="round" stroke-linejoin="round"/>
<path d="M28.4634 28.4634L30.6179 30.6178" stroke="#E6000D" stroke-width="2.3" stroke-miterlimit="10" stroke-linecap="round" stroke-linejoin="round"/>
<path d="M34.1875 22H31.1406" stroke="#E6000D" stroke-width="2.3" stroke-miterlimit="10" stroke-linecap="round" stroke-linejoin="round"/>
<path d="M12.8594 22H9.8125" stroke="#E6000D" stroke-width="2.3" stroke-miterlimit="10" stroke-linecap="round" stroke-linejoin="round"/>
</svg>
