<svg width="117" height="139" viewBox="0 0 117 139" fill="none" xmlns="http://www.w3.org/2000/svg">
<path fill-rule="evenodd" clip-rule="evenodd" d="M23.9332 0.5C23.0992 0.5 22.38 1.08872 22.2095 1.91008C20.576 9.78471 14.2604 19.6794 2.08419 20.9136C1.18467 21.0044 0.5 21.7669 0.5 22.6776V77.6036C0.5 90.7256 9.69026 103.226 20.8761 113.41C37.2568 128.325 57.7315 138.322 57.7315 138.322C58.2168 138.559 58.7832 138.559 59.2685 138.322C59.2685 138.322 79.7432 128.325 96.1239 113.41C107.31 103.226 116.5 90.7256 116.5 77.6036V22.6776C116.5 21.7669 115.815 21.0044 114.916 20.9136C102.74 19.6794 96.424 9.78471 94.7905 1.91008C94.62 1.08872 93.9008 0.5 93.0668 0.5H23.9332ZM25.3243 4.04649H91.6757C93.898 12.4779 100.688 22.2669 112.978 24.2352V77.6036C112.978 89.8155 104.172 101.302 93.7621 110.78C79.6037 123.672 62.315 132.803 58.5 134.745C54.685 132.803 37.3963 123.672 23.2379 110.78C12.8276 101.302 4.02198 89.8155 4.02198 77.6036V24.2352C16.3123 22.2669 23.102 12.4779 25.3243 4.04649Z" fill="#E6000D" stroke="#E6000D"/>
<path d="M76.6152 53.8057C78.0484 52.3975 80.3808 52.3984 81.8135 53.8066H81.8145C83.1909 55.1588 83.2337 57.3174 81.9424 58.7207L81.8135 58.8545L54.6143 85.582C53.9003 86.2837 52.9614 86.6377 52.0146 86.6377C51.0679 86.6377 50.129 86.2837 49.415 85.582L35.8154 72.2178C34.3948 70.8213 34.3941 68.5661 35.8154 67.1689C37.248 65.7615 39.5813 65.7621 41.0146 67.1699L51.1387 77.1182L52.0146 77.9795L52.8906 77.1182L76.6152 53.8057Z" fill="#E6000D" stroke="#EAEAEA" stroke-width="2.5"/>
</svg>
