<svg width="150" height="150" viewBox="0 0 150 150" fill="none" xmlns="http://www.w3.org/2000/svg">
<path fill-rule="evenodd" clip-rule="evenodd" d="M40.4332 6.5C39.5992 6.5 38.88 7.08872 38.7095 7.91008C37.076 15.7847 30.7604 25.6794 18.5842 26.9136C17.6847 27.0044 17 27.7669 17 28.6776V83.6036C17 96.7256 26.1903 109.226 37.3761 119.41C53.7568 134.325 74.2315 144.322 74.2315 144.322C74.7168 144.559 75.2832 144.559 75.7685 144.322C75.7685 144.322 96.2432 134.325 112.624 119.41C123.81 109.226 133 96.7256 133 83.6036V28.6776C133 27.7669 132.315 27.0044 131.416 26.9136C119.24 25.6794 112.924 15.7847 111.291 7.91008C111.12 7.08872 110.401 6.5 109.567 6.5H40.4332ZM41.8243 10.0465H108.176C110.398 18.4779 117.188 28.2669 129.478 30.2352V83.6036C129.478 95.8155 120.672 107.302 110.262 116.78C96.1037 129.672 78.815 138.803 75 140.745C71.185 138.803 53.8963 129.672 39.7379 116.78C29.3276 107.302 20.522 95.8155 20.522 83.6036V30.2352C32.8123 28.2669 39.602 18.4779 41.8243 10.0465Z" fill="#E6000D" stroke="#E6000D"/>
<path d="M93.1152 59.8057C94.5484 58.3975 96.8808 58.3984 98.3135 59.8066H98.3145C99.6909 61.1588 99.7337 63.3174 98.4424 64.7207L98.3135 64.8545L71.1143 91.582C70.4003 92.2837 69.4614 92.6377 68.5146 92.6377C67.5679 92.6377 66.629 92.2837 65.915 91.582L52.3154 78.2178C50.8948 76.8213 50.8941 74.5661 52.3154 73.1689C53.748 71.7615 56.0813 71.7621 57.5146 73.1699L67.6387 83.1182L68.5146 83.9795L69.3906 83.1182L93.1152 59.8057Z" fill="#E6000D" stroke="#EAEAEA" stroke-width="2.5"/>
</svg>
