<svg width="150" height="150" viewBox="0 0 150 150" fill="none" xmlns="http://www.w3.org/2000/svg">
<g clip-path="url(#clip0_1_898)">
<mask id="path-1-inside-1_1_898" fill="white">
<path d="M93.2929 4.98682C96.7236 4.98687 100.093 6.37807 102.518 8.81104L132.439 38.7339C134.872 41.1757 136.265 44.5278 136.265 47.9585V83.7671C140.843 83.834 145.017 87.7046 145.017 92.5054V101.256C145.017 105.632 142.846 109.702 139.214 112.144L95.9706 141.288C92.3562 143.729 88.1288 145.016 83.7529 145.016C81.4425 145.016 79.1849 144.657 77.0058 143.957L31.2421 129.149V131.888C31.2421 133.542 30.306 135.056 28.8271 135.8L11.3232 144.552C10.7018 144.859 10.0274 145.016 9.36225 145.016C8.5572 145.016 7.76054 144.797 7.06049 144.36C5.77408 143.563 4.98631 142.154 4.98627 140.64V61.8735C4.98627 60.3595 5.77411 58.9502 7.06928 58.1538C8.34705 57.3574 9.96665 57.2875 11.3232 57.9614L28.8271 66.7134C30.3059 67.4574 31.2421 68.9715 31.2421 70.6255V75.6665L39.9941 77.1021V18.1147C39.9941 10.877 45.8842 4.98682 53.122 4.98682H93.2929ZM31.2421 119.951L79.7099 135.634C83.4467 136.842 87.77 136.264 91.0781 134.042L134.321 104.898C135.538 104.075 136.265 102.718 136.265 101.256V92.5054C136.107 92.5491 135.958 92.5924 135.792 92.6274L86.081 108.11C84.1119 109.291 81.836 110.008 79.3769 110.008H61.874C59.4585 110.008 57.498 108.048 57.498 105.632C57.4982 103.217 59.4586 101.256 61.874 101.256H79.3769C81.7836 101.256 83.7529 99.2959 83.7529 96.8804C83.7527 94.7276 82.2125 92.9072 80.0947 92.5659L31.2421 84.5317V119.951ZM13.7382 133.56L22.4902 129.184V73.3296L13.7382 68.9536V133.56ZM53.122 13.7388C50.7153 13.7388 48.746 15.6992 48.746 18.1147V78.5366L81.5126 83.9282C87.8838 84.9784 92.5046 90.4217 92.5048 96.8804C92.5048 96.8978 92.4961 96.9157 92.496 96.9419L127.513 86.0386V48.7456H105.633C98.395 48.7456 92.5048 42.8554 92.5048 35.6177V13.7388H53.122ZM101.257 35.6177C101.257 38.0332 103.226 39.9936 105.633 39.9937H121.325L101.257 19.9263V35.6177Z"/>
</mask>
<path d="M93.2929 4.98682C96.7236 4.98687 100.093 6.37807 102.518 8.81104L132.439 38.7339C134.872 41.1757 136.265 44.5278 136.265 47.9585V83.7671C140.843 83.834 145.017 87.7046 145.017 92.5054V101.256C145.017 105.632 142.846 109.702 139.214 112.144L95.9706 141.288C92.3562 143.729 88.1288 145.016 83.7529 145.016C81.4425 145.016 79.1849 144.657 77.0058 143.957L31.2421 129.149V131.888C31.2421 133.542 30.306 135.056 28.8271 135.8L11.3232 144.552C10.7018 144.859 10.0274 145.016 9.36225 145.016C8.5572 145.016 7.76054 144.797 7.06049 144.36C5.77408 143.563 4.98631 142.154 4.98627 140.64V61.8735C4.98627 60.3595 5.77411 58.9502 7.06928 58.1538C8.34705 57.3574 9.96665 57.2875 11.3232 57.9614L28.8271 66.7134C30.3059 67.4574 31.2421 68.9715 31.2421 70.6255V75.6665L39.9941 77.1021V18.1147C39.9941 10.877 45.8842 4.98682 53.122 4.98682H93.2929ZM31.2421 119.951L79.7099 135.634C83.4467 136.842 87.77 136.264 91.0781 134.042L134.321 104.898C135.538 104.075 136.265 102.718 136.265 101.256V92.5054C136.107 92.5491 135.958 92.5924 135.792 92.6274L86.081 108.11C84.1119 109.291 81.836 110.008 79.3769 110.008H61.874C59.4585 110.008 57.498 108.048 57.498 105.632C57.4982 103.217 59.4586 101.256 61.874 101.256H79.3769C81.7836 101.256 83.7529 99.2959 83.7529 96.8804C83.7527 94.7276 82.2125 92.9072 80.0947 92.5659L31.2421 84.5317V119.951ZM13.7382 133.56L22.4902 129.184V73.3296L13.7382 68.9536V133.56ZM53.122 13.7388C50.7153 13.7388 48.746 15.6992 48.746 18.1147V78.5366L81.5126 83.9282C87.8838 84.9784 92.5046 90.4217 92.5048 96.8804C92.5048 96.8978 92.4961 96.9157 92.496 96.9419L127.513 86.0386V48.7456H105.633C98.395 48.7456 92.5048 42.8554 92.5048 35.6177V13.7388H53.122ZM101.257 35.6177C101.257 38.0332 103.226 39.9936 105.633 39.9937H121.325L101.257 19.9263V35.6177Z" fill="#E6000D"/>
<path d="M93.2929 4.98682L93.2929 3.36329H93.2929V4.98682ZM102.518 8.81104L101.367 9.95698L101.369 9.95902L102.518 8.81104ZM132.439 38.7339L133.589 37.5879L133.587 37.5859L132.439 38.7339ZM136.265 83.7671H134.641V85.3671L136.241 85.3904L136.265 83.7671ZM139.214 112.144L138.308 110.797L138.306 110.798L139.214 112.144ZM95.9706 141.288L95.0633 139.941L95.0618 139.942L95.9706 141.288ZM83.7529 145.016L83.7528 146.64H83.7529V145.016ZM77.0058 143.957L76.506 145.501L76.5092 145.502L77.0058 143.957ZM31.2421 129.149L31.7419 127.604L29.6186 126.917V129.149H31.2421ZM28.8271 135.8L29.5532 137.252L29.5567 137.251L28.8271 135.8ZM11.3232 144.552L12.041 146.008L12.0492 146.004L11.3232 144.552ZM9.36225 145.016L9.36212 146.64H9.36225V145.016ZM7.06049 144.36L7.92097 142.983L7.91509 142.979L7.06049 144.36ZM4.98627 140.64H3.36274V140.64L4.98627 140.64ZM7.06928 58.1538L7.91973 59.5368L7.92805 59.5316L7.06928 58.1538ZM11.3232 57.9614L12.0493 56.5093L12.0455 56.5074L11.3232 57.9614ZM28.8271 66.7134L29.5567 65.263L29.5532 65.2612L28.8271 66.7134ZM31.2421 75.6665H29.6186V77.0454L30.9793 77.2686L31.2421 75.6665ZM39.9941 77.1021L39.7313 78.7042L41.6176 79.0136V77.1021H39.9941ZM31.2421 119.951H29.6186V121.132L30.7423 121.495L31.2421 119.951ZM79.7099 135.634L79.2101 137.179L79.2106 137.179L79.7099 135.634ZM91.0781 134.042L91.9835 135.389L91.9854 135.388L91.0781 134.042ZM134.321 104.898L135.229 106.244L135.231 106.243L134.321 104.898ZM136.265 92.5054H137.888V90.3694L135.83 90.9411L136.265 92.5054ZM135.792 92.6274L135.457 91.0388L135.382 91.0546L135.309 91.0774L135.792 92.6274ZM86.081 108.11L85.5982 106.56L85.4125 106.618L85.2457 106.718L86.081 108.11ZM57.498 105.632L55.8745 105.632V105.632H57.498ZM83.7529 96.8804H85.3764V96.8802L83.7529 96.8804ZM80.0947 92.5659L79.8312 94.1679L79.8364 94.1688L80.0947 92.5659ZM31.2421 84.5317L31.5056 82.9297L29.6186 82.6194V84.5317H31.2421ZM13.7382 133.56H12.1147V136.187L14.4643 135.012L13.7382 133.56ZM22.4902 129.184L23.2162 130.636L24.1137 130.187V129.184H22.4902ZM22.4902 73.3296H24.1137V72.3262L23.2162 71.8775L22.4902 73.3296ZM13.7382 68.9536L14.4643 67.5015L12.1147 66.3267V68.9536H13.7382ZM48.746 78.5366H47.1225V79.9148L48.4824 80.1386L48.746 78.5366ZM81.5126 83.9282L81.7767 82.3263L81.7762 82.3262L81.5126 83.9282ZM92.5048 96.8804H94.1284V96.8803L92.5048 96.8804ZM92.496 96.9419L90.8725 96.9392L90.8688 99.149L92.9787 98.492L92.496 96.9419ZM127.513 86.0386L127.995 87.5887L129.136 87.2335V86.0386H127.513ZM127.513 48.7456H129.136V47.1221H127.513V48.7456ZM105.633 48.7456L105.633 50.3691H105.633V48.7456ZM92.5048 13.7388H94.1284V12.1152H92.5048V13.7388ZM105.633 39.9937L105.633 41.6172H105.633V39.9937ZM121.325 39.9937V41.6172H125.245L122.473 38.8456L121.325 39.9937ZM101.257 19.9263L102.405 18.7782L99.6333 16.0069V19.9263H101.257ZM93.2929 4.98682L93.2929 6.61035C96.2943 6.61039 99.2495 7.83139 101.367 9.95697L102.518 8.81104L103.668 7.6651C100.937 4.92474 97.1528 3.36334 93.2929 3.36329L93.2929 4.98682ZM102.518 8.81104L101.369 9.95902L131.291 39.8819L132.439 38.7339L133.587 37.5859L103.666 7.66305L102.518 8.81104ZM132.439 38.7339L131.289 39.8798C133.422 42.0197 134.641 44.9607 134.641 47.9585H136.265H137.888C137.888 44.0948 136.323 40.3316 133.589 37.5879L132.439 38.7339ZM136.265 47.9585H134.641V83.7671H136.265H137.888V47.9585H136.265ZM136.265 83.7671L136.241 85.3904C139.992 85.4453 143.393 88.6513 143.393 92.5054H145.017H146.64C146.64 86.7579 141.693 82.2227 136.288 82.1437L136.265 83.7671ZM145.017 92.5054H143.393V101.256H145.017H146.64V92.5054H145.017ZM145.017 101.256H143.393C143.393 105.091 141.492 108.656 138.308 110.797L139.214 112.144L140.12 113.491C144.2 110.748 146.64 106.174 146.64 101.256H145.017ZM139.214 112.144L138.306 110.798L95.0633 139.941L95.9706 141.288L96.878 142.634L140.121 113.49L139.214 112.144ZM95.9706 141.288L95.0618 139.942C91.7177 142.201 87.8072 143.393 83.7529 143.393V145.016V146.64C88.4503 146.64 92.9946 145.257 96.8795 142.633L95.9706 141.288ZM83.7529 145.016L83.7529 143.393C81.613 143.393 79.5228 143.06 77.5024 142.411L77.0058 143.957L76.5092 145.502C78.8469 146.253 81.2721 146.64 83.7528 146.64L83.7529 145.016ZM77.0058 143.957L77.5056 142.412L31.7419 127.604L31.2421 129.149L30.7423 130.694L76.506 145.501L77.0058 143.957ZM31.2421 129.149H29.6186V131.888H31.2421H32.8657V129.149H31.2421ZM31.2421 131.888H29.6186C29.6186 132.926 29.0303 133.881 28.0975 134.35L28.8271 135.8L29.5567 137.251C31.5816 136.232 32.8657 134.158 32.8657 131.888H31.2421ZM28.8271 135.8L28.101 134.348L10.5971 143.1L11.3232 144.552L12.0492 146.004L29.5532 137.252L28.8271 135.8ZM11.3232 144.552L10.6053 143.096C10.2021 143.295 9.77275 143.393 9.36225 143.393V145.016V146.64C10.282 146.64 11.2015 146.422 12.041 146.008L11.3232 144.552ZM9.36225 145.016L9.36237 143.393C8.85219 143.393 8.35518 143.255 7.92096 142.983L7.06049 144.36L6.20002 145.737C7.16589 146.34 8.2622 146.64 9.36212 146.64L9.36225 145.016ZM7.06049 144.36L7.91509 142.979C7.10519 142.478 6.60982 141.59 6.6098 140.64L4.98627 140.64L3.36274 140.64C3.36279 142.718 4.44297 144.649 6.20589 145.74L7.06049 144.36ZM4.98627 140.64H6.6098V61.8735H4.98627H3.36274V140.64H4.98627ZM4.98627 61.8735H6.6098C6.6098 60.9249 7.10381 60.0385 7.91971 59.5368L7.06928 58.1538L6.21885 56.7708C4.44442 57.862 3.36274 59.7942 3.36274 61.8735H4.98627ZM7.06928 58.1538L7.92805 59.5316C8.7203 59.0378 9.74102 58.9883 10.6009 59.4154L11.3232 57.9614L12.0455 56.5074C10.1923 55.5868 7.9738 55.677 6.21051 56.776L7.06928 58.1538ZM11.3232 57.9614L10.5971 59.4136L28.101 68.1655L28.8271 66.7134L29.5532 65.2612L12.0492 56.5093L11.3232 57.9614ZM28.8271 66.7134L28.0975 68.1637C29.0303 68.633 29.6186 69.5874 29.6186 70.6255H31.2421H32.8657C32.8657 68.3557 31.5816 66.2817 29.5567 65.263L28.8271 66.7134ZM31.2421 70.6255H29.6186V75.6665H31.2421H32.8657V70.6255H31.2421ZM31.2421 75.6665L30.9793 77.2686L39.7313 78.7042L39.9941 77.1021L40.2569 75.4999L31.5049 74.0644L31.2421 75.6665ZM39.9941 77.1021H41.6176V18.1147H39.9941H38.3706V77.1021H39.9941ZM39.9941 18.1147H41.6176C41.6176 11.7736 46.7809 6.61035 53.122 6.61035V4.98682V3.36329C44.9876 3.36329 38.3706 9.98032 38.3706 18.1147H39.9941ZM53.122 4.98682V6.61035H93.2929V4.98682V3.36329H53.122V4.98682ZM31.2421 119.951L30.7423 121.495L79.2101 137.179L79.7099 135.634L80.2097 134.09L31.742 118.406L31.2421 119.951ZM79.7099 135.634L79.2106 137.179C83.4165 138.538 88.2581 137.892 91.9835 135.389L91.0781 134.042L90.1726 132.694C87.2819 134.636 83.477 135.146 80.2092 134.089L79.7099 135.634ZM91.0781 134.042L91.9854 135.388L135.229 106.244L134.321 104.898L133.414 103.552L90.1707 132.695L91.0781 134.042ZM134.321 104.898L135.231 106.243C136.889 105.122 137.888 103.263 137.888 101.256H136.265H134.641C134.641 102.173 134.187 103.029 133.412 103.553L134.321 104.898ZM136.265 101.256H137.888V92.5054H136.265H134.641V101.256H136.265ZM136.265 92.5054L135.83 90.9411C135.648 90.9916 135.56 91.0171 135.457 91.0388L135.792 92.6274L136.127 94.2161C136.356 94.1678 136.566 94.1066 136.699 94.0697L136.265 92.5054ZM135.792 92.6274L135.309 91.0774L85.5982 106.56L86.081 108.11L86.5638 109.66L136.275 94.1775L135.792 92.6274ZM86.081 108.11L85.2457 106.718C83.5029 107.763 81.5128 108.385 79.3769 108.385V110.008V111.632C82.1593 111.632 84.7209 110.819 86.9163 109.502L86.081 108.11ZM79.3769 110.008V108.385H61.874V110.008V111.632H79.3769V110.008ZM61.874 110.008V108.385C60.3551 108.385 59.1215 107.151 59.1215 105.632H57.498H55.8745C55.8745 108.944 58.5618 111.632 61.874 111.632V110.008ZM57.498 105.632L59.1215 105.632C59.1216 104.114 60.3554 102.88 61.874 102.88V101.256V99.6328C58.5618 99.6328 55.8747 102.32 55.8745 105.632L57.498 105.632ZM61.874 101.256V102.88H79.3769V101.256V99.6328H61.874V101.256ZM79.3769 101.256V102.88C82.6782 102.88 85.3764 100.195 85.3764 96.8804H83.7529H82.1293C82.1293 98.3971 80.8891 99.6328 79.3769 99.6328V101.256ZM83.7529 96.8804L85.3764 96.8802C85.3761 93.938 83.2648 91.4323 80.353 90.9631L80.0947 92.5659L79.8364 94.1688C81.1601 94.3821 82.1292 95.5173 82.1293 96.8805L83.7529 96.8804ZM80.0947 92.5659L80.3581 90.9639L31.5056 82.9297L31.2421 84.5317L30.9787 86.1338L79.8312 94.1679L80.0947 92.5659ZM31.2421 84.5317H29.6186V119.951H31.2421H32.8657V84.5317H31.2421ZM13.7382 133.56L14.4643 135.012L23.2162 130.636L22.4902 129.184L21.7641 127.732L13.0122 132.108L13.7382 133.56ZM22.4902 129.184H24.1137V73.3296H22.4902H20.8666V129.184H22.4902ZM22.4902 73.3296L23.2162 71.8775L14.4643 67.5015L13.7382 68.9536L13.0122 70.4057L21.7641 74.7817L22.4902 73.3296ZM13.7382 68.9536H12.1147V133.56H13.7382H15.3618V68.9536H13.7382ZM53.122 13.7388V12.1152C49.8207 12.1152 47.1225 14.8005 47.1225 18.1147H48.746H50.3696C50.3696 16.598 51.6098 15.3623 53.122 15.3623V13.7388ZM48.746 18.1147H47.1225V78.5366H48.746H50.3696V18.1147H48.746ZM48.746 78.5366L48.4824 80.1386L81.249 85.5302L81.5126 83.9282L81.7762 82.3262L49.0096 76.9346L48.746 78.5366ZM81.5126 83.9282L81.2486 85.5301C86.8357 86.4511 90.8811 91.2166 90.8813 96.8804L92.5048 96.8804L94.1284 96.8803C94.1281 89.6269 88.9319 83.5057 81.7767 82.3263L81.5126 83.9282ZM92.5048 96.8804H90.8813C90.8813 96.8149 90.8854 96.7581 90.8903 96.7124C90.8952 96.6671 90.9013 96.6302 90.9058 96.6052C90.9102 96.5807 90.9142 96.5621 90.9155 96.5559C90.9163 96.5526 90.9168 96.5502 90.9166 96.551C90.9166 96.5511 90.9166 96.5513 90.9165 96.5517C90.9164 96.552 90.9163 96.5525 90.9162 96.553C90.9159 96.5542 90.9155 96.5559 90.9151 96.558C90.9076 96.592 90.8728 96.7436 90.8725 96.9392L92.496 96.9419L94.1196 96.9446C94.1193 97.114 94.0889 97.2436 94.0858 97.2578C94.0856 97.2587 94.0853 97.2602 94.0859 97.2574C94.0863 97.2558 94.0873 97.251 94.0886 97.2453C94.0909 97.2344 94.0959 97.2112 94.1011 97.1822C94.1065 97.1526 94.1132 97.1112 94.1186 97.0615C94.124 97.0114 94.1284 96.9502 94.1284 96.8804H92.5048ZM92.496 96.9419L92.9787 98.492L127.995 87.5887L127.513 86.0386L127.03 84.4884L92.0134 95.3918L92.496 96.9419ZM127.513 86.0386H129.136V48.7456H127.513H125.889V86.0386H127.513ZM127.513 48.7456V47.1221H105.633V48.7456V50.3691H127.513V48.7456ZM105.633 48.7456L105.633 47.1221C99.2917 47.122 94.1284 41.9588 94.1284 35.6177H92.5048H90.8813C90.8813 43.7521 97.4984 50.3691 105.633 50.3691L105.633 48.7456ZM92.5048 35.6177H94.1284V13.7388H92.5048H90.8813V35.6177H92.5048ZM92.5048 13.7388V12.1152H53.122V13.7388V15.3623H92.5048V13.7388ZM101.257 35.6177H99.6333C99.6333 38.9319 102.332 41.6171 105.633 41.6172L105.633 39.9937L105.633 38.3701C104.121 38.3701 102.88 37.1344 102.88 35.6177H101.257ZM105.633 39.9937V41.6172H121.325V39.9937V38.3701H105.633V39.9937ZM121.325 39.9937L122.473 38.8456L102.405 18.7782L101.257 19.9263L100.109 21.0743L120.177 41.1417L121.325 39.9937ZM101.257 19.9263H99.6333V35.6177H101.257H102.88V19.9263H101.257Z" fill="#EAEAEA" mask="url(#path-1-inside-1_1_898)"/>
</g>
<defs>
<clipPath id="clip0_1_898">
<rect width="138" height="138" fill="white" transform="translate(6 6.00049)"/>
</clipPath>
</defs>
</svg>
