<svg width="40" height="38" viewBox="0 0 40 38" fill="none" xmlns="http://www.w3.org/2000/svg">
<g clip-path="url(#clip0_32_9)">
<path d="M28.082 27.9056C28.0432 27.9738 28.0101 28.0452 27.9829 28.119C27.6954 30.8514 27.6954 32.8514 24.9102 32.8514C19.9573 32.8514 15.0044 32.8514 10.0515 32.8514C8.55589 32.8514 8.07225 32.3654 8.07031 30.8579C8.07031 27.5649 8.07031 24.272 8.07031 20.979V19.7936H2.55026C2.0977 19.7936 1.64514 19.7936 1.19064 19.7936C0.607944 19.8074 0.00582729 19.7936 -0.0077689 19.0131C-0.0213651 18.2327 0.561329 18.1873 1.15762 18.1912C3.09993 18.2011 5.04225 18.1912 6.98456 18.1912H8.06448C8.06448 17.1342 8.06448 16.1562 8.06448 15.1782C8.06448 13.4652 8.047 11.7542 8.06448 10.0412C8.07808 8.91893 8.64718 8.34793 9.74264 8.31632C10.4516 8.29656 12.1605 8.31632 13.0404 8.31632C13.0404 7.88758 13.0268 7.51021 13.0404 7.13086C13.089 5.98491 13.6852 5.35266 14.806 5.35266C18.9819 5.33817 22.1573 5.33817 26.3319 5.35266C26.6759 5.3604 27.0066 5.48883 27.2681 5.7162C28.6957 7.09924 30.1078 8.50994 31.4694 9.96411C31.7433 10.3148 31.8931 10.7491 31.8947 11.197C31.9375 13.1392 31.9122 15.0833 31.9122 17.0255V18.1794H38.2228C38.5141 18.1794 38.856 18.0826 39.0852 18.205C39.427 18.3888 39.6912 18.7247 39.9864 18.9954C39.6815 19.2562 39.3823 19.7303 39.0657 19.7422C37.1234 19.8133 35.1811 19.7778 33.2388 19.7778H31.9724C31.9491 20.1729 31.9103 20.5187 31.9103 20.8664C31.9103 23.2373 31.9103 23.6083 31.9103 25.9792C31.9103 27.3622 31.3858 27.8641 30.0262 27.8858C29.3542 27.9135 28.6899 27.9056 28.082 27.9056ZM14.6797 6.98662V18.1319H30.3564C30.3564 16.0712 30.3758 14.0717 30.3273 12.0723C30.3273 11.8747 29.9 11.5586 29.6552 11.5408C28.7498 11.4843 27.8421 11.4784 26.936 11.523C26.0892 11.5566 25.7803 11.1575 25.8017 10.3375C25.8308 9.23307 25.8017 8.12862 25.8017 6.99057L14.6797 6.98662ZM14.6797 26.24H30.302V19.8627H14.67L14.6797 26.24ZM9.70185 19.8331V31.1878H25.2834C25.5767 30.1387 26.196 27.87 25.2423 27.8819C21.4898 27.9293 18.7372 27.9075 14.9769 27.8977C13.5881 27.8977 13.0521 27.3405 13.0346 25.9219C13.0229 24.3413 13.0346 24.7607 13.0346 23.18C13.0346 22.0736 13.0346 20.9692 13.0346 19.8311L9.70185 19.8331ZM9.70185 9.95423V18.1418H12.9705V9.95028L9.70185 9.95423ZM29.1871 9.88705L27.4488 8.22148V9.88705H29.1871Z" fill="#E6000D" stroke="#E6000D"/>
<path d="M9.01816 38.0003C7.89356 37.9292 6.75342 37.943 5.64436 37.7632C3.94678 37.4866 3.28639 36.5955 3.28445 34.845C3.28445 33.7287 3.28445 32.6104 3.28445 31.4862C3.28445 30.8934 3.44761 30.4153 4.13519 30.4331C4.78975 30.4509 4.87326 30.931 4.86744 31.4743C4.85578 32.5926 4.90822 33.7109 4.84996 34.8331C4.80917 35.6649 5.18403 36.1194 5.92211 36.1727C7.33612 36.2754 8.75401 36.2913 10.1719 36.3308C10.7546 36.3466 11.3528 36.2478 11.9083 36.3703C12.2288 36.4394 12.4755 36.8464 12.7552 37.1013C12.4813 37.374 12.2269 37.8501 11.9277 37.8817C10.9702 37.9825 9.98543 37.9193 9.01428 37.9193L9.01816 38.0003Z" fill="#E6000D" stroke="#E6000D"/>
<path d="M9.12499 1.61272C8.09556 1.66804 7.06419 1.69175 6.03865 1.79054C5.21511 1.86957 4.79363 2.31016 4.84996 3.2368C4.91599 4.34915 4.84996 5.46942 4.86744 6.59561C4.86744 7.16265 4.67321 7.66845 4.06915 7.52817C3.88181 7.45111 3.71607 7.3282 3.58663 7.17034C3.4572 7.01249 3.36808 6.82457 3.32718 6.62327C3.24366 5.24023 3.25726 3.85719 3.30582 2.486C3.34272 1.38155 4.13518 0.407495 5.44236 0.288949C7.62164 0.0913716 9.82228 0.109154 12.0152 0.122985C12.2638 0.122985 12.5085 0.674224 12.7552 0.968614C12.4871 1.1978 12.2327 1.60086 11.9472 1.62654C11.0168 1.7115 10.0748 1.65816 9.13858 1.65816L9.12499 1.61272Z" fill="#E6000D" stroke="#E6000D"/>
<path d="M30.6497 0C31.8151 0.0711277 32.9805 0.0592736 34.1206 0.235117C35.7696 0.48604 36.465 1.39292 36.4708 3.06047C36.4708 4.21037 36.4708 5.36026 36.4708 6.51016C36.4708 7.08709 36.3251 7.58893 35.6181 7.56127C34.9442 7.53559 34.9034 7.02584 34.9053 6.50226C34.9053 5.41954 34.8568 4.32891 34.9189 3.25014C34.9733 2.33338 34.5635 1.85327 33.736 1.79597C32.3861 1.70311 31.0323 1.69521 29.6785 1.66162C29.0959 1.64582 28.4957 1.74856 27.9421 1.62211C27.5925 1.5411 27.3148 1.13607 27.004 0.877243C27.3148 0.608538 27.6022 0.150156 27.9402 0.108665C28.8317 -2.41418e-06 29.7446 0.0711249 30.6594 0.0711249L30.6497 0Z" fill="#E6000D" stroke="#E6000D"/>
<path d="M30.6672 37.9288C29.8592 37.9288 29.0531 37.9288 28.2451 37.9288C27.6624 37.9288 27.0467 37.8695 27.0253 37.1384C27.002 36.3758 27.608 36.3343 28.2024 36.3383C29.7213 36.3488 31.2402 36.3488 32.7591 36.3383C34.5615 36.3205 34.8956 35.9668 34.8956 34.1807C34.8956 33.2284 34.8956 32.2741 34.8956 31.3218C34.8956 30.7725 35.1209 30.3457 35.6725 30.4742C35.9775 30.5453 36.4028 30.98 36.4164 31.2645C36.4941 32.7413 36.4941 34.2213 36.4164 35.6981C36.3562 36.7512 35.4453 37.5731 34.1323 37.7608C32.9863 37.9268 31.819 37.9268 30.6594 37.9999L30.6672 37.9288Z" fill="#E6000D" stroke="#E6000D"/>
</g>
<defs>
<clipPath id="clip0_32_9">
<rect width="40" height="38" fill="white"/>
</clipPath>
</defs>
</svg>
