<svg width="138" height="138" viewBox="0 0 138 138" fill="none" xmlns="http://www.w3.org/2000/svg">
<g clip-path="url(#clip0_1_936)">
<path d="M6.47494 50.3875L3.00122 36.4926" stroke="#E6000D" stroke-width="5" stroke-miterlimit="22.926" stroke-linecap="round" stroke-linejoin="round"/>
<path d="M6.47375 50.3875L20.3686 43.4401" stroke="#E6000D" stroke-width="5" stroke-miterlimit="22.926" stroke-linecap="round" stroke-linejoin="round"/>
<path d="M7.46271 46.6298C16.5829 20.5135 41.3766 3.00024 69.2284 3.00024C99.0282 3.00024 125.056 23.001 132.517 51.6323" stroke="#E6000D" stroke-width="5" stroke-miterlimit="22.926" stroke-linecap="round" stroke-linejoin="round"/>
<path d="M131.175 87.7205L134.648 101.615" stroke="#E6000D" stroke-width="5" stroke-miterlimit="22.926" stroke-linecap="round" stroke-linejoin="round"/>
<path d="M131.167 87.7178L117.272 94.6653" stroke="#E6000D" stroke-width="5" stroke-miterlimit="22.926" stroke-linecap="round" stroke-linejoin="round"/>
<path d="M129.043 91.3717C120.176 117.488 96.0714 135.001 68.993 135.001C40.0209 135.001 14.7157 115 7.46277 86.3692" stroke="#E6000D" stroke-width="5" stroke-miterlimit="22.926" stroke-linecap="round" stroke-linejoin="round"/>
<path d="M69.9888 96.7883C73.8153 96.7883 76.9362 93.6672 76.9362 89.841C76.9362 86.0145 73.8153 82.8934 69.9888 82.8934C66.1622 82.8934 63.0413 86.0145 63.0413 89.841C63.0413 93.6672 66.1622 96.7883 69.9888 96.7883Z" stroke="#E6000D" stroke-width="5" stroke-miterlimit="22.926" stroke-linecap="round" stroke-linejoin="round"/>
<path d="M52.6218 68.998C57.5483 64.5055 63.722 62.0505 70.0924 62.0505C76.3726 62.0505 82.4642 64.4363 87.359 68.8132" stroke="#E6000D" stroke-width="5" stroke-miterlimit="22.926" stroke-linecap="round" stroke-linejoin="round"/>
<path d="M38.7216 51.6323C47.5894 44.8937 58.7018 41.2111 70.1686 41.2111C81.4733 41.2111 92.4386 44.7902 101.248 51.3558" stroke="#E6000D" stroke-width="5" stroke-miterlimit="22.926" stroke-linecap="round" stroke-linejoin="round"/>
</g>
<defs>
<clipPath id="clip0_1_936">
<rect width="138" height="138" fill="white"/>
</clipPath>
</defs>
</svg>
