<svg width="138" height="138" viewBox="0 0 138 138" fill="none" xmlns="http://www.w3.org/2000/svg">
<g clip-path="url(#clip0_1_100)">
<path d="M33.4082 -0.80957H104.468C123.369 -0.809409 138.747 14.569 138.747 33.4707V104.53C138.747 123.432 123.369 138.809 104.468 138.81H33.4082C14.5065 138.81 -0.871909 123.432 -0.87207 104.53V33.4707C-0.87207 14.5689 14.5064 -0.80957 33.4082 -0.80957ZM33.4082 6.8418C18.7242 6.8418 6.7793 18.7867 6.7793 33.4707V104.53C6.77946 119.214 18.7243 131.158 33.4082 131.158H104.468C119.152 131.158 131.096 119.214 131.096 104.53V33.4707C131.096 18.7868 119.152 6.84196 104.468 6.8418H33.4082Z" fill="#E6000D" stroke="#EAEAEA" stroke-width="2.5"/>
<path d="M65.4941 20.9478C67.2627 19.1315 70.6148 19.1223 72.3974 20.9526L72.4003 20.9556L91.9775 40.9429C93.4542 42.4502 93.4295 44.8758 91.9199 46.3511L91.9189 46.353C91.1721 47.0843 90.206 47.4467 89.2411 47.4468C88.2484 47.4468 87.2588 47.0647 86.5087 46.2993L74.9072 34.4536L72.7636 32.2651V60.0981H94.3163C102.021 60.0981 108.294 66.3708 108.294 74.0757V91.4868H109.325C114.646 93.4714 118.455 98.5481 118.455 104.53C118.455 112.235 112.183 118.507 104.478 118.507C96.7736 118.507 90.5009 112.235 90.5009 104.53C90.5009 98.4764 94.4017 93.3475 99.8222 91.4146L100.652 91.1177V74.0757C100.652 70.5887 97.814 67.7497 94.3271 67.7495H43.5703C40.0832 67.7495 37.2441 70.5886 37.2441 74.0757V91.1177L38.0742 91.4146C43.4947 93.3475 47.3954 98.4763 47.3954 104.53C47.3954 112.234 41.1235 118.507 33.4189 118.507C25.714 118.507 19.4413 112.235 19.4413 104.53C19.4414 98.4764 23.3421 93.3475 28.7626 91.4146L29.5927 91.1177V74.0757C29.5927 66.3708 35.8654 60.0981 43.5703 60.0981H65.123V32.2651L62.9794 34.4536L51.3769 46.3003L51.374 46.3022C49.8988 47.8153 47.4848 47.8441 45.9677 46.3579L45.9658 46.3569L45.829 46.2153C44.4557 44.73 44.4747 42.413 45.9091 40.9487V40.9478L65.4911 20.9497L65.4941 20.9478ZM33.4081 98.2046C29.9212 98.2047 27.083 101.043 27.0829 104.53C27.0829 108.017 29.9211 110.856 33.4081 110.856C36.8952 110.856 39.7343 108.017 39.7343 104.53C39.7343 101.043 36.8952 98.2046 33.4081 98.2046ZM104.468 98.2046C100.981 98.2047 98.1425 101.043 98.1425 104.53C98.1425 108.017 100.981 110.856 104.468 110.856C107.955 110.856 110.794 108.017 110.794 104.53C110.794 101.043 107.955 98.2046 104.468 98.2046Z" fill="#E6000D" stroke="#EAEAEA" stroke-width="2.5"/>
</g>
<defs>
<clipPath id="clip0_1_100">
<rect width="138" height="138" fill="white"/>
</clipPath>
</defs>
</svg>
