<svg width="150" height="150" viewBox="0 0 150 150" fill="none" xmlns="http://www.w3.org/2000/svg">
<g clip-path="url(#clip0_1_911)">
<path d="M70.3603 16.8687C70.3603 18.3448 69.3363 19.6066 67.9228 19.9292L67.6347 19.981C58.2049 21.2324 49.1854 24.9716 41.5556 30.7935C40.8122 31.3437 40.1739 31.5068 39.6132 31.4751C39.0357 31.4424 38.4502 31.1975 37.8369 30.7759C37.2221 30.3532 36.6231 29.7836 36.0195 29.1587C35.4401 28.5589 34.8161 27.8631 34.247 27.312L33.7138 26.7964L33.1923 27.3228L27.7001 32.8628L27.1689 33.3979L27.707 33.9263L30.8828 37.0425C31.9335 38.0836 32.1079 39.7068 31.3359 40.939L31.1689 41.1802C25.5252 48.5715 21.8354 57.2685 20.4755 66.3813L20.3525 67.2534C20.2172 68.1668 19.8829 68.7337 19.4658 69.1089C19.0362 69.4951 18.4523 69.7379 17.7236 69.8765C16.9927 70.0154 16.1685 70.0403 15.3017 70.0298C14.4695 70.0197 13.54 69.9739 12.748 69.9917L12.0146 70.0083V79.271H17.2392C18.8155 79.271 20.146 80.4378 20.3515 81.9976V81.9985C21.599 91.4279 25.3401 100.444 31.1611 108.072V108.073C31.712 108.82 31.8755 109.46 31.8437 110.022C31.811 110.6 31.566 111.185 31.1445 111.797C30.7218 112.411 30.1517 113.01 29.5263 113.613C28.9261 114.192 28.2307 114.814 27.6787 115.384L27.1621 115.917L27.6894 116.439L33.2314 121.928L33.7665 122.458L34.2939 121.921L37.4111 118.751C38.5253 117.626 40.299 117.508 41.5458 118.462H41.5468C49.1754 124.286 58.1939 128.026 67.623 129.28V129.281C68.5362 129.417 69.1034 129.751 69.4785 130.168C69.8646 130.598 70.1067 131.182 70.2451 131.911C70.3838 132.641 70.4079 133.464 70.3974 134.331C70.3873 135.162 70.3424 136.091 70.3603 136.883L70.3769 137.617H79.6396V132.394C79.6396 130.918 80.6635 129.656 82.0771 129.333L82.3652 129.282C91.7946 128.03 100.813 124.291 108.442 118.469L108.443 118.47C109.188 117.92 109.827 117.757 110.388 117.789C110.965 117.821 111.55 118.066 112.163 118.488C112.778 118.91 113.377 119.48 113.98 120.105C114.56 120.705 115.183 121.4 115.753 121.952L116.286 122.467L116.808 121.941L122.3 116.4L122.831 115.865L122.293 115.337L119.117 112.22C117.997 111.11 117.872 109.337 118.831 108.083C124.654 100.456 128.397 91.4389 129.646 82.0093L129.647 82.0103C129.783 81.0964 130.117 80.529 130.534 80.1538C130.964 79.7676 131.548 79.5247 132.276 79.3862C133.007 79.2474 133.831 79.2234 134.697 79.2339C135.53 79.244 136.459 79.2889 137.252 79.271L137.985 79.2544V69.9917H132.761C131.184 69.9917 129.854 68.825 129.648 67.2651V67.2642C128.4 57.8306 124.657 48.8097 118.831 41.1802C118.286 40.4372 118.125 39.7997 118.156 39.2407C118.189 38.6628 118.433 38.0785 118.854 37.4663C119.277 36.8523 119.847 36.2542 120.473 35.6509C121.073 35.0718 121.769 34.4488 122.321 33.8784L122.838 33.3452L122.31 32.8237L116.769 27.3345L116.233 26.8052L115.706 27.3423L112.589 30.5112C111.474 31.6365 109.7 31.7568 108.455 30.8013L108.453 30.8003L107.733 30.2603C100.258 24.7441 91.5068 21.1944 82.3701 19.981C81.4609 19.8441 80.8955 19.5105 80.5214 19.0942C80.1354 18.6647 79.8932 18.0811 79.7548 17.353C79.6161 16.6227 79.591 15.7994 79.6015 14.9331C79.6116 14.1011 79.6575 13.1719 79.6396 12.3794L79.623 11.646H70.3603V16.8687ZM64.081 135.083L63.4706 134.967C55.2763 133.408 47.4368 130.159 40.4902 125.438L39.914 125.046L39.4814 125.591C36.8678 128.883 31.7239 129.318 28.7871 126.367L28.7236 126.303C28.6832 126.263 28.6232 126.204 28.5478 126.128C28.3968 125.978 28.1816 125.761 27.9228 125.502C27.405 124.985 26.7137 124.296 26.0234 123.606C25.5056 123.089 24.9879 122.571 24.5429 122.126H24.5624L23.2587 120.842C20.196 117.825 20.7004 112.823 24.041 110.144L24.581 109.71L24.1914 109.137C19.4703 102.192 16.2211 94.3568 14.664 86.1606L14.5478 85.5503H12.7646C8.89018 85.5502 5.7353 82.3971 5.7353 78.521V70.7417C5.73536 66.8657 8.89022 63.7125 12.7646 63.7124H14.5478L14.664 63.1021C16.2211 54.9059 19.4702 47.0702 24.1914 40.1255L24.5429 39.6089L24.0986 39.1704L23.2744 38.3569C20.5271 35.602 20.5296 31.1526 23.2578 28.4204L23.2587 28.4214L28.789 22.894C31.3431 20.34 35.7792 20.2507 38.4599 22.6567L38.7138 22.897L39.5341 23.731L39.9726 24.1772L40.4902 23.8257C47.4368 19.1045 55.2762 15.8544 63.4706 14.2954L64.081 14.1792V12.396C64.0812 8.52001 67.2359 5.36671 71.1103 5.3667H76.4531L76.4228 5.38721L78.8955 5.3667C83.1942 5.33215 86.3678 9.21625 85.9228 13.481L85.8515 14.1665L86.5292 14.2954C94.7238 15.8544 102.563 19.1044 109.51 23.8257L110.086 24.2173L110.519 23.6714C113.13 20.3802 118.272 19.944 121.214 22.897L121.23 22.9136C121.241 22.924 121.256 22.9402 121.276 22.9604C121.317 23.0009 121.377 23.0598 121.452 23.1353C121.603 23.2862 121.819 23.5016 122.078 23.7603C122.596 24.2777 123.286 24.9679 123.977 25.6577C124.494 26.1751 125.012 26.6926 125.457 27.1372H125.437L126.741 28.4214C129.804 31.4388 129.299 36.4402 125.959 39.1187L125.419 39.5522L125.809 40.1255C130.53 47.0702 133.779 54.9059 135.336 63.1021L135.452 63.7124H137.235C141.11 63.7124 144.265 66.8657 144.265 70.7417V78.521C144.265 82.3971 141.11 85.5503 137.235 85.5503H135.452L135.336 86.1606C133.779 94.3568 130.53 102.192 125.809 109.137L125.457 109.655L125.902 110.093L126.722 110.901V110.902C129.387 113.571 129.469 117.833 126.989 120.582L126.741 120.842L121.211 126.369C118.653 128.923 114.22 129.012 111.54 126.606L111.286 126.366L110.466 125.532L110.027 125.086L109.51 125.438C102.563 130.159 94.7238 133.408 86.5292 134.967L85.8515 135.096L85.9228 135.783C86.3692 140.058 83.1952 143.918 78.8935 143.896H71.1103C67.2358 143.896 64.081 140.743 64.081 136.867V135.083Z" fill="#E6000D" stroke="#EAEAEA" stroke-width="1.5"/>
<path d="M75.078 28.7036C76.2683 28.5833 78.7375 28.7754 81.7626 29.2856C84.7625 29.7916 88.2294 30.5968 91.3857 31.6606C94.5617 32.7311 97.3425 34.0375 99.037 35.5103C99.8802 36.2432 100.401 36.9716 100.609 37.6792C100.808 38.3554 100.744 39.0885 100.268 39.9194C99.3551 41.3864 97.4304 41.8445 95.9511 40.938C89.6272 37.0451 82.3847 34.9868 75.0019 34.9868C53.1413 34.987 35.3555 52.772 35.3554 74.6343V74.6646C37.5272 127.219 112.477 127.217 114.648 74.6655L114.649 74.6499V74.6343C114.649 67.2545 112.59 60.008 108.696 53.6802C107.79 52.2053 108.248 50.2743 109.719 49.3638C110.545 48.8842 111.275 48.8188 111.948 49.0161C112.653 49.2228 113.382 49.7433 114.115 50.5884C115.589 52.2863 116.899 55.0752 117.974 58.2583C119.041 61.4215 119.85 64.8948 120.357 67.895C120.869 70.922 121.059 73.383 120.934 74.5542L120.929 74.5942V74.6343C120.929 99.9481 100.342 120.545 75.0292 120.56C14.0794 118.039 14.0793 31.2262 75.0331 28.7075L75.0556 28.7065L75.078 28.7036Z" fill="#E6000D" stroke="#EAEAEA" stroke-width="1.5"/>
<path d="M73.8321 52.2793C74.9649 51.7962 76.3785 52.0801 77.2422 52.958L77.2471 52.9619L88.9122 64.6279L88.9219 64.6377L88.9317 64.6465C89.8972 65.5442 90.0406 66.8788 89.5538 68.0371C89.0653 69.1991 88.0061 70.0342 86.7198 69.9883L86.6602 69.9854L86.6016 69.9932C86.256 70.0351 85.7899 69.9063 85.1788 69.5254C84.5792 69.1516 83.9333 68.5939 83.2608 67.9355C82.5902 67.2791 81.9253 66.556 81.2715 65.8584C80.6287 65.1724 79.9886 64.5027 79.4014 63.999L78.1631 62.9375V94.0664C78.1416 95.1423 77.7358 95.8942 77.1778 96.3838C76.6043 96.8868 75.825 97.1519 75.0225 97.1494C74.22 97.147 73.4402 96.8766 72.8663 96.3711C72.3053 95.877 71.9002 95.1237 71.8838 94.0547V62.7578L65.5772 69.0645C64.8202 69.8141 64.009 70.0591 63.2676 70.0088C62.5074 69.9572 61.7627 69.59 61.1885 69.0156C60.6143 68.4411 60.2461 67.6955 60.1944 66.9346C60.1447 66.2028 60.3827 65.4041 61.1075 64.6562C61.1394 64.6304 61.1662 64.6063 61.1837 64.5908C61.2304 64.5492 61.2859 64.4983 61.3467 64.4404C61.4689 64.324 61.6291 64.167 61.8194 63.9775C62.2008 63.5979 62.7162 63.0761 63.3184 62.4639C64.525 61.2372 66.0849 59.6429 67.6426 58.0723C69.2012 56.5008 70.7497 54.9605 71.9317 53.8447C72.5247 53.2849 73.0143 52.8428 73.3614 52.5586C73.4497 52.4863 73.5228 52.4288 73.5821 52.3848L73.8321 52.2793Z" fill="#E6000D" stroke="#EAEAEA" stroke-width="1.5"/>
</g>
<defs>
<clipPath id="clip0_1_911">
<rect width="138" height="138" fill="white" transform="translate(6 5.63135)"/>
</clipPath>
</defs>
</svg>
