<svg width="44" height="44" viewBox="0 0 44 44" fill="none" xmlns="http://www.w3.org/2000/svg">
<path d="M3.99515 12.732C3.52853 13.1884 2.78372 13.1766 2.33158 12.7056C1.87943 12.2346 1.89117 11.4827 2.35779 11.0264C13.2997 0.324546 30.7003 0.324546 41.6422 11.0264C42.1088 11.4827 42.1206 12.2346 41.6684 12.7056C41.2163 13.1766 40.4715 13.1884 40.0049 12.732C29.9755 2.92269 14.0245 2.92269 3.99515 12.732ZM9.52165 18.3109C9.06221 18.7747 8.31731 18.7747 7.85786 18.3109C7.39842 17.8472 7.39842 17.0953 7.85786 16.6315C15.6684 8.74784 28.3317 8.74784 36.1421 16.6315C36.6016 17.0953 36.6016 17.8472 36.1421 18.3109C35.6827 18.7747 34.9378 18.7747 34.4784 18.3109C27.5868 11.3547 16.4133 11.3547 9.52165 18.3109ZM15.3449 23.595C14.8854 24.0587 14.1405 24.0587 13.6811 23.595C13.2217 23.1312 13.2217 22.3794 13.6811 21.9156C18.2755 17.2781 25.7245 17.2781 30.3189 21.9156C30.7783 22.3794 30.7783 23.1312 30.3189 23.595C29.8595 24.0587 29.1146 24.0587 28.6551 23.595C24.9796 19.885 19.0204 19.885 15.3449 23.595ZM22 41C17.7766 41 14.3529 37.5442 14.3529 33.2813C14.3529 29.0183 17.7766 25.5625 22 25.5625C26.2234 25.5625 29.6471 29.0183 29.6471 33.2813C29.6471 37.5442 26.2234 41 22 41ZM22 38.625C24.9239 38.625 27.2941 36.2325 27.2941 33.2813C27.2941 30.33 24.9239 27.9375 22 27.9375C19.0761 27.9375 16.7059 30.33 16.7059 33.2813C16.7059 36.2325 19.0761 38.625 22 38.625ZM22.9328 31.2541C23.3923 30.7903 24.1372 30.7903 24.5966 31.2541C25.056 31.7178 25.056 32.4697 24.5966 32.9334L22.2437 35.3084C21.7842 35.7722 21.0393 35.7722 20.5799 35.3084L19.4034 34.1209C18.944 33.6572 18.944 32.9053 19.4034 32.4416C19.8628 31.9778 20.6077 31.9778 21.0672 32.4416L21.4118 32.7894L22.9328 31.2541Z" fill="#E6000D" stroke="#E6000D" stroke-width="0.5"/>
</svg>
