<svg width="40" height="38" viewBox="0 0 40 38" fill="none" xmlns="http://www.w3.org/2000/svg">
<path d="M32.3729 0H7.40477C5.44091 0 3.55747 0.807416 2.16881 2.24463C0.780143 3.68184 0 5.63112 0 7.66364V30.3379C0 32.3704 0.780143 34.3197 2.16881 35.7569C3.55747 37.1941 5.44091 38.0015 7.40477 38.0015H32.3729C34.3368 38.0015 36.2202 37.1941 37.6089 35.7569C38.9976 34.3197 39.7777 32.3704 39.7777 30.3379V7.66364C39.7777 5.63112 38.9976 3.68184 37.6089 2.24463C36.2202 0.807416 34.3368 0 32.3729 0ZM3.05982 30.3379V25.3343H12.7595C12.8926 25.3322 13.0249 25.3578 13.1483 25.4095C13.2717 25.4613 13.3839 25.5382 13.4781 25.6357C13.5722 25.7331 13.6465 25.8492 13.6966 25.9769C13.7466 26.1047 13.7713 26.2416 13.7692 26.3794V34.8347H7.40477C6.25366 34.8306 5.15085 34.3554 4.33688 33.513C3.52292 32.6706 3.06386 31.5292 3.05982 30.3379ZM36.7179 30.3379C36.7139 31.5292 36.2548 32.6706 35.4408 33.513C34.6269 34.3554 33.524 34.8306 32.3729 34.8347H16.829V26.3794C16.829 25.2623 16.4003 24.191 15.6371 23.4012C14.8739 22.6113 13.8388 22.1676 12.7595 22.1676H3.05982V7.66364C3.06386 6.47229 3.52292 5.33092 4.33688 4.4885C5.15085 3.64608 6.25366 3.17097 7.40477 3.16679H32.3729C33.524 3.17097 34.6269 3.64608 35.4408 4.4885C36.2548 5.33092 36.7139 6.47229 36.7179 7.66364V30.3379Z" fill="#E6000D"/>
<path d="M27.9812 8.37875L21.4179 15.1874V12.6698C21.4179 12.2498 21.2567 11.8471 20.9698 11.5501C20.6829 11.2532 20.2937 11.0864 19.888 11.0864C19.4822 11.0864 19.0931 11.2532 18.8062 11.5501C18.5192 11.8471 18.3581 12.2498 18.3581 12.6698V19.0033C18.3581 19.4233 18.5192 19.826 18.8062 20.123C19.0931 20.4199 19.4822 20.5867 19.888 20.5867H26.0076C26.4134 20.5867 26.8025 20.4199 27.0894 20.123C27.3763 19.826 27.5375 19.4233 27.5375 19.0033C27.5375 18.5834 27.3763 18.1807 27.0894 17.8837C26.8025 17.5868 26.4134 17.4199 26.0076 17.4199H23.5751L30.1537 10.6272C30.2963 10.4795 30.4095 10.3043 30.4867 10.1114C30.5639 9.91849 30.6036 9.71175 30.6036 9.50296C30.6036 9.29418 30.5639 9.08743 30.4867 8.89454C30.4095 8.70165 30.2963 8.52638 30.1537 8.37875C30.011 8.23112 29.8417 8.11401 29.6553 8.03411C29.4689 7.95421 29.2692 7.91309 29.0674 7.91309C28.8657 7.91309 28.666 7.95421 28.4796 8.03411C28.2932 8.11401 28.1239 8.23112 27.9812 8.37875Z" fill="#E6000D"/>
</svg>
