<svg width="150" height="150" viewBox="0 0 150 150" fill="none" xmlns="http://www.w3.org/2000/svg">
<g clip-path="url(#clip0_1_935)">
<path d="M12.4749 56.3875L9.00122 42.4926" stroke="#E6000D" stroke-width="5" stroke-miterlimit="22.926" stroke-linecap="round" stroke-linejoin="round"/>
<path d="M12.4738 56.3875L26.3686 49.4401" stroke="#E6000D" stroke-width="5" stroke-miterlimit="22.926" stroke-linecap="round" stroke-linejoin="round"/>
<path d="M13.4627 52.6298C22.5829 26.5135 47.3766 9.00024 75.2284 9.00024C105.028 9.00024 131.056 29.001 138.517 57.6323" stroke="#E6000D" stroke-width="5" stroke-miterlimit="22.926" stroke-linecap="round" stroke-linejoin="round"/>
<path d="M137.175 93.7205L140.648 107.615" stroke="#E6000D" stroke-width="5" stroke-miterlimit="22.926" stroke-linecap="round" stroke-linejoin="round"/>
<path d="M137.167 93.7178L123.272 100.665" stroke="#E6000D" stroke-width="5" stroke-miterlimit="22.926" stroke-linecap="round" stroke-linejoin="round"/>
<path d="M135.043 97.3717C126.176 123.488 102.071 141.001 74.993 141.001C46.0209 141.001 20.7157 121 13.4628 92.3692" stroke="#E6000D" stroke-width="5" stroke-miterlimit="22.926" stroke-linecap="round" stroke-linejoin="round"/>
<path d="M75.9888 102.788C79.8153 102.788 82.9362 99.6672 82.9362 95.841C82.9362 92.0145 79.8153 88.8934 75.9888 88.8934C72.1622 88.8934 69.0413 92.0145 69.0413 95.841C69.0413 99.6672 72.1622 102.788 75.9888 102.788Z" stroke="#E6000D" stroke-width="5" stroke-miterlimit="22.926" stroke-linecap="round" stroke-linejoin="round"/>
<path d="M58.6218 74.998C63.5483 70.5055 69.722 68.0505 76.0924 68.0505C82.3726 68.0505 88.4642 70.4363 93.359 74.8132" stroke="#E6000D" stroke-width="5" stroke-miterlimit="22.926" stroke-linecap="round" stroke-linejoin="round"/>
<path d="M44.7216 57.6323C53.5894 50.8937 64.7018 47.2111 76.1686 47.2111C87.4733 47.2111 98.4386 50.7902 107.248 57.3558" stroke="#E6000D" stroke-width="5" stroke-miterlimit="22.926" stroke-linecap="round" stroke-linejoin="round"/>
</g>
<defs>
<clipPath id="clip0_1_935">
<rect width="138" height="138" fill="white" transform="translate(6 6)"/>
</clipPath>
</defs>
</svg>
