<svg width="40" height="40" viewBox="0 0 40 40" fill="none" xmlns="http://www.w3.org/2000/svg">
<g clip-path="url(#clip0_1_291)">
<path d="M32.3077 6.15385H27.6923V1.53846C27.6923 0.697436 26.9949 0 26.1538 0H13.8462C13.0051 0 12.3077 0.697436 12.3077 1.53846V6.15385H7.69231C3.44615 6.15385 0 9.6 0 13.8462V24.1026C0 28.3487 3.44615 31.7949 7.69231 31.7949H12.3077V36.4103C12.3077 38.3795 13.9282 40 15.8974 40H24.1026C26.0718 40 27.6923 38.3795 27.6923 36.4103V31.7949H32.3077C36.5538 31.7949 40 28.3487 40 24.1026V13.8462C40 9.6 36.5538 6.15385 32.3077 6.15385ZM15.3846 3.07692H24.6154V6.15385H15.3846V3.07692ZM24.6154 36.9231H15.3846V23.5897H24.6154V36.9231ZM36.9231 24.1026C36.9231 26.6462 34.8513 28.718 32.3077 28.718H27.6923V22.0513C27.6923 21.2103 26.9949 20.5128 26.1538 20.5128H13.8462C13.0051 20.5128 12.3077 21.2103 12.3077 22.0513V28.718H7.69231C5.14872 28.718 3.07692 26.6462 3.07692 24.1026V13.8462C3.07692 11.3026 5.14872 9.23077 7.69231 9.23077H32.3077C34.8513 9.23077 36.9231 11.3026 36.9231 13.8462V24.1026Z" fill="#E6000D"/>
<path d="M30.2564 17.4359C31.1061 17.4359 31.7949 16.7471 31.7949 15.8974C31.7949 15.0477 31.1061 14.3589 30.2564 14.3589C29.4067 14.3589 28.7179 15.0477 28.7179 15.8974C28.7179 16.7471 29.4067 17.4359 30.2564 17.4359Z" fill="#E6000D"/>
</g>
<defs>
<clipPath id="clip0_1_291">
<rect width="40" height="40" fill="white"/>
</clipPath>
</defs>
</svg>
