<svg width="150" height="150" viewBox="0 0 150 150" fill="none" xmlns="http://www.w3.org/2000/svg">
<g clip-path="url(#clip0_1_923)">
<path d="M70.3603 16.8682C70.3603 18.3443 69.3363 19.6062 67.9228 19.9287L67.6347 19.9805C58.2049 21.2319 49.1854 24.9711 41.5556 30.793C40.8122 31.3432 40.1739 31.5063 39.6132 31.4746C39.0357 31.4419 38.4502 31.197 37.8369 30.7754C37.2221 30.3527 36.6231 29.7831 36.0195 29.1582C35.4401 28.5584 34.8161 27.8626 34.247 27.3115L33.7138 26.7959L33.1923 27.3223L27.7001 32.8623L27.1689 33.3975L27.707 33.9258L30.8828 37.042C31.9335 38.0831 32.1079 39.7063 31.3359 40.9385L31.1689 41.1797C25.5252 48.571 21.8354 57.268 20.4755 66.3809L20.3525 67.2529C20.2172 68.1663 19.8829 68.7332 19.4658 69.1084C19.0362 69.4946 18.4523 69.7375 17.7236 69.876C16.9927 70.0149 16.1685 70.0398 15.3017 70.0293C14.4695 70.0192 13.54 69.9734 12.748 69.9912L12.0146 70.0078V79.2705H17.2392C18.8155 79.2705 20.146 80.4373 20.3515 81.9971V81.998C21.599 91.4274 25.3401 100.444 31.1611 108.071V108.072C31.712 108.819 31.8755 109.46 31.8437 110.021C31.811 110.6 31.566 111.184 31.1445 111.797C30.7218 112.411 30.1517 113.009 29.5263 113.612C28.9261 114.191 28.2307 114.814 27.6787 115.384L27.1621 115.917L27.6894 116.438L33.2314 121.928L33.7665 122.457L34.2939 121.921L37.4111 118.751C38.5253 117.625 40.299 117.507 41.5458 118.462H41.5468C49.1754 124.285 58.1939 128.026 67.623 129.279V129.28C68.5362 129.416 69.1034 129.751 69.4785 130.168C69.8646 130.598 70.1067 131.182 70.2451 131.91C70.3838 132.641 70.4079 133.464 70.3974 134.33C70.3873 135.162 70.3424 136.091 70.3603 136.883L70.3769 137.616H79.6396V132.394C79.6396 130.917 80.6635 129.656 82.0771 129.333L82.3652 129.281C91.7946 128.03 100.813 124.29 108.442 118.469L108.443 118.47C109.188 117.92 109.827 117.756 110.388 117.788C110.965 117.821 111.55 118.066 112.163 118.487C112.778 118.91 113.377 119.479 113.98 120.104C114.56 120.704 115.183 121.4 115.753 121.951L116.286 122.467L116.808 121.94L122.3 116.399L122.831 115.864L122.293 115.337L119.117 112.22C117.997 111.109 117.872 109.336 118.831 108.082C124.654 100.455 128.397 91.4384 129.646 82.0088L129.647 82.0098C129.783 81.0959 130.117 80.5285 130.534 80.1533C130.964 79.7671 131.548 79.5242 132.276 79.3857C133.007 79.2469 133.831 79.2229 134.697 79.2334C135.53 79.2435 136.459 79.2884 137.252 79.2705L137.985 79.2539V69.9912H132.761C131.184 69.9912 129.854 68.8245 129.648 67.2646V67.2637C128.4 57.8301 124.657 48.8092 118.831 41.1797C118.286 40.4367 118.125 39.7992 118.156 39.2402C118.189 38.6624 118.433 38.078 118.854 37.4658C119.277 36.8518 119.847 36.2537 120.473 35.6504C121.073 35.0714 121.769 34.4483 122.321 33.8779L122.838 33.3447L122.31 32.8232L116.769 27.334L116.233 26.8047L115.706 27.3418L112.589 30.5107C111.474 31.6361 109.7 31.7563 108.455 30.8008L108.453 30.7998L107.733 30.2598C100.258 24.7436 91.5068 21.1939 82.3701 19.9805C81.4609 19.8436 80.8955 19.51 80.5214 19.0938C80.1354 18.6642 79.8932 18.0806 79.7548 17.3525C79.6161 16.6222 79.591 15.799 79.6015 14.9326C79.6116 14.1006 79.6575 13.1714 79.6396 12.3789L79.623 11.6455H70.3603V16.8682ZM64.081 135.083L63.4706 134.967C55.2763 133.408 47.4368 130.159 40.4902 125.438L39.914 125.046L39.4814 125.591C36.8678 128.883 31.7239 129.318 28.7871 126.366L28.7236 126.303C28.6832 126.262 28.6232 126.203 28.5478 126.128C28.3968 125.977 28.1816 125.761 27.9228 125.502C27.405 124.985 26.7137 124.295 26.0234 123.605C25.5056 123.088 24.9879 122.571 24.5429 122.126H24.5624L23.2587 120.842C20.196 117.824 20.7004 112.822 24.041 110.144L24.581 109.71L24.1914 109.137C19.4703 102.192 16.2211 94.3563 14.664 86.1602L14.5478 85.5498H12.7646C8.89018 85.5497 5.7353 82.3966 5.7353 78.5205V70.7412C5.73536 66.8652 8.89022 63.712 12.7646 63.7119H14.5478L14.664 63.1016C16.2211 54.9054 19.4702 47.0698 24.1914 40.125L24.5429 39.6084L24.0986 39.1699L23.2744 38.3564C20.5271 35.6015 20.5296 31.1521 23.2578 28.4199L23.2587 28.4209L28.789 22.8936C31.3431 20.3395 35.7792 20.2502 38.4599 22.6562L38.7138 22.8965L39.5341 23.7305L39.9726 24.1768L40.4902 23.8252C47.4368 19.104 55.2762 15.854 63.4706 14.2949L64.081 14.1787V12.3955C64.0812 8.51952 67.2359 5.36622 71.1103 5.36621H76.4531L76.4228 5.38672L78.8955 5.36621C83.1942 5.33166 86.3678 9.21576 85.9228 13.4805L85.8515 14.166L86.5292 14.2949C94.7238 15.8539 102.563 19.1039 109.51 23.8252L110.086 24.2168L110.519 23.6709C113.13 20.3797 118.272 19.9435 121.214 22.8965L121.23 22.9131C121.241 22.9235 121.256 22.9397 121.276 22.96C121.317 23.0004 121.377 23.0593 121.452 23.1348C121.603 23.2857 121.819 23.5011 122.078 23.7598C122.596 24.2772 123.286 24.9674 123.977 25.6572C124.494 26.1746 125.012 26.6921 125.457 27.1367H125.437L126.741 28.4209C129.804 31.4383 129.299 36.4397 125.959 39.1182L125.419 39.5518L125.809 40.125C130.53 47.0698 133.779 54.9054 135.336 63.1016L135.452 63.7119H137.235C141.11 63.7119 144.265 66.8652 144.265 70.7412V78.5205C144.265 82.3966 141.11 85.5498 137.235 85.5498H135.452L135.336 86.1602C133.779 94.3563 130.53 102.192 125.809 109.137L125.457 109.654L125.902 110.093L126.722 110.9V110.901C129.387 113.57 129.469 117.832 126.989 120.581L126.741 120.842L121.211 126.368C118.653 128.923 114.22 129.012 111.54 126.605L111.286 126.365L110.466 125.531L110.027 125.086L109.51 125.438C102.563 130.159 94.7238 133.408 86.5292 134.967L85.8515 135.096L85.9228 135.782C86.3692 140.057 83.1952 143.918 78.8935 143.896H71.1103C67.2358 143.896 64.081 140.742 64.081 136.866V135.083Z" fill="#E6000D" stroke="#EAEAEA" stroke-width="1.5"/>
<path d="M75.078 28.7031C76.2683 28.5828 78.7375 28.775 81.7626 29.2852C84.7625 29.7911 88.2294 30.5964 91.3857 31.6602C94.5617 32.7306 97.3425 34.037 99.037 35.5098C99.8802 36.2427 100.401 36.9711 100.609 37.6787C100.808 38.3549 100.744 39.0881 100.268 39.9189C99.3551 41.3859 97.4304 41.844 95.9511 40.9375C89.6272 37.0446 82.3847 34.9863 75.0019 34.9863C53.1413 34.9865 35.3555 52.7715 35.3554 74.6338V74.6641C37.5272 127.218 112.477 127.216 114.648 74.665L114.649 74.6494V74.6338C114.649 67.2541 112.59 60.0075 108.696 53.6797C107.79 52.2048 108.248 50.2739 109.719 49.3633C110.545 48.8837 111.275 48.8184 111.948 49.0156C112.653 49.2223 113.382 49.7428 114.115 50.5879C115.589 52.2858 116.899 55.0747 117.974 58.2578C119.041 61.421 119.85 64.8943 120.357 67.8945C120.869 70.9215 121.059 73.3825 120.934 74.5537L120.929 74.5938V74.6338C120.929 99.9476 100.342 120.545 75.0292 120.56C14.0794 118.039 14.0793 31.2257 75.0331 28.707L75.0556 28.7061L75.078 28.7031Z" fill="#E6000D" stroke="#EAEAEA" stroke-width="1.5"/>
<path d="M73.8321 52.2788C74.9649 51.7957 76.3785 52.0796 77.2422 52.9575L77.2471 52.9614L88.9122 64.6274L88.9219 64.6372L88.9317 64.646C89.8972 65.5438 90.0406 66.8783 89.5538 68.0366C89.0653 69.1986 88.0061 70.0337 86.7198 69.9878L86.6602 69.9849L86.6016 69.9927C86.256 70.0346 85.7899 69.9058 85.1788 69.5249C84.5792 69.1511 83.9333 68.5934 83.2608 67.9351C82.5902 67.2786 81.9253 66.5555 81.2715 65.8579C80.6287 65.172 79.9886 64.5022 79.4014 63.9985L78.1631 62.937V94.0659C78.1416 95.1418 77.7358 95.8937 77.1778 96.3833C76.6043 96.8864 75.825 97.1514 75.0225 97.1489C74.22 97.1465 73.4402 96.8761 72.8663 96.3706C72.3053 95.8765 71.9002 95.1232 71.8838 94.0542V62.7573L65.5772 69.064C64.8202 69.8136 64.009 70.0586 63.2676 70.0083C62.5074 69.9567 61.7627 69.5895 61.1885 69.0151C60.6143 68.4406 60.2461 67.695 60.1944 66.9341C60.1447 66.2023 60.3827 65.4036 61.1075 64.6558C61.1394 64.6299 61.1662 64.6058 61.1837 64.5903C61.2304 64.5487 61.2859 64.4978 61.3467 64.4399C61.4689 64.3235 61.6291 64.1665 61.8194 63.9771C62.2008 63.5974 62.7162 63.0756 63.3184 62.4634C64.525 61.2367 66.0849 59.6424 67.6426 58.0718C69.2012 56.5003 70.7497 54.9601 71.9317 53.8442C72.5247 53.2844 73.0143 52.8423 73.3614 52.5581C73.4497 52.4858 73.5228 52.4283 73.5821 52.3843L73.8321 52.2788Z" fill="#E6000D" stroke="#EAEAEA" stroke-width="1.5"/>
</g>
<defs>
<clipPath id="clip0_1_923">
<rect width="138" height="138" fill="white" transform="translate(6 5.63086)"/>
</clipPath>
</defs>
</svg>
