<svg width="39" height="37" viewBox="0 0 39 37" fill="none" xmlns="http://www.w3.org/2000/svg">
<path d="M19.1266 27.5322C24.1748 27.5322 28.2672 23.4398 28.2672 18.3916C28.2672 13.3434 24.1748 9.25098 19.1266 9.25098C14.0783 9.25098 9.98593 13.3434 9.98593 18.3916C9.98593 23.4398 14.0783 27.5322 19.1266 27.5322Z" stroke="#E6000D" stroke-width="2.3" stroke-miterlimit="10" stroke-linecap="round" stroke-linejoin="round"/>
<path d="M19.1266 21.4385C20.8093 21.4385 22.1734 20.0743 22.1734 18.3916C22.1734 16.7089 20.8093 15.3447 19.1266 15.3447C17.4438 15.3447 16.0797 16.7089 16.0797 18.3916C16.0797 20.0743 17.4438 21.4385 19.1266 21.4385Z" stroke="#E6000D" stroke-width="2.3" stroke-miterlimit="10" stroke-linecap="round" stroke-linejoin="round"/>
<path d="M27.7444 9.77344L25.59 11.9279" stroke="#E6000D" stroke-width="2.3" stroke-miterlimit="10" stroke-linecap="round" stroke-linejoin="round"/>
<path d="M12.6631 24.855L10.5087 27.0094" stroke="#E6000D" stroke-width="2.3" stroke-miterlimit="10" stroke-linecap="round" stroke-linejoin="round"/>
<path d="M19.1266 6.2041V9.25098" stroke="#E6000D" stroke-width="2.3" stroke-miterlimit="10" stroke-linecap="round" stroke-linejoin="round"/>
<path d="M24.9156 1.15039C32.016 3.66003 37.1031 10.4316 37.1031 18.3914C37.1031 26.3512 32.016 33.1228 24.9156 35.6325H32.5328" stroke="#E6000D" stroke-width="2.3" stroke-miterlimit="10" stroke-linecap="round" stroke-linejoin="round"/>
<path d="M13.3375 35.6325C6.23713 33.1228 1.14999 26.3512 1.14999 18.3914C1.14999 10.4317 6.23713 3.66003 13.3375 1.15039H5.72031" stroke="#E6000D" stroke-width="2.3" stroke-miterlimit="10" stroke-linecap="round" stroke-linejoin="round"/>
<path d="M19.1266 27.5322V30.5791" stroke="#E6000D" stroke-width="2.3" stroke-miterlimit="10" stroke-linecap="round" stroke-linejoin="round"/>
<path d="M10.5087 9.77344L12.6631 11.9279" stroke="#E6000D" stroke-width="2.3" stroke-miterlimit="10" stroke-linecap="round" stroke-linejoin="round"/>
<path d="M25.59 24.855L27.7444 27.0094" stroke="#E6000D" stroke-width="2.3" stroke-miterlimit="10" stroke-linecap="round" stroke-linejoin="round"/>
<path d="M31.3141 18.3916H28.2672" stroke="#E6000D" stroke-width="2.3" stroke-miterlimit="10" stroke-linecap="round" stroke-linejoin="round"/>
<path d="M9.98593 18.3916H6.93906" stroke="#E6000D" stroke-width="2.3" stroke-miterlimit="10" stroke-linecap="round" stroke-linejoin="round"/>
</svg>
