<svg width="34" height="40" viewBox="0 0 34 40" fill="none" xmlns="http://www.w3.org/2000/svg">
<path d="M33.9564 10.2992C33.9356 9.2193 33.9158 8.19909 33.9158 7.21212C33.9158 6.43889 33.2818 5.81202 32.4994 5.81202C26.4424 5.81202 21.8307 4.09121 17.9866 0.396438C17.4367 -0.132239 16.5616 -0.132053 16.0119 0.396438C12.1682 4.09121 7.55728 5.81202 1.50057 5.81202C0.718386 5.81202 0.0842564 6.43889 0.0842564 7.21212C0.0842564 8.19928 0.0646169 9.21986 0.0436555 10.3C-0.150473 20.3501 -0.416361 34.1142 16.5354 39.9227C16.6857 39.9742 16.8424 40 16.9992 40C17.1559 40 17.3128 39.9742 17.463 39.9227C34.416 34.114 34.1505 20.3495 33.9564 10.2992ZM16.9993 37.1141C2.46101 31.8932 2.68083 20.4563 2.8759 10.3534C2.88761 9.74704 2.89894 9.15938 2.90687 8.58328C8.57966 8.34657 13.116 6.64722 16.9993 3.30304C20.8831 6.64722 25.4202 8.34676 31.0933 8.58328C31.1013 9.15919 31.1126 9.74648 31.1243 10.3524C31.3192 20.4557 31.5388 31.8931 16.9993 37.1141Z" fill="#E6000D"/>
<path d="M21.8768 15.1366L15.041 21.8938L12.1239 19.0102C11.5708 18.4636 10.674 18.4636 10.1211 19.0102C9.56796 19.5571 9.56796 20.4435 10.1211 20.9903L14.0395 24.8639C14.316 25.1372 14.6786 25.2738 15.041 25.2738C15.4033 25.2738 15.7659 25.1372 16.0424 24.8639L23.8795 17.1167C24.4328 16.5699 24.4328 15.6833 23.8797 15.1367C23.3268 14.59 22.4299 14.5898 21.8768 15.1366Z" fill="#E6000D"/>
</svg>
