<svg width="150" height="150" viewBox="0 0 150 150" fill="none" xmlns="http://www.w3.org/2000/svg">
<g clip-path="url(#clip0_1_824)">
<path d="M30.3963 10.1849H119.603C126.287 10.1849 132.698 12.8469 137.426 17.5863C142.153 22.3259 144.809 28.7551 144.809 35.4594V113.938C144.809 120.642 142.153 127.071 137.426 131.811C132.698 136.55 126.287 139.212 119.603 139.212H30.3963C23.7124 139.212 17.3014 136.55 12.5741 131.811C7.84675 127.071 5.19039 120.642 5.19029 113.938V35.4594C5.19036 28.7551 7.84672 22.3259 12.5741 17.5863C17.3014 12.8468 23.7124 10.1849 30.3963 10.1849ZM13.6229 113.942C13.6385 118.394 15.4095 122.661 18.5506 125.81C21.6919 128.959 25.9488 130.736 30.3924 130.751H54.3856V100.237C54.3929 99.5993 54.2739 98.9665 54.035 98.3754C53.7937 97.7783 53.435 97.2355 52.9803 96.7797C52.5257 96.3238 51.9839 95.9643 51.3876 95.722C50.7972 95.4822 50.1651 95.3622 49.5282 95.3695H13.6229V113.942ZM136.378 35.4554C136.362 31.0031 134.591 26.7366 131.45 23.5873C128.309 20.4379 124.052 18.6615 119.608 18.6459H30.3924C25.9488 18.6615 21.6919 20.438 18.5506 23.5873C15.4095 26.7366 13.6385 31.0031 13.6229 35.4554V86.9095H49.5282C53.0517 86.9096 56.4312 88.3129 58.9237 90.8119C61.4164 93.311 62.8172 96.701 62.8172 100.237V130.751H119.608C124.052 130.736 128.309 128.959 131.45 125.81C134.591 122.661 136.362 118.394 136.378 113.942V35.4554Z" fill="#E6000D" stroke="#EAEAEA" stroke-width="2.5"/>
<path d="M107.796 37.5649C108.352 37.5649 108.903 37.6747 109.417 37.8881C109.931 38.1015 110.398 38.4144 110.792 38.809C111.185 39.2038 111.498 39.6727 111.712 40.1889C111.925 40.7051 112.034 41.2589 112.034 41.8178C112.034 42.3765 111.925 42.9297 111.712 43.4457C111.499 43.9615 111.186 44.4301 110.793 44.8246L87.2888 68.3354L85.155 70.4692H96.864C97.981 70.4693 99.0527 70.9146 99.8435 71.7075C100.634 72.5005 101.08 73.5767 101.08 74.6996C101.08 75.8225 100.634 76.8988 99.8435 77.6918C99.0527 78.4846 97.9809 78.93 96.864 78.9301H74.9988C73.8818 78.93 72.8101 78.4846 72.0193 77.6918C71.2283 76.8988 70.783 75.8225 70.7829 74.6996V52.7778C70.7831 51.6549 71.2283 50.5786 72.0193 49.7856C72.8101 48.9928 73.8819 48.5484 74.9988 48.5483C76.1159 48.5483 77.1883 48.9927 77.9792 49.7856C78.7702 50.5786 79.2154 51.6549 79.2156 52.7778V64.52L81.3513 62.3735L104.8 38.809C105.193 38.4143 105.661 38.1016 106.175 37.8881C106.688 37.6747 107.24 37.5649 107.796 37.5649Z" fill="#E6000D" stroke="#EAEAEA" stroke-width="2.5"/>
</g>
<defs>
<clipPath id="clip0_1_824">
<rect width="138" height="127" fill="white" transform="translate(6 11)"/>
</clipPath>
</defs>
</svg>
