<svg width="44" height="44" viewBox="0 0 44 44" fill="none" xmlns="http://www.w3.org/2000/svg">
<path d="M34.3724 2H9.40427C7.4404 2 5.55697 2.80742 4.16831 4.24463C2.77964 5.68184 1.9995 7.63112 1.9995 9.66364V32.3379C1.9995 34.3704 2.77964 36.3197 4.16831 37.7569C5.55697 39.1941 7.4404 40.0015 9.40427 40.0015H34.3724C36.3363 40.0015 38.2197 39.1941 39.6084 37.7569C40.9971 36.3197 41.7772 34.3704 41.7772 32.3379V9.66364C41.7772 7.63112 40.9971 5.68184 39.6084 4.24463C38.2197 2.80742 36.3363 2 34.3724 2ZM5.05932 32.3379V27.3343H14.759C14.8921 27.3322 15.0244 27.3578 15.1478 27.4095C15.2712 27.4613 15.3834 27.5382 15.4776 27.6357C15.5717 27.7331 15.646 27.8492 15.696 27.9769C15.7461 28.1047 15.7708 28.2416 15.7687 28.3794V36.8347H9.40427C8.25316 36.8306 7.15035 36.3554 6.33638 35.513C5.52242 34.6706 5.06335 33.5292 5.05932 32.3379ZM38.7174 32.3379C38.7133 33.5292 38.2543 34.6706 37.4403 35.513C36.6264 36.3554 35.5235 36.8306 34.3724 36.8347H18.8285V28.3794C18.8285 27.2623 18.3998 26.191 17.6366 25.4012C16.8734 24.6113 15.8383 24.1676 14.759 24.1676H5.05932V9.66364C5.06335 8.47229 5.52242 7.33092 6.33638 6.4885C7.15035 5.64608 8.25316 5.17097 9.40427 5.16679H34.3724C35.5235 5.17097 36.6264 5.64608 37.4403 6.4885C38.2543 7.33092 38.7133 8.47229 38.7174 9.66364V32.3379Z" fill="#E6000D"/>
<path d="M29.9807 10.3792L23.4174 17.1878V14.6702C23.4174 14.2503 23.2562 13.8476 22.9693 13.5506C22.6824 13.2537 22.2932 13.0868 21.8875 13.0868C21.4817 13.0868 21.0926 13.2537 20.8057 13.5506C20.5187 13.8476 20.3576 14.2503 20.3576 14.6702V21.0038C20.3576 21.4238 20.5187 21.8265 20.8057 22.1235C21.0926 22.4204 21.4817 22.5872 21.8875 22.5872H28.0071C28.4129 22.5872 28.802 22.4204 29.0889 22.1235C29.3758 21.8265 29.537 21.4238 29.537 21.0038C29.537 20.5839 29.3758 20.1811 29.0889 19.8842C28.802 19.5873 28.4129 19.4204 28.0071 19.4204H25.5746L32.1532 12.6277C32.2958 12.48 32.409 12.3048 32.4862 12.1119C32.5634 11.919 32.6031 11.7122 32.6031 11.5034C32.6031 11.2947 32.5634 11.0879 32.4862 10.895C32.409 10.7021 32.2958 10.5269 32.1532 10.3792C32.0105 10.2316 31.8412 10.1145 31.6548 10.0346C31.4684 9.9547 31.2687 9.91357 31.0669 9.91357C30.8652 9.91357 30.6655 9.9547 30.4791 10.0346C30.2927 10.1145 30.1234 10.2316 29.9807 10.3792Z" fill="#E6000D"/>
</svg>
