<svg width="44" height="44" viewBox="0 0 44 44" fill="none" xmlns="http://www.w3.org/2000/svg">
<rect width="44" height="44" fill="white"/>
<path fill-rule="evenodd" clip-rule="evenodd" d="M22.0104 27.3469C19.7597 27.3469 17.734 28.7724 16.9838 30.898C16.7337 31.5983 17.0963 32.361 17.7966 32.5986C18.4968 32.8486 19.247 32.486 19.4971 31.7858C19.8722 30.723 20.885 30.0103 22.0104 30.0103C23.1357 30.0103 24.1486 30.723 24.5237 31.7858C24.7737 32.486 25.549 32.8486 26.2242 32.5986C26.9244 32.3485 27.287 31.5857 27.037 30.898C26.2867 28.7724 24.2611 27.3469 22.0104 27.3469Z" fill="#E6000D"/>
<path fill-rule="evenodd" clip-rule="evenodd" d="M42.0125 22.669C42.0125 17.3798 37.8862 13.0284 32.6721 12.6908C32.6721 9.82745 31.5718 7.13911 29.5461 5.12598C27.533 3.11285 24.8572 2 22.0063 2C19.1554 2 16.4795 3.11285 14.4664 5.12598C12.4408 7.15161 11.3404 9.83995 11.3404 12.6908C6.13882 13.0284 2.00002 17.3798 2.00002 22.669C2.00002 27.9581 6.17633 32.3345 11.428 32.6346C12.0782 37.8987 16.5671 42 22.0063 42C27.4455 42 31.9469 37.8987 32.5846 32.6346C35.0353 32.497 37.3236 31.4842 39.0741 29.7337C40.9622 27.8456 42 25.3323 42 22.6565L42.0125 22.669ZM22.0063 39.3492C17.5924 39.3492 14.0038 35.7605 14.0038 31.3467C14.0038 26.9328 17.5924 23.3442 22.0063 23.3442C26.4202 23.3442 30.0088 26.9328 30.0088 31.3467C30.0088 35.7605 26.4202 39.3492 22.0063 39.3492ZM32.5721 29.9587C31.8844 24.7321 27.4205 20.6808 22.0063 20.6808C16.5921 20.6808 12.1032 24.7446 11.428 29.9837C7.65179 29.6962 4.66336 26.5327 4.66336 22.669C4.66336 18.8053 7.95188 15.3417 11.9906 15.3417H12.6659C13.4036 15.3417 14.0038 14.7415 14.0038 14.0038V12.6658C14.0038 10.5277 14.8415 8.51454 16.342 7.00156C17.8425 5.48859 19.8681 4.66333 22.0063 4.66333C24.1444 4.66333 26.1576 5.50109 27.6705 7.00156C29.1835 8.50203 30.0088 10.5277 30.0088 12.6658V14.0038C30.0088 14.7415 30.609 15.3417 31.3467 15.3417H32.0219C36.0607 15.3417 39.3492 18.6302 39.3492 22.6815C39.3492 24.6446 38.5865 26.4826 37.1985 27.8706C35.9481 29.121 34.3226 29.8337 32.5721 29.9587Z" fill="#E6000D"/>
<path fill-rule="evenodd" clip-rule="evenodd" d="M22.0066 32.6706C21.2688 32.6706 20.6687 33.2708 20.6687 34.0085C20.6687 34.7462 21.2688 35.3464 22.0066 35.3464C22.7443 35.3464 23.3445 34.7462 23.3445 34.0085C23.3445 33.2708 22.7443 32.6706 22.0066 32.6706Z" fill="#E6000D"/>
</svg>
