<svg width="138" height="127" viewBox="0 0 138 127" fill="none" xmlns="http://www.w3.org/2000/svg">
<g clip-path="url(#clip0_1_825)">
<path d="M24.3963 -0.815063H113.603C120.287 -0.815063 126.698 1.8469 131.426 6.5863C136.153 11.3259 138.809 17.7551 138.809 24.4594V102.938C138.809 109.642 136.153 116.071 131.426 120.811C126.698 125.55 120.287 128.212 113.603 128.212H24.3963C17.7124 128.212 11.3014 125.55 6.57408 120.811C1.84675 116.071 -0.809609 109.642 -0.809708 102.938V24.4594C-0.809644 17.7551 1.84672 11.3259 6.57408 6.5863C11.3014 1.84682 17.7124 -0.815058 24.3963 -0.815063ZM7.62291 102.942C7.63846 107.394 9.40949 111.661 12.5506 114.81C15.6919 117.959 19.9488 119.736 24.3924 119.751H48.3856V89.2367C48.3929 88.5993 48.2739 87.9665 48.035 87.3754C47.7937 86.7783 47.435 86.2355 46.9803 85.7797C46.5257 85.3238 45.9839 84.9643 45.3876 84.722C44.7972 84.4822 44.1651 84.3622 43.5282 84.3695H7.62291V102.942ZM130.378 24.4554C130.362 20.0031 128.591 15.7366 125.45 12.5873C122.309 9.43794 118.052 7.66155 113.608 7.64587H24.3924C19.9488 7.66148 15.6919 9.43802 12.5506 12.5873C9.40949 15.7366 7.63846 20.0031 7.62291 24.4554V75.9095H43.5282C47.0517 75.9096 50.4312 77.3129 52.9237 79.8119C55.4164 82.311 56.8172 85.701 56.8172 89.2367V119.751H113.608C118.052 119.736 122.309 117.959 125.45 114.81C128.591 111.661 130.362 107.394 130.378 102.942V24.4554Z" fill="#E6000D" stroke="#EAEAEA" stroke-width="2.5"/>
<path d="M101.796 26.5649C102.352 26.5649 102.903 26.6747 103.417 26.8881C103.931 27.1015 104.398 27.4144 104.792 27.809C105.185 28.2038 105.498 28.6727 105.712 29.1889C105.925 29.7051 106.034 30.2589 106.034 30.8178C106.034 31.3765 105.925 31.9297 105.712 32.4457C105.499 32.9615 105.186 33.4301 104.793 33.8246L81.2888 57.3354L79.155 59.4692H90.864C91.981 59.4693 93.0527 59.9146 93.8435 60.7075C94.6345 61.5005 95.0798 62.5767 95.0798 63.6996C95.0798 64.8225 94.6345 65.8988 93.8435 66.6918C93.0527 67.4846 91.9809 67.93 90.864 67.9301H68.9988C67.8818 67.93 66.8101 67.4846 66.0193 66.6918C65.2283 65.8988 64.783 64.8225 64.7829 63.6996V41.7778C64.7831 40.6549 65.2283 39.5786 66.0193 38.7856C66.8101 37.9928 67.8819 37.5484 68.9988 37.5483C70.1159 37.5483 71.1883 37.9927 71.9792 38.7856C72.7702 39.5786 73.2154 40.6549 73.2156 41.7778V53.52L75.3513 51.3735L98.7995 27.809C99.1932 27.4143 99.6607 27.1016 100.175 26.8881C100.688 26.6747 101.24 26.5649 101.796 26.5649Z" fill="#E6000D" stroke="#EAEAEA" stroke-width="2.5"/>
</g>
<defs>
<clipPath id="clip0_1_825">
<rect width="138" height="127" fill="white"/>
</clipPath>
</defs>
</svg>
