<svg width="44" height="44" viewBox="0 0 44 44" fill="none" xmlns="http://www.w3.org/2000/svg">
<g clip-path="url(#clip0_1_400)">
<path d="M22.0004 9.65039C19.5578 9.65039 17.17 10.3747 15.1391 11.7317C13.1082 13.0888 11.5252 15.0176 10.5905 17.2742C9.65574 19.5309 9.41117 22.0141 9.8877 24.4098C10.3642 26.8054 11.5404 29.006 13.2676 30.7332C14.9948 32.4603 17.1954 33.6366 19.591 34.1131C21.9867 34.5896 24.4699 34.345 26.7265 33.4103C28.9832 32.4756 30.912 30.8926 32.269 28.8617C33.6261 26.8307 34.3504 24.443 34.3504 22.0004C34.3467 18.7261 33.0443 15.587 30.7291 13.2717C28.4138 10.9565 25.2747 9.65411 22.0004 9.65039ZM22.0004 33.2277C19.7798 33.2277 17.6092 32.5692 15.7629 31.3355C13.9165 30.1019 12.4775 28.3484 11.6277 26.2969C10.778 24.2454 10.5556 21.9879 10.9889 19.8101C11.4221 17.6322 12.4914 15.6317 14.0615 14.0615C15.6317 12.4913 17.6322 11.4221 19.8101 10.9888C21.9879 10.5556 24.2454 10.778 26.2969 11.6277C28.3484 12.4775 30.1019 13.9165 31.3355 15.7629C32.5692 17.6092 33.2277 19.7798 33.2277 22.0004C33.2242 24.977 32.0403 27.8307 29.9355 29.9355C27.8307 32.0403 24.977 33.2242 22.0004 33.2277Z" fill="#E6000D" stroke="#E6000D"/>
<path d="M39.8559 18.9537L38.0268 18.2229C37.6211 16.4961 36.9366 14.847 36.0001 13.3405L36.7741 11.5279C36.9025 11.2403 36.9473 10.9224 36.9033 10.6105C36.8593 10.2986 36.7282 10.0055 36.5252 9.7647C35.8287 8.93679 35.0623 8.17037 34.2344 7.47394C33.9942 7.27021 33.7014 7.13838 33.3896 7.09357C33.0778 7.04876 32.7597 7.09279 32.4718 7.2206L30.6586 7.99834C29.1521 7.06187 27.503 6.37734 25.7762 5.97167L25.0441 4.13944C24.928 3.84972 24.7349 3.5973 24.4856 3.40952C24.2363 3.22174 23.9404 3.10577 23.6299 3.07417C22.5455 2.97528 21.4544 2.97528 20.3701 3.07417C20.0588 3.10577 19.7622 3.22215 19.5125 3.41065C19.2628 3.59915 19.0696 3.85254 18.954 4.14324L18.2231 5.9723C16.4963 6.37797 14.8472 7.06251 13.3407 7.99897L11.5281 7.2244C11.2404 7.09612 10.9223 7.05148 10.6103 7.09562C10.2984 7.13975 10.0052 7.27086 9.7643 7.47394C8.93653 8.17053 8.17013 8.93693 7.47353 9.7647C7.27056 10.0053 7.13949 10.2981 7.09535 10.6098C7.05121 10.9214 7.0958 11.2392 7.224 11.5266L7.99857 13.3405C7.0621 14.847 6.37757 16.4961 5.9719 18.2229L4.13967 18.955C3.84995 19.0711 3.59752 19.2642 3.40975 19.5135C3.22197 19.7628 3.10599 20.0587 3.0744 20.3692C2.9752 21.4536 2.9752 22.5447 3.0744 23.629C3.106 23.9403 3.22238 24.2369 3.41088 24.4866C3.59938 24.7363 3.85277 24.9295 4.14347 25.0451L5.97253 25.776C6.3782 27.5028 7.06274 29.1519 7.9992 30.6584L7.22463 32.471C7.09594 32.7585 7.05103 33.0765 7.09506 33.3884C7.13909 33.7003 7.27028 33.9935 7.47353 34.2342C8.17018 35.0623 8.93681 35.8289 9.76493 36.5256C10.0055 36.7285 10.2984 36.8596 10.61 36.9038C10.9216 36.9479 11.2394 36.9033 11.5269 36.7751L13.3407 36.0005C14.8472 36.937 16.4963 37.6215 18.2231 38.0272L18.9552 39.8594C19.0714 40.1494 19.2647 40.402 19.514 40.5901C19.7634 40.7782 20.0594 40.8945 20.3701 40.9266C20.9268 40.976 21.4943 41.0001 22.0465 41.0001C22.5988 41.0001 23.1365 40.976 23.6299 40.9266C23.9409 40.8943 24.2372 40.7776 24.4867 40.589C24.7362 40.4005 24.9294 40.1473 25.0454 39.8569L25.7762 38.0278C27.503 37.6222 29.1521 36.9376 30.6586 36.0012L32.4712 36.7751C32.7587 36.9038 33.0767 36.9487 33.3887 36.9047C33.7006 36.8606 33.9937 36.7295 34.2344 36.5262C35.0625 35.8299 35.8289 35.0635 36.5252 34.2354C36.7285 33.995 36.8599 33.702 36.9041 33.3902C36.9484 33.0784 36.9037 32.7604 36.7753 32.4729L36.0008 30.659C36.9372 29.1525 37.6218 27.5034 38.0274 25.7766L39.8597 25.0439C40.1496 24.9277 40.4022 24.7344 40.5903 24.4851C40.7784 24.2357 40.8948 23.9397 40.9268 23.629C41.0254 22.5436 41.0254 21.4515 40.9268 20.3661C40.8939 20.0554 40.7768 19.7597 40.588 19.5108C40.3993 19.2619 40.1461 19.0692 39.8559 18.9537ZM39.6659 23.5169C39.6549 23.5949 39.6234 23.6686 39.5745 23.7304C39.5257 23.7922 39.4612 23.8398 39.3878 23.8684L37.2465 24.7228C37.1499 24.7614 37.0643 24.8232 36.9973 24.9027C36.9302 24.9822 36.8838 25.077 36.8621 25.1788C36.4772 26.9857 35.7636 28.7065 34.7569 30.2556C34.7003 30.3427 34.6661 30.4424 34.6571 30.5459C34.6482 30.6494 34.6648 30.7535 34.7056 30.849L35.6106 32.97C35.6454 33.0422 35.6586 33.1228 35.6489 33.2023C35.6391 33.2818 35.6067 33.3568 35.5555 33.4184C34.9036 34.1937 34.1859 34.9112 33.4104 35.5629C33.3487 35.6121 33.2741 35.6427 33.1955 35.6509C33.117 35.659 33.0377 35.6446 32.9671 35.6091L30.8473 34.7047C30.7518 34.664 30.6477 34.6473 30.5442 34.6563C30.4407 34.6652 30.341 34.6995 30.2539 34.756C28.7048 35.7627 26.984 36.4763 25.1771 36.8612C25.0754 36.8829 24.9805 36.9294 24.901 36.9964C24.8215 37.0635 24.7597 37.1491 24.7211 37.2457L23.8674 39.3825C23.8386 39.4575 23.79 39.5233 23.7268 39.5729C23.6635 39.6224 23.588 39.6538 23.5083 39.6637C22.5008 39.755 21.4871 39.755 20.4797 39.6637C20.4017 39.6528 20.328 39.6213 20.2662 39.5724C20.2044 39.5235 20.1568 39.4591 20.1282 39.3857L19.2763 37.2463C19.2377 37.1497 19.176 37.0641 19.0964 36.997C19.0169 36.93 18.9221 36.8836 18.8203 36.8619C17.0134 36.4769 15.2926 35.7634 13.7435 34.7567C13.6565 34.6998 13.5568 34.6653 13.4533 34.6564C13.3497 34.6474 13.2456 34.6643 13.1501 34.7054L11.0291 35.6104C10.9569 35.645 10.8764 35.6582 10.7969 35.6486C10.7175 35.639 10.6424 35.6068 10.5807 35.5559C9.80556 34.9036 9.08808 34.1857 8.4362 33.4102C8.38731 33.3483 8.35701 33.2737 8.34883 33.1952C8.34064 33.1168 8.35491 33.0376 8.38997 32.9669L9.29437 30.8471C9.33514 30.7516 9.35178 30.6475 9.34283 30.544C9.33389 30.4405 9.29963 30.3408 9.24307 30.2537C8.23638 28.7046 7.52281 26.9838 7.13787 25.1769C7.11616 25.0751 7.06974 24.9803 7.00269 24.9008C6.93564 24.8213 6.85003 24.7595 6.75343 24.7209L4.61593 23.8697C4.54104 23.8408 4.47539 23.7922 4.42598 23.7289C4.37657 23.6657 4.34525 23.5902 4.33537 23.5106C4.24315 22.5029 4.24315 21.489 4.33537 20.4813C4.34635 20.4035 4.37783 20.33 4.42657 20.2684C4.47532 20.2067 4.53958 20.1591 4.61277 20.1305L6.7528 19.2761C6.8494 19.2375 6.935 19.1757 7.00205 19.0962C7.0691 19.0167 7.11553 18.9218 7.13723 18.8201C7.52218 17.0132 8.23575 15.2924 9.24243 13.7433C9.29899 13.6562 9.33325 13.5565 9.3422 13.453C9.35115 13.3495 9.3345 13.2454 9.29373 13.1499L8.3887 11.0282C8.35418 10.956 8.34097 10.8755 8.35062 10.7961C8.36027 10.7166 8.39237 10.6416 8.44317 10.5798C9.09546 9.80505 9.81313 9.0878 10.5883 8.43597C10.6502 8.38719 10.7247 8.35691 10.8032 8.34862C10.8816 8.34032 10.9608 8.35436 11.0316 8.3891L13.1514 9.2935C13.2468 9.3346 13.351 9.35143 13.4545 9.34248C13.5581 9.33353 13.6578 9.29908 13.7448 9.2422C15.2939 8.23552 17.0147 7.52195 18.8216 7.137C18.9233 7.1153 19.0182 7.06887 19.0977 7.00182C19.1772 6.93477 19.239 6.84917 19.2776 6.75257L20.1313 4.6157C20.1602 4.54081 20.2088 4.47516 20.2721 4.42575C20.3353 4.37634 20.4108 4.34502 20.4904 4.33514C21.4981 4.24323 22.512 4.24323 23.5197 4.33514C23.5975 4.34612 23.671 4.3776 23.7326 4.42634C23.7943 4.47509 23.8419 4.53935 23.8705 4.61254L24.723 6.75257C24.7616 6.84917 24.8234 6.93477 24.9029 7.00182C24.9824 7.06887 25.0773 7.1153 25.179 7.137C26.9859 7.52195 28.7067 8.23552 30.2558 9.2422C30.3429 9.29876 30.4426 9.33303 30.5461 9.34197C30.6496 9.35092 30.7537 9.33427 30.8492 9.2935L32.9703 8.38847C33.0425 8.35403 33.123 8.34086 33.2024 8.35051C33.2818 8.36015 33.3568 8.39221 33.4187 8.44294C34.1936 9.09507 34.9108 9.81275 35.5625 10.588C35.6114 10.65 35.6417 10.7245 35.65 10.8029C35.6583 10.8814 35.6442 10.9606 35.6094 11.0314L34.705 13.1511C34.6642 13.2467 34.6476 13.3508 34.6565 13.4543C34.6654 13.5577 34.6997 13.6574 34.7563 13.7446C35.763 15.2937 36.4765 17.0145 36.8615 18.8214C36.8832 18.9231 36.9296 19.0179 36.9966 19.0975C37.0637 19.177 37.1493 19.2388 37.2459 19.2774L39.3828 20.1311C39.4568 20.1594 39.5219 20.2071 39.5712 20.2692C39.6206 20.3312 39.6524 20.4054 39.6633 20.4839V20.4902C39.7549 21.4979 39.7551 22.5117 39.664 23.5194L39.6659 23.5169Z" fill="#E6000D" stroke="#E6000D"/>
<path d="M22.6592 14.3018C22.9291 14.2195 23.2198 14.2376 23.4775 14.3525L23.4785 14.3516C23.7472 14.4708 23.9646 14.6823 24.0918 14.9473C24.2186 15.2116 24.2462 15.5123 24.1719 15.7959L24.1729 15.7969L23.2793 19.3174H25.167C25.4217 19.3177 25.6719 19.3873 25.8896 19.5195C26.1075 19.6519 26.2857 19.8422 26.4033 20.0684H26.4023C26.5308 20.306 26.5931 20.5738 26.582 20.8438C26.5708 21.1145 26.4863 21.3768 26.3379 21.6035L21.3584 29.2002L21.3594 29.2012C21.2096 29.4407 20.9783 29.6179 20.708 29.7002C20.4377 29.7824 20.1465 29.764 19.8887 29.6484C19.6205 29.5284 19.4038 29.3169 19.2773 29.0518C19.1512 28.7872 19.1224 28.4865 19.1973 28.2031L20.0889 24.6836H18.2002C17.9454 24.6835 17.6954 24.6136 17.4775 24.4814C17.2596 24.3492 17.0817 24.1597 16.9639 23.9336V23.9326C16.8357 23.6952 16.7741 23.4278 16.7852 23.1582C16.7963 22.8874 16.8799 22.6242 17.0283 22.3975H17.0293L22.0098 14.7979C22.1595 14.5598 22.3901 14.3839 22.6592 14.3018ZM18.4248 23.123L21.0947 23.1172H21.0957C21.2148 23.1172 21.3324 23.1441 21.4395 23.1963C21.5466 23.2486 21.6406 23.3249 21.7139 23.4189C21.7871 23.513 21.8378 23.6226 21.8623 23.7393C21.8868 23.8559 21.8847 23.9772 21.8555 24.0928L21.2373 26.5293L24.9414 20.877L22.2725 20.8838C22.1534 20.8838 22.0357 20.8569 21.9287 20.8047C21.8216 20.7524 21.7276 20.676 21.6543 20.582C21.5811 20.4881 21.5304 20.3783 21.5059 20.2617C21.4813 20.1452 21.4837 20.0246 21.5127 19.9092L22.1289 17.4717L18.4248 23.123Z" fill="#E6000D" stroke="#E6000D" stroke-width="0.3"/>
</g>
<defs>
<clipPath id="clip0_1_400">
<rect width="40" height="40" fill="white" transform="translate(2 2)"/>
</clipPath>
</defs>
</svg>
