<svg width="138" height="138" viewBox="0 0 138 138" fill="none" xmlns="http://www.w3.org/2000/svg">
<path d="M109.834 68.8835C109.834 91.4999 91.4996 109.834 68.8832 109.834C46.2668 109.834 27.9327 91.4999 27.9327 68.8835C27.9327 46.2671 46.2668 27.933 68.8832 27.933C91.4996 27.933 109.834 46.2671 109.834 68.8835Z" stroke="#E6000D" stroke-width="6" stroke-miterlimit="10" stroke-linecap="round" stroke-linejoin="round"/>
<path d="M89.3575 56.5989L64.7872 81.1692L48.407 64.789" stroke="#E6000D" stroke-width="6" stroke-miterlimit="10" stroke-linecap="round" stroke-linejoin="round"/>
<path d="M63.5723 5.04507C66.6332 2.43789 71.1334 2.43789 74.1943 5.04507L84.8368 14.4377L102.847 13.0441C106.855 12.7339 110.496 15.3791 111.44 19.2874L115.051 34.2414L130.786 43.6606C134.212 45.766 135.602 50.0461 134.069 53.7625L127.852 68.826L134.069 83.8895C135.602 87.6062 134.212 91.8863 130.786 93.9917L115.051 103.411L111.44 118.365C110.496 122.273 106.855 124.918 102.847 124.608L85.0129 123.228L74.1943 132.722C71.1334 135.329 66.6332 135.329 63.5723 132.722L52.7538 123.228L34.9201 124.608C30.9113 124.918 27.2703 122.273 26.3268 118.365L22.7016 103.352L6.9924 93.9917C3.56676 91.8863 2.17608 87.6062 3.71009 83.8895L9.92637 68.826L3.71009 53.7625C2.17608 50.0461 3.56676 45.766 6.9924 43.6606L21.3551 35.1278L26.3268 19.2874C27.2703 15.3791 30.9113 12.7339 34.9201 13.0441L52.9301 14.4377L63.5723 5.04507Z" stroke="#E6000D" stroke-width="6" stroke-miterlimit="10" stroke-linecap="round" stroke-linejoin="round"/>
</svg>
