<svg width="150" height="150" viewBox="0 0 150 150" fill="none" xmlns="http://www.w3.org/2000/svg">
<path d="M126.104 18L126.553 18.0059C135.94 18.2445 143.508 25.9596 143.508 35.4033V98.5605C143.508 108.154 135.698 115.964 126.104 115.964H24.4033C14.8099 115.964 7 108.154 7 98.5605V35.4033C7.00001 25.8099 14.8099 18 24.4033 18H126.104ZM23.3037 116.93C23.3574 116.933 23.411 116.938 23.4648 116.94L23.9287 116.958C23.7195 116.953 23.5112 116.942 23.3037 116.93ZM24.4033 23.8262C18.0206 23.8262 12.8262 29.0206 12.8262 35.4033V98.5605C12.8262 104.943 18.0206 110.138 24.4033 110.138H126.104C132.487 110.138 137.682 104.943 137.682 98.5605V35.4033C137.682 29.0206 132.487 23.8262 126.104 23.8262H24.4033ZM127.177 109.083C127.034 109.097 126.89 109.108 126.746 109.116C126.89 109.108 127.034 109.097 127.177 109.083ZM23.249 109.073C23.102 109.057 22.9557 109.04 22.8105 109.018C22.9557 109.04 23.102 109.057 23.249 109.073ZM127.694 109.018C127.554 109.039 127.413 109.056 127.271 109.071C127.413 109.056 127.554 109.039 127.694 109.018ZM22.2383 108.913C22.0837 108.881 21.9303 108.846 21.7783 108.807C21.9303 108.846 22.0837 108.881 22.2383 108.913ZM128.211 108.926C128.093 108.95 127.974 108.969 127.854 108.989C127.974 108.969 128.093 108.95 128.211 108.926ZM128.716 108.81C128.6 108.839 128.483 108.865 128.366 108.891C128.483 108.865 128.6 108.839 128.716 108.81ZM21.6719 108.777C21.5421 108.743 21.4129 108.707 21.2852 108.668C21.4129 108.707 21.5422 108.743 21.6719 108.777ZM129.211 108.671C129.099 108.705 128.985 108.736 128.871 108.767C128.985 108.736 129.099 108.705 129.211 108.671ZM21.1289 108.616C21.0208 108.581 20.9132 108.545 20.8066 108.506C20.9132 108.545 21.0208 108.581 21.1289 108.616ZM129.689 108.51C129.591 108.545 129.491 108.579 129.392 108.611C129.491 108.579 129.591 108.545 129.689 108.51ZM20.6426 108.443C20.5358 108.403 20.4293 108.362 20.3242 108.317C20.4293 108.362 20.5358 108.403 20.6426 108.443ZM130.164 108.325C130.073 108.363 129.98 108.398 129.888 108.434C129.98 108.398 130.073 108.363 130.164 108.325ZM20.1768 108.253C20.0736 108.208 19.9706 108.163 19.8691 108.114C19.9706 108.163 20.0736 108.208 20.1768 108.253ZM130.631 108.117C130.537 108.162 130.443 108.203 130.348 108.245C130.443 108.203 130.537 108.162 130.631 108.117ZM131.084 107.887C130.995 107.935 130.904 107.981 130.813 108.026C130.904 107.981 130.995 107.935 131.084 107.887ZM19.6865 108.022C19.5975 107.978 19.5085 107.934 19.4209 107.887C19.5085 107.934 19.5975 107.978 19.6865 108.022ZM131.535 107.631C131.439 107.689 131.342 107.744 131.244 107.799C131.342 107.744 131.439 107.689 131.535 107.631ZM19.2354 107.783C19.1497 107.735 19.0646 107.686 18.9805 107.636C19.0646 107.686 19.1497 107.735 19.2354 107.783ZM131.952 107.366C131.858 107.429 131.764 107.489 131.668 107.549C131.764 107.489 131.858 107.429 131.952 107.366ZM18.8242 107.54C18.7302 107.481 18.6369 107.422 18.5449 107.36C18.6369 107.422 18.7302 107.481 18.8242 107.54ZM18.3975 107.259C18.3114 107.199 18.2258 107.139 18.1416 107.077C18.2258 107.139 18.3114 107.199 18.3975 107.259ZM132.357 107.082C132.278 107.141 132.197 107.198 132.116 107.254C132.197 107.198 132.278 107.141 132.357 107.082ZM132.765 106.769C132.681 106.837 132.596 106.902 132.51 106.968C132.596 106.902 132.681 106.837 132.765 106.769ZM17.9834 106.957C17.9055 106.897 17.8281 106.837 17.752 106.775C17.8281 106.837 17.9055 106.897 17.9834 106.957ZM133.141 106.446C133.062 106.516 132.983 106.586 132.902 106.653C132.983 106.586 133.062 106.516 133.141 106.446ZM17.585 106.636C17.5114 106.574 17.438 106.511 17.3662 106.447C17.438 106.511 17.5114 106.574 17.585 106.636ZM17.2148 106.309C17.1402 106.239 17.0667 106.169 16.9941 106.098C17.0667 106.169 17.1402 106.239 17.2148 106.309ZM133.498 106.111C133.43 106.178 133.361 106.244 133.291 106.309C133.361 106.244 133.43 106.178 133.498 106.111ZM133.853 105.748C133.785 105.821 133.716 105.893 133.646 105.964C133.716 105.893 133.785 105.821 133.853 105.748ZM16.8516 105.954C16.7849 105.886 16.7192 105.817 16.6543 105.747C16.7192 105.817 16.7849 105.886 16.8516 105.954ZM16.5166 105.597C16.449 105.521 16.3819 105.445 16.3164 105.367C16.3819 105.445 16.449 105.521 16.5166 105.597ZM134.18 105.378C134.118 105.451 134.055 105.525 133.991 105.597C134.055 105.525 134.118 105.451 134.18 105.378ZM134.486 104.999C134.432 105.069 134.377 105.139 134.321 105.208C134.377 105.139 134.432 105.069 134.486 104.999ZM16.1787 105.2C16.1261 105.135 16.0745 105.069 16.0234 105.003C16.0745 105.069 16.1261 105.135 16.1787 105.2ZM134.809 104.559C134.75 104.643 134.691 104.726 134.63 104.809C134.691 104.726 134.75 104.643 134.809 104.559ZM15.8672 104.795C15.8101 104.717 15.7542 104.638 15.6992 104.559C15.7542 104.638 15.8101 104.717 15.8672 104.795ZM135.086 104.136C135.027 104.231 134.966 104.325 134.904 104.418C134.966 104.325 135.027 104.231 135.086 104.136ZM15.5967 104.408C15.5343 104.315 15.4735 104.22 15.4141 104.124C15.4735 104.22 15.5343 104.315 15.5967 104.408ZM15.332 103.991C15.2744 103.895 15.2187 103.798 15.1641 103.7C15.2187 103.798 15.2744 103.895 15.332 103.991ZM135.327 103.728C135.279 103.813 135.23 103.898 135.18 103.982C135.23 103.898 135.279 103.813 135.327 103.728ZM6.67969 103.521C6.64144 103.385 6.60449 103.248 6.56934 103.11C6.60449 103.248 6.64144 103.385 6.67969 103.521ZM135.561 103.289C135.518 103.374 135.475 103.459 135.431 103.542C135.475 103.459 135.518 103.374 135.561 103.289ZM15.0762 103.54C15.0319 103.457 14.9894 103.374 14.9473 103.29C14.9894 103.374 15.0319 103.457 15.0762 103.54ZM135.787 102.809C135.746 102.901 135.705 102.993 135.662 103.084C135.705 102.993 135.746 102.901 135.787 102.809ZM14.835 103.062C14.8005 102.99 14.7682 102.916 14.7354 102.842C14.7682 102.916 14.8005 102.99 14.835 103.062ZM6.45898 102.653C6.42795 102.517 6.39909 102.38 6.37109 102.243C6.39909 102.38 6.42794 102.517 6.45898 102.653ZM135.987 102.32C135.947 102.426 135.906 102.532 135.862 102.637C135.906 102.532 135.947 102.426 135.987 102.32ZM14.6367 102.617C14.5991 102.527 14.5645 102.435 14.5293 102.344C14.5645 102.435 14.5991 102.527 14.6367 102.617ZM136.167 101.813C136.13 101.929 136.091 102.043 136.05 102.156C136.091 102.043 136.13 101.929 136.167 101.813ZM14.4531 102.146C14.4221 102.06 14.3941 101.973 14.3652 101.886C14.3941 101.973 14.4221 102.06 14.4531 102.146ZM136.321 101.291C136.287 101.421 136.251 101.55 136.212 101.678C136.251 101.55 136.287 101.421 136.321 101.291ZM14.2871 101.647C14.2536 101.538 14.2234 101.427 14.1934 101.316C14.2234 101.427 14.2536 101.538 14.2871 101.647ZM136.451 100.751C136.42 100.897 136.387 101.041 136.351 101.185C136.387 101.041 136.42 100.897 136.451 100.751ZM14.1523 101.17C14.1189 101.039 14.09 100.906 14.0615 100.773C14.09 100.906 14.1189 101.039 14.1523 101.17ZM14.0381 100.671C14.0119 100.542 13.9902 100.412 13.9688 100.282C13.9902 100.412 14.0119 100.542 14.0381 100.671ZM13.9463 100.153C13.9305 100.049 13.918 99.9441 13.9053 99.8389C13.918 99.9441 13.9305 100.049 13.9463 100.153ZM136.608 99.7803C136.594 99.9049 136.58 100.029 136.562 100.152C136.58 100.029 136.594 99.9049 136.608 99.7803ZM13.8398 99.1045C13.8467 99.2393 13.8582 99.3734 13.8701 99.5068C13.8577 99.3675 13.8458 99.2277 13.8389 99.0869L13.8398 99.1045ZM13.8398 34.8594V34.8604V34.8594ZM6.66992 30.4766C6.69848 30.3739 6.7285 30.2718 6.75879 30.1699C6.7285 30.2718 6.69848 30.3739 6.66992 30.4766ZM134.868 19.2246H134.869H134.868ZM133.67 18.6289H133.671H133.67ZM23.002 116.91C23.1023 116.918 23.2029 116.924 23.3037 116.93C23.2029 116.924 23.1023 116.918 23.002 116.91ZM22.0684 116.815C21.9266 116.797 21.7853 116.778 21.6445 116.757C21.7853 116.778 21.9266 116.797 22.0684 116.815ZM22.6738 108.993C22.5403 108.971 22.4072 108.949 22.2754 108.922C22.4072 108.949 22.5403 108.971 22.6738 108.993ZM6.74023 103.729C6.71993 103.66 6.6992 103.591 6.67969 103.521C6.6992 103.591 6.71993 103.66 6.74023 103.729ZM6.5332 102.962C6.50792 102.859 6.48254 102.757 6.45898 102.653C6.48254 102.757 6.50792 102.859 6.5332 102.962ZM136.537 100.289C136.515 100.423 136.493 100.556 136.466 100.688C136.493 100.556 136.515 100.423 136.537 100.289ZM6.56934 30.8525C6.60148 30.7267 6.63519 30.6014 6.66992 30.4766C6.63519 30.6014 6.60148 30.7267 6.56934 30.8525Z" fill="#E6000D"/>
<path d="M91.8477 126.437C93.4564 126.437 94.7607 127.741 94.7607 129.35C94.7607 130.956 93.4512 132.263 91.8398 132.263H58.667C57.0581 132.263 55.7539 130.959 55.7539 129.35C55.754 127.741 57.0581 126.437 58.667 126.437H91.8477ZM92.2139 133.244C92.0908 133.256 91.9659 133.263 91.8398 133.263C91.966 133.263 92.0907 133.256 92.2139 133.244ZM58.2666 133.243V133.242V133.243ZM92.333 133.23C92.2979 133.235 92.2629 133.24 92.2275 133.243C92.2629 133.24 92.298 133.235 92.333 133.23ZM56.8018 132.791V132.79V132.791ZM55.4219 131.538V131.537C55.457 131.589 55.4937 131.64 55.5312 131.69C55.6064 131.791 55.6862 131.888 55.7705 131.98C55.6443 131.842 55.5273 131.694 55.4219 131.538ZM92.5645 125.503C92.6275 125.515 92.69 125.527 92.752 125.542C92.69 125.527 92.6275 125.515 92.5645 125.503ZM92.9043 133.114C92.866 133.125 92.8278 133.136 92.7891 133.146C92.8278 133.136 92.866 133.125 92.9043 133.114ZM93.2588 132.996C93.2221 133.01 93.1856 133.025 93.1484 133.038C93.1856 133.025 93.2221 133.01 93.2588 132.996ZM95.6152 128.294C95.6246 128.327 95.6341 128.361 95.6426 128.395C95.6341 128.361 95.6246 128.327 95.6152 128.294ZM95.4941 127.931C95.5081 127.967 95.5222 128.003 95.5352 128.039C95.5222 128.003 95.5081 127.967 95.4941 127.931ZM92.4404 125.48C92.4821 125.487 92.5233 125.495 92.5645 125.503C92.5232 125.495 92.4821 125.487 92.4404 125.48Z" fill="#E6000D"/>
</svg>
