<svg width="44" height="44" viewBox="0 0 44 44" fill="none" xmlns="http://www.w3.org/2000/svg">
<rect width="44" height="44" fill="white"/>
<path d="M38.9564 12.2992C38.9356 11.2193 38.9158 10.1991 38.9158 9.21212C38.9158 8.43889 38.2818 7.81202 37.4994 7.81202C31.4424 7.81202 26.8307 6.09121 22.9866 2.39644C22.4367 1.86776 21.5616 1.86795 21.0119 2.39644C17.1682 6.09121 12.5573 7.81202 6.50057 7.81202C5.71839 7.81202 5.08426 8.43889 5.08426 9.21212C5.08426 10.1993 5.06462 11.2199 5.04366 12.3C4.84953 22.3501 4.58364 36.1142 21.5354 41.9227C21.6857 41.9742 21.8424 42 21.9992 42C22.1559 42 22.3128 41.9742 22.463 41.9227C39.416 36.114 39.1505 22.3495 38.9564 12.2992ZM21.9993 39.1141C7.46101 33.8932 7.68083 22.4563 7.8759 12.3534C7.88761 11.747 7.89894 11.1594 7.90687 10.5833C13.5797 10.3466 18.116 8.64722 21.9993 5.30304C25.8831 8.64722 30.4202 10.3468 36.0933 10.5833C36.1013 11.1592 36.1126 11.7465 36.1243 12.3524C36.3192 22.4557 36.5388 33.8931 21.9993 39.1141Z" fill="#E6000D"/>
<path d="M26.8768 17.1365L20.041 23.8938L17.1239 21.0101C16.5708 20.4635 15.674 20.4635 15.1211 21.0101C14.568 21.5571 14.568 22.4435 15.1211 22.9902L19.0395 26.8639C19.316 27.1372 19.6786 27.2738 20.041 27.2738C20.4033 27.2738 20.7659 27.1372 21.0424 26.8639L28.8795 19.1166C29.4328 18.5699 29.4328 17.6833 28.8797 17.1367C28.3268 16.5899 27.4299 16.5897 26.8768 17.1365Z" fill="#E6000D"/>
</svg>
