<svg width="138" height="127" viewBox="0 0 138 127" fill="none" xmlns="http://www.w3.org/2000/svg">
<g clip-path="url(#clip0_1_116)">
<path d="M24.3964 -0.814941H113.603C120.287 -0.814941 126.698 1.84702 131.426 6.58643C136.153 11.326 138.809 17.7553 138.809 24.4595V102.938C138.809 109.642 136.153 116.071 131.426 120.811C126.698 125.55 120.287 128.212 113.603 128.212H24.3964C17.7124 128.212 11.3014 125.55 6.5741 120.811C1.84677 116.071 -0.809594 109.642 -0.809692 102.938V24.4595C-0.809629 17.7553 1.84674 11.326 6.5741 6.58643C11.3014 1.84694 17.7124 -0.814936 24.3964 -0.814941ZM7.62292 102.942C7.63848 107.394 9.40951 111.661 12.5507 114.81C15.6919 117.959 19.9488 119.736 24.3925 119.751H48.3856V89.2368C48.3929 88.5994 48.2739 87.9666 48.035 87.3755C47.7937 86.7784 47.435 86.2356 46.9803 85.7798C46.5257 85.324 45.9839 84.9644 45.3876 84.7222C44.7972 84.4824 44.1652 84.3624 43.5282 84.3696H7.62292V102.942ZM130.378 24.4556C130.362 20.0033 128.591 15.7367 125.45 12.5874C122.309 9.43806 118.052 7.66167 113.608 7.646H24.3925C19.9488 7.6616 15.6919 9.43814 12.5507 12.5874C9.40951 15.7367 7.63848 20.0032 7.62292 24.4556V75.9097H43.5282C47.0517 75.9098 50.4312 77.3131 52.9237 79.812C55.4164 82.3112 56.8172 85.7011 56.8173 89.2368V119.751H113.608C118.052 119.736 122.309 117.959 125.45 114.81C128.591 111.661 130.362 107.394 130.378 102.942V24.4556Z" fill="#E6000D" stroke="#EAEAEA" stroke-width="2.5"/>
<path d="M101.796 26.5649C102.352 26.5649 102.903 26.6747 103.417 26.8882C103.931 27.1016 104.398 27.4144 104.792 27.8091C105.185 28.2038 105.498 28.6728 105.712 29.189C105.925 29.7052 106.034 30.2589 106.034 30.8179C106.034 31.3766 105.925 31.9298 105.712 32.4458C105.499 32.9615 105.186 33.4302 104.793 33.8247L81.2888 57.3354L79.155 59.4692H90.864C91.981 59.4693 93.0527 59.9146 93.8435 60.7075C94.6345 61.5006 95.0798 62.5768 95.0798 63.6997C95.0798 64.8226 94.6345 65.8989 93.8435 66.6919C93.0527 67.4847 91.981 67.9301 90.864 67.9302H68.9988C67.8818 67.9301 66.8101 67.4847 66.0193 66.6919C65.2283 65.8989 64.783 64.8226 64.783 63.6997V41.7778C64.7831 40.655 65.2284 39.5786 66.0193 38.7856C66.8101 37.9929 67.8819 37.5484 68.9988 37.5483C70.1159 37.5483 71.1883 37.9927 71.9792 38.7856C72.7702 39.5786 73.2155 40.655 73.2156 41.7778V53.52L75.3513 51.3735L98.7996 27.8091C99.1932 27.4144 99.6607 27.1016 100.175 26.8882C100.688 26.6748 101.24 26.565 101.796 26.5649Z" fill="#E6000D" stroke="#EAEAEA" stroke-width="2.5"/>
</g>
<defs>
<clipPath id="clip0_1_116">
<rect width="138" height="127" fill="white"/>
</clipPath>
</defs>
</svg>
