<svg width="150" height="150" viewBox="0 0 150 150" fill="none" xmlns="http://www.w3.org/2000/svg">
<g clip-path="url(#clip0_1_1178)">
<g clip-path="url(#clip1_1_1178)">
<path d="M17.6652 5.34717H41.922C43.8842 5.34731 45.4738 6.93672 45.4738 8.896C45.4736 10.8552 43.8841 12.4447 41.922 12.4448H17.6652C14.7563 12.445 12.3968 14.8012 12.3966 17.7095V41.9487C12.3964 43.908 10.8071 45.4976 8.84485 45.4976C6.88266 45.4975 5.29325 43.9079 5.29309 41.9487V17.7095C5.29328 10.8825 10.8317 5.3473 17.6652 5.34717Z" fill="#E6000D" stroke="#EAEAEA" stroke-width="1.71642"/>
<path d="M108.075 5.34717H132.331C139.165 5.3474 144.703 10.8826 144.703 17.7095V41.9487C144.703 43.9079 143.114 45.4974 141.152 45.4976C139.189 45.4976 137.599 43.908 137.599 41.9487V17.7095C137.599 14.8013 135.24 12.4451 132.331 12.4448H108.075C106.112 12.4448 104.523 10.8552 104.523 8.896C104.523 6.93665 106.112 5.34721 108.075 5.34717Z" fill="#E6000D" stroke="#EAEAEA" stroke-width="1.71642"/>
<path d="M8.84485 104.505C10.8072 104.505 12.3966 106.095 12.3966 108.054V132.292C12.3966 135.201 14.7562 137.558 17.6652 137.558H41.922C43.8842 137.558 45.4738 139.148 45.4738 141.107C45.4736 143.066 43.8841 144.656 41.922 144.656H17.6652C10.8315 144.656 5.29309 139.12 5.29309 132.292V108.054C5.29309 106.095 6.88255 104.505 8.84485 104.505Z" fill="#E6000D" stroke="#EAEAEA" stroke-width="1.71642"/>
<path d="M141.152 104.505C143.114 104.506 144.703 106.095 144.703 108.054V132.292C144.703 139.12 139.165 144.656 132.331 144.656H108.075C106.112 144.656 104.523 143.066 104.523 141.107C104.523 139.148 106.112 137.558 108.075 137.558H132.331C135.24 137.558 137.599 135.201 137.599 132.292V108.054C137.599 106.095 139.189 104.505 141.152 104.505Z" fill="#E6000D" stroke="#EAEAEA" stroke-width="1.71642"/>
<path fill-rule="evenodd" clip-rule="evenodd" d="M74.999 61.7778C67.6917 61.7778 61.7683 67.6969 61.7683 74.9989C61.7683 82.3009 67.6917 88.2199 74.999 88.2199C82.3064 88.2199 88.2298 82.3009 88.2298 74.9989C88.2298 67.6969 82.3064 61.7778 74.999 61.7778ZM70.5888 74.9989C70.5888 72.5649 72.5633 70.5919 74.999 70.5919C77.4348 70.5919 79.4093 72.5649 79.4093 74.9989C79.4093 77.4329 77.4348 79.4059 74.999 79.4059C72.5633 79.4059 70.5888 77.4329 70.5888 74.9989Z" fill="#E6000D"/>
<path d="M74.9988 61.7778C82.306 61.7778 88.23 67.6967 88.2302 74.9985C88.2302 82.3005 82.3061 88.2202 74.9988 88.2202C67.6916 88.2201 61.7683 82.3004 61.7683 74.9985C61.7685 67.6968 67.6917 61.778 74.9988 61.7778ZM74.9988 63.4946C68.6385 63.4948 63.4853 68.6459 63.4851 74.9985C63.4851 81.3513 68.6383 86.5033 74.9988 86.5034C81.3593 86.5034 86.5134 81.3514 86.5134 74.9985C86.5132 68.6458 81.3592 63.4946 74.9988 63.4946ZM74.9988 68.8755C78.3812 68.8755 81.1255 71.6156 81.1257 74.9985C81.1257 78.3817 78.3813 81.1226 74.9988 81.1226C71.6164 81.1224 68.8728 78.3816 68.8728 74.9985C68.873 71.6157 71.6165 68.8756 74.9988 68.8755ZM74.9988 70.5923C72.5632 70.5924 70.5888 72.5648 70.5886 74.9985C70.5886 77.4324 72.5631 79.4056 74.9988 79.4058C77.4346 79.4058 79.4089 77.4325 79.4089 74.9985C79.4087 72.5647 77.4344 70.5923 74.9988 70.5923Z" fill="#EAEAEA"/>
<path d="M66.178 36.1941H83.8187C85.781 36.1941 87.3704 37.7836 87.3704 39.7429V45.1511L88.8353 43.6873L91.1976 41.3279C92.5847 39.9417 94.8339 39.9417 96.221 41.3279L108.695 53.7927C110.082 55.1784 110.082 57.4246 108.695 58.8103L106.333 61.1707L104.867 62.6365H110.28C112.242 62.6365 113.832 64.2259 113.832 66.1853V83.8132C113.832 85.7725 112.242 87.3621 110.28 87.3621H104.867L106.333 88.8269L108.696 91.1873C109.361 91.8525 109.735 92.7551 109.735 93.696C109.735 94.637 109.361 95.5396 108.696 96.2048L96.221 108.67C94.8339 110.056 92.5847 110.056 91.1976 108.67L88.8353 106.31L87.3704 104.846V110.255C87.3704 112.214 85.781 113.803 83.8187 113.803H66.178C64.2156 113.803 62.6253 112.214 62.6253 110.255V104.846L61.1605 106.31L58.7991 108.671C57.4116 110.057 55.1622 110.057 53.7747 108.671L41.3011 96.2048C39.9146 94.8192 39.9144 92.5734 41.3011 91.1873L43.6634 88.8269L45.1292 87.3621H39.7161C37.754 87.362 36.1645 85.7725 36.1644 83.8132V66.1853C36.1644 65.2443 36.5384 64.3409 37.2044 63.6755C37.8706 63.0101 38.7741 62.6365 39.7161 62.6365H45.1292L43.6634 61.1707L41.3011 58.8103H41.3001C39.914 57.424 39.9144 55.1777 41.3011 53.7917L53.7757 41.3269C54.4416 40.6616 55.3449 40.2878 56.2874 40.2878C57.2293 40.2879 58.1327 40.6614 58.7991 41.3269L61.1605 43.6873L62.6253 45.1511V39.7429C62.6253 37.7836 64.2157 36.1941 66.178 36.1941ZM69.7298 53.7205C69.7296 55.0655 68.9692 56.2867 67.7806 56.8865L67.5374 56.9978C66.2097 57.5474 64.6811 57.2443 63.6653 56.2292L56.8939 49.4617L56.2874 48.8552L55.681 49.4617L49.4437 55.6941L48.8353 56.3015L49.4437 56.9089L56.2151 63.6755C57.2308 64.6904 57.5349 66.2166 56.9857 67.5427C56.436 68.8687 55.1403 69.7332 53.7034 69.7332H43.2679V80.2644H53.7034C55.0505 80.2644 56.2732 81.0243 56.8734 82.2117L56.9847 82.4548C57.5 83.6979 57.2659 85.117 56.3978 86.1257L56.2151 86.322L49.4437 93.0886L48.8353 93.696L49.4437 94.3035L55.681 100.536L56.2874 101.142L56.8939 100.536L63.6653 93.7683C64.6811 92.7533 66.2096 92.4495 67.5374 92.9988C68.8649 93.5483 69.7298 94.8433 69.7298 96.2781V106.706H80.2669V96.2781C80.2669 94.8433 81.1318 93.5483 82.4593 92.9988C83.787 92.4498 85.3147 92.7535 86.3304 93.7683L93.1028 100.536L93.7093 101.141L94.3157 100.536L100.553 94.3035L101.16 93.696L100.553 93.0886L93.7806 86.322C92.8284 85.3705 92.5024 83.9698 92.9183 82.7058L93.011 82.4548C93.5603 81.1291 94.8555 80.2645 96.2923 80.2644H106.728V69.7332H96.2923C94.8556 69.7331 93.5607 68.8686 93.011 67.5427C92.4617 66.2166 92.7649 64.6904 93.7806 63.6755L100.553 56.9089L101.16 56.3015L100.553 55.6941L94.3157 49.4626L93.7093 48.8562L93.1028 49.4626L86.3304 56.2292C85.3781 57.1807 83.9758 57.5072 82.7103 57.0916L82.4593 56.9978L82.2151 56.8865C81.0268 56.2866 80.2671 55.0653 80.2669 53.7205V43.2917H69.7298V53.7205Z" fill="#E6000D" stroke="#EAEAEA" stroke-width="1.71642"/>
</g>
</g>
<defs>
<clipPath id="clip0_1_1178">
<rect width="138" height="138" fill="white" transform="translate(6 6)"/>
</clipPath>
<clipPath id="clip1_1_1178">
<rect width="138" height="138" fill="white" transform="translate(6 6)"/>
</clipPath>
</defs>
</svg>
