<svg width="150" height="150" viewBox="0 0 150 150" fill="none" xmlns="http://www.w3.org/2000/svg">
<g clip-path="url(#clip0_1_1202)">
<mask id="path-1-inside-1_1_1202" fill="white">
<path d="M131.187 41C139.401 41 146.06 47.6588 146.06 55.873V95.5342C146.06 103.749 139.401 110.407 131.187 110.407H18.8135C10.5994 110.407 3.94043 103.749 3.94043 95.5342V55.873C3.94043 47.6587 10.5994 41 18.8135 41H131.187ZM18.8135 50.915C16.0754 50.915 13.8555 53.1349 13.8555 55.873V95.5342C13.8555 98.2721 16.0754 100.492 18.8135 100.492H131.187C133.924 100.492 136.145 98.2721 136.145 95.5342V55.873C136.145 53.1348 133.924 50.915 131.187 50.915H122.924V72.3984C122.924 75.1364 120.704 77.3564 117.966 77.3564H32.0332C29.2953 77.3563 27.0762 75.1363 27.0762 72.3984V50.915H18.8135ZM36.9912 67.4404H43.6016V65.7881C43.6017 63.0502 45.8216 60.8311 48.5596 60.8311C51.2974 60.8312 53.5165 63.0503 53.5166 65.7881V67.4404H60.1279V65.7881C60.1281 63.0503 62.3472 60.8312 65.085 60.8311C67.8228 60.8311 70.0428 63.0502 70.043 65.7881V67.4404H79.958V65.7881C79.9581 63.0502 82.1781 60.8311 84.916 60.8311C87.6538 60.8312 89.8729 63.0503 89.873 65.7881V67.4404H96.4824V65.7881C96.4825 63.0503 98.7017 60.8312 101.439 60.8311C104.177 60.8311 106.397 63.0502 106.397 65.7881V67.4404H113.009V50.915H36.9912V67.4404Z"/>
</mask>
<path d="M131.187 41C139.401 41 146.06 47.6588 146.06 55.873V95.5342C146.06 103.749 139.401 110.407 131.187 110.407H18.8135C10.5994 110.407 3.94043 103.749 3.94043 95.5342V55.873C3.94043 47.6587 10.5994 41 18.8135 41H131.187ZM18.8135 50.915C16.0754 50.915 13.8555 53.1349 13.8555 55.873V95.5342C13.8555 98.2721 16.0754 100.492 18.8135 100.492H131.187C133.924 100.492 136.145 98.2721 136.145 95.5342V55.873C136.145 53.1348 133.924 50.915 131.187 50.915H122.924V72.3984C122.924 75.1364 120.704 77.3564 117.966 77.3564H32.0332C29.2953 77.3563 27.0762 75.1363 27.0762 72.3984V50.915H18.8135ZM36.9912 67.4404H43.6016V65.7881C43.6017 63.0502 45.8216 60.8311 48.5596 60.8311C51.2974 60.8312 53.5165 63.0503 53.5166 65.7881V67.4404H60.1279V65.7881C60.1281 63.0503 62.3472 60.8312 65.085 60.8311C67.8228 60.8311 70.0428 63.0502 70.043 65.7881V67.4404H79.958V65.7881C79.9581 63.0502 82.1781 60.8311 84.916 60.8311C87.6538 60.8312 89.8729 63.0503 89.873 65.7881V67.4404H96.4824V65.7881C96.4825 63.0503 98.7017 60.8312 101.439 60.8311C104.177 60.8311 106.397 63.0502 106.397 65.7881V67.4404H113.009V50.915H36.9912V67.4404Z" fill="#E6000D"/>
<path d="M122.924 50.915V48.915H120.924V50.915H122.924ZM32.0332 77.3564L32.0331 79.3564H32.0332V77.3564ZM27.0762 50.915H29.0762V48.915H27.0762V50.915ZM36.9912 67.4404H34.9912V69.4404H36.9912V67.4404ZM43.6016 67.4404V69.4404H45.6016V67.4404H43.6016ZM43.6016 65.7881L41.6016 65.788V65.7881H43.6016ZM48.5596 60.8311L48.5597 58.8311H48.5596V60.8311ZM53.5166 65.7881H55.5166V65.788L53.5166 65.7881ZM53.5166 67.4404H51.5166V69.4404H53.5166V67.4404ZM60.1279 67.4404V69.4404H62.1279V67.4404H60.1279ZM60.1279 65.7881L58.1279 65.788V65.7881H60.1279ZM65.085 60.8311V58.8311H65.0849L65.085 60.8311ZM70.043 65.7881H72.043V65.788L70.043 65.7881ZM70.043 67.4404H68.043V69.4404H70.043V67.4404ZM79.958 67.4404V69.4404H81.958V67.4404H79.958ZM79.958 65.7881L77.958 65.788V65.7881H79.958ZM84.916 60.8311L84.9161 58.8311H84.916V60.8311ZM89.873 65.7881H91.873V65.788L89.873 65.7881ZM89.873 67.4404H87.873V69.4404H89.873V67.4404ZM96.4824 67.4404V69.4404H98.4824V67.4404H96.4824ZM96.4824 65.7881L94.4824 65.788V65.7881H96.4824ZM101.439 60.8311V58.8311H101.439L101.439 60.8311ZM106.397 65.7881H108.397V65.788L106.397 65.7881ZM106.397 67.4404H104.397V69.4404H106.397V67.4404ZM113.009 67.4404V69.4404H115.009V67.4404H113.009ZM113.009 50.915H115.009V48.915H113.009V50.915ZM36.9912 50.915V48.915H34.9912V50.915H36.9912ZM131.187 41V43C138.296 43 144.06 48.7634 144.06 55.873H146.06H148.06C148.06 46.5543 140.506 39 131.187 39V41ZM146.06 55.873H144.06V95.5342H146.06H148.06V55.873H146.06ZM146.06 95.5342H144.06C144.06 102.644 138.296 108.407 131.187 108.407V110.407V112.407C140.506 112.407 148.06 104.853 148.06 95.5342H146.06ZM131.187 110.407V108.407H18.8135V110.407V112.407H131.187V110.407ZM18.8135 110.407V108.407C11.704 108.407 5.94043 102.644 5.94043 95.5342H3.94043H1.94043C1.94043 104.853 9.49491 112.407 18.8135 112.407V110.407ZM3.94043 95.5342H5.94043V55.873H3.94043H1.94043V95.5342H3.94043ZM3.94043 55.873H5.94043C5.94043 48.7633 11.704 43 18.8135 43V41V39C9.49489 39 1.94043 46.5542 1.94043 55.873H3.94043ZM18.8135 41V43H131.187V41V39H18.8135V41ZM18.8135 50.915V48.915C14.9708 48.915 11.8555 52.0303 11.8555 55.873H13.8555H15.8555C15.8555 54.2395 17.1799 52.915 18.8135 52.915V50.915ZM13.8555 55.873H11.8555V95.5342H13.8555H15.8555V55.873H13.8555ZM13.8555 95.5342H11.8555C11.8555 99.3767 14.9708 102.492 18.8135 102.492V100.492V98.4922C17.18 98.4922 15.8555 97.1676 15.8555 95.5342H13.8555ZM18.8135 100.492V102.492H131.187V100.492V98.4922H18.8135V100.492ZM131.187 100.492V102.492C135.029 102.492 138.145 99.3767 138.145 95.5342H136.145H134.145C134.145 97.1676 132.82 98.4922 131.187 98.4922V100.492ZM136.145 95.5342H138.145V55.873H136.145H134.145V95.5342H136.145ZM136.145 55.873H138.145C138.145 52.0302 135.029 48.915 131.187 48.915V50.915V52.915C132.82 52.915 134.145 54.2395 134.145 55.873H136.145ZM131.187 50.915V48.915H122.924V50.915V52.915H131.187V50.915ZM122.924 50.915H120.924V72.3984H122.924H124.924V50.915H122.924ZM122.924 72.3984H120.924C120.924 74.0318 119.599 75.3564 117.966 75.3564V77.3564V79.3564C121.808 79.3564 124.924 76.241 124.924 72.3984H122.924ZM117.966 77.3564V75.3564H32.0332V77.3564V79.3564H117.966V77.3564ZM32.0332 77.3564L32.0333 75.3564C30.4003 75.3564 29.0762 74.0322 29.0762 72.3984H27.0762H25.0762C25.0762 76.2404 28.1902 79.3563 32.0331 79.3564L32.0332 77.3564ZM27.0762 72.3984H29.0762V50.915H27.0762H25.0762V72.3984H27.0762ZM27.0762 50.915V48.915H18.8135V50.915V52.915H27.0762V50.915ZM36.9912 67.4404V69.4404H43.6016V67.4404V65.4404H36.9912V67.4404ZM43.6016 67.4404H45.6016V65.7881H43.6016H41.6016V67.4404H43.6016ZM43.6016 65.7881L45.6016 65.7882C45.6016 64.1552 46.9258 62.8311 48.5596 62.8311V60.8311V58.8311C44.7175 58.8311 41.6017 61.9452 41.6016 65.788L43.6016 65.7881ZM48.5596 60.8311L48.5595 62.8311C50.1928 62.8312 51.5165 64.1549 51.5166 65.7882L53.5166 65.7881L55.5166 65.788C55.5164 61.9457 52.402 58.8313 48.5597 58.8311L48.5596 60.8311ZM53.5166 65.7881H51.5166V67.4404H53.5166H55.5166V65.7881H53.5166ZM53.5166 67.4404V69.4404H60.1279V67.4404V65.4404H53.5166V67.4404ZM60.1279 67.4404H62.1279V65.7881H60.1279H58.1279V67.4404H60.1279ZM60.1279 65.7881L62.1279 65.7882C62.128 64.1549 63.4518 62.8311 65.085 62.8311L65.085 60.8311L65.0849 58.8311C61.2426 58.8312 58.1281 61.9457 58.1279 65.788L60.1279 65.7881ZM65.085 60.8311V62.8311C66.7187 62.8311 68.0429 64.1553 68.043 65.7882L70.043 65.7881L72.043 65.788C72.0428 61.9452 68.927 58.8311 65.085 58.8311V60.8311ZM70.043 65.7881H68.043V67.4404H70.043H72.043V65.7881H70.043ZM70.043 67.4404V69.4404H79.958V67.4404V65.4404H70.043V67.4404ZM79.958 67.4404H81.958V65.7881H79.958H77.958V67.4404H79.958ZM79.958 65.7881L81.958 65.7882C81.9581 64.1553 83.2823 62.8311 84.916 62.8311V60.8311V58.8311C81.074 58.8311 77.9582 61.9452 77.958 65.788L79.958 65.7881ZM84.916 60.8311L84.9159 62.8311C86.5492 62.8311 87.873 64.1549 87.873 65.7882L89.873 65.7881L91.873 65.788C91.8729 61.9457 88.7584 58.8312 84.9161 58.8311L84.916 60.8311ZM89.873 65.7881H87.873V67.4404H89.873H91.873V65.7881H89.873ZM89.873 67.4404V69.4404H96.4824V67.4404V65.4404H89.873V67.4404ZM96.4824 67.4404H98.4824V65.7881H96.4824H94.4824V67.4404H96.4824ZM96.4824 65.7881L98.4824 65.7882C98.4825 64.1549 99.8063 62.8311 101.44 62.8311L101.439 60.8311L101.439 58.8311C97.5971 58.8312 94.4826 61.9457 94.4824 65.788L96.4824 65.7881ZM101.439 60.8311V62.8311C103.073 62.8311 104.397 64.1553 104.397 65.7882L106.397 65.7881L108.397 65.788C108.397 61.9452 105.281 58.8311 101.439 58.8311V60.8311ZM106.397 65.7881H104.397V67.4404H106.397H108.397V65.7881H106.397ZM106.397 67.4404V69.4404H113.009V67.4404V65.4404H106.397V67.4404ZM113.009 67.4404H115.009V50.915H113.009H111.009V67.4404H113.009ZM113.009 50.915V48.915H36.9912V50.915V52.915H113.009V50.915ZM36.9912 50.915H34.9912V67.4404H36.9912H38.9912V50.915H36.9912Z" fill="#EAEAEA" mask="url(#path-1-inside-1_1_1202)"/>
</g>
<defs>
<clipPath id="clip0_1_1202">
<rect width="138" height="69" fill="white" transform="translate(6 41)"/>
</clipPath>
</defs>
</svg>
