<svg width="150" height="150" viewBox="0 0 150 150" fill="none" xmlns="http://www.w3.org/2000/svg">
<path d="M115.834 74.8835C115.834 97.4999 97.4996 115.834 74.8832 115.834C52.2668 115.834 33.9327 97.4999 33.9327 74.8835C33.9327 52.2671 52.2668 33.933 74.8832 33.933C97.4996 33.933 115.834 52.2671 115.834 74.8835Z" stroke="#E6000D" stroke-width="6" stroke-miterlimit="10" stroke-linecap="round" stroke-linejoin="round"/>
<path d="M95.3575 62.5989L70.7872 87.1692L54.407 70.789" stroke="#E6000D" stroke-width="6" stroke-miterlimit="10" stroke-linecap="round" stroke-linejoin="round"/>
<path d="M69.5723 11.0451C72.6332 8.43789 77.1334 8.43789 80.1943 11.0451L90.8368 20.4377L108.847 19.0441C112.855 18.7339 116.496 21.3791 117.44 25.2874L121.051 40.2414L136.786 49.6606C140.212 51.766 141.602 56.0461 140.069 59.7625L133.852 74.826L140.069 89.8895C141.602 93.6062 140.212 97.8863 136.786 99.9917L121.051 109.411L117.44 124.365C116.496 128.273 112.855 130.918 108.847 130.608L91.0129 129.228L80.1943 138.722C77.1334 141.329 72.6332 141.329 69.5723 138.722L58.7538 129.228L40.9201 130.608C36.9113 130.918 33.2703 128.273 32.3268 124.365L28.7016 109.352L12.9924 99.9917C9.56676 97.8863 8.17608 93.6062 9.71009 89.8895L15.9264 74.826L9.71009 59.7625C8.17608 56.0461 9.56676 51.766 12.9924 49.6606L27.3551 41.1278L32.3268 25.2874C33.2703 21.3791 36.9113 18.7339 40.9201 19.0441L58.9301 20.4377L69.5723 11.0451Z" stroke="#E6000D" stroke-width="6" stroke-miterlimit="10" stroke-linecap="round" stroke-linejoin="round"/>
</svg>
