<svg width="150" height="150" viewBox="0 0 150 150" fill="none" xmlns="http://www.w3.org/2000/svg">
<g clip-path="url(#clip0_1_125)">
<path d="M5.5914 102.424C6.54417 102.424 7.46167 102.738 8.12656 103.318C8.7717 103.882 9.23587 104.744 9.23593 105.987V126.675C9.23593 132.713 14.3816 137.758 20.3932 137.758H44.0934C45.3343 137.758 46.2027 138.222 46.773 138.871C47.3602 139.539 47.6797 140.46 47.6842 141.413C47.6886 142.366 47.378 143.282 46.7965 143.946C46.232 144.591 45.3605 145.059 44.0934 145.059H20.3932C10.3495 145.058 1.94687 136.722 1.94687 126.675V105.987C1.94693 104.744 2.41111 103.882 3.05624 103.318C3.72112 102.738 4.63863 102.424 5.5914 102.424ZM144.408 102.424C145.361 102.424 146.278 102.738 146.943 103.318C147.588 103.882 148.052 104.744 148.052 105.987V126.675C148.052 136.815 139.818 145.059 129.693 145.059H105.993C104.752 145.059 103.892 144.595 103.329 143.949C102.749 143.283 102.435 142.363 102.435 141.408C102.435 140.453 102.749 139.534 103.329 138.868C103.892 138.222 104.752 137.758 105.993 137.758H129.693C135.808 137.758 140.763 132.783 140.763 126.588V105.987C140.763 104.744 141.228 103.882 141.873 103.318C142.537 102.738 143.455 102.424 144.408 102.424ZM16.9205 83.1162C17.7049 82.8168 18.6658 82.8136 19.7437 83.3975L19.7555 83.4043L74.5357 112.089L74.9996 112.331L75.4635 112.089L130.33 83.4043L130.337 83.4014C131.437 82.8151 132.415 82.8209 133.212 83.127C134.034 83.4426 134.737 84.1075 135.177 84.9482C135.617 85.789 135.761 86.743 135.549 87.5947C135.344 88.4204 134.788 89.2277 133.668 89.7979L133.657 89.8037L76.7223 119.609C76.1593 119.891 75.6173 120.025 74.9996 120.025C74.4596 120.025 73.8316 119.887 73.2769 119.609L16.4361 89.8066C15.3336 89.2191 14.7858 88.4018 14.5875 87.5674C14.3835 86.7082 14.5335 85.7541 14.9732 84.918C15.4133 84.0813 16.1109 83.4253 16.9205 83.1162ZM73.2828 30.3857C74.386 29.8358 75.6121 29.8361 76.7154 30.3857L133.657 60.1963C136.241 61.5608 136.24 65.3197 133.654 66.6826L76.7164 96.3164C76.1554 96.5963 75.6152 96.7295 74.9996 96.7295C74.4614 96.7295 73.8361 96.5922 73.2828 96.3164L16.4312 66.5957H16.4322C13.9424 65.2836 13.8269 61.781 16.2115 60.2412L16.4498 60.0986L73.2828 30.3857ZM74.5348 37.9111L27.6549 62.5098L25.9644 63.3975L27.6568 64.2812L74.5367 88.7939L74.9996 89.0361L75.4625 88.7939L122.429 64.2822L124.125 63.3975L122.43 62.5098L75.4635 37.9102L74.9996 37.667L74.5348 37.9111ZM74.9996 51.4443C81.5562 51.4443 86.8482 56.8102 86.8482 63.3955C86.8482 69.8807 81.5694 75.1729 74.9996 75.1729C68.5211 75.1728 63.2379 69.8851 63.2379 63.3955C63.2379 56.8058 68.5343 51.4444 74.9996 51.4443ZM74.9996 58.7451C73.5671 58.7452 72.4214 59.3107 71.6451 60.2021C70.8862 61.0738 70.5229 62.205 70.5162 63.3027C70.5096 64.4006 70.8597 65.5372 71.6197 66.4141C72.3975 67.3111 73.5513 67.872 74.9996 67.8721C76.4792 67.8721 77.6599 67.32 78.4576 66.4229C79.2388 65.5441 79.5941 64.4012 79.5807 63.2959C79.5671 62.191 79.1849 61.0588 78.4059 60.1904C77.6108 59.3043 76.4467 58.7451 74.9996 58.7451ZM20.3062 4.94043H44.0934C45.3341 4.94043 46.1956 5.40474 46.7584 6.05078C47.3384 6.71668 47.6519 7.63608 47.6519 8.59082C47.6519 9.54557 47.3384 10.465 46.7584 11.1309C46.1956 11.7769 45.3341 12.2412 44.0934 12.2412H20.3932C14.2024 12.2413 9.23593 17.2045 9.23593 23.3242V44.0117C9.23593 46.0558 7.61165 47.6179 5.63535 47.6182C3.57217 47.6182 1.94687 45.9692 1.94687 44.0117V23.3242C1.94687 13.1839 10.1816 4.94058 20.3062 4.94043ZM105.993 4.94043H129.606C139.731 4.94043 147.965 13.1839 147.965 23.3242V44.0283L147.966 44.0449C148.033 46.0448 146.448 47.618 144.365 47.6182C142.401 47.6182 140.763 45.9814 140.763 44.0117V23.3242C140.763 17.2045 135.797 12.2412 129.606 12.2412H105.993C104.752 12.2412 103.892 11.7768 103.329 11.1309C102.749 10.4649 102.435 9.5457 102.435 8.59082C102.435 7.63593 102.749 6.7167 103.329 6.05078C103.892 5.4048 104.752 4.94043 105.993 4.94043Z" fill="#E6000D" stroke="#EAEAEA" stroke-width="2"/>
</g>
<defs>
<clipPath id="clip0_1_125">
<rect width="144" height="138" fill="white" transform="translate(3 6)"/>
</clipPath>
</defs>
</svg>
