<svg width="44" height="44" viewBox="0 0 44 44" fill="none" xmlns="http://www.w3.org/2000/svg">
<mask id="mask0_1_637" style="mask-type:luminance" maskUnits="userSpaceOnUse" x="1" y="1" width="41" height="41">
<path d="M40.0801 40.1338V3.70215H3.64844V40.1338H40.0801Z" fill="white" stroke="white" stroke-width="3.5"/>
</mask>
<g mask="url(#mask0_1_637)">
<path d="M4.80935 17.1816L3.86197 13.3921" stroke="#E6000D" stroke-width="3.5" stroke-miterlimit="22.926" stroke-linecap="round" stroke-linejoin="round"/>
<path d="M4.81094 17.1816L8.60046 15.2869" stroke="#E6000D" stroke-width="3.5" stroke-miterlimit="22.926" stroke-linecap="round" stroke-linejoin="round"/>
<path d="M4.81094 15.8173C7.29828 8.6947 14.0602 3.91834 21.6561 3.91834C29.7834 3.91834 36.882 9.37309 38.9166 17.1816" stroke="#E6000D" stroke-width="3" stroke-miterlimit="22.926" stroke-linecap="round" stroke-linejoin="round"/>
<path d="M38.9158 26.6568L39.8632 30.4463" stroke="#E6000D" stroke-width="3.5" stroke-miterlimit="22.926" stroke-linecap="round" stroke-linejoin="round"/>
<path d="M38.9151 26.656L35.1255 28.5508" stroke="#E6000D" stroke-width="3.5" stroke-miterlimit="22.926" stroke-linecap="round" stroke-linejoin="round"/>
<path d="M37.9692 28.02C35.5509 35.1426 28.9769 39.9189 21.5919 39.9189C13.6904 39.9189 6.78901 34.4642 4.81094 26.6556" stroke="#E6000D" stroke-width="3" stroke-miterlimit="22.926" stroke-linecap="round" stroke-linejoin="round"/>
<path d="M21.864 29.498C22.9076 29.498 23.7587 28.6468 23.7587 27.6033C23.7587 26.5597 22.9076 25.7085 21.864 25.7085C20.8204 25.7085 19.9692 26.5597 19.9692 27.6033C19.9692 28.6468 20.8204 29.498 21.864 29.498Z" stroke="#E6000D" stroke-width="2" stroke-miterlimit="22.926" stroke-linecap="round" stroke-linejoin="round"/>
<path d="M17.1262 21.9189C18.4698 20.6937 20.1535 20.0242 21.8909 20.0242C23.6037 20.0242 25.265 20.6749 26.6 21.8685" stroke="#E6000D" stroke-width="3" stroke-miterlimit="22.926" stroke-linecap="round" stroke-linejoin="round"/>
<path d="M13.3362 17.1816C15.7546 15.3438 18.7853 14.3395 21.9126 14.3395C24.9957 14.3395 27.9863 15.3156 30.389 17.1062" stroke="#E6000D" stroke-width="3" stroke-miterlimit="22.926" stroke-linecap="round" stroke-linejoin="round"/>
</g>
</svg>
