<svg width="138" height="139" viewBox="0 0 138 139" fill="none" xmlns="http://www.w3.org/2000/svg">
<path d="M137.285 95.6847C137.255 94.1491 137.227 92.6984 137.227 91.295C137.227 90.1955 136.325 89.3041 135.213 89.3041C126.6 89.3041 120.042 86.8572 114.576 81.6034C113.794 80.8517 112.55 80.852 111.768 81.6034C106.303 86.8572 99.7464 89.3041 91.134 89.3041C90.0218 89.3041 89.1201 90.1955 89.1201 91.295C89.1201 92.6987 89.0922 94.1499 89.0624 95.6858C88.7863 109.977 88.4083 129.548 112.513 137.808C112.727 137.881 112.949 137.918 113.172 137.918C113.395 137.918 113.618 137.881 113.832 137.808C137.938 129.548 137.561 109.976 137.285 95.6847ZM113.173 133.814C92.4997 126.39 92.8123 110.128 93.0897 95.7617C93.1063 94.8995 93.1224 94.0639 93.1337 93.2447C101.2 92.9081 107.651 90.4918 113.173 85.7365C118.695 90.4918 125.146 92.9084 133.213 93.2447C133.225 94.0636 133.241 94.8987 133.258 95.7604C133.535 110.127 133.847 126.39 113.173 133.814Z" fill="#E6000D"/>
<path d="M120.107 102.562L110.387 112.171L106.239 108.07C105.452 107.293 104.177 107.293 103.391 108.07C102.604 108.848 102.604 110.108 103.391 110.886L108.963 116.394C109.356 116.783 109.871 116.977 110.387 116.977C110.902 116.977 111.418 116.783 111.811 116.394L122.955 105.378C123.742 104.6 123.742 103.34 122.955 102.562C122.169 101.785 120.894 101.785 120.107 102.562Z" fill="#E6000D"/>
<path d="M133.261 30.7992C129.623 32.5151 126 34.2151 122.362 35.931C116.499 38.6956 110.636 41.4442 104.774 44.2087C102.597 45.2415 100.42 46.2583 98.2279 47.291C92.7147 49.8808 87.2015 52.4865 81.6883 55.0762C77.3349 57.1258 72.9022 59.0642 68.6124 61.2249C68.5329 61.2567 68.4694 61.2885 68.3899 61.3362H70.789C67.1189 59.6044 63.4646 57.8884 59.7944 56.1566C53.9794 53.4239 48.1802 50.6911 42.3652 47.9583C40.2044 46.9415 38.0436 45.9247 35.8987 44.9078C30.3061 42.2704 24.7293 39.6489 19.1367 37.0114C14.8151 34.9777 10.5412 32.7852 6.17197 30.9104C6.09252 30.8786 6.02897 30.8468 5.94953 30.7992V34.9142C8.09443 33.8973 10.2393 32.8964 12.3842 31.8796C17.5638 29.4487 22.7433 27.0019 27.9069 24.571C34.151 21.6317 40.3791 18.6924 46.6232 15.7531C52.0093 13.211 57.4112 10.6689 62.7973 8.14267C65.4188 6.9034 68.1198 5.79123 70.6778 4.44074C70.7096 4.42485 70.7573 4.40896 70.789 4.39307C69.9946 4.39307 69.1843 4.39307 68.3899 4.39307C70.5348 5.40991 72.6797 6.41086 74.8246 7.4277C80.0042 9.85859 85.1837 12.3054 90.3473 14.7362C96.5914 17.6756 102.82 20.6149 109.064 23.5542C114.45 26.0963 119.852 28.6384 125.238 31.1646C127.859 32.4039 130.481 33.659 133.118 34.8665C133.15 34.8824 133.198 34.8983 133.229 34.9142C134.389 35.4544 135.803 35.2319 136.486 34.0562C137.09 33.0235 136.804 31.3394 135.629 30.7992C133.452 29.7823 131.275 28.7496 129.099 27.7327C123.935 25.3019 118.755 22.871 113.592 20.4401C107.3 17.4849 101.024 14.5297 94.7325 11.5586C89.3464 9.01652 83.9603 6.49031 78.5583 3.9482C75.9845 2.7407 73.4265 1.48554 70.8367 0.309819C69.9311 -0.103273 69.1526 -0.103273 68.2469 0.309819C67.9609 0.436924 67.6908 0.579917 67.4049 0.707022C66.0703 1.34255 64.7357 1.96219 63.401 2.59771C58.5075 4.90149 53.6298 7.20527 48.7363 9.49316C42.5081 12.4325 36.28 15.3559 30.0518 18.2952C24.4274 20.9485 18.803 23.6018 13.1627 26.2393C10.0804 27.6851 6.99815 29.1468 3.89996 30.5926C3.75697 30.6562 3.61398 30.7197 3.48687 30.7833C1.92983 31.5141 1.92983 34.1674 3.48687 34.8983C7.17292 36.6301 10.8431 38.3619 14.5291 40.0937C20.3601 42.8424 26.191 45.591 32.022 48.3238C34.2304 49.3565 36.423 50.4051 38.6314 51.4379C44.1923 54.0594 49.769 56.6809 55.3299 59.3025C59.6197 61.3203 63.8777 63.3698 68.1834 65.3559C68.7236 65.6101 69.2479 65.8007 69.8675 65.7213C70.2647 65.6736 70.5984 65.5147 70.9479 65.3559C71.4881 65.1016 72.0124 64.8474 72.5367 64.6091C74.8246 63.5287 77.1284 62.4483 79.4163 61.3679C85.3902 58.5557 91.3801 55.7435 97.354 52.9313C99.7054 51.8351 102.041 50.7229 104.392 49.6266C109.62 47.1639 114.831 44.7013 120.058 42.2545C124.968 39.9348 129.877 37.6311 134.802 35.3114C135.072 35.1843 135.343 35.0572 135.613 34.9301C136.772 34.374 137.074 32.7057 136.471 31.673C135.819 30.4496 134.437 30.2431 133.261 30.7992Z" fill="#E6000D"/>
<path d="M70.8178 92.0943C67.1477 90.3625 63.4934 88.6465 59.8232 86.9147C54.0082 84.182 48.209 81.4492 42.3939 78.7165C40.2331 77.6996 38.0724 76.6828 35.9275 75.6659C30.3348 73.0285 24.7581 70.407 19.1655 67.7695C14.8439 65.7358 10.57 63.5433 6.20074 61.6685C6.1213 61.6367 6.05775 61.6049 5.97831 61.5573V65.6723C9.66436 63.9405 13.3345 62.2087 17.0206 60.4769C22.8833 57.7123 28.746 54.9478 34.6087 52.1991C35.9592 51.5636 37.3097 50.9281 38.6602 50.2926C37.8658 50.2926 37.0555 50.2926 36.2611 50.2926C39.9313 52.0244 43.5855 53.7403 47.2557 55.4721C53.0549 58.2049 58.8382 60.9217 64.6373 63.6545C65.8925 64.2424 67.1477 64.862 68.4028 65.434C69.2926 65.8312 69.9916 65.8312 70.8814 65.434C71.0085 65.3704 71.1515 65.3069 71.2786 65.2433C71.93 64.9414 72.5814 64.6237 73.2328 64.3218C78.746 61.7161 84.2751 59.1264 89.7883 56.5207C94.1257 54.487 98.5267 52.5487 102.801 50.3879C102.864 50.3561 102.944 50.3243 103.007 50.2926C102.213 50.2926 101.402 50.2926 100.608 50.2926C104.294 52.0244 107.964 53.7562 111.65 55.488C117.513 58.2525 123.376 61.0171 129.239 63.7657L133.29 65.6723C134.45 66.2125 135.864 65.99 136.547 64.8143C137.151 63.7816 136.865 62.0975 135.689 61.5573C132.003 59.8255 128.333 58.0936 124.647 56.3618C118.784 53.5973 112.921 50.8328 107.059 48.0841C105.724 47.4645 104.405 46.8131 103.071 46.2093C102.197 45.8121 101.482 45.7803 100.592 46.1934C100.481 46.2411 100.37 46.3046 100.259 46.3523C99.6389 46.6542 99.0034 46.9402 98.3837 47.242C92.8547 49.8477 87.3256 52.4534 81.8124 55.0431C77.4432 57.1086 72.9786 59.031 68.6729 61.2395C68.5935 61.2713 68.5299 61.3031 68.4505 61.3507H70.8496C67.1318 59.603 63.4298 57.8553 59.712 56.1076C53.8969 53.3749 48.0819 50.6421 42.2827 47.8935C41.0911 47.3215 39.8995 46.7336 38.692 46.1934C37.5798 45.7009 36.7219 45.971 35.7527 46.4318C35.0536 46.7495 34.3704 47.0832 33.6713 47.4009C28.0628 50.0384 22.4543 52.6758 16.8617 55.3132C12.5242 57.3628 8.09143 59.2694 3.81752 61.446C3.73808 61.4778 3.67453 61.5096 3.59509 61.5573C2.03805 62.2881 2.03805 64.9414 3.59509 65.6723C7.23347 67.3882 10.856 69.0882 14.4944 70.8042C20.3571 73.5687 26.2198 76.3173 32.0825 79.0819C34.2592 80.1146 36.4359 81.1314 38.6284 82.1642C44.1416 84.7539 49.6548 87.3596 55.168 89.9494C59.5214 91.9989 63.8747 94.0803 68.2439 96.0981C68.3234 96.1299 68.3869 96.1616 68.4664 96.2093C69.6262 96.7495 71.0403 96.5271 71.7234 95.3513C72.2795 94.3186 71.9776 92.6503 70.8178 92.0943Z" fill="#E6000D"/>
<path d="M70.8239 122.869C68.679 121.852 66.5341 120.851 64.3893 119.834C59.2097 117.404 54.0302 114.957 48.8665 112.526C42.6225 109.587 36.3944 106.647 30.1503 103.708C24.7642 101.166 19.3623 98.6238 13.9762 96.0976C11.3705 94.8742 8.78076 93.476 6.09566 92.3957C6.06389 92.3798 6.01622 92.3639 5.98445 92.348V96.463C9.6705 94.7312 13.3407 92.9994 17.0267 91.2676C22.8894 88.5031 28.7522 85.7385 34.6149 82.9899L38.6664 81.0833C37.8719 81.0833 37.0617 81.0833 36.2672 81.0833C39.8897 82.7833 43.5122 84.4992 47.1188 86.1993C52.8862 88.9162 58.6695 91.633 64.4369 94.3499C65.7715 94.9695 67.1061 95.6051 68.4248 96.2247C69.5847 96.7649 70.9987 96.5425 71.6819 95.3667C72.2857 94.334 71.9997 92.6499 70.8239 92.1097C67.1061 90.362 63.4042 88.6143 59.6864 86.8666C53.8713 84.1338 48.0562 81.4011 42.2571 78.6524C41.0655 78.0804 39.8739 77.4926 38.6664 76.9524C37.5542 76.4598 36.6962 76.7299 35.7271 77.1907C35.028 77.5085 34.3448 77.8421 33.6457 78.1599C28.0372 80.7973 22.4287 83.4347 16.836 86.0722C12.4986 88.1217 8.06579 90.0283 3.79188 92.205C3.71244 92.2368 3.64889 92.2685 3.56945 92.3162C2.01241 93.0471 2.01241 95.7004 3.56945 96.4312C5.71435 97.4481 7.85925 98.449 10.0041 99.4659C15.1837 101.897 20.3632 104.344 25.5269 106.774C31.7709 109.714 37.9991 112.653 44.2431 115.592C49.6292 118.134 55.0311 120.677 60.4172 123.203C63.0388 124.442 65.6603 125.697 68.2977 126.905C68.3295 126.921 68.3772 126.936 68.409 126.952C69.5688 127.493 70.9828 127.27 71.666 126.094C72.2857 125.093 71.9838 123.409 70.8239 122.869Z" fill="#E6000D"/>
</svg>
