<svg width="117" height="139" viewBox="0 0 117 139" fill="none" xmlns="http://www.w3.org/2000/svg">
<path fill-rule="evenodd" clip-rule="evenodd" d="M23.9332 0.5C23.0992 0.5 22.38 1.08872 22.2095 1.91008C20.576 9.78471 14.2604 19.6794 2.08419 20.9136C1.18467 21.0044 0.5 21.7669 0.5 22.6776V77.6036C0.5 90.7256 9.69026 103.226 20.8761 113.41C37.2568 128.325 57.7315 138.322 57.7315 138.322C58.2168 138.559 58.7832 138.559 59.2685 138.322C59.2685 138.322 79.7432 128.325 96.1239 113.41C107.31 103.226 116.5 90.7256 116.5 77.6036V22.6776C116.5 21.7669 115.815 21.0044 114.916 20.9136C102.74 19.6794 96.424 9.78471 94.7905 1.91008C94.62 1.08872 93.9008 0.5 93.0668 0.5H23.9332ZM25.3243 4.04649H91.6757C93.898 12.4779 100.688 22.2669 112.978 24.2352V77.6036C112.978 89.8155 104.172 101.302 93.7621 110.78C79.6037 123.672 62.315 132.803 58.5 134.745C54.685 132.803 37.3963 123.672 23.2379 110.78C12.8276 101.302 4.02198 89.8155 4.02198 77.6036V24.2352C16.3123 22.2669 23.102 12.4779 25.3243 4.04649ZM39.4623 56.1679H34.1025C32.6332 56.1679 31.2244 56.7559 30.1854 57.8021C29.1464 58.8476 28.5632 60.2662 28.5632 61.7458V80.1329C28.5632 81.6118 29.1464 83.0311 30.1854 84.0766C31.2244 85.1228 32.6332 85.7108 34.1025 85.7108H39.4623V94.9352C39.4623 95.9148 40.2505 96.7085 41.2233 96.7085H75.7767C76.7495 96.7085 77.5377 95.9148 77.5377 94.9352V85.7108H82.8975C84.3668 85.7108 85.7756 85.1228 86.8146 84.0766C87.8536 83.0311 88.4369 81.6118 88.4369 80.1329C88.4369 75.2068 88.4369 66.6719 88.4369 61.7458C88.4369 60.2662 87.8536 58.8476 86.8146 57.8021C85.7756 56.7559 84.3668 56.1679 82.8975 56.1679H77.5377V44.0644C77.5377 43.0849 76.7495 42.2911 75.7767 42.2911H41.2233C40.2505 42.2911 39.4623 43.0849 39.4623 44.0644V56.1679ZM74.0157 74.7125V93.162H42.9836L42.9843 74.7125H74.0157ZM77.5377 82.1643H82.8975C83.4328 82.1643 83.9456 81.9501 84.3239 81.5692C84.7021 81.1884 84.9149 80.6713 84.9149 80.1329V61.7458C84.9149 61.2074 84.7021 60.6903 84.3239 60.3094C83.9456 59.9286 83.4328 59.7143 82.8975 59.7143H34.1025C33.5672 59.7143 33.0544 59.9286 32.6761 60.3094C32.2979 60.6903 32.0851 61.2074 32.0851 61.7458V80.1329C32.0851 80.6713 32.2979 81.1884 32.6761 81.5692C33.0544 81.9501 33.5672 82.1643 34.1025 82.1643H39.4623V72.9392C39.4623 71.9597 40.2505 71.166 41.2233 71.166H75.7767C76.7495 71.166 77.5377 71.9597 77.5377 72.9392V82.1643ZM42.9843 56.1679H74.0157L74.0164 45.8376H42.9843V56.1679Z" fill="#E6000D" stroke="#E6000D"/>
</svg>
