<svg width="40" height="40" viewBox="0 0 40 40" fill="none" xmlns="http://www.w3.org/2000/svg">
<path d="M2.22222 23.3334H2.55426C3.00456 25.7037 3.94424 27.9693 5.30925 29.9772C4.26581 30.8139 4.09362 32.3915 5.06948 33.3529C5.06945 33.3529 6.64713 34.9295 6.64713 34.9295C7.58285 35.87 9.20107 35.7238 10.0217 34.6902C12.0302 36.0553 14.2969 36.9949 16.6667 37.4458V37.7778C16.6667 39.0034 17.6638 40 18.8889 40H21.1111C22.4808 40.0072 23.4727 38.7802 23.3333 37.4458C25.7031 36.9949 27.9698 36.0553 29.9783 34.6902L30.2138 34.9295C31.0536 35.7704 32.5141 35.7672 33.3518 34.9306L34.9316 33.3518C35.7953 32.487 35.7954 31.0797 34.9262 30.2095L34.6908 29.9773C36.0558 27.9693 36.9954 25.7037 37.4457 23.3334H37.7778C39.0028 23.3334 40 22.3367 40 21.1112V18.8889C40 17.6633 39.0028 16.6667 37.7778 16.6667H37.4457C36.9954 14.2964 36.0558 12.0308 34.6908 10.0228C35.7342 9.1862 35.9064 7.6086 34.9305 6.64718C34.9306 6.64718 33.3529 5.07058 33.3529 5.07058C32.4157 4.13 30.7984 4.27634 29.9783 5.30988C27.9698 3.94483 25.7031 3.00515 23.3333 2.55431C23.4722 1.22369 22.4812 -0.010938 21.1111 7.31007e-05C21.1111 5.08785e-05 18.8889 4.97887e-05 18.8889 4.97887e-05C17.6639 4.97887e-05 16.6667 0.996683 16.6667 2.22227V2.55431C14.2969 3.00515 12.0302 3.94482 10.0217 5.30984L9.78626 5.07058C8.94641 4.22965 7.48482 4.2329 6.64823 5.06949L5.06837 6.64827C4.20466 7.51307 4.20466 8.92041 5.07379 9.79063L5.30925 10.0228C3.94422 12.0308 3.00456 14.2964 2.55426 16.6667H2.22222C0.99718 16.6667 2.98023e-06 17.6633 2.98023e-06 18.8889V21.1111C2.98023e-06 22.3367 0.99718 23.3334 2.22222 23.3334ZM2.22222 18.8889C3.11244 18.8689 4.42277 19.1328 4.60176 17.9237C4.95334 15.2664 6.00802 12.7246 7.64973 10.5746C7.98936 10.1302 7.94487 9.50254 7.54773 9.10974L6.64061 8.21944L8.20962 6.63686C8.85016 7.25713 9.58968 8.37826 10.574 7.64973C12.7246 6.00806 15.2669 4.95392 17.9242 4.60127C18.4765 4.52803 18.8889 4.05711 18.8889 3.49993V2.22226H21.1111C21.1312 3.11275 20.8672 4.4211 22.0758 4.60126C24.733 4.95393 27.2754 6.00807 29.426 7.64978C29.8676 7.98887 30.4958 7.94546 30.8897 7.54778L31.7806 6.64175L33.3637 8.20967C32.7422 8.85124 31.6219 9.58655 32.3503 10.5746C33.9919 12.7246 35.0466 15.2664 35.3982 17.9237C35.4709 18.476 35.9418 18.8889 36.4995 18.8889H37.7777V21.1111C36.8871 21.1313 35.5775 20.8671 35.3982 22.0763C35.0466 24.7336 33.9919 27.2754 32.3502 29.4255C32.0106 29.8698 32.0551 30.4975 32.4522 30.8903L33.3593 31.7806L31.7903 33.3632C31.1496 32.7427 30.4109 31.6224 29.426 32.3503C27.2754 33.992 24.7331 35.0461 22.0757 35.3988C21.5234 35.472 21.1111 35.943 21.1111 36.5001V37.7778H18.8889C18.8687 36.8878 19.1329 35.5788 17.9242 35.3988C15.2669 35.0461 12.7246 33.992 10.574 32.3503C10.1321 32.012 9.50432 32.054 9.11023 32.4523L8.21939 33.3583L6.63628 31.7904C7.25736 31.1493 8.37815 30.4133 7.64969 29.4255C6.00802 27.2754 4.95333 24.7337 4.60178 22.0763C4.52908 21.524 4.05816 21.1112 3.50044 21.1112H2.22222V18.8889Z" fill="#E6000D"/>
<path d="M20.0005 33.3334C27.3529 33.3334 33.3338 27.352 33.3338 20.0001C33.4914 18.5343 32.0708 11.2762 29.8063 12.5982C29.2843 12.92 29.1215 13.6041 29.4427 14.1266C30.5343 15.9007 31.1116 17.9319 31.1116 20.0001C30.5026 34.7379 9.49841 34.7384 8.88933 20C8.88935 13.8732 13.8742 8.88895 20.0005 8.88895C22.0697 8.88895 24.0998 9.46566 25.8729 10.5572C26.3969 10.8784 27.0795 10.7151 27.4017 10.1937C28.712 7.92033 21.4843 6.51667 20.0005 6.66671C2.3145 7.39741 2.31479 32.6031 20.0005 33.3334Z" fill="#E6000D"/>
<path d="M17.4598 18.5617L18.8965 17.125L18.8965 25.5513C18.9187 27.0043 21.0936 27.0178 21.1187 25.5512L21.1187 17.125C21.7489 17.6656 22.6597 18.9702 23.3409 18.8872C24.29 18.9211 24.836 17.6503 24.1264 16.9905L20.7941 13.6581C20.486 13.345 19.9882 13.2446 19.583 13.4174C19.4666 13.2838 16.0347 16.896 15.8886 16.9905C14.867 18.0231 16.427 19.5844 17.4598 18.5617Z" fill="#E6000D"/>
</svg>
