<svg width="150" height="150" viewBox="0 0 150 150" fill="none" xmlns="http://www.w3.org/2000/svg">
<path fill-rule="evenodd" clip-rule="evenodd" d="M40.4332 6C39.5992 6 38.88 6.58872 38.7095 7.41008C37.076 15.2847 30.7604 25.1794 18.5842 26.4136C17.6847 26.5044 17 27.2669 17 28.1776V83.1036C17 96.2256 26.1903 108.726 37.3761 118.91C53.7568 133.825 74.2315 143.822 74.2315 143.822C74.7168 144.059 75.2832 144.059 75.7685 143.822C75.7685 143.822 96.2432 133.825 112.624 118.91C123.81 108.726 133 96.2256 133 83.1036V28.1776C133 27.2669 132.315 26.5044 131.416 26.4136C119.24 25.1794 112.924 15.2847 111.291 7.41008C111.12 6.58872 110.401 6 109.567 6H40.4332ZM41.8243 9.54649H108.176C110.398 17.9779 117.188 27.7669 129.478 29.7352V83.1036C129.478 95.3155 120.672 106.802 110.262 116.28C96.1037 129.172 78.815 138.303 75 140.245C71.185 138.303 53.8963 129.172 39.7379 116.28C29.3276 106.802 20.522 95.3155 20.522 83.1036V29.7352C32.8123 27.7669 39.602 17.9779 41.8243 9.54649ZM55.9623 61.6679H50.6025C49.1332 61.6679 47.7244 62.2559 46.6854 63.3021C45.6464 64.3476 45.0632 65.7662 45.0632 67.2458V85.6329C45.0632 87.1118 45.6464 88.5311 46.6854 89.5766C47.7244 90.6228 49.1332 91.2108 50.6025 91.2108H55.9623V100.435C55.9623 101.415 56.7505 102.209 57.7233 102.209H92.2767C93.2495 102.209 94.0377 101.415 94.0377 100.435V91.2108H99.3975C100.867 91.2108 102.276 90.6228 103.315 89.5766C104.354 88.5311 104.937 87.1118 104.937 85.6329C104.937 80.7068 104.937 72.1719 104.937 67.2458C104.937 65.7662 104.354 64.3476 103.315 63.3021C102.276 62.2559 100.867 61.6679 99.3975 61.6679H94.0377V49.5644C94.0377 48.5849 93.2495 47.7911 92.2767 47.7911H57.7233C56.7505 47.7911 55.9623 48.5849 55.9623 49.5644V61.6679ZM90.5157 80.2125V98.662H59.4836L59.4843 80.2125H90.5157ZM94.0377 87.6643H99.3975C99.9328 87.6643 100.446 87.4501 100.824 87.0692C101.202 86.6884 101.415 86.1713 101.415 85.6329V67.2458C101.415 66.7074 101.202 66.1903 100.824 65.8094C100.446 65.4286 99.9328 65.2143 99.3975 65.2143H50.6025C50.0672 65.2143 49.5544 65.4286 49.1761 65.8094C48.7979 66.1903 48.5851 66.7074 48.5851 67.2458V85.6329C48.5851 86.1713 48.7979 86.6884 49.1761 87.0692C49.5544 87.4501 50.0672 87.6643 50.6025 87.6643H55.9623V78.4392C55.9623 77.4597 56.7505 76.666 57.7233 76.666H92.2767C93.2495 76.666 94.0377 77.4597 94.0377 78.4392V87.6643ZM59.4843 61.6679H90.5157L90.5164 51.3376H59.4843V61.6679Z" fill="#E6000D" stroke="#E6000D"/>
</svg>
