<svg width="150" height="150" viewBox="0 0 150 150" fill="none" xmlns="http://www.w3.org/2000/svg">
<g clip-path="url(#clip0_1_845)">
<path d="M30.3964 10.6851H119.603C126.287 10.6851 132.698 13.347 137.426 18.0864C142.153 22.826 144.809 29.2553 144.809 35.9595V114.438C144.809 121.142 142.153 127.571 137.426 132.311C132.698 137.05 126.287 139.712 119.603 139.712H30.3964C23.7124 139.712 17.3014 137.05 12.5741 132.311C7.84676 127.571 5.1904 121.142 5.1903 114.438V35.9595C5.19036 29.2553 7.84673 22.826 12.5741 18.0864C17.3014 13.3469 23.7124 10.6851 30.3964 10.6851ZM13.6229 114.442C13.6385 118.894 15.4095 123.161 18.5507 126.31C21.6919 129.459 25.9488 131.236 30.3924 131.251H54.3856V100.737C54.3929 100.099 54.2739 99.4666 54.035 98.8755C53.7937 98.2784 53.435 97.7356 52.9803 97.2798C52.5257 96.824 51.9839 96.4644 51.3876 96.2222C50.7972 95.9824 50.1651 95.8624 49.5282 95.8696H13.6229V114.442ZM136.378 35.9556C136.362 31.5033 134.591 27.2367 131.45 24.0874C128.309 20.9381 124.052 19.1617 119.608 19.146H30.3924C25.9488 19.1616 21.6919 20.9381 18.5507 24.0874C15.4095 27.2367 13.6385 31.5032 13.6229 35.9556V87.4097H49.5282C53.0517 87.4098 56.4312 88.8131 58.9237 91.312C61.4164 93.8112 62.8172 97.2011 62.8173 100.737V131.251H119.608C124.052 131.236 128.309 129.459 131.45 126.31C134.591 123.161 136.362 118.894 136.378 114.442V35.9556Z" fill="#E6000D" stroke="#EAEAEA" stroke-width="2.5"/>
<path d="M107.796 38.0649C108.352 38.0649 108.903 38.1747 109.417 38.3882C109.931 38.6016 110.398 38.9144 110.792 39.3091C111.185 39.7038 111.498 40.1728 111.712 40.689C111.925 41.2052 112.034 41.7589 112.034 42.3179C112.034 42.8766 111.925 43.4298 111.712 43.9458C111.499 44.4615 111.186 44.9302 110.793 45.3247L87.2888 68.8354L85.155 70.9692H96.864C97.981 70.9693 99.0527 71.4146 99.8435 72.2075C100.634 73.0006 101.08 74.0768 101.08 75.1997C101.08 76.3226 100.634 77.3989 99.8435 78.1919C99.0527 78.9847 97.9809 79.4301 96.864 79.4302H74.9988C73.8818 79.4301 72.8101 78.9847 72.0193 78.1919C71.2283 77.3989 70.783 76.3226 70.7829 75.1997V53.2778C70.7831 52.155 71.2283 51.0786 72.0193 50.2856C72.8101 49.4929 73.8819 49.0484 74.9988 49.0483C76.1159 49.0483 77.1883 49.4927 77.9792 50.2856C78.7702 51.0786 79.2154 52.155 79.2156 53.2778V65.02L81.3513 62.8735L104.8 39.3091C105.193 38.9144 105.661 38.6016 106.175 38.3882C106.688 38.1748 107.24 38.065 107.796 38.0649Z" fill="#E6000D" stroke="#EAEAEA" stroke-width="2.5"/>
</g>
<defs>
<clipPath id="clip0_1_845">
<rect width="138" height="127" fill="white" transform="translate(6 11.5)"/>
</clipPath>
</defs>
</svg>
