<svg width="143" height="141" viewBox="0 0 143 141" fill="none" xmlns="http://www.w3.org/2000/svg">
<mask id="path-1-inside-1_109_5" fill="white">
<path d="M123.797 0C134.254 8.57682e-05 142.766 8.51117 142.766 18.9688V93.0674C142.766 103.525 134.254 112.036 123.797 112.036H86.9453V132.986H102.213C104.374 132.987 106.126 134.738 106.126 136.899C106.126 139.061 104.366 140.812 102.205 140.812H39.0322C36.871 140.812 35.1191 139.061 35.1191 136.899C35.1192 134.738 36.8711 132.986 39.0322 132.986H55.1191V112.036H18.9688C8.51112 112.036 0 103.525 0 93.0674V18.9688C0 8.51112 8.51112 0 18.9688 0H123.797ZM62.9453 112.036V132.986H79.1191V112.036H62.9453ZM18.9688 8.06641C12.9591 8.06641 8.06738 12.9591 8.06738 18.9688V93.0674C8.06738 99.077 12.9591 103.97 18.9688 103.97H123.797C129.806 103.97 134.698 99.077 134.698 93.0674V18.9688C134.698 12.9592 129.806 8.06649 123.797 8.06641H18.9688Z"/>
</mask>
<path d="M123.797 0C134.254 8.57682e-05 142.766 8.51117 142.766 18.9688V93.0674C142.766 103.525 134.254 112.036 123.797 112.036H86.9453V132.986H102.213C104.374 132.987 106.126 134.738 106.126 136.899C106.126 139.061 104.366 140.812 102.205 140.812H39.0322C36.871 140.812 35.1191 139.061 35.1191 136.899C35.1192 134.738 36.8711 132.986 39.0322 132.986H55.1191V112.036H18.9688C8.51112 112.036 0 103.525 0 93.0674V18.9688C0 8.51112 8.51112 0 18.9688 0H123.797ZM62.9453 112.036V132.986H79.1191V112.036H62.9453ZM18.9688 8.06641C12.9591 8.06641 8.06738 12.9591 8.06738 18.9688V93.0674C8.06738 99.077 12.9591 103.97 18.9688 103.97H123.797C129.806 103.97 134.698 99.077 134.698 93.0674V18.9688C134.698 12.9592 129.806 8.06649 123.797 8.06641H18.9688Z" fill="#E6000D"/>
<path d="M123.797 0L123.797 -1H123.797V0ZM123.797 112.036V113.036H123.797L123.797 112.036ZM86.9453 112.036V111.036H85.9453V112.036H86.9453ZM86.9453 132.986H85.9453V133.986H86.9453V132.986ZM102.213 132.986L102.213 131.986H102.213V132.986ZM106.126 136.899H107.126V136.899L106.126 136.899ZM39.0322 140.812L39.0322 141.812H39.0322V140.812ZM35.1191 136.899L34.1191 136.899V136.899H35.1191ZM39.0322 132.986V131.986H39.0322L39.0322 132.986ZM55.1191 132.986V133.986H56.1191V132.986H55.1191ZM55.1191 112.036H56.1191V111.036H55.1191V112.036ZM62.9453 112.036V111.036H61.9453V112.036H62.9453ZM62.9453 132.986H61.9453V133.986H62.9453V132.986ZM79.1191 132.986V133.986H80.1191V132.986H79.1191ZM79.1191 112.036H80.1191V111.036H79.1191V112.036ZM123.797 103.97V104.97H123.797L123.797 103.97ZM123.797 8.06641L123.797 7.06641H123.797V8.06641ZM123.797 0L123.797 1C133.702 1.00008 141.766 9.06346 141.766 18.9688H142.766H143.766C143.766 7.95888 134.807 -0.99991 123.797 -1L123.797 0ZM142.766 18.9688H141.766V93.0674H142.766H143.766V18.9688H142.766ZM142.766 93.0674H141.766C141.766 102.973 133.702 111.036 123.797 111.036L123.797 112.036L123.797 113.036C134.807 113.036 143.766 104.077 143.766 93.0674H142.766ZM123.797 112.036V111.036H86.9453V112.036V113.036H123.797V112.036ZM86.9453 112.036H85.9453V132.986H86.9453H87.9453V112.036H86.9453ZM86.9453 132.986V133.986H102.213V132.986V131.986H86.9453V132.986ZM102.213 132.986L102.213 133.986C103.822 133.986 105.126 135.291 105.126 136.899L106.126 136.899L107.126 136.899C107.126 134.186 104.926 131.987 102.213 131.986L102.213 132.986ZM106.126 136.899H105.126C105.126 138.506 103.817 139.812 102.205 139.812V140.812V141.812C104.916 141.812 107.126 139.616 107.126 136.899H106.126ZM102.205 140.812V139.812H39.0322V140.812V141.812H102.205V140.812ZM39.0322 140.812L39.0323 139.812C37.4233 139.812 36.1191 138.508 36.1191 136.899H35.1191H34.1191C34.1191 139.613 36.3188 141.812 39.0322 141.812L39.0322 140.812ZM35.1191 136.899L36.1191 136.899C36.1192 135.291 37.4234 133.986 39.0323 133.986L39.0322 132.986L39.0322 131.986C36.3188 131.986 34.1193 134.186 34.1191 136.899L35.1191 136.899ZM39.0322 132.986V133.986H55.1191V132.986V131.986H39.0322V132.986ZM55.1191 132.986H56.1191V112.036H55.1191H54.1191V132.986H55.1191ZM55.1191 112.036V111.036H18.9688V112.036V113.036H55.1191V112.036ZM18.9688 112.036V111.036C9.0634 111.036 1 102.973 1 93.0674H0H-1C-1 104.077 7.95883 113.036 18.9688 113.036V112.036ZM0 93.0674H1V18.9688H0H-1V93.0674H0ZM0 18.9688H1C1 9.0634 9.0634 1 18.9688 1V0V-1C7.95883 -1 -1 7.95883 -1 18.9688H0ZM18.9688 0V1H123.797V0V-1H18.9688V0ZM62.9453 112.036H61.9453V132.986H62.9453H63.9453V112.036H62.9453ZM62.9453 132.986V133.986H79.1191V132.986V131.986H62.9453V132.986ZM79.1191 132.986H80.1191V112.036H79.1191H78.1191V132.986H79.1191ZM79.1191 112.036V111.036H62.9453V112.036V113.036H79.1191V112.036ZM18.9688 8.06641V7.06641C12.4067 7.06641 7.06738 12.407 7.06738 18.9688H8.06738H9.06738C9.06738 13.5113 13.5115 9.06641 18.9688 9.06641V8.06641ZM8.06738 18.9688H7.06738V93.0674H8.06738H9.06738V18.9688H8.06738ZM8.06738 93.0674H7.06738C7.06738 99.6292 12.4067 104.97 18.9688 104.97V103.97V102.97C13.5115 102.97 9.06738 98.5248 9.06738 93.0674H8.06738ZM18.9688 103.97V104.97H123.797V103.97V102.97H18.9688V103.97ZM123.797 103.97L123.797 104.97C130.359 104.97 135.698 99.6291 135.698 93.0674H134.698H133.698C133.698 98.5248 129.254 102.97 123.797 102.97L123.797 103.97ZM134.698 93.0674H135.698V18.9688H134.698H133.698V93.0674H134.698ZM134.698 18.9688H135.698C135.698 12.407 130.359 7.0665 123.797 7.06641L123.797 8.06641L123.797 9.06641C129.254 9.06648 133.698 13.5114 133.698 18.9688H134.698ZM123.797 8.06641V7.06641H18.9688V8.06641V9.06641H123.797V8.06641Z" fill="#EAEAEA" mask="url(#path-1-inside-1_109_5)"/>
</svg>
