<svg width="150" height="150" viewBox="0 0 150 150" fill="none" xmlns="http://www.w3.org/2000/svg">
<path d="M10.9287 100.345C12.9602 100.345 14.6073 101.992 14.6074 104.023V132.345C14.6074 133.587 15.6148 134.595 16.8574 134.595H45.4639C47.4758 134.595 49.1074 136.226 49.1074 138.238C49.1073 140.25 47.4757 141.881 45.4639 141.881H11C8.92893 141.881 7.25 140.202 7.25 138.131V104.023C7.25015 101.992 8.89719 100.345 10.9287 100.345ZM139.071 100.345C141.103 100.345 142.75 101.992 142.75 104.023V138.131C142.75 140.202 141.071 141.881 139 141.881H104.536C102.524 141.881 100.893 140.25 100.893 138.238C100.893 136.226 102.524 134.595 104.536 134.595H132.143C133.938 134.595 135.393 133.14 135.393 131.345V104.023C135.393 101.992 137.04 100.345 139.071 100.345ZM109.5 95.4521C111.532 95.4522 113.179 97.0993 113.179 99.1309V119.56C113.179 121.078 111.947 122.309 110.429 122.31H39.5713C38.0526 122.309 36.8214 121.078 36.8213 119.56V99.1309C36.8213 97.0992 38.4684 95.4521 40.5 95.4521C42.5316 95.4521 44.1787 97.0992 44.1787 99.1309V111.773C44.1787 113.568 45.6338 115.023 47.4287 115.023H102.571C104.366 115.023 105.821 113.568 105.821 111.773V99.1309C105.821 97.0992 107.468 95.4521 109.5 95.4521ZM20.75 80.7734H129.25C131.262 80.7734 132.893 82.4051 132.893 84.417C132.892 86.4287 131.262 88.0596 129.25 88.0596H20.75C18.7382 88.0596 17.1076 86.4287 17.1074 84.417C17.1074 82.4051 18.7381 80.7734 20.75 80.7734ZM39.5713 26.9521H90.1807C90.9065 26.9522 91.6031 27.2396 92.1182 27.751L112.366 47.8545C112.886 48.3707 113.179 49.073 113.179 49.8057V69.7021C113.179 71.7338 111.532 73.3809 109.5 73.3809C107.468 73.3809 105.821 71.7338 105.821 69.7021V58.7021H83.9287C82.4099 58.7021 81.1787 57.4709 81.1787 55.9521V37.4883C81.1787 35.6934 79.7236 34.2384 77.9287 34.2383H47.4287C45.6338 34.2383 44.1787 35.6934 44.1787 37.4883V73.3809H36.8213V29.7021C36.8214 28.1835 38.0526 26.9522 39.5713 26.9521ZM88.5361 51.417H105.564L103.411 49.2793L90.666 36.627L88.5361 34.5117V51.417ZM10 7.38086H45.4639C47.4757 7.38086 49.1073 9.01167 49.1074 11.0234C49.1074 13.0353 47.4758 14.667 45.4639 14.667H17.8574C16.0625 14.667 14.6074 16.1221 14.6074 17.917V45.2383C14.6073 47.2697 12.9602 48.9169 10.9287 48.917C8.89719 48.917 7.25015 47.2698 7.25 45.2383V10.1309C7.25 8.61208 8.48122 7.38086 10 7.38086ZM104.536 7.38086H140C141.519 7.38086 142.75 8.61208 142.75 10.1309V45.2383C142.75 47.2698 141.103 48.917 139.071 48.917C137.04 48.9169 135.393 47.2697 135.393 45.2383V17.917C135.393 16.1221 133.938 14.667 132.143 14.667H104.536C102.524 14.667 100.893 13.0353 100.893 11.0234C100.893 9.01167 102.524 7.38086 104.536 7.38086Z" fill="#E6000D" stroke="#EAEAEA" stroke-width="2.5"/>
</svg>
