<svg width="44" height="44" viewBox="0 0 44 44" fill="none" xmlns="http://www.w3.org/2000/svg">
<path d="M22.071 17.4292C20.7746 17.4292 19.5074 17.8136 18.4295 18.5338C17.3516 19.2541 16.5115 20.2777 16.0154 21.4754C15.5193 22.6731 15.3895 23.991 15.6424 25.2625C15.8953 26.5339 16.5196 27.7018 17.4362 28.6185C18.3529 29.5351 19.5208 30.1594 20.7923 30.4123C22.0637 30.6652 23.3816 30.5354 24.5793 30.0393C25.777 29.5432 26.8007 28.7031 27.5209 27.6252C28.2411 26.5473 28.6255 25.2801 28.6255 23.9837C28.6223 22.2464 27.9307 20.5811 26.7022 19.3526C25.4736 18.1241 23.8084 17.4324 22.071 17.4292ZM22.071 27.9189C21.2927 27.9189 20.5319 27.6881 19.8847 27.2557C19.2376 26.8233 18.7332 26.2087 18.4354 25.4897C18.1375 24.7706 18.0596 23.9794 18.2114 23.216C18.3633 22.4527 18.7381 21.7515 19.2884 21.2011C19.8387 20.6508 20.5399 20.276 21.3033 20.1242C22.0666 19.9723 22.8579 20.0503 23.5769 20.3481C24.296 20.6459 24.9106 21.1503 25.343 21.7975C25.7754 22.4446 26.0062 23.2054 26.0062 23.9837C26.0062 25.0274 25.5916 26.0283 24.8536 26.7663C24.1156 27.5043 23.1147 27.9189 22.071 27.9189Z" fill="#E6000D"/>
<path d="M29.3395 36.6388C27.0938 37.8027 24.6012 38.41 22.0718 38.4096C18.3887 38.4035 14.8262 37.0969 12.0125 34.7204C12.6562 33.747 12.9566 32.5866 12.8658 31.4231C12.775 30.2596 12.2984 29.1598 11.5115 28.298C10.7245 27.4362 9.67239 26.8619 8.52193 26.6661C7.37146 26.4703 6.18856 26.6642 5.16085 27.2171C4.13315 27.7701 3.3195 28.6503 2.84897 29.7183C2.37843 30.7862 2.27796 31.9807 2.56349 33.1122C2.84902 34.2438 3.50419 35.2476 4.42509 35.9644C5.34599 36.6813 6.47988 37.0701 7.64689 37.0692C8.47899 37.063 9.29733 36.8563 10.0326 36.4666C12.8079 38.8961 16.2523 40.4307 19.9145 40.8696C23.5768 41.3084 27.2862 40.631 30.557 38.9261C30.8506 38.7552 31.0668 38.4773 31.1602 38.1507C31.2536 37.824 31.217 37.4739 31.0581 37.1735C30.8992 36.8732 30.6303 36.646 30.3077 36.5395C29.9851 36.4329 29.6337 36.4553 29.3272 36.6019L29.3395 36.6388ZM5.01524 31.8551C5.01524 31.337 5.16886 30.8306 5.45668 30.3999C5.7445 29.9691 6.15358 29.6334 6.63221 29.4351C7.11083 29.2369 7.63749 29.185 8.1456 29.2861C8.6537 29.3871 9.12043 29.6366 9.48675 30.0029C9.85307 30.3693 10.1025 30.836 10.2036 31.3441C10.3047 31.8522 10.2528 32.3789 10.0546 32.8575C9.8563 33.3361 9.52057 33.7452 9.08982 34.033C8.65907 34.3208 8.15265 34.4745 7.63459 34.4745C6.94089 34.4712 6.27652 34.1942 5.786 33.7037C5.29548 33.2132 5.01847 32.5488 5.01524 31.8551Z" fill="#E6000D"/>
<path d="M5.67942 24.6346C5.85222 24.6346 6.02332 24.6006 6.18297 24.5344C6.34261 24.4683 6.48767 24.3714 6.60985 24.2492C6.73204 24.127 6.82896 23.982 6.89509 23.8223C6.96121 23.6627 6.99525 23.4916 6.99525 23.3188C6.98829 20.2937 7.98012 17.3509 9.81681 14.9472C11.6535 12.5435 14.2323 10.8133 17.1529 10.0253C17.5876 11.2228 18.4438 12.2209 19.5613 12.8328C20.6788 13.4446 21.9809 13.6283 23.224 13.3494C24.4671 13.0705 25.566 12.3481 26.315 11.3175C27.064 10.2869 27.4117 9.01874 27.2932 7.75026C27.1746 6.48177 26.5979 5.29996 25.6709 4.426C24.744 3.55204 23.5303 3.04583 22.257 3.00211C20.9837 2.95839 19.7382 3.38015 18.7534 4.18847C17.7687 4.99679 17.1123 6.13625 16.907 7.39361C13.3197 8.25337 10.1285 10.3005 7.85142 13.2027C5.57435 16.1048 4.34521 19.6915 4.3636 23.3803C4.37942 23.7185 4.52501 24.0376 4.77008 24.2712C5.01515 24.5048 5.34084 24.635 5.67942 24.6346ZM22.0719 5.62278C22.5889 5.62281 23.0943 5.77583 23.5245 6.06257C23.9547 6.34932 24.2905 6.75696 24.4894 7.23415C24.6884 7.71135 24.7417 8.23675 24.6426 8.74417C24.5435 9.25159 24.2964 9.71834 23.9326 10.0856C23.5687 10.4529 23.1043 10.7043 22.5978 10.8081C22.0913 10.912 21.5655 10.8636 21.0864 10.6691C20.6074 10.4746 20.1966 10.1427 19.9059 9.7152C19.6151 9.2877 19.4574 8.78371 19.4525 8.26673C19.4509 7.92114 19.5174 7.57861 19.6481 7.2587C19.7789 6.9388 19.9714 6.64778 20.2146 6.40226C20.4579 6.15675 20.7471 5.96155 21.0657 5.8278C21.3844 5.69406 21.7263 5.62439 22.0719 5.62278Z" fill="#E6000D"/>
<path d="M39.9884 27.9683C40.812 24.2847 40.478 20.4366 39.0318 16.95C37.5857 13.4634 35.098 10.5085 31.909 8.48921C31.7641 8.37717 31.5974 8.29663 31.4195 8.25272C31.2417 8.20881 31.0567 8.20252 30.8763 8.23423C30.6959 8.26595 30.5241 8.33498 30.3719 8.4369C30.2197 8.53883 30.0905 8.6714 29.9925 8.82615C29.8945 8.98089 29.8299 9.15438 29.8028 9.33553C29.7757 9.51668 29.7867 9.7015 29.8351 9.87814C29.8836 10.0548 29.9684 10.2194 30.0841 10.3614C30.1998 10.5034 30.3438 10.6196 30.5071 10.7027C33.1711 12.3486 35.2739 14.7631 36.5384 17.6279C37.8029 20.4927 38.1697 23.6735 37.5904 26.7509C36.3247 26.491 35.0076 26.7003 33.8848 27.3397C32.7619 27.979 31.9099 29.0049 31.4874 30.226C31.065 31.4471 31.1009 32.7802 31.5887 33.9767C32.0764 35.1733 32.9825 36.1517 34.1382 36.7295C35.294 37.3074 36.6204 37.4453 37.8702 37.1175C39.1201 36.7898 40.2081 36.0187 40.9316 34.9481C41.655 33.8774 41.9644 32.5803 41.8022 31.2984C41.64 30.0165 41.0172 28.8373 40.0499 27.9806L39.9884 27.9683ZM36.4959 34.4737C35.9784 34.4712 35.4732 34.3156 35.044 34.0263C34.6149 33.737 34.2811 33.327 34.0847 32.8482C33.8884 32.3694 33.8382 31.8431 33.9407 31.3358C34.0432 30.8285 34.2936 30.3629 34.6604 29.9979C35.0272 29.6328 35.4939 29.3845 36.0017 29.2844C36.5095 29.1844 37.0355 29.2369 37.5134 29.4356C37.9913 29.6342 38.3997 29.9699 38.687 30.4004C38.9742 30.8309 39.1276 31.3368 39.1276 31.8543C39.1243 32.5501 38.8456 33.2164 38.3524 33.7072C37.8593 34.1981 37.1917 34.4737 36.4959 34.4737Z" fill="#E6000D"/>
</svg>
