<svg width="138" height="94" viewBox="0 0 138 94" fill="none" xmlns="http://www.w3.org/2000/svg">
<path d="M131.531 0H6.46875C4.75371 0.00185478 3.10944 0.677692 1.89672 1.87923C0.684 3.08076 0.00187205 4.70986 0 6.40909L0 87.5909C0.00187205 89.2901 0.684 90.9192 1.89672 92.1208C3.10944 93.3223 4.75371 93.9982 6.46875 94H131.531C133.246 93.9982 134.891 93.3223 136.103 92.1208C137.316 90.9192 137.998 89.2901 138 87.5909V6.40909C137.998 4.70986 137.316 3.08076 136.103 1.87923C134.891 0.677692 133.246 0.00185478 131.531 0ZM133.688 87.5909C133.687 88.1573 133.459 88.7002 133.055 89.1007C132.651 89.5012 132.103 89.7265 131.531 89.7273H6.46875C5.89711 89.7265 5.34909 89.5012 4.94487 89.1007C4.54066 88.7002 4.31324 88.1573 4.3125 87.5909V6.40909C4.31324 5.84272 4.54066 5.29976 4.94487 4.89927C5.34909 4.49878 5.89711 4.27347 6.46875 4.27273H131.531C132.103 4.27347 132.651 4.49878 133.055 4.89927C133.459 5.29976 133.687 5.84272 133.688 6.40909V87.5909Z" fill="#E6000D"/>
<path d="M109.968 23.5H28.0308C26.8874 23.5011 25.7912 23.9517 24.9827 24.7527C24.1742 25.5537 23.7195 26.6399 23.7183 27.7727V66.2273C23.7195 67.3601 24.1742 68.4463 24.9827 69.2473C25.7912 70.0483 26.8874 70.4989 28.0308 70.5H109.968C111.112 70.4989 112.208 70.0483 113.016 69.2473C113.825 68.4463 114.28 67.3601 114.281 66.2273V27.7727C114.28 26.6399 113.825 25.5537 113.016 24.7527C112.208 23.9517 111.112 23.5011 109.968 23.5ZM109.968 66.2273L28.0308 66.2304V27.7727H109.968V66.2273Z" fill="#E6000D"/>
<path d="M15.9852 12.8176H17.2486C17.8205 12.8176 18.3689 12.5926 18.7733 12.1919C19.1777 11.7913 19.4048 11.2479 19.4048 10.6813C19.4048 10.1147 19.1777 9.57129 18.7733 9.17065C18.3689 8.77 17.8205 8.54492 17.2486 8.54492H10.7798C10.4777 8.54821 10.1796 8.61314 9.90393 8.73566C9.62829 8.85819 9.38109 9.03568 9.17775 9.25707C8.83044 9.65289 8.63433 10.1569 8.6236 10.6813V17.0904C8.6236 17.657 8.85077 18.2004 9.25515 18.601C9.65952 19.0017 10.208 19.2267 10.7798 19.2267C11.3517 19.2267 11.9002 19.0017 12.3045 18.601C12.7089 18.2004 12.9361 17.657 12.9361 17.0904V15.8386C12.9361 15.8386 17.8761 20.733 17.8803 20.7372C18.289 21.1296 18.8357 21.3491 19.4049 21.3491C19.974 21.3491 20.5207 21.1296 20.9294 20.7372C21.1297 20.5389 21.2885 20.3034 21.3969 20.0443C21.5053 19.7851 21.5611 19.5073 21.5611 19.2268C21.5611 18.9462 21.5053 18.6684 21.3969 18.4092C21.2885 18.1501 21.1297 17.9146 20.9294 17.7163L15.9852 12.8176Z" fill="#E6000D"/>
<path d="M17.8803 73.2642L12.9361 78.1628V76.911C12.9361 76.3444 12.7089 75.801 12.3045 75.4004C11.9002 74.9998 11.3517 74.7747 10.7798 74.7747C10.208 74.7747 9.65952 74.9998 9.25515 75.4004C8.85077 75.801 8.6236 76.3444 8.6236 76.911V83.3201C8.62626 83.8859 8.85429 84.4278 9.25809 84.8278C9.66189 85.2279 10.2088 85.4538 10.7798 85.4565H17.2486C17.8205 85.4565 18.3689 85.2314 18.7733 84.8308C19.1777 84.4301 19.4048 83.8867 19.4048 83.3201C19.4048 82.7535 19.1777 82.2101 18.7733 81.8095C18.3689 81.4088 17.8205 81.1838 17.2486 81.1838H15.9852L20.9294 76.2851C21.3319 75.8842 21.5576 75.3414 21.5568 74.7759C21.556 74.2103 21.3289 73.6681 20.9253 73.2682C20.5217 72.8683 19.9745 72.6433 19.4037 72.6426C18.8328 72.6418 18.285 72.8654 17.8803 73.2642Z" fill="#E6000D"/>
<path d="M127.215 74.7739C126.644 74.7739 126.095 74.999 125.691 75.3996C125.286 75.8003 125.059 76.3437 125.059 76.9102V78.162L120.115 73.2634C119.71 72.8641 119.162 72.6401 118.591 72.6406C118.02 72.6412 117.473 72.8662 117.069 73.2663C116.665 73.6664 116.438 74.2089 116.437 74.7747C116.437 75.3406 116.663 75.8835 117.066 76.2844L122.01 81.183H120.747C120.175 81.183 119.626 81.408 119.222 81.8087C118.818 82.2093 118.59 82.7527 118.59 83.3193C118.59 83.8859 118.818 84.4293 119.222 84.83C119.626 85.2306 120.175 85.4557 120.747 85.4557H127.215C127.783 85.4407 128.322 85.2108 128.723 84.8134C129.125 84.4159 129.357 83.8812 129.372 83.3193V76.9102C129.372 76.3437 129.144 75.8003 128.74 75.3996C128.336 74.999 127.787 74.7739 127.215 74.7739Z" fill="#E6000D"/>
<path d="M34.5019 58.75C34.93 58.7501 35.3484 58.6233 35.7032 58.3859L60.1483 42.0972L78.5775 54.3771C78.8124 54.5337 79.0762 54.6429 79.3537 54.6985C79.6312 54.7541 79.917 54.755 80.1949 54.7011C80.4727 54.6473 80.7372 54.5397 80.9731 54.3846C81.209 54.2295 81.4117 54.0299 81.5698 53.7971C81.7278 53.5644 81.838 53.3031 81.8941 53.0281C81.9502 52.7532 81.9511 52.47 81.8968 52.1947C81.8424 51.9194 81.7339 51.6574 81.5773 51.4237C81.4208 51.19 81.2193 50.9891 80.9844 50.8325L74.7798 46.6981L84.6588 39.9775L102.279 51.9654C102.513 52.1247 102.776 52.2369 103.053 52.2955C103.33 52.3541 103.616 52.358 103.895 52.3069C104.173 52.2559 104.439 52.1509 104.677 51.9979C104.915 51.845 105.12 51.6471 105.28 51.4156C105.44 51.1841 105.553 50.9236 105.612 50.6489C105.671 50.3741 105.674 50.0907 105.622 49.8146C105.57 49.5386 105.463 49.2754 105.309 49.0402C105.154 48.8049 104.954 48.6023 104.72 48.4437L85.8791 35.6255C85.52 35.3809 85.0946 35.25 84.6588 35.25C84.2231 35.25 83.7976 35.3809 83.4386 35.6255L70.9316 44.1339L61.3518 37.7504C60.9962 37.5128 60.5772 37.3858 60.1483 37.3858C59.7195 37.3858 59.3004 37.5128 58.9449 37.7504L33.2963 54.8413C32.9129 55.0969 32.6226 55.4678 32.4681 55.8994C32.3135 56.3309 32.303 56.8001 32.4381 57.238C32.5731 57.6759 32.8466 58.0592 33.2182 58.3314C33.5897 58.6036 34.0397 58.7504 34.5019 58.75Z" fill="#E6000D"/>
<path d="M127.217 8.54492H120.748C120.176 8.54492 119.628 8.77 119.223 9.17065C118.819 9.57129 118.592 10.1147 118.592 10.6813C118.592 11.2479 118.819 11.7913 119.223 12.1919C119.628 12.5926 120.176 12.8176 120.748 12.8176H122.011L117.067 17.7163C116.867 17.9146 116.708 18.1501 116.6 18.4092C116.491 18.6684 116.435 18.9462 116.435 19.2267C116.435 19.5073 116.491 19.7851 116.6 20.0443C116.708 20.3034 116.867 20.5389 117.067 20.7372C117.476 21.1296 118.023 21.3491 118.592 21.3491C119.161 21.3491 119.707 21.1296 120.116 20.7372C120.12 20.733 125.06 15.8386 125.06 15.8386V17.0904C125.06 17.657 125.288 18.2004 125.692 18.601C126.096 19.0017 126.645 19.2267 127.217 19.2267C127.788 19.2267 128.337 19.0017 128.741 18.601C129.146 18.2004 129.373 17.657 129.373 17.0904V10.6813C129.362 10.1569 129.166 9.65289 128.819 9.25707C128.615 9.03568 128.368 8.85819 128.093 8.73566C127.817 8.61314 127.519 8.54821 127.217 8.54492Z" fill="#E6000D"/>
</svg>
