<svg width="150" height="150" viewBox="0 0 150 150" fill="none" xmlns="http://www.w3.org/2000/svg">
<path d="M143.285 101.685C143.255 100.149 143.227 98.6984 143.227 97.295C143.227 96.1955 142.325 95.3041 141.213 95.3041C132.6 95.3041 126.042 92.8572 120.576 87.6034C119.794 86.8517 118.55 86.852 117.768 87.6034C112.303 92.8572 105.746 95.3041 97.134 95.3041C96.0218 95.3041 95.1201 96.1955 95.1201 97.295C95.1201 98.6987 95.0922 100.15 95.0624 101.686C94.7863 115.977 94.4083 135.548 118.513 143.808C118.727 143.881 118.949 143.918 119.172 143.918C119.395 143.918 119.618 143.881 119.832 143.808C143.938 135.548 143.561 115.976 143.285 101.685ZM119.173 139.814C98.4997 132.39 98.8123 116.128 99.0897 101.762C99.1063 100.9 99.1224 100.064 99.1337 99.2447C107.2 98.9081 113.651 96.4918 119.173 91.7365C124.695 96.4918 131.146 98.9084 139.213 99.2447C139.225 100.064 139.241 100.899 139.258 101.76C139.535 116.127 139.847 132.39 119.173 139.814Z" fill="#E6000D"/>
<path d="M126.107 108.562L116.387 118.171L112.239 114.07C111.452 113.293 110.177 113.293 109.391 114.07C108.604 114.848 108.604 116.108 109.391 116.886L114.963 122.394C115.356 122.783 115.871 122.977 116.387 122.977C116.902 122.977 117.418 122.783 117.811 122.394L128.955 111.378C129.742 110.6 129.742 109.34 128.955 108.562C128.169 107.785 126.894 107.785 126.107 108.562Z" fill="#E6000D"/>
<path d="M139.261 36.7992C135.623 38.5151 132 40.2151 128.362 41.931C122.499 44.6956 116.636 47.4442 110.774 50.2087C108.597 51.2415 106.42 52.2583 104.228 53.291C98.7147 55.8808 93.2015 58.4865 87.6883 61.0762C83.3349 63.1258 78.9022 65.0642 74.6124 67.2249C74.5329 67.2567 74.4694 67.2885 74.3899 67.3362H76.789C73.1189 65.6044 69.4646 63.8884 65.7944 62.1566C59.9794 59.4239 54.1802 56.6911 48.3652 53.9583C46.2044 52.9415 44.0436 51.9247 41.8987 50.9078C36.3061 48.2704 30.7293 45.6489 25.1367 43.0114C20.8151 40.9777 16.5412 38.7852 12.172 36.9104C12.0925 36.8786 12.029 36.8468 11.9495 36.7992V40.9142C14.0944 39.8973 16.2393 38.8964 18.3842 37.8796C23.5638 35.4487 28.7433 33.0019 33.9069 30.571C40.151 27.6317 46.3791 24.6924 52.6232 21.7531C58.0093 19.211 63.4112 16.6689 68.7973 14.1427C71.4188 12.9034 74.1198 11.7912 76.6778 10.4407C76.7096 10.4248 76.7573 10.409 76.789 10.3931C75.9946 10.3931 75.1843 10.3931 74.3899 10.3931C76.5348 11.4099 78.6797 12.4109 80.8246 13.4277C86.0042 15.8586 91.1837 18.3054 96.3473 20.7362C102.591 23.6756 108.82 26.6149 115.064 29.5542C120.45 32.0963 125.852 34.6384 131.238 37.1646C133.859 38.4039 136.481 39.659 139.118 40.8665C139.15 40.8824 139.198 40.8983 139.229 40.9142C140.389 41.4544 141.803 41.2319 142.486 40.0562C143.09 39.0235 142.804 37.3394 141.629 36.7992C139.452 35.7823 137.275 34.7496 135.099 33.7327C129.935 31.3019 124.755 28.871 119.592 26.4401C113.3 23.4849 107.024 20.5297 100.732 17.5586C95.3464 15.0165 89.9603 12.4903 84.5583 9.9482C81.9845 8.7407 79.4265 7.48554 76.8367 6.30982C75.9311 5.89673 75.1526 5.89673 74.2469 6.30982C73.9609 6.43692 73.6908 6.57992 73.4049 6.70702C72.0703 7.34255 70.7357 7.96219 69.401 8.59771C64.5075 10.9015 59.6298 13.2053 54.7363 15.4932C48.5081 18.4325 42.28 21.3559 36.0518 24.2952C30.4274 26.9485 24.803 29.6018 19.1627 32.2393C16.0804 33.6851 12.9981 35.1468 9.89996 36.5926C9.75697 36.6562 9.61398 36.7197 9.48687 36.7833C7.92983 37.5141 7.92983 40.1674 9.48687 40.8983C13.1729 42.6301 16.8431 44.3619 20.5291 46.0937C26.3601 48.8424 32.191 51.591 38.022 54.3238C40.2304 55.3565 42.423 56.4051 44.6314 57.4379C50.1923 60.0594 55.769 62.6809 61.3299 65.3025C65.6197 67.3203 69.8777 69.3698 74.1834 71.3559C74.7236 71.6101 75.2479 71.8007 75.8675 71.7213C76.2647 71.6736 76.5984 71.5147 76.9479 71.3559C77.4881 71.1016 78.0124 70.8474 78.5367 70.6091C80.8246 69.5287 83.1284 68.4483 85.4163 67.3679C91.3902 64.5557 97.3801 61.7435 103.354 58.9313C105.705 57.8351 108.041 56.7229 110.392 55.6266C115.62 53.1639 120.831 50.7013 126.058 48.2545C130.968 45.9348 135.877 43.6311 140.802 41.3114C141.072 41.1843 141.343 41.0572 141.613 40.9301C142.772 40.374 143.074 38.7057 142.471 37.673C141.819 36.4496 140.437 36.2431 139.261 36.7992Z" fill="#E6000D"/>
<path d="M76.8178 98.0943C73.1477 96.3625 69.4934 94.6465 65.8232 92.9147C60.0082 90.182 54.209 87.4492 48.3939 84.7165C46.2331 83.6996 44.0724 82.6828 41.9275 81.6659C36.3348 79.0285 30.7581 76.407 25.1655 73.7695C20.8439 71.7358 16.57 69.5433 12.2007 67.6685C12.1213 67.6367 12.0577 67.6049 11.9783 67.5573V71.6723C15.6644 69.9405 19.3345 68.2087 23.0206 66.4769C28.8833 63.7123 34.746 60.9478 40.6087 58.1991C41.9592 57.5636 43.3097 56.9281 44.6602 56.2926C43.8658 56.2926 43.0555 56.2926 42.2611 56.2926C45.9313 58.0244 49.5855 59.7403 53.2557 61.4721C59.0549 64.2049 64.8382 66.9217 70.6373 69.6545C71.8925 70.2424 73.1477 70.862 74.4028 71.434C75.2926 71.8312 75.9916 71.8312 76.8814 71.434C77.0085 71.3704 77.1515 71.3069 77.2786 71.2433C77.93 70.9414 78.5814 70.6237 79.2328 70.3218C84.746 67.7161 90.2751 65.1264 95.7883 62.5207C100.126 60.487 104.527 58.5487 108.801 56.3879C108.864 56.3561 108.944 56.3243 109.007 56.2926C108.213 56.2926 107.402 56.2926 106.608 56.2926C110.294 58.0244 113.964 59.7562 117.65 61.488C123.513 64.2525 129.376 67.0171 135.239 69.7657L139.29 71.6723C140.45 72.2125 141.864 71.99 142.547 70.8143C143.151 69.7816 142.865 68.0975 141.689 67.5573C138.003 65.8255 134.333 64.0936 130.647 62.3618C124.784 59.5973 118.921 56.8328 113.059 54.0841C111.724 53.4645 110.405 52.8131 109.071 52.2093C108.197 51.8121 107.482 51.7803 106.592 52.1934C106.481 52.2411 106.37 52.3046 106.259 52.3523C105.639 52.6542 105.003 52.9402 104.384 53.242C98.8547 55.8477 93.3256 58.4534 87.8124 61.0431C83.4432 63.1086 78.9786 65.031 74.6729 67.2395C74.5935 67.2713 74.5299 67.3031 74.4505 67.3507H76.8496C73.1318 65.603 69.4298 63.8553 65.712 62.1076C59.8969 59.3749 54.0819 56.6421 48.2827 53.8935C47.0911 53.3215 45.8995 52.7336 44.692 52.1934C43.5798 51.7009 42.7219 51.971 41.7527 52.4318C41.0536 52.7495 40.3704 53.0832 39.6713 53.4009C34.0628 56.0384 28.4543 58.6758 22.8617 61.3132C18.5242 63.3628 14.0914 65.2694 9.81752 67.446C9.73808 67.4778 9.67453 67.5096 9.59509 67.5573C8.03805 68.2881 8.03805 70.9414 9.59509 71.6723C13.2335 73.3882 16.856 75.0882 20.4944 76.8042C26.3571 79.5687 32.2198 82.3173 38.0825 85.0819C40.2592 86.1146 42.4359 87.1314 44.6284 88.1642C50.1416 90.7539 55.6548 93.3596 61.168 95.9494C65.5214 97.9989 69.8747 100.08 74.2439 102.098C74.3234 102.13 74.3869 102.162 74.4664 102.209C75.6262 102.749 77.0403 102.527 77.7234 101.351C78.2795 100.319 77.9776 98.6503 76.8178 98.0943Z" fill="#E6000D"/>
<path d="M76.8239 128.869C74.679 127.852 72.5341 126.851 70.3893 125.834C65.2097 123.404 60.0302 120.957 54.8665 118.526C48.6225 115.587 42.3944 112.647 36.1503 109.708C30.7642 107.166 25.3623 104.624 19.9762 102.098C17.3705 100.874 14.7808 99.476 12.0957 98.3957C12.0639 98.3798 12.0162 98.3639 11.9844 98.348V102.463C15.6705 100.731 19.3407 98.9994 23.0267 97.2676C28.8894 94.5031 34.7522 91.7385 40.6149 88.9899L44.6664 87.0833C43.8719 87.0833 43.0617 87.0833 42.2672 87.0833C45.8897 88.7833 49.5122 90.4992 53.1188 92.1993C58.8862 94.9162 64.6695 97.633 70.4369 100.35C71.7715 100.97 73.1061 101.605 74.4248 102.225C75.5847 102.765 76.9987 102.542 77.6819 101.367C78.2857 100.334 77.9997 98.6499 76.8239 98.1097C73.1061 96.362 69.4042 94.6143 65.6864 92.8666C59.8713 90.1338 54.0562 87.4011 48.2571 84.6524C47.0655 84.0804 45.8739 83.4926 44.6664 82.9524C43.5542 82.4598 42.6962 82.7299 41.7271 83.1907C41.028 83.5085 40.3448 83.8421 39.6457 84.1599C34.0372 86.7973 28.4287 89.4347 22.836 92.0722C18.4986 94.1217 14.0658 96.0283 9.79188 98.205C9.71244 98.2368 9.64889 98.2685 9.56945 98.3162C8.01241 99.0471 8.01241 101.7 9.56945 102.431C11.7143 103.448 13.8592 104.449 16.0041 105.466C21.1837 107.897 26.3632 110.344 31.5269 112.774C37.7709 115.714 43.9991 118.653 50.2431 121.592C55.6292 124.134 61.0311 126.677 66.4172 129.203C69.0388 130.442 71.6603 131.697 74.2977 132.905C74.3295 132.921 74.3772 132.936 74.409 132.952C75.5688 133.493 76.9828 133.27 77.666 132.094C78.2857 131.093 77.9838 129.409 76.8239 128.869Z" fill="#E6000D"/>
</svg>
