<svg width="150" height="150" viewBox="0 0 150 150" fill="none" xmlns="http://www.w3.org/2000/svg">
<g clip-path="url(#clip0_1_99)">
<path d="M39.4082 5.19043H110.468C129.369 5.19059 144.747 20.569 144.747 39.4707V110.53C144.747 129.432 129.369 144.809 110.468 144.81H39.4082C20.5065 144.81 5.12809 129.432 5.12793 110.53V39.4707C5.12793 20.5689 20.5064 5.19043 39.4082 5.19043ZM39.4082 12.8418C24.7242 12.8418 12.7793 24.7867 12.7793 39.4707V110.53C12.7795 125.214 24.7243 137.158 39.4082 137.158H110.468C125.152 137.158 137.096 125.214 137.096 110.53V39.4707C137.096 24.7868 125.152 12.842 110.468 12.8418H39.4082Z" fill="#E6000D" stroke="#EAEAEA" stroke-width="2.5"/>
<path d="M71.4941 26.9478C73.2627 25.1315 76.6148 25.1223 78.3974 26.9526L78.4003 26.9556L97.9775 46.9429C99.4542 48.4502 99.4295 50.8758 97.9199 52.3511L97.9189 52.353C97.1721 53.0843 96.206 53.4467 95.2411 53.4468C94.2484 53.4468 93.2588 53.0647 92.5087 52.2993L80.9072 40.4536L78.7636 38.2651V66.0981H100.316C108.021 66.0981 114.294 72.3708 114.294 80.0757V97.4868H115.325C120.646 99.4714 124.455 104.548 124.455 110.53C124.455 118.235 118.183 124.507 110.478 124.507C102.774 124.507 96.5009 118.235 96.5009 110.53C96.5009 104.476 100.402 99.3475 105.822 97.4146L106.652 97.1177V80.0757C106.652 76.5887 103.814 73.7497 100.327 73.7495H49.5703C46.0832 73.7495 43.2441 76.5886 43.2441 80.0757V97.1177L44.0742 97.4146C49.4947 99.3475 53.3954 104.476 53.3954 110.53C53.3954 118.234 47.1235 124.507 39.4189 124.507C31.714 124.507 25.4413 118.235 25.4413 110.53C25.4414 104.476 29.3421 99.3475 34.7626 97.4146L35.5927 97.1177V80.0757C35.5927 72.3708 41.8654 66.0981 49.5703 66.0981H71.123V38.2651L68.9794 40.4536L57.3769 52.3003L57.374 52.3022C55.8988 53.8153 53.4848 53.8441 51.9677 52.3579L51.9658 52.3569L51.829 52.2153C50.4557 50.73 50.4747 48.413 51.9091 46.9487V46.9478L71.4911 26.9497L71.4941 26.9478ZM39.4081 104.205C35.9212 104.205 33.083 107.043 33.0829 110.53C33.0829 114.017 35.9211 116.856 39.4081 116.856C42.8952 116.856 45.7343 114.017 45.7343 110.53C45.7343 107.043 42.8952 104.205 39.4081 104.205ZM110.468 104.205C106.981 104.205 104.143 107.043 104.143 110.53C104.143 114.017 106.981 116.856 110.468 116.856C113.955 116.856 116.794 114.017 116.794 110.53C116.794 107.043 113.955 104.205 110.468 104.205Z" fill="#E6000D" stroke="#EAEAEA" stroke-width="2.5"/>
</g>
<defs>
<clipPath id="clip0_1_99">
<rect width="138" height="138" fill="white" transform="translate(6 6)"/>
</clipPath>
</defs>
</svg>
