<svg width="40" height="38" viewBox="0 0 40 38" fill="none" xmlns="http://www.w3.org/2000/svg">
<path d="M16.8077 17.5385C21.6308 17.5385 25.5769 13.5923 25.5769 8.76923C25.5769 3.94615 21.6308 0 16.8077 0C11.9846 0 8.03846 3.94615 8.03846 8.76923C8.03846 13.5923 11.9846 17.5385 16.8077 17.5385ZM16.8077 2.92308C20.0231 2.92308 22.6538 5.55385 22.6538 8.76923C22.6538 11.9846 20.0231 14.6154 16.8077 14.6154C13.5923 14.6154 10.9615 11.9846 10.9615 8.76923C10.9615 5.55385 13.5923 2.92308 16.8077 2.92308Z" fill="#E6000D"/>
<path d="M16.8077 19.7307C7.6 19.7307 0 27.3307 0 36.5384C0 37.4153 0.584615 37.9999 1.46154 37.9999C2.33846 37.9999 2.92308 37.4153 2.92308 36.5384C2.92308 28.9384 9.20769 22.6538 16.8077 22.6538C24.4077 22.6538 30.6923 28.9384 30.6923 36.5384C30.6923 37.4153 31.3535 37.5002 32.2305 37.5002C33.1074 37.5002 33.6154 37.4153 33.6154 36.5384C33.6154 27.3307 26.0154 19.7307 16.8077 19.7307Z" fill="#E6000D"/>
<circle cx="30.4623" cy="29.0007" r="7.75" fill="white" stroke="#E6000D" stroke-width="2.5"/>
<path d="M33.9707 26.234L29.7535 30.0779L27.9538 28.4375C27.6126 28.1266 27.0593 28.1266 26.7182 28.4375C26.377 28.7487 26.377 29.2529 26.7182 29.564L29.1356 31.7675C29.3062 31.923 29.5299 32.0007 29.7535 32.0007C29.977 32.0007 30.2007 31.923 30.3713 31.7675L35.2063 27.3604C35.5476 27.0493 35.5476 26.545 35.2064 26.2341C34.8652 25.923 34.312 25.9229 33.9707 26.234Z" fill="#E6000D"/>
</svg>
