<svg width="150" height="150" viewBox="0 0 150 150" fill="none" xmlns="http://www.w3.org/2000/svg">
<rect x="146" y="146" width="4" height="4" fill="#D9D9D9"/>
<mask id="path-2-inside-1_1_21" fill="white">
<path d="M127.797 5C138.254 5.00009 146.766 13.5112 146.766 23.9688V98.0674C146.766 108.525 138.254 117.036 127.797 117.036H90.9453V137.986H106.213C108.374 137.987 110.126 139.738 110.126 141.899C110.126 144.061 108.366 145.812 106.205 145.812H43.0322C40.871 145.812 39.1191 144.061 39.1191 141.899C39.1192 139.738 40.8711 137.986 43.0322 137.986H59.1191V117.036H22.9688C12.5111 117.036 4 108.525 4 98.0674V23.9688C4 13.5111 12.5111 5 22.9688 5H127.797ZM66.9453 117.036V137.986H83.1191V117.036H66.9453ZM22.9688 13.0664C16.9591 13.0664 12.0674 17.9591 12.0674 23.9688V98.0674C12.0674 104.077 16.9591 108.97 22.9688 108.97H127.797C133.806 108.97 138.698 104.077 138.698 98.0674V23.9688C138.698 17.9592 133.806 13.0665 127.797 13.0664H22.9688Z"/>
</mask>
<path d="M127.797 5C138.254 5.00009 146.766 13.5112 146.766 23.9688V98.0674C146.766 108.525 138.254 117.036 127.797 117.036H90.9453V137.986H106.213C108.374 137.987 110.126 139.738 110.126 141.899C110.126 144.061 108.366 145.812 106.205 145.812H43.0322C40.871 145.812 39.1191 144.061 39.1191 141.899C39.1192 139.738 40.8711 137.986 43.0322 137.986H59.1191V117.036H22.9688C12.5111 117.036 4 108.525 4 98.0674V23.9688C4 13.5111 12.5111 5 22.9688 5H127.797ZM66.9453 117.036V137.986H83.1191V117.036H66.9453ZM22.9688 13.0664C16.9591 13.0664 12.0674 17.9591 12.0674 23.9688V98.0674C12.0674 104.077 16.9591 108.97 22.9688 108.97H127.797C133.806 108.97 138.698 104.077 138.698 98.0674V23.9688C138.698 17.9592 133.806 13.0665 127.797 13.0664H22.9688Z" fill="#E6000D"/>
<path d="M127.797 5L127.797 4H127.797V5ZM127.797 117.036V118.036H127.797L127.797 117.036ZM90.9453 117.036V116.036H89.9453V117.036H90.9453ZM90.9453 137.986H89.9453V138.986H90.9453V137.986ZM106.213 137.986L106.213 136.986H106.213V137.986ZM110.126 141.899H111.126V141.899L110.126 141.899ZM43.0322 145.812L43.0322 146.812H43.0322V145.812ZM39.1191 141.899L38.1191 141.899V141.899H39.1191ZM43.0322 137.986V136.986H43.0322L43.0322 137.986ZM59.1191 137.986V138.986H60.1191V137.986H59.1191ZM59.1191 117.036H60.1191V116.036H59.1191V117.036ZM66.9453 117.036V116.036H65.9453V117.036H66.9453ZM66.9453 137.986H65.9453V138.986H66.9453V137.986ZM83.1191 137.986V138.986H84.1191V137.986H83.1191ZM83.1191 117.036H84.1191V116.036H83.1191V117.036ZM127.797 108.97V109.97H127.797L127.797 108.97ZM127.797 13.0664L127.797 12.0664H127.797V13.0664ZM127.797 5L127.797 6C137.702 6.00008 145.766 14.0635 145.766 23.9688H146.766H147.766C147.766 12.9589 138.807 4.00009 127.797 4L127.797 5ZM146.766 23.9688H145.766V98.0674H146.766H147.766V23.9688H146.766ZM146.766 98.0674H145.766C145.766 107.973 137.702 116.036 127.797 116.036L127.797 117.036L127.797 118.036C138.807 118.036 147.766 109.077 147.766 98.0674H146.766ZM127.797 117.036V116.036H90.9453V117.036V118.036H127.797V117.036ZM90.9453 117.036H89.9453V137.986H90.9453H91.9453V117.036H90.9453ZM90.9453 137.986V138.986H106.213V137.986V136.986H90.9453V137.986ZM106.213 137.986L106.213 138.986C107.822 138.986 109.126 140.291 109.126 141.899L110.126 141.899L111.126 141.899C111.126 139.186 108.926 136.987 106.213 136.986L106.213 137.986ZM110.126 141.899H109.126C109.126 143.506 107.817 144.812 106.205 144.812V145.812V146.812C108.916 146.812 111.126 144.616 111.126 141.899H110.126ZM106.205 145.812V144.812H43.0322V145.812V146.812H106.205V145.812ZM43.0322 145.812L43.0323 144.812C41.4233 144.812 40.1191 143.508 40.1191 141.899H39.1191H38.1191C38.1191 144.613 40.3188 146.812 43.0322 146.812L43.0322 145.812ZM39.1191 141.899L40.1191 141.899C40.1192 140.291 41.4234 138.986 43.0323 138.986L43.0322 137.986L43.0322 136.986C40.3188 136.986 38.1193 139.186 38.1191 141.899L39.1191 141.899ZM43.0322 137.986V138.986H59.1191V137.986V136.986H43.0322V137.986ZM59.1191 137.986H60.1191V117.036H59.1191H58.1191V137.986H59.1191ZM59.1191 117.036V116.036H22.9688V117.036V118.036H59.1191V117.036ZM22.9688 117.036V116.036C13.0634 116.036 5 107.973 5 98.0674H4H3C3 109.077 11.9588 118.036 22.9688 118.036V117.036ZM4 98.0674H5V23.9688H4H3V98.0674H4ZM4 23.9688H5C5 14.0634 13.0634 6 22.9688 6V5V4C11.9588 4 3 12.9588 3 23.9688H4ZM22.9688 5V6H127.797V5V4H22.9688V5ZM66.9453 117.036H65.9453V137.986H66.9453H67.9453V117.036H66.9453ZM66.9453 137.986V138.986H83.1191V137.986V136.986H66.9453V137.986ZM83.1191 137.986H84.1191V117.036H83.1191H82.1191V137.986H83.1191ZM83.1191 117.036V116.036H66.9453V117.036V118.036H83.1191V117.036ZM22.9688 13.0664V12.0664C16.4067 12.0664 11.0674 17.407 11.0674 23.9688H12.0674H13.0674C13.0674 18.5113 17.5115 14.0664 22.9688 14.0664V13.0664ZM12.0674 23.9688H11.0674V98.0674H12.0674H13.0674V23.9688H12.0674ZM12.0674 98.0674H11.0674C11.0674 104.629 16.4067 109.97 22.9688 109.97V108.97V107.97C17.5115 107.97 13.0674 103.525 13.0674 98.0674H12.0674ZM22.9688 108.97V109.97H127.797V108.97V107.97H22.9688V108.97ZM127.797 108.97L127.797 109.97C134.359 109.97 139.698 104.629 139.698 98.0674H138.698H137.698C137.698 103.525 133.254 107.97 127.797 107.97L127.797 108.97ZM138.698 98.0674H139.698V23.9688H138.698H137.698V98.0674H138.698ZM138.698 23.9688H139.698C139.698 17.407 134.359 12.0665 127.797 12.0664L127.797 13.0664L127.797 14.0664C133.254 14.0665 137.698 18.5114 137.698 23.9688H138.698ZM127.797 13.0664V12.0664H22.9688V13.0664V14.0664H127.797V13.0664Z" fill="#EAEAEA" mask="url(#path-2-inside-1_1_21)"/>
</svg>
