<svg width="44" height="44" viewBox="0 0 44 44" fill="none" xmlns="http://www.w3.org/2000/svg">
<path d="M4.96172 17.1183C3.26876 17.3469 1.99094 18.808 1.99094 20.5155V23.4831C1.99094 25.1939 3.27039 26.6549 4.96659 26.8803L8.02008 27.2955C8.13034 27.5857 8.24872 27.8711 8.34115 28.2084L6.51684 30.5792C5.47415 31.9349 5.59739 33.8743 6.80711 35.0889L8.90223 37.1921C10.1119 38.4083 12.0498 38.5348 13.4135 37.497L15.8833 35.6159C16.1573 35.7408 16.433 35.8559 16.7265 36.023L17.1157 39.0181C17.3378 40.7191 18.7989 42.0018 20.5146 42.0018H23.487C25.2043 42.0018 26.6653 40.7175 26.8842 39.0148L27.2848 35.9613C27.5669 35.8543 27.8475 35.7392 28.1702 35.6484L30.588 37.4986C31.9501 38.5413 33.8912 38.4067 35.0961 37.1938L37.1944 35.0873C38.4025 33.8743 38.5258 31.9349 37.4831 30.5792L35.6247 28.1501C35.7512 27.8711 35.8696 27.5857 35.9798 27.2955L36.0431 27.2792L39.0333 26.8803C40.7295 26.6549 42.009 25.1939 42.009 23.4831V20.5155C42.009 18.808 40.7312 17.3469 39.0366 17.1183L36.0139 16.7031C35.9004 16.4031 35.7804 16.1096 35.6863 15.7658L37.4879 13.4194C38.529 12.0605 38.4025 10.1226 37.1944 8.91454L35.0993 6.81131C33.8896 5.59673 31.9501 5.46375 30.5831 6.50969L28.2042 8.32752C27.8977 8.18806 27.5864 8.05671 27.2588 7.87346L26.8859 4.987C26.6653 3.28431 25.2043 2 23.4854 2H20.5146C18.7989 2 17.3378 3.28269 17.1141 4.987L16.7314 7.93671C16.4135 8.05671 16.1022 8.18806 15.7406 8.29346L13.4152 6.50969C12.0563 5.46538 10.1136 5.59186 8.90223 6.80969L6.80549 8.91454C5.59577 10.1259 5.47253 12.0637 6.51522 13.421L8.34764 15.821C8.21953 16.1096 8.09953 16.4015 7.92116 16.7226L4.96172 17.1183ZM8.36223 20.0144C9.61898 19.8458 10.6682 19.022 11.0946 17.8723C11.1838 17.6372 11.2779 17.4037 11.3833 17.1701C11.8779 16.0496 11.7125 14.7361 10.9487 13.7421L9.15682 11.2594L11.393 9.14318L13.7152 10.9253C14.7254 11.7053 16.0535 11.8626 17.1805 11.3469C17.4189 11.2367 17.6622 11.1345 17.9103 11.0405C19.0584 10.6043 19.8724 9.55507 20.0362 8.29995L20.5146 5.32105L23.5924 5.41349L23.9653 8.2967C24.1259 9.55021 24.9383 10.6026 26.0913 11.0405C26.3378 11.1345 26.581 11.2367 26.8178 11.3453C27.9432 11.8642 29.2729 11.7037 30.2831 10.927L32.7464 9.15454L34.8528 11.3972L33.0545 13.7388C32.2891 14.7329 32.1204 16.048 32.6199 17.1766C32.722 17.4037 32.8161 17.6355 32.902 17.8674C33.3334 19.022 34.3809 19.8458 35.6377 20.0144L38.6879 20.5155L38.5955 23.5885L35.6069 23.9874C34.3534 24.1528 33.3058 24.9717 32.8728 26.123C32.7869 26.3484 32.6961 26.569 32.5972 26.7847C32.0912 27.9101 32.255 29.2317 33.0253 30.2322L34.8415 32.7441L32.6037 34.8603L30.1875 33.01C29.1821 32.2446 27.8621 32.0841 26.7351 32.5949C26.534 32.6873 26.328 32.7733 26.1124 32.8543C24.9594 33.2906 24.1437 34.3414 23.9816 35.5949L23.487 38.6808L20.4075 38.5883L20.02 35.5949C19.8562 34.3414 19.0405 33.2906 17.8827 32.8511C17.6719 32.7716 17.4643 32.6857 17.2584 32.5916C16.1172 32.0764 14.8027 32.2539 13.8125 33.0116L11.2552 34.8489L9.15034 32.603L10.973 30.2338C11.7449 29.2317 11.9087 27.9101 11.4011 26.7847C11.3038 26.5674 11.2114 26.3468 11.1271 26.123C10.6941 24.9717 9.64655 24.1528 8.39629 23.9874L5.31199 23.4831L5.40442 20.4101L8.36223 20.0144Z" fill="#E6000D"/>
<path d="M23.487 41.502V42.002H20.5144V41.502H23.487ZM41.5085 23.4834V20.5156C41.5085 19.0587 40.4163 17.8085 38.9695 17.6133L35.946 17.1982L35.6511 17.1582L35.5466 16.8799C35.4386 16.5944 35.3059 16.2705 35.2038 15.8975L35.1384 15.6582L37.0905 13.1152C37.9795 11.9549 37.8708 10.2989 36.8405 9.26855L34.7448 7.16406C33.7122 6.12746 32.055 6.01398 30.8874 6.90723L28.2702 8.90625L27.9968 8.78223C27.7054 8.64964 27.3654 8.50592 27.0144 8.30957L26.7956 8.1875L26.3904 5.05078C26.2019 3.59764 24.9527 2.5 23.4851 2.5H20.5144C19.1419 2.50009 17.9582 3.46333 17.6579 4.7832L17.6101 5.05176L17.2273 8.00098L17.1882 8.29883L16.9079 8.4043C16.6114 8.51627 16.2669 8.66083 15.8806 8.77344L15.6374 8.84473L13.1111 6.90625C12.0238 6.07085 10.496 6.11369 9.45773 6.97852L9.25656 7.16211L7.15988 9.26758C6.19245 10.2364 6.0384 11.7529 6.75656 12.8936L6.91183 13.1162L6.91281 13.1172L8.92453 15.7529L8.80441 16.0234C8.68249 16.2981 8.55049 16.6196 8.35812 16.9658L8.23605 17.1846L5.02805 17.6143L5.02707 17.6133C3.58264 17.8091 2.49094 19.0591 2.49094 20.5156V23.4834C2.4911 24.9434 3.58537 26.1924 5.03293 26.3848L8.38156 26.8398L8.48703 27.1182C8.5911 27.3921 8.72237 27.7092 8.82297 28.0762L8.88937 28.3164L8.73703 28.5137L6.91281 30.8838C6.02308 32.0406 6.12897 33.6993 7.16183 34.7363L9.25656 36.8389C10.2237 37.8111 11.7402 37.9688 12.8864 37.2539L13.1111 37.0986L15.8181 35.0371L16.0905 35.1611C16.2835 35.249 16.5041 35.3437 16.737 35.4619L16.9734 35.5889L17.1902 35.7119L17.6111 38.9531C17.8007 40.4051 19.0499 41.5019 20.5144 41.502V42.002L20.196 41.9873C18.7261 41.8499 17.4982 40.7717 17.1716 39.332L17.1159 39.0186L16.7263 36.0234C16.4329 35.8565 16.1575 35.741 15.8835 35.6162L13.4138 37.4971L13.1511 37.6777C11.8995 38.4586 10.2711 38.3519 9.13742 37.4072L8.90207 37.1924L6.80734 35.0889C5.67325 33.9502 5.49355 32.1744 6.33469 30.8398L6.5173 30.5791L8.34152 28.208C8.24915 27.871 8.13042 27.5859 8.02023 27.2959L4.96652 26.8799C3.37642 26.6685 2.1524 25.3717 2.00558 23.8008L1.99094 23.4834V20.5156C1.99094 18.8081 3.26872 17.3468 4.96164 17.1182L7.9216 16.7227C8.09986 16.4018 8.21935 16.1098 8.34738 15.8213L6.51535 13.4209C5.47266 12.0636 5.59567 10.1254 6.80539 8.91406L8.90207 6.80957C10.1133 5.59181 12.0559 5.46563 13.4148 6.50977L15.7409 8.29395C16.1024 8.18856 16.4134 8.05649 16.7312 7.93652L17.114 4.9873C17.3378 3.28306 18.7988 2.0001 20.5144 2H23.4851C25.204 2 26.6649 3.28462 26.8855 4.9873L27.2585 7.87305C27.5859 8.05619 27.8975 8.18777 28.2038 8.32715L30.5827 6.50977C31.9497 5.46383 33.8896 5.59694 35.0993 6.81152L37.1941 8.91406C38.4021 10.1221 38.5288 12.0601 37.488 13.4189L35.6862 15.7656C35.7803 16.1094 35.9009 16.4031 36.0144 16.7031L39.0368 17.1182C40.7313 17.3469 42.0085 18.8082 42.0085 20.5156V23.4834L41.9939 23.8008C41.847 25.3717 40.6231 26.6686 39.0329 26.8799L36.0427 27.2793L35.9802 27.2959C35.87 27.5861 35.7512 27.8716 35.6247 28.1504L37.4831 30.5791C38.5258 31.9348 38.4022 33.874 37.1941 35.0869L35.0964 37.1934C33.967 38.3304 32.1903 38.5203 30.8503 37.6807L30.5876 37.499L28.1706 35.6484C27.848 35.7392 27.567 35.8539 27.2849 35.9609L26.8845 39.0146C26.6656 40.7173 25.2043 42.0019 23.487 42.002V41.502C24.953 41.5019 26.2015 40.4041 26.3884 38.9512L26.8279 35.5996L27.1071 35.4941C27.3743 35.3928 27.6847 35.2655 28.0349 35.167L28.2751 35.0996L28.4743 35.251L30.8923 37.1016L31.115 37.2568C32.2588 37.9737 33.7782 37.8111 34.7419 36.8408L36.8405 34.7344C37.8714 33.6991 37.9764 32.0407 37.0866 30.8838L37.0857 30.8828L35.2273 28.4541L35.0456 28.2158L35.1696 27.9434C35.2915 27.6746 35.4058 27.3989 35.5124 27.1182L35.6042 26.876L35.8552 26.8115L35.9187 26.7949L35.948 26.7871L38.9675 26.3848C40.415 26.1924 41.5083 24.9434 41.5085 23.4834ZM24.0339 4.92676L24.4616 8.23242C24.5911 9.2424 25.2101 10.0914 26.0896 10.498L26.2693 10.5732C26.5259 10.6712 26.7795 10.7775 27.0261 10.8906L27.0271 10.8916C27.9777 11.3299 29.1101 11.1978 29.9782 10.5303L29.9851 10.5254L29.9909 10.5215L32.4548 8.74902L32.8103 8.49219L35.5085 11.3643L35.2497 11.7021L33.4509 14.043C32.7948 14.8951 32.654 16.0157 33.0759 16.9717L33.2302 17.3311C33.2792 17.4513 33.3262 17.572 33.3708 17.6924L33.445 17.8721C33.8471 18.7544 34.6916 19.3826 35.7038 19.5186L35.7116 19.5195L35.7185 19.5215L38.7693 20.0225L39.2009 20.0928L39.1872 20.5303L39.0827 24.0283L38.6618 24.084L35.6726 24.4834C34.5959 24.6255 33.7064 25.3259 33.3405 26.2988L33.3396 26.3008C33.2511 26.5327 33.1561 26.7621 33.0525 26.9883L33.0534 26.9893C32.652 27.8822 32.7457 28.928 33.3034 29.7627L33.4216 29.9268L33.4265 29.9336L33.4304 29.9395L35.5036 32.8066L32.6374 35.5166L32.2995 35.2568L29.8845 33.4082L29.7195 33.291C28.8813 32.7367 27.8373 32.6435 26.9431 33.0479L26.9441 33.0488C26.7322 33.1462 26.5151 33.2362 26.2888 33.3213C25.3145 33.69 24.6166 34.5824 24.4773 35.6592L24.4763 35.667L24.4753 35.6738L23.9109 39.1934L23.4724 39.1807L19.9665 39.0752L19.5241 35.6592C19.3834 34.5831 18.6859 33.6916 17.7068 33.3193L17.3767 33.1885C17.2676 33.1432 17.1588 33.0963 17.0505 33.0469C16.0849 32.6119 14.9658 32.7589 14.1159 33.4092L14.1101 33.4131L14.1042 33.418L11.1902 35.5107L8.49484 32.6348L10.5769 29.9287L10.695 29.7646C11.2544 28.9285 11.3477 27.883 10.945 26.9902C10.8445 26.7658 10.7474 26.5348 10.6589 26.2998C10.2929 25.3268 9.40401 24.6254 8.33078 24.4834L8.32297 24.4824L8.31516 24.4805L4.79953 23.9062L4.81223 23.4678L4.91769 19.9707L8.29562 19.5186C9.37641 19.3735 10.266 18.6678 10.6257 17.6982L10.6267 17.6953C10.7178 17.4552 10.8153 17.2122 10.9255 16.9678C11.3442 16.019 11.2075 14.8996 10.5525 14.0469L10.5476 14.041L10.5437 14.0352L8.75168 11.5518L8.49484 11.1973L11.3591 8.4873L14.0193 10.5283L14.0212 10.5293C14.8881 11.1985 16.0186 11.3289 16.9724 10.8926C17.2211 10.7776 17.4747 10.6712 17.7331 10.5732C18.7025 10.2048 19.3999 9.31467 19.5407 8.23535L19.5417 8.22754L19.5427 8.2207L20.0212 5.24219L20.0905 4.80762L24.0339 4.92676ZM20.0359 8.2998C19.8721 9.55493 19.058 10.6038 17.9099 11.04C17.6618 11.1341 17.4187 11.2364 17.1804 11.3467C16.0535 11.8623 14.7257 11.7055 13.7155 10.9258L11.3933 9.14355L9.15695 11.2598L10.9489 13.7422C11.7125 14.7361 11.8779 16.0495 11.3835 17.1699L11.2331 17.5205C11.1853 17.6375 11.1391 17.7545 11.0945 17.8721C10.668 19.0218 9.61878 19.846 8.36203 20.0146L5.40402 20.4102L5.31223 23.4834L8.39621 23.9873C9.64642 24.1527 10.6937 24.9718 11.1267 26.123C11.2109 26.3467 11.3039 26.567 11.4011 26.7842C11.9086 27.9094 11.745 29.2313 10.9734 30.2334L9.15012 32.6025L11.2556 34.8486L13.8122 33.0117C14.8025 32.254 16.1174 32.0766 17.2585 32.5918C17.4644 32.6858 17.6718 32.7721 17.8825 32.8516C19.0403 33.291 19.8564 34.3413 20.0202 35.5947L20.4079 38.5879L23.487 38.6807L23.9812 35.5947C24.1433 34.3414 24.9593 33.2908 26.112 32.8545C26.3277 32.7734 26.534 32.6872 26.7351 32.5947C27.862 32.084 29.1819 32.2446 30.1872 33.0098L32.6032 34.8604L34.8415 32.7441L33.0251 30.2324C32.2549 29.2319 32.0914 27.9096 32.5974 26.7842C32.6468 26.6764 32.6942 26.5673 32.74 26.457L32.8728 26.123C33.2787 25.0436 34.2251 24.2568 35.3747 24.0264L35.6071 23.9873L38.5954 23.5889L38.6882 20.5156L35.6374 20.0146C34.4593 19.8565 33.4651 19.1224 32.99 18.0801L32.9021 17.8672C32.8592 17.7514 32.8143 17.6357 32.7673 17.5205L32.6198 17.1768C32.1516 16.1187 32.2703 14.8964 32.9177 13.9287L33.0544 13.7393L34.8532 11.3975L32.7468 9.1543L30.2829 10.9268C29.2728 11.7034 27.9434 11.8644 26.8181 11.3457C26.5814 11.2371 26.338 11.1341 26.0915 11.04C24.9386 10.6022 24.1261 9.55029 23.9655 8.29688L23.5925 5.41309L20.5144 5.32129L20.0359 8.2998Z" fill="white"/>
<path d="M27.1725 17.4095L20.3366 24.1668L17.4196 21.2831C16.8665 20.7365 15.9697 20.7365 15.4167 21.2831C14.8636 21.8301 14.8636 22.7164 15.4167 23.2632L19.3352 27.1368C19.6117 27.4101 19.9742 27.5468 20.3366 27.5468C20.699 27.5468 21.0616 27.4101 21.3381 27.1368L29.1752 19.3896C29.7285 18.8428 29.7285 17.9563 29.1753 17.4097C28.6224 16.8629 27.7256 16.8627 27.1725 17.4095Z" fill="#E6000D"/>
</svg>
