<svg width="150" height="150" viewBox="0 0 150 150" fill="none" xmlns="http://www.w3.org/2000/svg">
<path d="M43.1423 32.2553V10.5664H127.187V32.2553" stroke="#E6000D" stroke-width="5" stroke-miterlimit="10" stroke-linecap="round" stroke-linejoin="round"/>
<path d="M29.5872 70.1021V40.3897C29.5872 35.8976 33.2285 32.2563 37.7205 32.2563H132.609C137.101 32.2563 140.743 35.8976 140.743 40.3897V81.0564C140.743 85.5484 137.101 89.1897 132.609 89.1897H121.765" stroke="#E6000D" stroke-width="5" stroke-miterlimit="10" stroke-linecap="round" stroke-linejoin="round"/>
<path d="M47.8749 120.932C50.3828 120.932 52.4283 118.886 52.4283 116.378C52.4283 113.87 50.3828 111.825 47.8749 111.825C45.367 111.825 43.3215 113.87 43.3215 116.378C43.3215 118.886 45.367 120.932 47.8749 120.932Z" stroke="#E6000D" stroke-width="5" stroke-miterlimit="22.926" stroke-linecap="round" stroke-linejoin="round"/>
<path d="M36.4923 102.721C39.7212 99.7764 43.7674 98.1673 47.9426 98.1673C52.0587 98.1673 56.0511 99.731 59.2591 102.6" stroke="#E6000D" stroke-width="5" stroke-miterlimit="22.926" stroke-linecap="round" stroke-linejoin="round"/>
<path d="M27.382 91.334C33.1939 86.9175 40.477 84.5039 47.9924 84.5039C55.4015 84.5039 62.5882 86.8497 68.3622 91.1528" stroke="#E6000D" stroke-width="5" stroke-miterlimit="22.926" stroke-linecap="round" stroke-linejoin="round"/>
<path d="M78.7883 81.0562H121.764V116.301H83.6872" stroke="#E6000D" stroke-width="5" stroke-miterlimit="10" stroke-linecap="round" stroke-linejoin="round"/>
<path d="M48.0219 141.243C68.9842 141.243 85.9775 124.25 85.9775 103.288C85.9775 82.3253 68.9842 65.332 48.0219 65.332C27.0596 65.332 10.0663 82.3253 10.0663 103.288C10.0663 124.25 27.0596 141.243 48.0219 141.243Z" stroke="#E6000D" stroke-width="5" stroke-miterlimit="10" stroke-linecap="round" stroke-linejoin="round"/>
</svg>
