<svg width="138" height="116" viewBox="0 0 138 116" fill="none" xmlns="http://www.w3.org/2000/svg">
<path d="M119.733 0L120.182 0.00585938C129.569 0.244459 137.137 7.95963 137.137 17.4033V80.5605C137.137 90.154 129.327 97.9639 119.733 97.9639H18.0322C8.43876 97.9639 0.628906 90.154 0.628906 80.5605V17.4033C0.628921 7.80985 8.43877 0 18.0322 0H119.733ZM16.9326 98.9297C16.9863 98.9329 17.0399 98.9377 17.0938 98.9404L17.5576 98.958C17.3484 98.9527 17.1401 98.942 16.9326 98.9297ZM18.0322 5.82617C11.6496 5.82617 6.45509 11.0206 6.45508 17.4033V80.5605C6.45508 86.9432 11.6495 92.1377 18.0322 92.1377H119.733C126.116 92.1377 131.311 86.9432 131.311 80.5605V17.4033C131.311 11.0206 126.116 5.82617 119.733 5.82617H18.0322ZM120.806 91.083C120.663 91.0975 120.519 91.1075 120.375 91.1162C120.519 91.1075 120.663 91.0975 120.806 91.083ZM16.8779 91.0732C16.7309 91.0572 16.5846 91.0396 16.4395 91.0176C16.5846 91.0396 16.7309 91.0572 16.8779 91.0732ZM121.323 91.0176C121.183 91.0388 121.042 91.0556 120.9 91.0713C121.042 91.0556 121.183 91.0388 121.323 91.0176ZM15.8672 90.9131C15.7126 90.8808 15.5593 90.8456 15.4072 90.8066C15.5592 90.8456 15.7126 90.8808 15.8672 90.9131ZM121.84 90.9258C121.722 90.9497 121.603 90.9693 121.483 90.9893C121.603 90.9693 121.722 90.9497 121.84 90.9258ZM122.345 90.8096C122.229 90.8391 122.112 90.865 121.995 90.8906C122.112 90.865 122.229 90.8391 122.345 90.8096ZM15.3008 90.7773C15.1711 90.7426 15.0418 90.7075 14.9141 90.668C15.0418 90.7075 15.1711 90.7426 15.3008 90.7773ZM122.84 90.6709C122.728 90.7055 122.614 90.7357 122.5 90.7666C122.614 90.7357 122.728 90.7055 122.84 90.6709ZM14.7578 90.6162C14.6497 90.5809 14.5421 90.5445 14.4355 90.5059C14.5421 90.5445 14.6497 90.5809 14.7578 90.6162ZM123.318 90.5098C123.22 90.5454 123.12 90.5786 123.021 90.6113C123.12 90.5786 123.22 90.5454 123.318 90.5098ZM14.2715 90.4434C14.1647 90.4026 14.0582 90.3615 13.9531 90.3174C14.0582 90.3615 14.1647 90.4026 14.2715 90.4434ZM123.793 90.3252C123.702 90.3633 123.609 90.398 123.517 90.4336C123.609 90.398 123.702 90.3633 123.793 90.3252ZM13.8057 90.2529C13.7025 90.2077 13.5995 90.1626 13.498 90.1143C13.5995 90.1626 13.7025 90.2077 13.8057 90.2529ZM124.26 90.1172C124.166 90.1617 124.072 90.2033 123.977 90.2451C124.072 90.2033 124.166 90.1617 124.26 90.1172ZM124.713 89.8867C124.624 89.9346 124.533 89.981 124.442 90.0264C124.533 89.981 124.624 89.9346 124.713 89.8867ZM13.3154 90.0225C13.2264 89.9779 13.1374 89.9337 13.0498 89.8867C13.1374 89.9337 13.2264 89.9779 13.3154 90.0225ZM125.164 89.6309C125.068 89.6885 124.971 89.7441 124.873 89.7988C124.971 89.7441 125.068 89.6885 125.164 89.6309ZM12.8643 89.7832C12.7786 89.735 12.6935 89.6862 12.6094 89.6357C12.6935 89.6862 12.7786 89.735 12.8643 89.7832ZM125.581 89.3662C125.487 89.4286 125.393 89.4893 125.297 89.5488C125.393 89.4893 125.487 89.4286 125.581 89.3662ZM12.4531 89.54C12.3591 89.4814 12.2658 89.4218 12.1738 89.3604C12.2658 89.4218 12.3591 89.4814 12.4531 89.54ZM12.0264 89.2588C11.9403 89.1992 11.8547 89.1392 11.7705 89.0771C11.8547 89.1392 11.9403 89.1992 12.0264 89.2588ZM125.986 89.082C125.907 89.1405 125.826 89.1976 125.745 89.2539C125.826 89.1976 125.907 89.1405 125.986 89.082ZM126.394 88.7686C126.31 88.8366 126.224 88.9023 126.139 88.9678C126.224 88.9023 126.31 88.8366 126.394 88.7686ZM11.6123 88.957C11.5344 88.8973 11.457 88.8372 11.3809 88.7754C11.457 88.8372 11.5344 88.8973 11.6123 88.957ZM126.77 88.4463C126.691 88.5164 126.612 88.5855 126.531 88.6533C126.612 88.5855 126.691 88.5164 126.77 88.4463ZM11.2139 88.6357C11.1403 88.5736 11.0669 88.5114 10.9951 88.4473C11.0669 88.5114 11.1403 88.5736 11.2139 88.6357ZM10.8438 88.3086C10.7692 88.2393 10.6956 88.169 10.623 88.0977C10.6956 88.169 10.7692 88.2393 10.8438 88.3086ZM127.127 88.1113C127.059 88.178 126.99 88.2437 126.92 88.3086C126.99 88.2437 127.059 88.178 127.127 88.1113ZM127.481 87.748C127.414 87.821 127.345 87.8929 127.275 87.9639C127.345 87.8929 127.414 87.821 127.481 87.748ZM10.4805 87.9541C10.4138 87.886 10.3481 87.817 10.2832 87.7471C10.3481 87.817 10.4138 87.886 10.4805 87.9541ZM10.1455 87.5967C10.0779 87.521 10.0108 87.4448 9.94531 87.3672C10.0108 87.4448 10.0779 87.521 10.1455 87.5967ZM127.809 87.3779C127.746 87.4515 127.684 87.5249 127.62 87.5967C127.684 87.5249 127.746 87.4515 127.809 87.3779ZM128.115 86.999C128.061 87.0694 128.006 87.1391 127.95 87.208C128.006 87.1391 128.061 87.0694 128.115 86.999ZM9.80762 87.2002C9.75499 87.1351 9.70345 87.0692 9.65234 87.0029C9.70345 87.0692 9.75499 87.1351 9.80762 87.2002ZM128.438 86.5586C128.379 86.6429 128.319 86.7261 128.259 86.8086C128.319 86.7261 128.379 86.6429 128.438 86.5586ZM9.49609 86.7949C9.439 86.717 9.38312 86.6381 9.32812 86.5586C9.38312 86.6381 9.439 86.717 9.49609 86.7949ZM128.715 86.1357C128.656 86.2308 128.595 86.325 128.533 86.418C128.595 86.325 128.656 86.2308 128.715 86.1357ZM9.22559 86.4082C9.16317 86.3145 9.10244 86.2197 9.04297 86.124C9.10244 86.2197 9.16317 86.3145 9.22559 86.4082ZM8.96094 85.9912C8.90327 85.8953 8.84765 85.7981 8.79297 85.7002C8.84765 85.7981 8.90327 85.8953 8.96094 85.9912ZM128.956 85.7275C128.908 85.8132 128.859 85.8983 128.809 85.9824C128.859 85.8983 128.908 85.8132 128.956 85.7275ZM0.308594 85.5215C0.270344 85.385 0.233398 85.248 0.198242 85.1104C0.233399 85.248 0.270343 85.385 0.308594 85.5215ZM129.189 85.2891C129.147 85.3738 129.104 85.4585 129.06 85.542C129.104 85.4585 129.147 85.3738 129.189 85.2891ZM8.70508 85.54C8.6608 85.4575 8.61831 85.3739 8.57617 85.29C8.6183 85.3739 8.6608 85.4575 8.70508 85.54ZM129.416 84.8086C129.375 84.901 129.334 84.993 129.291 85.084C129.334 84.993 129.375 84.901 129.416 84.8086ZM8.46387 85.0625C8.4294 84.9896 8.39709 84.9156 8.36426 84.8418C8.39709 84.9156 8.4294 84.9896 8.46387 85.0625ZM0.0878906 84.6533C0.0568515 84.5172 0.0279926 84.3804 0 84.2432C0.027994 84.3804 0.0568503 84.5172 0.0878906 84.6533ZM129.616 84.3203C129.576 84.4264 129.535 84.5323 129.491 84.6367C129.535 84.5323 129.576 84.4264 129.616 84.3203ZM8.26562 84.6172C8.22797 84.5269 8.19341 84.4353 8.1582 84.3438C8.19341 84.4353 8.22797 84.5269 8.26562 84.6172ZM129.796 83.8135C129.759 83.9286 129.72 84.0429 129.679 84.1562C129.72 84.0429 129.759 83.9286 129.796 83.8135ZM8.08203 84.1455C8.05098 84.0596 8.02301 83.9726 7.99414 83.8857C8.02301 83.9726 8.05099 84.0596 8.08203 84.1455ZM129.95 83.291C129.915 83.4207 129.88 83.55 129.841 83.6777C129.88 83.55 129.915 83.4207 129.95 83.291ZM7.91602 83.6475C7.88252 83.538 7.85226 83.4274 7.82227 83.3164C7.85226 83.4274 7.88252 83.538 7.91602 83.6475ZM130.08 82.751C130.049 82.8966 130.016 83.0412 129.979 83.1846C130.016 83.0412 130.049 82.8966 130.08 82.751ZM7.78125 83.1699C7.74785 83.0388 7.71887 82.9064 7.69043 82.7734C7.71886 82.9064 7.74785 83.0388 7.78125 83.1699ZM7.66699 82.6709C7.64083 82.5423 7.61909 82.4125 7.59766 82.2822C7.61908 82.4125 7.64083 82.5423 7.66699 82.6709ZM7.5752 82.1533C7.55937 82.0491 7.54692 81.9441 7.53418 81.8389C7.54692 81.9441 7.55937 82.0491 7.5752 82.1533ZM130.237 81.7803C130.223 81.9049 130.209 82.0291 130.19 82.1523C130.209 82.0291 130.223 81.9049 130.237 81.7803ZM7.46875 81.1045C7.47561 81.2393 7.48713 81.3734 7.49902 81.5068C7.48661 81.3675 7.47471 81.2277 7.46777 81.0869L7.46875 81.1045ZM7.46875 16.8594V16.8604V16.8594ZM0.298828 12.4766C0.327386 12.3739 0.357407 12.2718 0.387695 12.1699C0.357406 12.2718 0.327387 12.3739 0.298828 12.4766ZM128.497 1.22461H128.498H128.497ZM127.299 0.628906H127.3H127.299ZM16.6309 98.9102C16.7312 98.9178 16.8318 98.9237 16.9326 98.9297C16.8318 98.9237 16.7312 98.9177 16.6309 98.9102ZM15.6973 98.8154C15.5555 98.7974 15.4142 98.7781 15.2734 98.7568C15.4142 98.7781 15.5555 98.7974 15.6973 98.8154ZM16.3027 90.9932C16.1692 90.9711 16.0361 90.9489 15.9043 90.9219C16.0361 90.9489 16.1692 90.9711 16.3027 90.9932ZM0.369141 85.7295C0.348836 85.6602 0.328102 85.5911 0.308594 85.5215C0.328102 85.5911 0.348835 85.6602 0.369141 85.7295ZM0.162109 84.9619C0.136824 84.8593 0.111441 84.7566 0.0878906 84.6533C0.111442 84.7566 0.136823 84.8593 0.162109 84.9619ZM130.166 82.2891C130.144 82.4226 130.122 82.5557 130.095 82.6875C130.122 82.5557 130.144 82.4226 130.166 82.2891ZM0.198242 12.8525C0.230387 12.7267 0.264095 12.6014 0.298828 12.4766C0.264094 12.6014 0.230388 12.7267 0.198242 12.8525Z" fill="#E6000D"/>
<path d="M100.667 37.307C100.627 37.2671 100.573 37.2553 100.531 37.2178C92.0384 28.7721 80.5454 24.0254 68.5611 24.0141C68.5376 24.0141 68.5188 24 68.4977 24C68.4765 24 68.46 24 68.4389 24C56.444 24.0058 44.9405 28.7596 36.4483 37.2201C36.4107 37.2506 36.366 37.2624 36.3308 37.2952C36.2955 37.3281 36.2885 37.3727 36.2603 37.4056C32.053 41.6118 28.7164 46.6046 26.4412 52.0987C24.166 57.5929 22.9967 63.4808 23 69.4263C23 70.049 23.2477 70.6462 23.6885 71.0864C24.1293 71.5267 24.7273 71.7741 25.3507 71.7741H60.5359C61.3805 73.07 62.5355 74.1351 63.8961 74.873C65.2567 75.6109 66.7801 75.9982 68.3284 76C69.8783 75.9932 71.4025 75.6038 72.7653 74.8665C74.1281 74.1292 75.2873 73.0669 76.1398 71.7741H111.649C112.273 71.7741 112.871 71.5267 113.311 71.0864C113.752 70.6462 114 70.049 114 69.4263C114.006 57.4274 109.241 45.9172 100.752 37.4267C100.707 37.3985 100.707 37.3469 100.667 37.307ZM89.1485 45.4959C84.0252 41.069 77.6093 38.4097 70.853 37.9127V28.8199C80.0199 29.3433 88.7391 32.9522 95.5894 39.0584L89.1485 45.4959ZM47.8586 45.4959L41.4153 39.0607C48.2626 32.9494 56.9834 29.339 66.1517 28.8199V37.9127C59.3947 38.4061 52.9775 41.0639 47.8539 45.4912L47.8586 45.4959ZM38.0726 42.3616L44.5253 48.8109C40.0976 53.9317 37.4386 60.3403 36.942 67.088H27.7743C28.3036 57.9182 31.9327 49.1992 38.0679 42.3569L38.0726 42.3616ZM66.6594 71.004C65.5032 70.5564 64.572 69.669 64.0701 68.5366C63.5682 67.4041 63.5365 66.1191 63.982 64.9633C66.6837 60.9517 69.8023 57.2365 73.286 53.8796C73.6046 58.7034 73.4099 63.5472 72.7054 68.3299C72.2554 69.4835 71.3657 70.4117 70.2313 70.9108C69.097 71.4099 67.8107 71.4392 66.6547 70.9923L66.6594 71.004ZM77.6889 67.1021C78.1245 60.8124 78.1559 54.5012 77.7829 48.2075C77.7586 47.7562 77.6043 47.3214 77.3387 46.9555C77.073 46.5895 76.7072 46.308 76.2852 46.1446C75.8633 45.9812 75.403 45.943 74.9598 46.0345C74.5166 46.126 74.1093 46.3433 73.7867 46.6603C71.6828 48.7545 61.1094 59.3874 59.6073 63.2706C59.1368 64.4907 58.9308 65.7966 59.0032 67.1021H41.6339C42.2234 60.3923 45.3054 54.1458 50.2738 49.5912C55.2422 45.0366 61.7372 42.5037 68.4812 42.4908H68.5165C75.2587 42.5054 81.7519 45.0372 86.7207 49.5888C91.6894 54.1404 94.7748 60.3829 95.3708 67.0903L77.6889 67.1021ZM100.058 67.1021C99.5683 60.3494 96.9105 53.9346 92.4794 48.8109L98.9438 42.3546C105.082 49.1955 108.714 57.9149 109.245 67.0856L100.058 67.1021Z" fill="#E6000D"/>
<path d="M84.9941 108.956C86.6029 108.956 87.9071 110.26 87.9072 111.869C87.9072 113.476 86.5977 114.782 84.9863 114.782H51.8135C50.2046 114.782 48.9004 113.478 48.9004 111.869C48.9005 110.26 50.2046 108.956 51.8135 108.956H84.9941ZM85.3604 115.764C85.2373 115.775 85.1124 115.782 84.9863 115.782C85.1125 115.782 85.2372 115.775 85.3604 115.764ZM51.4131 115.763V115.762V115.763ZM85.4795 115.75C85.4444 115.754 85.4094 115.759 85.374 115.763C85.4094 115.759 85.4444 115.754 85.4795 115.75ZM49.9482 115.311V115.31V115.311ZM48.5684 114.058V114.057C48.6035 114.109 48.6402 114.16 48.6777 114.21C48.7529 114.31 48.8327 114.407 48.917 114.5C48.7908 114.361 48.6738 114.214 48.5684 114.058ZM85.7109 108.022C85.774 108.034 85.8365 108.047 85.8984 108.062C85.8365 108.047 85.774 108.034 85.7109 108.022ZM86.0508 115.634C86.0125 115.645 85.9743 115.655 85.9355 115.665C85.9743 115.655 86.0125 115.645 86.0508 115.634ZM86.4053 115.516C86.3686 115.53 86.3321 115.544 86.2949 115.558C86.3321 115.544 86.3686 115.53 86.4053 115.516ZM88.7617 110.813C88.7711 110.847 88.7806 110.88 88.7891 110.914C88.7806 110.88 88.7711 110.847 88.7617 110.813ZM88.6406 110.45C88.6546 110.486 88.6687 110.522 88.6816 110.559C88.6687 110.522 88.6546 110.486 88.6406 110.45ZM85.5869 108C85.6286 108.006 85.6697 108.015 85.7109 108.022C85.6697 108.015 85.6286 108.006 85.5869 108Z" fill="#E6000D"/>
</svg>
