<svg width="150" height="150" viewBox="0 0 150 150" fill="none" xmlns="http://www.w3.org/2000/svg">
<path d="M43.1423 31.7553V10.0664H127.187V31.7553" stroke="#E6000D" stroke-width="5" stroke-miterlimit="10" stroke-linecap="round" stroke-linejoin="round"/>
<path d="M29.5872 69.6019V39.8894C29.5872 35.3974 33.2285 31.7561 37.7205 31.7561H132.609C137.101 31.7561 140.743 35.3974 140.743 39.8894V80.5561C140.743 85.0482 137.101 88.6894 132.609 88.6894H121.765" stroke="#E6000D" stroke-width="5" stroke-miterlimit="10" stroke-linecap="round" stroke-linejoin="round"/>
<path d="M53.9617 98.6233L61.824 106.486L69.6862 98.6236" stroke="#E6000D" stroke-width="5" stroke-miterlimit="10" stroke-linecap="round" stroke-linejoin="round"/>
<path d="M61.8243 106.485C62.8497 102.659 62.4151 98.4411 60.2779 94.7394C56.0036 87.3358 46.5367 84.7993 39.1332 89.0737C31.7296 93.348 29.1931 102.815 33.4675 110.218C35.6046 113.92 39.0399 116.405 42.8664 117.431" stroke="#E6000D" stroke-width="5" stroke-miterlimit="10" stroke-linecap="round" stroke-linejoin="round"/>
<path d="M78.7883 80.5562H121.764V115.801H83.6872" stroke="#E6000D" stroke-width="5" stroke-miterlimit="10" stroke-linecap="round" stroke-linejoin="round"/>
<path d="M48.0219 140.743C68.9842 140.743 85.9775 123.75 85.9775 102.788C85.9775 81.8253 68.9842 64.832 48.0219 64.832C27.0596 64.832 10.0663 81.8253 10.0663 102.788C10.0663 123.75 27.0596 140.743 48.0219 140.743Z" stroke="#E6000D" stroke-width="5" stroke-miterlimit="10" stroke-linecap="round" stroke-linejoin="round"/>
</svg>
