<svg width="44" height="44" viewBox="0 0 44 44" fill="none" xmlns="http://www.w3.org/2000/svg">
<path fill-rule="evenodd" clip-rule="evenodd" d="M22 3C18.2422 3 14.5687 4.11433 11.4442 6.20208C8.31964 8.28982 5.88436 11.2572 4.4463 14.729C3.00823 18.2008 2.63197 22.0211 3.36509 25.7067C4.09821 29.3924 5.90778 32.7778 8.56498 35.435C11.2222 38.0922 14.6077 39.9018 18.2933 40.6349C21.9789 41.368 25.7992 40.9918 29.271 39.5537C32.7428 38.1156 35.7102 35.6804 37.7979 32.5558C39.8857 29.4313 41 25.7578 41 22C40.9976 16.9616 38.995 12.1303 35.4323 8.56765C31.8697 5.00499 27.0384 3.00243 22 3ZM22 39.6896C18.5013 39.6896 15.0812 38.6522 12.1722 36.7084C9.26311 34.7646 6.99579 32.0019 5.6569 28.7695C4.31801 25.5372 3.9677 21.9804 4.65025 18.5489C5.33281 15.1175 7.01759 11.9655 9.49153 9.49152C11.9655 7.01758 15.1175 5.33281 18.5489 4.65025C21.9804 3.96769 25.5372 4.318 28.7695 5.65689C32.0019 6.99578 34.7646 9.2631 36.7084 12.1722C38.6522 15.0812 39.6897 18.5013 39.6897 22C39.6876 26.6909 37.8232 31.1892 34.5062 34.5062C31.1892 37.8232 26.691 39.6876 22 39.6896Z" fill="#E6000D" stroke="#E6000D"/>
<path fill-rule="evenodd" clip-rule="evenodd" d="M26.029 17.439C25.8882 17.3984 25.7379 17.4061 25.602 17.461C25.4661 17.5159 25.3526 17.6147 25.2795 17.7417C24.3819 19.301 22.7453 19.5054 21.3484 19.7806C20.2601 19.8744 19.2341 20.3286 18.4329 21.0713C17.8996 21.7203 17.6027 22.5313 17.5908 23.3713C17.5789 24.2112 17.8527 25.0303 18.3674 25.6942C18.0404 26.2981 17.7563 26.9243 17.517 27.568C17.4595 27.732 17.4695 27.9122 17.5448 28.0688C17.6201 28.2255 17.7546 28.3458 17.9186 28.4033C18.0826 28.4608 18.2628 28.4508 18.4195 28.3755C18.5761 28.3002 18.6964 28.1657 18.754 28.0017C18.9301 27.5255 19.1349 27.0603 19.3672 26.6088C20.1236 27.0992 21.0325 27.2978 21.9245 27.1676C22.8165 27.0374 23.6308 26.5873 24.2155 25.9012C25.6477 24.1873 26.4116 20.6101 26.5125 18.0942C26.5176 17.9465 26.4727 17.8013 26.3849 17.6824C26.2971 17.5634 26.1717 17.4777 26.029 17.439ZM23.1986 25.0613C22.8114 25.5101 22.2721 25.8 21.6842 25.8755C21.0963 25.951 20.5012 25.8066 20.0132 25.4701C20.1115 25.3194 20.2137 25.1687 20.3211 25.0194C20.8728 24.1276 21.7186 23.4565 22.7125 23.122C22.8818 23.0822 23.0283 22.9768 23.1198 22.829C23.2113 22.6812 23.2404 22.5031 23.2006 22.3338C23.1608 22.1646 23.0554 22.0181 22.9076 21.9265C22.7598 21.835 22.5817 21.8059 22.4124 21.8457C21.1158 22.2552 20.0033 23.1054 19.2676 24.2489C19.2231 24.3118 19.1772 24.3799 19.1366 24.4389C18.9405 24.0324 18.8652 23.5782 18.9195 23.1301C18.9739 22.6821 19.1556 22.2591 19.4432 21.9112C19.7411 21.6055 20.1234 21.3957 20.5413 21.3085C21.1086 21.1434 21.7573 21.0464 22.4164 20.9023C23.3381 20.7383 24.2198 20.3989 25.0135 19.9025C24.8463 21.7461 24.2226 23.5191 23.1986 25.0613Z" fill="#E6000D" stroke="#E6000D" stroke-width="0.5"/>
<path fill-rule="evenodd" clip-rule="evenodd" d="M26.7782 11.4388C26.4097 11.0705 25.9101 10.8636 25.3892 10.8635H15.4489C14.9276 10.8635 14.4277 11.0706 14.0591 11.4392C13.6905 11.8078 13.4834 12.3078 13.4834 12.829V31.1739C13.4834 31.6952 13.6905 32.1951 14.0591 32.5637C14.4277 32.9323 14.9276 33.1394 15.4489 33.1394H28.5524C29.0736 33.1394 29.5736 32.9323 29.9422 32.5637C30.3108 32.1951 30.5179 31.6952 30.5179 31.1739V15.9922C30.518 15.7341 30.4673 15.4784 30.3686 15.2399C30.2699 15.0013 30.1251 14.7845 29.9426 14.6019L26.7782 11.4388ZM26.0444 12.5578L28.8236 15.337H26.6995C26.5258 15.337 26.3591 15.268 26.2363 15.1451C26.1134 15.0223 26.0444 14.8556 26.0444 14.6819V12.5578ZM29.2075 31.1739C29.2075 31.3476 29.1385 31.5143 29.0156 31.6371C28.8928 31.76 28.7261 31.829 28.5524 31.829H15.4489C15.2752 31.829 15.1085 31.76 14.9856 31.6371C14.8628 31.5143 14.7937 31.3476 14.7937 31.1739V12.829C14.7937 12.6553 14.8628 12.4886 14.9856 12.3658C15.1085 12.2429 15.2752 12.1739 15.4489 12.1739H24.734V14.6819C24.734 15.2032 24.9411 15.7031 25.3097 16.0717C25.6783 16.4403 26.1782 16.6474 26.6995 16.6474H29.2075V31.1739Z" fill="#E6000D" stroke="#E6000D" stroke-width="0.5"/>
</svg>
