<svg width="36" height="41" viewBox="0 0 36 41" fill="none" xmlns="http://www.w3.org/2000/svg">
<path d="M20.4781 4.77689C12.6079 3.65172 5.27942 7.84864 2.09524 15.2525C0.887429 18.0579 0.420792 21.021 0.803249 24.065C1.68968 31.1429 5.39454 36.179 11.9351 38.7105C18.0569 41.0799 23.8114 39.9741 28.9712 35.8872C28.8728 36.47 28.7801 37.0072 28.6968 37.5435V37.5445C28.6407 37.9144 28.7078 38.2594 28.895 38.5327C29.083 38.8071 29.3773 38.9868 29.7329 39.0513C30.3846 39.1684 30.9587 38.7342 31.1333 38.0845L31.1636 37.9517C31.4697 36.2357 31.7729 34.5166 32.065 32.7974C32.1572 32.2573 32.0843 31.7855 31.7788 31.4693C31.4745 31.1544 31.0051 31.0616 30.4644 31.1245L25.399 31.7134L25.2642 31.7349C24.9567 31.7973 24.6975 31.9407 24.5142 32.1577C24.3041 32.4065 24.2127 32.7302 24.2407 33.0806C24.2689 33.4386 24.4149 33.7484 24.6734 33.9585C24.9308 34.1676 25.2732 34.2564 25.6558 34.2261C26.1513 34.1866 26.6485 34.1307 27.1724 34.0708C24.8133 35.955 22.1442 37.0348 19.1324 37.2798C11.5459 37.8977 4.56829 32.4325 3.37259 24.5396C2.1513 16.475 7.34001 9.06701 14.9702 7.4556C22.9724 5.76197 30.722 10.9023 32.481 19.0425C32.9418 21.1786 32.9347 23.3235 32.4693 25.4654L32.4029 25.7857C32.3931 25.8446 32.3848 25.9055 32.3804 25.9673L32.3794 26.1538C32.4234 26.7995 32.9355 27.2953 33.5503 27.3345H33.5513C34.1314 27.3685 34.647 26.9965 34.8316 26.4361L34.8638 26.3218C35.2988 24.4825 35.4158 22.6174 35.2632 20.7456C35.0007 17.5303 33.9616 14.5749 32.0904 11.9634C29.2069 7.94241 25.341 5.47119 20.4781 4.77689Z" fill="#E6000D" stroke="#E6000D" stroke-width="0.5"/>
<path d="M19.2466 11.8769C19.2294 10.8595 18.189 10.2691 17.3374 10.8056L17.2534 10.8632C16.9077 11.1204 16.7853 11.4821 16.7603 11.8544L16.7544 12.0263C16.7615 13.6334 16.7574 15.2402 16.7574 16.8515C16.7573 17.6893 16.7528 18.5294 16.7622 19.371C16.7632 19.469 16.7512 19.5163 16.7368 19.5448C16.7244 19.5695 16.6974 19.6043 16.6177 19.6513L16.4116 19.7821C15.4146 20.4632 14.9536 21.5803 15.1597 22.7802C15.3587 23.937 16.3171 24.9101 17.4732 25.1337C18.6164 25.3544 19.7586 24.8496 20.4185 23.8378L20.5435 23.6288C20.589 23.5457 20.6267 23.5233 20.6529 23.5126C20.692 23.4967 20.7485 23.4901 20.8618 23.4901C22.2323 23.4925 23.6048 23.5016 24.979 23.4872H24.98C25.9111 23.4753 26.511 22.4885 26.0786 21.6669L25.9741 21.496C25.8604 21.3366 25.7195 21.2117 25.5542 21.123C25.3365 21.0062 25.0904 20.9593 24.8325 20.9618H24.8316C23.5636 20.9714 22.2792 20.9568 21.0034 20.9784H21.0025C20.846 20.9815 20.7469 20.9594 20.6704 20.9189C20.5932 20.8779 20.5133 20.8047 20.4185 20.664C20.1567 20.2709 19.7833 19.9504 19.4302 19.6884C19.3422 19.6223 19.3022 19.5762 19.2808 19.537C19.261 19.5009 19.2457 19.45 19.2466 19.3544V19.3534L19.2515 15.6181V15.6151C19.2515 14.3742 19.2678 13.1251 19.2466 11.8769Z" fill="#E6000D" stroke="#E6000D" stroke-width="0.5"/>
<path d="M14.2809 0.254883L14.2818 0.255859C13.9231 0.255859 13.6049 0.375793 13.3766 0.59668C13.1479 0.818109 13.0248 1.12542 13.0299 1.4668C13.035 1.80977 13.1593 2.11305 13.3912 2.3291C13.6219 2.54399 13.9387 2.65234 14.2945 2.65234L14.2936 2.65332H21.7154C22.0802 2.65332 22.4055 2.54156 22.6412 2.32422C22.8789 2.10501 23.0061 1.79669 23.0035 1.44824C23.0009 1.10796 22.8781 0.804003 22.6471 0.585938C22.4171 0.368894 22.0998 0.256022 21.7398 0.255859V0.254883C19.2543 0.248164 16.7664 0.248164 14.2809 0.254883Z" fill="#E6000D" stroke="#E6000D" stroke-width="0.5"/>
</svg>
