<svg width="150" height="150" viewBox="0 0 150 150" fill="none" xmlns="http://www.w3.org/2000/svg">
<g clip-path="url(#clip0_1_996)">
<path d="M12.4749 56.3882L9.00122 42.4933" stroke="#E6000D" stroke-width="6" stroke-miterlimit="22.926" stroke-linecap="round" stroke-linejoin="round"/>
<path d="M12.4738 56.3882L26.3686 49.4407" stroke="#E6000D" stroke-width="6" stroke-miterlimit="22.926" stroke-linecap="round" stroke-linejoin="round"/>
<path d="M13.4627 52.6303C22.5829 26.5141 47.3766 9.00076 75.2284 9.00076C105.028 9.00076 131.056 29.0015 138.517 57.6328" stroke="#E6000D" stroke-width="6" stroke-miterlimit="22.926" stroke-linecap="round" stroke-linejoin="round"/>
<path d="M137.175 93.7208L140.648 107.616" stroke="#E6000D" stroke-width="6" stroke-miterlimit="22.926" stroke-linecap="round" stroke-linejoin="round"/>
<path d="M137.167 93.7186L123.272 100.666" stroke="#E6000D" stroke-width="6" stroke-miterlimit="22.926" stroke-linecap="round" stroke-linejoin="round"/>
<path d="M135.043 97.3719C126.176 123.488 102.071 141.001 74.993 141.001C46.0209 141.001 20.7157 121.001 13.4628 92.3694" stroke="#E6000D" stroke-width="6" stroke-miterlimit="22.926" stroke-linecap="round" stroke-linejoin="round"/>
<path d="M75.9888 102.789C79.8153 102.789 82.9362 99.6675 82.9362 95.8413C82.9362 92.0148 79.8153 88.8937 75.9888 88.8937C72.1622 88.8937 69.0413 92.0148 69.0413 95.8413C69.0413 99.6675 72.1622 102.789 75.9888 102.789Z" stroke="#E6000D" stroke-width="6" stroke-miterlimit="22.926" stroke-linecap="round" stroke-linejoin="round"/>
<path d="M58.6218 74.9985C63.5483 70.5061 69.722 68.0511 76.0924 68.0511C82.3726 68.0511 88.4642 70.4369 93.359 74.8137" stroke="#E6000D" stroke-width="6" stroke-miterlimit="22.926" stroke-linecap="round" stroke-linejoin="round"/>
<path d="M44.7216 57.6328C53.5894 50.8942 64.7018 47.2117 76.1686 47.2117C87.4733 47.2117 98.4386 50.7908 107.248 57.3564" stroke="#E6000D" stroke-width="6" stroke-miterlimit="22.926" stroke-linecap="round" stroke-linejoin="round"/>
</g>
<defs>
<clipPath id="clip0_1_996">
<rect width="138" height="138" fill="white" transform="translate(6 6.00049)"/>
</clipPath>
</defs>
</svg>
