<svg width="40" height="40" viewBox="0 0 40 40" fill="none" xmlns="http://www.w3.org/2000/svg">
<g clip-path="url(#clip0_1_401)">
<path d="M20.0004 7.65039C17.5578 7.65039 15.17 8.37471 13.1391 9.73174C11.1082 11.0888 9.52523 13.0176 8.59048 15.2742C7.65574 17.5309 7.41117 20.0141 7.8877 22.4098C8.36423 24.8054 9.54045 27.006 11.2676 28.7332C12.9948 30.4603 15.1954 31.6366 17.591 32.1131C19.9867 32.5896 22.4699 32.345 24.7265 31.4103C26.9832 30.4756 28.912 28.8926 30.269 26.8617C31.6261 24.8307 32.3504 22.443 32.3504 20.0004C32.3467 16.7261 31.0443 13.587 28.7291 11.2717C26.4138 8.95645 23.2747 7.65411 20.0004 7.65039ZM20.0004 31.2277C17.7798 31.2277 15.6092 30.5692 13.7629 29.3355C11.9165 28.1019 10.4775 26.3484 9.62775 24.2969C8.77798 22.2454 8.55565 19.9879 8.98885 17.8101C9.42206 15.6322 10.4914 13.6317 12.0615 12.0615C13.6317 10.4913 15.6322 9.42205 17.8101 8.98885C19.9879 8.55564 22.2454 8.77798 24.2969 9.62774C26.3484 10.4775 28.1019 11.9165 29.3355 13.7629C30.5692 15.6092 31.2277 17.7798 31.2277 20.0004C31.2242 22.977 30.0403 25.8307 27.9355 27.9355C25.8307 30.0403 22.977 31.2242 20.0004 31.2277Z" fill="#E6000D" stroke="#E6000D"/>
<path d="M37.8559 16.9537L36.0268 16.2229C35.6211 14.4961 34.9366 12.847 34.0001 11.3405L34.7741 9.5279C34.9025 9.24033 34.9473 8.92236 34.9033 8.61049C34.8593 8.29862 34.7282 8.00548 34.5252 7.7647C33.8287 6.93679 33.0623 6.17037 32.2344 5.47394C31.9942 5.27021 31.7014 5.13838 31.3896 5.09357C31.0778 5.04876 30.7597 5.09279 30.4718 5.2206L28.6586 5.99834C27.1521 5.06187 25.503 4.37734 23.7762 3.97167L23.0441 2.13944C22.928 1.84972 22.7349 1.5973 22.4856 1.40952C22.2363 1.22174 21.9404 1.10577 21.6299 1.07417C20.5455 0.975277 19.4544 0.975277 18.3701 1.07417C18.0588 1.10577 17.7622 1.22215 17.5125 1.41065C17.2628 1.59915 17.0696 1.85254 16.954 2.14324L16.2231 3.9723C14.4963 4.37797 12.8472 5.06251 11.3407 5.99897L9.52813 5.2244C9.24037 5.09612 8.9223 5.05148 8.61035 5.09562C8.29839 5.13975 8.00518 5.27086 7.7643 5.47394C6.93653 6.17053 6.17013 6.93693 5.47353 7.7647C5.27056 8.00526 5.13949 8.29814 5.09535 8.60978C5.05121 8.92142 5.0958 9.23918 5.224 9.52664L5.99857 11.3405C5.0621 12.847 4.37757 14.4961 3.9719 16.2229L2.13967 16.955C1.84995 17.0711 1.59752 17.2642 1.40975 17.5135C1.22197 17.7628 1.10599 18.0587 1.0744 18.3692C0.9752 19.4536 0.9752 20.5447 1.0744 21.629C1.106 21.9403 1.22238 22.2369 1.41088 22.4866C1.59938 22.7363 1.85277 22.9295 2.14347 23.0451L3.97253 23.776C4.3782 25.5028 5.06274 27.1519 5.9992 28.6584L5.22463 30.471C5.09594 30.7585 5.05103 31.0765 5.09506 31.3884C5.13909 31.7003 5.27028 31.9935 5.47353 32.2342C6.17018 33.0623 6.93681 33.8289 7.76493 34.5256C8.00549 34.7285 8.29837 34.8596 8.61001 34.9038C8.92165 34.9479 9.23941 34.9033 9.52687 34.7751L11.3407 34.0005C12.8472 34.937 14.4963 35.6215 16.2231 36.0272L16.9552 37.8594C17.0714 38.1494 17.2647 38.402 17.514 38.5901C17.7634 38.7782 18.0594 38.8945 18.3701 38.9266C18.9268 38.976 19.4943 39.0001 20.0465 39.0001C20.5988 39.0001 21.1365 38.976 21.6299 38.9266C21.9409 38.8943 22.2372 38.7776 22.4867 38.589C22.7362 38.4005 22.9294 38.1473 23.0454 37.8569L23.7762 36.0278C25.503 35.6222 27.1521 34.9376 28.6586 34.0012L30.4712 34.7751C30.7587 34.9038 31.0767 34.9487 31.3887 34.9047C31.7006 34.8606 31.9937 34.7295 32.2344 34.5262C33.0625 33.8299 33.8289 33.0635 34.5252 32.2354C34.7285 31.995 34.8599 31.702 34.9041 31.3902C34.9484 31.0784 34.9037 30.7604 34.7753 30.4729L34.0008 28.659C34.9372 27.1525 35.6218 25.5034 36.0274 23.7766L37.8597 23.0439C38.1496 22.9277 38.4022 22.7344 38.5903 22.4851C38.7784 22.2357 38.8948 21.9397 38.9268 21.629C39.0254 20.5436 39.0254 19.4515 38.9268 18.3661C38.8939 18.0554 38.7768 17.7597 38.588 17.5108C38.3993 17.2619 38.1461 17.0692 37.8559 16.9537ZM37.6659 21.5169C37.6549 21.5949 37.6234 21.6686 37.5745 21.7304C37.5257 21.7922 37.4612 21.8398 37.3878 21.8684L35.2465 22.7228C35.1499 22.7614 35.0643 22.8232 34.9973 22.9027C34.9302 22.9822 34.8838 23.077 34.8621 23.1788C34.4772 24.9857 33.7636 26.7065 32.7569 28.2556C32.7003 28.3427 32.6661 28.4424 32.6571 28.5459C32.6482 28.6494 32.6648 28.7535 32.7056 28.849L33.6106 30.97C33.6454 31.0422 33.6586 31.1228 33.6489 31.2023C33.6391 31.2818 33.6067 31.3568 33.5555 31.4184C32.9036 32.1937 32.1859 32.9112 31.4104 33.5629C31.3487 33.6121 31.2741 33.6427 31.1955 33.6509C31.117 33.659 31.0377 33.6446 30.9671 33.6091L28.8473 32.7047C28.7518 32.664 28.6477 32.6473 28.5442 32.6563C28.4407 32.6652 28.341 32.6995 28.2539 32.756C26.7048 33.7627 24.984 34.4763 23.1771 34.8612C23.0754 34.8829 22.9805 34.9294 22.901 34.9964C22.8215 35.0635 22.7597 35.1491 22.7211 35.2457L21.8674 37.3825C21.8386 37.4575 21.79 37.5233 21.7268 37.5729C21.6635 37.6224 21.588 37.6538 21.5083 37.6637C20.5008 37.755 19.4871 37.755 18.4797 37.6637C18.4017 37.6528 18.328 37.6213 18.2662 37.5724C18.2044 37.5235 18.1568 37.4591 18.1282 37.3857L17.2763 35.2463C17.2377 35.1497 17.176 35.0641 17.0964 34.997C17.0169 34.93 16.9221 34.8836 16.8203 34.8619C15.0134 34.4769 13.2926 33.7634 11.7435 32.7567C11.6565 32.6998 11.5568 32.6653 11.4533 32.6564C11.3497 32.6474 11.2456 32.6643 11.1501 32.7054L9.02907 33.6104C8.9569 33.645 8.87636 33.6582 8.79692 33.6486C8.71748 33.639 8.64245 33.6068 8.58067 33.5559C7.80556 32.9036 7.08808 32.1857 6.4362 31.4102C6.38731 31.3483 6.35701 31.2737 6.34883 31.1952C6.34064 31.1168 6.35491 31.0376 6.38997 30.9669L7.29437 28.8471C7.33514 28.7516 7.35178 28.6475 7.34283 28.544C7.33389 28.4405 7.29963 28.3408 7.24307 28.2537C6.23638 26.7046 5.52281 24.9838 5.13787 23.1769C5.11616 23.0751 5.06974 22.9803 5.00269 22.9008C4.93564 22.8213 4.85003 22.7595 4.75343 22.7209L2.61593 21.8697C2.54104 21.8408 2.47539 21.7922 2.42598 21.7289C2.37657 21.6657 2.34525 21.5902 2.33537 21.5106C2.24315 20.5029 2.24315 19.489 2.33537 18.4813C2.34635 18.4035 2.37783 18.33 2.42657 18.2684C2.47532 18.2067 2.53958 18.1591 2.61277 18.1305L4.7528 17.2761C4.8494 17.2375 4.935 17.1757 5.00205 17.0962C5.0691 17.0167 5.11553 16.9218 5.13723 16.8201C5.52218 15.0132 6.23575 13.2924 7.24243 11.7433C7.29899 11.6562 7.33325 11.5565 7.3422 11.453C7.35115 11.3495 7.3345 11.2454 7.29373 11.1499L6.3887 9.0282C6.35418 8.95602 6.34097 8.87549 6.35062 8.79607C6.36027 8.71664 6.39237 8.64162 6.44317 8.5798C7.09546 7.80505 7.81313 7.0878 8.58827 6.43597C8.65024 6.38719 8.72474 6.35691 8.80318 6.34862C8.88161 6.34032 8.96079 6.35436 9.0316 6.3891L11.1514 7.2935C11.2468 7.3346 11.351 7.35143 11.4545 7.34248C11.5581 7.33353 11.6578 7.29908 11.7448 7.2422C13.2939 6.23552 15.0147 5.52195 16.8216 5.137C16.9233 5.1153 17.0182 5.06887 17.0977 5.00182C17.1772 4.93477 17.239 4.84917 17.2776 4.75257L18.1313 2.6157C18.1602 2.54081 18.2088 2.47516 18.2721 2.42575C18.3353 2.37634 18.4108 2.34502 18.4904 2.33514C19.4981 2.24323 20.512 2.24323 21.5197 2.33514C21.5975 2.34612 21.671 2.3776 21.7326 2.42634C21.7943 2.47509 21.8419 2.53935 21.8705 2.61254L22.723 4.75257C22.7616 4.84917 22.8234 4.93477 22.9029 5.00182C22.9824 5.06887 23.0773 5.1153 23.179 5.137C24.9859 5.52195 26.7067 6.23552 28.2558 7.2422C28.3429 7.29876 28.4426 7.33303 28.5461 7.34197C28.6496 7.35092 28.7537 7.33427 28.8492 7.2935L30.9703 6.38847C31.0425 6.35403 31.123 6.34086 31.2024 6.35051C31.2818 6.36015 31.3568 6.39221 31.4187 6.44294C32.1936 7.09507 32.9108 7.81275 33.5625 8.58804C33.6114 8.64998 33.6417 8.72448 33.65 8.80293C33.6583 8.88138 33.6442 8.96058 33.6094 9.03137L32.705 11.1511C32.6642 11.2467 32.6476 11.3508 32.6565 11.4543C32.6654 11.5577 32.6997 11.6574 32.7563 11.7446C33.763 13.2937 34.4765 15.0145 34.8615 16.8214C34.8832 16.9231 34.9296 17.0179 34.9966 17.0975C35.0637 17.177 35.1493 17.2388 35.2459 17.2774L37.3828 18.1311C37.4568 18.1594 37.5219 18.2071 37.5712 18.2692C37.6206 18.3312 37.6524 18.4054 37.6633 18.4839V18.4902C37.7549 19.4979 37.7551 20.5117 37.664 21.5194L37.6659 21.5169Z" fill="#E6000D" stroke="#E6000D"/>
<path d="M20.6592 12.3018C20.9291 12.2195 21.2198 12.2376 21.4775 12.3525L21.4785 12.3516C21.7472 12.4708 21.9646 12.6823 22.0918 12.9473C22.2186 13.2116 22.2462 13.5123 22.1719 13.7959L22.1729 13.7969L21.2793 17.3174H23.167C23.4217 17.3177 23.6719 17.3873 23.8896 17.5195C24.1075 17.6519 24.2857 17.8422 24.4033 18.0684H24.4023C24.5308 18.306 24.5931 18.5738 24.582 18.8438C24.5708 19.1145 24.4863 19.3768 24.3379 19.6035L19.3584 27.2002L19.3594 27.2012C19.2096 27.4407 18.9783 27.6179 18.708 27.7002C18.4377 27.7824 18.1465 27.764 17.8887 27.6484C17.6205 27.5284 17.4038 27.3169 17.2773 27.0518C17.1512 26.7872 17.1224 26.4865 17.1973 26.2031L18.0889 22.6836H16.2002C15.9454 22.6835 15.6954 22.6136 15.4775 22.4814C15.2596 22.3492 15.0817 22.1597 14.9639 21.9336V21.9326C14.8357 21.6952 14.7741 21.4278 14.7852 21.1582C14.7963 20.8874 14.8799 20.6242 15.0283 20.3975H15.0293L20.0098 12.7979C20.1595 12.5598 20.3901 12.3839 20.6592 12.3018ZM16.4248 21.123L19.0947 21.1172H19.0957C19.2148 21.1172 19.3324 21.1441 19.4395 21.1963C19.5466 21.2486 19.6406 21.3249 19.7139 21.4189C19.7871 21.513 19.8378 21.6226 19.8623 21.7393C19.8868 21.8559 19.8847 21.9772 19.8555 22.0928L19.2373 24.5293L22.9414 18.877L20.2725 18.8838C20.1534 18.8838 20.0357 18.8569 19.9287 18.8047C19.8216 18.7524 19.7276 18.676 19.6543 18.582C19.5811 18.4881 19.5304 18.3783 19.5059 18.2617C19.4813 18.1452 19.4837 18.0246 19.5127 17.9092L20.1289 15.4717L16.4248 21.123Z" fill="#E6000D" stroke="#E6000D" stroke-width="0.3"/>
</g>
<defs>
<clipPath id="clip0_1_401">
<rect width="40" height="40" fill="white"/>
</clipPath>
</defs>
</svg>
