<svg width="44" height="44" viewBox="0 0 44 44" fill="none" xmlns="http://www.w3.org/2000/svg">
<g clip-path="url(#clip0_1_605)">
<mask id="mask0_1_605" style="mask-type:luminance" maskUnits="userSpaceOnUse" x="1" y="1" width="41" height="41">
<path d="M1.89912 1.91748H41.8991V41.9175H1.89912V1.91748Z" fill="white"/>
</mask>
<g mask="url(#mask0_1_605)">
<path d="M33.0319 21.9175C33.0319 28.066 28.0476 33.0503 21.8991 33.0503C15.7506 33.0503 10.7663 28.066 10.7663 21.9175C10.7663 15.769 15.7506 10.7847 21.8991 10.7847C28.0476 10.7847 33.0319 15.769 33.0319 21.9175Z" stroke="#E6000D" stroke-width="2.6" stroke-miterlimit="10" stroke-linecap="round" stroke-linejoin="round"/>
<path d="M27.4655 18.5776L20.7858 25.2573L16.3327 20.8042" stroke="#E6000D" stroke-width="2.6" stroke-miterlimit="10" stroke-linecap="round" stroke-linejoin="round"/>
<path d="M20.4553 4.56235C21.2874 3.85356 22.5108 3.85356 23.343 4.56235L26.2362 7.11585L31.1324 6.73696C32.2222 6.65265 33.2121 7.37175 33.4686 8.43427L34.4502 12.4997L38.7281 15.0604C39.6593 15.6327 40.0374 16.7963 39.6204 17.8067L37.9304 21.9019L39.6204 25.997C40.0374 27.0074 39.6593 28.171 38.7281 28.7434L34.4502 31.3041L33.4686 35.3695C33.2121 36.432 32.2222 37.1511 31.1324 37.0668L26.2841 36.6916L23.343 39.2726C22.5108 39.9814 21.2874 39.9814 20.4553 39.2726L17.5141 36.6916L12.6659 37.0668C11.576 37.1511 10.5862 36.432 10.3297 35.3695L9.34413 31.288L5.07344 28.7434C4.14214 28.171 3.76407 27.0074 4.1811 25.997L5.87106 21.9019L4.1811 17.8067C3.76407 16.7963 4.14214 15.6327 5.07344 15.0604L8.97808 12.7407L10.3297 8.43427C10.5862 7.37175 11.576 6.65265 12.6659 6.73696L17.5621 7.11585L20.4553 4.56235Z" stroke="#E6000D" stroke-width="2.6" stroke-miterlimit="10" stroke-linecap="round" stroke-linejoin="round"/>
</g>
</g>
<defs>
<clipPath id="clip0_1_605">
<rect width="40" height="40" fill="white" transform="translate(1.89912 1.91748)"/>
</clipPath>
</defs>
</svg>
