<svg width="138" height="138" viewBox="0 0 138 138" fill="none" xmlns="http://www.w3.org/2000/svg">
<g clip-path="url(#clip0_1_924)">
<path d="M64.3603 11.2373C64.3603 12.7135 63.3363 13.9753 61.9228 14.2979L61.6347 14.3496C52.2049 15.601 43.1854 19.3403 35.5556 25.1621C34.8122 25.7123 34.1739 25.8754 33.6132 25.8438C33.0357 25.811 32.4502 25.5662 31.8369 25.1445C31.2221 24.7218 30.6231 24.1523 30.0195 23.5273C29.4401 22.9275 28.8161 22.2318 28.247 21.6807L27.7138 21.165L27.1923 21.6914L21.7001 27.2314L21.1689 27.7666L21.707 28.2949L24.8828 31.4111C25.9335 32.4523 26.1079 34.0755 25.3359 35.3076L25.1689 35.5488C19.5252 42.9401 15.8354 51.6371 14.4755 60.75L14.3525 61.6221C14.2172 62.5354 13.8829 63.1024 13.4658 63.4775C13.0362 63.8638 12.4523 64.1066 11.7236 64.2451C10.9927 64.384 10.1685 64.4089 9.3017 64.3984C8.46949 64.3884 7.54003 64.3425 6.74799 64.3604L6.01459 64.377V73.6396H11.2392C12.8155 73.6396 14.146 74.8065 14.3515 76.3662V76.3672C15.599 85.7966 19.3401 94.8131 25.1611 102.44V102.441C25.712 103.189 25.8755 103.829 25.8437 104.391C25.811 104.969 25.566 105.554 25.1445 106.166C24.7218 106.78 24.1517 107.378 23.5263 107.981C22.9261 108.56 22.2307 109.183 21.6787 109.753L21.1621 110.286L21.6894 110.808L27.2314 116.297L27.7665 116.826L28.2939 116.29L31.4111 113.12C32.5253 111.994 34.299 111.876 35.5458 112.831H35.5468C43.1754 118.654 52.1939 122.395 61.623 123.648V123.649C62.5362 123.785 63.1034 124.12 63.4785 124.537C63.8646 124.967 64.1067 125.551 64.2451 126.279C64.3838 127.01 64.4079 127.833 64.3974 128.699C64.3873 129.531 64.3424 130.46 64.3603 131.252L64.3769 131.985H73.6396V126.763C73.6396 125.286 74.6635 124.025 76.0771 123.702L76.3652 123.65C85.7946 122.399 94.8128 118.659 102.442 112.838L102.443 112.839C103.188 112.289 103.827 112.125 104.388 112.157C104.965 112.19 105.55 112.435 106.163 112.856C106.778 113.279 107.377 113.849 107.98 114.474C108.56 115.073 109.183 115.769 109.753 116.32L110.286 116.836L110.808 116.31L116.3 110.769L116.831 110.233L116.293 109.706L113.117 106.589C111.997 105.478 111.872 103.705 112.831 102.451C118.654 94.8244 122.397 85.8076 123.646 76.3779L123.647 76.3789C123.783 75.4651 124.117 74.8977 124.534 74.5225C124.964 74.1362 125.548 73.8933 126.276 73.7549C127.007 73.6161 127.831 73.592 128.697 73.6025C129.53 73.6126 130.459 73.6576 131.252 73.6396L131.985 73.623V64.3604H126.761C125.184 64.3604 123.854 63.1937 123.648 61.6338V61.6328C122.4 52.1992 118.657 43.1783 112.831 35.5488C112.286 34.8059 112.125 34.1683 112.156 33.6094C112.189 33.0315 112.433 32.4471 112.854 31.835C113.277 31.2209 113.847 30.6228 114.473 30.0195C115.073 29.4405 115.769 28.8175 116.321 28.2471L116.838 27.7139L116.31 27.1924L110.769 21.7031L110.233 21.1738L109.706 21.7109L106.589 24.8799C105.474 26.0052 103.7 26.1254 102.455 25.1699L102.453 25.1689L101.733 24.6289C94.2581 19.1127 85.5068 15.563 76.3701 14.3496C75.4609 14.2128 74.8955 13.8791 74.5214 13.4629C74.1354 13.0334 73.8932 12.4498 73.7548 11.7217C73.6161 10.9913 73.591 10.1681 73.6015 9.30176C73.6116 8.46978 73.6575 7.54055 73.6396 6.74805L73.623 6.01465H64.3603V11.2373ZM58.081 129.452L57.4706 129.336C49.2763 127.777 41.4368 124.528 34.4902 119.807L33.914 119.415L33.4814 119.96C30.8678 123.252 25.7239 123.687 22.7871 120.735L22.7236 120.672C22.6832 120.631 22.6232 120.572 22.5478 120.497C22.3968 120.346 22.1816 120.13 21.9228 119.871C21.405 119.354 20.7137 118.665 20.0234 117.975C19.5056 117.457 18.9879 116.94 18.5429 116.495H18.5624L17.2587 115.211C14.196 112.194 14.7004 107.191 18.041 104.513L18.581 104.079L18.1914 103.506C13.4703 96.5611 10.2211 88.7255 8.66401 80.5293L8.5478 79.9189H6.76459C2.89018 79.9189 -0.264703 76.7657 -0.264703 72.8896V65.1104C-0.264637 61.2343 2.89022 58.0811 6.76459 58.0811H8.5478L8.66401 57.4707C10.2211 49.2746 13.4702 41.4389 18.1914 34.4941L18.5429 33.9775L18.0986 33.5391L17.2744 32.7256C14.5271 29.9707 14.5296 25.5213 17.2578 22.7891L17.2587 22.79L22.789 17.2627C25.3431 14.7086 29.7792 14.6194 32.4599 17.0254L32.7138 17.2656L33.5341 18.0996L33.9726 18.5459L34.4902 18.1943C41.4368 13.4732 49.2762 10.2231 57.4706 8.66406L58.081 8.54785V6.76465C58.0812 2.88866 61.2359 -0.264636 65.1103 -0.264648H70.4531L70.4228 -0.244141L72.8955 -0.264648C77.1942 -0.299196 80.3678 3.5849 79.9228 7.84961L79.8515 8.53516L80.5292 8.66406C88.7238 10.2231 96.563 13.473 103.51 18.1943L104.086 18.5859L104.519 18.04C107.13 14.7488 112.272 14.3126 115.214 17.2656L115.23 17.2822C115.241 17.2927 115.256 17.3089 115.276 17.3291C115.317 17.3695 115.377 17.4285 115.452 17.5039C115.603 17.6548 115.819 17.8702 116.078 18.1289C116.596 18.6463 117.286 19.3365 117.977 20.0264C118.494 20.5438 119.012 21.0612 119.457 21.5059H119.437L120.741 22.79C123.804 25.8074 123.299 30.8088 119.959 33.4873L119.419 33.9209L119.809 34.4941C124.53 41.4389 127.779 49.2746 129.336 57.4707L129.452 58.0811H131.235C135.11 58.0811 138.265 61.2343 138.265 65.1104V72.8896C138.265 76.7658 135.11 79.9189 131.235 79.9189H129.452L129.336 80.5293C127.779 88.7255 124.53 96.5611 119.809 103.506L119.457 104.023L119.902 104.462L120.722 105.27V105.271C123.387 107.939 123.469 112.201 120.989 114.95L120.741 115.211L115.211 120.737C112.653 123.292 108.22 123.381 105.54 120.975L105.286 120.734L104.466 119.9L104.027 119.455L103.51 119.807C96.5631 124.528 88.7238 127.777 80.5292 129.336L79.8515 129.465L79.9228 130.151C80.3692 134.426 77.1952 138.287 72.8935 138.265H65.1103C61.2358 138.265 58.081 135.111 58.081 131.235V129.452Z" fill="#E6000D" stroke="#EAEAEA" stroke-width="1.5"/>
<path d="M69.078 23.0723C70.2683 22.9519 72.7375 23.1441 75.7626 23.6543C78.7625 24.1602 82.2294 24.9655 85.3857 26.0293C88.5617 27.0998 91.3425 28.4062 93.037 29.8789C93.8802 30.6118 94.4013 31.3403 94.6093 32.0479C94.808 32.724 94.7442 33.4572 94.2685 34.2881C93.3551 35.7551 91.4304 36.2132 89.9511 35.3066C83.6272 31.4137 76.3847 29.3555 69.0019 29.3555C47.1413 29.3557 29.3555 47.1407 29.3554 69.0029V69.0332C31.5272 121.588 106.477 121.586 108.648 69.0342L108.649 69.0186V69.0029C108.649 61.6232 106.59 54.3766 102.696 48.0488C101.79 46.574 102.248 44.643 103.719 43.7324C104.545 43.2529 105.275 43.1875 105.948 43.3848C106.653 43.5915 107.382 44.112 108.115 44.957C109.589 46.655 110.899 49.4438 111.974 52.627C113.041 55.7902 113.85 59.2634 114.357 62.2637C114.869 65.2907 115.059 67.7516 114.934 68.9229L114.929 68.9629V69.0029C114.929 94.3168 94.3416 114.914 69.0292 114.929C8.07942 112.408 8.0793 25.5949 69.0331 23.0762L69.0556 23.0752L69.078 23.0723Z" fill="#E6000D" stroke="#EAEAEA" stroke-width="1.5"/>
<path d="M67.8321 46.6479C68.9649 46.1649 70.3785 46.4488 71.2422 47.3267L71.2471 47.3306L82.9122 58.9966L82.9219 59.0063L82.9317 59.0151C83.8972 59.9129 84.0406 61.2474 83.5538 62.4058C83.0653 63.5678 82.0061 64.4028 80.7198 64.3569L80.6602 64.354L80.6016 64.3618C80.256 64.4038 79.7899 64.275 79.1788 63.894C78.5792 63.5203 77.9333 62.9625 77.2608 62.3042C76.5902 61.6478 75.9253 60.9246 75.2715 60.2271C74.6287 59.5411 73.9886 58.8713 73.4014 58.3677L72.1631 57.3062V88.4351C72.1416 89.511 71.7358 90.2628 71.1778 90.7524C70.6043 91.2555 69.825 91.5205 69.0225 91.5181C68.22 91.5156 67.4402 91.2453 66.8663 90.7397C66.3053 90.2457 65.9002 89.4924 65.8838 88.4233V57.1265L59.5772 63.4331C58.8202 64.1828 58.009 64.4277 57.2676 64.3774C56.5074 64.3258 55.7627 63.9586 55.1885 63.3843C54.6143 62.8098 54.2461 62.0642 54.1944 61.3032C54.1447 60.5714 54.3827 59.7727 55.1075 59.0249C55.1394 58.999 55.1662 58.975 55.1837 58.9595C55.2304 58.9179 55.2859 58.867 55.3467 58.8091C55.4689 58.6927 55.6291 58.5356 55.8194 58.3462C56.2008 57.9666 56.7162 57.4448 57.3184 56.8325C58.525 55.6059 60.0849 54.0116 61.6426 52.4409C63.2012 50.8694 64.7497 49.3292 65.9317 48.2134C66.5247 47.6536 67.0143 47.2114 67.3614 46.9272C67.4497 46.855 67.5228 46.7975 67.5821 46.7534L67.8321 46.6479Z" fill="#E6000D" stroke="#EAEAEA" stroke-width="1.5"/>
</g>
<defs>
<clipPath id="clip0_1_924">
<rect width="138" height="138" fill="white"/>
</clipPath>
</defs>
</svg>
