<svg width="44" height="44" viewBox="0 0 44 44" fill="none" xmlns="http://www.w3.org/2000/svg">
<mask id="mask0_1_343" style="mask-type:luminance" maskUnits="userSpaceOnUse" x="2" y="2" width="40" height="40">
<path d="M40.1816 40.2156V3.78394H3.75V40.2156H40.1816Z" fill="white" stroke="white" stroke-width="3.5"/>
</mask>
<g mask="url(#mask0_1_343)">
<path d="M4.91091 17.2634L3.96353 13.4739" stroke="#E6000D" stroke-width="3.5" stroke-miterlimit="22.926" stroke-linecap="round" stroke-linejoin="round"/>
<path d="M4.91251 17.2634L8.70202 15.3687" stroke="#E6000D" stroke-width="3.5" stroke-miterlimit="22.926" stroke-linecap="round" stroke-linejoin="round"/>
<path d="M4.91251 15.8991C7.39984 8.77649 14.1617 4.00013 21.7577 4.00013C29.8849 4.00013 36.9835 9.45488 39.0181 17.2634" stroke="#E6000D" stroke-width="3" stroke-miterlimit="22.926" stroke-linecap="round" stroke-linejoin="round"/>
<path d="M39.0174 26.7386L39.9648 30.5281" stroke="#E6000D" stroke-width="3.5" stroke-miterlimit="22.926" stroke-linecap="round" stroke-linejoin="round"/>
<path d="M39.0166 26.7383L35.2271 28.6331" stroke="#E6000D" stroke-width="3.5" stroke-miterlimit="22.926" stroke-linecap="round" stroke-linejoin="round"/>
<path d="M38.0707 28.1022C35.6524 35.2249 29.0785 40.0012 21.6935 40.0012C13.792 40.0012 6.89057 34.5465 4.91251 26.7379" stroke="#E6000D" stroke-width="3" stroke-miterlimit="22.926" stroke-linecap="round" stroke-linejoin="round"/>
<path d="M21.9655 29.5798C23.0091 29.5798 23.8603 28.7286 23.8603 27.6851C23.8603 26.6415 23.0091 25.7903 21.9655 25.7903C20.9219 25.7903 20.0708 26.6415 20.0708 27.6851C20.0708 28.7286 20.9219 29.5798 21.9655 29.5798Z" stroke="#E6000D" stroke-width="2" stroke-miterlimit="22.926" stroke-linecap="round" stroke-linejoin="round"/>
<path d="M17.2278 22.0007C18.5714 20.7755 20.2551 20.106 21.9925 20.106C23.7053 20.106 25.3666 20.7566 26.7015 21.9503" stroke="#E6000D" stroke-width="3" stroke-miterlimit="22.926" stroke-linecap="round" stroke-linejoin="round"/>
<path d="M13.4377 17.2634C15.8562 15.4256 18.8869 14.4213 22.0142 14.4213C25.0973 14.4213 28.0878 15.3974 30.4905 17.188" stroke="#E6000D" stroke-width="3" stroke-miterlimit="22.926" stroke-linecap="round" stroke-linejoin="round"/>
</g>
</svg>
