<svg width="44" height="44" viewBox="0 0 44 44" fill="none" xmlns="http://www.w3.org/2000/svg">
<path d="M16.5449 32.5617C11.1365 26.9364 7.69559 20.3633 6.99929 12.468C13.2753 10.1989 16.5427 7.96651 22.1236 2C27.6842 7.33739 32.1286 10.2801 37.2479 12.468C36.6691 19.0318 34.1934 24.6813 30.2671 29.6325" stroke="#E6000D" stroke-width="2" stroke-miterlimit="10" stroke-linecap="round" stroke-linejoin="round"/>
<path d="M18.5261 19.5335L20.9208 21.9281L25.8078 17.041" stroke="#E6000D" stroke-width="2" stroke-miterlimit="10" stroke-linecap="round" stroke-linejoin="round"/>
<path d="M26.5257 24.2047C26.53 24.1987 26.5342 24.1926 26.5383 24.1865C27.9422 22.9573 28.8287 21.1515 28.8287 19.1389C28.8287 15.4346 25.8257 12.4316 22.1214 12.4316C18.4171 12.4316 15.4142 15.4346 15.4142 19.1389C15.4142 22.8432 18.4171 25.8462 22.1214 25.8462C22.3138 25.8462 22.5048 25.838 22.6931 25.822C22.6931 25.822 23.1513 25.7948 23.7638 25.6686" stroke="#E6000D" stroke-width="2" stroke-miterlimit="10" stroke-linecap="round" stroke-linejoin="round"/>
<path d="M32.1368 42H36.5331V30.554H32.1368V42Z" stroke="#E6000D" stroke-width="2" stroke-miterlimit="10" stroke-linecap="round" stroke-linejoin="round"/>
<path d="M27.6829 41.9998H19.2617C18.5793 41.9998 18.0261 41.4023 18.0261 40.6652C18.0261 39.9281 18.5793 39.3306 19.2617 39.3306H24.3387" stroke="#E6000D" stroke-width="2" stroke-miterlimit="10" stroke-linecap="round" stroke-linejoin="round"/>
<path d="M23.3057 39.3265H18.2287C17.5463 39.3265 16.9932 38.7289 16.9932 37.9918C16.9932 37.2548 17.5463 36.6572 18.2287 36.6572H23.3057" stroke="#E6000D" stroke-width="2" stroke-miterlimit="10" stroke-linecap="round" stroke-linejoin="round"/>
<path d="M22.8543 36.6438H17.7773C17.0949 36.6438 16.5418 36.0463 16.5418 35.3092C16.5418 34.5721 17.0949 33.9746 17.7773 33.9746H22.8543" stroke="#E6000D" stroke-width="2" stroke-miterlimit="10" stroke-linecap="round" stroke-linejoin="round"/>
<path d="M27.6827 42.0001H32.1353V30.5541C27.866 29.032 26.684 25.1368 26.628 24.4658C26.5653 23.7145 24.3347 22.7408 23.8477 25.1558C23.0939 28.8935 25.8941 31.305 25.8941 31.305H17.7773C17.0949 31.305 16.5418 31.9025 16.5418 32.6396C16.5418 33.3767 17.0949 33.9742 17.7773 33.9742H22.8543" stroke="#E6000D" stroke-width="2" stroke-miterlimit="10" stroke-linecap="round" stroke-linejoin="round"/>
</svg>
