<svg width="44" height="44" viewBox="0 0 44 44" fill="none" xmlns="http://www.w3.org/2000/svg">
<path d="M39.3808 23.1859H4.61922C4.27753 23.1859 4 23.4656 4 23.8116V25.5569C4 26.5592 4.60763 27.4045 5.54767 27.7107L8.99863 28.8443C9.08907 29.0841 9.18493 29.3177 9.28466 29.5427L7.63726 32.8082C7.18734 33.6988 7.34891 34.7315 8.0493 35.4393L10.4937 37.9095C11.1941 38.6142 12.2153 38.7775 13.0966 38.3251L16.3296 36.6604C16.5576 36.7627 16.788 36.8596 17.0199 36.9494L18.1386 40.4368C18.4447 41.3867 19.2819 42 20.2722 42H23.7278C24.7165 42 25.553 41.3867 25.8591 40.436L26.9808 36.9479C27.2104 36.8588 27.44 36.7619 27.6689 36.6588L30.9018 38.3244C31.7823 38.7767 32.8036 38.6134 33.5047 37.908L35.9484 35.4385C36.6495 34.73 36.8119 33.6972 36.3627 32.8074L34.7153 29.5403C34.8166 29.3099 34.9125 29.0771 35.0014 28.8427L38.4485 27.7099C39.3908 27.4037 40 26.5576 40 25.5553V23.8101C40 23.4656 39.7225 23.1859 39.3808 23.1859ZM28.9692 24.4374C28.6545 28.0435 25.6489 30.8817 21.9985 30.8817C18.3496 30.8817 15.3447 28.0435 15.0301 24.4374H28.9692ZM38.7616 25.5561C38.7616 26.0045 38.4894 26.3826 38.0673 26.5201L34.3335 27.7467C34.151 27.8068 34.0064 27.9482 33.9423 28.131C33.8039 28.5208 33.6446 28.9107 33.4676 29.2888C33.3857 29.4638 33.3888 29.6677 33.4761 29.8395L35.2604 33.3761C35.4613 33.7738 35.3879 34.2362 35.074 34.5542L32.6319 37.0221C32.3127 37.3432 31.8651 37.415 31.4654 37.2096L27.9657 35.4073C27.7949 35.3198 27.5939 35.3167 27.4207 35.3987C27.0419 35.5792 26.6569 35.7409 26.2774 35.8784C26.0972 35.944 25.9565 36.0901 25.897 36.2737L24.6833 40.0493C24.5442 40.4805 24.1785 40.7493 23.7293 40.7493H20.2738C19.8231 40.7493 19.4566 40.4813 19.3175 40.0501L18.1053 36.2744C18.0458 36.0901 17.9059 35.944 17.725 35.8784C17.3392 35.7385 16.9534 35.5776 16.5793 35.3987C16.4958 35.3589 16.4053 35.3385 16.3149 35.3385C16.2183 35.3385 16.1216 35.3612 16.0335 35.4065L12.5346 37.2088C12.1342 37.415 11.6866 37.3431 11.3688 37.0229L8.92441 34.5542C8.61132 34.2378 8.53865 33.7753 8.74042 33.3761L10.5239 29.8395C10.6112 29.6661 10.6143 29.4614 10.5308 29.2857C10.3615 28.9271 10.2023 28.538 10.0577 28.131C9.99278 27.949 9.84822 27.8068 9.66655 27.7474L5.92879 26.5201C5.50902 26.3834 5.23767 26.0053 5.23767 25.5569V24.4374H13.7878C14.1055 28.7349 17.6662 32.1324 21.9985 32.1324C26.3315 32.1324 29.8937 28.7341 30.2115 24.4374H38.7616V25.5561ZM5.39461 20.8165H10.7303C11.4531 20.8165 12.0569 20.2454 12.104 19.5173C12.4496 14.2769 16.7957 10.1716 21.9985 10.1716C27.2027 10.1716 31.5489 14.2769 31.8929 19.5165C31.9408 20.2454 32.5446 20.8165 33.2689 20.8165H38.6046C38.9888 20.8165 39.3328 20.668 39.5996 20.3868C39.8655 20.1063 39.9969 19.7532 39.9814 19.361C39.7735 14.6784 37.8107 10.3091 34.4548 7.05762C31.0881 3.79602 26.6647 2 21.9992 2C17.3346 2 12.9119 3.79602 9.54518 7.0584C6.18931 10.3098 4.22651 14.6792 4.01855 19.3579C3.99923 19.7446 4.1291 20.0993 4.39813 20.3876C4.66406 20.668 5.00885 20.8165 5.39461 20.8165ZM29.4376 11.791C27.5436 10.077 25.1502 9.07785 22.6177 8.93801V3.26401C26.7822 3.41557 30.5624 5.09285 33.4166 7.77009L29.4376 11.791ZM21.38 8.93801C18.849 9.07863 16.4564 10.077 14.5624 11.791L10.5834 7.77009C13.4376 5.09207 17.2171 3.41557 21.38 3.26401V8.93801ZM38.7059 19.5212C38.6734 19.5556 38.651 19.5649 38.6054 19.5649H33.2697C33.1947 19.5649 33.1344 19.5087 33.129 19.4337C32.9636 16.9111 31.9717 14.5456 30.3135 12.6754L34.2932 8.65365C36.9031 11.4918 38.5606 15.2448 38.7453 19.4142C38.7469 19.4626 38.7376 19.4876 38.7059 19.5212ZM9.70752 8.65443L13.6873 12.6761C12.0283 14.5464 11.0364 16.9111 10.8694 19.4345C10.8648 19.5079 10.8037 19.5649 10.7311 19.5649H5.39461C5.34822 19.5649 5.32348 19.554 5.29488 19.5243C5.25855 19.4853 5.25314 19.4587 5.25468 19.4173C5.44022 15.2471 7.09766 11.4934 9.70752 8.65443ZM25.2252 12.4183C24.9291 12.2457 24.5503 12.348 24.3795 12.6472L22.7885 15.4315C22.5381 15.3549 22.2729 15.3128 21.9985 15.3128C20.4972 15.3128 19.2757 16.5471 19.2757 18.0642C19.2757 19.5813 20.4972 20.8157 21.9985 20.8157C23.4997 20.8157 24.7212 19.5813 24.7212 18.0642C24.7212 17.2736 24.3895 16.5611 23.8592 16.0588L25.451 13.273C25.6226 12.9738 25.5213 12.5918 25.2252 12.4183ZM21.9992 19.5649C21.1806 19.5649 20.5149 18.8915 20.5149 18.0642C20.5149 17.2369 21.1813 16.5643 21.9992 16.5643C22.8179 16.5643 23.4843 17.2377 23.4843 18.0642C23.4835 18.8923 22.8179 19.5649 21.9992 19.5649Z" fill="#E6000D" stroke="#E6000D" stroke-width="0.8"/>
</svg>
