<svg width="150" height="150" viewBox="0 0 150 150" fill="none" xmlns="http://www.w3.org/2000/svg">
<path d="M53.125 6.5H109.375C117.712 6.5 124.5 13.3097 124.5 21.6816V128.318C124.5 136.69 117.712 143.5 109.375 143.5H40.625C32.2878 143.5 25.5001 136.69 25.5 128.318V34.2275C25.5 33.5267 25.777 32.8566 26.2695 32.3623L51.2695 7.27148C51.7619 6.77732 52.4298 6.5 53.125 6.5ZM54.0645 11.9199L30.8955 35.1729L30.75 35.3193V128.318C30.7501 133.781 35.1775 138.228 40.625 138.228H109.375C114.822 138.228 119.25 133.781 119.25 128.318V21.6816C119.25 16.2188 114.822 11.7725 109.375 11.7725H54.2109L54.0645 11.9199ZM60.6445 60.5898C61.6698 59.5608 63.3302 59.5608 64.3555 60.5898L73.7275 69.9961L73.7285 69.9971C73.9093 70.1782 74.0632 70.3873 74.1855 70.6182L74.2969 70.8564C74.5621 71.5005 74.5622 72.2269 74.2969 72.8711C74.1625 73.1971 73.9697 73.489 73.7285 73.7305H73.7275L64.3555 83.1377C63.8425 83.6525 63.1717 83.9092 62.5 83.9092C61.8283 83.9092 61.1575 83.6525 60.6445 83.1377C59.6183 82.1077 59.6184 80.4382 60.6445 79.4082L64.6855 75.3525L65.5352 74.5H56.25C54.2496 74.5 52.625 76.1316 52.625 78.1367V100.091C52.625 102.096 54.2496 103.728 56.25 103.728H62.5C63.948 103.728 65.1248 104.904 65.125 106.363C65.125 107.822 63.9481 109 62.5 109H56.25C51.3582 109 47.375 105.005 47.375 100.091V78.1367C47.375 73.2227 51.3582 69.2275 56.25 69.2275H65.5352L64.6855 68.374L60.6445 64.3193C59.6182 63.2893 59.6183 61.6199 60.6445 60.5898ZM84.375 56.6816H93.75C98.6418 56.6816 102.625 60.6768 102.625 65.5908V90.6816C102.625 95.5957 98.6418 99.5908 93.75 99.5908H84.4648L85.3145 100.443L89.3555 104.499C90.3817 105.529 90.3817 107.199 89.3555 108.229C88.8425 108.743 88.1717 109 87.5 109C86.8283 109 86.1575 108.743 85.6445 108.229L76.2725 98.8223L76.2715 98.8213C76.0304 98.5799 75.8375 98.2879 75.7031 97.9619C75.4378 97.3177 75.4379 96.5914 75.7031 95.9473C75.8377 95.6211 76.0304 95.3293 76.2715 95.0879L76.2725 95.0869L85.6445 85.6807C86.6698 84.6516 88.3302 84.6516 89.3555 85.6807C90.3818 86.7107 90.3817 88.3801 89.3555 89.4102L85.3145 93.4648L84.4648 94.3184H93.75C95.7504 94.3184 97.375 92.6867 97.375 90.6816V65.5908C97.375 63.5858 95.7504 61.9541 93.75 61.9541H84.375C82.927 61.9541 81.7501 60.7773 81.75 59.3184C81.75 57.8594 82.9269 56.6816 84.375 56.6816Z" fill="#E6000D" stroke="#EAEAEA"/>
</svg>
