<svg width="150" height="150" viewBox="0 0 150 150" fill="none" xmlns="http://www.w3.org/2000/svg">
<g clip-path="url(#clip0_1_65)">
<path d="M70.2997 17.8687C70.2997 19.3448 69.2758 20.6066 67.8622 20.9292L67.5742 20.981C58.1443 22.2324 49.1248 25.9716 41.4951 31.7935C40.7516 32.3437 40.1133 32.5068 39.5527 32.4751C38.9752 32.4424 38.3896 32.1975 37.7763 31.7759C37.1616 31.3532 36.5626 30.7836 35.9589 30.1587C35.3795 29.5589 34.7556 28.8631 34.1865 28.312L33.6533 27.7964L33.1318 28.3228L27.6396 33.8628L27.1083 34.3979L27.6464 34.9263L30.8222 38.0425C31.8729 39.0836 32.0474 40.7068 31.2753 41.939L31.1083 42.1802C25.4646 49.5715 21.7748 58.2685 20.415 67.3813L20.2919 68.2534C20.1566 69.1668 19.8224 69.7337 19.4052 70.1089C18.9757 70.4951 18.3918 70.7379 17.663 70.8765C16.9321 71.0154 16.1079 71.0403 15.2411 71.0298C14.4089 71.0197 13.4795 70.9739 12.6874 70.9917L11.954 71.0083V80.271H17.1786C18.755 80.271 20.0855 81.4378 20.291 82.9976V82.9985C21.5384 92.4279 25.2795 101.444 31.1005 109.072V109.073C31.6515 109.82 31.8149 110.46 31.7831 111.022C31.7504 111.6 31.5054 112.185 31.0839 112.797C30.6612 113.411 30.0911 114.01 29.4658 114.613C28.8655 115.192 28.1702 115.814 27.6181 116.384L27.1015 116.917L27.6288 117.439L33.1708 122.928L33.706 123.458L34.2333 122.921L37.3505 119.751C38.4647 118.626 40.2384 118.508 41.4853 119.462H41.4863C49.1148 125.286 58.1334 129.026 67.5624 130.28V130.281C68.4756 130.417 69.0429 130.751 69.4179 131.168C69.804 131.598 70.0462 132.182 70.1845 132.911C70.3233 133.641 70.3474 134.464 70.3369 135.331C70.3268 136.162 70.2818 137.091 70.2997 137.883L70.3163 138.617H79.579V133.394C79.579 131.918 80.603 130.656 82.0165 130.333L82.3046 130.282C91.734 129.03 100.752 125.291 108.382 119.469L108.383 119.47C109.127 118.92 109.766 118.757 110.327 118.789C110.905 118.821 111.489 119.066 112.102 119.488C112.717 119.91 113.316 120.48 113.92 121.105C114.499 121.705 115.123 122.4 115.692 122.952L116.226 123.467L116.747 122.941L122.239 117.4L122.77 116.865L122.232 116.337L119.057 113.22C117.936 112.11 117.812 110.337 118.77 109.083C124.594 101.456 128.336 92.4389 129.586 83.0093L129.587 83.0103C129.722 82.0964 130.056 81.529 130.474 81.1538C130.903 80.7676 131.487 80.5247 132.216 80.3862C132.946 80.2474 133.77 80.2234 134.637 80.2339C135.469 80.244 136.399 80.2889 137.191 80.271L137.925 80.2544V70.9917H132.7C131.124 70.9917 129.793 69.825 129.588 68.2651V68.2642C128.34 58.8306 124.596 49.8097 118.77 42.1802C118.226 41.4372 118.064 40.7997 118.096 40.2407C118.128 39.6628 118.373 39.0785 118.794 38.4663C119.216 37.8523 119.787 37.2542 120.412 36.6509C121.012 36.0718 121.708 35.4488 122.261 34.8784L122.777 34.3452L122.25 33.8237L116.708 28.3345L116.173 27.8052L115.645 28.3423L112.528 31.5112C111.414 32.6365 109.639 32.7568 108.394 31.8013L108.393 31.8003L107.673 31.2603C100.198 25.7441 91.4463 22.1944 82.3095 20.981C81.4003 20.8441 80.835 20.5105 80.4609 20.0942C80.0749 19.6647 79.8326 19.0811 79.6943 18.353C79.5555 17.6227 79.5304 16.7994 79.541 15.9331C79.551 15.1011 79.5969 14.1719 79.579 13.3794L79.5624 12.646H70.2997V17.8687ZM64.0204 136.083L63.4101 135.967C55.2157 134.408 47.3763 131.159 40.4296 126.438L39.8535 126.046L39.4208 126.591C36.8072 129.883 31.6634 130.318 28.7265 127.367L28.663 127.303C28.6226 127.263 28.5627 127.204 28.4872 127.128C28.3362 126.978 28.1211 126.761 27.8622 126.502C27.3445 125.985 26.6532 125.296 25.9628 124.606C25.4451 124.089 24.9273 123.571 24.4824 123.126H24.5019L23.1982 121.842C20.1355 118.825 20.6399 113.823 23.9804 111.144L24.5204 110.71L24.1308 110.137C19.4097 103.192 16.1605 95.3568 14.6035 87.1606L14.4872 86.5503H12.704C8.82963 86.5502 5.67474 83.3971 5.67474 79.521V71.7417C5.67481 67.8657 8.82967 64.7125 12.704 64.7124H14.4872L14.6035 64.1021C16.1606 55.9059 19.4097 48.0702 24.1308 41.1255L24.4824 40.6089L24.038 40.1704L23.2138 39.3569C20.4665 36.602 20.469 32.1526 23.1972 29.4204L23.1982 29.4214L28.7285 23.894C31.2825 21.34 35.7186 21.2507 38.3994 23.6567L38.6533 23.897L39.4736 24.731L39.912 25.1772L40.4296 24.8257C47.3763 20.1045 55.2156 16.8544 63.4101 15.2954L64.0204 15.1792V13.396C64.0206 9.52001 67.1754 6.36671 71.0497 6.3667H76.3925L76.3622 6.38721L78.8349 6.3667C83.1337 6.33215 86.3073 10.2163 85.8622 14.481L85.791 15.1665L86.4687 15.2954C94.6632 16.8544 102.502 20.1044 109.449 24.8257L110.025 25.2173L110.458 24.6714C113.069 21.3802 118.211 20.944 121.153 23.897L121.17 23.9136C121.18 23.924 121.196 23.9402 121.216 23.9604C121.256 24.0009 121.316 24.0598 121.392 24.1353C121.543 24.2862 121.759 24.5016 122.018 24.7603C122.535 25.2777 123.226 25.9679 123.916 26.6577C124.434 27.1751 124.951 27.6926 125.396 28.1372H125.377L126.681 29.4214C129.743 32.4388 129.239 37.4402 125.898 40.1187L125.358 40.5522L125.748 41.1255C130.469 48.0702 133.718 55.9059 135.275 64.1021L135.392 64.7124H137.175C141.049 64.7124 144.204 67.8657 144.204 71.7417V79.521C144.204 83.3971 141.049 86.5503 137.175 86.5503H135.392L135.275 87.1606C133.718 95.3568 130.469 103.192 125.748 110.137L125.396 110.655L125.842 111.093L126.661 111.901V111.902C129.326 114.571 129.408 118.833 126.929 121.582L126.681 121.842L121.15 127.369C118.592 129.923 114.16 130.012 111.479 127.606L111.226 127.366L110.405 126.532L109.967 126.086L109.449 126.438C102.503 131.159 94.6632 134.408 86.4687 135.967L85.791 136.096L85.8622 136.783C86.3086 141.058 83.1346 144.918 78.8329 144.896H71.0497C67.1753 144.896 64.0204 141.743 64.0204 137.867V136.083Z" fill="#E6000D" stroke="#EAEAEA" stroke-width="1.5"/>
<path d="M75.0175 29.7034C76.2078 29.583 78.6769 29.7752 81.7021 30.2854C84.702 30.7913 88.1689 31.5966 91.3251 32.6604C94.5011 33.7309 97.2819 35.0373 98.9765 36.51C99.8197 37.2429 100.341 37.9714 100.549 38.679C100.747 39.3551 100.684 40.0883 100.208 40.9192C99.2945 42.3862 97.3698 42.8443 95.8905 41.9377C89.5667 38.0449 82.3241 35.9866 74.9413 35.9866C53.0808 35.9868 35.2949 53.7718 35.2948 75.634V75.6643C37.4667 128.219 112.416 128.217 114.588 75.6653L114.589 75.6497V75.634C114.589 68.2543 112.529 61.0077 108.636 54.6799C107.729 53.2051 108.187 51.2741 109.658 50.3635C110.485 49.884 111.214 49.8186 111.888 50.0159C112.593 50.2226 113.321 50.7431 114.055 51.5881C115.529 53.2861 116.839 56.0749 117.913 59.2581C118.981 62.4213 119.79 65.8945 120.297 68.8948C120.809 71.9218 120.999 74.3827 120.873 75.554L120.868 75.594V75.634C120.868 100.948 100.281 121.545 74.9687 121.56C14.0189 119.039 14.0187 32.226 74.9726 29.7073L74.995 29.7063L75.0175 29.7034Z" fill="#E6000D" stroke="#EAEAEA" stroke-width="1.5"/>
<path d="M73.7715 53.2795C74.9043 52.7965 76.318 53.0804 77.1817 53.9583L77.1866 53.9622L88.8516 65.6282L88.8614 65.6379L88.8712 65.6467C89.8366 66.5445 89.9801 67.879 89.4932 69.0374C89.0047 70.1994 87.9455 71.0344 86.6592 70.9885L86.5997 70.9856L86.5411 70.9934C86.1955 71.0354 85.7293 70.9066 85.1182 70.5256C84.5186 70.1519 83.8728 69.5941 83.2003 68.9358C82.5297 68.2794 81.8648 67.5562 81.211 66.8586C80.5681 66.1727 79.928 65.5029 79.3409 64.9993L78.1026 63.9377V95.0667C78.0811 96.1426 77.6753 96.8944 77.1172 97.384C76.5438 97.8871 75.7644 98.1521 74.962 98.1497C74.1594 98.1472 73.3797 97.8769 72.8057 97.3713C72.2448 96.8773 71.8397 96.124 71.8233 95.0549V63.7581L65.5167 70.0647C64.7597 70.8144 63.9484 71.0593 63.2071 71.009C62.4469 70.9574 61.7022 70.5902 61.128 70.0159C60.5537 69.4414 60.1856 68.6958 60.1339 67.9348C60.0842 67.203 60.3221 66.4043 61.0469 65.6565C61.0789 65.6306 61.1057 65.6066 61.1231 65.5911C61.1698 65.5495 61.2254 65.4986 61.2862 65.4407C61.4084 65.3243 61.5685 65.1672 61.7589 64.9778C62.1402 64.5982 62.6557 64.0763 63.2579 63.4641C64.4644 62.2375 66.0243 60.6431 67.5821 59.0725C69.1407 57.501 70.6892 55.9608 71.8712 54.845C72.4642 54.2851 72.9537 53.843 73.3008 53.5588C73.3892 53.4865 73.4623 53.429 73.5215 53.385L73.7715 53.2795Z" fill="#E6000D" stroke="#EAEAEA" stroke-width="1.5"/>
</g>
<defs>
<clipPath id="clip0_1_65">
<rect width="138" height="138" fill="white" transform="translate(5.93945 6.63135)"/>
</clipPath>
</defs>
</svg>
