<svg width="150" height="150" viewBox="0 0 150 150" fill="none" xmlns="http://www.w3.org/2000/svg">
<path d="M42.7106 31.7558V10.0669H126.755V31.7558" stroke="#E6000D" stroke-width="5" stroke-miterlimit="10" stroke-linecap="round" stroke-linejoin="round"/>
<path d="M29.1555 69.6024V39.8899C29.1555 35.3979 32.7968 31.7566 37.2889 31.7566H132.178C136.67 31.7566 140.311 35.3979 140.311 39.8899V80.5566C140.311 85.0486 136.67 88.6899 132.178 88.6899H121.333" stroke="#E6000D" stroke-width="5" stroke-miterlimit="10" stroke-linecap="round" stroke-linejoin="round"/>
<path d="M47.4433 120.432C49.9512 120.432 51.9966 118.387 51.9966 115.879C51.9966 113.371 49.9512 111.326 47.4433 111.326C44.9353 111.326 42.8899 113.371 42.8899 115.879C42.8899 118.387 44.9353 120.432 47.4433 120.432Z" stroke="#E6000D" stroke-width="5" stroke-miterlimit="22.926" stroke-linecap="round" stroke-linejoin="round"/>
<path d="M36.0607 102.221C39.2895 99.2769 43.3358 97.6678 47.5109 97.6678C51.627 97.6678 55.6195 99.2315 58.8275 102.1" stroke="#E6000D" stroke-width="5" stroke-miterlimit="22.926" stroke-linecap="round" stroke-linejoin="round"/>
<path d="M26.9503 90.8342C32.7623 86.4177 40.0454 84.0042 47.5608 84.0042C54.9699 84.0042 62.1566 86.3499 67.9306 90.653" stroke="#E6000D" stroke-width="5" stroke-miterlimit="22.926" stroke-linecap="round" stroke-linejoin="round"/>
<path d="M78.3566 80.5566H121.332V115.801H83.2556" stroke="#E6000D" stroke-width="5" stroke-miterlimit="10" stroke-linecap="round" stroke-linejoin="round"/>
<path d="M47.5902 140.744C68.5525 140.744 85.5458 123.75 85.5458 102.788C85.5458 81.8258 68.5525 64.8325 47.5902 64.8325C26.628 64.8325 9.63467 81.8258 9.63467 102.788C9.63467 123.75 26.628 140.744 47.5902 140.744Z" stroke="#E6000D" stroke-width="5" stroke-miterlimit="10" stroke-linecap="round" stroke-linejoin="round"/>
</svg>
