<svg width="40" height="38" viewBox="0 0 40 38" fill="none" xmlns="http://www.w3.org/2000/svg">
<path d="M26.5105 29.5835C26.2097 29.3613 25.6732 28.9931 25.1726 28.5801C24.7573 28.2366 24.5014 27.745 23.7629 28.057C23.0647 28.3511 23.0737 28.8135 23.0737 29.3904C23.0692 31.4579 22.6539 31.8598 20.5662 31.862C19.9669 31.862 19.3697 31.8732 18.7704 31.8553C17.4639 31.8171 16.8959 31.2267 16.8645 29.8955C16.8578 29.597 16.9521 29.2558 16.8376 29.0088C16.676 28.6586 16.4178 28.2478 16.0968 28.1064C15.8341 27.9919 15.3156 28.1244 15.0776 28.3354C13.1606 30.0437 12.871 30.0527 11.0482 28.2411C10.9157 28.1086 10.781 27.9784 10.6486 27.8482C8.92682 26.1467 8.94029 25.7785 10.5498 23.9804C10.799 23.702 10.9427 23.0869 10.8035 22.7749C10.6598 22.4539 10.1188 22.1463 9.7372 22.1284C7.40932 22.0072 7.14443 21.7602 7.14443 19.3829C7.14443 19.1966 7.15565 19.0081 7.14443 18.8217C6.96484 16.3412 7.72808 15.7037 9.87413 15.8675C10.1862 15.8922 10.689 15.5241 10.8192 15.2188C10.9494 14.9157 10.8012 14.4174 10.6239 14.0829C10.4376 13.7349 10.0447 13.5037 9.79108 13.1827C9.23211 12.4756 9.20742 11.7056 9.80006 11.0321C10.4668 10.2756 11.1918 9.56625 11.9439 8.89505C12.6914 8.22608 13.504 8.24629 14.2717 8.90402C14.5277 9.12177 14.7185 9.44054 15.0036 9.59319C15.3425 9.77502 15.8364 10.0107 16.1058 9.88727C16.4425 9.73237 16.8084 9.243 16.8308 8.87709C16.9902 6.36286 17.19 6.14062 19.6818 6.14062C19.794 6.14062 19.9063 6.14062 20.0185 6.14062C22.8088 6.14062 22.8851 6.23491 23.1096 8.96464C23.1366 9.29912 23.498 9.73013 23.8145 9.88053C24.0794 10.0062 24.5508 9.86706 24.8561 9.70543C25.1726 9.53707 25.3859 9.18463 25.6665 8.93994C26.4679 8.24404 27.2872 8.23282 28.0752 8.94668C28.7127 9.5236 29.3166 10.1387 29.9114 10.7583C30.8161 11.7033 30.7981 12.5272 29.8867 13.4902C29.8351 13.5441 29.7745 13.5913 29.7296 13.6496C29.3817 14.1143 28.679 14.3478 29.0449 15.2233C29.3974 16.0651 30.0169 15.8496 30.6186 15.9079C31.0945 15.9551 31.6242 15.9483 32.0238 16.1638C33.227 16.8171 33.2248 21.2439 32.0036 21.8388C31.4693 22.097 30.7555 21.9533 30.1584 22.1194C29.7633 22.2294 29.2829 22.4943 29.1168 22.8288C28.9821 23.1004 29.1886 23.6145 29.3704 23.9534C29.5388 24.27 29.9294 24.463 30.1225 24.7751C30.3312 25.1095 30.5265 25.5114 30.549 25.893C30.6073 26.9301 27.8956 29.5902 26.5173 29.5813L26.5105 29.5835ZM26.8832 28.6317C27.3389 28.2142 27.7295 27.8774 28.0976 27.516C29.7004 25.9424 29.7521 25.884 28.1268 24.3283C27.0807 23.3271 28.156 22.6492 28.2839 21.8276C28.3872 21.1653 28.8519 21.0464 29.44 21.0531C32.0036 21.0845 31.7544 21.2821 31.7634 18.6803C31.7634 18.494 31.7477 18.3054 31.7634 18.1191C31.8487 17.2459 31.4671 16.9316 30.5894 16.9383C27.9562 16.963 28.8294 17.1852 27.7878 14.9539C27.6621 14.6822 27.7878 14.1435 27.9921 13.8921C29.577 11.966 29.5927 11.9795 27.7901 10.1903C27.7362 10.1387 27.6801 10.0871 27.6329 10.0287C27.1189 9.37095 26.5846 9.34626 26.093 10.0287C25.1906 11.2813 24.1063 11.636 22.8111 10.6752C22.4586 10.4148 22.0433 9.94339 22.0366 9.56176C21.985 6.94652 22.2543 7.23835 19.5359 7.22039C19.4977 7.22039 19.4618 7.22039 19.4236 7.22039C17.9667 7.22488 17.9577 7.24958 17.9286 8.75138C17.9173 9.29687 17.9869 9.96584 17.7108 10.3632C17.0486 11.315 15.1697 11.3195 14.3368 10.4956C13.0842 9.25646 13.0753 9.24749 11.8294 10.4956C10.0043 12.3229 9.98413 11.9839 11.8182 13.7013C12.8216 14.6418 11.8361 15.3175 11.6857 16.1077C11.5555 16.7812 11.1267 16.9742 10.4668 16.9653C7.93685 16.9271 8.24215 16.7565 8.2197 19.2819C8.2197 19.356 8.2197 19.4323 8.2197 19.5064C8.22419 21.0531 8.22419 21.0329 9.78434 21.0666C10.3253 21.0778 11.0145 21.0262 11.3737 21.3225C12.3659 22.1419 12.3187 23.7716 11.4186 24.6763C11.2861 24.8087 11.1672 24.9569 11.0235 25.0736C10.3455 25.6214 10.3096 26.1579 11.0167 26.7146C11.221 26.8762 11.3894 27.0828 11.578 27.2646C13.284 28.9235 12.9877 28.9752 14.5389 27.2668C15.5446 26.1579 16.2764 27.1411 17.1339 27.3095C17.9173 27.4644 17.9555 28.0189 17.9443 28.6654C17.9106 30.9169 17.7894 30.8002 20.0701 30.7912C20.1442 30.7912 20.2205 30.7912 20.2946 30.7912C22.0007 30.7912 21.9827 30.7912 22.0141 29.0425C22.0231 28.5464 22.0074 27.8842 22.2992 27.5901C23.3453 26.5328 24.7304 26.6495 25.8348 27.7293C26.1446 28.0323 26.4926 28.2995 26.8832 28.6339V28.6317Z" fill="#E6000D" stroke="#E6000D"/>
<path d="M3.21212 12.2474C2.47806 12.6043 2.02685 12.8871 1.53523 13.0331C1.46564 13.0533 1.38932 13.0555 1.30851 13.0465C0.911173 12.9971 0.675466 12.5437 0.924642 12.2316C0.949335 12.2002 0.976273 12.1755 1.0077 12.1598C2.02012 11.5986 3.04376 11.0464 4.11903 10.6221C4.77003 10.3662 4.88451 10.8623 4.98328 11.1137C5.36041 12.0857 5.65 13.0982 5.89468 14.1128C5.90142 14.1375 5.90366 14.1645 5.90591 14.1914C5.92162 14.6538 5.32001 14.8424 5.00349 14.5057C4.96084 14.4608 4.92492 14.4114 4.89574 14.3598C4.65329 13.9041 4.34351 13.0039 4.17515 12.5078L4.07862 12.8916C3.77332 14.2498 3.35803 15.5944 3.17845 16.9705C2.28276 23.8442 5.87672 30.7269 11.9669 33.9235C18.331 37.2661 25.923 36.3749 31.2298 31.6922C31.6159 31.351 32.1142 30.6214 32.635 31.1399C33.0099 31.5148 32.2736 32.1591 31.8942 32.4981C25.9118 37.852 16.946 38.494 10.1329 34.0897C3.44782 29.7683 0.412822 21.4041 2.75417 13.7492C2.88213 13.3316 3.00784 12.9163 3.21436 12.2474H3.21212Z" fill="#E6000D" stroke="#E6000D"/>
<path d="M35.6762 25.2556C36.6616 22.9277 37.0388 20.7681 36.9108 18.5682C36.4978 11.5194 33.144 6.30461 26.6407 3.50754C20.1352 0.708221 14.0675 1.88901 8.64848 6.42808C8.47562 6.57175 8.33195 6.79848 8.1389 6.85235C8.06482 6.8748 7.98625 6.88154 7.90544 6.88378C7.56198 6.88827 7.28587 6.55154 7.38913 6.22155C7.39811 6.19461 7.40709 6.16992 7.42056 6.14523C7.5328 5.92299 7.7685 5.76136 7.96156 5.58626C13.9956 0.16497 22.9817 -0.521952 29.8059 3.90937C36.5898 8.31599 39.6091 16.7499 37.1622 24.4519C37.0545 24.7909 36.9602 25.1343 36.8031 25.6664C37.4788 25.3454 37.9569 25.058 38.4732 24.8986C38.554 24.8739 38.6461 24.8762 38.7403 24.8941C39.0883 24.9592 39.2881 25.3566 39.1085 25.6619C39.0771 25.7158 39.0389 25.7584 38.994 25.7831C37.9816 26.3443 36.949 26.8763 35.8827 27.3231C35.4764 27.4937 35.1239 27.1457 35.0431 26.9257C34.6525 25.8774 34.345 24.7954 34.0711 23.7089C34.0599 23.6662 34.0599 23.6213 34.0711 23.5742C34.1362 23.215 34.5807 23.0601 34.877 23.2734C34.9556 23.3295 35.0207 23.3923 35.0588 23.4687C35.3035 23.9423 35.4247 24.4811 35.6829 25.2533L35.6762 25.2556Z" fill="#E6000D" stroke="#E6000D"/>
<path d="M19.9098 25.8948C16.0779 25.8521 13.0249 22.7048 13.099 18.8751C13.1708 15.0903 16.2776 12.0733 20.0602 12.1137C23.8831 12.1541 26.9428 15.3058 26.88 19.1355C26.8171 22.9001 23.6856 25.9374 19.912 25.8948H19.9098ZM25.8047 19.039C25.8204 15.8177 23.194 13.189 19.9614 13.1935C16.7984 13.1957 14.1967 15.7862 14.1563 18.9739C14.1159 22.1145 16.7446 24.7925 19.8941 24.8217C23.1289 24.8532 25.7867 22.2514 25.8024 19.039H25.8047Z" fill="#E6000D" stroke="#E6000D"/>
</svg>
