<svg width="41" height="40" viewBox="0 0 41 40" fill="none" xmlns="http://www.w3.org/2000/svg">
<path d="M2.97079 15.1183C1.27783 15.3469 0 16.808 0 18.5155V21.4831C0 23.1939 1.27945 24.6549 2.97565 24.8803L6.02914 25.2955C6.13941 25.5857 6.25779 25.8711 6.35022 26.2084L4.52591 28.5792C3.48321 29.9349 3.60646 31.8743 4.81618 33.0889L6.91129 35.1921C8.12101 36.4083 10.0588 36.5348 11.4226 35.497L13.8923 33.6159C14.1664 33.7408 14.442 33.8559 14.7356 34.023L15.1247 37.0181C15.3469 38.7191 16.808 40.0018 18.5236 40.0018H21.496C23.2133 40.0018 24.6744 38.7175 24.8933 37.0148L25.2938 33.9613C25.576 33.8543 25.8565 33.7392 26.1792 33.6484L28.5971 35.4986C29.9592 36.5413 31.9003 36.4067 33.1051 35.1938L35.2035 33.0873C36.4116 31.8743 36.5348 29.9349 35.4921 28.5792L33.6338 26.1501C33.7603 25.8711 33.8786 25.5857 33.9889 25.2955L34.0522 25.2792L37.0424 24.8803C38.7386 24.6549 40.018 23.1939 40.018 21.4831V18.5155C40.018 16.808 38.7402 15.3469 37.0456 15.1183L34.023 14.7031C33.9094 14.4031 33.7894 14.1096 33.6954 13.7658L35.497 11.4194C36.5381 10.0605 36.4116 8.12263 35.2035 6.91454L33.1084 4.81131C31.8987 3.59673 29.9592 3.46375 28.5922 4.50969L26.2133 6.32752C25.9068 6.18806 25.5955 6.05671 25.2679 5.87346L24.8949 2.987C24.6744 1.28431 23.2133 0 21.4944 0H18.5236C16.808 0 15.3469 1.28269 15.1231 2.987L14.7404 5.93671C14.4226 6.05671 14.1112 6.18806 13.7496 6.29346L11.4242 4.50969C10.0653 3.46538 8.12263 3.59186 6.91129 4.80969L4.81455 6.91454C3.60484 8.12588 3.48159 10.0637 4.52429 11.421L6.3567 13.821C6.2286 14.1096 6.1086 14.4015 5.93022 14.7226L2.97079 15.1183ZM6.3713 18.0144C7.62804 17.8458 8.67723 17.022 9.10371 15.8723C9.1929 15.6372 9.28695 15.4037 9.39235 15.1701C9.88694 14.0496 9.72154 12.7361 8.95776 11.7421L7.16589 9.25938L9.40208 7.14318L11.7242 8.92533C12.7345 9.70533 14.0626 9.86262 15.1896 9.34695C15.428 9.23668 15.6712 9.13452 15.9193 9.04047C17.0674 8.60425 17.8815 7.55507 18.0453 6.29995L18.5236 3.32105L21.6014 3.41349L21.9744 6.2967C22.135 7.55021 22.9474 8.60263 24.1003 9.04047C24.3468 9.13452 24.5901 9.23668 24.8268 9.34533C25.9522 9.86424 27.2819 9.7037 28.2922 8.92695L30.7554 7.15454L32.8619 9.39722L31.0635 11.7388C30.2981 12.7329 30.1295 14.048 30.6289 15.1766C30.7311 15.4037 30.8251 15.6355 30.9111 15.8674C31.3424 17.022 32.39 17.8458 33.6467 18.0144L36.697 18.5155L36.6046 21.5885L33.6159 21.9874C32.3624 22.1528 31.3149 22.9717 30.8819 24.123C30.796 24.3484 30.7052 24.569 30.6062 24.7847C30.1003 25.9101 30.2641 27.2317 31.0343 28.2322L32.8505 30.7441L30.6127 32.8603L28.1965 31.01C27.1911 30.2446 25.8711 30.0841 24.7441 30.5949C24.543 30.6873 24.3371 30.7733 24.1214 30.8543C22.9685 31.2906 22.1528 32.3414 21.9906 33.5949L21.496 36.6808L18.4166 36.5883L18.029 33.5949C17.8653 32.3414 17.0496 31.2906 15.8918 30.8511C15.681 30.7716 15.4734 30.6857 15.2674 30.5916C14.1263 30.0764 12.8118 30.2539 11.8215 31.0116L9.26425 32.8489L7.1594 30.603L8.98209 28.2338C9.75397 27.2317 9.91776 25.9101 9.41019 24.7847C9.3129 24.5674 9.22046 24.3468 9.13614 24.123C8.70317 22.9717 7.65561 22.1528 6.40535 21.9874L3.32105 21.4831L3.41349 18.4101L6.3713 18.0144Z" fill="#E6000D"/>
<path d="M21.4961 39.502V40.002H18.5234V39.502H21.4961ZM39.5176 21.4834V18.5156C39.5176 17.0587 38.4254 15.8085 36.9785 15.6133L33.9551 15.1982L33.6602 15.1582L33.5557 14.8799C33.4476 14.5944 33.315 14.2705 33.2129 13.8975L33.1475 13.6582L35.0996 11.1152C35.9886 9.9549 35.8799 8.29888 34.8496 7.26855L32.7539 5.16406C31.7213 4.12746 30.064 4.01398 28.8965 4.90723L26.2793 6.90625L26.0059 6.78223C25.7145 6.64964 25.3744 6.50592 25.0234 6.30957L24.8047 6.1875L24.3994 3.05078C24.211 1.59764 22.9617 0.5 21.4941 0.5H18.5234C17.1509 0.50009 15.9672 1.46333 15.667 2.7832L15.6191 3.05176L15.2363 6.00098L15.1973 6.29883L14.917 6.4043C14.6204 6.51627 14.2759 6.66083 13.8896 6.77344L13.6465 6.84473L11.1201 4.90625C10.0329 4.07085 8.50509 4.11369 7.4668 4.97852L7.26562 5.16211L5.16895 7.26758C4.20152 8.23635 4.04746 9.75295 4.76562 10.8936L4.9209 11.1162L4.92188 11.1172L6.93359 13.7529L6.81348 14.0234C6.69156 14.2981 6.55955 14.6196 6.36719 14.9658L6.24512 15.1846L3.03711 15.6143L3.03613 15.6133C1.5917 15.8091 0.5 17.0591 0.5 18.5156V21.4834C0.500167 22.9434 1.59443 24.1924 3.04199 24.3848L6.39062 24.8398L6.49609 25.1182C6.60016 25.3921 6.73144 25.7092 6.83203 26.0762L6.89844 26.3164L6.74609 26.5137L4.92188 28.8838C4.03215 30.0406 4.13804 31.6993 5.1709 32.7363L7.26562 34.8389C8.23278 35.8111 9.74927 35.9688 10.8955 35.2539L11.1201 35.0986L13.8271 33.0371L14.0996 33.1611C14.2925 33.249 14.5132 33.3437 14.7461 33.4619L14.9824 33.5889L15.1992 33.7119L15.6201 36.9531C15.8097 38.4051 17.059 39.5019 18.5234 39.502V40.002L18.2051 39.9873C16.7352 39.8499 15.5072 38.7717 15.1807 37.332L15.125 37.0186L14.7354 34.0234C14.442 33.8565 14.1665 33.741 13.8926 33.6162L11.4229 35.4971L11.1602 35.6777C9.90854 36.4586 8.28013 36.3519 7.14648 35.4072L6.91113 35.1924L4.81641 33.0889C3.68231 31.9502 3.50262 30.1744 4.34375 28.8398L4.52637 28.5791L6.35059 26.208C6.25821 25.871 6.13949 25.5859 6.0293 25.2959L2.97559 24.8799C1.38549 24.6685 0.161462 23.3717 0.0146484 21.8008L0 21.4834V18.5156C0 16.8081 1.27778 15.3468 2.9707 15.1182L5.93066 14.7227C6.10893 14.4018 6.22842 14.1098 6.35645 13.8213L4.52441 11.4209C3.48172 10.0636 3.60473 8.1254 4.81445 6.91406L6.91113 4.80957C8.12241 3.59181 10.0649 3.46563 11.4238 4.50977L13.75 6.29395C14.1115 6.18856 14.4225 6.05649 14.7402 5.93652L15.123 2.9873C15.3468 1.28306 16.8079 9.59296e-05 18.5234 0H21.4941C23.213 0 24.674 1.28462 24.8945 2.9873L25.2676 5.87305C25.595 6.05619 25.9066 6.18777 26.2129 6.32715L28.5918 4.50977C29.9588 3.46383 31.8987 3.59694 33.1084 4.81152L35.2031 6.91406C36.4111 8.12207 36.5379 10.0601 35.4971 11.4189L33.6953 13.7656C33.7894 14.1094 33.9099 14.4031 34.0234 14.7031L37.0459 15.1182C38.7404 15.3469 40.0176 16.8082 40.0176 18.5156V21.4834L40.0029 21.8008C39.8561 23.3717 38.6321 24.6686 37.042 24.8799L34.0518 25.2793L33.9893 25.2959C33.879 25.5861 33.7602 25.8716 33.6338 26.1504L35.4922 28.5791C36.5349 29.9348 36.4112 31.874 35.2031 33.0869L33.1055 35.1934C31.976 36.3304 30.1994 36.5203 28.8594 35.6807L28.5967 35.499L26.1797 33.6484C25.8571 33.7392 25.576 33.8539 25.2939 33.9609L24.8936 37.0146C24.6746 38.7173 23.2134 40.0019 21.4961 40.002V39.502C22.9621 39.5019 24.2106 38.4041 24.3975 36.9512L24.8369 33.5996L25.1162 33.4941C25.3833 33.3928 25.6937 33.2655 26.0439 33.167L26.2842 33.0996L26.4834 33.251L28.9014 35.1016L29.124 35.2568C30.2678 35.9737 31.7872 35.8111 32.751 34.8408L34.8496 32.7344C35.8805 31.6991 35.9855 30.0407 35.0957 28.8838L35.0947 28.8828L33.2363 26.4541L33.0547 26.2158L33.1787 25.9434C33.3006 25.6746 33.4148 25.3989 33.5215 25.1182L33.6133 24.876L33.8643 24.8115L33.9277 24.7949L33.957 24.7871L36.9766 24.3848C38.4241 24.1924 39.5174 22.9434 39.5176 21.4834ZM22.043 2.92676L22.4707 6.23242C22.6001 7.2424 23.2192 8.09135 24.0986 8.49805L24.2783 8.57324C24.535 8.67117 24.7885 8.77746 25.0352 8.89062L25.0361 8.8916C25.9868 9.32992 27.1192 9.19776 27.9873 8.53027L27.9941 8.52539L28 8.52148L30.4639 6.74902L30.8193 6.49219L33.5176 9.36426L33.2588 9.70215L31.46 12.043C30.8039 12.8951 30.6631 14.0157 31.085 14.9717L31.2393 15.3311C31.2883 15.4513 31.3352 15.572 31.3799 15.6924L31.4541 15.8721C31.8562 16.7544 32.7007 17.3826 33.7129 17.5186L33.7207 17.5195L33.7275 17.5215L36.7783 18.0225L37.21 18.0928L37.1963 18.5303L37.0918 22.0283L36.6709 22.084L33.6816 22.4834C32.6049 22.6255 31.7155 23.3259 31.3496 24.2988L31.3486 24.3008C31.2602 24.5327 31.1651 24.7621 31.0615 24.9883L31.0625 24.9893C30.6611 25.8822 30.7548 26.928 31.3125 27.7627L31.4307 27.9268L31.4355 27.9336L31.4395 27.9395L33.5127 30.8066L30.6465 33.5166L30.3086 33.2568L27.8936 31.4082L27.7285 31.291C26.8904 30.7367 25.8463 30.6435 24.9521 31.0479L24.9531 31.0488C24.7413 31.1462 24.5242 31.2362 24.2979 31.3213C23.3236 31.69 22.6256 32.5824 22.4863 33.6592L22.4854 33.667L22.4844 33.6738L21.9199 37.1934L21.4814 37.1807L17.9756 37.0752L17.5332 33.6592C17.3924 32.5831 16.695 31.6916 15.7158 31.3193L15.3857 31.1885C15.2766 31.1432 15.1678 31.0963 15.0596 31.0469C14.0939 30.6119 12.9749 30.7589 12.125 31.4092L12.1191 31.4131L12.1133 31.418L9.19922 33.5107L6.50391 30.6348L8.58594 27.9287L8.7041 27.7646C9.26351 26.9285 9.35673 25.883 8.9541 24.9902C8.8536 24.7658 8.75651 24.5348 8.66797 24.2998C8.30196 23.3268 7.41307 22.6254 6.33984 22.4834L6.33203 22.4824L6.32422 22.4805L2.80859 21.9062L2.82129 21.4678L2.92676 17.9707L6.30469 17.5186C7.38548 17.3735 8.27511 16.6678 8.63477 15.6982L8.63574 15.6953C8.72684 15.4552 8.82434 15.2122 8.93457 14.9678C9.35324 14.019 9.21659 12.8996 8.56152 12.0469L8.55664 12.041L8.55273 12.0352L6.76074 9.55176L6.50391 9.19727L9.36816 6.4873L12.0283 8.52832L12.0303 8.5293C12.8972 9.19852 14.0276 9.32891 14.9814 8.89258C15.2301 8.77759 15.4837 8.67122 15.7422 8.57324C16.7115 8.2048 17.4089 7.31467 17.5498 6.23535L17.5508 6.22754L17.5518 6.2207L18.0303 3.24219L18.0996 2.80762L22.043 2.92676ZM18.0449 6.2998C17.8811 7.55493 17.067 8.60383 15.9189 9.04004C15.6709 9.13407 15.4278 9.23644 15.1895 9.34668C14.0626 9.86226 12.7348 9.70546 11.7246 8.92578L9.40234 7.14355L7.16602 9.25977L8.95801 11.7422C9.7216 12.7361 9.88699 14.0495 9.39258 15.1699L9.24219 15.5205C9.19434 15.6375 9.14812 15.7545 9.10352 15.8721C8.67703 17.0218 7.62784 17.846 6.37109 18.0146L3.41309 18.4102L3.32129 21.4834L6.40527 21.9873C7.65549 22.1527 8.70274 22.9718 9.13574 24.123C9.22001 24.3467 9.31293 24.567 9.41016 24.7842C9.91765 25.9094 9.75403 27.2313 8.98242 28.2334L7.15918 30.6025L9.26465 32.8486L11.8213 31.0117C12.8115 30.254 14.1264 30.0766 15.2676 30.5918C15.4735 30.6858 15.6809 30.7721 15.8916 30.8516C17.0494 31.291 17.8655 32.3413 18.0293 33.5947L18.417 36.5879L21.4961 36.6807L21.9902 33.5947C22.1524 32.3414 22.9683 31.2908 24.1211 30.8545C24.3368 30.7734 24.5431 30.6872 24.7441 30.5947C25.871 30.084 27.1909 30.2446 28.1963 31.0098L30.6123 32.8604L32.8506 30.7441L31.0342 28.2324C30.2639 27.2319 30.1005 25.9096 30.6064 24.7842C30.6559 24.6764 30.7032 24.5673 30.749 24.457L30.8818 24.123C31.2878 23.0436 32.2341 22.2568 33.3838 22.0264L33.6162 21.9873L36.6045 21.5889L36.6973 18.5156L33.6465 18.0146C32.4684 17.8565 31.4741 17.1224 30.999 16.0801L30.9111 15.8672C30.8682 15.7514 30.8233 15.6357 30.7764 15.5205L30.6289 15.1768C30.1607 14.1187 30.2794 12.8964 30.9268 11.9287L31.0635 11.7393L32.8623 9.39746L30.7559 7.1543L28.292 8.92676C27.2819 9.70339 25.9524 9.86438 24.8271 9.3457C24.5904 9.23707 24.347 9.13408 24.1006 9.04004C22.9477 8.60223 22.1352 7.55029 21.9746 6.29688L21.6016 3.41309L18.5234 3.32129L18.0449 6.2998Z" fill="white"/>
<path d="M25.1816 15.4095L18.3457 22.1668L15.4287 19.2831C14.8755 18.7365 13.9787 18.7365 13.4258 19.2831C12.8727 19.8301 12.8727 20.7164 13.4258 21.2632L17.3443 25.1368C17.6207 25.4101 17.9833 25.5468 18.3457 25.5468C18.7081 25.5468 19.0707 25.4101 19.3471 25.1368L27.1842 17.3896C27.7375 16.8428 27.7375 15.9563 27.1844 15.4097C26.6315 14.8629 25.7347 14.8627 25.1816 15.4095Z" fill="#E6000D"/>
</svg>
