<svg width="150" height="150" viewBox="0 0 150 150" fill="none" xmlns="http://www.w3.org/2000/svg">
<g clip-path="url(#clip0_1_1029)">
<path d="M12.4749 56.3877L9.00122 42.4928" stroke="#E6000D" stroke-width="5" stroke-miterlimit="22.926" stroke-linecap="round" stroke-linejoin="round"/>
<path d="M12.4738 56.3877L26.3686 49.4403" stroke="#E6000D" stroke-width="5" stroke-miterlimit="22.926" stroke-linecap="round" stroke-linejoin="round"/>
<path d="M13.4627 52.6293C22.5829 26.5131 47.3766 8.99978 75.2284 8.99978C105.028 8.99978 131.056 29.0005 138.517 57.6318" stroke="#E6000D" stroke-width="5" stroke-miterlimit="22.926" stroke-linecap="round" stroke-linejoin="round"/>
<path d="M137.175 93.7204L140.648 107.615" stroke="#E6000D" stroke-width="5" stroke-miterlimit="22.926" stroke-linecap="round" stroke-linejoin="round"/>
<path d="M137.167 93.7176L123.272 100.665" stroke="#E6000D" stroke-width="5" stroke-miterlimit="22.926" stroke-linecap="round" stroke-linejoin="round"/>
<path d="M135.043 97.3714C126.176 123.488 102.071 141.001 74.993 141.001C46.0209 141.001 20.7156 121 13.4628 92.3689" stroke="#E6000D" stroke-width="5" stroke-miterlimit="22.926" stroke-linecap="round" stroke-linejoin="round"/>
<path d="M75.9888 102.788C79.8153 102.788 82.9362 99.667 82.9362 95.8408C82.9362 92.0143 79.8153 88.8932 75.9888 88.8932C72.1623 88.8932 69.0414 92.0143 69.0414 95.8408C69.0414 99.667 72.1623 102.788 75.9888 102.788Z" stroke="#E6000D" stroke-width="5" stroke-miterlimit="22.926" stroke-linecap="round" stroke-linejoin="round"/>
<path d="M58.6217 74.998C63.5483 70.5056 69.722 68.0506 76.0923 68.0506C82.3726 68.0506 88.4642 70.4364 93.3589 74.8133" stroke="#E6000D" stroke-width="5" stroke-miterlimit="22.926" stroke-linecap="round" stroke-linejoin="round"/>
<path d="M44.7215 57.6318C53.5893 50.8932 64.7017 47.2107 76.1686 47.2107C87.4733 47.2107 98.4385 50.7898 107.248 57.3554" stroke="#E6000D" stroke-width="5" stroke-miterlimit="22.926" stroke-linecap="round" stroke-linejoin="round"/>
</g>
<defs>
<clipPath id="clip0_1_1029">
<rect width="138" height="138" fill="white" transform="translate(6 6)"/>
</clipPath>
</defs>
</svg>
