<svg width="18" height="18" viewBox="0 0 18 18" fill="none" xmlns="http://www.w3.org/2000/svg">
<path d="M8.99984 6.50008C8.3368 6.50008 7.70091 6.76347 7.23207 7.23231C6.76323 7.70115 6.49984 8.33704 6.49984 9.00008C6.49984 9.66312 6.76323 10.299 7.23207 10.7678C7.70091 11.2367 8.3368 11.5001 8.99984 11.5001C9.66288 11.5001 10.2988 11.2367 10.7676 10.7678C11.2364 10.299 11.4998 9.66312 11.4998 9.00008C11.4998 8.33704 11.2364 7.70115 10.7676 7.23231C10.2988 6.76347 9.66288 6.50008 8.99984 6.50008ZM8.99984 4.83341C10.1049 4.83341 11.1647 5.2724 11.9461 6.0538C12.7275 6.8352 13.1665 7.89501 13.1665 9.00008C13.1665 10.1052 12.7275 11.165 11.9461 11.9464C11.1647 12.7278 10.1049 13.1667 8.99984 13.1667C7.89477 13.1667 6.83496 12.7278 6.05356 11.9464C5.27216 11.165 4.83317 10.1052 4.83317 9.00008C4.83317 7.89501 5.27216 6.8352 6.05356 6.0538C6.83496 5.2724 7.89477 4.83341 8.99984 4.83341ZM14.4165 4.62508C14.4165 4.90135 14.3068 5.1663 14.1114 5.36165C13.9161 5.557 13.6511 5.66675 13.3748 5.66675C13.0986 5.66675 12.8336 5.557 12.6383 5.36165C12.4429 5.1663 12.3332 4.90135 12.3332 4.62508C12.3332 4.34881 12.4429 4.08386 12.6383 3.88851C12.8336 3.69316 13.0986 3.58341 13.3748 3.58341C13.6511 3.58341 13.9161 3.69316 14.1114 3.88851C14.3068 4.08386 14.4165 4.34881 14.4165 4.62508ZM8.99984 2.33341C6.93817 2.33341 6.6015 2.33925 5.64234 2.38175C4.989 2.41258 4.55067 2.50008 4.144 2.65841C3.78234 2.79841 3.5215 2.96591 3.244 3.24425C2.98318 3.49625 2.78263 3.8039 2.65734 4.14425C2.499 4.55258 2.4115 4.99008 2.3815 5.64258C2.33817 6.56258 2.33317 6.88425 2.33317 9.00008C2.33317 11.0617 2.339 11.3984 2.3815 12.3576C2.41234 13.0101 2.49984 13.4492 2.65734 13.8551C2.799 14.2176 2.96567 14.4784 3.24234 14.7551C3.52317 15.0351 3.784 15.2026 4.14234 15.3409C4.554 15.5001 4.99234 15.5884 5.64234 15.6184C6.56234 15.6617 6.884 15.6667 8.99984 15.6667C11.0615 15.6667 11.3982 15.6609 12.3573 15.6184C13.009 15.5876 13.4482 15.5001 13.8548 15.3426C14.2157 15.2017 14.4782 15.0342 14.7548 14.7576C15.0357 14.4767 15.2032 14.2159 15.3415 13.8576C15.4998 13.4467 15.5882 13.0076 15.6182 12.3576C15.6615 11.4376 15.6665 11.1159 15.6665 9.00008C15.6665 6.93841 15.6607 6.60175 15.6182 5.64258C15.5873 4.99091 15.4998 4.55091 15.3415 4.14425C15.2159 3.80425 15.0157 3.49672 14.7557 3.24425C14.5038 2.98329 14.1961 2.78272 13.8557 2.65758C13.4473 2.49925 13.009 2.41175 12.3573 2.38175C11.4373 2.33841 11.1157 2.33341 8.99984 2.33341ZM8.99984 0.666748C11.264 0.666748 11.5465 0.675081 12.4348 0.716748C13.3223 0.758415 13.9265 0.897581 14.4582 1.10425C15.0082 1.31591 15.4715 1.60258 15.9348 2.06508C16.3586 2.48166 16.6865 2.98557 16.8957 3.54175C17.1015 4.07258 17.2415 4.67758 17.2832 5.56508C17.3223 6.45341 17.3332 6.73591 17.3332 9.00008C17.3332 11.2642 17.3248 11.5467 17.2832 12.4351C17.2415 13.3226 17.1015 13.9267 16.8957 14.4584C16.6871 15.0149 16.3591 15.5189 15.9348 15.9351C15.5181 16.3587 15.0143 16.6865 14.4582 16.8959C13.9273 17.1017 13.3223 17.2417 12.4348 17.2834C11.5465 17.3226 11.264 17.3334 8.99984 17.3334C6.73567 17.3334 6.45317 17.3251 5.56484 17.2834C4.67734 17.2417 4.07317 17.1017 3.5415 16.8959C2.98511 16.6871 2.48111 16.3592 2.06484 15.9351C1.64101 15.5186 1.31311 15.0146 1.104 14.4584C0.897337 13.9276 0.758171 13.3226 0.716504 12.4351C0.677337 11.5467 0.666504 11.2642 0.666504 9.00008C0.666504 6.73591 0.674837 6.45341 0.716504 5.56508C0.758171 4.67675 0.897337 4.07341 1.104 3.54175C1.31253 2.98523 1.64051 2.48118 2.06484 2.06508C2.48123 1.64111 2.98519 1.31319 3.5415 1.10425C4.07317 0.897581 4.6765 0.758415 5.56484 0.716748C6.45317 0.677581 6.73567 0.666748 8.99984 0.666748Z" fill="#E6000D"/>
</svg>
