<svg width="17" height="16" viewBox="0 0 17 16" fill="none" xmlns="http://www.w3.org/2000/svg">
<path fill-rule="evenodd" clip-rule="evenodd" d="M14.4862 0H16.5546L15.9708 0.641943C14.3783 2.39283 12.7888 4.14509 11.2021 5.89872L11.2001 5.90102C10.9208 6.20477 10.6453 6.51186 10.3765 6.81929L15.8294 14.345C16.0684 14.6728 16.3045 15.0059 16.5385 15.3361L16.5391 15.3369L16.9985 15.9852H11.6309L11.5094 15.812C11.5067 15.8081 11.5039 15.8043 11.5011 15.8006L11.4955 15.7933L7.3784 10.1217L4.03955 13.8006L4.03844 13.8018L2.07962 15.9986H0L6.1032 9.27248L6.10426 9.27131L6.47632 8.85796L0.067222 0.0134166H5.43223L9.4585 5.56872L14.4862 0ZM12.0135 15.1371L12.0653 15.2085H12.1139C12.0785 15.1871 12.045 15.1632 12.0135 15.1371ZM2.90755 1.46779L3.50619 2.2819C6.52018 6.36534 9.52966 10.4476 12.5342 14.528L12.5408 14.5369L12.5468 14.5462C12.5495 14.5502 12.5533 14.5536 12.5579 14.5558C12.5624 14.558 12.5674 14.5589 12.5725 14.5586L12.587 14.5576H14.1227C14.0327 14.4339 13.9451 14.3144 13.8568 14.1967L13.8547 14.1939L4.52242 1.51757L4.51412 1.50412C4.50665 1.49201 4.49577 1.4821 4.48266 1.47551C4.46952 1.4689 4.45468 1.46591 4.43983 1.46688L4.42575 1.4678L2.90755 1.46779Z" fill="#E6000D"/>
</svg>
