<svg width="121" height="20" viewBox="0 0 121 20" fill="none" xmlns="http://www.w3.org/2000/svg">
<g clip-path="url(#clip0_1_6613)">
<path d="M20.5712 7.55776C20.4362 7.13517 20.0658 6.83502 19.6275 6.79506L13.6746 6.24811L11.3206 0.673057C11.1471 0.264478 10.7518 0 10.3126 0C9.87339 0 9.4781 0.264478 9.30453 0.674012L6.95059 6.24811L0.996715 6.79506C0.559255 6.83598 0.189774 7.13517 0.0539719 7.55776C-0.0818298 7.98035 0.0435861 8.44386 0.374514 8.73605L4.87422 12.7292L3.54736 18.6434C3.45027 19.0782 3.61707 19.5277 3.97365 19.7885C4.16532 19.9287 4.38955 20 4.61568 20C4.81065 20 5.00404 19.9468 5.17761 19.8417L10.3126 16.7363L15.4457 19.8417C15.8213 20.0704 16.2948 20.0495 16.6506 19.7885C17.0073 19.5269 17.174 19.0773 17.0769 18.6434L15.75 12.7292L20.2497 8.73684C20.5806 8.44386 20.707 7.98115 20.5712 7.55776Z" fill="#FFC107"/>
<path d="M45.5712 7.55776C45.4362 7.13517 45.0658 6.83502 44.6275 6.79506L38.6746 6.24811L36.3206 0.673057C36.1471 0.264478 35.7518 0 35.3126 0C34.8734 0 34.4781 0.264478 34.3045 0.674012L31.9506 6.24811L25.9967 6.79506C25.5593 6.83598 25.1898 7.13517 25.054 7.55776C24.9182 7.98035 25.0436 8.44386 25.3745 8.73605L29.8742 12.7292L28.5474 18.6434C28.4503 19.0782 28.6171 19.5277 28.9737 19.7885C29.1653 19.9287 29.3896 20 29.6157 20C29.8106 20 30.004 19.9468 30.1776 19.8417L35.3126 16.7363L40.4457 19.8417C40.8213 20.0704 41.2948 20.0495 41.6506 19.7885C42.0073 19.5269 42.174 19.0773 42.0769 18.6434L40.75 12.7292L45.2497 8.73684C45.5806 8.44386 45.707 7.98115 45.5712 7.55776Z" fill="#FFC107"/>
<path d="M70.5712 7.55776C70.4362 7.13517 70.0658 6.83502 69.6275 6.79506L63.6746 6.24811L61.3206 0.673057C61.1471 0.264478 60.7518 0 60.3126 0C59.8734 0 59.4781 0.264478 59.3045 0.674012L56.9506 6.24811L50.9967 6.79506C50.5593 6.83598 50.1898 7.13517 50.054 7.55776C49.9182 7.98035 50.0436 8.44386 50.3745 8.73605L54.8742 12.7292L53.5474 18.6434C53.4503 19.0782 53.6171 19.5277 53.9737 19.7885C54.1653 19.9287 54.3896 20 54.6157 20C54.8106 20 55.004 19.9468 55.1776 19.8417L60.3126 16.7363L65.4457 19.8417C65.8213 20.0704 66.2948 20.0495 66.6506 19.7885C67.0073 19.5269 67.174 19.0773 67.0769 18.6434L65.75 12.7292L70.2497 8.73684C70.5806 8.44386 70.707 7.98115 70.5712 7.55776Z" fill="#FFC107"/>
<path d="M95.5712 7.55776C95.4362 7.13517 95.0658 6.83502 94.6275 6.79506L88.6746 6.24811L86.3206 0.673057C86.1471 0.264478 85.7518 0 85.3126 0C84.8734 0 84.4781 0.264478 84.3045 0.674012L81.9506 6.24811L75.9967 6.79506C75.5593 6.83598 75.1898 7.13517 75.054 7.55776C74.9182 7.98035 75.0436 8.44386 75.3745 8.73605L79.8742 12.7292L78.5474 18.6434C78.4503 19.0782 78.6171 19.5277 78.9737 19.7885C79.1653 19.9287 79.3896 20 79.6157 20C79.8106 20 80.004 19.9468 80.1776 19.8417L85.3126 16.7363L90.4457 19.8417C90.8213 20.0704 91.2948 20.0495 91.6506 19.7885C92.0073 19.5269 92.174 19.0773 92.0769 18.6434L90.75 12.7292L95.2497 8.73684C95.5806 8.44386 95.707 7.98115 95.5712 7.55776Z" fill="#FFC107"/>
<path d="M120.571 7.55776C120.436 7.13517 120.066 6.83502 119.628 6.79506L113.675 6.24811L111.321 0.673057C111.147 0.264478 110.752 0 110.313 0C109.873 0 109.478 0.264478 109.305 0.674012L106.951 6.24811L100.997 6.79506C100.559 6.83598 100.19 7.13517 100.054 7.55776C99.9182 7.98035 100.044 8.44386 100.375 8.73605L104.874 12.7292L103.547 18.6434C103.45 19.0782 103.617 19.5277 103.974 19.7885C104.165 19.9287 104.39 20 104.616 20C104.811 20 105.004 19.9468 105.178 19.8417L110.313 16.7363L115.446 19.8417C115.821 20.0704 116.295 20.0495 116.651 19.7885C117.007 19.5269 117.174 19.0773 117.077 18.6434L115.75 12.7292L120.25 8.73684C120.581 8.44386 120.707 7.98115 120.571 7.55776Z" fill="#FFC107"/>
</g>
<defs>
<clipPath id="clip0_1_6613">
<rect width="120.625" height="20" fill="white"/>
</clipPath>
</defs>
</svg>
