<svg width="52" height="52" viewBox="0 0 52 52" fill="none" xmlns="http://www.w3.org/2000/svg">
<path d="M16.5866 11.4134C15.8053 10.6321 15.8053 9.3653 16.5866 8.58397L24.5866 0.583966C24.7706 0.399966 24.9923 0.253333 25.2376 0.152C25.7256 -0.0506667 26.2776 -0.0506667 26.7656 0.152C27.011 0.253333 27.232 0.399966 27.416 0.583966L35.416 8.58397C36.1973 9.3653 36.1973 10.6321 35.416 11.4134C35.0267 11.8027 34.5146 12 34.0026 12C33.4906 12 32.9785 11.8054 32.5892 11.4134L28.0026 6.82664V36.6666C28.0026 37.7706 27.1066 38.6666 26.0026 38.6666C24.8986 38.6666 24.0026 37.7706 24.0026 36.6666V6.82925L19.416 11.416C18.632 12.1947 17.3679 12.1947 16.5866 11.4134ZM42 18.6666C40.896 18.6666 40 19.5626 40 20.6666C40 21.7706 40.896 22.6666 42 22.6666C46.2053 22.6666 48 24.4613 48 28.6666V42C48 46.2053 46.2053 48 42 48H10C5.79467 48 4 46.2053 4 42V28.6666C4 24.4613 5.79467 22.6666 10 22.6666C11.104 22.6666 12 21.7706 12 20.6666C12 19.5626 11.104 18.6666 10 18.6666C3.552 18.6666 0 22.2186 0 28.6666V42C0 48.448 3.552 52 10 52H42C48.448 52 52 48.448 52 42V28.6666C52 22.2186 48.448 18.6666 42 18.6666Z" fill="#596065"/>
</svg>
