<svg width="18" height="18" viewBox="0 0 18 18" fill="none" xmlns="http://www.w3.org/2000/svg">
<g clip-path="url(#clip0_1_4678)">
<g clip-path="url(#clip1_1_4678)">
<mask id="mask0_1_4678" style="mask-type:luminance" maskUnits="userSpaceOnUse" x="0" y="0" width="18" height="18">
<path d="M18 0H0V18H18V0Z" fill="white"/>
</mask>
<g mask="url(#mask0_1_4678)">
<path fill-rule="evenodd" clip-rule="evenodd" d="M15.1925 2.69914C13.534 1.04073 11.3228 0.15625 9.00108 0.15625C4.13642 0.15625 0.15625 4.13642 0.15625 9.00108C0.15625 10.5489 0.598499 12.0968 1.37242 13.4235L0.15625 17.8459L4.7998 16.6298C6.12652 17.2931 7.56381 17.7353 9.00108 17.7353C13.8657 17.7353 17.8459 13.7552 17.8459 8.89053C17.8459 6.56871 16.8509 4.35754 15.1925 2.69914ZM9.00108 16.2981C7.67436 16.2981 6.34763 15.9664 5.24203 15.3031L5.0209 15.1925L2.25689 15.9664L3.03083 13.3129L2.80969 12.9813C2.03577 11.765 1.70409 10.4383 1.70409 9.11162C1.70409 5.13147 5.02091 1.81466 9.00108 1.81466C10.9911 1.81466 12.7601 2.58858 14.1974 3.9153C15.6347 5.35258 16.298 7.12156 16.298 9.11162C16.298 12.9813 13.0918 16.2981 9.00108 16.2981ZM12.9812 10.77C12.7601 10.6595 11.6545 10.1066 11.4334 10.1066C11.2123 9.99611 11.1017 9.99611 10.9911 10.2173C10.8806 10.4383 10.4383 10.8806 10.3278 11.1017C10.2173 11.2123 10.1067 11.2123 9.88556 11.2123C9.66441 11.1017 9.00108 10.8806 8.11659 10.1066C7.45326 9.55387 7.01102 8.77999 6.90041 8.55884C6.78987 8.33774 6.90041 8.22714 7.01102 8.11659C7.12156 8.00605 7.23211 7.89544 7.34266 7.7849C7.45326 7.67435 7.45326 7.56381 7.56381 7.45327C7.67436 7.34266 7.56381 7.23212 7.56381 7.12156C7.56381 7.01102 7.12156 5.90539 6.90041 5.46314C6.78987 5.13146 6.56878 5.13146 6.45817 5.13146C6.34763 5.13146 6.23709 5.13146 6.01594 5.13146C5.90537 5.13146 5.68425 5.13146 5.46313 5.35258C5.24202 5.57371 4.68924 6.12651 4.68924 7.23212C4.68924 8.33769 5.46315 9.33277 5.5737 9.55387C5.68427 9.66447 7.12156 11.9862 9.33278 12.8707C11.2123 13.6447 11.544 13.4235 11.9863 13.4235C12.4285 13.4235 13.313 12.8707 13.4234 12.4285C13.6446 11.8756 13.6446 11.4334 13.534 11.4334C13.4234 10.8806 13.2024 10.8806 12.9812 10.77Z" fill="#E6000D"/>
</g>
</g>
</g>
<defs>
<clipPath id="clip0_1_4678">
<rect width="18" height="18" fill="white"/>
</clipPath>
<clipPath id="clip1_1_4678">
<rect width="18" height="18" fill="white"/>
</clipPath>
</defs>
</svg>
