<svg width="168" height="118" viewBox="0 0 168 118" fill="none" xmlns="http://www.w3.org/2000/svg">
<path d="M31.2204 77.0789C27.541 86.3334 21.743 95.4767 13.9936 104.285C11.5405 107.073 11.206 111.087 13.213 114.209C14.7742 116.662 17.3385 118 20.126 118C20.9066 118 21.6872 117.945 22.4678 117.665C38.8583 112.871 77.1595 95.867 78.2188 41.3424C78.6088 20.3245 63.2218 2.26125 43.207 0.19846C32.1126 -0.916616 21.074 2.70698 12.8785 10.0662C4.68325 17.4812 0 28.0739 0 39.1125C0 57.5103 13.0459 73.6224 31.2204 77.0789Z" fill="black" fill-opacity="0.06"/>
<path d="M132.187 0.19846C121.148 -0.916616 110.109 2.70698 101.914 10.0662C93.7184 17.4812 89.0352 28.0739 89.0352 39.1125C89.0352 57.5103 102.081 73.6224 120.256 77.0789C116.576 86.3334 110.778 95.4767 103.029 104.285C100.576 107.073 100.241 111.087 102.248 114.209C103.809 116.662 106.374 118 109.162 118C109.942 118 110.722 117.944 111.503 117.665C127.894 112.871 166.195 95.867 167.254 41.3423V40.5621C167.254 19.8784 152.034 2.26125 132.187 0.19846Z" fill="black" fill-opacity="0.06"/>
</svg>
