<svg width="14" height="10" viewBox="0 0 14 10" fill="none" xmlns="http://www.w3.org/2000/svg">
<path d="M13.7501 4.99978C13.7501 5.41378 13.4141 5.74978 13.0001 5.74978H2.81115L5.53112 8.46975C5.82412 8.76275 5.82412 9.23779 5.53112 9.53079C5.38512 9.67679 5.19309 9.75076 5.00109 9.75076C4.80909 9.75076 4.61706 9.67779 4.47106 9.53079L0.471062 5.53079C0.402063 5.46179 0.347197 5.37889 0.309197 5.28689C0.233197 5.10389 0.233197 4.89689 0.309197 4.71389C0.347197 4.62189 0.402063 4.53875 0.471062 4.46975L4.47106 0.46975C4.76406 0.17675 5.2391 0.17675 5.5321 0.46975C5.8251 0.76275 5.8251 1.23779 5.5321 1.53079L2.81213 4.25076H13.0001C13.4141 4.24976 13.7501 4.58578 13.7501 4.99978Z" fill="#E6000D"/>
</svg>
