<svg width="43" height="55" viewBox="0 0 43 55" fill="none" xmlns="http://www.w3.org/2000/svg">
<path d="M41.7893 11.7941L30.3309 0.335693C30.1161 0.12085 29.8252 0 29.5208 0H5.45826C2.93052 0 0.875 2.05552 0.875 4.58337V50.4167C0.875 52.9445 2.93052 55 5.45837 55H37.5417C40.0695 55 42.125 52.9445 42.125 50.4166V12.6041C42.125 12.2998 42.0042 12.0089 41.7893 11.7941ZM30.6666 3.91198L38.213 11.4584H32.9583C31.695 11.4584 30.6666 10.43 30.6666 9.16674V3.91198ZM39.8334 50.4166C39.8334 51.6799 38.805 52.7083 37.5417 52.7083H5.45837C4.19509 52.7083 3.16674 51.6799 3.16674 50.4166V4.58337C3.16674 3.32009 4.19509 2.29174 5.45837 2.29174H28.375V9.16674C28.375 11.6945 30.4305 13.75 32.9584 13.75H39.8334V50.4166Z" fill="#E6000D"/>
<path d="M27.3421 33.6373C26.2813 32.8025 25.2732 31.9443 24.6018 31.2729C23.729 30.4001 22.9513 29.5542 22.2755 28.7485C23.3296 25.4912 23.7917 23.8116 23.7917 22.9164C23.7917 19.113 22.4176 18.333 20.3542 18.333C18.7865 18.333 16.9167 19.1476 16.9167 23.0261C16.9167 24.7359 17.8533 26.8116 19.7097 29.2241C19.2554 30.6105 18.7216 32.2096 18.1219 34.0122C17.8332 34.8772 17.5199 35.6783 17.1886 36.4191C16.919 36.5389 16.6571 36.6608 16.4042 36.7872C15.4934 37.2427 14.6284 37.6522 13.8261 38.0327C10.167 39.7649 7.75 40.9107 7.75 43.1732C7.75 44.8159 9.53481 45.833 11.1875 45.833C13.318 45.833 16.5351 42.9874 18.8849 38.1937C21.3243 37.2314 24.3568 36.5186 26.7502 36.0721C28.6682 37.5469 30.7864 38.958 31.8125 38.958C34.6536 38.958 35.25 37.3153 35.25 35.9378C35.25 33.2288 32.1549 33.2288 30.6666 33.2288C30.2045 33.2289 28.9647 33.3654 27.3421 33.6373ZM11.1875 43.5414C10.5329 43.5414 10.0898 43.2325 10.0416 43.1732C10.0416 42.3608 12.4642 41.2128 14.8074 40.1028C14.9562 40.0323 15.1073 39.9618 15.2606 39.889C13.5396 42.3844 11.8376 43.5414 11.1875 43.5414ZM19.2084 23.0261C19.2084 20.6247 19.9537 20.6247 20.3542 20.6247C21.1644 20.6247 21.5001 20.6247 21.5001 22.9164C21.5001 23.3998 21.1778 24.6083 20.5881 26.4949C19.6883 25.1096 19.2084 23.9224 19.2084 23.0261ZM20.0868 35.3415C20.1584 35.1424 20.2278 34.941 20.2949 34.7373C20.7201 33.4617 21.1029 32.3158 21.4441 31.2841C21.9197 31.8078 22.4322 32.3438 22.9817 32.8932C23.1965 33.108 23.7291 33.5914 24.4386 34.1967C23.0262 34.5045 21.5235 34.8861 20.0868 35.3415ZM32.9584 35.938C32.9584 36.4527 32.9584 36.6664 31.8953 36.6731C31.5832 36.606 30.8614 36.1808 29.9706 35.5743C30.294 35.5386 30.5324 35.5206 30.6666 35.5206C32.3597 35.5206 32.8398 35.6862 32.9584 35.938Z" fill="#E6000D"/>
</svg>
