<svg width="124" height="124" viewBox="0 0 124 124" fill="none" xmlns="http://www.w3.org/2000/svg">
<path d="M62 122.062C95.1716 122.062 122.062 95.1716 122.062 62C122.062 28.8284 95.1716 1.9375 62 1.9375C28.8284 1.9375 1.9375 28.8284 1.9375 62C1.9375 95.1716 28.8284 122.062 62 122.062Z" fill="#E6ECFF"/>
<path d="M108.896 98.3674C103.441 91.0641 96.358 85.1339 88.2093 81.0479C80.0606 76.9619 71.0712 74.8329 61.9556 74.8301C52.8399 74.8272 43.8491 76.9506 35.6979 81.0314C27.5467 85.1123 20.4596 91.0381 15 98.338C20.4319 105.675 27.5073 111.637 35.6591 115.746C43.8108 119.855 52.8119 121.997 61.9408 122C71.0696 122.003 80.0721 119.867 88.2264 115.763C96.3807 111.659 103.46 105.701 108.896 98.3674Z" fill="#104EE0"/>
<path d="M61.9584 67.283C74.4629 67.283 84.5999 57.146 84.5999 44.6415C84.5999 32.1369 74.4629 22 61.9584 22C49.4538 22 39.3169 32.1369 39.3169 44.6415C39.3169 57.146 49.4538 67.283 61.9584 67.283Z" fill="#104EE0"/>
</svg>
